G04 #@! TF.GenerationSoftware,KiCad,Pcbnew,(5.1.6)-1*
G04 #@! TF.CreationDate,2020-08-29T11:02:00-03:00*
G04 #@! TF.ProjectId,fonte_pequena,666f6e74-655f-4706-9571-75656e612e6b,rev?*
G04 #@! TF.SameCoordinates,Original*
G04 #@! TF.FileFunction,Copper,L2,Bot*
G04 #@! TF.FilePolarity,Positive*
%FSLAX46Y46*%
G04 Gerber Fmt 4.6, Leading zero omitted, Abs format (unit mm)*
G04 Created by KiCad (PCBNEW (5.1.6)-1) date 2020-08-29 11:02:00*
%MOMM*%
%LPD*%
G01*
G04 APERTURE LIST*
G04 #@! TA.AperFunction,ComponentPad*
%ADD10O,2.000000X1.905000*%
G04 #@! TD*
G04 #@! TA.AperFunction,ComponentPad*
%ADD11R,2.000000X1.905000*%
G04 #@! TD*
G04 #@! TA.AperFunction,ComponentPad*
%ADD12O,1.400000X1.400000*%
G04 #@! TD*
G04 #@! TA.AperFunction,ComponentPad*
%ADD13C,1.400000*%
G04 #@! TD*
G04 #@! TA.AperFunction,ComponentPad*
%ADD14O,1.905000X2.000000*%
G04 #@! TD*
G04 #@! TA.AperFunction,ComponentPad*
%ADD15R,1.905000X2.000000*%
G04 #@! TD*
G04 #@! TA.AperFunction,ComponentPad*
%ADD16C,3.000000*%
G04 #@! TD*
G04 #@! TA.AperFunction,ComponentPad*
%ADD17R,3.000000X3.000000*%
G04 #@! TD*
G04 #@! TA.AperFunction,ComponentPad*
%ADD18O,2.000000X2.000000*%
G04 #@! TD*
G04 #@! TA.AperFunction,ComponentPad*
%ADD19R,2.000000X2.000000*%
G04 #@! TD*
G04 #@! TA.AperFunction,ComponentPad*
%ADD20C,2.000000*%
G04 #@! TD*
G04 #@! TA.AperFunction,ComponentPad*
%ADD21C,1.600000*%
G04 #@! TD*
G04 #@! TA.AperFunction,ComponentPad*
%ADD22R,1.600000X1.600000*%
G04 #@! TD*
G04 #@! TA.AperFunction,ComponentPad*
%ADD23C,2.400000*%
G04 #@! TD*
G04 #@! TA.AperFunction,ComponentPad*
%ADD24R,2.400000X2.400000*%
G04 #@! TD*
G04 #@! TA.AperFunction,ComponentPad*
%ADD25R,1.800000X1.800000*%
G04 #@! TD*
G04 #@! TA.AperFunction,ComponentPad*
%ADD26C,1.800000*%
G04 #@! TD*
G04 #@! TA.AperFunction,ViaPad*
%ADD27C,3.200000*%
G04 #@! TD*
G04 #@! TA.AperFunction,Conductor*
%ADD28C,0.800000*%
G04 #@! TD*
G04 #@! TA.AperFunction,Conductor*
%ADD29C,0.254000*%
G04 #@! TD*
G04 APERTURE END LIST*
D10*
X88900000Y-173355000D03*
X88900000Y-170815000D03*
D11*
X88900000Y-168275000D03*
D10*
X88900000Y-158750000D03*
X88900000Y-156210000D03*
D11*
X88900000Y-153670000D03*
D12*
X106680000Y-159385000D03*
D13*
X106680000Y-151765000D03*
D14*
X127000000Y-153670000D03*
X129540000Y-153670000D03*
D15*
X132080000Y-153670000D03*
D16*
X142240000Y-168275000D03*
D17*
X142240000Y-173355000D03*
D16*
X142240000Y-162560000D03*
X142240000Y-157480000D03*
D17*
X142240000Y-152400000D03*
D16*
X51435000Y-168275000D03*
X51435000Y-163195000D03*
D17*
X51435000Y-158115000D03*
D18*
X106680000Y-174625000D03*
D19*
X106680000Y-169545000D03*
X60325000Y-155735000D03*
D20*
X60325000Y-160735000D03*
X60325000Y-165735000D03*
X60325000Y-170735000D03*
D21*
X115570000Y-167005000D03*
D22*
X115570000Y-169005000D03*
D21*
X115570000Y-156885000D03*
D22*
X115570000Y-159385000D03*
D21*
X100330000Y-167005000D03*
D22*
X100330000Y-169005000D03*
D21*
X100330000Y-156210000D03*
D22*
X100330000Y-158210000D03*
D21*
X81915000Y-173275000D03*
X81915000Y-168275000D03*
X81915000Y-158115000D03*
X81915000Y-153115000D03*
D23*
X71120000Y-173275000D03*
D24*
X71120000Y-168275000D03*
D23*
X71120000Y-158035000D03*
D24*
X71120000Y-153035000D03*
D25*
X113030000Y-175260000D03*
D26*
X115570000Y-175260000D03*
D13*
X128270000Y-176530000D03*
D12*
X120650000Y-176530000D03*
D27*
X49530000Y-177800000D03*
X49530000Y-147320000D03*
X144145000Y-147320000D03*
X144145000Y-177800000D03*
D28*
X71120000Y-153035000D02*
X69120000Y-153035000D01*
X60325000Y-155735000D02*
X66420000Y-155735000D01*
X66420000Y-155735000D02*
X69120000Y-153035000D01*
X81915000Y-173275000D02*
X71120000Y-173275000D01*
X88900000Y-170815000D02*
X84375000Y-170815000D01*
X84375000Y-170815000D02*
X81915000Y-173275000D01*
X60325000Y-170735000D02*
X68580000Y-170735000D01*
X68580000Y-170735000D02*
X71120000Y-173275000D01*
X88900000Y-158750000D02*
X90700000Y-158750000D01*
X100330000Y-158210000D02*
X91240000Y-158210000D01*
X91240000Y-158210000D02*
X90700000Y-158750000D01*
X139940000Y-152400000D02*
X139509600Y-151969600D01*
X139509600Y-151969600D02*
X108455900Y-151969600D01*
X108455900Y-151969600D02*
X102215500Y-158210000D01*
X102215500Y-158210000D02*
X100330000Y-158210000D01*
X142240000Y-152400000D02*
X139940000Y-152400000D01*
X100330000Y-167005000D02*
X95250000Y-167005000D01*
X95250000Y-167005000D02*
X88900000Y-173355000D01*
X121025400Y-168724600D02*
X127000000Y-162750000D01*
X127000000Y-162750000D02*
X127000000Y-153670000D01*
X115570000Y-169005000D02*
X120745000Y-169005000D01*
X120745000Y-169005000D02*
X121025400Y-168724600D01*
X121025400Y-168724600D02*
X128270000Y-175969300D01*
X128270000Y-175969300D02*
X137325700Y-175969300D01*
X137325700Y-175969300D02*
X139940000Y-173355000D01*
X128270000Y-176530000D02*
X128270000Y-175969300D01*
X142240000Y-173355000D02*
X139940000Y-173355000D01*
X60325000Y-165735000D02*
X53975000Y-165735000D01*
X53975000Y-165735000D02*
X51435000Y-163195000D01*
X120650000Y-176530000D02*
X116840000Y-176530000D01*
X116840000Y-176530000D02*
X115570000Y-175260000D01*
X51435000Y-158115000D02*
X53735000Y-158115000D01*
X60325000Y-160735000D02*
X56355000Y-160735000D01*
X56355000Y-160735000D02*
X53735000Y-158115000D01*
D29*
G36*
X146033001Y-179053000D02*
G01*
X47642000Y-179053000D01*
X47642000Y-170574755D01*
X58698000Y-170574755D01*
X58698000Y-170895245D01*
X58760525Y-171209578D01*
X58883172Y-171505673D01*
X59061227Y-171772152D01*
X59287848Y-171998773D01*
X59554327Y-172176828D01*
X59850422Y-172299475D01*
X60164755Y-172362000D01*
X60485245Y-172362000D01*
X60799578Y-172299475D01*
X61095673Y-172176828D01*
X61362152Y-171998773D01*
X61588773Y-171772152D01*
X61595556Y-171762000D01*
X68154604Y-171762000D01*
X69325296Y-172932693D01*
X69293000Y-173095056D01*
X69293000Y-173454944D01*
X69363211Y-173807916D01*
X69500934Y-174140409D01*
X69700876Y-174439645D01*
X69955355Y-174694124D01*
X70254591Y-174894066D01*
X70587084Y-175031789D01*
X70940056Y-175102000D01*
X71299944Y-175102000D01*
X71652916Y-175031789D01*
X71716540Y-175005435D01*
X105089871Y-175005435D01*
X105194644Y-175308344D01*
X105356499Y-175584992D01*
X105569215Y-175824748D01*
X105824618Y-176018399D01*
X106112893Y-176158502D01*
X106299566Y-176215124D01*
X106553000Y-176095777D01*
X106553000Y-174752000D01*
X106807000Y-174752000D01*
X106807000Y-176095777D01*
X107060434Y-176215124D01*
X107242168Y-176160000D01*
X111491928Y-176160000D01*
X111504188Y-176284482D01*
X111540498Y-176404180D01*
X111599463Y-176514494D01*
X111678815Y-176611185D01*
X111775506Y-176690537D01*
X111885820Y-176749502D01*
X112005518Y-176785812D01*
X112130000Y-176798072D01*
X112744250Y-176795000D01*
X112903000Y-176636250D01*
X112903000Y-175387000D01*
X111653750Y-175387000D01*
X111495000Y-175545750D01*
X111491928Y-176160000D01*
X107242168Y-176160000D01*
X107247107Y-176158502D01*
X107535382Y-176018399D01*
X107790785Y-175824748D01*
X108003501Y-175584992D01*
X108165356Y-175308344D01*
X108270129Y-175005435D01*
X108151315Y-174752000D01*
X106807000Y-174752000D01*
X106553000Y-174752000D01*
X105208685Y-174752000D01*
X105089871Y-175005435D01*
X71716540Y-175005435D01*
X71985409Y-174894066D01*
X72284645Y-174694124D01*
X72539124Y-174439645D01*
X72631095Y-174302000D01*
X80923916Y-174302000D01*
X81005340Y-174383424D01*
X81239062Y-174539591D01*
X81498759Y-174647162D01*
X81774453Y-174702000D01*
X82055547Y-174702000D01*
X82331241Y-174647162D01*
X82590938Y-174539591D01*
X82824660Y-174383424D01*
X83023424Y-174184660D01*
X83179591Y-173950938D01*
X83287162Y-173691241D01*
X83342000Y-173415547D01*
X83342000Y-173300396D01*
X84800397Y-171842000D01*
X87652028Y-171842000D01*
X87730221Y-171937279D01*
X87910220Y-172085000D01*
X87730221Y-172232721D01*
X87532840Y-172473231D01*
X87386172Y-172747627D01*
X87295854Y-173045364D01*
X87265358Y-173355000D01*
X87295854Y-173664636D01*
X87386172Y-173962373D01*
X87532840Y-174236769D01*
X87730221Y-174477279D01*
X87970731Y-174674660D01*
X88245127Y-174821328D01*
X88542864Y-174911646D01*
X88774908Y-174934500D01*
X89025092Y-174934500D01*
X89257136Y-174911646D01*
X89554873Y-174821328D01*
X89829269Y-174674660D01*
X90069779Y-174477279D01*
X90260762Y-174244565D01*
X105089871Y-174244565D01*
X105208685Y-174498000D01*
X106553000Y-174498000D01*
X106553000Y-173154223D01*
X106807000Y-173154223D01*
X106807000Y-174498000D01*
X108151315Y-174498000D01*
X108216011Y-174360000D01*
X111491928Y-174360000D01*
X111495000Y-174974250D01*
X111653750Y-175133000D01*
X112903000Y-175133000D01*
X112903000Y-173883750D01*
X113157000Y-173883750D01*
X113157000Y-175133000D01*
X113177000Y-175133000D01*
X113177000Y-175387000D01*
X113157000Y-175387000D01*
X113157000Y-176636250D01*
X113315750Y-176795000D01*
X113930000Y-176798072D01*
X114054482Y-176785812D01*
X114174180Y-176749502D01*
X114284494Y-176690537D01*
X114381185Y-176611185D01*
X114460537Y-176514494D01*
X114519502Y-176404180D01*
X114527688Y-176377193D01*
X114596594Y-176446099D01*
X114846694Y-176613210D01*
X115124590Y-176728319D01*
X115419604Y-176787000D01*
X115644603Y-176787000D01*
X116078127Y-177220524D01*
X116110288Y-177259712D01*
X116266669Y-177388051D01*
X116445083Y-177483415D01*
X116638673Y-177542140D01*
X116789549Y-177557000D01*
X116789558Y-177557000D01*
X116839999Y-177561968D01*
X116890440Y-177557000D01*
X119800339Y-177557000D01*
X119804087Y-177560748D01*
X120021430Y-177705972D01*
X120262928Y-177806004D01*
X120519302Y-177857000D01*
X120780698Y-177857000D01*
X121037072Y-177806004D01*
X121278570Y-177705972D01*
X121495913Y-177560748D01*
X121680748Y-177375913D01*
X121825972Y-177158570D01*
X121926004Y-176917072D01*
X121977000Y-176660698D01*
X121977000Y-176399302D01*
X121926004Y-176142928D01*
X121825972Y-175901430D01*
X121680748Y-175684087D01*
X121495913Y-175499252D01*
X121278570Y-175354028D01*
X121037072Y-175253996D01*
X120780698Y-175203000D01*
X120519302Y-175203000D01*
X120262928Y-175253996D01*
X120021430Y-175354028D01*
X119804087Y-175499252D01*
X119800339Y-175503000D01*
X117265397Y-175503000D01*
X117097000Y-175334603D01*
X117097000Y-175109604D01*
X117038319Y-174814590D01*
X116923210Y-174536694D01*
X116756099Y-174286594D01*
X116543406Y-174073901D01*
X116293306Y-173906790D01*
X116015410Y-173791681D01*
X115720396Y-173733000D01*
X115419604Y-173733000D01*
X115124590Y-173791681D01*
X114846694Y-173906790D01*
X114596594Y-174073901D01*
X114527688Y-174142807D01*
X114519502Y-174115820D01*
X114460537Y-174005506D01*
X114381185Y-173908815D01*
X114284494Y-173829463D01*
X114174180Y-173770498D01*
X114054482Y-173734188D01*
X113930000Y-173721928D01*
X113315750Y-173725000D01*
X113157000Y-173883750D01*
X112903000Y-173883750D01*
X112744250Y-173725000D01*
X112130000Y-173721928D01*
X112005518Y-173734188D01*
X111885820Y-173770498D01*
X111775506Y-173829463D01*
X111678815Y-173908815D01*
X111599463Y-174005506D01*
X111540498Y-174115820D01*
X111504188Y-174235518D01*
X111491928Y-174360000D01*
X108216011Y-174360000D01*
X108270129Y-174244565D01*
X108165356Y-173941656D01*
X108003501Y-173665008D01*
X107790785Y-173425252D01*
X107535382Y-173231601D01*
X107247107Y-173091498D01*
X107060434Y-173034876D01*
X106807000Y-173154223D01*
X106553000Y-173154223D01*
X106299566Y-173034876D01*
X106112893Y-173091498D01*
X105824618Y-173231601D01*
X105569215Y-173425252D01*
X105356499Y-173665008D01*
X105194644Y-173941656D01*
X105089871Y-174244565D01*
X90260762Y-174244565D01*
X90267160Y-174236769D01*
X90413828Y-173962373D01*
X90504146Y-173664636D01*
X90534642Y-173355000D01*
X90518302Y-173189094D01*
X93902396Y-169805000D01*
X98891928Y-169805000D01*
X98904188Y-169929482D01*
X98940498Y-170049180D01*
X98999463Y-170159494D01*
X99078815Y-170256185D01*
X99175506Y-170335537D01*
X99285820Y-170394502D01*
X99405518Y-170430812D01*
X99530000Y-170443072D01*
X100044250Y-170440000D01*
X100203000Y-170281250D01*
X100203000Y-169132000D01*
X100457000Y-169132000D01*
X100457000Y-170281250D01*
X100615750Y-170440000D01*
X101130000Y-170443072D01*
X101254482Y-170430812D01*
X101374180Y-170394502D01*
X101484494Y-170335537D01*
X101581185Y-170256185D01*
X101660537Y-170159494D01*
X101719502Y-170049180D01*
X101755812Y-169929482D01*
X101768072Y-169805000D01*
X101765000Y-169290750D01*
X101606250Y-169132000D01*
X100457000Y-169132000D01*
X100203000Y-169132000D01*
X99053750Y-169132000D01*
X98895000Y-169290750D01*
X98891928Y-169805000D01*
X93902396Y-169805000D01*
X95675397Y-168032000D01*
X98918906Y-168032000D01*
X98904188Y-168080518D01*
X98891928Y-168205000D01*
X98895000Y-168719250D01*
X99053750Y-168878000D01*
X100203000Y-168878000D01*
X100203000Y-168858000D01*
X100457000Y-168858000D01*
X100457000Y-168878000D01*
X101606250Y-168878000D01*
X101765000Y-168719250D01*
X101766040Y-168545000D01*
X105049967Y-168545000D01*
X105049967Y-170545000D01*
X105062073Y-170667913D01*
X105097925Y-170786103D01*
X105156147Y-170895028D01*
X105234499Y-170990501D01*
X105329972Y-171068853D01*
X105438897Y-171127075D01*
X105557087Y-171162927D01*
X105680000Y-171175033D01*
X107680000Y-171175033D01*
X107802913Y-171162927D01*
X107921103Y-171127075D01*
X108030028Y-171068853D01*
X108125501Y-170990501D01*
X108203853Y-170895028D01*
X108262075Y-170786103D01*
X108297927Y-170667913D01*
X108310033Y-170545000D01*
X108310033Y-168545000D01*
X108297927Y-168422087D01*
X108262075Y-168303897D01*
X108203853Y-168194972D01*
X108125501Y-168099499D01*
X108030028Y-168021147D01*
X107921103Y-167962925D01*
X107802913Y-167927073D01*
X107680000Y-167914967D01*
X105680000Y-167914967D01*
X105557087Y-167927073D01*
X105438897Y-167962925D01*
X105329972Y-168021147D01*
X105234499Y-168099499D01*
X105156147Y-168194972D01*
X105097925Y-168303897D01*
X105062073Y-168422087D01*
X105049967Y-168545000D01*
X101766040Y-168545000D01*
X101768072Y-168205000D01*
X101755812Y-168080518D01*
X101719502Y-167960820D01*
X101660537Y-167850506D01*
X101581185Y-167753815D01*
X101558394Y-167735111D01*
X101594591Y-167680938D01*
X101702162Y-167421241D01*
X101757000Y-167145547D01*
X101757000Y-166864453D01*
X101702162Y-166588759D01*
X101594591Y-166329062D01*
X101438424Y-166095340D01*
X101355382Y-166012298D01*
X114756903Y-166012298D01*
X115570000Y-166825395D01*
X116383097Y-166012298D01*
X116311514Y-165768329D01*
X116056004Y-165647429D01*
X115781816Y-165578700D01*
X115499488Y-165564783D01*
X115219870Y-165606213D01*
X114953708Y-165701397D01*
X114828486Y-165768329D01*
X114756903Y-166012298D01*
X101355382Y-166012298D01*
X101239660Y-165896576D01*
X101005938Y-165740409D01*
X100746241Y-165632838D01*
X100470547Y-165578000D01*
X100189453Y-165578000D01*
X99913759Y-165632838D01*
X99654062Y-165740409D01*
X99420340Y-165896576D01*
X99338916Y-165978000D01*
X95300440Y-165978000D01*
X95249999Y-165973032D01*
X95199558Y-165978000D01*
X95199549Y-165978000D01*
X95048673Y-165992860D01*
X94855083Y-166051585D01*
X94676669Y-166146949D01*
X94520288Y-166275288D01*
X94488128Y-166314475D01*
X90455990Y-170346614D01*
X90413828Y-170207627D01*
X90267160Y-169933231D01*
X90163360Y-169806750D01*
X90254494Y-169758037D01*
X90351185Y-169678685D01*
X90430537Y-169581994D01*
X90489502Y-169471680D01*
X90525812Y-169351982D01*
X90538072Y-169227500D01*
X90535000Y-168560750D01*
X90376250Y-168402000D01*
X89027000Y-168402000D01*
X89027000Y-168422000D01*
X88773000Y-168422000D01*
X88773000Y-168402000D01*
X87423750Y-168402000D01*
X87265000Y-168560750D01*
X87261928Y-169227500D01*
X87274188Y-169351982D01*
X87310498Y-169471680D01*
X87369463Y-169581994D01*
X87448815Y-169678685D01*
X87545506Y-169758037D01*
X87601562Y-169788000D01*
X84425440Y-169788000D01*
X84374999Y-169783032D01*
X84324558Y-169788000D01*
X84324549Y-169788000D01*
X84173673Y-169802860D01*
X83980083Y-169861585D01*
X83801669Y-169956949D01*
X83645288Y-170085288D01*
X83613128Y-170124475D01*
X81889604Y-171848000D01*
X81774453Y-171848000D01*
X81498759Y-171902838D01*
X81239062Y-172010409D01*
X81005340Y-172166576D01*
X80923916Y-172248000D01*
X72631095Y-172248000D01*
X72539124Y-172110355D01*
X72284645Y-171855876D01*
X71985409Y-171655934D01*
X71652916Y-171518211D01*
X71299944Y-171448000D01*
X70940056Y-171448000D01*
X70777693Y-171480296D01*
X69341877Y-170044481D01*
X69309712Y-170005288D01*
X69153331Y-169876949D01*
X68974917Y-169781585D01*
X68781327Y-169722860D01*
X68630451Y-169708000D01*
X68630441Y-169708000D01*
X68580000Y-169703032D01*
X68529559Y-169708000D01*
X61595556Y-169708000D01*
X61588773Y-169697848D01*
X61365925Y-169475000D01*
X69281928Y-169475000D01*
X69294188Y-169599482D01*
X69330498Y-169719180D01*
X69389463Y-169829494D01*
X69468815Y-169926185D01*
X69565506Y-170005537D01*
X69675820Y-170064502D01*
X69795518Y-170100812D01*
X69920000Y-170113072D01*
X70834250Y-170110000D01*
X70993000Y-169951250D01*
X70993000Y-168402000D01*
X71247000Y-168402000D01*
X71247000Y-169951250D01*
X71405750Y-170110000D01*
X72320000Y-170113072D01*
X72444482Y-170100812D01*
X72564180Y-170064502D01*
X72674494Y-170005537D01*
X72771185Y-169926185D01*
X72850537Y-169829494D01*
X72909502Y-169719180D01*
X72945812Y-169599482D01*
X72958072Y-169475000D01*
X72957376Y-169267702D01*
X81101903Y-169267702D01*
X81173486Y-169511671D01*
X81428996Y-169632571D01*
X81703184Y-169701300D01*
X81985512Y-169715217D01*
X82265130Y-169673787D01*
X82531292Y-169578603D01*
X82656514Y-169511671D01*
X82728097Y-169267702D01*
X81915000Y-168454605D01*
X81101903Y-169267702D01*
X72957376Y-169267702D01*
X72955000Y-168560750D01*
X72796250Y-168402000D01*
X71247000Y-168402000D01*
X70993000Y-168402000D01*
X69443750Y-168402000D01*
X69285000Y-168560750D01*
X69281928Y-169475000D01*
X61365925Y-169475000D01*
X61362152Y-169471227D01*
X61095673Y-169293172D01*
X60799578Y-169170525D01*
X60485245Y-169108000D01*
X60164755Y-169108000D01*
X59850422Y-169170525D01*
X59554327Y-169293172D01*
X59287848Y-169471227D01*
X59061227Y-169697848D01*
X58883172Y-169964327D01*
X58760525Y-170260422D01*
X58698000Y-170574755D01*
X47642000Y-170574755D01*
X47642000Y-169766653D01*
X50122952Y-169766653D01*
X50278962Y-170082214D01*
X50653745Y-170273020D01*
X51058551Y-170387044D01*
X51477824Y-170419902D01*
X51895451Y-170370334D01*
X52295383Y-170240243D01*
X52591038Y-170082214D01*
X52747048Y-169766653D01*
X51435000Y-168454605D01*
X50122952Y-169766653D01*
X47642000Y-169766653D01*
X47642000Y-168317824D01*
X49290098Y-168317824D01*
X49339666Y-168735451D01*
X49469757Y-169135383D01*
X49627786Y-169431038D01*
X49943347Y-169587048D01*
X51255395Y-168275000D01*
X51614605Y-168275000D01*
X52926653Y-169587048D01*
X53242214Y-169431038D01*
X53433020Y-169056255D01*
X53547044Y-168651449D01*
X53571019Y-168345512D01*
X80474783Y-168345512D01*
X80516213Y-168625130D01*
X80611397Y-168891292D01*
X80678329Y-169016514D01*
X80922298Y-169088097D01*
X81735395Y-168275000D01*
X82094605Y-168275000D01*
X82907702Y-169088097D01*
X83151671Y-169016514D01*
X83272571Y-168761004D01*
X83341300Y-168486816D01*
X83355217Y-168204488D01*
X83313787Y-167924870D01*
X83218603Y-167658708D01*
X83151671Y-167533486D01*
X82907702Y-167461903D01*
X82094605Y-168275000D01*
X81735395Y-168275000D01*
X80922298Y-167461903D01*
X80678329Y-167533486D01*
X80557429Y-167788996D01*
X80488700Y-168063184D01*
X80474783Y-168345512D01*
X53571019Y-168345512D01*
X53579902Y-168232176D01*
X53530334Y-167814549D01*
X53400243Y-167414617D01*
X53242214Y-167118962D01*
X52926653Y-166962952D01*
X51614605Y-168275000D01*
X51255395Y-168275000D01*
X49943347Y-166962952D01*
X49627786Y-167118962D01*
X49436980Y-167493745D01*
X49322956Y-167898551D01*
X49290098Y-168317824D01*
X47642000Y-168317824D01*
X47642000Y-166783347D01*
X50122952Y-166783347D01*
X51435000Y-168095395D01*
X52747048Y-166783347D01*
X52591038Y-166467786D01*
X52216255Y-166276980D01*
X51811449Y-166162956D01*
X51392176Y-166130098D01*
X50974549Y-166179666D01*
X50574617Y-166309757D01*
X50278962Y-166467786D01*
X50122952Y-166783347D01*
X47642000Y-166783347D01*
X47642000Y-162985509D01*
X49308000Y-162985509D01*
X49308000Y-163404491D01*
X49389739Y-163815423D01*
X49550077Y-164202512D01*
X49782851Y-164550884D01*
X50079116Y-164847149D01*
X50427488Y-165079923D01*
X50814577Y-165240261D01*
X51225509Y-165322000D01*
X51644491Y-165322000D01*
X52032437Y-165244833D01*
X53213128Y-166425525D01*
X53245288Y-166464712D01*
X53401669Y-166593051D01*
X53580083Y-166688415D01*
X53773673Y-166747140D01*
X53924549Y-166762000D01*
X53924558Y-166762000D01*
X53974999Y-166766968D01*
X54025440Y-166762000D01*
X59054444Y-166762000D01*
X59061227Y-166772152D01*
X59287848Y-166998773D01*
X59554327Y-167176828D01*
X59850422Y-167299475D01*
X60164755Y-167362000D01*
X60485245Y-167362000D01*
X60799578Y-167299475D01*
X61095673Y-167176828D01*
X61248069Y-167075000D01*
X69281928Y-167075000D01*
X69285000Y-167989250D01*
X69443750Y-168148000D01*
X70993000Y-168148000D01*
X70993000Y-166598750D01*
X71247000Y-166598750D01*
X71247000Y-168148000D01*
X72796250Y-168148000D01*
X72955000Y-167989250D01*
X72957375Y-167282298D01*
X81101903Y-167282298D01*
X81915000Y-168095395D01*
X82687895Y-167322500D01*
X87261928Y-167322500D01*
X87265000Y-167989250D01*
X87423750Y-168148000D01*
X88773000Y-168148000D01*
X88773000Y-166846250D01*
X89027000Y-166846250D01*
X89027000Y-168148000D01*
X90376250Y-168148000D01*
X90535000Y-167989250D01*
X90538072Y-167322500D01*
X90525812Y-167198018D01*
X90489502Y-167078320D01*
X90430537Y-166968006D01*
X90351185Y-166871315D01*
X90254494Y-166791963D01*
X90144180Y-166732998D01*
X90024482Y-166696688D01*
X89900000Y-166684428D01*
X89185750Y-166687500D01*
X89027000Y-166846250D01*
X88773000Y-166846250D01*
X88614250Y-166687500D01*
X87900000Y-166684428D01*
X87775518Y-166696688D01*
X87655820Y-166732998D01*
X87545506Y-166791963D01*
X87448815Y-166871315D01*
X87369463Y-166968006D01*
X87310498Y-167078320D01*
X87274188Y-167198018D01*
X87261928Y-167322500D01*
X82687895Y-167322500D01*
X82728097Y-167282298D01*
X82656514Y-167038329D01*
X82401004Y-166917429D01*
X82126816Y-166848700D01*
X81844488Y-166834783D01*
X81564870Y-166876213D01*
X81298708Y-166971397D01*
X81173486Y-167038329D01*
X81101903Y-167282298D01*
X72957375Y-167282298D01*
X72958072Y-167075000D01*
X72945812Y-166950518D01*
X72909502Y-166830820D01*
X72850537Y-166720506D01*
X72771185Y-166623815D01*
X72674494Y-166544463D01*
X72564180Y-166485498D01*
X72444482Y-166449188D01*
X72320000Y-166436928D01*
X71405750Y-166440000D01*
X71247000Y-166598750D01*
X70993000Y-166598750D01*
X70834250Y-166440000D01*
X69920000Y-166436928D01*
X69795518Y-166449188D01*
X69675820Y-166485498D01*
X69565506Y-166544463D01*
X69468815Y-166623815D01*
X69389463Y-166720506D01*
X69330498Y-166830820D01*
X69294188Y-166950518D01*
X69281928Y-167075000D01*
X61248069Y-167075000D01*
X61362152Y-166998773D01*
X61588773Y-166772152D01*
X61766828Y-166505673D01*
X61889475Y-166209578D01*
X61952000Y-165895245D01*
X61952000Y-165574755D01*
X61889475Y-165260422D01*
X61766828Y-164964327D01*
X61588773Y-164697848D01*
X61362152Y-164471227D01*
X61095673Y-164293172D01*
X60799578Y-164170525D01*
X60485245Y-164108000D01*
X60164755Y-164108000D01*
X59850422Y-164170525D01*
X59554327Y-164293172D01*
X59287848Y-164471227D01*
X59061227Y-164697848D01*
X59054444Y-164708000D01*
X54400397Y-164708000D01*
X53484833Y-163792437D01*
X53562000Y-163404491D01*
X53562000Y-162985509D01*
X53480261Y-162574577D01*
X53319923Y-162187488D01*
X53087149Y-161839116D01*
X52790884Y-161542851D01*
X52442512Y-161310077D01*
X52055423Y-161149739D01*
X51644491Y-161068000D01*
X51225509Y-161068000D01*
X50814577Y-161149739D01*
X50427488Y-161310077D01*
X50079116Y-161542851D01*
X49782851Y-161839116D01*
X49550077Y-162187488D01*
X49389739Y-162574577D01*
X49308000Y-162985509D01*
X47642000Y-162985509D01*
X47642000Y-156615000D01*
X49304967Y-156615000D01*
X49304967Y-159615000D01*
X49317073Y-159737913D01*
X49352925Y-159856103D01*
X49411147Y-159965028D01*
X49489499Y-160060501D01*
X49584972Y-160138853D01*
X49693897Y-160197075D01*
X49812087Y-160232927D01*
X49935000Y-160245033D01*
X52935000Y-160245033D01*
X53057913Y-160232927D01*
X53176103Y-160197075D01*
X53285028Y-160138853D01*
X53380501Y-160060501D01*
X53458853Y-159965028D01*
X53517075Y-159856103D01*
X53552927Y-159737913D01*
X53565033Y-159615000D01*
X53565033Y-159397429D01*
X55593132Y-161425530D01*
X55625288Y-161464712D01*
X55664470Y-161496868D01*
X55664475Y-161496873D01*
X55781668Y-161593051D01*
X55960082Y-161688415D01*
X56153672Y-161747140D01*
X56171831Y-161748928D01*
X56304549Y-161762000D01*
X56304556Y-161762000D01*
X56355000Y-161766968D01*
X56405443Y-161762000D01*
X59054444Y-161762000D01*
X59061227Y-161772152D01*
X59287848Y-161998773D01*
X59554327Y-162176828D01*
X59850422Y-162299475D01*
X60164755Y-162362000D01*
X60485245Y-162362000D01*
X60799578Y-162299475D01*
X61095673Y-162176828D01*
X61362152Y-161998773D01*
X61588773Y-161772152D01*
X61766828Y-161505673D01*
X61889475Y-161209578D01*
X61952000Y-160895245D01*
X61952000Y-160574755D01*
X61889475Y-160260422D01*
X61766828Y-159964327D01*
X61588773Y-159697848D01*
X61362152Y-159471227D01*
X61125318Y-159312980D01*
X70021626Y-159312980D01*
X70141514Y-159597836D01*
X70465210Y-159758699D01*
X70814069Y-159853322D01*
X71174684Y-159878067D01*
X71533198Y-159831985D01*
X71875833Y-159716846D01*
X72098486Y-159597836D01*
X72218374Y-159312980D01*
X71120000Y-158214605D01*
X70021626Y-159312980D01*
X61125318Y-159312980D01*
X61095673Y-159293172D01*
X60799578Y-159170525D01*
X60485245Y-159108000D01*
X60164755Y-159108000D01*
X59850422Y-159170525D01*
X59554327Y-159293172D01*
X59287848Y-159471227D01*
X59061227Y-159697848D01*
X59054444Y-159708000D01*
X56780398Y-159708000D01*
X55162081Y-158089684D01*
X69276933Y-158089684D01*
X69323015Y-158448198D01*
X69438154Y-158790833D01*
X69557164Y-159013486D01*
X69842020Y-159133374D01*
X70940395Y-158035000D01*
X71299605Y-158035000D01*
X72397980Y-159133374D01*
X72458977Y-159107702D01*
X81101903Y-159107702D01*
X81173486Y-159351671D01*
X81428996Y-159472571D01*
X81703184Y-159541300D01*
X81985512Y-159555217D01*
X82265130Y-159513787D01*
X82531292Y-159418603D01*
X82656514Y-159351671D01*
X82728097Y-159107702D01*
X81915000Y-158294605D01*
X81101903Y-159107702D01*
X72458977Y-159107702D01*
X72682836Y-159013486D01*
X72843699Y-158689790D01*
X72938322Y-158340931D01*
X72948986Y-158185512D01*
X80474783Y-158185512D01*
X80516213Y-158465130D01*
X80611397Y-158731292D01*
X80678329Y-158856514D01*
X80922298Y-158928097D01*
X81735395Y-158115000D01*
X82094605Y-158115000D01*
X82907702Y-158928097D01*
X83151671Y-158856514D01*
X83202070Y-158750000D01*
X87265358Y-158750000D01*
X87295854Y-159059636D01*
X87386172Y-159357373D01*
X87532840Y-159631769D01*
X87730221Y-159872279D01*
X87970731Y-160069660D01*
X88245127Y-160216328D01*
X88542864Y-160306646D01*
X88774908Y-160329500D01*
X89025092Y-160329500D01*
X89257136Y-160306646D01*
X89554873Y-160216328D01*
X89829269Y-160069660D01*
X90069779Y-159872279D01*
X90147972Y-159777000D01*
X90649559Y-159777000D01*
X90700000Y-159781968D01*
X90750441Y-159777000D01*
X90750451Y-159777000D01*
X90901327Y-159762140D01*
X91094917Y-159703415D01*
X91273331Y-159608051D01*
X91429712Y-159479712D01*
X91461877Y-159440519D01*
X91665396Y-159237000D01*
X98943647Y-159237000D01*
X98947925Y-159251103D01*
X99006147Y-159360028D01*
X99084499Y-159455501D01*
X99179972Y-159533853D01*
X99288897Y-159592075D01*
X99407087Y-159627927D01*
X99530000Y-159640033D01*
X101130000Y-159640033D01*
X101252913Y-159627927D01*
X101371103Y-159592075D01*
X101480028Y-159533853D01*
X101575501Y-159455501D01*
X101653853Y-159360028D01*
X101710365Y-159254302D01*
X105353000Y-159254302D01*
X105353000Y-159515698D01*
X105403996Y-159772072D01*
X105504028Y-160013570D01*
X105649252Y-160230913D01*
X105834087Y-160415748D01*
X106051430Y-160560972D01*
X106292928Y-160661004D01*
X106549302Y-160712000D01*
X106810698Y-160712000D01*
X107067072Y-160661004D01*
X107308570Y-160560972D01*
X107525913Y-160415748D01*
X107710748Y-160230913D01*
X107855972Y-160013570D01*
X107956004Y-159772072D01*
X108007000Y-159515698D01*
X108007000Y-159254302D01*
X107956004Y-158997928D01*
X107855972Y-158756430D01*
X107741427Y-158585000D01*
X114139967Y-158585000D01*
X114139967Y-160185000D01*
X114152073Y-160307913D01*
X114187925Y-160426103D01*
X114246147Y-160535028D01*
X114324499Y-160630501D01*
X114419972Y-160708853D01*
X114528897Y-160767075D01*
X114647087Y-160802927D01*
X114770000Y-160815033D01*
X116370000Y-160815033D01*
X116492913Y-160802927D01*
X116611103Y-160767075D01*
X116720028Y-160708853D01*
X116815501Y-160630501D01*
X116893853Y-160535028D01*
X116952075Y-160426103D01*
X116987927Y-160307913D01*
X117000033Y-160185000D01*
X117000033Y-158585000D01*
X116987927Y-158462087D01*
X116952075Y-158343897D01*
X116893853Y-158234972D01*
X116815501Y-158139499D01*
X116720028Y-158061147D01*
X116611103Y-158002925D01*
X116492913Y-157967073D01*
X116370000Y-157954967D01*
X116360427Y-157954967D01*
X116383097Y-157877702D01*
X115570000Y-157064605D01*
X114756903Y-157877702D01*
X114779573Y-157954967D01*
X114770000Y-157954967D01*
X114647087Y-157967073D01*
X114528897Y-158002925D01*
X114419972Y-158061147D01*
X114324499Y-158139499D01*
X114246147Y-158234972D01*
X114187925Y-158343897D01*
X114152073Y-158462087D01*
X114139967Y-158585000D01*
X107741427Y-158585000D01*
X107710748Y-158539087D01*
X107525913Y-158354252D01*
X107308570Y-158209028D01*
X107067072Y-158108996D01*
X106810698Y-158058000D01*
X106549302Y-158058000D01*
X106292928Y-158108996D01*
X106051430Y-158209028D01*
X105834087Y-158354252D01*
X105649252Y-158539087D01*
X105504028Y-158756430D01*
X105403996Y-158997928D01*
X105353000Y-159254302D01*
X101710365Y-159254302D01*
X101712075Y-159251103D01*
X101716353Y-159237000D01*
X102165059Y-159237000D01*
X102215500Y-159241968D01*
X102265941Y-159237000D01*
X102265951Y-159237000D01*
X102416827Y-159222140D01*
X102610417Y-159163415D01*
X102788831Y-159068051D01*
X102945212Y-158939712D01*
X102977377Y-158900519D01*
X104922384Y-156955512D01*
X114129783Y-156955512D01*
X114171213Y-157235130D01*
X114266397Y-157501292D01*
X114333329Y-157626514D01*
X114577298Y-157698097D01*
X115390395Y-156885000D01*
X115749605Y-156885000D01*
X116562702Y-157698097D01*
X116806671Y-157626514D01*
X116927571Y-157371004D01*
X116996300Y-157096816D01*
X117010217Y-156814488D01*
X116968787Y-156534870D01*
X116873603Y-156268708D01*
X116806671Y-156143486D01*
X116562702Y-156071903D01*
X115749605Y-156885000D01*
X115390395Y-156885000D01*
X114577298Y-156071903D01*
X114333329Y-156143486D01*
X114212429Y-156398996D01*
X114143700Y-156673184D01*
X114129783Y-156955512D01*
X104922384Y-156955512D01*
X105985598Y-155892298D01*
X114756903Y-155892298D01*
X115570000Y-156705395D01*
X116383097Y-155892298D01*
X116311514Y-155648329D01*
X116056004Y-155527429D01*
X115781816Y-155458700D01*
X115499488Y-155444783D01*
X115219870Y-155486213D01*
X114953708Y-155581397D01*
X114828486Y-155648329D01*
X114756903Y-155892298D01*
X105985598Y-155892298D01*
X108881297Y-152996600D01*
X125543575Y-152996600D01*
X125533672Y-153015127D01*
X125443354Y-153312864D01*
X125420500Y-153544908D01*
X125420500Y-153795091D01*
X125443354Y-154027135D01*
X125533672Y-154324872D01*
X125680340Y-154599268D01*
X125877721Y-154839779D01*
X125973001Y-154917973D01*
X125973000Y-162324603D01*
X120334882Y-167962722D01*
X120316265Y-167978000D01*
X116956353Y-167978000D01*
X116952075Y-167963897D01*
X116893853Y-167854972D01*
X116815501Y-167759499D01*
X116801520Y-167748025D01*
X116806671Y-167746514D01*
X116927571Y-167491004D01*
X116996300Y-167216816D01*
X117010217Y-166934488D01*
X116968787Y-166654870D01*
X116873603Y-166388708D01*
X116806671Y-166263486D01*
X116562702Y-166191903D01*
X115749605Y-167005000D01*
X115763748Y-167019143D01*
X115584143Y-167198748D01*
X115570000Y-167184605D01*
X115555858Y-167198748D01*
X115376253Y-167019143D01*
X115390395Y-167005000D01*
X114577298Y-166191903D01*
X114333329Y-166263486D01*
X114212429Y-166518996D01*
X114143700Y-166793184D01*
X114129783Y-167075512D01*
X114171213Y-167355130D01*
X114266397Y-167621292D01*
X114333329Y-167746514D01*
X114338480Y-167748025D01*
X114324499Y-167759499D01*
X114246147Y-167854972D01*
X114187925Y-167963897D01*
X114152073Y-168082087D01*
X114139967Y-168205000D01*
X114139967Y-169805000D01*
X114152073Y-169927913D01*
X114187925Y-170046103D01*
X114246147Y-170155028D01*
X114324499Y-170250501D01*
X114419972Y-170328853D01*
X114528897Y-170387075D01*
X114647087Y-170422927D01*
X114770000Y-170435033D01*
X116370000Y-170435033D01*
X116492913Y-170422927D01*
X116611103Y-170387075D01*
X116720028Y-170328853D01*
X116815501Y-170250501D01*
X116893853Y-170155028D01*
X116952075Y-170046103D01*
X116956353Y-170032000D01*
X120694559Y-170032000D01*
X120745000Y-170036968D01*
X120795441Y-170032000D01*
X120795451Y-170032000D01*
X120872779Y-170024384D01*
X126993539Y-176145228D01*
X126943000Y-176399302D01*
X126943000Y-176660698D01*
X126993996Y-176917072D01*
X127094028Y-177158570D01*
X127239252Y-177375913D01*
X127424087Y-177560748D01*
X127641430Y-177705972D01*
X127882928Y-177806004D01*
X128139302Y-177857000D01*
X128400698Y-177857000D01*
X128657072Y-177806004D01*
X128898570Y-177705972D01*
X129115913Y-177560748D01*
X129300748Y-177375913D01*
X129445972Y-177158570D01*
X129513187Y-176996300D01*
X137275259Y-176996300D01*
X137325700Y-177001268D01*
X137376141Y-176996300D01*
X137376151Y-176996300D01*
X137527027Y-176981440D01*
X137720617Y-176922715D01*
X137899031Y-176827351D01*
X138055412Y-176699012D01*
X138087577Y-176659819D01*
X140109967Y-174637431D01*
X140109967Y-174855000D01*
X140122073Y-174977913D01*
X140157925Y-175096103D01*
X140216147Y-175205028D01*
X140294499Y-175300501D01*
X140389972Y-175378853D01*
X140498897Y-175437075D01*
X140617087Y-175472927D01*
X140740000Y-175485033D01*
X143740000Y-175485033D01*
X143862913Y-175472927D01*
X143981103Y-175437075D01*
X144090028Y-175378853D01*
X144185501Y-175300501D01*
X144263853Y-175205028D01*
X144322075Y-175096103D01*
X144357927Y-174977913D01*
X144370033Y-174855000D01*
X144370033Y-171855000D01*
X144357927Y-171732087D01*
X144322075Y-171613897D01*
X144263853Y-171504972D01*
X144185501Y-171409499D01*
X144090028Y-171331147D01*
X143981103Y-171272925D01*
X143862913Y-171237073D01*
X143740000Y-171224967D01*
X140740000Y-171224967D01*
X140617087Y-171237073D01*
X140498897Y-171272925D01*
X140389972Y-171331147D01*
X140294499Y-171409499D01*
X140216147Y-171504972D01*
X140157925Y-171613897D01*
X140122073Y-171732087D01*
X140109967Y-171855000D01*
X140109967Y-172328000D01*
X139990443Y-172328000D01*
X139940000Y-172323032D01*
X139889556Y-172328000D01*
X139889549Y-172328000D01*
X139756831Y-172341072D01*
X139738672Y-172342860D01*
X139545082Y-172401585D01*
X139366668Y-172496949D01*
X139249475Y-172593127D01*
X139249470Y-172593132D01*
X139210288Y-172625288D01*
X139178132Y-172664470D01*
X136900304Y-174942300D01*
X128695402Y-174942300D01*
X123849054Y-170095886D01*
X127163000Y-170095886D01*
X127163000Y-170564114D01*
X127254347Y-171023345D01*
X127433530Y-171455932D01*
X127693664Y-171845249D01*
X128024751Y-172176336D01*
X128414068Y-172436470D01*
X128846655Y-172615653D01*
X129305886Y-172707000D01*
X129774114Y-172707000D01*
X130233345Y-172615653D01*
X130665932Y-172436470D01*
X131055249Y-172176336D01*
X131386336Y-171845249D01*
X131646470Y-171455932D01*
X131825653Y-171023345D01*
X131917000Y-170564114D01*
X131917000Y-170095886D01*
X131851512Y-169766653D01*
X140927952Y-169766653D01*
X141083962Y-170082214D01*
X141458745Y-170273020D01*
X141863551Y-170387044D01*
X142282824Y-170419902D01*
X142700451Y-170370334D01*
X143100383Y-170240243D01*
X143396038Y-170082214D01*
X143552048Y-169766653D01*
X142240000Y-168454605D01*
X140927952Y-169766653D01*
X131851512Y-169766653D01*
X131825653Y-169636655D01*
X131646470Y-169204068D01*
X131386336Y-168814751D01*
X131055249Y-168483664D01*
X130807053Y-168317824D01*
X140095098Y-168317824D01*
X140144666Y-168735451D01*
X140274757Y-169135383D01*
X140432786Y-169431038D01*
X140748347Y-169587048D01*
X142060395Y-168275000D01*
X142419605Y-168275000D01*
X143731653Y-169587048D01*
X144047214Y-169431038D01*
X144238020Y-169056255D01*
X144352044Y-168651449D01*
X144384902Y-168232176D01*
X144335334Y-167814549D01*
X144205243Y-167414617D01*
X144047214Y-167118962D01*
X143731653Y-166962952D01*
X142419605Y-168275000D01*
X142060395Y-168275000D01*
X140748347Y-166962952D01*
X140432786Y-167118962D01*
X140241980Y-167493745D01*
X140127956Y-167898551D01*
X140095098Y-168317824D01*
X130807053Y-168317824D01*
X130665932Y-168223530D01*
X130233345Y-168044347D01*
X129774114Y-167953000D01*
X129305886Y-167953000D01*
X128846655Y-168044347D01*
X128414068Y-168223530D01*
X128024751Y-168483664D01*
X127693664Y-168814751D01*
X127433530Y-169204068D01*
X127254347Y-169636655D01*
X127163000Y-170095886D01*
X123849054Y-170095886D01*
X122477791Y-168724605D01*
X124419049Y-166783347D01*
X140927952Y-166783347D01*
X142240000Y-168095395D01*
X143552048Y-166783347D01*
X143396038Y-166467786D01*
X143021255Y-166276980D01*
X142616449Y-166162956D01*
X142197176Y-166130098D01*
X141779549Y-166179666D01*
X141379617Y-166309757D01*
X141083962Y-166467786D01*
X140927952Y-166783347D01*
X124419049Y-166783347D01*
X127690525Y-163511872D01*
X127729712Y-163479712D01*
X127858051Y-163323331D01*
X127953415Y-163144917D01*
X128012140Y-162951327D01*
X128027000Y-162800451D01*
X128027000Y-162800442D01*
X128031968Y-162750001D01*
X128027000Y-162699560D01*
X128027000Y-162350509D01*
X140113000Y-162350509D01*
X140113000Y-162769491D01*
X140194739Y-163180423D01*
X140355077Y-163567512D01*
X140587851Y-163915884D01*
X140884116Y-164212149D01*
X141232488Y-164444923D01*
X141619577Y-164605261D01*
X142030509Y-164687000D01*
X142449491Y-164687000D01*
X142860423Y-164605261D01*
X143247512Y-164444923D01*
X143595884Y-164212149D01*
X143892149Y-163915884D01*
X144124923Y-163567512D01*
X144285261Y-163180423D01*
X144367000Y-162769491D01*
X144367000Y-162350509D01*
X144285261Y-161939577D01*
X144124923Y-161552488D01*
X143892149Y-161204116D01*
X143595884Y-160907851D01*
X143247512Y-160675077D01*
X142860423Y-160514739D01*
X142449491Y-160433000D01*
X142030509Y-160433000D01*
X141619577Y-160514739D01*
X141232488Y-160675077D01*
X140884116Y-160907851D01*
X140587851Y-161204116D01*
X140355077Y-161552488D01*
X140194739Y-161939577D01*
X140113000Y-162350509D01*
X128027000Y-162350509D01*
X128027000Y-158971653D01*
X140927952Y-158971653D01*
X141083962Y-159287214D01*
X141458745Y-159478020D01*
X141863551Y-159592044D01*
X142282824Y-159624902D01*
X142700451Y-159575334D01*
X143100383Y-159445243D01*
X143396038Y-159287214D01*
X143552048Y-158971653D01*
X142240000Y-157659605D01*
X140927952Y-158971653D01*
X128027000Y-158971653D01*
X128027000Y-157522824D01*
X140095098Y-157522824D01*
X140144666Y-157940451D01*
X140274757Y-158340383D01*
X140432786Y-158636038D01*
X140748347Y-158792048D01*
X142060395Y-157480000D01*
X142419605Y-157480000D01*
X143731653Y-158792048D01*
X144047214Y-158636038D01*
X144238020Y-158261255D01*
X144352044Y-157856449D01*
X144384902Y-157437176D01*
X144335334Y-157019549D01*
X144205243Y-156619617D01*
X144047214Y-156323962D01*
X143731653Y-156167952D01*
X142419605Y-157480000D01*
X142060395Y-157480000D01*
X140748347Y-156167952D01*
X140432786Y-156323962D01*
X140241980Y-156698745D01*
X140127956Y-157103551D01*
X140095098Y-157522824D01*
X128027000Y-157522824D01*
X128027000Y-155988347D01*
X140927952Y-155988347D01*
X142240000Y-157300395D01*
X143552048Y-155988347D01*
X143396038Y-155672786D01*
X143021255Y-155481980D01*
X142616449Y-155367956D01*
X142197176Y-155335098D01*
X141779549Y-155384666D01*
X141379617Y-155514757D01*
X141083962Y-155672786D01*
X140927952Y-155988347D01*
X128027000Y-155988347D01*
X128027000Y-154917972D01*
X128122279Y-154839779D01*
X128270000Y-154659780D01*
X128417721Y-154839779D01*
X128658231Y-155037160D01*
X128932627Y-155183828D01*
X129230364Y-155274146D01*
X129540000Y-155304642D01*
X129849635Y-155274146D01*
X130147372Y-155183828D01*
X130421768Y-155037160D01*
X130554555Y-154928185D01*
X130603647Y-155020028D01*
X130681999Y-155115501D01*
X130777472Y-155193853D01*
X130886397Y-155252075D01*
X131004587Y-155287927D01*
X131127500Y-155300033D01*
X133032500Y-155300033D01*
X133155413Y-155287927D01*
X133273603Y-155252075D01*
X133382528Y-155193853D01*
X133478001Y-155115501D01*
X133556353Y-155020028D01*
X133614575Y-154911103D01*
X133650427Y-154792913D01*
X133662533Y-154670000D01*
X133662533Y-152996600D01*
X139084203Y-152996600D01*
X139178127Y-153090524D01*
X139210288Y-153129712D01*
X139249475Y-153161872D01*
X139249476Y-153161873D01*
X139366669Y-153258051D01*
X139545082Y-153353415D01*
X139738672Y-153412140D01*
X139756831Y-153413928D01*
X139889549Y-153427000D01*
X139889556Y-153427000D01*
X139940000Y-153431968D01*
X139990443Y-153427000D01*
X140109967Y-153427000D01*
X140109967Y-153900000D01*
X140122073Y-154022913D01*
X140157925Y-154141103D01*
X140216147Y-154250028D01*
X140294499Y-154345501D01*
X140389972Y-154423853D01*
X140498897Y-154482075D01*
X140617087Y-154517927D01*
X140740000Y-154530033D01*
X143740000Y-154530033D01*
X143862913Y-154517927D01*
X143981103Y-154482075D01*
X144090028Y-154423853D01*
X144185501Y-154345501D01*
X144263853Y-154250028D01*
X144322075Y-154141103D01*
X144357927Y-154022913D01*
X144370033Y-153900000D01*
X144370033Y-150900000D01*
X144357927Y-150777087D01*
X144322075Y-150658897D01*
X144263853Y-150549972D01*
X144185501Y-150454499D01*
X144090028Y-150376147D01*
X143981103Y-150317925D01*
X143862913Y-150282073D01*
X143740000Y-150269967D01*
X140740000Y-150269967D01*
X140617087Y-150282073D01*
X140498897Y-150317925D01*
X140389972Y-150376147D01*
X140294499Y-150454499D01*
X140216147Y-150549972D01*
X140157925Y-150658897D01*
X140122073Y-150777087D01*
X140109967Y-150900000D01*
X140109967Y-151133737D01*
X140082931Y-151111549D01*
X139904517Y-151016185D01*
X139710927Y-150957460D01*
X139560051Y-150942600D01*
X139560041Y-150942600D01*
X139509600Y-150937632D01*
X139459159Y-150942600D01*
X108506340Y-150942600D01*
X108455899Y-150937632D01*
X108405458Y-150942600D01*
X108405449Y-150942600D01*
X108254573Y-150957460D01*
X108060983Y-151016185D01*
X107882569Y-151111549D01*
X107854654Y-151134458D01*
X107710748Y-150919087D01*
X107525913Y-150734252D01*
X107308570Y-150589028D01*
X107067072Y-150488996D01*
X106810698Y-150438000D01*
X106549302Y-150438000D01*
X106292928Y-150488996D01*
X106051430Y-150589028D01*
X105834087Y-150734252D01*
X105649252Y-150919087D01*
X105504028Y-151136430D01*
X105403996Y-151377928D01*
X105353000Y-151634302D01*
X105353000Y-151895698D01*
X105403996Y-152152072D01*
X105504028Y-152393570D01*
X105649252Y-152610913D01*
X105834087Y-152795748D01*
X106039861Y-152933242D01*
X101790104Y-157183000D01*
X101716353Y-157183000D01*
X101712075Y-157168897D01*
X101653853Y-157059972D01*
X101575501Y-156964499D01*
X101561520Y-156953025D01*
X101566671Y-156951514D01*
X101687571Y-156696004D01*
X101756300Y-156421816D01*
X101770217Y-156139488D01*
X101728787Y-155859870D01*
X101633603Y-155593708D01*
X101566671Y-155468486D01*
X101322702Y-155396903D01*
X100509605Y-156210000D01*
X100523748Y-156224143D01*
X100344143Y-156403748D01*
X100330000Y-156389605D01*
X100315858Y-156403748D01*
X100136253Y-156224143D01*
X100150395Y-156210000D01*
X99337298Y-155396903D01*
X99093329Y-155468486D01*
X98972429Y-155723996D01*
X98903700Y-155998184D01*
X98889783Y-156280512D01*
X98931213Y-156560130D01*
X99026397Y-156826292D01*
X99093329Y-156951514D01*
X99098480Y-156953025D01*
X99084499Y-156964499D01*
X99006147Y-157059972D01*
X98947925Y-157168897D01*
X98943647Y-157183000D01*
X91290440Y-157183000D01*
X91239999Y-157178032D01*
X91189558Y-157183000D01*
X91189549Y-157183000D01*
X91038673Y-157197860D01*
X90845083Y-157256585D01*
X90666669Y-157351949D01*
X90510288Y-157480288D01*
X90478123Y-157519481D01*
X90274604Y-157723000D01*
X90147972Y-157723000D01*
X90069779Y-157627721D01*
X89889865Y-157480070D01*
X90081315Y-157319437D01*
X90275969Y-157076923D01*
X90419571Y-156801094D01*
X90490563Y-156582980D01*
X90370594Y-156337000D01*
X89027000Y-156337000D01*
X89027000Y-156357000D01*
X88773000Y-156357000D01*
X88773000Y-156337000D01*
X87429406Y-156337000D01*
X87309437Y-156582980D01*
X87380429Y-156801094D01*
X87524031Y-157076923D01*
X87718685Y-157319437D01*
X87910135Y-157480070D01*
X87730221Y-157627721D01*
X87532840Y-157868231D01*
X87386172Y-158142627D01*
X87295854Y-158440364D01*
X87265358Y-158750000D01*
X83202070Y-158750000D01*
X83272571Y-158601004D01*
X83341300Y-158326816D01*
X83355217Y-158044488D01*
X83313787Y-157764870D01*
X83218603Y-157498708D01*
X83151671Y-157373486D01*
X82907702Y-157301903D01*
X82094605Y-158115000D01*
X81735395Y-158115000D01*
X80922298Y-157301903D01*
X80678329Y-157373486D01*
X80557429Y-157628996D01*
X80488700Y-157903184D01*
X80474783Y-158185512D01*
X72948986Y-158185512D01*
X72963067Y-157980316D01*
X72916985Y-157621802D01*
X72801846Y-157279167D01*
X72717999Y-157122298D01*
X81101903Y-157122298D01*
X81915000Y-157935395D01*
X82728097Y-157122298D01*
X82656514Y-156878329D01*
X82401004Y-156757429D01*
X82126816Y-156688700D01*
X81844488Y-156674783D01*
X81564870Y-156716213D01*
X81298708Y-156811397D01*
X81173486Y-156878329D01*
X81101903Y-157122298D01*
X72717999Y-157122298D01*
X72682836Y-157056514D01*
X72397980Y-156936626D01*
X71299605Y-158035000D01*
X70940395Y-158035000D01*
X69842020Y-156936626D01*
X69557164Y-157056514D01*
X69396301Y-157380210D01*
X69301678Y-157729069D01*
X69276933Y-158089684D01*
X55162081Y-158089684D01*
X54496877Y-157424481D01*
X54464712Y-157385288D01*
X54308331Y-157256949D01*
X54129917Y-157161585D01*
X53936327Y-157102860D01*
X53785451Y-157088000D01*
X53785441Y-157088000D01*
X53735000Y-157083032D01*
X53684559Y-157088000D01*
X53565033Y-157088000D01*
X53565033Y-156615000D01*
X53552927Y-156492087D01*
X53517075Y-156373897D01*
X53458853Y-156264972D01*
X53380501Y-156169499D01*
X53285028Y-156091147D01*
X53176103Y-156032925D01*
X53057913Y-155997073D01*
X52935000Y-155984967D01*
X49935000Y-155984967D01*
X49812087Y-155997073D01*
X49693897Y-156032925D01*
X49584972Y-156091147D01*
X49489499Y-156169499D01*
X49411147Y-156264972D01*
X49352925Y-156373897D01*
X49317073Y-156492087D01*
X49304967Y-156615000D01*
X47642000Y-156615000D01*
X47642000Y-154735000D01*
X58694967Y-154735000D01*
X58694967Y-156735000D01*
X58707073Y-156857913D01*
X58742925Y-156976103D01*
X58801147Y-157085028D01*
X58879499Y-157180501D01*
X58974972Y-157258853D01*
X59083897Y-157317075D01*
X59202087Y-157352927D01*
X59325000Y-157365033D01*
X61325000Y-157365033D01*
X61447913Y-157352927D01*
X61566103Y-157317075D01*
X61675028Y-157258853D01*
X61770501Y-157180501D01*
X61848853Y-157085028D01*
X61907075Y-156976103D01*
X61942927Y-156857913D01*
X61952374Y-156762000D01*
X66369559Y-156762000D01*
X66420000Y-156766968D01*
X66470441Y-156762000D01*
X66470451Y-156762000D01*
X66521013Y-156757020D01*
X70021626Y-156757020D01*
X71120000Y-157855395D01*
X72218374Y-156757020D01*
X72098486Y-156472164D01*
X71774790Y-156311301D01*
X71425931Y-156216678D01*
X71065316Y-156191933D01*
X70706802Y-156238015D01*
X70364167Y-156353154D01*
X70141514Y-156472164D01*
X70021626Y-156757020D01*
X66521013Y-156757020D01*
X66621327Y-156747140D01*
X66814917Y-156688415D01*
X66993331Y-156593051D01*
X67149712Y-156464712D01*
X67181877Y-156425519D01*
X69297358Y-154310040D01*
X69302073Y-154357913D01*
X69337925Y-154476103D01*
X69396147Y-154585028D01*
X69474499Y-154680501D01*
X69569972Y-154758853D01*
X69678897Y-154817075D01*
X69797087Y-154852927D01*
X69920000Y-154865033D01*
X72320000Y-154865033D01*
X72442913Y-154852927D01*
X72561103Y-154817075D01*
X72670028Y-154758853D01*
X72765501Y-154680501D01*
X72843853Y-154585028D01*
X72902075Y-154476103D01*
X72937927Y-154357913D01*
X72950033Y-154235000D01*
X72950033Y-152974453D01*
X80488000Y-152974453D01*
X80488000Y-153255547D01*
X80542838Y-153531241D01*
X80650409Y-153790938D01*
X80806576Y-154024660D01*
X81005340Y-154223424D01*
X81239062Y-154379591D01*
X81498759Y-154487162D01*
X81774453Y-154542000D01*
X82055547Y-154542000D01*
X82331241Y-154487162D01*
X82590938Y-154379591D01*
X82824660Y-154223424D01*
X83023424Y-154024660D01*
X83179591Y-153790938D01*
X83287162Y-153531241D01*
X83342000Y-153255547D01*
X83342000Y-152974453D01*
X83290890Y-152717500D01*
X87269967Y-152717500D01*
X87269967Y-154622500D01*
X87282073Y-154745413D01*
X87317925Y-154863603D01*
X87376147Y-154972528D01*
X87454499Y-155068001D01*
X87549972Y-155146353D01*
X87642314Y-155195711D01*
X87524031Y-155343077D01*
X87380429Y-155618906D01*
X87309437Y-155837020D01*
X87429406Y-156083000D01*
X88773000Y-156083000D01*
X88773000Y-156063000D01*
X89027000Y-156063000D01*
X89027000Y-156083000D01*
X90370594Y-156083000D01*
X90490563Y-155837020D01*
X90419571Y-155618906D01*
X90275969Y-155343077D01*
X90175013Y-155217298D01*
X99516903Y-155217298D01*
X100330000Y-156030395D01*
X101143097Y-155217298D01*
X101071514Y-154973329D01*
X100816004Y-154852429D01*
X100541816Y-154783700D01*
X100259488Y-154769783D01*
X99979870Y-154811213D01*
X99713708Y-154906397D01*
X99588486Y-154973329D01*
X99516903Y-155217298D01*
X90175013Y-155217298D01*
X90157686Y-155195711D01*
X90250028Y-155146353D01*
X90345501Y-155068001D01*
X90423853Y-154972528D01*
X90482075Y-154863603D01*
X90517927Y-154745413D01*
X90530033Y-154622500D01*
X90530033Y-152717500D01*
X90517927Y-152594587D01*
X90482075Y-152476397D01*
X90423853Y-152367472D01*
X90345501Y-152271999D01*
X90250028Y-152193647D01*
X90141103Y-152135425D01*
X90022913Y-152099573D01*
X89900000Y-152087467D01*
X87900000Y-152087467D01*
X87777087Y-152099573D01*
X87658897Y-152135425D01*
X87549972Y-152193647D01*
X87454499Y-152271999D01*
X87376147Y-152367472D01*
X87317925Y-152476397D01*
X87282073Y-152594587D01*
X87269967Y-152717500D01*
X83290890Y-152717500D01*
X83287162Y-152698759D01*
X83179591Y-152439062D01*
X83023424Y-152205340D01*
X82824660Y-152006576D01*
X82590938Y-151850409D01*
X82331241Y-151742838D01*
X82055547Y-151688000D01*
X81774453Y-151688000D01*
X81498759Y-151742838D01*
X81239062Y-151850409D01*
X81005340Y-152006576D01*
X80806576Y-152205340D01*
X80650409Y-152439062D01*
X80542838Y-152698759D01*
X80488000Y-152974453D01*
X72950033Y-152974453D01*
X72950033Y-151835000D01*
X72937927Y-151712087D01*
X72902075Y-151593897D01*
X72843853Y-151484972D01*
X72765501Y-151389499D01*
X72670028Y-151311147D01*
X72561103Y-151252925D01*
X72442913Y-151217073D01*
X72320000Y-151204967D01*
X69920000Y-151204967D01*
X69797087Y-151217073D01*
X69678897Y-151252925D01*
X69569972Y-151311147D01*
X69474499Y-151389499D01*
X69396147Y-151484972D01*
X69337925Y-151593897D01*
X69302073Y-151712087D01*
X69289967Y-151835000D01*
X69289967Y-152008000D01*
X69170443Y-152008000D01*
X69120000Y-152003032D01*
X69069556Y-152008000D01*
X69069549Y-152008000D01*
X68936831Y-152021072D01*
X68918672Y-152022860D01*
X68862279Y-152039967D01*
X68725083Y-152081585D01*
X68714079Y-152087467D01*
X68546668Y-152176949D01*
X68429475Y-152273127D01*
X68429470Y-152273132D01*
X68390288Y-152305288D01*
X68358132Y-152344470D01*
X65994604Y-154708000D01*
X61952374Y-154708000D01*
X61942927Y-154612087D01*
X61907075Y-154493897D01*
X61848853Y-154384972D01*
X61770501Y-154289499D01*
X61675028Y-154211147D01*
X61566103Y-154152925D01*
X61447913Y-154117073D01*
X61325000Y-154104967D01*
X59325000Y-154104967D01*
X59202087Y-154117073D01*
X59083897Y-154152925D01*
X58974972Y-154211147D01*
X58879499Y-154289499D01*
X58801147Y-154384972D01*
X58742925Y-154493897D01*
X58707073Y-154612087D01*
X58694967Y-154735000D01*
X47642000Y-154735000D01*
X47642000Y-146067000D01*
X146033000Y-146067000D01*
X146033001Y-179053000D01*
G37*
X146033001Y-179053000D02*
X47642000Y-179053000D01*
X47642000Y-170574755D01*
X58698000Y-170574755D01*
X58698000Y-170895245D01*
X58760525Y-171209578D01*
X58883172Y-171505673D01*
X59061227Y-171772152D01*
X59287848Y-171998773D01*
X59554327Y-172176828D01*
X59850422Y-172299475D01*
X60164755Y-172362000D01*
X60485245Y-172362000D01*
X60799578Y-172299475D01*
X61095673Y-172176828D01*
X61362152Y-171998773D01*
X61588773Y-171772152D01*
X61595556Y-171762000D01*
X68154604Y-171762000D01*
X69325296Y-172932693D01*
X69293000Y-173095056D01*
X69293000Y-173454944D01*
X69363211Y-173807916D01*
X69500934Y-174140409D01*
X69700876Y-174439645D01*
X69955355Y-174694124D01*
X70254591Y-174894066D01*
X70587084Y-175031789D01*
X70940056Y-175102000D01*
X71299944Y-175102000D01*
X71652916Y-175031789D01*
X71716540Y-175005435D01*
X105089871Y-175005435D01*
X105194644Y-175308344D01*
X105356499Y-175584992D01*
X105569215Y-175824748D01*
X105824618Y-176018399D01*
X106112893Y-176158502D01*
X106299566Y-176215124D01*
X106553000Y-176095777D01*
X106553000Y-174752000D01*
X106807000Y-174752000D01*
X106807000Y-176095777D01*
X107060434Y-176215124D01*
X107242168Y-176160000D01*
X111491928Y-176160000D01*
X111504188Y-176284482D01*
X111540498Y-176404180D01*
X111599463Y-176514494D01*
X111678815Y-176611185D01*
X111775506Y-176690537D01*
X111885820Y-176749502D01*
X112005518Y-176785812D01*
X112130000Y-176798072D01*
X112744250Y-176795000D01*
X112903000Y-176636250D01*
X112903000Y-175387000D01*
X111653750Y-175387000D01*
X111495000Y-175545750D01*
X111491928Y-176160000D01*
X107242168Y-176160000D01*
X107247107Y-176158502D01*
X107535382Y-176018399D01*
X107790785Y-175824748D01*
X108003501Y-175584992D01*
X108165356Y-175308344D01*
X108270129Y-175005435D01*
X108151315Y-174752000D01*
X106807000Y-174752000D01*
X106553000Y-174752000D01*
X105208685Y-174752000D01*
X105089871Y-175005435D01*
X71716540Y-175005435D01*
X71985409Y-174894066D01*
X72284645Y-174694124D01*
X72539124Y-174439645D01*
X72631095Y-174302000D01*
X80923916Y-174302000D01*
X81005340Y-174383424D01*
X81239062Y-174539591D01*
X81498759Y-174647162D01*
X81774453Y-174702000D01*
X82055547Y-174702000D01*
X82331241Y-174647162D01*
X82590938Y-174539591D01*
X82824660Y-174383424D01*
X83023424Y-174184660D01*
X83179591Y-173950938D01*
X83287162Y-173691241D01*
X83342000Y-173415547D01*
X83342000Y-173300396D01*
X84800397Y-171842000D01*
X87652028Y-171842000D01*
X87730221Y-171937279D01*
X87910220Y-172085000D01*
X87730221Y-172232721D01*
X87532840Y-172473231D01*
X87386172Y-172747627D01*
X87295854Y-173045364D01*
X87265358Y-173355000D01*
X87295854Y-173664636D01*
X87386172Y-173962373D01*
X87532840Y-174236769D01*
X87730221Y-174477279D01*
X87970731Y-174674660D01*
X88245127Y-174821328D01*
X88542864Y-174911646D01*
X88774908Y-174934500D01*
X89025092Y-174934500D01*
X89257136Y-174911646D01*
X89554873Y-174821328D01*
X89829269Y-174674660D01*
X90069779Y-174477279D01*
X90260762Y-174244565D01*
X105089871Y-174244565D01*
X105208685Y-174498000D01*
X106553000Y-174498000D01*
X106553000Y-173154223D01*
X106807000Y-173154223D01*
X106807000Y-174498000D01*
X108151315Y-174498000D01*
X108216011Y-174360000D01*
X111491928Y-174360000D01*
X111495000Y-174974250D01*
X111653750Y-175133000D01*
X112903000Y-175133000D01*
X112903000Y-173883750D01*
X113157000Y-173883750D01*
X113157000Y-175133000D01*
X113177000Y-175133000D01*
X113177000Y-175387000D01*
X113157000Y-175387000D01*
X113157000Y-176636250D01*
X113315750Y-176795000D01*
X113930000Y-176798072D01*
X114054482Y-176785812D01*
X114174180Y-176749502D01*
X114284494Y-176690537D01*
X114381185Y-176611185D01*
X114460537Y-176514494D01*
X114519502Y-176404180D01*
X114527688Y-176377193D01*
X114596594Y-176446099D01*
X114846694Y-176613210D01*
X115124590Y-176728319D01*
X115419604Y-176787000D01*
X115644603Y-176787000D01*
X116078127Y-177220524D01*
X116110288Y-177259712D01*
X116266669Y-177388051D01*
X116445083Y-177483415D01*
X116638673Y-177542140D01*
X116789549Y-177557000D01*
X116789558Y-177557000D01*
X116839999Y-177561968D01*
X116890440Y-177557000D01*
X119800339Y-177557000D01*
X119804087Y-177560748D01*
X120021430Y-177705972D01*
X120262928Y-177806004D01*
X120519302Y-177857000D01*
X120780698Y-177857000D01*
X121037072Y-177806004D01*
X121278570Y-177705972D01*
X121495913Y-177560748D01*
X121680748Y-177375913D01*
X121825972Y-177158570D01*
X121926004Y-176917072D01*
X121977000Y-176660698D01*
X121977000Y-176399302D01*
X121926004Y-176142928D01*
X121825972Y-175901430D01*
X121680748Y-175684087D01*
X121495913Y-175499252D01*
X121278570Y-175354028D01*
X121037072Y-175253996D01*
X120780698Y-175203000D01*
X120519302Y-175203000D01*
X120262928Y-175253996D01*
X120021430Y-175354028D01*
X119804087Y-175499252D01*
X119800339Y-175503000D01*
X117265397Y-175503000D01*
X117097000Y-175334603D01*
X117097000Y-175109604D01*
X117038319Y-174814590D01*
X116923210Y-174536694D01*
X116756099Y-174286594D01*
X116543406Y-174073901D01*
X116293306Y-173906790D01*
X116015410Y-173791681D01*
X115720396Y-173733000D01*
X115419604Y-173733000D01*
X115124590Y-173791681D01*
X114846694Y-173906790D01*
X114596594Y-174073901D01*
X114527688Y-174142807D01*
X114519502Y-174115820D01*
X114460537Y-174005506D01*
X114381185Y-173908815D01*
X114284494Y-173829463D01*
X114174180Y-173770498D01*
X114054482Y-173734188D01*
X113930000Y-173721928D01*
X113315750Y-173725000D01*
X113157000Y-173883750D01*
X112903000Y-173883750D01*
X112744250Y-173725000D01*
X112130000Y-173721928D01*
X112005518Y-173734188D01*
X111885820Y-173770498D01*
X111775506Y-173829463D01*
X111678815Y-173908815D01*
X111599463Y-174005506D01*
X111540498Y-174115820D01*
X111504188Y-174235518D01*
X111491928Y-174360000D01*
X108216011Y-174360000D01*
X108270129Y-174244565D01*
X108165356Y-173941656D01*
X108003501Y-173665008D01*
X107790785Y-173425252D01*
X107535382Y-173231601D01*
X107247107Y-173091498D01*
X107060434Y-173034876D01*
X106807000Y-173154223D01*
X106553000Y-173154223D01*
X106299566Y-173034876D01*
X106112893Y-173091498D01*
X105824618Y-173231601D01*
X105569215Y-173425252D01*
X105356499Y-173665008D01*
X105194644Y-173941656D01*
X105089871Y-174244565D01*
X90260762Y-174244565D01*
X90267160Y-174236769D01*
X90413828Y-173962373D01*
X90504146Y-173664636D01*
X90534642Y-173355000D01*
X90518302Y-173189094D01*
X93902396Y-169805000D01*
X98891928Y-169805000D01*
X98904188Y-169929482D01*
X98940498Y-170049180D01*
X98999463Y-170159494D01*
X99078815Y-170256185D01*
X99175506Y-170335537D01*
X99285820Y-170394502D01*
X99405518Y-170430812D01*
X99530000Y-170443072D01*
X100044250Y-170440000D01*
X100203000Y-170281250D01*
X100203000Y-169132000D01*
X100457000Y-169132000D01*
X100457000Y-170281250D01*
X100615750Y-170440000D01*
X101130000Y-170443072D01*
X101254482Y-170430812D01*
X101374180Y-170394502D01*
X101484494Y-170335537D01*
X101581185Y-170256185D01*
X101660537Y-170159494D01*
X101719502Y-170049180D01*
X101755812Y-169929482D01*
X101768072Y-169805000D01*
X101765000Y-169290750D01*
X101606250Y-169132000D01*
X100457000Y-169132000D01*
X100203000Y-169132000D01*
X99053750Y-169132000D01*
X98895000Y-169290750D01*
X98891928Y-169805000D01*
X93902396Y-169805000D01*
X95675397Y-168032000D01*
X98918906Y-168032000D01*
X98904188Y-168080518D01*
X98891928Y-168205000D01*
X98895000Y-168719250D01*
X99053750Y-168878000D01*
X100203000Y-168878000D01*
X100203000Y-168858000D01*
X100457000Y-168858000D01*
X100457000Y-168878000D01*
X101606250Y-168878000D01*
X101765000Y-168719250D01*
X101766040Y-168545000D01*
X105049967Y-168545000D01*
X105049967Y-170545000D01*
X105062073Y-170667913D01*
X105097925Y-170786103D01*
X105156147Y-170895028D01*
X105234499Y-170990501D01*
X105329972Y-171068853D01*
X105438897Y-171127075D01*
X105557087Y-171162927D01*
X105680000Y-171175033D01*
X107680000Y-171175033D01*
X107802913Y-171162927D01*
X107921103Y-171127075D01*
X108030028Y-171068853D01*
X108125501Y-170990501D01*
X108203853Y-170895028D01*
X108262075Y-170786103D01*
X108297927Y-170667913D01*
X108310033Y-170545000D01*
X108310033Y-168545000D01*
X108297927Y-168422087D01*
X108262075Y-168303897D01*
X108203853Y-168194972D01*
X108125501Y-168099499D01*
X108030028Y-168021147D01*
X107921103Y-167962925D01*
X107802913Y-167927073D01*
X107680000Y-167914967D01*
X105680000Y-167914967D01*
X105557087Y-167927073D01*
X105438897Y-167962925D01*
X105329972Y-168021147D01*
X105234499Y-168099499D01*
X105156147Y-168194972D01*
X105097925Y-168303897D01*
X105062073Y-168422087D01*
X105049967Y-168545000D01*
X101766040Y-168545000D01*
X101768072Y-168205000D01*
X101755812Y-168080518D01*
X101719502Y-167960820D01*
X101660537Y-167850506D01*
X101581185Y-167753815D01*
X101558394Y-167735111D01*
X101594591Y-167680938D01*
X101702162Y-167421241D01*
X101757000Y-167145547D01*
X101757000Y-166864453D01*
X101702162Y-166588759D01*
X101594591Y-166329062D01*
X101438424Y-166095340D01*
X101355382Y-166012298D01*
X114756903Y-166012298D01*
X115570000Y-166825395D01*
X116383097Y-166012298D01*
X116311514Y-165768329D01*
X116056004Y-165647429D01*
X115781816Y-165578700D01*
X115499488Y-165564783D01*
X115219870Y-165606213D01*
X114953708Y-165701397D01*
X114828486Y-165768329D01*
X114756903Y-166012298D01*
X101355382Y-166012298D01*
X101239660Y-165896576D01*
X101005938Y-165740409D01*
X100746241Y-165632838D01*
X100470547Y-165578000D01*
X100189453Y-165578000D01*
X99913759Y-165632838D01*
X99654062Y-165740409D01*
X99420340Y-165896576D01*
X99338916Y-165978000D01*
X95300440Y-165978000D01*
X95249999Y-165973032D01*
X95199558Y-165978000D01*
X95199549Y-165978000D01*
X95048673Y-165992860D01*
X94855083Y-166051585D01*
X94676669Y-166146949D01*
X94520288Y-166275288D01*
X94488128Y-166314475D01*
X90455990Y-170346614D01*
X90413828Y-170207627D01*
X90267160Y-169933231D01*
X90163360Y-169806750D01*
X90254494Y-169758037D01*
X90351185Y-169678685D01*
X90430537Y-169581994D01*
X90489502Y-169471680D01*
X90525812Y-169351982D01*
X90538072Y-169227500D01*
X90535000Y-168560750D01*
X90376250Y-168402000D01*
X89027000Y-168402000D01*
X89027000Y-168422000D01*
X88773000Y-168422000D01*
X88773000Y-168402000D01*
X87423750Y-168402000D01*
X87265000Y-168560750D01*
X87261928Y-169227500D01*
X87274188Y-169351982D01*
X87310498Y-169471680D01*
X87369463Y-169581994D01*
X87448815Y-169678685D01*
X87545506Y-169758037D01*
X87601562Y-169788000D01*
X84425440Y-169788000D01*
X84374999Y-169783032D01*
X84324558Y-169788000D01*
X84324549Y-169788000D01*
X84173673Y-169802860D01*
X83980083Y-169861585D01*
X83801669Y-169956949D01*
X83645288Y-170085288D01*
X83613128Y-170124475D01*
X81889604Y-171848000D01*
X81774453Y-171848000D01*
X81498759Y-171902838D01*
X81239062Y-172010409D01*
X81005340Y-172166576D01*
X80923916Y-172248000D01*
X72631095Y-172248000D01*
X72539124Y-172110355D01*
X72284645Y-171855876D01*
X71985409Y-171655934D01*
X71652916Y-171518211D01*
X71299944Y-171448000D01*
X70940056Y-171448000D01*
X70777693Y-171480296D01*
X69341877Y-170044481D01*
X69309712Y-170005288D01*
X69153331Y-169876949D01*
X68974917Y-169781585D01*
X68781327Y-169722860D01*
X68630451Y-169708000D01*
X68630441Y-169708000D01*
X68580000Y-169703032D01*
X68529559Y-169708000D01*
X61595556Y-169708000D01*
X61588773Y-169697848D01*
X61365925Y-169475000D01*
X69281928Y-169475000D01*
X69294188Y-169599482D01*
X69330498Y-169719180D01*
X69389463Y-169829494D01*
X69468815Y-169926185D01*
X69565506Y-170005537D01*
X69675820Y-170064502D01*
X69795518Y-170100812D01*
X69920000Y-170113072D01*
X70834250Y-170110000D01*
X70993000Y-169951250D01*
X70993000Y-168402000D01*
X71247000Y-168402000D01*
X71247000Y-169951250D01*
X71405750Y-170110000D01*
X72320000Y-170113072D01*
X72444482Y-170100812D01*
X72564180Y-170064502D01*
X72674494Y-170005537D01*
X72771185Y-169926185D01*
X72850537Y-169829494D01*
X72909502Y-169719180D01*
X72945812Y-169599482D01*
X72958072Y-169475000D01*
X72957376Y-169267702D01*
X81101903Y-169267702D01*
X81173486Y-169511671D01*
X81428996Y-169632571D01*
X81703184Y-169701300D01*
X81985512Y-169715217D01*
X82265130Y-169673787D01*
X82531292Y-169578603D01*
X82656514Y-169511671D01*
X82728097Y-169267702D01*
X81915000Y-168454605D01*
X81101903Y-169267702D01*
X72957376Y-169267702D01*
X72955000Y-168560750D01*
X72796250Y-168402000D01*
X71247000Y-168402000D01*
X70993000Y-168402000D01*
X69443750Y-168402000D01*
X69285000Y-168560750D01*
X69281928Y-169475000D01*
X61365925Y-169475000D01*
X61362152Y-169471227D01*
X61095673Y-169293172D01*
X60799578Y-169170525D01*
X60485245Y-169108000D01*
X60164755Y-169108000D01*
X59850422Y-169170525D01*
X59554327Y-169293172D01*
X59287848Y-169471227D01*
X59061227Y-169697848D01*
X58883172Y-169964327D01*
X58760525Y-170260422D01*
X58698000Y-170574755D01*
X47642000Y-170574755D01*
X47642000Y-169766653D01*
X50122952Y-169766653D01*
X50278962Y-170082214D01*
X50653745Y-170273020D01*
X51058551Y-170387044D01*
X51477824Y-170419902D01*
X51895451Y-170370334D01*
X52295383Y-170240243D01*
X52591038Y-170082214D01*
X52747048Y-169766653D01*
X51435000Y-168454605D01*
X50122952Y-169766653D01*
X47642000Y-169766653D01*
X47642000Y-168317824D01*
X49290098Y-168317824D01*
X49339666Y-168735451D01*
X49469757Y-169135383D01*
X49627786Y-169431038D01*
X49943347Y-169587048D01*
X51255395Y-168275000D01*
X51614605Y-168275000D01*
X52926653Y-169587048D01*
X53242214Y-169431038D01*
X53433020Y-169056255D01*
X53547044Y-168651449D01*
X53571019Y-168345512D01*
X80474783Y-168345512D01*
X80516213Y-168625130D01*
X80611397Y-168891292D01*
X80678329Y-169016514D01*
X80922298Y-169088097D01*
X81735395Y-168275000D01*
X82094605Y-168275000D01*
X82907702Y-169088097D01*
X83151671Y-169016514D01*
X83272571Y-168761004D01*
X83341300Y-168486816D01*
X83355217Y-168204488D01*
X83313787Y-167924870D01*
X83218603Y-167658708D01*
X83151671Y-167533486D01*
X82907702Y-167461903D01*
X82094605Y-168275000D01*
X81735395Y-168275000D01*
X80922298Y-167461903D01*
X80678329Y-167533486D01*
X80557429Y-167788996D01*
X80488700Y-168063184D01*
X80474783Y-168345512D01*
X53571019Y-168345512D01*
X53579902Y-168232176D01*
X53530334Y-167814549D01*
X53400243Y-167414617D01*
X53242214Y-167118962D01*
X52926653Y-166962952D01*
X51614605Y-168275000D01*
X51255395Y-168275000D01*
X49943347Y-166962952D01*
X49627786Y-167118962D01*
X49436980Y-167493745D01*
X49322956Y-167898551D01*
X49290098Y-168317824D01*
X47642000Y-168317824D01*
X47642000Y-166783347D01*
X50122952Y-166783347D01*
X51435000Y-168095395D01*
X52747048Y-166783347D01*
X52591038Y-166467786D01*
X52216255Y-166276980D01*
X51811449Y-166162956D01*
X51392176Y-166130098D01*
X50974549Y-166179666D01*
X50574617Y-166309757D01*
X50278962Y-166467786D01*
X50122952Y-166783347D01*
X47642000Y-166783347D01*
X47642000Y-162985509D01*
X49308000Y-162985509D01*
X49308000Y-163404491D01*
X49389739Y-163815423D01*
X49550077Y-164202512D01*
X49782851Y-164550884D01*
X50079116Y-164847149D01*
X50427488Y-165079923D01*
X50814577Y-165240261D01*
X51225509Y-165322000D01*
X51644491Y-165322000D01*
X52032437Y-165244833D01*
X53213128Y-166425525D01*
X53245288Y-166464712D01*
X53401669Y-166593051D01*
X53580083Y-166688415D01*
X53773673Y-166747140D01*
X53924549Y-166762000D01*
X53924558Y-166762000D01*
X53974999Y-166766968D01*
X54025440Y-166762000D01*
X59054444Y-166762000D01*
X59061227Y-166772152D01*
X59287848Y-166998773D01*
X59554327Y-167176828D01*
X59850422Y-167299475D01*
X60164755Y-167362000D01*
X60485245Y-167362000D01*
X60799578Y-167299475D01*
X61095673Y-167176828D01*
X61248069Y-167075000D01*
X69281928Y-167075000D01*
X69285000Y-167989250D01*
X69443750Y-168148000D01*
X70993000Y-168148000D01*
X70993000Y-166598750D01*
X71247000Y-166598750D01*
X71247000Y-168148000D01*
X72796250Y-168148000D01*
X72955000Y-167989250D01*
X72957375Y-167282298D01*
X81101903Y-167282298D01*
X81915000Y-168095395D01*
X82687895Y-167322500D01*
X87261928Y-167322500D01*
X87265000Y-167989250D01*
X87423750Y-168148000D01*
X88773000Y-168148000D01*
X88773000Y-166846250D01*
X89027000Y-166846250D01*
X89027000Y-168148000D01*
X90376250Y-168148000D01*
X90535000Y-167989250D01*
X90538072Y-167322500D01*
X90525812Y-167198018D01*
X90489502Y-167078320D01*
X90430537Y-166968006D01*
X90351185Y-166871315D01*
X90254494Y-166791963D01*
X90144180Y-166732998D01*
X90024482Y-166696688D01*
X89900000Y-166684428D01*
X89185750Y-166687500D01*
X89027000Y-166846250D01*
X88773000Y-166846250D01*
X88614250Y-166687500D01*
X87900000Y-166684428D01*
X87775518Y-166696688D01*
X87655820Y-166732998D01*
X87545506Y-166791963D01*
X87448815Y-166871315D01*
X87369463Y-166968006D01*
X87310498Y-167078320D01*
X87274188Y-167198018D01*
X87261928Y-167322500D01*
X82687895Y-167322500D01*
X82728097Y-167282298D01*
X82656514Y-167038329D01*
X82401004Y-166917429D01*
X82126816Y-166848700D01*
X81844488Y-166834783D01*
X81564870Y-166876213D01*
X81298708Y-166971397D01*
X81173486Y-167038329D01*
X81101903Y-167282298D01*
X72957375Y-167282298D01*
X72958072Y-167075000D01*
X72945812Y-166950518D01*
X72909502Y-166830820D01*
X72850537Y-166720506D01*
X72771185Y-166623815D01*
X72674494Y-166544463D01*
X72564180Y-166485498D01*
X72444482Y-166449188D01*
X72320000Y-166436928D01*
X71405750Y-166440000D01*
X71247000Y-166598750D01*
X70993000Y-166598750D01*
X70834250Y-166440000D01*
X69920000Y-166436928D01*
X69795518Y-166449188D01*
X69675820Y-166485498D01*
X69565506Y-166544463D01*
X69468815Y-166623815D01*
X69389463Y-166720506D01*
X69330498Y-166830820D01*
X69294188Y-166950518D01*
X69281928Y-167075000D01*
X61248069Y-167075000D01*
X61362152Y-166998773D01*
X61588773Y-166772152D01*
X61766828Y-166505673D01*
X61889475Y-166209578D01*
X61952000Y-165895245D01*
X61952000Y-165574755D01*
X61889475Y-165260422D01*
X61766828Y-164964327D01*
X61588773Y-164697848D01*
X61362152Y-164471227D01*
X61095673Y-164293172D01*
X60799578Y-164170525D01*
X60485245Y-164108000D01*
X60164755Y-164108000D01*
X59850422Y-164170525D01*
X59554327Y-164293172D01*
X59287848Y-164471227D01*
X59061227Y-164697848D01*
X59054444Y-164708000D01*
X54400397Y-164708000D01*
X53484833Y-163792437D01*
X53562000Y-163404491D01*
X53562000Y-162985509D01*
X53480261Y-162574577D01*
X53319923Y-162187488D01*
X53087149Y-161839116D01*
X52790884Y-161542851D01*
X52442512Y-161310077D01*
X52055423Y-161149739D01*
X51644491Y-161068000D01*
X51225509Y-161068000D01*
X50814577Y-161149739D01*
X50427488Y-161310077D01*
X50079116Y-161542851D01*
X49782851Y-161839116D01*
X49550077Y-162187488D01*
X49389739Y-162574577D01*
X49308000Y-162985509D01*
X47642000Y-162985509D01*
X47642000Y-156615000D01*
X49304967Y-156615000D01*
X49304967Y-159615000D01*
X49317073Y-159737913D01*
X49352925Y-159856103D01*
X49411147Y-159965028D01*
X49489499Y-160060501D01*
X49584972Y-160138853D01*
X49693897Y-160197075D01*
X49812087Y-160232927D01*
X49935000Y-160245033D01*
X52935000Y-160245033D01*
X53057913Y-160232927D01*
X53176103Y-160197075D01*
X53285028Y-160138853D01*
X53380501Y-160060501D01*
X53458853Y-159965028D01*
X53517075Y-159856103D01*
X53552927Y-159737913D01*
X53565033Y-159615000D01*
X53565033Y-159397429D01*
X55593132Y-161425530D01*
X55625288Y-161464712D01*
X55664470Y-161496868D01*
X55664475Y-161496873D01*
X55781668Y-161593051D01*
X55960082Y-161688415D01*
X56153672Y-161747140D01*
X56171831Y-161748928D01*
X56304549Y-161762000D01*
X56304556Y-161762000D01*
X56355000Y-161766968D01*
X56405443Y-161762000D01*
X59054444Y-161762000D01*
X59061227Y-161772152D01*
X59287848Y-161998773D01*
X59554327Y-162176828D01*
X59850422Y-162299475D01*
X60164755Y-162362000D01*
X60485245Y-162362000D01*
X60799578Y-162299475D01*
X61095673Y-162176828D01*
X61362152Y-161998773D01*
X61588773Y-161772152D01*
X61766828Y-161505673D01*
X61889475Y-161209578D01*
X61952000Y-160895245D01*
X61952000Y-160574755D01*
X61889475Y-160260422D01*
X61766828Y-159964327D01*
X61588773Y-159697848D01*
X61362152Y-159471227D01*
X61125318Y-159312980D01*
X70021626Y-159312980D01*
X70141514Y-159597836D01*
X70465210Y-159758699D01*
X70814069Y-159853322D01*
X71174684Y-159878067D01*
X71533198Y-159831985D01*
X71875833Y-159716846D01*
X72098486Y-159597836D01*
X72218374Y-159312980D01*
X71120000Y-158214605D01*
X70021626Y-159312980D01*
X61125318Y-159312980D01*
X61095673Y-159293172D01*
X60799578Y-159170525D01*
X60485245Y-159108000D01*
X60164755Y-159108000D01*
X59850422Y-159170525D01*
X59554327Y-159293172D01*
X59287848Y-159471227D01*
X59061227Y-159697848D01*
X59054444Y-159708000D01*
X56780398Y-159708000D01*
X55162081Y-158089684D01*
X69276933Y-158089684D01*
X69323015Y-158448198D01*
X69438154Y-158790833D01*
X69557164Y-159013486D01*
X69842020Y-159133374D01*
X70940395Y-158035000D01*
X71299605Y-158035000D01*
X72397980Y-159133374D01*
X72458977Y-159107702D01*
X81101903Y-159107702D01*
X81173486Y-159351671D01*
X81428996Y-159472571D01*
X81703184Y-159541300D01*
X81985512Y-159555217D01*
X82265130Y-159513787D01*
X82531292Y-159418603D01*
X82656514Y-159351671D01*
X82728097Y-159107702D01*
X81915000Y-158294605D01*
X81101903Y-159107702D01*
X72458977Y-159107702D01*
X72682836Y-159013486D01*
X72843699Y-158689790D01*
X72938322Y-158340931D01*
X72948986Y-158185512D01*
X80474783Y-158185512D01*
X80516213Y-158465130D01*
X80611397Y-158731292D01*
X80678329Y-158856514D01*
X80922298Y-158928097D01*
X81735395Y-158115000D01*
X82094605Y-158115000D01*
X82907702Y-158928097D01*
X83151671Y-158856514D01*
X83202070Y-158750000D01*
X87265358Y-158750000D01*
X87295854Y-159059636D01*
X87386172Y-159357373D01*
X87532840Y-159631769D01*
X87730221Y-159872279D01*
X87970731Y-160069660D01*
X88245127Y-160216328D01*
X88542864Y-160306646D01*
X88774908Y-160329500D01*
X89025092Y-160329500D01*
X89257136Y-160306646D01*
X89554873Y-160216328D01*
X89829269Y-160069660D01*
X90069779Y-159872279D01*
X90147972Y-159777000D01*
X90649559Y-159777000D01*
X90700000Y-159781968D01*
X90750441Y-159777000D01*
X90750451Y-159777000D01*
X90901327Y-159762140D01*
X91094917Y-159703415D01*
X91273331Y-159608051D01*
X91429712Y-159479712D01*
X91461877Y-159440519D01*
X91665396Y-159237000D01*
X98943647Y-159237000D01*
X98947925Y-159251103D01*
X99006147Y-159360028D01*
X99084499Y-159455501D01*
X99179972Y-159533853D01*
X99288897Y-159592075D01*
X99407087Y-159627927D01*
X99530000Y-159640033D01*
X101130000Y-159640033D01*
X101252913Y-159627927D01*
X101371103Y-159592075D01*
X101480028Y-159533853D01*
X101575501Y-159455501D01*
X101653853Y-159360028D01*
X101710365Y-159254302D01*
X105353000Y-159254302D01*
X105353000Y-159515698D01*
X105403996Y-159772072D01*
X105504028Y-160013570D01*
X105649252Y-160230913D01*
X105834087Y-160415748D01*
X106051430Y-160560972D01*
X106292928Y-160661004D01*
X106549302Y-160712000D01*
X106810698Y-160712000D01*
X107067072Y-160661004D01*
X107308570Y-160560972D01*
X107525913Y-160415748D01*
X107710748Y-160230913D01*
X107855972Y-160013570D01*
X107956004Y-159772072D01*
X108007000Y-159515698D01*
X108007000Y-159254302D01*
X107956004Y-158997928D01*
X107855972Y-158756430D01*
X107741427Y-158585000D01*
X114139967Y-158585000D01*
X114139967Y-160185000D01*
X114152073Y-160307913D01*
X114187925Y-160426103D01*
X114246147Y-160535028D01*
X114324499Y-160630501D01*
X114419972Y-160708853D01*
X114528897Y-160767075D01*
X114647087Y-160802927D01*
X114770000Y-160815033D01*
X116370000Y-160815033D01*
X116492913Y-160802927D01*
X116611103Y-160767075D01*
X116720028Y-160708853D01*
X116815501Y-160630501D01*
X116893853Y-160535028D01*
X116952075Y-160426103D01*
X116987927Y-160307913D01*
X117000033Y-160185000D01*
X117000033Y-158585000D01*
X116987927Y-158462087D01*
X116952075Y-158343897D01*
X116893853Y-158234972D01*
X116815501Y-158139499D01*
X116720028Y-158061147D01*
X116611103Y-158002925D01*
X116492913Y-157967073D01*
X116370000Y-157954967D01*
X116360427Y-157954967D01*
X116383097Y-157877702D01*
X115570000Y-157064605D01*
X114756903Y-157877702D01*
X114779573Y-157954967D01*
X114770000Y-157954967D01*
X114647087Y-157967073D01*
X114528897Y-158002925D01*
X114419972Y-158061147D01*
X114324499Y-158139499D01*
X114246147Y-158234972D01*
X114187925Y-158343897D01*
X114152073Y-158462087D01*
X114139967Y-158585000D01*
X107741427Y-158585000D01*
X107710748Y-158539087D01*
X107525913Y-158354252D01*
X107308570Y-158209028D01*
X107067072Y-158108996D01*
X106810698Y-158058000D01*
X106549302Y-158058000D01*
X106292928Y-158108996D01*
X106051430Y-158209028D01*
X105834087Y-158354252D01*
X105649252Y-158539087D01*
X105504028Y-158756430D01*
X105403996Y-158997928D01*
X105353000Y-159254302D01*
X101710365Y-159254302D01*
X101712075Y-159251103D01*
X101716353Y-159237000D01*
X102165059Y-159237000D01*
X102215500Y-159241968D01*
X102265941Y-159237000D01*
X102265951Y-159237000D01*
X102416827Y-159222140D01*
X102610417Y-159163415D01*
X102788831Y-159068051D01*
X102945212Y-158939712D01*
X102977377Y-158900519D01*
X104922384Y-156955512D01*
X114129783Y-156955512D01*
X114171213Y-157235130D01*
X114266397Y-157501292D01*
X114333329Y-157626514D01*
X114577298Y-157698097D01*
X115390395Y-156885000D01*
X115749605Y-156885000D01*
X116562702Y-157698097D01*
X116806671Y-157626514D01*
X116927571Y-157371004D01*
X116996300Y-157096816D01*
X117010217Y-156814488D01*
X116968787Y-156534870D01*
X116873603Y-156268708D01*
X116806671Y-156143486D01*
X116562702Y-156071903D01*
X115749605Y-156885000D01*
X115390395Y-156885000D01*
X114577298Y-156071903D01*
X114333329Y-156143486D01*
X114212429Y-156398996D01*
X114143700Y-156673184D01*
X114129783Y-156955512D01*
X104922384Y-156955512D01*
X105985598Y-155892298D01*
X114756903Y-155892298D01*
X115570000Y-156705395D01*
X116383097Y-155892298D01*
X116311514Y-155648329D01*
X116056004Y-155527429D01*
X115781816Y-155458700D01*
X115499488Y-155444783D01*
X115219870Y-155486213D01*
X114953708Y-155581397D01*
X114828486Y-155648329D01*
X114756903Y-155892298D01*
X105985598Y-155892298D01*
X108881297Y-152996600D01*
X125543575Y-152996600D01*
X125533672Y-153015127D01*
X125443354Y-153312864D01*
X125420500Y-153544908D01*
X125420500Y-153795091D01*
X125443354Y-154027135D01*
X125533672Y-154324872D01*
X125680340Y-154599268D01*
X125877721Y-154839779D01*
X125973001Y-154917973D01*
X125973000Y-162324603D01*
X120334882Y-167962722D01*
X120316265Y-167978000D01*
X116956353Y-167978000D01*
X116952075Y-167963897D01*
X116893853Y-167854972D01*
X116815501Y-167759499D01*
X116801520Y-167748025D01*
X116806671Y-167746514D01*
X116927571Y-167491004D01*
X116996300Y-167216816D01*
X117010217Y-166934488D01*
X116968787Y-166654870D01*
X116873603Y-166388708D01*
X116806671Y-166263486D01*
X116562702Y-166191903D01*
X115749605Y-167005000D01*
X115763748Y-167019143D01*
X115584143Y-167198748D01*
X115570000Y-167184605D01*
X115555858Y-167198748D01*
X115376253Y-167019143D01*
X115390395Y-167005000D01*
X114577298Y-166191903D01*
X114333329Y-166263486D01*
X114212429Y-166518996D01*
X114143700Y-166793184D01*
X114129783Y-167075512D01*
X114171213Y-167355130D01*
X114266397Y-167621292D01*
X114333329Y-167746514D01*
X114338480Y-167748025D01*
X114324499Y-167759499D01*
X114246147Y-167854972D01*
X114187925Y-167963897D01*
X114152073Y-168082087D01*
X114139967Y-168205000D01*
X114139967Y-169805000D01*
X114152073Y-169927913D01*
X114187925Y-170046103D01*
X114246147Y-170155028D01*
X114324499Y-170250501D01*
X114419972Y-170328853D01*
X114528897Y-170387075D01*
X114647087Y-170422927D01*
X114770000Y-170435033D01*
X116370000Y-170435033D01*
X116492913Y-170422927D01*
X116611103Y-170387075D01*
X116720028Y-170328853D01*
X116815501Y-170250501D01*
X116893853Y-170155028D01*
X116952075Y-170046103D01*
X116956353Y-170032000D01*
X120694559Y-170032000D01*
X120745000Y-170036968D01*
X120795441Y-170032000D01*
X120795451Y-170032000D01*
X120872779Y-170024384D01*
X126993539Y-176145228D01*
X126943000Y-176399302D01*
X126943000Y-176660698D01*
X126993996Y-176917072D01*
X127094028Y-177158570D01*
X127239252Y-177375913D01*
X127424087Y-177560748D01*
X127641430Y-177705972D01*
X127882928Y-177806004D01*
X128139302Y-177857000D01*
X128400698Y-177857000D01*
X128657072Y-177806004D01*
X128898570Y-177705972D01*
X129115913Y-177560748D01*
X129300748Y-177375913D01*
X129445972Y-177158570D01*
X129513187Y-176996300D01*
X137275259Y-176996300D01*
X137325700Y-177001268D01*
X137376141Y-176996300D01*
X137376151Y-176996300D01*
X137527027Y-176981440D01*
X137720617Y-176922715D01*
X137899031Y-176827351D01*
X138055412Y-176699012D01*
X138087577Y-176659819D01*
X140109967Y-174637431D01*
X140109967Y-174855000D01*
X140122073Y-174977913D01*
X140157925Y-175096103D01*
X140216147Y-175205028D01*
X140294499Y-175300501D01*
X140389972Y-175378853D01*
X140498897Y-175437075D01*
X140617087Y-175472927D01*
X140740000Y-175485033D01*
X143740000Y-175485033D01*
X143862913Y-175472927D01*
X143981103Y-175437075D01*
X144090028Y-175378853D01*
X144185501Y-175300501D01*
X144263853Y-175205028D01*
X144322075Y-175096103D01*
X144357927Y-174977913D01*
X144370033Y-174855000D01*
X144370033Y-171855000D01*
X144357927Y-171732087D01*
X144322075Y-171613897D01*
X144263853Y-171504972D01*
X144185501Y-171409499D01*
X144090028Y-171331147D01*
X143981103Y-171272925D01*
X143862913Y-171237073D01*
X143740000Y-171224967D01*
X140740000Y-171224967D01*
X140617087Y-171237073D01*
X140498897Y-171272925D01*
X140389972Y-171331147D01*
X140294499Y-171409499D01*
X140216147Y-171504972D01*
X140157925Y-171613897D01*
X140122073Y-171732087D01*
X140109967Y-171855000D01*
X140109967Y-172328000D01*
X139990443Y-172328000D01*
X139940000Y-172323032D01*
X139889556Y-172328000D01*
X139889549Y-172328000D01*
X139756831Y-172341072D01*
X139738672Y-172342860D01*
X139545082Y-172401585D01*
X139366668Y-172496949D01*
X139249475Y-172593127D01*
X139249470Y-172593132D01*
X139210288Y-172625288D01*
X139178132Y-172664470D01*
X136900304Y-174942300D01*
X128695402Y-174942300D01*
X123849054Y-170095886D01*
X127163000Y-170095886D01*
X127163000Y-170564114D01*
X127254347Y-171023345D01*
X127433530Y-171455932D01*
X127693664Y-171845249D01*
X128024751Y-172176336D01*
X128414068Y-172436470D01*
X128846655Y-172615653D01*
X129305886Y-172707000D01*
X129774114Y-172707000D01*
X130233345Y-172615653D01*
X130665932Y-172436470D01*
X131055249Y-172176336D01*
X131386336Y-171845249D01*
X131646470Y-171455932D01*
X131825653Y-171023345D01*
X131917000Y-170564114D01*
X131917000Y-170095886D01*
X131851512Y-169766653D01*
X140927952Y-169766653D01*
X141083962Y-170082214D01*
X141458745Y-170273020D01*
X141863551Y-170387044D01*
X142282824Y-170419902D01*
X142700451Y-170370334D01*
X143100383Y-170240243D01*
X143396038Y-170082214D01*
X143552048Y-169766653D01*
X142240000Y-168454605D01*
X140927952Y-169766653D01*
X131851512Y-169766653D01*
X131825653Y-169636655D01*
X131646470Y-169204068D01*
X131386336Y-168814751D01*
X131055249Y-168483664D01*
X130807053Y-168317824D01*
X140095098Y-168317824D01*
X140144666Y-168735451D01*
X140274757Y-169135383D01*
X140432786Y-169431038D01*
X140748347Y-169587048D01*
X142060395Y-168275000D01*
X142419605Y-168275000D01*
X143731653Y-169587048D01*
X144047214Y-169431038D01*
X144238020Y-169056255D01*
X144352044Y-168651449D01*
X144384902Y-168232176D01*
X144335334Y-167814549D01*
X144205243Y-167414617D01*
X144047214Y-167118962D01*
X143731653Y-166962952D01*
X142419605Y-168275000D01*
X142060395Y-168275000D01*
X140748347Y-166962952D01*
X140432786Y-167118962D01*
X140241980Y-167493745D01*
X140127956Y-167898551D01*
X140095098Y-168317824D01*
X130807053Y-168317824D01*
X130665932Y-168223530D01*
X130233345Y-168044347D01*
X129774114Y-167953000D01*
X129305886Y-167953000D01*
X128846655Y-168044347D01*
X128414068Y-168223530D01*
X128024751Y-168483664D01*
X127693664Y-168814751D01*
X127433530Y-169204068D01*
X127254347Y-169636655D01*
X127163000Y-170095886D01*
X123849054Y-170095886D01*
X122477791Y-168724605D01*
X124419049Y-166783347D01*
X140927952Y-166783347D01*
X142240000Y-168095395D01*
X143552048Y-166783347D01*
X143396038Y-166467786D01*
X143021255Y-166276980D01*
X142616449Y-166162956D01*
X142197176Y-166130098D01*
X141779549Y-166179666D01*
X141379617Y-166309757D01*
X141083962Y-166467786D01*
X140927952Y-166783347D01*
X124419049Y-166783347D01*
X127690525Y-163511872D01*
X127729712Y-163479712D01*
X127858051Y-163323331D01*
X127953415Y-163144917D01*
X128012140Y-162951327D01*
X128027000Y-162800451D01*
X128027000Y-162800442D01*
X128031968Y-162750001D01*
X128027000Y-162699560D01*
X128027000Y-162350509D01*
X140113000Y-162350509D01*
X140113000Y-162769491D01*
X140194739Y-163180423D01*
X140355077Y-163567512D01*
X140587851Y-163915884D01*
X140884116Y-164212149D01*
X141232488Y-164444923D01*
X141619577Y-164605261D01*
X142030509Y-164687000D01*
X142449491Y-164687000D01*
X142860423Y-164605261D01*
X143247512Y-164444923D01*
X143595884Y-164212149D01*
X143892149Y-163915884D01*
X144124923Y-163567512D01*
X144285261Y-163180423D01*
X144367000Y-162769491D01*
X144367000Y-162350509D01*
X144285261Y-161939577D01*
X144124923Y-161552488D01*
X143892149Y-161204116D01*
X143595884Y-160907851D01*
X143247512Y-160675077D01*
X142860423Y-160514739D01*
X142449491Y-160433000D01*
X142030509Y-160433000D01*
X141619577Y-160514739D01*
X141232488Y-160675077D01*
X140884116Y-160907851D01*
X140587851Y-161204116D01*
X140355077Y-161552488D01*
X140194739Y-161939577D01*
X140113000Y-162350509D01*
X128027000Y-162350509D01*
X128027000Y-158971653D01*
X140927952Y-158971653D01*
X141083962Y-159287214D01*
X141458745Y-159478020D01*
X141863551Y-159592044D01*
X142282824Y-159624902D01*
X142700451Y-159575334D01*
X143100383Y-159445243D01*
X143396038Y-159287214D01*
X143552048Y-158971653D01*
X142240000Y-157659605D01*
X140927952Y-158971653D01*
X128027000Y-158971653D01*
X128027000Y-157522824D01*
X140095098Y-157522824D01*
X140144666Y-157940451D01*
X140274757Y-158340383D01*
X140432786Y-158636038D01*
X140748347Y-158792048D01*
X142060395Y-157480000D01*
X142419605Y-157480000D01*
X143731653Y-158792048D01*
X144047214Y-158636038D01*
X144238020Y-158261255D01*
X144352044Y-157856449D01*
X144384902Y-157437176D01*
X144335334Y-157019549D01*
X144205243Y-156619617D01*
X144047214Y-156323962D01*
X143731653Y-156167952D01*
X142419605Y-157480000D01*
X142060395Y-157480000D01*
X140748347Y-156167952D01*
X140432786Y-156323962D01*
X140241980Y-156698745D01*
X140127956Y-157103551D01*
X140095098Y-157522824D01*
X128027000Y-157522824D01*
X128027000Y-155988347D01*
X140927952Y-155988347D01*
X142240000Y-157300395D01*
X143552048Y-155988347D01*
X143396038Y-155672786D01*
X143021255Y-155481980D01*
X142616449Y-155367956D01*
X142197176Y-155335098D01*
X141779549Y-155384666D01*
X141379617Y-155514757D01*
X141083962Y-155672786D01*
X140927952Y-155988347D01*
X128027000Y-155988347D01*
X128027000Y-154917972D01*
X128122279Y-154839779D01*
X128270000Y-154659780D01*
X128417721Y-154839779D01*
X128658231Y-155037160D01*
X128932627Y-155183828D01*
X129230364Y-155274146D01*
X129540000Y-155304642D01*
X129849635Y-155274146D01*
X130147372Y-155183828D01*
X130421768Y-155037160D01*
X130554555Y-154928185D01*
X130603647Y-155020028D01*
X130681999Y-155115501D01*
X130777472Y-155193853D01*
X130886397Y-155252075D01*
X131004587Y-155287927D01*
X131127500Y-155300033D01*
X133032500Y-155300033D01*
X133155413Y-155287927D01*
X133273603Y-155252075D01*
X133382528Y-155193853D01*
X133478001Y-155115501D01*
X133556353Y-155020028D01*
X133614575Y-154911103D01*
X133650427Y-154792913D01*
X133662533Y-154670000D01*
X133662533Y-152996600D01*
X139084203Y-152996600D01*
X139178127Y-153090524D01*
X139210288Y-153129712D01*
X139249475Y-153161872D01*
X139249476Y-153161873D01*
X139366669Y-153258051D01*
X139545082Y-153353415D01*
X139738672Y-153412140D01*
X139756831Y-153413928D01*
X139889549Y-153427000D01*
X139889556Y-153427000D01*
X139940000Y-153431968D01*
X139990443Y-153427000D01*
X140109967Y-153427000D01*
X140109967Y-153900000D01*
X140122073Y-154022913D01*
X140157925Y-154141103D01*
X140216147Y-154250028D01*
X140294499Y-154345501D01*
X140389972Y-154423853D01*
X140498897Y-154482075D01*
X140617087Y-154517927D01*
X140740000Y-154530033D01*
X143740000Y-154530033D01*
X143862913Y-154517927D01*
X143981103Y-154482075D01*
X144090028Y-154423853D01*
X144185501Y-154345501D01*
X144263853Y-154250028D01*
X144322075Y-154141103D01*
X144357927Y-154022913D01*
X144370033Y-153900000D01*
X144370033Y-150900000D01*
X144357927Y-150777087D01*
X144322075Y-150658897D01*
X144263853Y-150549972D01*
X144185501Y-150454499D01*
X144090028Y-150376147D01*
X143981103Y-150317925D01*
X143862913Y-150282073D01*
X143740000Y-150269967D01*
X140740000Y-150269967D01*
X140617087Y-150282073D01*
X140498897Y-150317925D01*
X140389972Y-150376147D01*
X140294499Y-150454499D01*
X140216147Y-150549972D01*
X140157925Y-150658897D01*
X140122073Y-150777087D01*
X140109967Y-150900000D01*
X140109967Y-151133737D01*
X140082931Y-151111549D01*
X139904517Y-151016185D01*
X139710927Y-150957460D01*
X139560051Y-150942600D01*
X139560041Y-150942600D01*
X139509600Y-150937632D01*
X139459159Y-150942600D01*
X108506340Y-150942600D01*
X108455899Y-150937632D01*
X108405458Y-150942600D01*
X108405449Y-150942600D01*
X108254573Y-150957460D01*
X108060983Y-151016185D01*
X107882569Y-151111549D01*
X107854654Y-151134458D01*
X107710748Y-150919087D01*
X107525913Y-150734252D01*
X107308570Y-150589028D01*
X107067072Y-150488996D01*
X106810698Y-150438000D01*
X106549302Y-150438000D01*
X106292928Y-150488996D01*
X106051430Y-150589028D01*
X105834087Y-150734252D01*
X105649252Y-150919087D01*
X105504028Y-151136430D01*
X105403996Y-151377928D01*
X105353000Y-151634302D01*
X105353000Y-151895698D01*
X105403996Y-152152072D01*
X105504028Y-152393570D01*
X105649252Y-152610913D01*
X105834087Y-152795748D01*
X106039861Y-152933242D01*
X101790104Y-157183000D01*
X101716353Y-157183000D01*
X101712075Y-157168897D01*
X101653853Y-157059972D01*
X101575501Y-156964499D01*
X101561520Y-156953025D01*
X101566671Y-156951514D01*
X101687571Y-156696004D01*
X101756300Y-156421816D01*
X101770217Y-156139488D01*
X101728787Y-155859870D01*
X101633603Y-155593708D01*
X101566671Y-155468486D01*
X101322702Y-155396903D01*
X100509605Y-156210000D01*
X100523748Y-156224143D01*
X100344143Y-156403748D01*
X100330000Y-156389605D01*
X100315858Y-156403748D01*
X100136253Y-156224143D01*
X100150395Y-156210000D01*
X99337298Y-155396903D01*
X99093329Y-155468486D01*
X98972429Y-155723996D01*
X98903700Y-155998184D01*
X98889783Y-156280512D01*
X98931213Y-156560130D01*
X99026397Y-156826292D01*
X99093329Y-156951514D01*
X99098480Y-156953025D01*
X99084499Y-156964499D01*
X99006147Y-157059972D01*
X98947925Y-157168897D01*
X98943647Y-157183000D01*
X91290440Y-157183000D01*
X91239999Y-157178032D01*
X91189558Y-157183000D01*
X91189549Y-157183000D01*
X91038673Y-157197860D01*
X90845083Y-157256585D01*
X90666669Y-157351949D01*
X90510288Y-157480288D01*
X90478123Y-157519481D01*
X90274604Y-157723000D01*
X90147972Y-157723000D01*
X90069779Y-157627721D01*
X89889865Y-157480070D01*
X90081315Y-157319437D01*
X90275969Y-157076923D01*
X90419571Y-156801094D01*
X90490563Y-156582980D01*
X90370594Y-156337000D01*
X89027000Y-156337000D01*
X89027000Y-156357000D01*
X88773000Y-156357000D01*
X88773000Y-156337000D01*
X87429406Y-156337000D01*
X87309437Y-156582980D01*
X87380429Y-156801094D01*
X87524031Y-157076923D01*
X87718685Y-157319437D01*
X87910135Y-157480070D01*
X87730221Y-157627721D01*
X87532840Y-157868231D01*
X87386172Y-158142627D01*
X87295854Y-158440364D01*
X87265358Y-158750000D01*
X83202070Y-158750000D01*
X83272571Y-158601004D01*
X83341300Y-158326816D01*
X83355217Y-158044488D01*
X83313787Y-157764870D01*
X83218603Y-157498708D01*
X83151671Y-157373486D01*
X82907702Y-157301903D01*
X82094605Y-158115000D01*
X81735395Y-158115000D01*
X80922298Y-157301903D01*
X80678329Y-157373486D01*
X80557429Y-157628996D01*
X80488700Y-157903184D01*
X80474783Y-158185512D01*
X72948986Y-158185512D01*
X72963067Y-157980316D01*
X72916985Y-157621802D01*
X72801846Y-157279167D01*
X72717999Y-157122298D01*
X81101903Y-157122298D01*
X81915000Y-157935395D01*
X82728097Y-157122298D01*
X82656514Y-156878329D01*
X82401004Y-156757429D01*
X82126816Y-156688700D01*
X81844488Y-156674783D01*
X81564870Y-156716213D01*
X81298708Y-156811397D01*
X81173486Y-156878329D01*
X81101903Y-157122298D01*
X72717999Y-157122298D01*
X72682836Y-157056514D01*
X72397980Y-156936626D01*
X71299605Y-158035000D01*
X70940395Y-158035000D01*
X69842020Y-156936626D01*
X69557164Y-157056514D01*
X69396301Y-157380210D01*
X69301678Y-157729069D01*
X69276933Y-158089684D01*
X55162081Y-158089684D01*
X54496877Y-157424481D01*
X54464712Y-157385288D01*
X54308331Y-157256949D01*
X54129917Y-157161585D01*
X53936327Y-157102860D01*
X53785451Y-157088000D01*
X53785441Y-157088000D01*
X53735000Y-157083032D01*
X53684559Y-157088000D01*
X53565033Y-157088000D01*
X53565033Y-156615000D01*
X53552927Y-156492087D01*
X53517075Y-156373897D01*
X53458853Y-156264972D01*
X53380501Y-156169499D01*
X53285028Y-156091147D01*
X53176103Y-156032925D01*
X53057913Y-155997073D01*
X52935000Y-155984967D01*
X49935000Y-155984967D01*
X49812087Y-155997073D01*
X49693897Y-156032925D01*
X49584972Y-156091147D01*
X49489499Y-156169499D01*
X49411147Y-156264972D01*
X49352925Y-156373897D01*
X49317073Y-156492087D01*
X49304967Y-156615000D01*
X47642000Y-156615000D01*
X47642000Y-154735000D01*
X58694967Y-154735000D01*
X58694967Y-156735000D01*
X58707073Y-156857913D01*
X58742925Y-156976103D01*
X58801147Y-157085028D01*
X58879499Y-157180501D01*
X58974972Y-157258853D01*
X59083897Y-157317075D01*
X59202087Y-157352927D01*
X59325000Y-157365033D01*
X61325000Y-157365033D01*
X61447913Y-157352927D01*
X61566103Y-157317075D01*
X61675028Y-157258853D01*
X61770501Y-157180501D01*
X61848853Y-157085028D01*
X61907075Y-156976103D01*
X61942927Y-156857913D01*
X61952374Y-156762000D01*
X66369559Y-156762000D01*
X66420000Y-156766968D01*
X66470441Y-156762000D01*
X66470451Y-156762000D01*
X66521013Y-156757020D01*
X70021626Y-156757020D01*
X71120000Y-157855395D01*
X72218374Y-156757020D01*
X72098486Y-156472164D01*
X71774790Y-156311301D01*
X71425931Y-156216678D01*
X71065316Y-156191933D01*
X70706802Y-156238015D01*
X70364167Y-156353154D01*
X70141514Y-156472164D01*
X70021626Y-156757020D01*
X66521013Y-156757020D01*
X66621327Y-156747140D01*
X66814917Y-156688415D01*
X66993331Y-156593051D01*
X67149712Y-156464712D01*
X67181877Y-156425519D01*
X69297358Y-154310040D01*
X69302073Y-154357913D01*
X69337925Y-154476103D01*
X69396147Y-154585028D01*
X69474499Y-154680501D01*
X69569972Y-154758853D01*
X69678897Y-154817075D01*
X69797087Y-154852927D01*
X69920000Y-154865033D01*
X72320000Y-154865033D01*
X72442913Y-154852927D01*
X72561103Y-154817075D01*
X72670028Y-154758853D01*
X72765501Y-154680501D01*
X72843853Y-154585028D01*
X72902075Y-154476103D01*
X72937927Y-154357913D01*
X72950033Y-154235000D01*
X72950033Y-152974453D01*
X80488000Y-152974453D01*
X80488000Y-153255547D01*
X80542838Y-153531241D01*
X80650409Y-153790938D01*
X80806576Y-154024660D01*
X81005340Y-154223424D01*
X81239062Y-154379591D01*
X81498759Y-154487162D01*
X81774453Y-154542000D01*
X82055547Y-154542000D01*
X82331241Y-154487162D01*
X82590938Y-154379591D01*
X82824660Y-154223424D01*
X83023424Y-154024660D01*
X83179591Y-153790938D01*
X83287162Y-153531241D01*
X83342000Y-153255547D01*
X83342000Y-152974453D01*
X83290890Y-152717500D01*
X87269967Y-152717500D01*
X87269967Y-154622500D01*
X87282073Y-154745413D01*
X87317925Y-154863603D01*
X87376147Y-154972528D01*
X87454499Y-155068001D01*
X87549972Y-155146353D01*
X87642314Y-155195711D01*
X87524031Y-155343077D01*
X87380429Y-155618906D01*
X87309437Y-155837020D01*
X87429406Y-156083000D01*
X88773000Y-156083000D01*
X88773000Y-156063000D01*
X89027000Y-156063000D01*
X89027000Y-156083000D01*
X90370594Y-156083000D01*
X90490563Y-155837020D01*
X90419571Y-155618906D01*
X90275969Y-155343077D01*
X90175013Y-155217298D01*
X99516903Y-155217298D01*
X100330000Y-156030395D01*
X101143097Y-155217298D01*
X101071514Y-154973329D01*
X100816004Y-154852429D01*
X100541816Y-154783700D01*
X100259488Y-154769783D01*
X99979870Y-154811213D01*
X99713708Y-154906397D01*
X99588486Y-154973329D01*
X99516903Y-155217298D01*
X90175013Y-155217298D01*
X90157686Y-155195711D01*
X90250028Y-155146353D01*
X90345501Y-155068001D01*
X90423853Y-154972528D01*
X90482075Y-154863603D01*
X90517927Y-154745413D01*
X90530033Y-154622500D01*
X90530033Y-152717500D01*
X90517927Y-152594587D01*
X90482075Y-152476397D01*
X90423853Y-152367472D01*
X90345501Y-152271999D01*
X90250028Y-152193647D01*
X90141103Y-152135425D01*
X90022913Y-152099573D01*
X89900000Y-152087467D01*
X87900000Y-152087467D01*
X87777087Y-152099573D01*
X87658897Y-152135425D01*
X87549972Y-152193647D01*
X87454499Y-152271999D01*
X87376147Y-152367472D01*
X87317925Y-152476397D01*
X87282073Y-152594587D01*
X87269967Y-152717500D01*
X83290890Y-152717500D01*
X83287162Y-152698759D01*
X83179591Y-152439062D01*
X83023424Y-152205340D01*
X82824660Y-152006576D01*
X82590938Y-151850409D01*
X82331241Y-151742838D01*
X82055547Y-151688000D01*
X81774453Y-151688000D01*
X81498759Y-151742838D01*
X81239062Y-151850409D01*
X81005340Y-152006576D01*
X80806576Y-152205340D01*
X80650409Y-152439062D01*
X80542838Y-152698759D01*
X80488000Y-152974453D01*
X72950033Y-152974453D01*
X72950033Y-151835000D01*
X72937927Y-151712087D01*
X72902075Y-151593897D01*
X72843853Y-151484972D01*
X72765501Y-151389499D01*
X72670028Y-151311147D01*
X72561103Y-151252925D01*
X72442913Y-151217073D01*
X72320000Y-151204967D01*
X69920000Y-151204967D01*
X69797087Y-151217073D01*
X69678897Y-151252925D01*
X69569972Y-151311147D01*
X69474499Y-151389499D01*
X69396147Y-151484972D01*
X69337925Y-151593897D01*
X69302073Y-151712087D01*
X69289967Y-151835000D01*
X69289967Y-152008000D01*
X69170443Y-152008000D01*
X69120000Y-152003032D01*
X69069556Y-152008000D01*
X69069549Y-152008000D01*
X68936831Y-152021072D01*
X68918672Y-152022860D01*
X68862279Y-152039967D01*
X68725083Y-152081585D01*
X68714079Y-152087467D01*
X68546668Y-152176949D01*
X68429475Y-152273127D01*
X68429470Y-152273132D01*
X68390288Y-152305288D01*
X68358132Y-152344470D01*
X65994604Y-154708000D01*
X61952374Y-154708000D01*
X61942927Y-154612087D01*
X61907075Y-154493897D01*
X61848853Y-154384972D01*
X61770501Y-154289499D01*
X61675028Y-154211147D01*
X61566103Y-154152925D01*
X61447913Y-154117073D01*
X61325000Y-154104967D01*
X59325000Y-154104967D01*
X59202087Y-154117073D01*
X59083897Y-154152925D01*
X58974972Y-154211147D01*
X58879499Y-154289499D01*
X58801147Y-154384972D01*
X58742925Y-154493897D01*
X58707073Y-154612087D01*
X58694967Y-154735000D01*
X47642000Y-154735000D01*
X47642000Y-146067000D01*
X146033000Y-146067000D01*
X146033001Y-179053000D01*
M02*
