M48
INCH,TZ
T1C0.0276
T2C0.0315
T3C0.0354
T4C0.0394
T5C0.0433
T6C0.0472
T7C0.0598
T8C0.1181
%
G90
G05
T1
X42000Y-59750
X42000Y-62750
X47500Y-69500
X50500Y-69500
T2
X32250Y-60281
X32250Y-62250
X45500Y-61766
X45500Y-62750
X45500Y-65750
X45500Y-66537
X39500Y-65750
X39500Y-66537
X39500Y-61500
X39500Y-62287
X32250Y-66250
X32250Y-68219
T3
X44500Y-69000
X45500Y-69000
T4
X42000Y-66750
X42000Y-68750
X23750Y-61313
X23750Y-63281
X23750Y-65250
X23750Y-67219
T5
X35000Y-66250
X35000Y-67250
X35000Y-68250
X35000Y-60500
X35000Y-61500
X35000Y-62500
X50000Y-60500
X51000Y-60500
X52000Y-60500
T6
X28000Y-60250
X28000Y-62219
X28000Y-66250
X28000Y-68219
T7
X56000Y-66250
X56000Y-68250
X56000Y-60000
X56000Y-62000
X56000Y-64000
X20250Y-62250
X20250Y-64250
X20250Y-66250
T8
X19500Y-58000
X19500Y-70000
X56750Y-58000
X56750Y-70000
T0
M30
