G04 #@! TF.GenerationSoftware,KiCad,Pcbnew,(5.1.2)-2*
G04 #@! TF.CreationDate,2019-10-23T19:57:53-03:00*
G04 #@! TF.ProjectId,Mix_pre_tonal,4d69785f-7072-4655-9f74-6f6e616c2e6b,rev?*
G04 #@! TF.SameCoordinates,Original*
G04 #@! TF.FileFunction,Soldermask,Bot*
G04 #@! TF.FilePolarity,Negative*
%FSLAX46Y46*%
G04 Gerber Fmt 4.6, Leading zero omitted, Abs format (unit mm)*
G04 Created by KiCad (PCBNEW (5.1.2)-2) date 2019-10-23 19:57:53*
%MOMM*%
%LPD*%
G04 APERTURE LIST*
%ADD10C,0.100000*%
G04 APERTURE END LIST*
D10*
G36*
X161486153Y-147415922D02*
G01*
X161578194Y-147454047D01*
X161708359Y-147507963D01*
X161908342Y-147641587D01*
X162078413Y-147811658D01*
X162212037Y-148011641D01*
X162304078Y-148233848D01*
X162351000Y-148469741D01*
X162351000Y-148710259D01*
X162304078Y-148946152D01*
X162212037Y-149168359D01*
X162078413Y-149368342D01*
X161908342Y-149538413D01*
X161708359Y-149672037D01*
X161578194Y-149725953D01*
X161486153Y-149764078D01*
X161368205Y-149787539D01*
X161250259Y-149811000D01*
X161009741Y-149811000D01*
X160891795Y-149787539D01*
X160773847Y-149764078D01*
X160681806Y-149725953D01*
X160551641Y-149672037D01*
X160351658Y-149538413D01*
X160181587Y-149368342D01*
X160047963Y-149168359D01*
X159955922Y-148946152D01*
X159909000Y-148710259D01*
X159909000Y-148469741D01*
X159955922Y-148233848D01*
X160047963Y-148011641D01*
X160181587Y-147811658D01*
X160351658Y-147641587D01*
X160551641Y-147507963D01*
X160681806Y-147454047D01*
X160773847Y-147415922D01*
X161009741Y-147369000D01*
X161250259Y-147369000D01*
X161486153Y-147415922D01*
X161486153Y-147415922D01*
G37*
G36*
X85366153Y-147415922D02*
G01*
X85458194Y-147454047D01*
X85588359Y-147507963D01*
X85788342Y-147641587D01*
X85958413Y-147811658D01*
X86092037Y-148011641D01*
X86184078Y-148233848D01*
X86231000Y-148469741D01*
X86231000Y-148710259D01*
X86184078Y-148946152D01*
X86092037Y-149168359D01*
X85958413Y-149368342D01*
X85788342Y-149538413D01*
X85588359Y-149672037D01*
X85458194Y-149725953D01*
X85366153Y-149764078D01*
X85248205Y-149787539D01*
X85130259Y-149811000D01*
X84889741Y-149811000D01*
X84771795Y-149787539D01*
X84653847Y-149764078D01*
X84561806Y-149725953D01*
X84431641Y-149672037D01*
X84231658Y-149538413D01*
X84061587Y-149368342D01*
X83927963Y-149168359D01*
X83835922Y-148946152D01*
X83789000Y-148710259D01*
X83789000Y-148469741D01*
X83835922Y-148233848D01*
X83927963Y-148011641D01*
X84061587Y-147811658D01*
X84231658Y-147641587D01*
X84431641Y-147507963D01*
X84561806Y-147454047D01*
X84653847Y-147415922D01*
X84889741Y-147369000D01*
X85130259Y-147369000D01*
X85366153Y-147415922D01*
X85366153Y-147415922D01*
G37*
G36*
X151486153Y-147415922D02*
G01*
X151578194Y-147454047D01*
X151708359Y-147507963D01*
X151908342Y-147641587D01*
X152078413Y-147811658D01*
X152212037Y-148011641D01*
X152304078Y-148233848D01*
X152351000Y-148469741D01*
X152351000Y-148710259D01*
X152304078Y-148946152D01*
X152212037Y-149168359D01*
X152078413Y-149368342D01*
X151908342Y-149538413D01*
X151708359Y-149672037D01*
X151578194Y-149725953D01*
X151486153Y-149764078D01*
X151368205Y-149787539D01*
X151250259Y-149811000D01*
X151009741Y-149811000D01*
X150891795Y-149787539D01*
X150773847Y-149764078D01*
X150681806Y-149725953D01*
X150551641Y-149672037D01*
X150351658Y-149538413D01*
X150181587Y-149368342D01*
X150047963Y-149168359D01*
X149955922Y-148946152D01*
X149909000Y-148710259D01*
X149909000Y-148469741D01*
X149955922Y-148233848D01*
X150047963Y-148011641D01*
X150181587Y-147811658D01*
X150351658Y-147641587D01*
X150551641Y-147507963D01*
X150681806Y-147454047D01*
X150773847Y-147415922D01*
X151009741Y-147369000D01*
X151250259Y-147369000D01*
X151486153Y-147415922D01*
X151486153Y-147415922D01*
G37*
G36*
X133706153Y-147415922D02*
G01*
X133798194Y-147454047D01*
X133928359Y-147507963D01*
X134128342Y-147641587D01*
X134298413Y-147811658D01*
X134432037Y-148011641D01*
X134524078Y-148233848D01*
X134571000Y-148469741D01*
X134571000Y-148710259D01*
X134524078Y-148946152D01*
X134432037Y-149168359D01*
X134298413Y-149368342D01*
X134128342Y-149538413D01*
X133928359Y-149672037D01*
X133798194Y-149725953D01*
X133706153Y-149764078D01*
X133588205Y-149787539D01*
X133470259Y-149811000D01*
X133229741Y-149811000D01*
X133111795Y-149787539D01*
X132993847Y-149764078D01*
X132901806Y-149725953D01*
X132771641Y-149672037D01*
X132571658Y-149538413D01*
X132401587Y-149368342D01*
X132267963Y-149168359D01*
X132175922Y-148946152D01*
X132129000Y-148710259D01*
X132129000Y-148469741D01*
X132175922Y-148233848D01*
X132267963Y-148011641D01*
X132401587Y-147811658D01*
X132571658Y-147641587D01*
X132771641Y-147507963D01*
X132901806Y-147454047D01*
X132993847Y-147415922D01*
X133229741Y-147369000D01*
X133470259Y-147369000D01*
X133706153Y-147415922D01*
X133706153Y-147415922D01*
G37*
G36*
X138706153Y-147415922D02*
G01*
X138798194Y-147454047D01*
X138928359Y-147507963D01*
X139128342Y-147641587D01*
X139298413Y-147811658D01*
X139432037Y-148011641D01*
X139524078Y-148233848D01*
X139571000Y-148469741D01*
X139571000Y-148710259D01*
X139524078Y-148946152D01*
X139432037Y-149168359D01*
X139298413Y-149368342D01*
X139128342Y-149538413D01*
X138928359Y-149672037D01*
X138798194Y-149725953D01*
X138706153Y-149764078D01*
X138588205Y-149787539D01*
X138470259Y-149811000D01*
X138229741Y-149811000D01*
X138111795Y-149787539D01*
X137993847Y-149764078D01*
X137901806Y-149725953D01*
X137771641Y-149672037D01*
X137571658Y-149538413D01*
X137401587Y-149368342D01*
X137267963Y-149168359D01*
X137175922Y-148946152D01*
X137129000Y-148710259D01*
X137129000Y-148469741D01*
X137175922Y-148233848D01*
X137267963Y-148011641D01*
X137401587Y-147811658D01*
X137571658Y-147641587D01*
X137771641Y-147507963D01*
X137901806Y-147454047D01*
X137993847Y-147415922D01*
X138229741Y-147369000D01*
X138470259Y-147369000D01*
X138706153Y-147415922D01*
X138706153Y-147415922D01*
G37*
G36*
X143706153Y-147415922D02*
G01*
X143798194Y-147454047D01*
X143928359Y-147507963D01*
X144128342Y-147641587D01*
X144298413Y-147811658D01*
X144432037Y-148011641D01*
X144524078Y-148233848D01*
X144571000Y-148469741D01*
X144571000Y-148710259D01*
X144524078Y-148946152D01*
X144432037Y-149168359D01*
X144298413Y-149368342D01*
X144128342Y-149538413D01*
X143928359Y-149672037D01*
X143798194Y-149725953D01*
X143706153Y-149764078D01*
X143588205Y-149787539D01*
X143470259Y-149811000D01*
X143229741Y-149811000D01*
X143111795Y-149787539D01*
X142993847Y-149764078D01*
X142901806Y-149725953D01*
X142771641Y-149672037D01*
X142571658Y-149538413D01*
X142401587Y-149368342D01*
X142267963Y-149168359D01*
X142175922Y-148946152D01*
X142129000Y-148710259D01*
X142129000Y-148469741D01*
X142175922Y-148233848D01*
X142267963Y-148011641D01*
X142401587Y-147811658D01*
X142571658Y-147641587D01*
X142771641Y-147507963D01*
X142901806Y-147454047D01*
X142993847Y-147415922D01*
X143229741Y-147369000D01*
X143470259Y-147369000D01*
X143706153Y-147415922D01*
X143706153Y-147415922D01*
G37*
G36*
X115926153Y-147415922D02*
G01*
X116018194Y-147454047D01*
X116148359Y-147507963D01*
X116348342Y-147641587D01*
X116518413Y-147811658D01*
X116652037Y-148011641D01*
X116744078Y-148233848D01*
X116791000Y-148469741D01*
X116791000Y-148710259D01*
X116744078Y-148946152D01*
X116652037Y-149168359D01*
X116518413Y-149368342D01*
X116348342Y-149538413D01*
X116148359Y-149672037D01*
X116018194Y-149725953D01*
X115926153Y-149764078D01*
X115808205Y-149787539D01*
X115690259Y-149811000D01*
X115449741Y-149811000D01*
X115331795Y-149787539D01*
X115213847Y-149764078D01*
X115121806Y-149725953D01*
X114991641Y-149672037D01*
X114791658Y-149538413D01*
X114621587Y-149368342D01*
X114487963Y-149168359D01*
X114395922Y-148946152D01*
X114349000Y-148710259D01*
X114349000Y-148469741D01*
X114395922Y-148233848D01*
X114487963Y-148011641D01*
X114621587Y-147811658D01*
X114791658Y-147641587D01*
X114991641Y-147507963D01*
X115121806Y-147454047D01*
X115213847Y-147415922D01*
X115449741Y-147369000D01*
X115690259Y-147369000D01*
X115926153Y-147415922D01*
X115926153Y-147415922D01*
G37*
G36*
X120926153Y-147415922D02*
G01*
X121018194Y-147454047D01*
X121148359Y-147507963D01*
X121348342Y-147641587D01*
X121518413Y-147811658D01*
X121652037Y-148011641D01*
X121744078Y-148233848D01*
X121791000Y-148469741D01*
X121791000Y-148710259D01*
X121744078Y-148946152D01*
X121652037Y-149168359D01*
X121518413Y-149368342D01*
X121348342Y-149538413D01*
X121148359Y-149672037D01*
X121018194Y-149725953D01*
X120926153Y-149764078D01*
X120808205Y-149787539D01*
X120690259Y-149811000D01*
X120449741Y-149811000D01*
X120331795Y-149787539D01*
X120213847Y-149764078D01*
X120121806Y-149725953D01*
X119991641Y-149672037D01*
X119791658Y-149538413D01*
X119621587Y-149368342D01*
X119487963Y-149168359D01*
X119395922Y-148946152D01*
X119349000Y-148710259D01*
X119349000Y-148469741D01*
X119395922Y-148233848D01*
X119487963Y-148011641D01*
X119621587Y-147811658D01*
X119791658Y-147641587D01*
X119991641Y-147507963D01*
X120121806Y-147454047D01*
X120213847Y-147415922D01*
X120449741Y-147369000D01*
X120690259Y-147369000D01*
X120926153Y-147415922D01*
X120926153Y-147415922D01*
G37*
G36*
X125926153Y-147415922D02*
G01*
X126018194Y-147454047D01*
X126148359Y-147507963D01*
X126348342Y-147641587D01*
X126518413Y-147811658D01*
X126652037Y-148011641D01*
X126744078Y-148233848D01*
X126791000Y-148469741D01*
X126791000Y-148710259D01*
X126744078Y-148946152D01*
X126652037Y-149168359D01*
X126518413Y-149368342D01*
X126348342Y-149538413D01*
X126148359Y-149672037D01*
X126018194Y-149725953D01*
X125926153Y-149764078D01*
X125808205Y-149787539D01*
X125690259Y-149811000D01*
X125449741Y-149811000D01*
X125331795Y-149787539D01*
X125213847Y-149764078D01*
X125121806Y-149725953D01*
X124991641Y-149672037D01*
X124791658Y-149538413D01*
X124621587Y-149368342D01*
X124487963Y-149168359D01*
X124395922Y-148946152D01*
X124349000Y-148710259D01*
X124349000Y-148469741D01*
X124395922Y-148233848D01*
X124487963Y-148011641D01*
X124621587Y-147811658D01*
X124791658Y-147641587D01*
X124991641Y-147507963D01*
X125121806Y-147454047D01*
X125213847Y-147415922D01*
X125449741Y-147369000D01*
X125690259Y-147369000D01*
X125926153Y-147415922D01*
X125926153Y-147415922D01*
G37*
G36*
X80366153Y-147415922D02*
G01*
X80458194Y-147454047D01*
X80588359Y-147507963D01*
X80788342Y-147641587D01*
X80958413Y-147811658D01*
X81092037Y-148011641D01*
X81184078Y-148233848D01*
X81231000Y-148469741D01*
X81231000Y-148710259D01*
X81184078Y-148946152D01*
X81092037Y-149168359D01*
X80958413Y-149368342D01*
X80788342Y-149538413D01*
X80588359Y-149672037D01*
X80458194Y-149725953D01*
X80366153Y-149764078D01*
X80248205Y-149787539D01*
X80130259Y-149811000D01*
X79889741Y-149811000D01*
X79771795Y-149787539D01*
X79653847Y-149764078D01*
X79561806Y-149725953D01*
X79431641Y-149672037D01*
X79231658Y-149538413D01*
X79061587Y-149368342D01*
X78927963Y-149168359D01*
X78835922Y-148946152D01*
X78789000Y-148710259D01*
X78789000Y-148469741D01*
X78835922Y-148233848D01*
X78927963Y-148011641D01*
X79061587Y-147811658D01*
X79231658Y-147641587D01*
X79431641Y-147507963D01*
X79561806Y-147454047D01*
X79653847Y-147415922D01*
X79889741Y-147369000D01*
X80130259Y-147369000D01*
X80366153Y-147415922D01*
X80366153Y-147415922D01*
G37*
G36*
X156486153Y-147415922D02*
G01*
X156578194Y-147454047D01*
X156708359Y-147507963D01*
X156908342Y-147641587D01*
X157078413Y-147811658D01*
X157212037Y-148011641D01*
X157304078Y-148233848D01*
X157351000Y-148469741D01*
X157351000Y-148710259D01*
X157304078Y-148946152D01*
X157212037Y-149168359D01*
X157078413Y-149368342D01*
X156908342Y-149538413D01*
X156708359Y-149672037D01*
X156578194Y-149725953D01*
X156486153Y-149764078D01*
X156368205Y-149787539D01*
X156250259Y-149811000D01*
X156009741Y-149811000D01*
X155891795Y-149787539D01*
X155773847Y-149764078D01*
X155681806Y-149725953D01*
X155551641Y-149672037D01*
X155351658Y-149538413D01*
X155181587Y-149368342D01*
X155047963Y-149168359D01*
X154955922Y-148946152D01*
X154909000Y-148710259D01*
X154909000Y-148469741D01*
X154955922Y-148233848D01*
X155047963Y-148011641D01*
X155181587Y-147811658D01*
X155351658Y-147641587D01*
X155551641Y-147507963D01*
X155681806Y-147454047D01*
X155773847Y-147415922D01*
X156009741Y-147369000D01*
X156250259Y-147369000D01*
X156486153Y-147415922D01*
X156486153Y-147415922D01*
G37*
G36*
X62586153Y-147415922D02*
G01*
X62678194Y-147454047D01*
X62808359Y-147507963D01*
X63008342Y-147641587D01*
X63178413Y-147811658D01*
X63312037Y-148011641D01*
X63404078Y-148233848D01*
X63451000Y-148469741D01*
X63451000Y-148710259D01*
X63404078Y-148946152D01*
X63312037Y-149168359D01*
X63178413Y-149368342D01*
X63008342Y-149538413D01*
X62808359Y-149672037D01*
X62678194Y-149725953D01*
X62586153Y-149764078D01*
X62468205Y-149787539D01*
X62350259Y-149811000D01*
X62109741Y-149811000D01*
X61991795Y-149787539D01*
X61873847Y-149764078D01*
X61781806Y-149725953D01*
X61651641Y-149672037D01*
X61451658Y-149538413D01*
X61281587Y-149368342D01*
X61147963Y-149168359D01*
X61055922Y-148946152D01*
X61009000Y-148710259D01*
X61009000Y-148469741D01*
X61055922Y-148233848D01*
X61147963Y-148011641D01*
X61281587Y-147811658D01*
X61451658Y-147641587D01*
X61651641Y-147507963D01*
X61781806Y-147454047D01*
X61873847Y-147415922D01*
X62109741Y-147369000D01*
X62350259Y-147369000D01*
X62586153Y-147415922D01*
X62586153Y-147415922D01*
G37*
G36*
X67586153Y-147415922D02*
G01*
X67678194Y-147454047D01*
X67808359Y-147507963D01*
X68008342Y-147641587D01*
X68178413Y-147811658D01*
X68312037Y-148011641D01*
X68404078Y-148233848D01*
X68451000Y-148469741D01*
X68451000Y-148710259D01*
X68404078Y-148946152D01*
X68312037Y-149168359D01*
X68178413Y-149368342D01*
X68008342Y-149538413D01*
X67808359Y-149672037D01*
X67678194Y-149725953D01*
X67586153Y-149764078D01*
X67468205Y-149787539D01*
X67350259Y-149811000D01*
X67109741Y-149811000D01*
X66991795Y-149787539D01*
X66873847Y-149764078D01*
X66781806Y-149725953D01*
X66651641Y-149672037D01*
X66451658Y-149538413D01*
X66281587Y-149368342D01*
X66147963Y-149168359D01*
X66055922Y-148946152D01*
X66009000Y-148710259D01*
X66009000Y-148469741D01*
X66055922Y-148233848D01*
X66147963Y-148011641D01*
X66281587Y-147811658D01*
X66451658Y-147641587D01*
X66651641Y-147507963D01*
X66781806Y-147454047D01*
X66873847Y-147415922D01*
X67109741Y-147369000D01*
X67350259Y-147369000D01*
X67586153Y-147415922D01*
X67586153Y-147415922D01*
G37*
G36*
X72586153Y-147415922D02*
G01*
X72678194Y-147454047D01*
X72808359Y-147507963D01*
X73008342Y-147641587D01*
X73178413Y-147811658D01*
X73312037Y-148011641D01*
X73404078Y-148233848D01*
X73451000Y-148469741D01*
X73451000Y-148710259D01*
X73404078Y-148946152D01*
X73312037Y-149168359D01*
X73178413Y-149368342D01*
X73008342Y-149538413D01*
X72808359Y-149672037D01*
X72678194Y-149725953D01*
X72586153Y-149764078D01*
X72468205Y-149787539D01*
X72350259Y-149811000D01*
X72109741Y-149811000D01*
X71991795Y-149787539D01*
X71873847Y-149764078D01*
X71781806Y-149725953D01*
X71651641Y-149672037D01*
X71451658Y-149538413D01*
X71281587Y-149368342D01*
X71147963Y-149168359D01*
X71055922Y-148946152D01*
X71009000Y-148710259D01*
X71009000Y-148469741D01*
X71055922Y-148233848D01*
X71147963Y-148011641D01*
X71281587Y-147811658D01*
X71451658Y-147641587D01*
X71651641Y-147507963D01*
X71781806Y-147454047D01*
X71873847Y-147415922D01*
X72109741Y-147369000D01*
X72350259Y-147369000D01*
X72586153Y-147415922D01*
X72586153Y-147415922D01*
G37*
G36*
X44806153Y-147415922D02*
G01*
X44898194Y-147454047D01*
X45028359Y-147507963D01*
X45228342Y-147641587D01*
X45398413Y-147811658D01*
X45532037Y-148011641D01*
X45624078Y-148233848D01*
X45671000Y-148469741D01*
X45671000Y-148710259D01*
X45624078Y-148946152D01*
X45532037Y-149168359D01*
X45398413Y-149368342D01*
X45228342Y-149538413D01*
X45028359Y-149672037D01*
X44898194Y-149725953D01*
X44806153Y-149764078D01*
X44688205Y-149787539D01*
X44570259Y-149811000D01*
X44329741Y-149811000D01*
X44211795Y-149787539D01*
X44093847Y-149764078D01*
X44001806Y-149725953D01*
X43871641Y-149672037D01*
X43671658Y-149538413D01*
X43501587Y-149368342D01*
X43367963Y-149168359D01*
X43275922Y-148946152D01*
X43229000Y-148710259D01*
X43229000Y-148469741D01*
X43275922Y-148233848D01*
X43367963Y-148011641D01*
X43501587Y-147811658D01*
X43671658Y-147641587D01*
X43871641Y-147507963D01*
X44001806Y-147454047D01*
X44093847Y-147415922D01*
X44329741Y-147369000D01*
X44570259Y-147369000D01*
X44806153Y-147415922D01*
X44806153Y-147415922D01*
G37*
G36*
X49806153Y-147415922D02*
G01*
X49898194Y-147454047D01*
X50028359Y-147507963D01*
X50228342Y-147641587D01*
X50398413Y-147811658D01*
X50532037Y-148011641D01*
X50624078Y-148233848D01*
X50671000Y-148469741D01*
X50671000Y-148710259D01*
X50624078Y-148946152D01*
X50532037Y-149168359D01*
X50398413Y-149368342D01*
X50228342Y-149538413D01*
X50028359Y-149672037D01*
X49898194Y-149725953D01*
X49806153Y-149764078D01*
X49688205Y-149787539D01*
X49570259Y-149811000D01*
X49329741Y-149811000D01*
X49211795Y-149787539D01*
X49093847Y-149764078D01*
X49001806Y-149725953D01*
X48871641Y-149672037D01*
X48671658Y-149538413D01*
X48501587Y-149368342D01*
X48367963Y-149168359D01*
X48275922Y-148946152D01*
X48229000Y-148710259D01*
X48229000Y-148469741D01*
X48275922Y-148233848D01*
X48367963Y-148011641D01*
X48501587Y-147811658D01*
X48671658Y-147641587D01*
X48871641Y-147507963D01*
X49001806Y-147454047D01*
X49093847Y-147415922D01*
X49329741Y-147369000D01*
X49570259Y-147369000D01*
X49806153Y-147415922D01*
X49806153Y-147415922D01*
G37*
G36*
X54806153Y-147415922D02*
G01*
X54898194Y-147454047D01*
X55028359Y-147507963D01*
X55228342Y-147641587D01*
X55398413Y-147811658D01*
X55532037Y-148011641D01*
X55624078Y-148233848D01*
X55671000Y-148469741D01*
X55671000Y-148710259D01*
X55624078Y-148946152D01*
X55532037Y-149168359D01*
X55398413Y-149368342D01*
X55228342Y-149538413D01*
X55028359Y-149672037D01*
X54898194Y-149725953D01*
X54806153Y-149764078D01*
X54688205Y-149787539D01*
X54570259Y-149811000D01*
X54329741Y-149811000D01*
X54211795Y-149787539D01*
X54093847Y-149764078D01*
X54001806Y-149725953D01*
X53871641Y-149672037D01*
X53671658Y-149538413D01*
X53501587Y-149368342D01*
X53367963Y-149168359D01*
X53275922Y-148946152D01*
X53229000Y-148710259D01*
X53229000Y-148469741D01*
X53275922Y-148233848D01*
X53367963Y-148011641D01*
X53501587Y-147811658D01*
X53671658Y-147641587D01*
X53871641Y-147507963D01*
X54001806Y-147454047D01*
X54093847Y-147415922D01*
X54329741Y-147369000D01*
X54570259Y-147369000D01*
X54806153Y-147415922D01*
X54806153Y-147415922D01*
G37*
G36*
X98146153Y-147415922D02*
G01*
X98238194Y-147454047D01*
X98368359Y-147507963D01*
X98568342Y-147641587D01*
X98738413Y-147811658D01*
X98872037Y-148011641D01*
X98964078Y-148233848D01*
X99011000Y-148469741D01*
X99011000Y-148710259D01*
X98964078Y-148946152D01*
X98872037Y-149168359D01*
X98738413Y-149368342D01*
X98568342Y-149538413D01*
X98368359Y-149672037D01*
X98238194Y-149725953D01*
X98146153Y-149764078D01*
X98028205Y-149787539D01*
X97910259Y-149811000D01*
X97669741Y-149811000D01*
X97551795Y-149787539D01*
X97433847Y-149764078D01*
X97341806Y-149725953D01*
X97211641Y-149672037D01*
X97011658Y-149538413D01*
X96841587Y-149368342D01*
X96707963Y-149168359D01*
X96615922Y-148946152D01*
X96569000Y-148710259D01*
X96569000Y-148469741D01*
X96615922Y-148233848D01*
X96707963Y-148011641D01*
X96841587Y-147811658D01*
X97011658Y-147641587D01*
X97211641Y-147507963D01*
X97341806Y-147454047D01*
X97433847Y-147415922D01*
X97669741Y-147369000D01*
X97910259Y-147369000D01*
X98146153Y-147415922D01*
X98146153Y-147415922D01*
G37*
G36*
X103146153Y-147415922D02*
G01*
X103238194Y-147454047D01*
X103368359Y-147507963D01*
X103568342Y-147641587D01*
X103738413Y-147811658D01*
X103872037Y-148011641D01*
X103964078Y-148233848D01*
X104011000Y-148469741D01*
X104011000Y-148710259D01*
X103964078Y-148946152D01*
X103872037Y-149168359D01*
X103738413Y-149368342D01*
X103568342Y-149538413D01*
X103368359Y-149672037D01*
X103238194Y-149725953D01*
X103146153Y-149764078D01*
X103028205Y-149787539D01*
X102910259Y-149811000D01*
X102669741Y-149811000D01*
X102551795Y-149787539D01*
X102433847Y-149764078D01*
X102341806Y-149725953D01*
X102211641Y-149672037D01*
X102011658Y-149538413D01*
X101841587Y-149368342D01*
X101707963Y-149168359D01*
X101615922Y-148946152D01*
X101569000Y-148710259D01*
X101569000Y-148469741D01*
X101615922Y-148233848D01*
X101707963Y-148011641D01*
X101841587Y-147811658D01*
X102011658Y-147641587D01*
X102211641Y-147507963D01*
X102341806Y-147454047D01*
X102433847Y-147415922D01*
X102669741Y-147369000D01*
X102910259Y-147369000D01*
X103146153Y-147415922D01*
X103146153Y-147415922D01*
G37*
G36*
X108146153Y-147415922D02*
G01*
X108238194Y-147454047D01*
X108368359Y-147507963D01*
X108568342Y-147641587D01*
X108738413Y-147811658D01*
X108872037Y-148011641D01*
X108964078Y-148233848D01*
X109011000Y-148469741D01*
X109011000Y-148710259D01*
X108964078Y-148946152D01*
X108872037Y-149168359D01*
X108738413Y-149368342D01*
X108568342Y-149538413D01*
X108368359Y-149672037D01*
X108238194Y-149725953D01*
X108146153Y-149764078D01*
X108028205Y-149787539D01*
X107910259Y-149811000D01*
X107669741Y-149811000D01*
X107551795Y-149787539D01*
X107433847Y-149764078D01*
X107341806Y-149725953D01*
X107211641Y-149672037D01*
X107011658Y-149538413D01*
X106841587Y-149368342D01*
X106707963Y-149168359D01*
X106615922Y-148946152D01*
X106569000Y-148710259D01*
X106569000Y-148469741D01*
X106615922Y-148233848D01*
X106707963Y-148011641D01*
X106841587Y-147811658D01*
X107011658Y-147641587D01*
X107211641Y-147507963D01*
X107341806Y-147454047D01*
X107433847Y-147415922D01*
X107669741Y-147369000D01*
X107910259Y-147369000D01*
X108146153Y-147415922D01*
X108146153Y-147415922D01*
G37*
G36*
X90366153Y-147415922D02*
G01*
X90458194Y-147454047D01*
X90588359Y-147507963D01*
X90788342Y-147641587D01*
X90958413Y-147811658D01*
X91092037Y-148011641D01*
X91184078Y-148233848D01*
X91231000Y-148469741D01*
X91231000Y-148710259D01*
X91184078Y-148946152D01*
X91092037Y-149168359D01*
X90958413Y-149368342D01*
X90788342Y-149538413D01*
X90588359Y-149672037D01*
X90458194Y-149725953D01*
X90366153Y-149764078D01*
X90248205Y-149787539D01*
X90130259Y-149811000D01*
X89889741Y-149811000D01*
X89771795Y-149787539D01*
X89653847Y-149764078D01*
X89561806Y-149725953D01*
X89431641Y-149672037D01*
X89231658Y-149538413D01*
X89061587Y-149368342D01*
X88927963Y-149168359D01*
X88835922Y-148946152D01*
X88789000Y-148710259D01*
X88789000Y-148469741D01*
X88835922Y-148233848D01*
X88927963Y-148011641D01*
X89061587Y-147811658D01*
X89231658Y-147641587D01*
X89431641Y-147507963D01*
X89561806Y-147454047D01*
X89653847Y-147415922D01*
X89889741Y-147369000D01*
X90130259Y-147369000D01*
X90366153Y-147415922D01*
X90366153Y-147415922D01*
G37*
G36*
X90418228Y-138881703D02*
G01*
X90573100Y-138945853D01*
X90712481Y-139038985D01*
X90831015Y-139157519D01*
X90924147Y-139296900D01*
X90988297Y-139451772D01*
X91021000Y-139616184D01*
X91021000Y-139783816D01*
X90988297Y-139948228D01*
X90924147Y-140103100D01*
X90831015Y-140242481D01*
X90712481Y-140361015D01*
X90573100Y-140454147D01*
X90418228Y-140518297D01*
X90253816Y-140551000D01*
X90086184Y-140551000D01*
X89921772Y-140518297D01*
X89766900Y-140454147D01*
X89627519Y-140361015D01*
X89508985Y-140242481D01*
X89415853Y-140103100D01*
X89351703Y-139948228D01*
X89319000Y-139783816D01*
X89319000Y-139616184D01*
X89351703Y-139451772D01*
X89415853Y-139296900D01*
X89508985Y-139157519D01*
X89627519Y-139038985D01*
X89766900Y-138945853D01*
X89921772Y-138881703D01*
X90086184Y-138849000D01*
X90253816Y-138849000D01*
X90418228Y-138881703D01*
X90418228Y-138881703D01*
G37*
G36*
X131058228Y-138881703D02*
G01*
X131213100Y-138945853D01*
X131352481Y-139038985D01*
X131471015Y-139157519D01*
X131564147Y-139296900D01*
X131628297Y-139451772D01*
X131661000Y-139616184D01*
X131661000Y-139783816D01*
X131628297Y-139948228D01*
X131564147Y-140103100D01*
X131471015Y-140242481D01*
X131352481Y-140361015D01*
X131213100Y-140454147D01*
X131058228Y-140518297D01*
X130893816Y-140551000D01*
X130726184Y-140551000D01*
X130561772Y-140518297D01*
X130406900Y-140454147D01*
X130267519Y-140361015D01*
X130148985Y-140242481D01*
X130055853Y-140103100D01*
X129991703Y-139948228D01*
X129959000Y-139783816D01*
X129959000Y-139616184D01*
X129991703Y-139451772D01*
X130055853Y-139296900D01*
X130148985Y-139157519D01*
X130267519Y-139038985D01*
X130406900Y-138945853D01*
X130561772Y-138881703D01*
X130726184Y-138849000D01*
X130893816Y-138849000D01*
X131058228Y-138881703D01*
X131058228Y-138881703D01*
G37*
G36*
X100578228Y-138881703D02*
G01*
X100733100Y-138945853D01*
X100872481Y-139038985D01*
X100991015Y-139157519D01*
X101084147Y-139296900D01*
X101148297Y-139451772D01*
X101181000Y-139616184D01*
X101181000Y-139783816D01*
X101148297Y-139948228D01*
X101084147Y-140103100D01*
X100991015Y-140242481D01*
X100872481Y-140361015D01*
X100733100Y-140454147D01*
X100578228Y-140518297D01*
X100413816Y-140551000D01*
X100246184Y-140551000D01*
X100081772Y-140518297D01*
X99926900Y-140454147D01*
X99787519Y-140361015D01*
X99668985Y-140242481D01*
X99575853Y-140103100D01*
X99511703Y-139948228D01*
X99479000Y-139783816D01*
X99479000Y-139616184D01*
X99511703Y-139451772D01*
X99575853Y-139296900D01*
X99668985Y-139157519D01*
X99787519Y-139038985D01*
X99926900Y-138945853D01*
X100081772Y-138881703D01*
X100246184Y-138849000D01*
X100413816Y-138849000D01*
X100578228Y-138881703D01*
X100578228Y-138881703D01*
G37*
G36*
X125978228Y-138881703D02*
G01*
X126133100Y-138945853D01*
X126272481Y-139038985D01*
X126391015Y-139157519D01*
X126484147Y-139296900D01*
X126548297Y-139451772D01*
X126581000Y-139616184D01*
X126581000Y-139783816D01*
X126548297Y-139948228D01*
X126484147Y-140103100D01*
X126391015Y-140242481D01*
X126272481Y-140361015D01*
X126133100Y-140454147D01*
X125978228Y-140518297D01*
X125813816Y-140551000D01*
X125646184Y-140551000D01*
X125481772Y-140518297D01*
X125326900Y-140454147D01*
X125187519Y-140361015D01*
X125068985Y-140242481D01*
X124975853Y-140103100D01*
X124911703Y-139948228D01*
X124879000Y-139783816D01*
X124879000Y-139616184D01*
X124911703Y-139451772D01*
X124975853Y-139296900D01*
X125068985Y-139157519D01*
X125187519Y-139038985D01*
X125326900Y-138945853D01*
X125481772Y-138881703D01*
X125646184Y-138849000D01*
X125813816Y-138849000D01*
X125978228Y-138881703D01*
X125978228Y-138881703D01*
G37*
G36*
X141218228Y-138881703D02*
G01*
X141373100Y-138945853D01*
X141512481Y-139038985D01*
X141631015Y-139157519D01*
X141724147Y-139296900D01*
X141788297Y-139451772D01*
X141821000Y-139616184D01*
X141821000Y-139783816D01*
X141788297Y-139948228D01*
X141724147Y-140103100D01*
X141631015Y-140242481D01*
X141512481Y-140361015D01*
X141373100Y-140454147D01*
X141218228Y-140518297D01*
X141053816Y-140551000D01*
X140886184Y-140551000D01*
X140721772Y-140518297D01*
X140566900Y-140454147D01*
X140427519Y-140361015D01*
X140308985Y-140242481D01*
X140215853Y-140103100D01*
X140151703Y-139948228D01*
X140119000Y-139783816D01*
X140119000Y-139616184D01*
X140151703Y-139451772D01*
X140215853Y-139296900D01*
X140308985Y-139157519D01*
X140427519Y-139038985D01*
X140566900Y-138945853D01*
X140721772Y-138881703D01*
X140886184Y-138849000D01*
X141053816Y-138849000D01*
X141218228Y-138881703D01*
X141218228Y-138881703D01*
G37*
G36*
X136138228Y-138881703D02*
G01*
X136293100Y-138945853D01*
X136432481Y-139038985D01*
X136551015Y-139157519D01*
X136644147Y-139296900D01*
X136708297Y-139451772D01*
X136741000Y-139616184D01*
X136741000Y-139783816D01*
X136708297Y-139948228D01*
X136644147Y-140103100D01*
X136551015Y-140242481D01*
X136432481Y-140361015D01*
X136293100Y-140454147D01*
X136138228Y-140518297D01*
X135973816Y-140551000D01*
X135806184Y-140551000D01*
X135641772Y-140518297D01*
X135486900Y-140454147D01*
X135347519Y-140361015D01*
X135228985Y-140242481D01*
X135135853Y-140103100D01*
X135071703Y-139948228D01*
X135039000Y-139783816D01*
X135039000Y-139616184D01*
X135071703Y-139451772D01*
X135135853Y-139296900D01*
X135228985Y-139157519D01*
X135347519Y-139038985D01*
X135486900Y-138945853D01*
X135641772Y-138881703D01*
X135806184Y-138849000D01*
X135973816Y-138849000D01*
X136138228Y-138881703D01*
X136138228Y-138881703D01*
G37*
G36*
X59938228Y-138881703D02*
G01*
X60093100Y-138945853D01*
X60232481Y-139038985D01*
X60351015Y-139157519D01*
X60444147Y-139296900D01*
X60508297Y-139451772D01*
X60541000Y-139616184D01*
X60541000Y-139783816D01*
X60508297Y-139948228D01*
X60444147Y-140103100D01*
X60351015Y-140242481D01*
X60232481Y-140361015D01*
X60093100Y-140454147D01*
X59938228Y-140518297D01*
X59773816Y-140551000D01*
X59606184Y-140551000D01*
X59441772Y-140518297D01*
X59286900Y-140454147D01*
X59147519Y-140361015D01*
X59028985Y-140242481D01*
X58935853Y-140103100D01*
X58871703Y-139948228D01*
X58839000Y-139783816D01*
X58839000Y-139616184D01*
X58871703Y-139451772D01*
X58935853Y-139296900D01*
X59028985Y-139157519D01*
X59147519Y-139038985D01*
X59286900Y-138945853D01*
X59441772Y-138881703D01*
X59606184Y-138849000D01*
X59773816Y-138849000D01*
X59938228Y-138881703D01*
X59938228Y-138881703D01*
G37*
G36*
X95498228Y-138881703D02*
G01*
X95653100Y-138945853D01*
X95792481Y-139038985D01*
X95911015Y-139157519D01*
X96004147Y-139296900D01*
X96068297Y-139451772D01*
X96101000Y-139616184D01*
X96101000Y-139783816D01*
X96068297Y-139948228D01*
X96004147Y-140103100D01*
X95911015Y-140242481D01*
X95792481Y-140361015D01*
X95653100Y-140454147D01*
X95498228Y-140518297D01*
X95333816Y-140551000D01*
X95166184Y-140551000D01*
X95001772Y-140518297D01*
X94846900Y-140454147D01*
X94707519Y-140361015D01*
X94588985Y-140242481D01*
X94495853Y-140103100D01*
X94431703Y-139948228D01*
X94399000Y-139783816D01*
X94399000Y-139616184D01*
X94431703Y-139451772D01*
X94495853Y-139296900D01*
X94588985Y-139157519D01*
X94707519Y-139038985D01*
X94846900Y-138945853D01*
X95001772Y-138881703D01*
X95166184Y-138849000D01*
X95333816Y-138849000D01*
X95498228Y-138881703D01*
X95498228Y-138881703D01*
G37*
G36*
X80258228Y-138881703D02*
G01*
X80413100Y-138945853D01*
X80552481Y-139038985D01*
X80671015Y-139157519D01*
X80764147Y-139296900D01*
X80828297Y-139451772D01*
X80861000Y-139616184D01*
X80861000Y-139783816D01*
X80828297Y-139948228D01*
X80764147Y-140103100D01*
X80671015Y-140242481D01*
X80552481Y-140361015D01*
X80413100Y-140454147D01*
X80258228Y-140518297D01*
X80093816Y-140551000D01*
X79926184Y-140551000D01*
X79761772Y-140518297D01*
X79606900Y-140454147D01*
X79467519Y-140361015D01*
X79348985Y-140242481D01*
X79255853Y-140103100D01*
X79191703Y-139948228D01*
X79159000Y-139783816D01*
X79159000Y-139616184D01*
X79191703Y-139451772D01*
X79255853Y-139296900D01*
X79348985Y-139157519D01*
X79467519Y-139038985D01*
X79606900Y-138945853D01*
X79761772Y-138881703D01*
X79926184Y-138849000D01*
X80093816Y-138849000D01*
X80258228Y-138881703D01*
X80258228Y-138881703D01*
G37*
G36*
X70098228Y-138881703D02*
G01*
X70253100Y-138945853D01*
X70392481Y-139038985D01*
X70511015Y-139157519D01*
X70604147Y-139296900D01*
X70668297Y-139451772D01*
X70701000Y-139616184D01*
X70701000Y-139783816D01*
X70668297Y-139948228D01*
X70604147Y-140103100D01*
X70511015Y-140242481D01*
X70392481Y-140361015D01*
X70253100Y-140454147D01*
X70098228Y-140518297D01*
X69933816Y-140551000D01*
X69766184Y-140551000D01*
X69601772Y-140518297D01*
X69446900Y-140454147D01*
X69307519Y-140361015D01*
X69188985Y-140242481D01*
X69095853Y-140103100D01*
X69031703Y-139948228D01*
X68999000Y-139783816D01*
X68999000Y-139616184D01*
X69031703Y-139451772D01*
X69095853Y-139296900D01*
X69188985Y-139157519D01*
X69307519Y-139038985D01*
X69446900Y-138945853D01*
X69601772Y-138881703D01*
X69766184Y-138849000D01*
X69933816Y-138849000D01*
X70098228Y-138881703D01*
X70098228Y-138881703D01*
G37*
G36*
X146216823Y-138861313D02*
G01*
X146377242Y-138909976D01*
X146444361Y-138945852D01*
X146525078Y-138988996D01*
X146654659Y-139095341D01*
X146761004Y-139224922D01*
X146761005Y-139224924D01*
X146840024Y-139372758D01*
X146888687Y-139533177D01*
X146905117Y-139700000D01*
X146888687Y-139866823D01*
X146840024Y-140027242D01*
X146799477Y-140103100D01*
X146761004Y-140175078D01*
X146654659Y-140304659D01*
X146525078Y-140411004D01*
X146525076Y-140411005D01*
X146377242Y-140490024D01*
X146216823Y-140538687D01*
X146091804Y-140551000D01*
X146008196Y-140551000D01*
X145883177Y-140538687D01*
X145722758Y-140490024D01*
X145574924Y-140411005D01*
X145574922Y-140411004D01*
X145445341Y-140304659D01*
X145338996Y-140175078D01*
X145300523Y-140103100D01*
X145259976Y-140027242D01*
X145211313Y-139866823D01*
X145194883Y-139700000D01*
X145211313Y-139533177D01*
X145259976Y-139372758D01*
X145338995Y-139224924D01*
X145338996Y-139224922D01*
X145445341Y-139095341D01*
X145574922Y-138988996D01*
X145655639Y-138945852D01*
X145722758Y-138909976D01*
X145883177Y-138861313D01*
X146008196Y-138849000D01*
X146091804Y-138849000D01*
X146216823Y-138861313D01*
X146216823Y-138861313D01*
G37*
G36*
X115818228Y-138881703D02*
G01*
X115973100Y-138945853D01*
X116112481Y-139038985D01*
X116231015Y-139157519D01*
X116324147Y-139296900D01*
X116388297Y-139451772D01*
X116421000Y-139616184D01*
X116421000Y-139783816D01*
X116388297Y-139948228D01*
X116324147Y-140103100D01*
X116231015Y-140242481D01*
X116112481Y-140361015D01*
X115973100Y-140454147D01*
X115818228Y-140518297D01*
X115653816Y-140551000D01*
X115486184Y-140551000D01*
X115321772Y-140518297D01*
X115166900Y-140454147D01*
X115027519Y-140361015D01*
X114908985Y-140242481D01*
X114815853Y-140103100D01*
X114751703Y-139948228D01*
X114719000Y-139783816D01*
X114719000Y-139616184D01*
X114751703Y-139451772D01*
X114815853Y-139296900D01*
X114908985Y-139157519D01*
X115027519Y-139038985D01*
X115166900Y-138945853D01*
X115321772Y-138881703D01*
X115486184Y-138849000D01*
X115653816Y-138849000D01*
X115818228Y-138881703D01*
X115818228Y-138881703D01*
G37*
G36*
X105658228Y-138881703D02*
G01*
X105813100Y-138945853D01*
X105952481Y-139038985D01*
X106071015Y-139157519D01*
X106164147Y-139296900D01*
X106228297Y-139451772D01*
X106261000Y-139616184D01*
X106261000Y-139783816D01*
X106228297Y-139948228D01*
X106164147Y-140103100D01*
X106071015Y-140242481D01*
X105952481Y-140361015D01*
X105813100Y-140454147D01*
X105658228Y-140518297D01*
X105493816Y-140551000D01*
X105326184Y-140551000D01*
X105161772Y-140518297D01*
X105006900Y-140454147D01*
X104867519Y-140361015D01*
X104748985Y-140242481D01*
X104655853Y-140103100D01*
X104591703Y-139948228D01*
X104559000Y-139783816D01*
X104559000Y-139616184D01*
X104591703Y-139451772D01*
X104655853Y-139296900D01*
X104748985Y-139157519D01*
X104867519Y-139038985D01*
X105006900Y-138945853D01*
X105161772Y-138881703D01*
X105326184Y-138849000D01*
X105493816Y-138849000D01*
X105658228Y-138881703D01*
X105658228Y-138881703D01*
G37*
G36*
X151378228Y-138881703D02*
G01*
X151533100Y-138945853D01*
X151672481Y-139038985D01*
X151791015Y-139157519D01*
X151884147Y-139296900D01*
X151948297Y-139451772D01*
X151981000Y-139616184D01*
X151981000Y-139783816D01*
X151948297Y-139948228D01*
X151884147Y-140103100D01*
X151791015Y-140242481D01*
X151672481Y-140361015D01*
X151533100Y-140454147D01*
X151378228Y-140518297D01*
X151213816Y-140551000D01*
X151046184Y-140551000D01*
X150881772Y-140518297D01*
X150726900Y-140454147D01*
X150587519Y-140361015D01*
X150468985Y-140242481D01*
X150375853Y-140103100D01*
X150311703Y-139948228D01*
X150279000Y-139783816D01*
X150279000Y-139616184D01*
X150311703Y-139451772D01*
X150375853Y-139296900D01*
X150468985Y-139157519D01*
X150587519Y-139038985D01*
X150726900Y-138945853D01*
X150881772Y-138881703D01*
X151046184Y-138849000D01*
X151213816Y-138849000D01*
X151378228Y-138881703D01*
X151378228Y-138881703D01*
G37*
G36*
X120898228Y-138881703D02*
G01*
X121053100Y-138945853D01*
X121192481Y-139038985D01*
X121311015Y-139157519D01*
X121404147Y-139296900D01*
X121468297Y-139451772D01*
X121501000Y-139616184D01*
X121501000Y-139783816D01*
X121468297Y-139948228D01*
X121404147Y-140103100D01*
X121311015Y-140242481D01*
X121192481Y-140361015D01*
X121053100Y-140454147D01*
X120898228Y-140518297D01*
X120733816Y-140551000D01*
X120566184Y-140551000D01*
X120401772Y-140518297D01*
X120246900Y-140454147D01*
X120107519Y-140361015D01*
X119988985Y-140242481D01*
X119895853Y-140103100D01*
X119831703Y-139948228D01*
X119799000Y-139783816D01*
X119799000Y-139616184D01*
X119831703Y-139451772D01*
X119895853Y-139296900D01*
X119988985Y-139157519D01*
X120107519Y-139038985D01*
X120246900Y-138945853D01*
X120401772Y-138881703D01*
X120566184Y-138849000D01*
X120733816Y-138849000D01*
X120898228Y-138881703D01*
X120898228Y-138881703D01*
G37*
G36*
X110738228Y-138881703D02*
G01*
X110893100Y-138945853D01*
X111032481Y-139038985D01*
X111151015Y-139157519D01*
X111244147Y-139296900D01*
X111308297Y-139451772D01*
X111341000Y-139616184D01*
X111341000Y-139783816D01*
X111308297Y-139948228D01*
X111244147Y-140103100D01*
X111151015Y-140242481D01*
X111032481Y-140361015D01*
X110893100Y-140454147D01*
X110738228Y-140518297D01*
X110573816Y-140551000D01*
X110406184Y-140551000D01*
X110241772Y-140518297D01*
X110086900Y-140454147D01*
X109947519Y-140361015D01*
X109828985Y-140242481D01*
X109735853Y-140103100D01*
X109671703Y-139948228D01*
X109639000Y-139783816D01*
X109639000Y-139616184D01*
X109671703Y-139451772D01*
X109735853Y-139296900D01*
X109828985Y-139157519D01*
X109947519Y-139038985D01*
X110086900Y-138945853D01*
X110241772Y-138881703D01*
X110406184Y-138849000D01*
X110573816Y-138849000D01*
X110738228Y-138881703D01*
X110738228Y-138881703D01*
G37*
G36*
X85338228Y-138881703D02*
G01*
X85493100Y-138945853D01*
X85632481Y-139038985D01*
X85751015Y-139157519D01*
X85844147Y-139296900D01*
X85908297Y-139451772D01*
X85941000Y-139616184D01*
X85941000Y-139783816D01*
X85908297Y-139948228D01*
X85844147Y-140103100D01*
X85751015Y-140242481D01*
X85632481Y-140361015D01*
X85493100Y-140454147D01*
X85338228Y-140518297D01*
X85173816Y-140551000D01*
X85006184Y-140551000D01*
X84841772Y-140518297D01*
X84686900Y-140454147D01*
X84547519Y-140361015D01*
X84428985Y-140242481D01*
X84335853Y-140103100D01*
X84271703Y-139948228D01*
X84239000Y-139783816D01*
X84239000Y-139616184D01*
X84271703Y-139451772D01*
X84335853Y-139296900D01*
X84428985Y-139157519D01*
X84547519Y-139038985D01*
X84686900Y-138945853D01*
X84841772Y-138881703D01*
X85006184Y-138849000D01*
X85173816Y-138849000D01*
X85338228Y-138881703D01*
X85338228Y-138881703D01*
G37*
G36*
X75178228Y-138881703D02*
G01*
X75333100Y-138945853D01*
X75472481Y-139038985D01*
X75591015Y-139157519D01*
X75684147Y-139296900D01*
X75748297Y-139451772D01*
X75781000Y-139616184D01*
X75781000Y-139783816D01*
X75748297Y-139948228D01*
X75684147Y-140103100D01*
X75591015Y-140242481D01*
X75472481Y-140361015D01*
X75333100Y-140454147D01*
X75178228Y-140518297D01*
X75013816Y-140551000D01*
X74846184Y-140551000D01*
X74681772Y-140518297D01*
X74526900Y-140454147D01*
X74387519Y-140361015D01*
X74268985Y-140242481D01*
X74175853Y-140103100D01*
X74111703Y-139948228D01*
X74079000Y-139783816D01*
X74079000Y-139616184D01*
X74111703Y-139451772D01*
X74175853Y-139296900D01*
X74268985Y-139157519D01*
X74387519Y-139038985D01*
X74526900Y-138945853D01*
X74681772Y-138881703D01*
X74846184Y-138849000D01*
X75013816Y-138849000D01*
X75178228Y-138881703D01*
X75178228Y-138881703D01*
G37*
G36*
X54858228Y-138881703D02*
G01*
X55013100Y-138945853D01*
X55152481Y-139038985D01*
X55271015Y-139157519D01*
X55364147Y-139296900D01*
X55428297Y-139451772D01*
X55461000Y-139616184D01*
X55461000Y-139783816D01*
X55428297Y-139948228D01*
X55364147Y-140103100D01*
X55271015Y-140242481D01*
X55152481Y-140361015D01*
X55013100Y-140454147D01*
X54858228Y-140518297D01*
X54693816Y-140551000D01*
X54526184Y-140551000D01*
X54361772Y-140518297D01*
X54206900Y-140454147D01*
X54067519Y-140361015D01*
X53948985Y-140242481D01*
X53855853Y-140103100D01*
X53791703Y-139948228D01*
X53759000Y-139783816D01*
X53759000Y-139616184D01*
X53791703Y-139451772D01*
X53855853Y-139296900D01*
X53948985Y-139157519D01*
X54067519Y-139038985D01*
X54206900Y-138945853D01*
X54361772Y-138881703D01*
X54526184Y-138849000D01*
X54693816Y-138849000D01*
X54858228Y-138881703D01*
X54858228Y-138881703D01*
G37*
G36*
X64936823Y-138861313D02*
G01*
X65097242Y-138909976D01*
X65164361Y-138945852D01*
X65245078Y-138988996D01*
X65374659Y-139095341D01*
X65481004Y-139224922D01*
X65481005Y-139224924D01*
X65560024Y-139372758D01*
X65608687Y-139533177D01*
X65625117Y-139700000D01*
X65608687Y-139866823D01*
X65560024Y-140027242D01*
X65519477Y-140103100D01*
X65481004Y-140175078D01*
X65374659Y-140304659D01*
X65245078Y-140411004D01*
X65245076Y-140411005D01*
X65097242Y-140490024D01*
X64936823Y-140538687D01*
X64811804Y-140551000D01*
X64728196Y-140551000D01*
X64603177Y-140538687D01*
X64442758Y-140490024D01*
X64294924Y-140411005D01*
X64294922Y-140411004D01*
X64165341Y-140304659D01*
X64058996Y-140175078D01*
X64020523Y-140103100D01*
X63979976Y-140027242D01*
X63931313Y-139866823D01*
X63914883Y-139700000D01*
X63931313Y-139533177D01*
X63979976Y-139372758D01*
X64058995Y-139224924D01*
X64058996Y-139224922D01*
X64165341Y-139095341D01*
X64294922Y-138988996D01*
X64375639Y-138945852D01*
X64442758Y-138909976D01*
X64603177Y-138861313D01*
X64728196Y-138849000D01*
X64811804Y-138849000D01*
X64936823Y-138861313D01*
X64936823Y-138861313D01*
G37*
G36*
X160338433Y-136904893D02*
G01*
X160428657Y-136922839D01*
X160534267Y-136966585D01*
X160683621Y-137028449D01*
X160683622Y-137028450D01*
X160913086Y-137181772D01*
X161108228Y-137376914D01*
X161210675Y-137530237D01*
X161261551Y-137606379D01*
X161367161Y-137861344D01*
X161421000Y-138132012D01*
X161421000Y-138407988D01*
X161367161Y-138678656D01*
X161261551Y-138933621D01*
X161253378Y-138945853D01*
X161108228Y-139163086D01*
X160913086Y-139358228D01*
X160773088Y-139451771D01*
X160683621Y-139511551D01*
X160534267Y-139573415D01*
X160428657Y-139617161D01*
X160338433Y-139635107D01*
X160157988Y-139671000D01*
X159882012Y-139671000D01*
X159701567Y-139635107D01*
X159611343Y-139617161D01*
X159505733Y-139573415D01*
X159356379Y-139511551D01*
X159266912Y-139451771D01*
X159126914Y-139358228D01*
X158931772Y-139163086D01*
X158786622Y-138945853D01*
X158778449Y-138933621D01*
X158672839Y-138678656D01*
X158619000Y-138407988D01*
X158619000Y-138132012D01*
X158672839Y-137861344D01*
X158778449Y-137606379D01*
X158829325Y-137530237D01*
X158931772Y-137376914D01*
X159126914Y-137181772D01*
X159356378Y-137028450D01*
X159356379Y-137028449D01*
X159505733Y-136966585D01*
X159611343Y-136922839D01*
X159701567Y-136904893D01*
X159882012Y-136869000D01*
X160157988Y-136869000D01*
X160338433Y-136904893D01*
X160338433Y-136904893D01*
G37*
G36*
X47308433Y-136904893D02*
G01*
X47398657Y-136922839D01*
X47504267Y-136966585D01*
X47653621Y-137028449D01*
X47653622Y-137028450D01*
X47883086Y-137181772D01*
X48078228Y-137376914D01*
X48180675Y-137530237D01*
X48231551Y-137606379D01*
X48337161Y-137861344D01*
X48391000Y-138132012D01*
X48391000Y-138407988D01*
X48337161Y-138678656D01*
X48231551Y-138933621D01*
X48223378Y-138945853D01*
X48078228Y-139163086D01*
X47883086Y-139358228D01*
X47743088Y-139451771D01*
X47653621Y-139511551D01*
X47504267Y-139573415D01*
X47398657Y-139617161D01*
X47308433Y-139635107D01*
X47127988Y-139671000D01*
X46852012Y-139671000D01*
X46671567Y-139635107D01*
X46581343Y-139617161D01*
X46475733Y-139573415D01*
X46326379Y-139511551D01*
X46236912Y-139451771D01*
X46096914Y-139358228D01*
X45901772Y-139163086D01*
X45756622Y-138945853D01*
X45748449Y-138933621D01*
X45642839Y-138678656D01*
X45589000Y-138407988D01*
X45589000Y-138132012D01*
X45642839Y-137861344D01*
X45748449Y-137606379D01*
X45799325Y-137530237D01*
X45901772Y-137376914D01*
X46096914Y-137181772D01*
X46326378Y-137028450D01*
X46326379Y-137028449D01*
X46475733Y-136966585D01*
X46581343Y-136922839D01*
X46671567Y-136904893D01*
X46852012Y-136869000D01*
X47127988Y-136869000D01*
X47308433Y-136904893D01*
X47308433Y-136904893D01*
G37*
G36*
X160338433Y-131904893D02*
G01*
X160428657Y-131922839D01*
X160534267Y-131966585D01*
X160683621Y-132028449D01*
X160683622Y-132028450D01*
X160913086Y-132181772D01*
X161108228Y-132376914D01*
X161128490Y-132407239D01*
X161261551Y-132606379D01*
X161367161Y-132861344D01*
X161421000Y-133132012D01*
X161421000Y-133407988D01*
X161367161Y-133678656D01*
X161261551Y-133933621D01*
X161261550Y-133933622D01*
X161108228Y-134163086D01*
X160913086Y-134358228D01*
X160759763Y-134460675D01*
X160683621Y-134511551D01*
X160534267Y-134573415D01*
X160428657Y-134617161D01*
X160338433Y-134635107D01*
X160157988Y-134671000D01*
X159882012Y-134671000D01*
X159701567Y-134635107D01*
X159611343Y-134617161D01*
X159505733Y-134573415D01*
X159356379Y-134511551D01*
X159280237Y-134460675D01*
X159126914Y-134358228D01*
X158931772Y-134163086D01*
X158778450Y-133933622D01*
X158778449Y-133933621D01*
X158672839Y-133678656D01*
X158619000Y-133407988D01*
X158619000Y-133132012D01*
X158672839Y-132861344D01*
X158778449Y-132606379D01*
X158911510Y-132407239D01*
X158931772Y-132376914D01*
X159126914Y-132181772D01*
X159356378Y-132028450D01*
X159356379Y-132028449D01*
X159505733Y-131966585D01*
X159611343Y-131922839D01*
X159701567Y-131904893D01*
X159882012Y-131869000D01*
X160157988Y-131869000D01*
X160338433Y-131904893D01*
X160338433Y-131904893D01*
G37*
G36*
X47308433Y-131904893D02*
G01*
X47398657Y-131922839D01*
X47504267Y-131966585D01*
X47653621Y-132028449D01*
X47653622Y-132028450D01*
X47883086Y-132181772D01*
X48078228Y-132376914D01*
X48098490Y-132407239D01*
X48231551Y-132606379D01*
X48337161Y-132861344D01*
X48391000Y-133132012D01*
X48391000Y-133407988D01*
X48337161Y-133678656D01*
X48231551Y-133933621D01*
X48231550Y-133933622D01*
X48078228Y-134163086D01*
X47883086Y-134358228D01*
X47729763Y-134460675D01*
X47653621Y-134511551D01*
X47504267Y-134573415D01*
X47398657Y-134617161D01*
X47308433Y-134635107D01*
X47127988Y-134671000D01*
X46852012Y-134671000D01*
X46671567Y-134635107D01*
X46581343Y-134617161D01*
X46475733Y-134573415D01*
X46326379Y-134511551D01*
X46250237Y-134460675D01*
X46096914Y-134358228D01*
X45901772Y-134163086D01*
X45748450Y-133933622D01*
X45748449Y-133933621D01*
X45642839Y-133678656D01*
X45589000Y-133407988D01*
X45589000Y-133132012D01*
X45642839Y-132861344D01*
X45748449Y-132606379D01*
X45881510Y-132407239D01*
X45901772Y-132376914D01*
X46096914Y-132181772D01*
X46326378Y-132028450D01*
X46326379Y-132028449D01*
X46475733Y-131966585D01*
X46581343Y-131922839D01*
X46671567Y-131904893D01*
X46852012Y-131869000D01*
X47127988Y-131869000D01*
X47308433Y-131904893D01*
X47308433Y-131904893D01*
G37*
G36*
X105576823Y-131241313D02*
G01*
X105737242Y-131289976D01*
X105804361Y-131325852D01*
X105885078Y-131368996D01*
X106014659Y-131475341D01*
X106121004Y-131604922D01*
X106121005Y-131604924D01*
X106200024Y-131752758D01*
X106248687Y-131913177D01*
X106265117Y-132080000D01*
X106248687Y-132246823D01*
X106200024Y-132407242D01*
X106159477Y-132483100D01*
X106121004Y-132555078D01*
X106014659Y-132684659D01*
X105885078Y-132791004D01*
X105885076Y-132791005D01*
X105737242Y-132870024D01*
X105576823Y-132918687D01*
X105451804Y-132931000D01*
X105368196Y-132931000D01*
X105243177Y-132918687D01*
X105082758Y-132870024D01*
X104934924Y-132791005D01*
X104934922Y-132791004D01*
X104805341Y-132684659D01*
X104698996Y-132555078D01*
X104660523Y-132483100D01*
X104619976Y-132407242D01*
X104571313Y-132246823D01*
X104554883Y-132080000D01*
X104571313Y-131913177D01*
X104619976Y-131752758D01*
X104698995Y-131604924D01*
X104698996Y-131604922D01*
X104805341Y-131475341D01*
X104934922Y-131368996D01*
X105015639Y-131325852D01*
X105082758Y-131289976D01*
X105243177Y-131241313D01*
X105368196Y-131229000D01*
X105451804Y-131229000D01*
X105576823Y-131241313D01*
X105576823Y-131241313D01*
G37*
G36*
X110656823Y-131241313D02*
G01*
X110817242Y-131289976D01*
X110884361Y-131325852D01*
X110965078Y-131368996D01*
X111094659Y-131475341D01*
X111201004Y-131604922D01*
X111201005Y-131604924D01*
X111280024Y-131752758D01*
X111328687Y-131913177D01*
X111345117Y-132080000D01*
X111328687Y-132246823D01*
X111280024Y-132407242D01*
X111239477Y-132483100D01*
X111201004Y-132555078D01*
X111094659Y-132684659D01*
X110965078Y-132791004D01*
X110965076Y-132791005D01*
X110817242Y-132870024D01*
X110656823Y-132918687D01*
X110531804Y-132931000D01*
X110448196Y-132931000D01*
X110323177Y-132918687D01*
X110162758Y-132870024D01*
X110014924Y-132791005D01*
X110014922Y-132791004D01*
X109885341Y-132684659D01*
X109778996Y-132555078D01*
X109740523Y-132483100D01*
X109699976Y-132407242D01*
X109651313Y-132246823D01*
X109634883Y-132080000D01*
X109651313Y-131913177D01*
X109699976Y-131752758D01*
X109778995Y-131604924D01*
X109778996Y-131604922D01*
X109885341Y-131475341D01*
X110014922Y-131368996D01*
X110095639Y-131325852D01*
X110162758Y-131289976D01*
X110323177Y-131241313D01*
X110448196Y-131229000D01*
X110531804Y-131229000D01*
X110656823Y-131241313D01*
X110656823Y-131241313D01*
G37*
G36*
X90336823Y-131241313D02*
G01*
X90497242Y-131289976D01*
X90564361Y-131325852D01*
X90645078Y-131368996D01*
X90774659Y-131475341D01*
X90881004Y-131604922D01*
X90881005Y-131604924D01*
X90960024Y-131752758D01*
X91008687Y-131913177D01*
X91025117Y-132080000D01*
X91008687Y-132246823D01*
X90960024Y-132407242D01*
X90919477Y-132483100D01*
X90881004Y-132555078D01*
X90774659Y-132684659D01*
X90645078Y-132791004D01*
X90645076Y-132791005D01*
X90497242Y-132870024D01*
X90336823Y-132918687D01*
X90211804Y-132931000D01*
X90128196Y-132931000D01*
X90003177Y-132918687D01*
X89842758Y-132870024D01*
X89694924Y-132791005D01*
X89694922Y-132791004D01*
X89565341Y-132684659D01*
X89458996Y-132555078D01*
X89420523Y-132483100D01*
X89379976Y-132407242D01*
X89331313Y-132246823D01*
X89314883Y-132080000D01*
X89331313Y-131913177D01*
X89379976Y-131752758D01*
X89458995Y-131604924D01*
X89458996Y-131604922D01*
X89565341Y-131475341D01*
X89694922Y-131368996D01*
X89775639Y-131325852D01*
X89842758Y-131289976D01*
X90003177Y-131241313D01*
X90128196Y-131229000D01*
X90211804Y-131229000D01*
X90336823Y-131241313D01*
X90336823Y-131241313D01*
G37*
G36*
X100496823Y-131241313D02*
G01*
X100657242Y-131289976D01*
X100724361Y-131325852D01*
X100805078Y-131368996D01*
X100934659Y-131475341D01*
X101041004Y-131604922D01*
X101041005Y-131604924D01*
X101120024Y-131752758D01*
X101168687Y-131913177D01*
X101185117Y-132080000D01*
X101168687Y-132246823D01*
X101120024Y-132407242D01*
X101079477Y-132483100D01*
X101041004Y-132555078D01*
X100934659Y-132684659D01*
X100805078Y-132791004D01*
X100805076Y-132791005D01*
X100657242Y-132870024D01*
X100496823Y-132918687D01*
X100371804Y-132931000D01*
X100288196Y-132931000D01*
X100163177Y-132918687D01*
X100002758Y-132870024D01*
X99854924Y-132791005D01*
X99854922Y-132791004D01*
X99725341Y-132684659D01*
X99618996Y-132555078D01*
X99580523Y-132483100D01*
X99539976Y-132407242D01*
X99491313Y-132246823D01*
X99474883Y-132080000D01*
X99491313Y-131913177D01*
X99539976Y-131752758D01*
X99618995Y-131604924D01*
X99618996Y-131604922D01*
X99725341Y-131475341D01*
X99854922Y-131368996D01*
X99935639Y-131325852D01*
X100002758Y-131289976D01*
X100163177Y-131241313D01*
X100288196Y-131229000D01*
X100371804Y-131229000D01*
X100496823Y-131241313D01*
X100496823Y-131241313D01*
G37*
G36*
X125896823Y-131241313D02*
G01*
X126057242Y-131289976D01*
X126124361Y-131325852D01*
X126205078Y-131368996D01*
X126334659Y-131475341D01*
X126441004Y-131604922D01*
X126441005Y-131604924D01*
X126520024Y-131752758D01*
X126568687Y-131913177D01*
X126585117Y-132080000D01*
X126568687Y-132246823D01*
X126520024Y-132407242D01*
X126479477Y-132483100D01*
X126441004Y-132555078D01*
X126334659Y-132684659D01*
X126205078Y-132791004D01*
X126205076Y-132791005D01*
X126057242Y-132870024D01*
X125896823Y-132918687D01*
X125771804Y-132931000D01*
X125688196Y-132931000D01*
X125563177Y-132918687D01*
X125402758Y-132870024D01*
X125254924Y-132791005D01*
X125254922Y-132791004D01*
X125125341Y-132684659D01*
X125018996Y-132555078D01*
X124980523Y-132483100D01*
X124939976Y-132407242D01*
X124891313Y-132246823D01*
X124874883Y-132080000D01*
X124891313Y-131913177D01*
X124939976Y-131752758D01*
X125018995Y-131604924D01*
X125018996Y-131604922D01*
X125125341Y-131475341D01*
X125254922Y-131368996D01*
X125335639Y-131325852D01*
X125402758Y-131289976D01*
X125563177Y-131241313D01*
X125688196Y-131229000D01*
X125771804Y-131229000D01*
X125896823Y-131241313D01*
X125896823Y-131241313D01*
G37*
G36*
X136056823Y-131241313D02*
G01*
X136217242Y-131289976D01*
X136284361Y-131325852D01*
X136365078Y-131368996D01*
X136494659Y-131475341D01*
X136601004Y-131604922D01*
X136601005Y-131604924D01*
X136680024Y-131752758D01*
X136728687Y-131913177D01*
X136745117Y-132080000D01*
X136728687Y-132246823D01*
X136680024Y-132407242D01*
X136639477Y-132483100D01*
X136601004Y-132555078D01*
X136494659Y-132684659D01*
X136365078Y-132791004D01*
X136365076Y-132791005D01*
X136217242Y-132870024D01*
X136056823Y-132918687D01*
X135931804Y-132931000D01*
X135848196Y-132931000D01*
X135723177Y-132918687D01*
X135562758Y-132870024D01*
X135414924Y-132791005D01*
X135414922Y-132791004D01*
X135285341Y-132684659D01*
X135178996Y-132555078D01*
X135140523Y-132483100D01*
X135099976Y-132407242D01*
X135051313Y-132246823D01*
X135034883Y-132080000D01*
X135051313Y-131913177D01*
X135099976Y-131752758D01*
X135178995Y-131604924D01*
X135178996Y-131604922D01*
X135285341Y-131475341D01*
X135414922Y-131368996D01*
X135495639Y-131325852D01*
X135562758Y-131289976D01*
X135723177Y-131241313D01*
X135848196Y-131229000D01*
X135931804Y-131229000D01*
X136056823Y-131241313D01*
X136056823Y-131241313D01*
G37*
G36*
X141136823Y-131241313D02*
G01*
X141297242Y-131289976D01*
X141364361Y-131325852D01*
X141445078Y-131368996D01*
X141574659Y-131475341D01*
X141681004Y-131604922D01*
X141681005Y-131604924D01*
X141760024Y-131752758D01*
X141808687Y-131913177D01*
X141825117Y-132080000D01*
X141808687Y-132246823D01*
X141760024Y-132407242D01*
X141719477Y-132483100D01*
X141681004Y-132555078D01*
X141574659Y-132684659D01*
X141445078Y-132791004D01*
X141445076Y-132791005D01*
X141297242Y-132870024D01*
X141136823Y-132918687D01*
X141011804Y-132931000D01*
X140928196Y-132931000D01*
X140803177Y-132918687D01*
X140642758Y-132870024D01*
X140494924Y-132791005D01*
X140494922Y-132791004D01*
X140365341Y-132684659D01*
X140258996Y-132555078D01*
X140220523Y-132483100D01*
X140179976Y-132407242D01*
X140131313Y-132246823D01*
X140114883Y-132080000D01*
X140131313Y-131913177D01*
X140179976Y-131752758D01*
X140258995Y-131604924D01*
X140258996Y-131604922D01*
X140365341Y-131475341D01*
X140494922Y-131368996D01*
X140575639Y-131325852D01*
X140642758Y-131289976D01*
X140803177Y-131241313D01*
X140928196Y-131229000D01*
X141011804Y-131229000D01*
X141136823Y-131241313D01*
X141136823Y-131241313D01*
G37*
G36*
X130976823Y-131241313D02*
G01*
X131137242Y-131289976D01*
X131204361Y-131325852D01*
X131285078Y-131368996D01*
X131414659Y-131475341D01*
X131521004Y-131604922D01*
X131521005Y-131604924D01*
X131600024Y-131752758D01*
X131648687Y-131913177D01*
X131665117Y-132080000D01*
X131648687Y-132246823D01*
X131600024Y-132407242D01*
X131559477Y-132483100D01*
X131521004Y-132555078D01*
X131414659Y-132684659D01*
X131285078Y-132791004D01*
X131285076Y-132791005D01*
X131137242Y-132870024D01*
X130976823Y-132918687D01*
X130851804Y-132931000D01*
X130768196Y-132931000D01*
X130643177Y-132918687D01*
X130482758Y-132870024D01*
X130334924Y-132791005D01*
X130334922Y-132791004D01*
X130205341Y-132684659D01*
X130098996Y-132555078D01*
X130060523Y-132483100D01*
X130019976Y-132407242D01*
X129971313Y-132246823D01*
X129954883Y-132080000D01*
X129971313Y-131913177D01*
X130019976Y-131752758D01*
X130098995Y-131604924D01*
X130098996Y-131604922D01*
X130205341Y-131475341D01*
X130334922Y-131368996D01*
X130415639Y-131325852D01*
X130482758Y-131289976D01*
X130643177Y-131241313D01*
X130768196Y-131229000D01*
X130851804Y-131229000D01*
X130976823Y-131241313D01*
X130976823Y-131241313D01*
G37*
G36*
X146298228Y-131261703D02*
G01*
X146453100Y-131325853D01*
X146592481Y-131418985D01*
X146711015Y-131537519D01*
X146804147Y-131676900D01*
X146868297Y-131831772D01*
X146901000Y-131996184D01*
X146901000Y-132163816D01*
X146868297Y-132328228D01*
X146804147Y-132483100D01*
X146711015Y-132622481D01*
X146592481Y-132741015D01*
X146453100Y-132834147D01*
X146298228Y-132898297D01*
X146133816Y-132931000D01*
X145966184Y-132931000D01*
X145801772Y-132898297D01*
X145646900Y-132834147D01*
X145507519Y-132741015D01*
X145388985Y-132622481D01*
X145295853Y-132483100D01*
X145231703Y-132328228D01*
X145199000Y-132163816D01*
X145199000Y-131996184D01*
X145231703Y-131831772D01*
X145295853Y-131676900D01*
X145388985Y-131537519D01*
X145507519Y-131418985D01*
X145646900Y-131325853D01*
X145801772Y-131261703D01*
X145966184Y-131229000D01*
X146133816Y-131229000D01*
X146298228Y-131261703D01*
X146298228Y-131261703D01*
G37*
G36*
X75096823Y-131241313D02*
G01*
X75257242Y-131289976D01*
X75324361Y-131325852D01*
X75405078Y-131368996D01*
X75534659Y-131475341D01*
X75641004Y-131604922D01*
X75641005Y-131604924D01*
X75720024Y-131752758D01*
X75768687Y-131913177D01*
X75785117Y-132080000D01*
X75768687Y-132246823D01*
X75720024Y-132407242D01*
X75679477Y-132483100D01*
X75641004Y-132555078D01*
X75534659Y-132684659D01*
X75405078Y-132791004D01*
X75405076Y-132791005D01*
X75257242Y-132870024D01*
X75096823Y-132918687D01*
X74971804Y-132931000D01*
X74888196Y-132931000D01*
X74763177Y-132918687D01*
X74602758Y-132870024D01*
X74454924Y-132791005D01*
X74454922Y-132791004D01*
X74325341Y-132684659D01*
X74218996Y-132555078D01*
X74180523Y-132483100D01*
X74139976Y-132407242D01*
X74091313Y-132246823D01*
X74074883Y-132080000D01*
X74091313Y-131913177D01*
X74139976Y-131752758D01*
X74218995Y-131604924D01*
X74218996Y-131604922D01*
X74325341Y-131475341D01*
X74454922Y-131368996D01*
X74535639Y-131325852D01*
X74602758Y-131289976D01*
X74763177Y-131241313D01*
X74888196Y-131229000D01*
X74971804Y-131229000D01*
X75096823Y-131241313D01*
X75096823Y-131241313D01*
G37*
G36*
X85256823Y-131241313D02*
G01*
X85417242Y-131289976D01*
X85484361Y-131325852D01*
X85565078Y-131368996D01*
X85694659Y-131475341D01*
X85801004Y-131604922D01*
X85801005Y-131604924D01*
X85880024Y-131752758D01*
X85928687Y-131913177D01*
X85945117Y-132080000D01*
X85928687Y-132246823D01*
X85880024Y-132407242D01*
X85839477Y-132483100D01*
X85801004Y-132555078D01*
X85694659Y-132684659D01*
X85565078Y-132791004D01*
X85565076Y-132791005D01*
X85417242Y-132870024D01*
X85256823Y-132918687D01*
X85131804Y-132931000D01*
X85048196Y-132931000D01*
X84923177Y-132918687D01*
X84762758Y-132870024D01*
X84614924Y-132791005D01*
X84614922Y-132791004D01*
X84485341Y-132684659D01*
X84378996Y-132555078D01*
X84340523Y-132483100D01*
X84299976Y-132407242D01*
X84251313Y-132246823D01*
X84234883Y-132080000D01*
X84251313Y-131913177D01*
X84299976Y-131752758D01*
X84378995Y-131604924D01*
X84378996Y-131604922D01*
X84485341Y-131475341D01*
X84614922Y-131368996D01*
X84695639Y-131325852D01*
X84762758Y-131289976D01*
X84923177Y-131241313D01*
X85048196Y-131229000D01*
X85131804Y-131229000D01*
X85256823Y-131241313D01*
X85256823Y-131241313D01*
G37*
G36*
X65018228Y-131261703D02*
G01*
X65173100Y-131325853D01*
X65312481Y-131418985D01*
X65431015Y-131537519D01*
X65524147Y-131676900D01*
X65588297Y-131831772D01*
X65621000Y-131996184D01*
X65621000Y-132163816D01*
X65588297Y-132328228D01*
X65524147Y-132483100D01*
X65431015Y-132622481D01*
X65312481Y-132741015D01*
X65173100Y-132834147D01*
X65018228Y-132898297D01*
X64853816Y-132931000D01*
X64686184Y-132931000D01*
X64521772Y-132898297D01*
X64366900Y-132834147D01*
X64227519Y-132741015D01*
X64108985Y-132622481D01*
X64015853Y-132483100D01*
X63951703Y-132328228D01*
X63919000Y-132163816D01*
X63919000Y-131996184D01*
X63951703Y-131831772D01*
X64015853Y-131676900D01*
X64108985Y-131537519D01*
X64227519Y-131418985D01*
X64366900Y-131325853D01*
X64521772Y-131261703D01*
X64686184Y-131229000D01*
X64853816Y-131229000D01*
X65018228Y-131261703D01*
X65018228Y-131261703D01*
G37*
G36*
X120816823Y-131241313D02*
G01*
X120977242Y-131289976D01*
X121044361Y-131325852D01*
X121125078Y-131368996D01*
X121254659Y-131475341D01*
X121361004Y-131604922D01*
X121361005Y-131604924D01*
X121440024Y-131752758D01*
X121488687Y-131913177D01*
X121505117Y-132080000D01*
X121488687Y-132246823D01*
X121440024Y-132407242D01*
X121399477Y-132483100D01*
X121361004Y-132555078D01*
X121254659Y-132684659D01*
X121125078Y-132791004D01*
X121125076Y-132791005D01*
X120977242Y-132870024D01*
X120816823Y-132918687D01*
X120691804Y-132931000D01*
X120608196Y-132931000D01*
X120483177Y-132918687D01*
X120322758Y-132870024D01*
X120174924Y-132791005D01*
X120174922Y-132791004D01*
X120045341Y-132684659D01*
X119938996Y-132555078D01*
X119900523Y-132483100D01*
X119859976Y-132407242D01*
X119811313Y-132246823D01*
X119794883Y-132080000D01*
X119811313Y-131913177D01*
X119859976Y-131752758D01*
X119938995Y-131604924D01*
X119938996Y-131604922D01*
X120045341Y-131475341D01*
X120174922Y-131368996D01*
X120255639Y-131325852D01*
X120322758Y-131289976D01*
X120483177Y-131241313D01*
X120608196Y-131229000D01*
X120691804Y-131229000D01*
X120816823Y-131241313D01*
X120816823Y-131241313D01*
G37*
G36*
X151296823Y-131241313D02*
G01*
X151457242Y-131289976D01*
X151524361Y-131325852D01*
X151605078Y-131368996D01*
X151734659Y-131475341D01*
X151841004Y-131604922D01*
X151841005Y-131604924D01*
X151920024Y-131752758D01*
X151968687Y-131913177D01*
X151985117Y-132080000D01*
X151968687Y-132246823D01*
X151920024Y-132407242D01*
X151879477Y-132483100D01*
X151841004Y-132555078D01*
X151734659Y-132684659D01*
X151605078Y-132791004D01*
X151605076Y-132791005D01*
X151457242Y-132870024D01*
X151296823Y-132918687D01*
X151171804Y-132931000D01*
X151088196Y-132931000D01*
X150963177Y-132918687D01*
X150802758Y-132870024D01*
X150654924Y-132791005D01*
X150654922Y-132791004D01*
X150525341Y-132684659D01*
X150418996Y-132555078D01*
X150380523Y-132483100D01*
X150339976Y-132407242D01*
X150291313Y-132246823D01*
X150274883Y-132080000D01*
X150291313Y-131913177D01*
X150339976Y-131752758D01*
X150418995Y-131604924D01*
X150418996Y-131604922D01*
X150525341Y-131475341D01*
X150654922Y-131368996D01*
X150735639Y-131325852D01*
X150802758Y-131289976D01*
X150963177Y-131241313D01*
X151088196Y-131229000D01*
X151171804Y-131229000D01*
X151296823Y-131241313D01*
X151296823Y-131241313D01*
G37*
G36*
X59856823Y-131241313D02*
G01*
X60017242Y-131289976D01*
X60084361Y-131325852D01*
X60165078Y-131368996D01*
X60294659Y-131475341D01*
X60401004Y-131604922D01*
X60401005Y-131604924D01*
X60480024Y-131752758D01*
X60528687Y-131913177D01*
X60545117Y-132080000D01*
X60528687Y-132246823D01*
X60480024Y-132407242D01*
X60439477Y-132483100D01*
X60401004Y-132555078D01*
X60294659Y-132684659D01*
X60165078Y-132791004D01*
X60165076Y-132791005D01*
X60017242Y-132870024D01*
X59856823Y-132918687D01*
X59731804Y-132931000D01*
X59648196Y-132931000D01*
X59523177Y-132918687D01*
X59362758Y-132870024D01*
X59214924Y-132791005D01*
X59214922Y-132791004D01*
X59085341Y-132684659D01*
X58978996Y-132555078D01*
X58940523Y-132483100D01*
X58899976Y-132407242D01*
X58851313Y-132246823D01*
X58834883Y-132080000D01*
X58851313Y-131913177D01*
X58899976Y-131752758D01*
X58978995Y-131604924D01*
X58978996Y-131604922D01*
X59085341Y-131475341D01*
X59214922Y-131368996D01*
X59295639Y-131325852D01*
X59362758Y-131289976D01*
X59523177Y-131241313D01*
X59648196Y-131229000D01*
X59731804Y-131229000D01*
X59856823Y-131241313D01*
X59856823Y-131241313D01*
G37*
G36*
X80176823Y-131241313D02*
G01*
X80337242Y-131289976D01*
X80404361Y-131325852D01*
X80485078Y-131368996D01*
X80614659Y-131475341D01*
X80721004Y-131604922D01*
X80721005Y-131604924D01*
X80800024Y-131752758D01*
X80848687Y-131913177D01*
X80865117Y-132080000D01*
X80848687Y-132246823D01*
X80800024Y-132407242D01*
X80759477Y-132483100D01*
X80721004Y-132555078D01*
X80614659Y-132684659D01*
X80485078Y-132791004D01*
X80485076Y-132791005D01*
X80337242Y-132870024D01*
X80176823Y-132918687D01*
X80051804Y-132931000D01*
X79968196Y-132931000D01*
X79843177Y-132918687D01*
X79682758Y-132870024D01*
X79534924Y-132791005D01*
X79534922Y-132791004D01*
X79405341Y-132684659D01*
X79298996Y-132555078D01*
X79260523Y-132483100D01*
X79219976Y-132407242D01*
X79171313Y-132246823D01*
X79154883Y-132080000D01*
X79171313Y-131913177D01*
X79219976Y-131752758D01*
X79298995Y-131604924D01*
X79298996Y-131604922D01*
X79405341Y-131475341D01*
X79534922Y-131368996D01*
X79615639Y-131325852D01*
X79682758Y-131289976D01*
X79843177Y-131241313D01*
X79968196Y-131229000D01*
X80051804Y-131229000D01*
X80176823Y-131241313D01*
X80176823Y-131241313D01*
G37*
G36*
X70016823Y-131241313D02*
G01*
X70177242Y-131289976D01*
X70244361Y-131325852D01*
X70325078Y-131368996D01*
X70454659Y-131475341D01*
X70561004Y-131604922D01*
X70561005Y-131604924D01*
X70640024Y-131752758D01*
X70688687Y-131913177D01*
X70705117Y-132080000D01*
X70688687Y-132246823D01*
X70640024Y-132407242D01*
X70599477Y-132483100D01*
X70561004Y-132555078D01*
X70454659Y-132684659D01*
X70325078Y-132791004D01*
X70325076Y-132791005D01*
X70177242Y-132870024D01*
X70016823Y-132918687D01*
X69891804Y-132931000D01*
X69808196Y-132931000D01*
X69683177Y-132918687D01*
X69522758Y-132870024D01*
X69374924Y-132791005D01*
X69374922Y-132791004D01*
X69245341Y-132684659D01*
X69138996Y-132555078D01*
X69100523Y-132483100D01*
X69059976Y-132407242D01*
X69011313Y-132246823D01*
X68994883Y-132080000D01*
X69011313Y-131913177D01*
X69059976Y-131752758D01*
X69138995Y-131604924D01*
X69138996Y-131604922D01*
X69245341Y-131475341D01*
X69374922Y-131368996D01*
X69455639Y-131325852D01*
X69522758Y-131289976D01*
X69683177Y-131241313D01*
X69808196Y-131229000D01*
X69891804Y-131229000D01*
X70016823Y-131241313D01*
X70016823Y-131241313D01*
G37*
G36*
X115736823Y-131241313D02*
G01*
X115897242Y-131289976D01*
X115964361Y-131325852D01*
X116045078Y-131368996D01*
X116174659Y-131475341D01*
X116281004Y-131604922D01*
X116281005Y-131604924D01*
X116360024Y-131752758D01*
X116408687Y-131913177D01*
X116425117Y-132080000D01*
X116408687Y-132246823D01*
X116360024Y-132407242D01*
X116319477Y-132483100D01*
X116281004Y-132555078D01*
X116174659Y-132684659D01*
X116045078Y-132791004D01*
X116045076Y-132791005D01*
X115897242Y-132870024D01*
X115736823Y-132918687D01*
X115611804Y-132931000D01*
X115528196Y-132931000D01*
X115403177Y-132918687D01*
X115242758Y-132870024D01*
X115094924Y-132791005D01*
X115094922Y-132791004D01*
X114965341Y-132684659D01*
X114858996Y-132555078D01*
X114820523Y-132483100D01*
X114779976Y-132407242D01*
X114731313Y-132246823D01*
X114714883Y-132080000D01*
X114731313Y-131913177D01*
X114779976Y-131752758D01*
X114858995Y-131604924D01*
X114858996Y-131604922D01*
X114965341Y-131475341D01*
X115094922Y-131368996D01*
X115175639Y-131325852D01*
X115242758Y-131289976D01*
X115403177Y-131241313D01*
X115528196Y-131229000D01*
X115611804Y-131229000D01*
X115736823Y-131241313D01*
X115736823Y-131241313D01*
G37*
G36*
X95416823Y-131241313D02*
G01*
X95577242Y-131289976D01*
X95644361Y-131325852D01*
X95725078Y-131368996D01*
X95854659Y-131475341D01*
X95961004Y-131604922D01*
X95961005Y-131604924D01*
X96040024Y-131752758D01*
X96088687Y-131913177D01*
X96105117Y-132080000D01*
X96088687Y-132246823D01*
X96040024Y-132407242D01*
X95999477Y-132483100D01*
X95961004Y-132555078D01*
X95854659Y-132684659D01*
X95725078Y-132791004D01*
X95725076Y-132791005D01*
X95577242Y-132870024D01*
X95416823Y-132918687D01*
X95291804Y-132931000D01*
X95208196Y-132931000D01*
X95083177Y-132918687D01*
X94922758Y-132870024D01*
X94774924Y-132791005D01*
X94774922Y-132791004D01*
X94645341Y-132684659D01*
X94538996Y-132555078D01*
X94500523Y-132483100D01*
X94459976Y-132407242D01*
X94411313Y-132246823D01*
X94394883Y-132080000D01*
X94411313Y-131913177D01*
X94459976Y-131752758D01*
X94538995Y-131604924D01*
X94538996Y-131604922D01*
X94645341Y-131475341D01*
X94774922Y-131368996D01*
X94855639Y-131325852D01*
X94922758Y-131289976D01*
X95083177Y-131241313D01*
X95208196Y-131229000D01*
X95291804Y-131229000D01*
X95416823Y-131241313D01*
X95416823Y-131241313D01*
G37*
G36*
X54776823Y-131241313D02*
G01*
X54937242Y-131289976D01*
X55004361Y-131325852D01*
X55085078Y-131368996D01*
X55214659Y-131475341D01*
X55321004Y-131604922D01*
X55321005Y-131604924D01*
X55400024Y-131752758D01*
X55448687Y-131913177D01*
X55465117Y-132080000D01*
X55448687Y-132246823D01*
X55400024Y-132407242D01*
X55359477Y-132483100D01*
X55321004Y-132555078D01*
X55214659Y-132684659D01*
X55085078Y-132791004D01*
X55085076Y-132791005D01*
X54937242Y-132870024D01*
X54776823Y-132918687D01*
X54651804Y-132931000D01*
X54568196Y-132931000D01*
X54443177Y-132918687D01*
X54282758Y-132870024D01*
X54134924Y-132791005D01*
X54134922Y-132791004D01*
X54005341Y-132684659D01*
X53898996Y-132555078D01*
X53860523Y-132483100D01*
X53819976Y-132407242D01*
X53771313Y-132246823D01*
X53754883Y-132080000D01*
X53771313Y-131913177D01*
X53819976Y-131752758D01*
X53898995Y-131604924D01*
X53898996Y-131604922D01*
X54005341Y-131475341D01*
X54134922Y-131368996D01*
X54215639Y-131325852D01*
X54282758Y-131289976D01*
X54443177Y-131241313D01*
X54568196Y-131229000D01*
X54651804Y-131229000D01*
X54776823Y-131241313D01*
X54776823Y-131241313D01*
G37*
G36*
X85973228Y-128046703D02*
G01*
X86128100Y-128110853D01*
X86267481Y-128203985D01*
X86386015Y-128322519D01*
X86479147Y-128461900D01*
X86543297Y-128616772D01*
X86576000Y-128781184D01*
X86576000Y-128948816D01*
X86543297Y-129113228D01*
X86479147Y-129268100D01*
X86386015Y-129407481D01*
X86267481Y-129526015D01*
X86128100Y-129619147D01*
X85973228Y-129683297D01*
X85808816Y-129716000D01*
X85641184Y-129716000D01*
X85476772Y-129683297D01*
X85321900Y-129619147D01*
X85182519Y-129526015D01*
X85063985Y-129407481D01*
X84970853Y-129268100D01*
X84906703Y-129113228D01*
X84874000Y-128948816D01*
X84874000Y-128781184D01*
X84906703Y-128616772D01*
X84970853Y-128461900D01*
X85063985Y-128322519D01*
X85182519Y-128203985D01*
X85321900Y-128110853D01*
X85476772Y-128046703D01*
X85641184Y-128014000D01*
X85808816Y-128014000D01*
X85973228Y-128046703D01*
X85973228Y-128046703D01*
G37*
G36*
X108833228Y-128046703D02*
G01*
X108988100Y-128110853D01*
X109127481Y-128203985D01*
X109246015Y-128322519D01*
X109339147Y-128461900D01*
X109403297Y-128616772D01*
X109436000Y-128781184D01*
X109436000Y-128948816D01*
X109403297Y-129113228D01*
X109339147Y-129268100D01*
X109246015Y-129407481D01*
X109127481Y-129526015D01*
X108988100Y-129619147D01*
X108833228Y-129683297D01*
X108668816Y-129716000D01*
X108501184Y-129716000D01*
X108336772Y-129683297D01*
X108181900Y-129619147D01*
X108042519Y-129526015D01*
X107923985Y-129407481D01*
X107830853Y-129268100D01*
X107766703Y-129113228D01*
X107734000Y-128948816D01*
X107734000Y-128781184D01*
X107766703Y-128616772D01*
X107830853Y-128461900D01*
X107923985Y-128322519D01*
X108042519Y-128203985D01*
X108181900Y-128110853D01*
X108336772Y-128046703D01*
X108501184Y-128014000D01*
X108668816Y-128014000D01*
X108833228Y-128046703D01*
X108833228Y-128046703D01*
G37*
G36*
X97403228Y-128046703D02*
G01*
X97558100Y-128110853D01*
X97697481Y-128203985D01*
X97816015Y-128322519D01*
X97909147Y-128461900D01*
X97973297Y-128616772D01*
X98006000Y-128781184D01*
X98006000Y-128948816D01*
X97973297Y-129113228D01*
X97909147Y-129268100D01*
X97816015Y-129407481D01*
X97697481Y-129526015D01*
X97558100Y-129619147D01*
X97403228Y-129683297D01*
X97238816Y-129716000D01*
X97071184Y-129716000D01*
X96906772Y-129683297D01*
X96751900Y-129619147D01*
X96612519Y-129526015D01*
X96493985Y-129407481D01*
X96400853Y-129268100D01*
X96336703Y-129113228D01*
X96304000Y-128948816D01*
X96304000Y-128781184D01*
X96336703Y-128616772D01*
X96400853Y-128461900D01*
X96493985Y-128322519D01*
X96612519Y-128203985D01*
X96751900Y-128110853D01*
X96906772Y-128046703D01*
X97071184Y-128014000D01*
X97238816Y-128014000D01*
X97403228Y-128046703D01*
X97403228Y-128046703D01*
G37*
G36*
X120263228Y-128046703D02*
G01*
X120418100Y-128110853D01*
X120557481Y-128203985D01*
X120676015Y-128322519D01*
X120769147Y-128461900D01*
X120833297Y-128616772D01*
X120866000Y-128781184D01*
X120866000Y-128948816D01*
X120833297Y-129113228D01*
X120769147Y-129268100D01*
X120676015Y-129407481D01*
X120557481Y-129526015D01*
X120418100Y-129619147D01*
X120263228Y-129683297D01*
X120098816Y-129716000D01*
X119931184Y-129716000D01*
X119766772Y-129683297D01*
X119611900Y-129619147D01*
X119472519Y-129526015D01*
X119353985Y-129407481D01*
X119260853Y-129268100D01*
X119196703Y-129113228D01*
X119164000Y-128948816D01*
X119164000Y-128781184D01*
X119196703Y-128616772D01*
X119260853Y-128461900D01*
X119353985Y-128322519D01*
X119472519Y-128203985D01*
X119611900Y-128110853D01*
X119766772Y-128046703D01*
X119931184Y-128014000D01*
X120098816Y-128014000D01*
X120263228Y-128046703D01*
X120263228Y-128046703D01*
G37*
G36*
X48264031Y-126872621D02*
G01*
X48293486Y-126881556D01*
X48320623Y-126896062D01*
X48344414Y-126915586D01*
X48363938Y-126939377D01*
X48378444Y-126966514D01*
X48387379Y-126995969D01*
X48391000Y-127032734D01*
X48391000Y-129507266D01*
X48387379Y-129544031D01*
X48378444Y-129573486D01*
X48363938Y-129600623D01*
X48344414Y-129624414D01*
X48320623Y-129643938D01*
X48293486Y-129658444D01*
X48264031Y-129667379D01*
X48227266Y-129671000D01*
X45752734Y-129671000D01*
X45715969Y-129667379D01*
X45686514Y-129658444D01*
X45659377Y-129643938D01*
X45635586Y-129624414D01*
X45616062Y-129600623D01*
X45601556Y-129573486D01*
X45592621Y-129544031D01*
X45589000Y-129507266D01*
X45589000Y-127032734D01*
X45592621Y-126995969D01*
X45601556Y-126966514D01*
X45616062Y-126939377D01*
X45635586Y-126915586D01*
X45659377Y-126896062D01*
X45686514Y-126881556D01*
X45715969Y-126872621D01*
X45752734Y-126869000D01*
X48227266Y-126869000D01*
X48264031Y-126872621D01*
X48264031Y-126872621D01*
G37*
G36*
X161294031Y-126872621D02*
G01*
X161323486Y-126881556D01*
X161350623Y-126896062D01*
X161374414Y-126915586D01*
X161393938Y-126939377D01*
X161408444Y-126966514D01*
X161417379Y-126995969D01*
X161421000Y-127032734D01*
X161421000Y-129507266D01*
X161417379Y-129544031D01*
X161408444Y-129573486D01*
X161393938Y-129600623D01*
X161374414Y-129624414D01*
X161350623Y-129643938D01*
X161323486Y-129658444D01*
X161294031Y-129667379D01*
X161257266Y-129671000D01*
X158782734Y-129671000D01*
X158745969Y-129667379D01*
X158716514Y-129658444D01*
X158689377Y-129643938D01*
X158665586Y-129624414D01*
X158646062Y-129600623D01*
X158631556Y-129573486D01*
X158622621Y-129544031D01*
X158619000Y-129507266D01*
X158619000Y-127032734D01*
X158622621Y-126995969D01*
X158631556Y-126966514D01*
X158646062Y-126939377D01*
X158665586Y-126915586D01*
X158689377Y-126896062D01*
X158716514Y-126881556D01*
X158745969Y-126872621D01*
X158782734Y-126869000D01*
X161257266Y-126869000D01*
X161294031Y-126872621D01*
X161294031Y-126872621D01*
G37*
G36*
X100578228Y-126181703D02*
G01*
X100733100Y-126245853D01*
X100872481Y-126338985D01*
X100991015Y-126457519D01*
X101084147Y-126596900D01*
X101148297Y-126751772D01*
X101181000Y-126916184D01*
X101181000Y-127083816D01*
X101148297Y-127248228D01*
X101084147Y-127403100D01*
X100991015Y-127542481D01*
X100872481Y-127661015D01*
X100733100Y-127754147D01*
X100578228Y-127818297D01*
X100413816Y-127851000D01*
X100246184Y-127851000D01*
X100081772Y-127818297D01*
X99926900Y-127754147D01*
X99787519Y-127661015D01*
X99668985Y-127542481D01*
X99575853Y-127403100D01*
X99511703Y-127248228D01*
X99479000Y-127083816D01*
X99479000Y-126916184D01*
X99511703Y-126751772D01*
X99575853Y-126596900D01*
X99668985Y-126457519D01*
X99787519Y-126338985D01*
X99926900Y-126245853D01*
X100081772Y-126181703D01*
X100246184Y-126149000D01*
X100413816Y-126149000D01*
X100578228Y-126181703D01*
X100578228Y-126181703D01*
G37*
G36*
X105578228Y-126181703D02*
G01*
X105733100Y-126245853D01*
X105872481Y-126338985D01*
X105991015Y-126457519D01*
X106084147Y-126596900D01*
X106148297Y-126751772D01*
X106181000Y-126916184D01*
X106181000Y-127083816D01*
X106148297Y-127248228D01*
X106084147Y-127403100D01*
X105991015Y-127542481D01*
X105872481Y-127661015D01*
X105733100Y-127754147D01*
X105578228Y-127818297D01*
X105413816Y-127851000D01*
X105246184Y-127851000D01*
X105081772Y-127818297D01*
X104926900Y-127754147D01*
X104787519Y-127661015D01*
X104668985Y-127542481D01*
X104575853Y-127403100D01*
X104511703Y-127248228D01*
X104479000Y-127083816D01*
X104479000Y-126916184D01*
X104511703Y-126751772D01*
X104575853Y-126596900D01*
X104668985Y-126457519D01*
X104787519Y-126338985D01*
X104926900Y-126245853D01*
X105081772Y-126181703D01*
X105246184Y-126149000D01*
X105413816Y-126149000D01*
X105578228Y-126181703D01*
X105578228Y-126181703D01*
G37*
G36*
X112088228Y-126181703D02*
G01*
X112243100Y-126245853D01*
X112382481Y-126338985D01*
X112501015Y-126457519D01*
X112594147Y-126596900D01*
X112658297Y-126751772D01*
X112691000Y-126916184D01*
X112691000Y-127083816D01*
X112658297Y-127248228D01*
X112594147Y-127403100D01*
X112501015Y-127542481D01*
X112382481Y-127661015D01*
X112243100Y-127754147D01*
X112088228Y-127818297D01*
X111923816Y-127851000D01*
X111756184Y-127851000D01*
X111591772Y-127818297D01*
X111436900Y-127754147D01*
X111297519Y-127661015D01*
X111178985Y-127542481D01*
X111085853Y-127403100D01*
X111021703Y-127248228D01*
X110989000Y-127083816D01*
X110989000Y-126916184D01*
X111021703Y-126751772D01*
X111085853Y-126596900D01*
X111178985Y-126457519D01*
X111297519Y-126338985D01*
X111436900Y-126245853D01*
X111591772Y-126181703D01*
X111756184Y-126149000D01*
X111923816Y-126149000D01*
X112088228Y-126181703D01*
X112088228Y-126181703D01*
G37*
G36*
X117088228Y-126181703D02*
G01*
X117243100Y-126245853D01*
X117382481Y-126338985D01*
X117501015Y-126457519D01*
X117594147Y-126596900D01*
X117658297Y-126751772D01*
X117691000Y-126916184D01*
X117691000Y-127083816D01*
X117658297Y-127248228D01*
X117594147Y-127403100D01*
X117501015Y-127542481D01*
X117382481Y-127661015D01*
X117243100Y-127754147D01*
X117088228Y-127818297D01*
X116923816Y-127851000D01*
X116756184Y-127851000D01*
X116591772Y-127818297D01*
X116436900Y-127754147D01*
X116297519Y-127661015D01*
X116178985Y-127542481D01*
X116085853Y-127403100D01*
X116021703Y-127248228D01*
X115989000Y-127083816D01*
X115989000Y-126916184D01*
X116021703Y-126751772D01*
X116085853Y-126596900D01*
X116178985Y-126457519D01*
X116297519Y-126338985D01*
X116436900Y-126245853D01*
X116591772Y-126181703D01*
X116756184Y-126149000D01*
X116923816Y-126149000D01*
X117088228Y-126181703D01*
X117088228Y-126181703D01*
G37*
G36*
X123438228Y-126181703D02*
G01*
X123593100Y-126245853D01*
X123732481Y-126338985D01*
X123851015Y-126457519D01*
X123944147Y-126596900D01*
X124008297Y-126751772D01*
X124041000Y-126916184D01*
X124041000Y-127083816D01*
X124008297Y-127248228D01*
X123944147Y-127403100D01*
X123851015Y-127542481D01*
X123732481Y-127661015D01*
X123593100Y-127754147D01*
X123438228Y-127818297D01*
X123273816Y-127851000D01*
X123106184Y-127851000D01*
X122941772Y-127818297D01*
X122786900Y-127754147D01*
X122647519Y-127661015D01*
X122528985Y-127542481D01*
X122435853Y-127403100D01*
X122371703Y-127248228D01*
X122339000Y-127083816D01*
X122339000Y-126916184D01*
X122371703Y-126751772D01*
X122435853Y-126596900D01*
X122528985Y-126457519D01*
X122647519Y-126338985D01*
X122786900Y-126245853D01*
X122941772Y-126181703D01*
X123106184Y-126149000D01*
X123273816Y-126149000D01*
X123438228Y-126181703D01*
X123438228Y-126181703D01*
G37*
G36*
X128438228Y-126181703D02*
G01*
X128593100Y-126245853D01*
X128732481Y-126338985D01*
X128851015Y-126457519D01*
X128944147Y-126596900D01*
X129008297Y-126751772D01*
X129041000Y-126916184D01*
X129041000Y-127083816D01*
X129008297Y-127248228D01*
X128944147Y-127403100D01*
X128851015Y-127542481D01*
X128732481Y-127661015D01*
X128593100Y-127754147D01*
X128438228Y-127818297D01*
X128273816Y-127851000D01*
X128106184Y-127851000D01*
X127941772Y-127818297D01*
X127786900Y-127754147D01*
X127647519Y-127661015D01*
X127528985Y-127542481D01*
X127435853Y-127403100D01*
X127371703Y-127248228D01*
X127339000Y-127083816D01*
X127339000Y-126916184D01*
X127371703Y-126751772D01*
X127435853Y-126596900D01*
X127528985Y-126457519D01*
X127647519Y-126338985D01*
X127786900Y-126245853D01*
X127941772Y-126181703D01*
X128106184Y-126149000D01*
X128273816Y-126149000D01*
X128438228Y-126181703D01*
X128438228Y-126181703D01*
G37*
G36*
X134868228Y-126181703D02*
G01*
X135023100Y-126245853D01*
X135162481Y-126338985D01*
X135281015Y-126457519D01*
X135374147Y-126596900D01*
X135438297Y-126751772D01*
X135471000Y-126916184D01*
X135471000Y-127083816D01*
X135438297Y-127248228D01*
X135374147Y-127403100D01*
X135281015Y-127542481D01*
X135162481Y-127661015D01*
X135023100Y-127754147D01*
X134868228Y-127818297D01*
X134703816Y-127851000D01*
X134536184Y-127851000D01*
X134371772Y-127818297D01*
X134216900Y-127754147D01*
X134077519Y-127661015D01*
X133958985Y-127542481D01*
X133865853Y-127403100D01*
X133801703Y-127248228D01*
X133769000Y-127083816D01*
X133769000Y-126916184D01*
X133801703Y-126751772D01*
X133865853Y-126596900D01*
X133958985Y-126457519D01*
X134077519Y-126338985D01*
X134216900Y-126245853D01*
X134371772Y-126181703D01*
X134536184Y-126149000D01*
X134703816Y-126149000D01*
X134868228Y-126181703D01*
X134868228Y-126181703D01*
G37*
G36*
X139868228Y-126181703D02*
G01*
X140023100Y-126245853D01*
X140162481Y-126338985D01*
X140281015Y-126457519D01*
X140374147Y-126596900D01*
X140438297Y-126751772D01*
X140471000Y-126916184D01*
X140471000Y-127083816D01*
X140438297Y-127248228D01*
X140374147Y-127403100D01*
X140281015Y-127542481D01*
X140162481Y-127661015D01*
X140023100Y-127754147D01*
X139868228Y-127818297D01*
X139703816Y-127851000D01*
X139536184Y-127851000D01*
X139371772Y-127818297D01*
X139216900Y-127754147D01*
X139077519Y-127661015D01*
X138958985Y-127542481D01*
X138865853Y-127403100D01*
X138801703Y-127248228D01*
X138769000Y-127083816D01*
X138769000Y-126916184D01*
X138801703Y-126751772D01*
X138865853Y-126596900D01*
X138958985Y-126457519D01*
X139077519Y-126338985D01*
X139216900Y-126245853D01*
X139371772Y-126181703D01*
X139536184Y-126149000D01*
X139703816Y-126149000D01*
X139868228Y-126181703D01*
X139868228Y-126181703D01*
G37*
G36*
X146298228Y-126181703D02*
G01*
X146453100Y-126245853D01*
X146592481Y-126338985D01*
X146711015Y-126457519D01*
X146804147Y-126596900D01*
X146868297Y-126751772D01*
X146901000Y-126916184D01*
X146901000Y-127083816D01*
X146868297Y-127248228D01*
X146804147Y-127403100D01*
X146711015Y-127542481D01*
X146592481Y-127661015D01*
X146453100Y-127754147D01*
X146298228Y-127818297D01*
X146133816Y-127851000D01*
X145966184Y-127851000D01*
X145801772Y-127818297D01*
X145646900Y-127754147D01*
X145507519Y-127661015D01*
X145388985Y-127542481D01*
X145295853Y-127403100D01*
X145231703Y-127248228D01*
X145199000Y-127083816D01*
X145199000Y-126916184D01*
X145231703Y-126751772D01*
X145295853Y-126596900D01*
X145388985Y-126457519D01*
X145507519Y-126338985D01*
X145646900Y-126245853D01*
X145801772Y-126181703D01*
X145966184Y-126149000D01*
X146133816Y-126149000D01*
X146298228Y-126181703D01*
X146298228Y-126181703D01*
G37*
G36*
X94148228Y-126181703D02*
G01*
X94303100Y-126245853D01*
X94442481Y-126338985D01*
X94561015Y-126457519D01*
X94654147Y-126596900D01*
X94718297Y-126751772D01*
X94751000Y-126916184D01*
X94751000Y-127083816D01*
X94718297Y-127248228D01*
X94654147Y-127403100D01*
X94561015Y-127542481D01*
X94442481Y-127661015D01*
X94303100Y-127754147D01*
X94148228Y-127818297D01*
X93983816Y-127851000D01*
X93816184Y-127851000D01*
X93651772Y-127818297D01*
X93496900Y-127754147D01*
X93357519Y-127661015D01*
X93238985Y-127542481D01*
X93145853Y-127403100D01*
X93081703Y-127248228D01*
X93049000Y-127083816D01*
X93049000Y-126916184D01*
X93081703Y-126751772D01*
X93145853Y-126596900D01*
X93238985Y-126457519D01*
X93357519Y-126338985D01*
X93496900Y-126245853D01*
X93651772Y-126181703D01*
X93816184Y-126149000D01*
X93983816Y-126149000D01*
X94148228Y-126181703D01*
X94148228Y-126181703D01*
G37*
G36*
X151298228Y-126181703D02*
G01*
X151453100Y-126245853D01*
X151592481Y-126338985D01*
X151711015Y-126457519D01*
X151804147Y-126596900D01*
X151868297Y-126751772D01*
X151901000Y-126916184D01*
X151901000Y-127083816D01*
X151868297Y-127248228D01*
X151804147Y-127403100D01*
X151711015Y-127542481D01*
X151592481Y-127661015D01*
X151453100Y-127754147D01*
X151298228Y-127818297D01*
X151133816Y-127851000D01*
X150966184Y-127851000D01*
X150801772Y-127818297D01*
X150646900Y-127754147D01*
X150507519Y-127661015D01*
X150388985Y-127542481D01*
X150295853Y-127403100D01*
X150231703Y-127248228D01*
X150199000Y-127083816D01*
X150199000Y-126916184D01*
X150231703Y-126751772D01*
X150295853Y-126596900D01*
X150388985Y-126457519D01*
X150507519Y-126338985D01*
X150646900Y-126245853D01*
X150801772Y-126181703D01*
X150966184Y-126149000D01*
X151133816Y-126149000D01*
X151298228Y-126181703D01*
X151298228Y-126181703D01*
G37*
G36*
X66288228Y-126181703D02*
G01*
X66443100Y-126245853D01*
X66582481Y-126338985D01*
X66701015Y-126457519D01*
X66794147Y-126596900D01*
X66858297Y-126751772D01*
X66891000Y-126916184D01*
X66891000Y-127083816D01*
X66858297Y-127248228D01*
X66794147Y-127403100D01*
X66701015Y-127542481D01*
X66582481Y-127661015D01*
X66443100Y-127754147D01*
X66288228Y-127818297D01*
X66123816Y-127851000D01*
X65956184Y-127851000D01*
X65791772Y-127818297D01*
X65636900Y-127754147D01*
X65497519Y-127661015D01*
X65378985Y-127542481D01*
X65285853Y-127403100D01*
X65221703Y-127248228D01*
X65189000Y-127083816D01*
X65189000Y-126916184D01*
X65221703Y-126751772D01*
X65285853Y-126596900D01*
X65378985Y-126457519D01*
X65497519Y-126338985D01*
X65636900Y-126245853D01*
X65791772Y-126181703D01*
X65956184Y-126149000D01*
X66123816Y-126149000D01*
X66288228Y-126181703D01*
X66288228Y-126181703D01*
G37*
G36*
X73826823Y-126161313D02*
G01*
X73987242Y-126209976D01*
X74054361Y-126245852D01*
X74135078Y-126288996D01*
X74264659Y-126395341D01*
X74371004Y-126524922D01*
X74371005Y-126524924D01*
X74450024Y-126672758D01*
X74498687Y-126833177D01*
X74515117Y-127000000D01*
X74498687Y-127166823D01*
X74450024Y-127327242D01*
X74409477Y-127403100D01*
X74371004Y-127475078D01*
X74264659Y-127604659D01*
X74135078Y-127711004D01*
X74135076Y-127711005D01*
X73987242Y-127790024D01*
X73826823Y-127838687D01*
X73701804Y-127851000D01*
X73618196Y-127851000D01*
X73493177Y-127838687D01*
X73332758Y-127790024D01*
X73184924Y-127711005D01*
X73184922Y-127711004D01*
X73055341Y-127604659D01*
X72948996Y-127475078D01*
X72910523Y-127403100D01*
X72869976Y-127327242D01*
X72821313Y-127166823D01*
X72804883Y-127000000D01*
X72821313Y-126833177D01*
X72869976Y-126672758D01*
X72948995Y-126524924D01*
X72948996Y-126524922D01*
X73055341Y-126395341D01*
X73184922Y-126288996D01*
X73265639Y-126245852D01*
X73332758Y-126209976D01*
X73493177Y-126161313D01*
X73618196Y-126149000D01*
X73701804Y-126149000D01*
X73826823Y-126161313D01*
X73826823Y-126161313D01*
G37*
G36*
X82798228Y-126181703D02*
G01*
X82953100Y-126245853D01*
X83092481Y-126338985D01*
X83211015Y-126457519D01*
X83304147Y-126596900D01*
X83368297Y-126751772D01*
X83401000Y-126916184D01*
X83401000Y-127083816D01*
X83368297Y-127248228D01*
X83304147Y-127403100D01*
X83211015Y-127542481D01*
X83092481Y-127661015D01*
X82953100Y-127754147D01*
X82798228Y-127818297D01*
X82633816Y-127851000D01*
X82466184Y-127851000D01*
X82301772Y-127818297D01*
X82146900Y-127754147D01*
X82007519Y-127661015D01*
X81888985Y-127542481D01*
X81795853Y-127403100D01*
X81731703Y-127248228D01*
X81699000Y-127083816D01*
X81699000Y-126916184D01*
X81731703Y-126751772D01*
X81795853Y-126596900D01*
X81888985Y-126457519D01*
X82007519Y-126338985D01*
X82146900Y-126245853D01*
X82301772Y-126181703D01*
X82466184Y-126149000D01*
X82633816Y-126149000D01*
X82798228Y-126181703D01*
X82798228Y-126181703D01*
G37*
G36*
X77798228Y-126181703D02*
G01*
X77953100Y-126245853D01*
X78092481Y-126338985D01*
X78211015Y-126457519D01*
X78304147Y-126596900D01*
X78368297Y-126751772D01*
X78401000Y-126916184D01*
X78401000Y-127083816D01*
X78368297Y-127248228D01*
X78304147Y-127403100D01*
X78211015Y-127542481D01*
X78092481Y-127661015D01*
X77953100Y-127754147D01*
X77798228Y-127818297D01*
X77633816Y-127851000D01*
X77466184Y-127851000D01*
X77301772Y-127818297D01*
X77146900Y-127754147D01*
X77007519Y-127661015D01*
X76888985Y-127542481D01*
X76795853Y-127403100D01*
X76731703Y-127248228D01*
X76699000Y-127083816D01*
X76699000Y-126916184D01*
X76731703Y-126751772D01*
X76795853Y-126596900D01*
X76888985Y-126457519D01*
X77007519Y-126338985D01*
X77146900Y-126245853D01*
X77301772Y-126181703D01*
X77466184Y-126149000D01*
X77633816Y-126149000D01*
X77798228Y-126181703D01*
X77798228Y-126181703D01*
G37*
G36*
X54776823Y-126161313D02*
G01*
X54937242Y-126209976D01*
X55004361Y-126245852D01*
X55085078Y-126288996D01*
X55214659Y-126395341D01*
X55321004Y-126524922D01*
X55321005Y-126524924D01*
X55400024Y-126672758D01*
X55448687Y-126833177D01*
X55465117Y-127000000D01*
X55448687Y-127166823D01*
X55400024Y-127327242D01*
X55359477Y-127403100D01*
X55321004Y-127475078D01*
X55214659Y-127604659D01*
X55085078Y-127711004D01*
X55085076Y-127711005D01*
X54937242Y-127790024D01*
X54776823Y-127838687D01*
X54651804Y-127851000D01*
X54568196Y-127851000D01*
X54443177Y-127838687D01*
X54282758Y-127790024D01*
X54134924Y-127711005D01*
X54134922Y-127711004D01*
X54005341Y-127604659D01*
X53898996Y-127475078D01*
X53860523Y-127403100D01*
X53819976Y-127327242D01*
X53771313Y-127166823D01*
X53754883Y-127000000D01*
X53771313Y-126833177D01*
X53819976Y-126672758D01*
X53898995Y-126524924D01*
X53898996Y-126524922D01*
X54005341Y-126395341D01*
X54134922Y-126288996D01*
X54215639Y-126245852D01*
X54282758Y-126209976D01*
X54443177Y-126161313D01*
X54568196Y-126149000D01*
X54651804Y-126149000D01*
X54776823Y-126161313D01*
X54776823Y-126161313D01*
G37*
G36*
X89148228Y-126181703D02*
G01*
X89303100Y-126245853D01*
X89442481Y-126338985D01*
X89561015Y-126457519D01*
X89654147Y-126596900D01*
X89718297Y-126751772D01*
X89751000Y-126916184D01*
X89751000Y-127083816D01*
X89718297Y-127248228D01*
X89654147Y-127403100D01*
X89561015Y-127542481D01*
X89442481Y-127661015D01*
X89303100Y-127754147D01*
X89148228Y-127818297D01*
X88983816Y-127851000D01*
X88816184Y-127851000D01*
X88651772Y-127818297D01*
X88496900Y-127754147D01*
X88357519Y-127661015D01*
X88238985Y-127542481D01*
X88145853Y-127403100D01*
X88081703Y-127248228D01*
X88049000Y-127083816D01*
X88049000Y-126916184D01*
X88081703Y-126751772D01*
X88145853Y-126596900D01*
X88238985Y-126457519D01*
X88357519Y-126338985D01*
X88496900Y-126245853D01*
X88651772Y-126181703D01*
X88816184Y-126149000D01*
X88983816Y-126149000D01*
X89148228Y-126181703D01*
X89148228Y-126181703D01*
G37*
G36*
X62478228Y-126181703D02*
G01*
X62633100Y-126245853D01*
X62772481Y-126338985D01*
X62891015Y-126457519D01*
X62984147Y-126596900D01*
X63048297Y-126751772D01*
X63081000Y-126916184D01*
X63081000Y-127083816D01*
X63048297Y-127248228D01*
X62984147Y-127403100D01*
X62891015Y-127542481D01*
X62772481Y-127661015D01*
X62633100Y-127754147D01*
X62478228Y-127818297D01*
X62313816Y-127851000D01*
X62146184Y-127851000D01*
X61981772Y-127818297D01*
X61826900Y-127754147D01*
X61687519Y-127661015D01*
X61568985Y-127542481D01*
X61475853Y-127403100D01*
X61411703Y-127248228D01*
X61379000Y-127083816D01*
X61379000Y-126916184D01*
X61411703Y-126751772D01*
X61475853Y-126596900D01*
X61568985Y-126457519D01*
X61687519Y-126338985D01*
X61826900Y-126245853D01*
X61981772Y-126181703D01*
X62146184Y-126149000D01*
X62313816Y-126149000D01*
X62478228Y-126181703D01*
X62478228Y-126181703D01*
G37*
G36*
X120263228Y-125546703D02*
G01*
X120418100Y-125610853D01*
X120557481Y-125703985D01*
X120676015Y-125822519D01*
X120769147Y-125961900D01*
X120833297Y-126116772D01*
X120866000Y-126281184D01*
X120866000Y-126448816D01*
X120833297Y-126613228D01*
X120769147Y-126768100D01*
X120676015Y-126907481D01*
X120557481Y-127026015D01*
X120418100Y-127119147D01*
X120263228Y-127183297D01*
X120098816Y-127216000D01*
X119931184Y-127216000D01*
X119766772Y-127183297D01*
X119611900Y-127119147D01*
X119472519Y-127026015D01*
X119353985Y-126907481D01*
X119260853Y-126768100D01*
X119196703Y-126613228D01*
X119164000Y-126448816D01*
X119164000Y-126281184D01*
X119196703Y-126116772D01*
X119260853Y-125961900D01*
X119353985Y-125822519D01*
X119472519Y-125703985D01*
X119611900Y-125610853D01*
X119766772Y-125546703D01*
X119931184Y-125514000D01*
X120098816Y-125514000D01*
X120263228Y-125546703D01*
X120263228Y-125546703D01*
G37*
G36*
X85973228Y-125546703D02*
G01*
X86128100Y-125610853D01*
X86267481Y-125703985D01*
X86386015Y-125822519D01*
X86479147Y-125961900D01*
X86543297Y-126116772D01*
X86576000Y-126281184D01*
X86576000Y-126448816D01*
X86543297Y-126613228D01*
X86479147Y-126768100D01*
X86386015Y-126907481D01*
X86267481Y-127026015D01*
X86128100Y-127119147D01*
X85973228Y-127183297D01*
X85808816Y-127216000D01*
X85641184Y-127216000D01*
X85476772Y-127183297D01*
X85321900Y-127119147D01*
X85182519Y-127026015D01*
X85063985Y-126907481D01*
X84970853Y-126768100D01*
X84906703Y-126613228D01*
X84874000Y-126448816D01*
X84874000Y-126281184D01*
X84906703Y-126116772D01*
X84970853Y-125961900D01*
X85063985Y-125822519D01*
X85182519Y-125703985D01*
X85321900Y-125610853D01*
X85476772Y-125546703D01*
X85641184Y-125514000D01*
X85808816Y-125514000D01*
X85973228Y-125546703D01*
X85973228Y-125546703D01*
G37*
G36*
X97403228Y-125546703D02*
G01*
X97558100Y-125610853D01*
X97697481Y-125703985D01*
X97816015Y-125822519D01*
X97909147Y-125961900D01*
X97973297Y-126116772D01*
X98006000Y-126281184D01*
X98006000Y-126448816D01*
X97973297Y-126613228D01*
X97909147Y-126768100D01*
X97816015Y-126907481D01*
X97697481Y-127026015D01*
X97558100Y-127119147D01*
X97403228Y-127183297D01*
X97238816Y-127216000D01*
X97071184Y-127216000D01*
X96906772Y-127183297D01*
X96751900Y-127119147D01*
X96612519Y-127026015D01*
X96493985Y-126907481D01*
X96400853Y-126768100D01*
X96336703Y-126613228D01*
X96304000Y-126448816D01*
X96304000Y-126281184D01*
X96336703Y-126116772D01*
X96400853Y-125961900D01*
X96493985Y-125822519D01*
X96612519Y-125703985D01*
X96751900Y-125610853D01*
X96906772Y-125546703D01*
X97071184Y-125514000D01*
X97238816Y-125514000D01*
X97403228Y-125546703D01*
X97403228Y-125546703D01*
G37*
G36*
X108833228Y-125546703D02*
G01*
X108988100Y-125610853D01*
X109127481Y-125703985D01*
X109246015Y-125822519D01*
X109339147Y-125961900D01*
X109403297Y-126116772D01*
X109436000Y-126281184D01*
X109436000Y-126448816D01*
X109403297Y-126613228D01*
X109339147Y-126768100D01*
X109246015Y-126907481D01*
X109127481Y-127026015D01*
X108988100Y-127119147D01*
X108833228Y-127183297D01*
X108668816Y-127216000D01*
X108501184Y-127216000D01*
X108336772Y-127183297D01*
X108181900Y-127119147D01*
X108042519Y-127026015D01*
X107923985Y-126907481D01*
X107830853Y-126768100D01*
X107766703Y-126613228D01*
X107734000Y-126448816D01*
X107734000Y-126281184D01*
X107766703Y-126116772D01*
X107830853Y-125961900D01*
X107923985Y-125822519D01*
X108042519Y-125703985D01*
X108181900Y-125610853D01*
X108336772Y-125546703D01*
X108501184Y-125514000D01*
X108668816Y-125514000D01*
X108833228Y-125546703D01*
X108833228Y-125546703D01*
G37*
G36*
X57358228Y-123006703D02*
G01*
X57513100Y-123070853D01*
X57652481Y-123163985D01*
X57771015Y-123282519D01*
X57864147Y-123421900D01*
X57928297Y-123576772D01*
X57961000Y-123741184D01*
X57961000Y-123908816D01*
X57928297Y-124073228D01*
X57864147Y-124228100D01*
X57771015Y-124367481D01*
X57652481Y-124486015D01*
X57513100Y-124579147D01*
X57358228Y-124643297D01*
X57193816Y-124676000D01*
X57026184Y-124676000D01*
X56861772Y-124643297D01*
X56706900Y-124579147D01*
X56567519Y-124486015D01*
X56448985Y-124367481D01*
X56355853Y-124228100D01*
X56291703Y-124073228D01*
X56259000Y-123908816D01*
X56259000Y-123741184D01*
X56291703Y-123576772D01*
X56355853Y-123421900D01*
X56448985Y-123282519D01*
X56567519Y-123163985D01*
X56706900Y-123070853D01*
X56861772Y-123006703D01*
X57026184Y-122974000D01*
X57193816Y-122974000D01*
X57358228Y-123006703D01*
X57358228Y-123006703D01*
G37*
G36*
X45928228Y-123006703D02*
G01*
X46083100Y-123070853D01*
X46222481Y-123163985D01*
X46341015Y-123282519D01*
X46434147Y-123421900D01*
X46498297Y-123576772D01*
X46531000Y-123741184D01*
X46531000Y-123908816D01*
X46498297Y-124073228D01*
X46434147Y-124228100D01*
X46341015Y-124367481D01*
X46222481Y-124486015D01*
X46083100Y-124579147D01*
X45928228Y-124643297D01*
X45763816Y-124676000D01*
X45596184Y-124676000D01*
X45431772Y-124643297D01*
X45276900Y-124579147D01*
X45137519Y-124486015D01*
X45018985Y-124367481D01*
X44925853Y-124228100D01*
X44861703Y-124073228D01*
X44829000Y-123908816D01*
X44829000Y-123741184D01*
X44861703Y-123576772D01*
X44925853Y-123421900D01*
X45018985Y-123282519D01*
X45137519Y-123163985D01*
X45276900Y-123070853D01*
X45431772Y-123006703D01*
X45596184Y-122974000D01*
X45763816Y-122974000D01*
X45928228Y-123006703D01*
X45928228Y-123006703D01*
G37*
G36*
X43428228Y-123006703D02*
G01*
X43583100Y-123070853D01*
X43722481Y-123163985D01*
X43841015Y-123282519D01*
X43934147Y-123421900D01*
X43998297Y-123576772D01*
X44031000Y-123741184D01*
X44031000Y-123908816D01*
X43998297Y-124073228D01*
X43934147Y-124228100D01*
X43841015Y-124367481D01*
X43722481Y-124486015D01*
X43583100Y-124579147D01*
X43428228Y-124643297D01*
X43263816Y-124676000D01*
X43096184Y-124676000D01*
X42931772Y-124643297D01*
X42776900Y-124579147D01*
X42637519Y-124486015D01*
X42518985Y-124367481D01*
X42425853Y-124228100D01*
X42361703Y-124073228D01*
X42329000Y-123908816D01*
X42329000Y-123741184D01*
X42361703Y-123576772D01*
X42425853Y-123421900D01*
X42518985Y-123282519D01*
X42637519Y-123163985D01*
X42776900Y-123070853D01*
X42931772Y-123006703D01*
X43096184Y-122974000D01*
X43263816Y-122974000D01*
X43428228Y-123006703D01*
X43428228Y-123006703D01*
G37*
G36*
X49143228Y-123006703D02*
G01*
X49298100Y-123070853D01*
X49437481Y-123163985D01*
X49556015Y-123282519D01*
X49649147Y-123421900D01*
X49713297Y-123576772D01*
X49746000Y-123741184D01*
X49746000Y-123908816D01*
X49713297Y-124073228D01*
X49649147Y-124228100D01*
X49556015Y-124367481D01*
X49437481Y-124486015D01*
X49298100Y-124579147D01*
X49143228Y-124643297D01*
X48978816Y-124676000D01*
X48811184Y-124676000D01*
X48646772Y-124643297D01*
X48491900Y-124579147D01*
X48352519Y-124486015D01*
X48233985Y-124367481D01*
X48140853Y-124228100D01*
X48076703Y-124073228D01*
X48044000Y-123908816D01*
X48044000Y-123741184D01*
X48076703Y-123576772D01*
X48140853Y-123421900D01*
X48233985Y-123282519D01*
X48352519Y-123163985D01*
X48491900Y-123070853D01*
X48646772Y-123006703D01*
X48811184Y-122974000D01*
X48978816Y-122974000D01*
X49143228Y-123006703D01*
X49143228Y-123006703D01*
G37*
G36*
X51643228Y-123006703D02*
G01*
X51798100Y-123070853D01*
X51937481Y-123163985D01*
X52056015Y-123282519D01*
X52149147Y-123421900D01*
X52213297Y-123576772D01*
X52246000Y-123741184D01*
X52246000Y-123908816D01*
X52213297Y-124073228D01*
X52149147Y-124228100D01*
X52056015Y-124367481D01*
X51937481Y-124486015D01*
X51798100Y-124579147D01*
X51643228Y-124643297D01*
X51478816Y-124676000D01*
X51311184Y-124676000D01*
X51146772Y-124643297D01*
X50991900Y-124579147D01*
X50852519Y-124486015D01*
X50733985Y-124367481D01*
X50640853Y-124228100D01*
X50576703Y-124073228D01*
X50544000Y-123908816D01*
X50544000Y-123741184D01*
X50576703Y-123576772D01*
X50640853Y-123421900D01*
X50733985Y-123282519D01*
X50852519Y-123163985D01*
X50991900Y-123070853D01*
X51146772Y-123006703D01*
X51311184Y-122974000D01*
X51478816Y-122974000D01*
X51643228Y-123006703D01*
X51643228Y-123006703D01*
G37*
G36*
X54858228Y-123006703D02*
G01*
X55013100Y-123070853D01*
X55152481Y-123163985D01*
X55271015Y-123282519D01*
X55364147Y-123421900D01*
X55428297Y-123576772D01*
X55461000Y-123741184D01*
X55461000Y-123908816D01*
X55428297Y-124073228D01*
X55364147Y-124228100D01*
X55271015Y-124367481D01*
X55152481Y-124486015D01*
X55013100Y-124579147D01*
X54858228Y-124643297D01*
X54693816Y-124676000D01*
X54526184Y-124676000D01*
X54361772Y-124643297D01*
X54206900Y-124579147D01*
X54067519Y-124486015D01*
X53948985Y-124367481D01*
X53855853Y-124228100D01*
X53791703Y-124073228D01*
X53759000Y-123908816D01*
X53759000Y-123741184D01*
X53791703Y-123576772D01*
X53855853Y-123421900D01*
X53948985Y-123282519D01*
X54067519Y-123163985D01*
X54206900Y-123070853D01*
X54361772Y-123006703D01*
X54526184Y-122974000D01*
X54693816Y-122974000D01*
X54858228Y-123006703D01*
X54858228Y-123006703D01*
G37*
G36*
X134868228Y-122371703D02*
G01*
X135023100Y-122435853D01*
X135162481Y-122528985D01*
X135281015Y-122647519D01*
X135374147Y-122786900D01*
X135438297Y-122941772D01*
X135471000Y-123106184D01*
X135471000Y-123273816D01*
X135438297Y-123438228D01*
X135374147Y-123593100D01*
X135281015Y-123732481D01*
X135162481Y-123851015D01*
X135023100Y-123944147D01*
X134868228Y-124008297D01*
X134703816Y-124041000D01*
X134536184Y-124041000D01*
X134371772Y-124008297D01*
X134216900Y-123944147D01*
X134077519Y-123851015D01*
X133958985Y-123732481D01*
X133865853Y-123593100D01*
X133801703Y-123438228D01*
X133769000Y-123273816D01*
X133769000Y-123106184D01*
X133801703Y-122941772D01*
X133865853Y-122786900D01*
X133958985Y-122647519D01*
X134077519Y-122528985D01*
X134216900Y-122435853D01*
X134371772Y-122371703D01*
X134536184Y-122339000D01*
X134703816Y-122339000D01*
X134868228Y-122371703D01*
X134868228Y-122371703D01*
G37*
G36*
X130341823Y-122351313D02*
G01*
X130502242Y-122399976D01*
X130634906Y-122470886D01*
X130650078Y-122478996D01*
X130779659Y-122585341D01*
X130886004Y-122714922D01*
X130886005Y-122714924D01*
X130965024Y-122862758D01*
X131013687Y-123023177D01*
X131030117Y-123190000D01*
X131013687Y-123356823D01*
X130965024Y-123517242D01*
X130924477Y-123593100D01*
X130886004Y-123665078D01*
X130779659Y-123794659D01*
X130650078Y-123901004D01*
X130650076Y-123901005D01*
X130502242Y-123980024D01*
X130341823Y-124028687D01*
X130216804Y-124041000D01*
X130133196Y-124041000D01*
X130008177Y-124028687D01*
X129847758Y-123980024D01*
X129699924Y-123901005D01*
X129699922Y-123901004D01*
X129570341Y-123794659D01*
X129463996Y-123665078D01*
X129425523Y-123593100D01*
X129384976Y-123517242D01*
X129336313Y-123356823D01*
X129319883Y-123190000D01*
X129336313Y-123023177D01*
X129384976Y-122862758D01*
X129463995Y-122714924D01*
X129463996Y-122714922D01*
X129570341Y-122585341D01*
X129699922Y-122478996D01*
X129715094Y-122470886D01*
X129847758Y-122399976D01*
X130008177Y-122351313D01*
X130133196Y-122339000D01*
X130216804Y-122339000D01*
X130341823Y-122351313D01*
X130341823Y-122351313D01*
G37*
G36*
X146298228Y-121736703D02*
G01*
X146453100Y-121800853D01*
X146592481Y-121893985D01*
X146711015Y-122012519D01*
X146804147Y-122151900D01*
X146868297Y-122306772D01*
X146901000Y-122471184D01*
X146901000Y-122638816D01*
X146868297Y-122803228D01*
X146804147Y-122958100D01*
X146711015Y-123097481D01*
X146592481Y-123216015D01*
X146453100Y-123309147D01*
X146298228Y-123373297D01*
X146133816Y-123406000D01*
X145966184Y-123406000D01*
X145801772Y-123373297D01*
X145646900Y-123309147D01*
X145507519Y-123216015D01*
X145388985Y-123097481D01*
X145295853Y-122958100D01*
X145231703Y-122803228D01*
X145199000Y-122638816D01*
X145199000Y-122471184D01*
X145231703Y-122306772D01*
X145295853Y-122151900D01*
X145388985Y-122012519D01*
X145507519Y-121893985D01*
X145646900Y-121800853D01*
X145801772Y-121736703D01*
X145966184Y-121704000D01*
X146133816Y-121704000D01*
X146298228Y-121736703D01*
X146298228Y-121736703D01*
G37*
G36*
X148798228Y-121736703D02*
G01*
X148953100Y-121800853D01*
X149092481Y-121893985D01*
X149211015Y-122012519D01*
X149304147Y-122151900D01*
X149368297Y-122306772D01*
X149401000Y-122471184D01*
X149401000Y-122638816D01*
X149368297Y-122803228D01*
X149304147Y-122958100D01*
X149211015Y-123097481D01*
X149092481Y-123216015D01*
X148953100Y-123309147D01*
X148798228Y-123373297D01*
X148633816Y-123406000D01*
X148466184Y-123406000D01*
X148301772Y-123373297D01*
X148146900Y-123309147D01*
X148007519Y-123216015D01*
X147888985Y-123097481D01*
X147795853Y-122958100D01*
X147731703Y-122803228D01*
X147699000Y-122638816D01*
X147699000Y-122471184D01*
X147731703Y-122306772D01*
X147795853Y-122151900D01*
X147888985Y-122012519D01*
X148007519Y-121893985D01*
X148146900Y-121800853D01*
X148301772Y-121736703D01*
X148466184Y-121704000D01*
X148633816Y-121704000D01*
X148798228Y-121736703D01*
X148798228Y-121736703D01*
G37*
G36*
X141853228Y-121736703D02*
G01*
X142008100Y-121800853D01*
X142147481Y-121893985D01*
X142266015Y-122012519D01*
X142359147Y-122151900D01*
X142423297Y-122306772D01*
X142456000Y-122471184D01*
X142456000Y-122638816D01*
X142423297Y-122803228D01*
X142359147Y-122958100D01*
X142266015Y-123097481D01*
X142147481Y-123216015D01*
X142008100Y-123309147D01*
X141853228Y-123373297D01*
X141688816Y-123406000D01*
X141521184Y-123406000D01*
X141356772Y-123373297D01*
X141201900Y-123309147D01*
X141062519Y-123216015D01*
X140943985Y-123097481D01*
X140850853Y-122958100D01*
X140786703Y-122803228D01*
X140754000Y-122638816D01*
X140754000Y-122471184D01*
X140786703Y-122306772D01*
X140850853Y-122151900D01*
X140943985Y-122012519D01*
X141062519Y-121893985D01*
X141201900Y-121800853D01*
X141356772Y-121736703D01*
X141521184Y-121704000D01*
X141688816Y-121704000D01*
X141853228Y-121736703D01*
X141853228Y-121736703D01*
G37*
G36*
X139353228Y-121736703D02*
G01*
X139508100Y-121800853D01*
X139647481Y-121893985D01*
X139766015Y-122012519D01*
X139859147Y-122151900D01*
X139923297Y-122306772D01*
X139956000Y-122471184D01*
X139956000Y-122638816D01*
X139923297Y-122803228D01*
X139859147Y-122958100D01*
X139766015Y-123097481D01*
X139647481Y-123216015D01*
X139508100Y-123309147D01*
X139353228Y-123373297D01*
X139188816Y-123406000D01*
X139021184Y-123406000D01*
X138856772Y-123373297D01*
X138701900Y-123309147D01*
X138562519Y-123216015D01*
X138443985Y-123097481D01*
X138350853Y-122958100D01*
X138286703Y-122803228D01*
X138254000Y-122638816D01*
X138254000Y-122471184D01*
X138286703Y-122306772D01*
X138350853Y-122151900D01*
X138443985Y-122012519D01*
X138562519Y-121893985D01*
X138701900Y-121800853D01*
X138856772Y-121736703D01*
X139021184Y-121704000D01*
X139188816Y-121704000D01*
X139353228Y-121736703D01*
X139353228Y-121736703D01*
G37*
G36*
X77636823Y-121081313D02*
G01*
X77797242Y-121129976D01*
X77864361Y-121165852D01*
X77945078Y-121208996D01*
X78074659Y-121315341D01*
X78181004Y-121444922D01*
X78181005Y-121444924D01*
X78260024Y-121592758D01*
X78308687Y-121753177D01*
X78325117Y-121920000D01*
X78308687Y-122086823D01*
X78260024Y-122247242D01*
X78219477Y-122323100D01*
X78181004Y-122395078D01*
X78074659Y-122524659D01*
X77945078Y-122631004D01*
X77945076Y-122631005D01*
X77797242Y-122710024D01*
X77636823Y-122758687D01*
X77511804Y-122771000D01*
X77428196Y-122771000D01*
X77303177Y-122758687D01*
X77142758Y-122710024D01*
X76994924Y-122631005D01*
X76994922Y-122631004D01*
X76865341Y-122524659D01*
X76758996Y-122395078D01*
X76720523Y-122323100D01*
X76679976Y-122247242D01*
X76631313Y-122086823D01*
X76614883Y-121920000D01*
X76631313Y-121753177D01*
X76679976Y-121592758D01*
X76758995Y-121444924D01*
X76758996Y-121444922D01*
X76865341Y-121315341D01*
X76994922Y-121208996D01*
X77075639Y-121165852D01*
X77142758Y-121129976D01*
X77303177Y-121081313D01*
X77428196Y-121069000D01*
X77511804Y-121069000D01*
X77636823Y-121081313D01*
X77636823Y-121081313D01*
G37*
G36*
X70098228Y-121101703D02*
G01*
X70253100Y-121165853D01*
X70392481Y-121258985D01*
X70511015Y-121377519D01*
X70604147Y-121516900D01*
X70668297Y-121671772D01*
X70701000Y-121836184D01*
X70701000Y-122003816D01*
X70668297Y-122168228D01*
X70604147Y-122323100D01*
X70511015Y-122462481D01*
X70392481Y-122581015D01*
X70253100Y-122674147D01*
X70098228Y-122738297D01*
X69933816Y-122771000D01*
X69766184Y-122771000D01*
X69601772Y-122738297D01*
X69446900Y-122674147D01*
X69307519Y-122581015D01*
X69188985Y-122462481D01*
X69095853Y-122323100D01*
X69031703Y-122168228D01*
X68999000Y-122003816D01*
X68999000Y-121836184D01*
X69031703Y-121671772D01*
X69095853Y-121516900D01*
X69188985Y-121377519D01*
X69307519Y-121258985D01*
X69446900Y-121165853D01*
X69601772Y-121101703D01*
X69766184Y-121069000D01*
X69933816Y-121069000D01*
X70098228Y-121101703D01*
X70098228Y-121101703D01*
G37*
G36*
X67598228Y-121101703D02*
G01*
X67753100Y-121165853D01*
X67892481Y-121258985D01*
X68011015Y-121377519D01*
X68104147Y-121516900D01*
X68168297Y-121671772D01*
X68201000Y-121836184D01*
X68201000Y-122003816D01*
X68168297Y-122168228D01*
X68104147Y-122323100D01*
X68011015Y-122462481D01*
X67892481Y-122581015D01*
X67753100Y-122674147D01*
X67598228Y-122738297D01*
X67433816Y-122771000D01*
X67266184Y-122771000D01*
X67101772Y-122738297D01*
X66946900Y-122674147D01*
X66807519Y-122581015D01*
X66688985Y-122462481D01*
X66595853Y-122323100D01*
X66531703Y-122168228D01*
X66499000Y-122003816D01*
X66499000Y-121836184D01*
X66531703Y-121671772D01*
X66595853Y-121516900D01*
X66688985Y-121377519D01*
X66807519Y-121258985D01*
X66946900Y-121165853D01*
X67101772Y-121101703D01*
X67266184Y-121069000D01*
X67433816Y-121069000D01*
X67598228Y-121101703D01*
X67598228Y-121101703D01*
G37*
G36*
X64343228Y-121101703D02*
G01*
X64498100Y-121165853D01*
X64637481Y-121258985D01*
X64756015Y-121377519D01*
X64849147Y-121516900D01*
X64913297Y-121671772D01*
X64946000Y-121836184D01*
X64946000Y-122003816D01*
X64913297Y-122168228D01*
X64849147Y-122323100D01*
X64756015Y-122462481D01*
X64637481Y-122581015D01*
X64498100Y-122674147D01*
X64343228Y-122738297D01*
X64178816Y-122771000D01*
X64011184Y-122771000D01*
X63846772Y-122738297D01*
X63691900Y-122674147D01*
X63552519Y-122581015D01*
X63433985Y-122462481D01*
X63340853Y-122323100D01*
X63276703Y-122168228D01*
X63244000Y-122003816D01*
X63244000Y-121836184D01*
X63276703Y-121671772D01*
X63340853Y-121516900D01*
X63433985Y-121377519D01*
X63552519Y-121258985D01*
X63691900Y-121165853D01*
X63846772Y-121101703D01*
X64011184Y-121069000D01*
X64178816Y-121069000D01*
X64343228Y-121101703D01*
X64343228Y-121101703D01*
G37*
G36*
X61843228Y-121101703D02*
G01*
X61998100Y-121165853D01*
X62137481Y-121258985D01*
X62256015Y-121377519D01*
X62349147Y-121516900D01*
X62413297Y-121671772D01*
X62446000Y-121836184D01*
X62446000Y-122003816D01*
X62413297Y-122168228D01*
X62349147Y-122323100D01*
X62256015Y-122462481D01*
X62137481Y-122581015D01*
X61998100Y-122674147D01*
X61843228Y-122738297D01*
X61678816Y-122771000D01*
X61511184Y-122771000D01*
X61346772Y-122738297D01*
X61191900Y-122674147D01*
X61052519Y-122581015D01*
X60933985Y-122462481D01*
X60840853Y-122323100D01*
X60776703Y-122168228D01*
X60744000Y-122003816D01*
X60744000Y-121836184D01*
X60776703Y-121671772D01*
X60840853Y-121516900D01*
X60933985Y-121377519D01*
X61052519Y-121258985D01*
X61191900Y-121165853D01*
X61346772Y-121101703D01*
X61511184Y-121069000D01*
X61678816Y-121069000D01*
X61843228Y-121101703D01*
X61843228Y-121101703D01*
G37*
G36*
X120031000Y-121640109D02*
G01*
X120033402Y-121664495D01*
X120040515Y-121687944D01*
X120052066Y-121709555D01*
X120067611Y-121728497D01*
X120086553Y-121744042D01*
X120108164Y-121755593D01*
X120131613Y-121762706D01*
X120155999Y-121765108D01*
X120180385Y-121762706D01*
X120203834Y-121755593D01*
X120225445Y-121744042D01*
X120244387Y-121728497D01*
X120259932Y-121709555D01*
X120271483Y-121687944D01*
X120303090Y-121611638D01*
X120374335Y-121505012D01*
X120465012Y-121414335D01*
X120571636Y-121343091D01*
X120690110Y-121294017D01*
X120815881Y-121269000D01*
X120944119Y-121269000D01*
X121069890Y-121294017D01*
X121188364Y-121343091D01*
X121294988Y-121414335D01*
X121385665Y-121505012D01*
X121456910Y-121611638D01*
X121505983Y-121730110D01*
X121531000Y-121855881D01*
X121531000Y-121984119D01*
X121505983Y-122109890D01*
X121488581Y-122151903D01*
X121456909Y-122228364D01*
X121385665Y-122334988D01*
X121294988Y-122425665D01*
X121188364Y-122496909D01*
X121188363Y-122496910D01*
X121188362Y-122496910D01*
X121069890Y-122545983D01*
X120944119Y-122571000D01*
X120815881Y-122571000D01*
X120690110Y-122545983D01*
X120571638Y-122496910D01*
X120571637Y-122496910D01*
X120571636Y-122496909D01*
X120465012Y-122425665D01*
X120374335Y-122334988D01*
X120303091Y-122228364D01*
X120271483Y-122152055D01*
X120259932Y-122130445D01*
X120244387Y-122111503D01*
X120225445Y-122095958D01*
X120203834Y-122084407D01*
X120180385Y-122077294D01*
X120155999Y-122074892D01*
X120131613Y-122077294D01*
X120108164Y-122084407D01*
X120086553Y-122095958D01*
X120067611Y-122111503D01*
X120052066Y-122130445D01*
X120040515Y-122152056D01*
X120033402Y-122175505D01*
X120031000Y-122199891D01*
X120031000Y-122571000D01*
X118729000Y-122571000D01*
X118729000Y-121269000D01*
X120031000Y-121269000D01*
X120031000Y-121640109D01*
X120031000Y-121640109D01*
G37*
G36*
X125111000Y-121640109D02*
G01*
X125113402Y-121664495D01*
X125120515Y-121687944D01*
X125132066Y-121709555D01*
X125147611Y-121728497D01*
X125166553Y-121744042D01*
X125188164Y-121755593D01*
X125211613Y-121762706D01*
X125235999Y-121765108D01*
X125260385Y-121762706D01*
X125283834Y-121755593D01*
X125305445Y-121744042D01*
X125324387Y-121728497D01*
X125339932Y-121709555D01*
X125351483Y-121687944D01*
X125383090Y-121611638D01*
X125454335Y-121505012D01*
X125545012Y-121414335D01*
X125651636Y-121343091D01*
X125770110Y-121294017D01*
X125895881Y-121269000D01*
X126024119Y-121269000D01*
X126149890Y-121294017D01*
X126268364Y-121343091D01*
X126374988Y-121414335D01*
X126465665Y-121505012D01*
X126536910Y-121611638D01*
X126585983Y-121730110D01*
X126611000Y-121855881D01*
X126611000Y-121984119D01*
X126585983Y-122109890D01*
X126568581Y-122151903D01*
X126536909Y-122228364D01*
X126465665Y-122334988D01*
X126374988Y-122425665D01*
X126268364Y-122496909D01*
X126268363Y-122496910D01*
X126268362Y-122496910D01*
X126149890Y-122545983D01*
X126024119Y-122571000D01*
X125895881Y-122571000D01*
X125770110Y-122545983D01*
X125651638Y-122496910D01*
X125651637Y-122496910D01*
X125651636Y-122496909D01*
X125545012Y-122425665D01*
X125454335Y-122334988D01*
X125383091Y-122228364D01*
X125351483Y-122152055D01*
X125339932Y-122130445D01*
X125324387Y-122111503D01*
X125305445Y-122095958D01*
X125283834Y-122084407D01*
X125260385Y-122077294D01*
X125235999Y-122074892D01*
X125211613Y-122077294D01*
X125188164Y-122084407D01*
X125166553Y-122095958D01*
X125147611Y-122111503D01*
X125132066Y-122130445D01*
X125120515Y-122152056D01*
X125113402Y-122175505D01*
X125111000Y-122199891D01*
X125111000Y-122571000D01*
X123809000Y-122571000D01*
X123809000Y-121269000D01*
X125111000Y-121269000D01*
X125111000Y-121640109D01*
X125111000Y-121640109D01*
G37*
G36*
X109434914Y-119306514D02*
G01*
X109434916Y-119306515D01*
X109434917Y-119306515D01*
X109569006Y-119362056D01*
X109689683Y-119442690D01*
X109792310Y-119545317D01*
X109872944Y-119665994D01*
X109928485Y-119800083D01*
X109956800Y-119942432D01*
X109956800Y-120087568D01*
X109928485Y-120229917D01*
X109872944Y-120364006D01*
X109792310Y-120484683D01*
X109689683Y-120587310D01*
X109569006Y-120667944D01*
X109434917Y-120723485D01*
X109434916Y-120723485D01*
X109434914Y-120723486D01*
X109292570Y-120751800D01*
X109147430Y-120751800D01*
X109005086Y-120723486D01*
X109005084Y-120723485D01*
X109005083Y-120723485D01*
X108870994Y-120667944D01*
X108750317Y-120587310D01*
X108647690Y-120484683D01*
X108567056Y-120364006D01*
X108511515Y-120229917D01*
X108483200Y-120087568D01*
X108483200Y-119942432D01*
X108511515Y-119800083D01*
X108567056Y-119665994D01*
X108647690Y-119545317D01*
X108750317Y-119442690D01*
X108870994Y-119362056D01*
X109005083Y-119306515D01*
X109005084Y-119306515D01*
X109005086Y-119306514D01*
X109147430Y-119278200D01*
X109292570Y-119278200D01*
X109434914Y-119306514D01*
X109434914Y-119306514D01*
G37*
G36*
X114514914Y-119306514D02*
G01*
X114514916Y-119306515D01*
X114514917Y-119306515D01*
X114649006Y-119362056D01*
X114769683Y-119442690D01*
X114872310Y-119545317D01*
X114952944Y-119665994D01*
X115008485Y-119800083D01*
X115036800Y-119942432D01*
X115036800Y-120087568D01*
X115008485Y-120229917D01*
X114952944Y-120364006D01*
X114872310Y-120484683D01*
X114769683Y-120587310D01*
X114649006Y-120667944D01*
X114514917Y-120723485D01*
X114514916Y-120723485D01*
X114514914Y-120723486D01*
X114372570Y-120751800D01*
X114227430Y-120751800D01*
X114085086Y-120723486D01*
X114085084Y-120723485D01*
X114085083Y-120723485D01*
X113950994Y-120667944D01*
X113830317Y-120587310D01*
X113727690Y-120484683D01*
X113647056Y-120364006D01*
X113591515Y-120229917D01*
X113563200Y-120087568D01*
X113563200Y-119942432D01*
X113591515Y-119800083D01*
X113647056Y-119665994D01*
X113727690Y-119545317D01*
X113830317Y-119442690D01*
X113950994Y-119362056D01*
X114085083Y-119306515D01*
X114085084Y-119306515D01*
X114085086Y-119306514D01*
X114227430Y-119278200D01*
X114372570Y-119278200D01*
X114514914Y-119306514D01*
X114514914Y-119306514D01*
G37*
G36*
X111974914Y-119306514D02*
G01*
X111974916Y-119306515D01*
X111974917Y-119306515D01*
X112109006Y-119362056D01*
X112229683Y-119442690D01*
X112332310Y-119545317D01*
X112412944Y-119665994D01*
X112468485Y-119800083D01*
X112496800Y-119942432D01*
X112496800Y-120087568D01*
X112468485Y-120229917D01*
X112412944Y-120364006D01*
X112332310Y-120484683D01*
X112229683Y-120587310D01*
X112109006Y-120667944D01*
X111974917Y-120723485D01*
X111974916Y-120723485D01*
X111974914Y-120723486D01*
X111832570Y-120751800D01*
X111687430Y-120751800D01*
X111545086Y-120723486D01*
X111545084Y-120723485D01*
X111545083Y-120723485D01*
X111410994Y-120667944D01*
X111290317Y-120587310D01*
X111187690Y-120484683D01*
X111107056Y-120364006D01*
X111051515Y-120229917D01*
X111023200Y-120087568D01*
X111023200Y-119942432D01*
X111051515Y-119800083D01*
X111107056Y-119665994D01*
X111187690Y-119545317D01*
X111290317Y-119442690D01*
X111410994Y-119362056D01*
X111545083Y-119306515D01*
X111545084Y-119306515D01*
X111545086Y-119306514D01*
X111687430Y-119278200D01*
X111832570Y-119278200D01*
X111974914Y-119306514D01*
X111974914Y-119306514D01*
G37*
G36*
X106894914Y-119306514D02*
G01*
X106894916Y-119306515D01*
X106894917Y-119306515D01*
X107029006Y-119362056D01*
X107149683Y-119442690D01*
X107252310Y-119545317D01*
X107332944Y-119665994D01*
X107388485Y-119800083D01*
X107416800Y-119942432D01*
X107416800Y-120087568D01*
X107388485Y-120229917D01*
X107332944Y-120364006D01*
X107252310Y-120484683D01*
X107149683Y-120587310D01*
X107029006Y-120667944D01*
X106894917Y-120723485D01*
X106894916Y-120723485D01*
X106894914Y-120723486D01*
X106752570Y-120751800D01*
X106607430Y-120751800D01*
X106465086Y-120723486D01*
X106465084Y-120723485D01*
X106465083Y-120723485D01*
X106330994Y-120667944D01*
X106210317Y-120587310D01*
X106107690Y-120484683D01*
X106027056Y-120364006D01*
X105971515Y-120229917D01*
X105943200Y-120087568D01*
X105943200Y-119942432D01*
X105971515Y-119800083D01*
X106027056Y-119665994D01*
X106107690Y-119545317D01*
X106210317Y-119442690D01*
X106330994Y-119362056D01*
X106465083Y-119306515D01*
X106465084Y-119306515D01*
X106465086Y-119306514D01*
X106607430Y-119278200D01*
X106752570Y-119278200D01*
X106894914Y-119306514D01*
X106894914Y-119306514D01*
G37*
G36*
X85293803Y-119343150D02*
G01*
X85420959Y-119395820D01*
X85535395Y-119472284D01*
X85632716Y-119569605D01*
X85709180Y-119684041D01*
X85761850Y-119811197D01*
X85788700Y-119946184D01*
X85788700Y-120083816D01*
X85761850Y-120218803D01*
X85709180Y-120345959D01*
X85632716Y-120460395D01*
X85535395Y-120557716D01*
X85420959Y-120634180D01*
X85420958Y-120634181D01*
X85420957Y-120634181D01*
X85293803Y-120686850D01*
X85158817Y-120713700D01*
X85021183Y-120713700D01*
X84886197Y-120686850D01*
X84759043Y-120634181D01*
X84759042Y-120634181D01*
X84759041Y-120634180D01*
X84644605Y-120557716D01*
X84547284Y-120460395D01*
X84470820Y-120345959D01*
X84418150Y-120218803D01*
X84391300Y-120083816D01*
X84391300Y-119946184D01*
X84418150Y-119811197D01*
X84470820Y-119684041D01*
X84547284Y-119569605D01*
X84644605Y-119472284D01*
X84759041Y-119395820D01*
X84886197Y-119343150D01*
X85021183Y-119316300D01*
X85158817Y-119316300D01*
X85293803Y-119343150D01*
X85293803Y-119343150D01*
G37*
G36*
X87833803Y-119343150D02*
G01*
X87960959Y-119395820D01*
X88075395Y-119472284D01*
X88172716Y-119569605D01*
X88249180Y-119684041D01*
X88301850Y-119811197D01*
X88328700Y-119946184D01*
X88328700Y-120083816D01*
X88301850Y-120218803D01*
X88249180Y-120345959D01*
X88172716Y-120460395D01*
X88075395Y-120557716D01*
X87960959Y-120634180D01*
X87960958Y-120634181D01*
X87960957Y-120634181D01*
X87833803Y-120686850D01*
X87698817Y-120713700D01*
X87561183Y-120713700D01*
X87426197Y-120686850D01*
X87299043Y-120634181D01*
X87299042Y-120634181D01*
X87299041Y-120634180D01*
X87184605Y-120557716D01*
X87087284Y-120460395D01*
X87010820Y-120345959D01*
X86958150Y-120218803D01*
X86931300Y-120083816D01*
X86931300Y-119946184D01*
X86958150Y-119811197D01*
X87010820Y-119684041D01*
X87087284Y-119569605D01*
X87184605Y-119472284D01*
X87299041Y-119395820D01*
X87426197Y-119343150D01*
X87561183Y-119316300D01*
X87698817Y-119316300D01*
X87833803Y-119343150D01*
X87833803Y-119343150D01*
G37*
G36*
X90373803Y-119343150D02*
G01*
X90500959Y-119395820D01*
X90615395Y-119472284D01*
X90712716Y-119569605D01*
X90789180Y-119684041D01*
X90841850Y-119811197D01*
X90868700Y-119946184D01*
X90868700Y-120083816D01*
X90841850Y-120218803D01*
X90789180Y-120345959D01*
X90712716Y-120460395D01*
X90615395Y-120557716D01*
X90500959Y-120634180D01*
X90500958Y-120634181D01*
X90500957Y-120634181D01*
X90373803Y-120686850D01*
X90238817Y-120713700D01*
X90101183Y-120713700D01*
X89966197Y-120686850D01*
X89839043Y-120634181D01*
X89839042Y-120634181D01*
X89839041Y-120634180D01*
X89724605Y-120557716D01*
X89627284Y-120460395D01*
X89550820Y-120345959D01*
X89498150Y-120218803D01*
X89471300Y-120083816D01*
X89471300Y-119946184D01*
X89498150Y-119811197D01*
X89550820Y-119684041D01*
X89627284Y-119569605D01*
X89724605Y-119472284D01*
X89839041Y-119395820D01*
X89966197Y-119343150D01*
X90101183Y-119316300D01*
X90238817Y-119316300D01*
X90373803Y-119343150D01*
X90373803Y-119343150D01*
G37*
G36*
X92913803Y-119343150D02*
G01*
X93040959Y-119395820D01*
X93155395Y-119472284D01*
X93252716Y-119569605D01*
X93329180Y-119684041D01*
X93381850Y-119811197D01*
X93408700Y-119946184D01*
X93408700Y-120083816D01*
X93381850Y-120218803D01*
X93329180Y-120345959D01*
X93252716Y-120460395D01*
X93155395Y-120557716D01*
X93040959Y-120634180D01*
X93040958Y-120634181D01*
X93040957Y-120634181D01*
X92913803Y-120686850D01*
X92778817Y-120713700D01*
X92641183Y-120713700D01*
X92506197Y-120686850D01*
X92379043Y-120634181D01*
X92379042Y-120634181D01*
X92379041Y-120634180D01*
X92264605Y-120557716D01*
X92167284Y-120460395D01*
X92090820Y-120345959D01*
X92038150Y-120218803D01*
X92011300Y-120083816D01*
X92011300Y-119946184D01*
X92038150Y-119811197D01*
X92090820Y-119684041D01*
X92167284Y-119569605D01*
X92264605Y-119472284D01*
X92379041Y-119395820D01*
X92506197Y-119343150D01*
X92641183Y-119316300D01*
X92778817Y-119316300D01*
X92913803Y-119343150D01*
X92913803Y-119343150D01*
G37*
G36*
X95453803Y-119343150D02*
G01*
X95580959Y-119395820D01*
X95695395Y-119472284D01*
X95792716Y-119569605D01*
X95869180Y-119684041D01*
X95921850Y-119811197D01*
X95948700Y-119946184D01*
X95948700Y-120083816D01*
X95921850Y-120218803D01*
X95869180Y-120345959D01*
X95792716Y-120460395D01*
X95695395Y-120557716D01*
X95580959Y-120634180D01*
X95580958Y-120634181D01*
X95580957Y-120634181D01*
X95453803Y-120686850D01*
X95318817Y-120713700D01*
X95181183Y-120713700D01*
X95046197Y-120686850D01*
X94919043Y-120634181D01*
X94919042Y-120634181D01*
X94919041Y-120634180D01*
X94804605Y-120557716D01*
X94707284Y-120460395D01*
X94630820Y-120345959D01*
X94578150Y-120218803D01*
X94551300Y-120083816D01*
X94551300Y-119946184D01*
X94578150Y-119811197D01*
X94630820Y-119684041D01*
X94707284Y-119569605D01*
X94804605Y-119472284D01*
X94919041Y-119395820D01*
X95046197Y-119343150D01*
X95181183Y-119316300D01*
X95318817Y-119316300D01*
X95453803Y-119343150D01*
X95453803Y-119343150D01*
G37*
G36*
X97993803Y-119343150D02*
G01*
X98120959Y-119395820D01*
X98235395Y-119472284D01*
X98332716Y-119569605D01*
X98409180Y-119684041D01*
X98461850Y-119811197D01*
X98488700Y-119946184D01*
X98488700Y-120083816D01*
X98461850Y-120218803D01*
X98409180Y-120345959D01*
X98332716Y-120460395D01*
X98235395Y-120557716D01*
X98120959Y-120634180D01*
X98120958Y-120634181D01*
X98120957Y-120634181D01*
X97993803Y-120686850D01*
X97858817Y-120713700D01*
X97721183Y-120713700D01*
X97586197Y-120686850D01*
X97459043Y-120634181D01*
X97459042Y-120634181D01*
X97459041Y-120634180D01*
X97344605Y-120557716D01*
X97247284Y-120460395D01*
X97170820Y-120345959D01*
X97118150Y-120218803D01*
X97091300Y-120083816D01*
X97091300Y-119946184D01*
X97118150Y-119811197D01*
X97170820Y-119684041D01*
X97247284Y-119569605D01*
X97344605Y-119472284D01*
X97459041Y-119395820D01*
X97586197Y-119343150D01*
X97721183Y-119316300D01*
X97858817Y-119316300D01*
X97993803Y-119343150D01*
X97993803Y-119343150D01*
G37*
G36*
X82753803Y-119343150D02*
G01*
X82880959Y-119395820D01*
X82995395Y-119472284D01*
X83092716Y-119569605D01*
X83169180Y-119684041D01*
X83221850Y-119811197D01*
X83248700Y-119946184D01*
X83248700Y-120083816D01*
X83221850Y-120218803D01*
X83169180Y-120345959D01*
X83092716Y-120460395D01*
X82995395Y-120557716D01*
X82880959Y-120634180D01*
X82880958Y-120634181D01*
X82880957Y-120634181D01*
X82753803Y-120686850D01*
X82618817Y-120713700D01*
X82481183Y-120713700D01*
X82346197Y-120686850D01*
X82219043Y-120634181D01*
X82219042Y-120634181D01*
X82219041Y-120634180D01*
X82104605Y-120557716D01*
X82007284Y-120460395D01*
X81930820Y-120345959D01*
X81878150Y-120218803D01*
X81851300Y-120083816D01*
X81851300Y-119946184D01*
X81878150Y-119811197D01*
X81930820Y-119684041D01*
X82007284Y-119569605D01*
X82104605Y-119472284D01*
X82219041Y-119395820D01*
X82346197Y-119343150D01*
X82481183Y-119316300D01*
X82618817Y-119316300D01*
X82753803Y-119343150D01*
X82753803Y-119343150D01*
G37*
G36*
X64343228Y-117926703D02*
G01*
X64498100Y-117990853D01*
X64637481Y-118083985D01*
X64756015Y-118202519D01*
X64849147Y-118341900D01*
X64913297Y-118496772D01*
X64946000Y-118661184D01*
X64946000Y-118828816D01*
X64913297Y-118993228D01*
X64849147Y-119148100D01*
X64756015Y-119287481D01*
X64637481Y-119406015D01*
X64498100Y-119499147D01*
X64343228Y-119563297D01*
X64178816Y-119596000D01*
X64011184Y-119596000D01*
X63846772Y-119563297D01*
X63691900Y-119499147D01*
X63552519Y-119406015D01*
X63433985Y-119287481D01*
X63340853Y-119148100D01*
X63276703Y-118993228D01*
X63244000Y-118828816D01*
X63244000Y-118661184D01*
X63276703Y-118496772D01*
X63340853Y-118341900D01*
X63433985Y-118202519D01*
X63552519Y-118083985D01*
X63691900Y-117990853D01*
X63846772Y-117926703D01*
X64011184Y-117894000D01*
X64178816Y-117894000D01*
X64343228Y-117926703D01*
X64343228Y-117926703D01*
G37*
G36*
X61843228Y-117926703D02*
G01*
X61998100Y-117990853D01*
X62137481Y-118083985D01*
X62256015Y-118202519D01*
X62349147Y-118341900D01*
X62413297Y-118496772D01*
X62446000Y-118661184D01*
X62446000Y-118828816D01*
X62413297Y-118993228D01*
X62349147Y-119148100D01*
X62256015Y-119287481D01*
X62137481Y-119406015D01*
X61998100Y-119499147D01*
X61843228Y-119563297D01*
X61678816Y-119596000D01*
X61511184Y-119596000D01*
X61346772Y-119563297D01*
X61191900Y-119499147D01*
X61052519Y-119406015D01*
X60933985Y-119287481D01*
X60840853Y-119148100D01*
X60776703Y-118993228D01*
X60744000Y-118828816D01*
X60744000Y-118661184D01*
X60776703Y-118496772D01*
X60840853Y-118341900D01*
X60933985Y-118202519D01*
X61052519Y-118083985D01*
X61191900Y-117990853D01*
X61346772Y-117926703D01*
X61511184Y-117894000D01*
X61678816Y-117894000D01*
X61843228Y-117926703D01*
X61843228Y-117926703D01*
G37*
G36*
X54724038Y-115466062D02*
G01*
X54858657Y-115492839D01*
X54964097Y-115536514D01*
X55113621Y-115598449D01*
X55187525Y-115647830D01*
X55343086Y-115751772D01*
X55538228Y-115946914D01*
X55618474Y-116067012D01*
X55691551Y-116176379D01*
X55752759Y-116324147D01*
X55794539Y-116425012D01*
X55797161Y-116431344D01*
X55851000Y-116702012D01*
X55851000Y-116977988D01*
X55827111Y-117098085D01*
X55797161Y-117248657D01*
X55778699Y-117293228D01*
X55691551Y-117503621D01*
X55657790Y-117554148D01*
X55538228Y-117733086D01*
X55343086Y-117928228D01*
X55263276Y-117981555D01*
X55113621Y-118081551D01*
X55035207Y-118114031D01*
X54858657Y-118187161D01*
X54781446Y-118202519D01*
X54587988Y-118241000D01*
X54312012Y-118241000D01*
X54118554Y-118202519D01*
X54041343Y-118187161D01*
X53864793Y-118114031D01*
X53786379Y-118081551D01*
X53636724Y-117981555D01*
X53556914Y-117928228D01*
X53361772Y-117733086D01*
X53242210Y-117554148D01*
X53208449Y-117503621D01*
X53121301Y-117293228D01*
X53102839Y-117248657D01*
X53072889Y-117098085D01*
X53049000Y-116977988D01*
X53049000Y-116702012D01*
X53102839Y-116431344D01*
X53105462Y-116425012D01*
X53147241Y-116324147D01*
X53208449Y-116176379D01*
X53281526Y-116067012D01*
X53361772Y-115946914D01*
X53556914Y-115751772D01*
X53712475Y-115647830D01*
X53786379Y-115598449D01*
X53935903Y-115536514D01*
X54041343Y-115492839D01*
X54175962Y-115466062D01*
X54312012Y-115439000D01*
X54587988Y-115439000D01*
X54724038Y-115466062D01*
X54724038Y-115466062D01*
G37*
G36*
X49724038Y-115466062D02*
G01*
X49858657Y-115492839D01*
X49964097Y-115536514D01*
X50113621Y-115598449D01*
X50187525Y-115647830D01*
X50343086Y-115751772D01*
X50538228Y-115946914D01*
X50618474Y-116067012D01*
X50691551Y-116176379D01*
X50752759Y-116324147D01*
X50794539Y-116425012D01*
X50797161Y-116431344D01*
X50851000Y-116702012D01*
X50851000Y-116977988D01*
X50827111Y-117098085D01*
X50797161Y-117248657D01*
X50778699Y-117293228D01*
X50691551Y-117503621D01*
X50657790Y-117554148D01*
X50538228Y-117733086D01*
X50343086Y-117928228D01*
X50263276Y-117981555D01*
X50113621Y-118081551D01*
X50035207Y-118114031D01*
X49858657Y-118187161D01*
X49781446Y-118202519D01*
X49587988Y-118241000D01*
X49312012Y-118241000D01*
X49118554Y-118202519D01*
X49041343Y-118187161D01*
X48864793Y-118114031D01*
X48786379Y-118081551D01*
X48636724Y-117981555D01*
X48556914Y-117928228D01*
X48361772Y-117733086D01*
X48242210Y-117554148D01*
X48208449Y-117503621D01*
X48121301Y-117293228D01*
X48102839Y-117248657D01*
X48072889Y-117098085D01*
X48049000Y-116977988D01*
X48049000Y-116702012D01*
X48102839Y-116431344D01*
X48105462Y-116425012D01*
X48147241Y-116324147D01*
X48208449Y-116176379D01*
X48281526Y-116067012D01*
X48361772Y-115946914D01*
X48556914Y-115751772D01*
X48712475Y-115647830D01*
X48786379Y-115598449D01*
X48935903Y-115536514D01*
X49041343Y-115492839D01*
X49175962Y-115466062D01*
X49312012Y-115439000D01*
X49587988Y-115439000D01*
X49724038Y-115466062D01*
X49724038Y-115466062D01*
G37*
G36*
X45724031Y-115442621D02*
G01*
X45753486Y-115451556D01*
X45780623Y-115466062D01*
X45804414Y-115485586D01*
X45823938Y-115509377D01*
X45838444Y-115536514D01*
X45847379Y-115565969D01*
X45851000Y-115602734D01*
X45851000Y-118077266D01*
X45847379Y-118114031D01*
X45838444Y-118143486D01*
X45823938Y-118170623D01*
X45804414Y-118194414D01*
X45780623Y-118213938D01*
X45753486Y-118228444D01*
X45724031Y-118237379D01*
X45687266Y-118241000D01*
X43212734Y-118241000D01*
X43175969Y-118237379D01*
X43146514Y-118228444D01*
X43119377Y-118213938D01*
X43095586Y-118194414D01*
X43076062Y-118170623D01*
X43061556Y-118143486D01*
X43052621Y-118114031D01*
X43049000Y-118077266D01*
X43049000Y-115602734D01*
X43052621Y-115565969D01*
X43061556Y-115536514D01*
X43076062Y-115509377D01*
X43095586Y-115485586D01*
X43119377Y-115466062D01*
X43146514Y-115451556D01*
X43175969Y-115442621D01*
X43212734Y-115439000D01*
X45687266Y-115439000D01*
X45724031Y-115442621D01*
X45724031Y-115442621D01*
G37*
G36*
X102483228Y-115981703D02*
G01*
X102638100Y-116045853D01*
X102777481Y-116138985D01*
X102896015Y-116257519D01*
X102989147Y-116396900D01*
X103053297Y-116551772D01*
X103086000Y-116716184D01*
X103086000Y-116883816D01*
X103053297Y-117048228D01*
X102989147Y-117203100D01*
X102896015Y-117342481D01*
X102777481Y-117461015D01*
X102638100Y-117554147D01*
X102483228Y-117618297D01*
X102318816Y-117651000D01*
X102151184Y-117651000D01*
X101986772Y-117618297D01*
X101831900Y-117554147D01*
X101692519Y-117461015D01*
X101573985Y-117342481D01*
X101480853Y-117203100D01*
X101416703Y-117048228D01*
X101384000Y-116883816D01*
X101384000Y-116716184D01*
X101416703Y-116551772D01*
X101480853Y-116396900D01*
X101573985Y-116257519D01*
X101692519Y-116138985D01*
X101831900Y-116045853D01*
X101986772Y-115981703D01*
X102151184Y-115949000D01*
X102318816Y-115949000D01*
X102483228Y-115981703D01*
X102483228Y-115981703D01*
G37*
G36*
X145974031Y-114807621D02*
G01*
X146003486Y-114816556D01*
X146030623Y-114831062D01*
X146054414Y-114850586D01*
X146073938Y-114874377D01*
X146088444Y-114901514D01*
X146097379Y-114930969D01*
X146101000Y-114967734D01*
X146101000Y-117442266D01*
X146097379Y-117479031D01*
X146088444Y-117508486D01*
X146073938Y-117535623D01*
X146054414Y-117559414D01*
X146030623Y-117578938D01*
X146003486Y-117593444D01*
X145974031Y-117602379D01*
X145937266Y-117606000D01*
X143462734Y-117606000D01*
X143425969Y-117602379D01*
X143396514Y-117593444D01*
X143369377Y-117578938D01*
X143345586Y-117559414D01*
X143326062Y-117535623D01*
X143311556Y-117508486D01*
X143302621Y-117479031D01*
X143299000Y-117442266D01*
X143299000Y-114967734D01*
X143302621Y-114930969D01*
X143311556Y-114901514D01*
X143326062Y-114874377D01*
X143345586Y-114850586D01*
X143369377Y-114831062D01*
X143396514Y-114816556D01*
X143425969Y-114807621D01*
X143462734Y-114804000D01*
X145937266Y-114804000D01*
X145974031Y-114807621D01*
X145974031Y-114807621D01*
G37*
G36*
X162564031Y-114807621D02*
G01*
X162593486Y-114816556D01*
X162620623Y-114831062D01*
X162644414Y-114850586D01*
X162663938Y-114874377D01*
X162678444Y-114901514D01*
X162687379Y-114930969D01*
X162691000Y-114967734D01*
X162691000Y-117442266D01*
X162687379Y-117479031D01*
X162678444Y-117508486D01*
X162663938Y-117535623D01*
X162644414Y-117559414D01*
X162620623Y-117578938D01*
X162593486Y-117593444D01*
X162564031Y-117602379D01*
X162527266Y-117606000D01*
X160052734Y-117606000D01*
X160015969Y-117602379D01*
X159986514Y-117593444D01*
X159959377Y-117578938D01*
X159935586Y-117559414D01*
X159916062Y-117535623D01*
X159901556Y-117508486D01*
X159892621Y-117479031D01*
X159889000Y-117442266D01*
X159889000Y-114967734D01*
X159892621Y-114930969D01*
X159901556Y-114901514D01*
X159916062Y-114874377D01*
X159935586Y-114850586D01*
X159959377Y-114831062D01*
X159986514Y-114816556D01*
X160015969Y-114807621D01*
X160052734Y-114804000D01*
X162527266Y-114804000D01*
X162564031Y-114807621D01*
X162564031Y-114807621D01*
G37*
G36*
X139974038Y-114831062D02*
G01*
X140108657Y-114857839D01*
X140214097Y-114901514D01*
X140363621Y-114963449D01*
X140437525Y-115012830D01*
X140593086Y-115116772D01*
X140788228Y-115311914D01*
X140873144Y-115439000D01*
X140941551Y-115541379D01*
X140988124Y-115653816D01*
X141022508Y-115736825D01*
X141047161Y-115796344D01*
X141101000Y-116067012D01*
X141101000Y-116342988D01*
X141084684Y-116425012D01*
X141047161Y-116613657D01*
X141004692Y-116716185D01*
X140941551Y-116868621D01*
X140917832Y-116904119D01*
X140788228Y-117098086D01*
X140593086Y-117293228D01*
X140519373Y-117342481D01*
X140363621Y-117446551D01*
X140225842Y-117503621D01*
X140108657Y-117552161D01*
X140018433Y-117570107D01*
X139837988Y-117606000D01*
X139562012Y-117606000D01*
X139381567Y-117570107D01*
X139291343Y-117552161D01*
X139174158Y-117503621D01*
X139036379Y-117446551D01*
X138880627Y-117342481D01*
X138806914Y-117293228D01*
X138611772Y-117098086D01*
X138482168Y-116904119D01*
X138458449Y-116868621D01*
X138395308Y-116716185D01*
X138352839Y-116613657D01*
X138315316Y-116425012D01*
X138299000Y-116342988D01*
X138299000Y-116067012D01*
X138352839Y-115796344D01*
X138377493Y-115736825D01*
X138411876Y-115653816D01*
X138458449Y-115541379D01*
X138526856Y-115439000D01*
X138611772Y-115311914D01*
X138806914Y-115116772D01*
X138962475Y-115012830D01*
X139036379Y-114963449D01*
X139185903Y-114901514D01*
X139291343Y-114857839D01*
X139425962Y-114831062D01*
X139562012Y-114804000D01*
X139837988Y-114804000D01*
X139974038Y-114831062D01*
X139974038Y-114831062D01*
G37*
G36*
X156564038Y-114831062D02*
G01*
X156698657Y-114857839D01*
X156804097Y-114901514D01*
X156953621Y-114963449D01*
X157027525Y-115012830D01*
X157183086Y-115116772D01*
X157378228Y-115311914D01*
X157463144Y-115439000D01*
X157531551Y-115541379D01*
X157578124Y-115653816D01*
X157612508Y-115736825D01*
X157637161Y-115796344D01*
X157691000Y-116067012D01*
X157691000Y-116342988D01*
X157674684Y-116425012D01*
X157637161Y-116613657D01*
X157594692Y-116716185D01*
X157531551Y-116868621D01*
X157507832Y-116904119D01*
X157378228Y-117098086D01*
X157183086Y-117293228D01*
X157109373Y-117342481D01*
X156953621Y-117446551D01*
X156815842Y-117503621D01*
X156698657Y-117552161D01*
X156608433Y-117570107D01*
X156427988Y-117606000D01*
X156152012Y-117606000D01*
X155971567Y-117570107D01*
X155881343Y-117552161D01*
X155764158Y-117503621D01*
X155626379Y-117446551D01*
X155470627Y-117342481D01*
X155396914Y-117293228D01*
X155201772Y-117098086D01*
X155072168Y-116904119D01*
X155048449Y-116868621D01*
X154985308Y-116716185D01*
X154942839Y-116613657D01*
X154905316Y-116425012D01*
X154889000Y-116342988D01*
X154889000Y-116067012D01*
X154942839Y-115796344D01*
X154967493Y-115736825D01*
X155001876Y-115653816D01*
X155048449Y-115541379D01*
X155116856Y-115439000D01*
X155201772Y-115311914D01*
X155396914Y-115116772D01*
X155552475Y-115012830D01*
X155626379Y-114963449D01*
X155775903Y-114901514D01*
X155881343Y-114857839D01*
X156015962Y-114831062D01*
X156152012Y-114804000D01*
X156427988Y-114804000D01*
X156564038Y-114831062D01*
X156564038Y-114831062D01*
G37*
G36*
X151564038Y-114831062D02*
G01*
X151698657Y-114857839D01*
X151804097Y-114901514D01*
X151953621Y-114963449D01*
X152027525Y-115012830D01*
X152183086Y-115116772D01*
X152378228Y-115311914D01*
X152463144Y-115439000D01*
X152531551Y-115541379D01*
X152578124Y-115653816D01*
X152612508Y-115736825D01*
X152637161Y-115796344D01*
X152691000Y-116067012D01*
X152691000Y-116342988D01*
X152674684Y-116425012D01*
X152637161Y-116613657D01*
X152594692Y-116716185D01*
X152531551Y-116868621D01*
X152507832Y-116904119D01*
X152378228Y-117098086D01*
X152183086Y-117293228D01*
X152109373Y-117342481D01*
X151953621Y-117446551D01*
X151815842Y-117503621D01*
X151698657Y-117552161D01*
X151608433Y-117570107D01*
X151427988Y-117606000D01*
X151152012Y-117606000D01*
X150971567Y-117570107D01*
X150881343Y-117552161D01*
X150764158Y-117503621D01*
X150626379Y-117446551D01*
X150470627Y-117342481D01*
X150396914Y-117293228D01*
X150201772Y-117098086D01*
X150072168Y-116904119D01*
X150048449Y-116868621D01*
X149985308Y-116716185D01*
X149942839Y-116613657D01*
X149905316Y-116425012D01*
X149889000Y-116342988D01*
X149889000Y-116067012D01*
X149942839Y-115796344D01*
X149967493Y-115736825D01*
X150001876Y-115653816D01*
X150048449Y-115541379D01*
X150116856Y-115439000D01*
X150201772Y-115311914D01*
X150396914Y-115116772D01*
X150552475Y-115012830D01*
X150626379Y-114963449D01*
X150775903Y-114901514D01*
X150881343Y-114857839D01*
X151015962Y-114831062D01*
X151152012Y-114804000D01*
X151427988Y-114804000D01*
X151564038Y-114831062D01*
X151564038Y-114831062D01*
G37*
G36*
X125111000Y-116560109D02*
G01*
X125113402Y-116584495D01*
X125120515Y-116607944D01*
X125132066Y-116629555D01*
X125147611Y-116648497D01*
X125166553Y-116664042D01*
X125188164Y-116675593D01*
X125211613Y-116682706D01*
X125235999Y-116685108D01*
X125260385Y-116682706D01*
X125283834Y-116675593D01*
X125305445Y-116664042D01*
X125324387Y-116648497D01*
X125339932Y-116629555D01*
X125351483Y-116607944D01*
X125383090Y-116531638D01*
X125454335Y-116425012D01*
X125545012Y-116334335D01*
X125624826Y-116281005D01*
X125651636Y-116263091D01*
X125729074Y-116231015D01*
X125770110Y-116214017D01*
X125895881Y-116189000D01*
X126024119Y-116189000D01*
X126149890Y-116214017D01*
X126190927Y-116231015D01*
X126268364Y-116263091D01*
X126295174Y-116281005D01*
X126374988Y-116334335D01*
X126465665Y-116425012D01*
X126536910Y-116531638D01*
X126585983Y-116650110D01*
X126611000Y-116775881D01*
X126611000Y-116904119D01*
X126585983Y-117029890D01*
X126557736Y-117098085D01*
X126536909Y-117148364D01*
X126465665Y-117254988D01*
X126374988Y-117345665D01*
X126268364Y-117416909D01*
X126268363Y-117416910D01*
X126268362Y-117416910D01*
X126149890Y-117465983D01*
X126024119Y-117491000D01*
X125895881Y-117491000D01*
X125770110Y-117465983D01*
X125651638Y-117416910D01*
X125651637Y-117416910D01*
X125651636Y-117416909D01*
X125545012Y-117345665D01*
X125454335Y-117254988D01*
X125383091Y-117148364D01*
X125351483Y-117072055D01*
X125339932Y-117050445D01*
X125324387Y-117031503D01*
X125305445Y-117015958D01*
X125283834Y-117004407D01*
X125260385Y-116997294D01*
X125235999Y-116994892D01*
X125211613Y-116997294D01*
X125188164Y-117004407D01*
X125166553Y-117015958D01*
X125147611Y-117031503D01*
X125132066Y-117050445D01*
X125120515Y-117072056D01*
X125113402Y-117095505D01*
X125111000Y-117119891D01*
X125111000Y-117491000D01*
X123809000Y-117491000D01*
X123809000Y-116189000D01*
X125111000Y-116189000D01*
X125111000Y-116560109D01*
X125111000Y-116560109D01*
G37*
G36*
X120031000Y-116560109D02*
G01*
X120033402Y-116584495D01*
X120040515Y-116607944D01*
X120052066Y-116629555D01*
X120067611Y-116648497D01*
X120086553Y-116664042D01*
X120108164Y-116675593D01*
X120131613Y-116682706D01*
X120155999Y-116685108D01*
X120180385Y-116682706D01*
X120203834Y-116675593D01*
X120225445Y-116664042D01*
X120244387Y-116648497D01*
X120259932Y-116629555D01*
X120271483Y-116607944D01*
X120303090Y-116531638D01*
X120374335Y-116425012D01*
X120465012Y-116334335D01*
X120544826Y-116281005D01*
X120571636Y-116263091D01*
X120649074Y-116231015D01*
X120690110Y-116214017D01*
X120815881Y-116189000D01*
X120944119Y-116189000D01*
X121069890Y-116214017D01*
X121110927Y-116231015D01*
X121188364Y-116263091D01*
X121215174Y-116281005D01*
X121294988Y-116334335D01*
X121385665Y-116425012D01*
X121456910Y-116531638D01*
X121505983Y-116650110D01*
X121531000Y-116775881D01*
X121531000Y-116904119D01*
X121505983Y-117029890D01*
X121477736Y-117098085D01*
X121456909Y-117148364D01*
X121385665Y-117254988D01*
X121294988Y-117345665D01*
X121188364Y-117416909D01*
X121188363Y-117416910D01*
X121188362Y-117416910D01*
X121069890Y-117465983D01*
X120944119Y-117491000D01*
X120815881Y-117491000D01*
X120690110Y-117465983D01*
X120571638Y-117416910D01*
X120571637Y-117416910D01*
X120571636Y-117416909D01*
X120465012Y-117345665D01*
X120374335Y-117254988D01*
X120303091Y-117148364D01*
X120271483Y-117072055D01*
X120259932Y-117050445D01*
X120244387Y-117031503D01*
X120225445Y-117015958D01*
X120203834Y-117004407D01*
X120180385Y-116997294D01*
X120155999Y-116994892D01*
X120131613Y-116997294D01*
X120108164Y-117004407D01*
X120086553Y-117015958D01*
X120067611Y-117031503D01*
X120052066Y-117050445D01*
X120040515Y-117072056D01*
X120033402Y-117095505D01*
X120031000Y-117119891D01*
X120031000Y-117491000D01*
X118729000Y-117491000D01*
X118729000Y-116189000D01*
X120031000Y-116189000D01*
X120031000Y-116560109D01*
X120031000Y-116560109D01*
G37*
G36*
X67499890Y-116214017D02*
G01*
X67540927Y-116231015D01*
X67618364Y-116263091D01*
X67645174Y-116281005D01*
X67724988Y-116334335D01*
X67815665Y-116425012D01*
X67886910Y-116531638D01*
X67918517Y-116607944D01*
X67930068Y-116629555D01*
X67945613Y-116648497D01*
X67964555Y-116664042D01*
X67986166Y-116675593D01*
X68009615Y-116682706D01*
X68034001Y-116685108D01*
X68058387Y-116682706D01*
X68081836Y-116675593D01*
X68103447Y-116664042D01*
X68122389Y-116648497D01*
X68137934Y-116629555D01*
X68149485Y-116607944D01*
X68156598Y-116584495D01*
X68159000Y-116560109D01*
X68159000Y-116189000D01*
X69461000Y-116189000D01*
X69461000Y-117491000D01*
X68159000Y-117491000D01*
X68159000Y-117119891D01*
X68156598Y-117095505D01*
X68149485Y-117072056D01*
X68137934Y-117050445D01*
X68122389Y-117031503D01*
X68103447Y-117015958D01*
X68081836Y-117004407D01*
X68058387Y-116997294D01*
X68034001Y-116994892D01*
X68009615Y-116997294D01*
X67986166Y-117004407D01*
X67964555Y-117015958D01*
X67945613Y-117031503D01*
X67930068Y-117050445D01*
X67918517Y-117072055D01*
X67886909Y-117148364D01*
X67815665Y-117254988D01*
X67724988Y-117345665D01*
X67618364Y-117416909D01*
X67618363Y-117416910D01*
X67618362Y-117416910D01*
X67499890Y-117465983D01*
X67374119Y-117491000D01*
X67245881Y-117491000D01*
X67120110Y-117465983D01*
X67001638Y-117416910D01*
X67001637Y-117416910D01*
X67001636Y-117416909D01*
X66895012Y-117345665D01*
X66804335Y-117254988D01*
X66733091Y-117148364D01*
X66712265Y-117098085D01*
X66684017Y-117029890D01*
X66659000Y-116904119D01*
X66659000Y-116775881D01*
X66684017Y-116650110D01*
X66733090Y-116531638D01*
X66804335Y-116425012D01*
X66895012Y-116334335D01*
X66974826Y-116281005D01*
X67001636Y-116263091D01*
X67079074Y-116231015D01*
X67120110Y-116214017D01*
X67245881Y-116189000D01*
X67374119Y-116189000D01*
X67499890Y-116214017D01*
X67499890Y-116214017D01*
G37*
G36*
X72349890Y-116214017D02*
G01*
X72390927Y-116231015D01*
X72468364Y-116263091D01*
X72495174Y-116281005D01*
X72574988Y-116334335D01*
X72665665Y-116425012D01*
X72736910Y-116531638D01*
X72768517Y-116607944D01*
X72780068Y-116629555D01*
X72795613Y-116648497D01*
X72814555Y-116664042D01*
X72836166Y-116675593D01*
X72859615Y-116682706D01*
X72884001Y-116685108D01*
X72908387Y-116682706D01*
X72931836Y-116675593D01*
X72953447Y-116664042D01*
X72972389Y-116648497D01*
X72987934Y-116629555D01*
X72999485Y-116607944D01*
X73006598Y-116584495D01*
X73009000Y-116560109D01*
X73009000Y-116189000D01*
X74311000Y-116189000D01*
X74311000Y-117491000D01*
X73009000Y-117491000D01*
X73009000Y-117119891D01*
X73006598Y-117095505D01*
X72999485Y-117072056D01*
X72987934Y-117050445D01*
X72972389Y-117031503D01*
X72953447Y-117015958D01*
X72931836Y-117004407D01*
X72908387Y-116997294D01*
X72884001Y-116994892D01*
X72859615Y-116997294D01*
X72836166Y-117004407D01*
X72814555Y-117015958D01*
X72795613Y-117031503D01*
X72780068Y-117050445D01*
X72768517Y-117072055D01*
X72736909Y-117148364D01*
X72665665Y-117254988D01*
X72574988Y-117345665D01*
X72468364Y-117416909D01*
X72468363Y-117416910D01*
X72468362Y-117416910D01*
X72349890Y-117465983D01*
X72224119Y-117491000D01*
X72095881Y-117491000D01*
X71970110Y-117465983D01*
X71851638Y-117416910D01*
X71851637Y-117416910D01*
X71851636Y-117416909D01*
X71745012Y-117345665D01*
X71654335Y-117254988D01*
X71583091Y-117148364D01*
X71562265Y-117098085D01*
X71534017Y-117029890D01*
X71509000Y-116904119D01*
X71509000Y-116775881D01*
X71534017Y-116650110D01*
X71583090Y-116531638D01*
X71654335Y-116425012D01*
X71745012Y-116334335D01*
X71824826Y-116281005D01*
X71851636Y-116263091D01*
X71929074Y-116231015D01*
X71970110Y-116214017D01*
X72095881Y-116189000D01*
X72224119Y-116189000D01*
X72349890Y-116214017D01*
X72349890Y-116214017D01*
G37*
G36*
X130423228Y-114751703D02*
G01*
X130578100Y-114815853D01*
X130717481Y-114908985D01*
X130836015Y-115027519D01*
X130929147Y-115166900D01*
X130993297Y-115321772D01*
X131026000Y-115486184D01*
X131026000Y-115653816D01*
X130993297Y-115818228D01*
X130929147Y-115973100D01*
X130836015Y-116112481D01*
X130717481Y-116231015D01*
X130578100Y-116324147D01*
X130423228Y-116388297D01*
X130258816Y-116421000D01*
X130091184Y-116421000D01*
X129926772Y-116388297D01*
X129771900Y-116324147D01*
X129632519Y-116231015D01*
X129513985Y-116112481D01*
X129420853Y-115973100D01*
X129356703Y-115818228D01*
X129324000Y-115653816D01*
X129324000Y-115486184D01*
X129356703Y-115321772D01*
X129420853Y-115166900D01*
X129513985Y-115027519D01*
X129632519Y-114908985D01*
X129771900Y-114815853D01*
X129926772Y-114751703D01*
X130091184Y-114719000D01*
X130258816Y-114719000D01*
X130423228Y-114751703D01*
X130423228Y-114751703D01*
G37*
G36*
X134786823Y-114731313D02*
G01*
X134947242Y-114779976D01*
X135073989Y-114847724D01*
X135095078Y-114858996D01*
X135224659Y-114965341D01*
X135331004Y-115094922D01*
X135331005Y-115094924D01*
X135410024Y-115242758D01*
X135458687Y-115403177D01*
X135475117Y-115570000D01*
X135458687Y-115736823D01*
X135410024Y-115897242D01*
X135339114Y-116029906D01*
X135331004Y-116045078D01*
X135224659Y-116174659D01*
X135095078Y-116281004D01*
X135095076Y-116281005D01*
X134947242Y-116360024D01*
X134786823Y-116408687D01*
X134661804Y-116421000D01*
X134578196Y-116421000D01*
X134453177Y-116408687D01*
X134292758Y-116360024D01*
X134144924Y-116281005D01*
X134144922Y-116281004D01*
X134015341Y-116174659D01*
X133908996Y-116045078D01*
X133900886Y-116029906D01*
X133829976Y-115897242D01*
X133781313Y-115736823D01*
X133764883Y-115570000D01*
X133781313Y-115403177D01*
X133829976Y-115242758D01*
X133908995Y-115094924D01*
X133908996Y-115094922D01*
X134015341Y-114965341D01*
X134144922Y-114858996D01*
X134166011Y-114847724D01*
X134292758Y-114779976D01*
X134453177Y-114731313D01*
X134578196Y-114719000D01*
X134661804Y-114719000D01*
X134786823Y-114731313D01*
X134786823Y-114731313D01*
G37*
G36*
X102483228Y-113481703D02*
G01*
X102638100Y-113545853D01*
X102777481Y-113638985D01*
X102896015Y-113757519D01*
X102989147Y-113896900D01*
X103053297Y-114051772D01*
X103086000Y-114216184D01*
X103086000Y-114383816D01*
X103053297Y-114548228D01*
X102989147Y-114703100D01*
X102896015Y-114842481D01*
X102777481Y-114961015D01*
X102638100Y-115054147D01*
X102483228Y-115118297D01*
X102318816Y-115151000D01*
X102151184Y-115151000D01*
X101986772Y-115118297D01*
X101831900Y-115054147D01*
X101692519Y-114961015D01*
X101573985Y-114842481D01*
X101480853Y-114703100D01*
X101416703Y-114548228D01*
X101384000Y-114383816D01*
X101384000Y-114216184D01*
X101416703Y-114051772D01*
X101480853Y-113896900D01*
X101573985Y-113757519D01*
X101692519Y-113638985D01*
X101831900Y-113545853D01*
X101986772Y-113481703D01*
X102151184Y-113449000D01*
X102318816Y-113449000D01*
X102483228Y-113481703D01*
X102483228Y-113481703D01*
G37*
G36*
X77718228Y-113481703D02*
G01*
X77873100Y-113545853D01*
X78012481Y-113638985D01*
X78131015Y-113757519D01*
X78224147Y-113896900D01*
X78288297Y-114051772D01*
X78321000Y-114216184D01*
X78321000Y-114383816D01*
X78288297Y-114548228D01*
X78224147Y-114703100D01*
X78131015Y-114842481D01*
X78012481Y-114961015D01*
X77873100Y-115054147D01*
X77718228Y-115118297D01*
X77553816Y-115151000D01*
X77386184Y-115151000D01*
X77221772Y-115118297D01*
X77066900Y-115054147D01*
X76927519Y-114961015D01*
X76808985Y-114842481D01*
X76715853Y-114703100D01*
X76651703Y-114548228D01*
X76619000Y-114383816D01*
X76619000Y-114216184D01*
X76651703Y-114051772D01*
X76715853Y-113896900D01*
X76808985Y-113757519D01*
X76927519Y-113638985D01*
X77066900Y-113545853D01*
X77221772Y-113481703D01*
X77386184Y-113449000D01*
X77553816Y-113449000D01*
X77718228Y-113481703D01*
X77718228Y-113481703D01*
G37*
G36*
X118398228Y-111576703D02*
G01*
X118553100Y-111640853D01*
X118692481Y-111733985D01*
X118811015Y-111852519D01*
X118904147Y-111991900D01*
X118968297Y-112146772D01*
X119001000Y-112311184D01*
X119001000Y-112478816D01*
X118968297Y-112643228D01*
X118904147Y-112798100D01*
X118811015Y-112937481D01*
X118692481Y-113056015D01*
X118553100Y-113149147D01*
X118398228Y-113213297D01*
X118233816Y-113246000D01*
X118066184Y-113246000D01*
X117901772Y-113213297D01*
X117746900Y-113149147D01*
X117607519Y-113056015D01*
X117488985Y-112937481D01*
X117395853Y-112798100D01*
X117331703Y-112643228D01*
X117299000Y-112478816D01*
X117299000Y-112311184D01*
X117331703Y-112146772D01*
X117395853Y-111991900D01*
X117488985Y-111852519D01*
X117607519Y-111733985D01*
X117746900Y-111640853D01*
X117901772Y-111576703D01*
X118066184Y-111544000D01*
X118233816Y-111544000D01*
X118398228Y-111576703D01*
X118398228Y-111576703D01*
G37*
G36*
X120898228Y-111576703D02*
G01*
X121053100Y-111640853D01*
X121192481Y-111733985D01*
X121311015Y-111852519D01*
X121404147Y-111991900D01*
X121468297Y-112146772D01*
X121501000Y-112311184D01*
X121501000Y-112478816D01*
X121468297Y-112643228D01*
X121404147Y-112798100D01*
X121311015Y-112937481D01*
X121192481Y-113056015D01*
X121053100Y-113149147D01*
X120898228Y-113213297D01*
X120733816Y-113246000D01*
X120566184Y-113246000D01*
X120401772Y-113213297D01*
X120246900Y-113149147D01*
X120107519Y-113056015D01*
X119988985Y-112937481D01*
X119895853Y-112798100D01*
X119831703Y-112643228D01*
X119799000Y-112478816D01*
X119799000Y-112311184D01*
X119831703Y-112146772D01*
X119895853Y-111991900D01*
X119988985Y-111852519D01*
X120107519Y-111733985D01*
X120246900Y-111640853D01*
X120401772Y-111576703D01*
X120566184Y-111544000D01*
X120733816Y-111544000D01*
X120898228Y-111576703D01*
X120898228Y-111576703D01*
G37*
G36*
X111974914Y-111686514D02*
G01*
X111974916Y-111686515D01*
X111974917Y-111686515D01*
X112109006Y-111742056D01*
X112229683Y-111822690D01*
X112332310Y-111925317D01*
X112412944Y-112045994D01*
X112468485Y-112180083D01*
X112496800Y-112322432D01*
X112496800Y-112467568D01*
X112468485Y-112609917D01*
X112412944Y-112744006D01*
X112332310Y-112864683D01*
X112229683Y-112967310D01*
X112109006Y-113047944D01*
X111974917Y-113103485D01*
X111974916Y-113103485D01*
X111974914Y-113103486D01*
X111832570Y-113131800D01*
X111687430Y-113131800D01*
X111545086Y-113103486D01*
X111545084Y-113103485D01*
X111545083Y-113103485D01*
X111410994Y-113047944D01*
X111290317Y-112967310D01*
X111187690Y-112864683D01*
X111107056Y-112744006D01*
X111051515Y-112609917D01*
X111023200Y-112467568D01*
X111023200Y-112322432D01*
X111051515Y-112180083D01*
X111107056Y-112045994D01*
X111187690Y-111925317D01*
X111290317Y-111822690D01*
X111410994Y-111742056D01*
X111545083Y-111686515D01*
X111545084Y-111686515D01*
X111545086Y-111686514D01*
X111687430Y-111658200D01*
X111832570Y-111658200D01*
X111974914Y-111686514D01*
X111974914Y-111686514D01*
G37*
G36*
X109434914Y-111686514D02*
G01*
X109434916Y-111686515D01*
X109434917Y-111686515D01*
X109569006Y-111742056D01*
X109689683Y-111822690D01*
X109792310Y-111925317D01*
X109872944Y-112045994D01*
X109928485Y-112180083D01*
X109956800Y-112322432D01*
X109956800Y-112467568D01*
X109928485Y-112609917D01*
X109872944Y-112744006D01*
X109792310Y-112864683D01*
X109689683Y-112967310D01*
X109569006Y-113047944D01*
X109434917Y-113103485D01*
X109434916Y-113103485D01*
X109434914Y-113103486D01*
X109292570Y-113131800D01*
X109147430Y-113131800D01*
X109005086Y-113103486D01*
X109005084Y-113103485D01*
X109005083Y-113103485D01*
X108870994Y-113047944D01*
X108750317Y-112967310D01*
X108647690Y-112864683D01*
X108567056Y-112744006D01*
X108511515Y-112609917D01*
X108483200Y-112467568D01*
X108483200Y-112322432D01*
X108511515Y-112180083D01*
X108567056Y-112045994D01*
X108647690Y-111925317D01*
X108750317Y-111822690D01*
X108870994Y-111742056D01*
X109005083Y-111686515D01*
X109005084Y-111686515D01*
X109005086Y-111686514D01*
X109147430Y-111658200D01*
X109292570Y-111658200D01*
X109434914Y-111686514D01*
X109434914Y-111686514D01*
G37*
G36*
X115036800Y-113131800D02*
G01*
X113563200Y-113131800D01*
X113563200Y-111658200D01*
X115036800Y-111658200D01*
X115036800Y-113131800D01*
X115036800Y-113131800D01*
G37*
G36*
X106894914Y-111686514D02*
G01*
X106894916Y-111686515D01*
X106894917Y-111686515D01*
X107029006Y-111742056D01*
X107149683Y-111822690D01*
X107252310Y-111925317D01*
X107332944Y-112045994D01*
X107388485Y-112180083D01*
X107416800Y-112322432D01*
X107416800Y-112467568D01*
X107388485Y-112609917D01*
X107332944Y-112744006D01*
X107252310Y-112864683D01*
X107149683Y-112967310D01*
X107029006Y-113047944D01*
X106894917Y-113103485D01*
X106894916Y-113103485D01*
X106894914Y-113103486D01*
X106752570Y-113131800D01*
X106607430Y-113131800D01*
X106465086Y-113103486D01*
X106465084Y-113103485D01*
X106465083Y-113103485D01*
X106330994Y-113047944D01*
X106210317Y-112967310D01*
X106107690Y-112864683D01*
X106027056Y-112744006D01*
X105971515Y-112609917D01*
X105943200Y-112467568D01*
X105943200Y-112322432D01*
X105971515Y-112180083D01*
X106027056Y-112045994D01*
X106107690Y-111925317D01*
X106210317Y-111822690D01*
X106330994Y-111742056D01*
X106465083Y-111686515D01*
X106465084Y-111686515D01*
X106465086Y-111686514D01*
X106607430Y-111658200D01*
X106752570Y-111658200D01*
X106894914Y-111686514D01*
X106894914Y-111686514D01*
G37*
G36*
X92913803Y-111723150D02*
G01*
X93040959Y-111775820D01*
X93155395Y-111852284D01*
X93252716Y-111949605D01*
X93329181Y-112064043D01*
X93381850Y-112191197D01*
X93408700Y-112326183D01*
X93408700Y-112463817D01*
X93381850Y-112598803D01*
X93363449Y-112643228D01*
X93329180Y-112725959D01*
X93252716Y-112840395D01*
X93155395Y-112937716D01*
X93040959Y-113014180D01*
X93040958Y-113014181D01*
X93040957Y-113014181D01*
X92913803Y-113066850D01*
X92778817Y-113093700D01*
X92641183Y-113093700D01*
X92506197Y-113066850D01*
X92379043Y-113014181D01*
X92379042Y-113014181D01*
X92379041Y-113014180D01*
X92264605Y-112937716D01*
X92167284Y-112840395D01*
X92090820Y-112725959D01*
X92056552Y-112643228D01*
X92038150Y-112598803D01*
X92011300Y-112463817D01*
X92011300Y-112326183D01*
X92038150Y-112191197D01*
X92090819Y-112064043D01*
X92167284Y-111949605D01*
X92264605Y-111852284D01*
X92379041Y-111775820D01*
X92506197Y-111723150D01*
X92641183Y-111696300D01*
X92778817Y-111696300D01*
X92913803Y-111723150D01*
X92913803Y-111723150D01*
G37*
G36*
X87833803Y-111723150D02*
G01*
X87960959Y-111775820D01*
X88075395Y-111852284D01*
X88172716Y-111949605D01*
X88249181Y-112064043D01*
X88301850Y-112191197D01*
X88328700Y-112326183D01*
X88328700Y-112463817D01*
X88301850Y-112598803D01*
X88283449Y-112643228D01*
X88249180Y-112725959D01*
X88172716Y-112840395D01*
X88075395Y-112937716D01*
X87960959Y-113014180D01*
X87960958Y-113014181D01*
X87960957Y-113014181D01*
X87833803Y-113066850D01*
X87698817Y-113093700D01*
X87561183Y-113093700D01*
X87426197Y-113066850D01*
X87299043Y-113014181D01*
X87299042Y-113014181D01*
X87299041Y-113014180D01*
X87184605Y-112937716D01*
X87087284Y-112840395D01*
X87010820Y-112725959D01*
X86976552Y-112643228D01*
X86958150Y-112598803D01*
X86931300Y-112463817D01*
X86931300Y-112326183D01*
X86958150Y-112191197D01*
X87010819Y-112064043D01*
X87087284Y-111949605D01*
X87184605Y-111852284D01*
X87299041Y-111775820D01*
X87426197Y-111723150D01*
X87561183Y-111696300D01*
X87698817Y-111696300D01*
X87833803Y-111723150D01*
X87833803Y-111723150D01*
G37*
G36*
X95453803Y-111723150D02*
G01*
X95580959Y-111775820D01*
X95695395Y-111852284D01*
X95792716Y-111949605D01*
X95869181Y-112064043D01*
X95921850Y-112191197D01*
X95948700Y-112326183D01*
X95948700Y-112463817D01*
X95921850Y-112598803D01*
X95903449Y-112643228D01*
X95869180Y-112725959D01*
X95792716Y-112840395D01*
X95695395Y-112937716D01*
X95580959Y-113014180D01*
X95580958Y-113014181D01*
X95580957Y-113014181D01*
X95453803Y-113066850D01*
X95318817Y-113093700D01*
X95181183Y-113093700D01*
X95046197Y-113066850D01*
X94919043Y-113014181D01*
X94919042Y-113014181D01*
X94919041Y-113014180D01*
X94804605Y-112937716D01*
X94707284Y-112840395D01*
X94630820Y-112725959D01*
X94596552Y-112643228D01*
X94578150Y-112598803D01*
X94551300Y-112463817D01*
X94551300Y-112326183D01*
X94578150Y-112191197D01*
X94630819Y-112064043D01*
X94707284Y-111949605D01*
X94804605Y-111852284D01*
X94919041Y-111775820D01*
X95046197Y-111723150D01*
X95181183Y-111696300D01*
X95318817Y-111696300D01*
X95453803Y-111723150D01*
X95453803Y-111723150D01*
G37*
G36*
X82753803Y-111723150D02*
G01*
X82880959Y-111775820D01*
X82995395Y-111852284D01*
X83092716Y-111949605D01*
X83169181Y-112064043D01*
X83221850Y-112191197D01*
X83248700Y-112326183D01*
X83248700Y-112463817D01*
X83221850Y-112598803D01*
X83203449Y-112643228D01*
X83169180Y-112725959D01*
X83092716Y-112840395D01*
X82995395Y-112937716D01*
X82880959Y-113014180D01*
X82880958Y-113014181D01*
X82880957Y-113014181D01*
X82753803Y-113066850D01*
X82618817Y-113093700D01*
X82481183Y-113093700D01*
X82346197Y-113066850D01*
X82219043Y-113014181D01*
X82219042Y-113014181D01*
X82219041Y-113014180D01*
X82104605Y-112937716D01*
X82007284Y-112840395D01*
X81930820Y-112725959D01*
X81896552Y-112643228D01*
X81878150Y-112598803D01*
X81851300Y-112463817D01*
X81851300Y-112326183D01*
X81878150Y-112191197D01*
X81930819Y-112064043D01*
X82007284Y-111949605D01*
X82104605Y-111852284D01*
X82219041Y-111775820D01*
X82346197Y-111723150D01*
X82481183Y-111696300D01*
X82618817Y-111696300D01*
X82753803Y-111723150D01*
X82753803Y-111723150D01*
G37*
G36*
X85293803Y-111723150D02*
G01*
X85420959Y-111775820D01*
X85535395Y-111852284D01*
X85632716Y-111949605D01*
X85709181Y-112064043D01*
X85761850Y-112191197D01*
X85788700Y-112326183D01*
X85788700Y-112463817D01*
X85761850Y-112598803D01*
X85743449Y-112643228D01*
X85709180Y-112725959D01*
X85632716Y-112840395D01*
X85535395Y-112937716D01*
X85420959Y-113014180D01*
X85420958Y-113014181D01*
X85420957Y-113014181D01*
X85293803Y-113066850D01*
X85158817Y-113093700D01*
X85021183Y-113093700D01*
X84886197Y-113066850D01*
X84759043Y-113014181D01*
X84759042Y-113014181D01*
X84759041Y-113014180D01*
X84644605Y-112937716D01*
X84547284Y-112840395D01*
X84470820Y-112725959D01*
X84436552Y-112643228D01*
X84418150Y-112598803D01*
X84391300Y-112463817D01*
X84391300Y-112326183D01*
X84418150Y-112191197D01*
X84470819Y-112064043D01*
X84547284Y-111949605D01*
X84644605Y-111852284D01*
X84759041Y-111775820D01*
X84886197Y-111723150D01*
X85021183Y-111696300D01*
X85158817Y-111696300D01*
X85293803Y-111723150D01*
X85293803Y-111723150D01*
G37*
G36*
X90373803Y-111723150D02*
G01*
X90500959Y-111775820D01*
X90615395Y-111852284D01*
X90712716Y-111949605D01*
X90789181Y-112064043D01*
X90841850Y-112191197D01*
X90868700Y-112326183D01*
X90868700Y-112463817D01*
X90841850Y-112598803D01*
X90823449Y-112643228D01*
X90789180Y-112725959D01*
X90712716Y-112840395D01*
X90615395Y-112937716D01*
X90500959Y-113014180D01*
X90500958Y-113014181D01*
X90500957Y-113014181D01*
X90373803Y-113066850D01*
X90238817Y-113093700D01*
X90101183Y-113093700D01*
X89966197Y-113066850D01*
X89839043Y-113014181D01*
X89839042Y-113014181D01*
X89839041Y-113014180D01*
X89724605Y-112937716D01*
X89627284Y-112840395D01*
X89550820Y-112725959D01*
X89516552Y-112643228D01*
X89498150Y-112598803D01*
X89471300Y-112463817D01*
X89471300Y-112326183D01*
X89498150Y-112191197D01*
X89550819Y-112064043D01*
X89627284Y-111949605D01*
X89724605Y-111852284D01*
X89839041Y-111775820D01*
X89966197Y-111723150D01*
X90101183Y-111696300D01*
X90238817Y-111696300D01*
X90373803Y-111723150D01*
X90373803Y-111723150D01*
G37*
G36*
X98488700Y-113093700D02*
G01*
X97091300Y-113093700D01*
X97091300Y-111696300D01*
X98488700Y-111696300D01*
X98488700Y-113093700D01*
X98488700Y-113093700D01*
G37*
M02*
