M48
INCH,TZ
T1C0.0157
T2C0.0236
T3C0.0310
T4C0.0315
T5C0.0340
T6C0.0512
T7C0.0669
%
G90
G05
T1
X31635Y-51070
X41177Y-44512
T2
X47000Y-48000
X47591Y-48000
X26500Y-46000
X27091Y-46000
X28409Y-46000
X29000Y-46000
X47000Y-46000
X47591Y-46000
X49000Y-46000
X49591Y-46000
X49000Y-48000
X49591Y-48000
T3
X32500Y-44250
X32500Y-47250
X33500Y-44250
X33500Y-47250
X34500Y-44250
X34500Y-47250
X35500Y-44250
X35500Y-47250
X36500Y-44250
X36500Y-47250
X37500Y-44250
X37500Y-47250
X38500Y-44250
X38500Y-47250
T4
X33750Y-49750
X33750Y-50734
X53000Y-50000
X54969Y-50000
X21500Y-52000
X21500Y-55000
X23500Y-52000
X23500Y-55000
X21500Y-48750
X22484Y-48750
X59500Y-52000
X59500Y-55000
X24250Y-48000
X25234Y-48000
X45500Y-52000
X45500Y-55000
X24250Y-46750
X25234Y-46750
X33500Y-52000
X33500Y-55000
X27500Y-52000
X27500Y-55000
X44031Y-50000
X46000Y-50000
X55500Y-52000
X55500Y-55000
X38250Y-49750
X38250Y-50734
X39500Y-52000
X39500Y-55000
X47250Y-49750
X47250Y-50734
X48500Y-50000
X50469Y-50000
X53500Y-52000
X53500Y-55000
X53000Y-45500
X53000Y-48500
X25500Y-52000
X25500Y-55000
X37500Y-52000
X37500Y-55000
X30500Y-45000
X30500Y-48000
X46516Y-44250
X47500Y-44250
X57500Y-48250
X58484Y-48250
X21500Y-50000
X24500Y-50000
X39500Y-50000
X41469Y-50000
X57500Y-52000
X57500Y-55000
X17000Y-48750
X17984Y-48750
X35500Y-52000
X35500Y-55000
X30531Y-50000
X32500Y-50000
X54766Y-48250
X55750Y-48250
X41500Y-52000
X41500Y-55000
X47500Y-52000
X47500Y-55000
X26516Y-48000
X27500Y-48000
X29500Y-52000
X29500Y-55000
X35000Y-50000
X36969Y-50000
X51250Y-45500
X51250Y-48500
X31500Y-52000
X31500Y-55000
X57500Y-50000
X59469Y-50000
X49500Y-52000
X49500Y-55000
X26000Y-50000
X29000Y-50000
X42750Y-49750
X42750Y-50734
X43500Y-52000
X43500Y-55000
X40250Y-45000
X40250Y-45984
X51500Y-52000
X51500Y-55000
X19250Y-48750
X20234Y-48750
T5
X42000Y-44250
X42000Y-47250
X43000Y-44250
X43000Y-47250
X44000Y-44250
X44000Y-47250
X45000Y-44250
X45000Y-47250
T6
X24500Y-58500
X26469Y-58500
X28437Y-58500
X52500Y-58500
X54469Y-58500
X56437Y-58500
X59500Y-58500
X61469Y-58500
X63437Y-58500
X17500Y-58500
X19469Y-58500
X21437Y-58500
X38500Y-58500
X40469Y-58500
X42437Y-58500
X45500Y-58500
X47469Y-58500
X49437Y-58500
X31500Y-58500
X33469Y-58500
X35437Y-58500
T7
X17500Y-46000
X19469Y-46000
X21437Y-46000
X18500Y-50500
X18500Y-52469
X18500Y-54437
X63000Y-50500
X63000Y-52469
X63000Y-54437
X59563Y-45750
X61531Y-45750
X63500Y-45750
X55000Y-45750
X56969Y-45750
T0
M30
