%TF.GenerationSoftware,KiCad,Pcbnew,(5.1.9)-1*%
%TF.CreationDate,2021-06-23T18:15:50-03:00*%
%TF.ProjectId,assert,61737365-7274-42e6-9b69-6361645f7063,rev?*%
%TF.SameCoordinates,Original*%
%TF.FileFunction,Soldermask,Top*%
%TF.FilePolarity,Negative*%
%FSLAX46Y46*%
G04 Gerber Fmt 4.6, Leading zero omitted, Abs format (unit mm)*
G04 Created by KiCad (PCBNEW (5.1.9)-1) date 2021-06-23 18:15:50*
%MOMM*%
%LPD*%
G01*
G04 APERTURE LIST*
%ADD10C,2.000000*%
%ADD11O,2.600000X1.800000*%
%ADD12R,2.600000X1.800000*%
%ADD13O,1.600000X1.600000*%
%ADD14R,1.600000X1.600000*%
%ADD15C,10.160000*%
%ADD16O,1.700000X1.700000*%
%ADD17R,1.700000X1.700000*%
%ADD18O,2.000000X1.905000*%
%ADD19R,2.000000X1.905000*%
%ADD20O,3.500000X3.500000*%
%ADD21C,1.440000*%
%ADD22C,1.600000*%
%ADD23C,1.800000*%
%ADD24R,1.800000X1.800000*%
G04 APERTURE END LIST*
D10*
%TO.C,U2*%
X71477000Y-21270000D03*
X71477000Y-96269100D03*
D11*
X71477000Y-52670000D03*
X71477000Y-55210000D03*
X71477000Y-57750000D03*
X71477000Y-60290000D03*
X71477000Y-62830000D03*
X71477000Y-65370000D03*
X71477000Y-67910000D03*
X71477000Y-70450000D03*
X71477000Y-72990000D03*
X71477000Y-75530000D03*
X71477000Y-78070000D03*
X71477000Y-80610000D03*
X71477000Y-83150000D03*
X71477000Y-85690000D03*
X71477000Y-88230000D03*
D12*
X71477000Y-90770000D03*
%TD*%
D13*
%TO.C,A1*%
X54737000Y-69215000D03*
X57277000Y-69215000D03*
X17657000Y-69215000D03*
X57277000Y-20955000D03*
X20197000Y-69215000D03*
X54737000Y-20955000D03*
X22737000Y-69215000D03*
X52197000Y-20955000D03*
X25277000Y-69215000D03*
X49657000Y-20955000D03*
X27817000Y-69215000D03*
X47117000Y-20955000D03*
X30357000Y-69215000D03*
X44577000Y-20955000D03*
X32897000Y-69215000D03*
X39497000Y-20955000D03*
X35437000Y-69215000D03*
X36957000Y-20955000D03*
X39497000Y-69215000D03*
X34417000Y-20955000D03*
X42037000Y-69215000D03*
X31877000Y-20955000D03*
X44577000Y-69215000D03*
X29337000Y-20955000D03*
X47117000Y-69215000D03*
X26797000Y-20955000D03*
X49657000Y-69215000D03*
X24257000Y-20955000D03*
X52197000Y-69215000D03*
D14*
X21717000Y-20955000D03*
D13*
X15117000Y-69215000D03*
X12577000Y-69215000D03*
%TD*%
D15*
%TO.C,J5*%
X93472000Y-8890000D03*
%TD*%
%TO.C,J4*%
X80137000Y-8890000D03*
%TD*%
D16*
%TO.C,J9*%
X26797000Y-75565000D03*
X29337000Y-75565000D03*
X31877000Y-75565000D03*
X34417000Y-75565000D03*
X36957000Y-75565000D03*
X39497000Y-75565000D03*
D17*
X42037000Y-75565000D03*
%TD*%
D18*
%TO.C,U1*%
X26947000Y-8890000D03*
X26947000Y-11430000D03*
D19*
X26947000Y-13970000D03*
D20*
X10287000Y-11430000D03*
%TD*%
D10*
%TO.C,SW4*%
X61032000Y-86360000D03*
X65532000Y-86360000D03*
X61032000Y-92860000D03*
X65532000Y-92860000D03*
%TD*%
%TO.C,SW3*%
X52832000Y-86360000D03*
X57332000Y-86360000D03*
X52832000Y-92860000D03*
X57332000Y-92860000D03*
%TD*%
%TO.C,SW2*%
X52832000Y-75565000D03*
X57332000Y-75565000D03*
X52832000Y-82065000D03*
X57332000Y-82065000D03*
%TD*%
%TO.C,SW1*%
X65587000Y-82065000D03*
X61087000Y-82065000D03*
X65587000Y-75565000D03*
X61087000Y-75565000D03*
%TD*%
D21*
%TO.C,RV1*%
X65532000Y-35560000D03*
X65532000Y-38100000D03*
X65532000Y-40640000D03*
%TD*%
D13*
%TO.C,R6*%
X65532000Y-53340000D03*
D22*
X65532000Y-45720000D03*
%TD*%
D13*
%TO.C,R5*%
X45847000Y-93980000D03*
D22*
X45847000Y-86360000D03*
%TD*%
D13*
%TO.C,R4*%
X45847000Y-74295000D03*
D22*
X45847000Y-81915000D03*
%TD*%
D13*
%TO.C,R3*%
X49657000Y-86360000D03*
D22*
X49657000Y-93980000D03*
%TD*%
D13*
%TO.C,R2*%
X49657000Y-74295000D03*
D22*
X49657000Y-81915000D03*
%TD*%
D13*
%TO.C,R1*%
X16002000Y-3810000D03*
D22*
X23622000Y-3810000D03*
%TD*%
D16*
%TO.C,J8*%
X2413000Y-75565000D03*
X4953000Y-75565000D03*
X7493000Y-75565000D03*
X10033000Y-75565000D03*
X12573000Y-75565000D03*
D17*
X15113000Y-75565000D03*
%TD*%
D15*
%TO.C,J3*%
X66167000Y-8890000D03*
%TD*%
%TO.C,J2*%
X52197000Y-8890000D03*
%TD*%
%TO.C,J1*%
X38227000Y-8890000D03*
%TD*%
D23*
%TO.C,D1*%
X12827000Y-3810000D03*
D24*
X10287000Y-3810000D03*
%TD*%
D22*
%TO.C,C2*%
X29932000Y-3810000D03*
X27432000Y-3810000D03*
%TD*%
%TO.C,C1*%
X30607000Y-12740000D03*
X30607000Y-15240000D03*
%TD*%
M02*
