M48
;GenerationSoftware,Autodesk,EAGLE,9.4.1*%
;CreationDate,2019-05-23T00:20:03Z*%
FMAT,2
ICI,OFF
METRIC,TZ,000.000
T10C0.350
T9C0.508
T8C0.800
T7C0.813
T6C1.016
T5C1.118
T4C1.321
T3C1.499
T2C1.500
T1C2.057
%
G90
M71
T1
X3810Y66040
X62230Y71120
X62230Y66040
X3810Y13970
X62230Y59690
X3810Y19050
X62230Y54610
X3810Y71120
X3810Y50800
X3810Y45720
T2
X46620Y78486
X8520Y78486
X46620Y6604
X57520Y6604
X19420Y6604
X57520Y78486
X8520Y6604
X19420Y78486
T3
X13970Y78486
X52070Y78486
X13970Y6604
X52070Y6604
T4
X5080Y34315
X5080Y39345
T5
X19050Y44450
X29210Y54610
X29210Y44450
X34290Y54610
X34290Y44450
X39370Y54610
X24130Y44450
X24130Y54610
X19050Y54610
X39370Y44450
T6
X11430Y35560
X11430Y72390
X11430Y49530
X11430Y12700
X50800Y72390
X50800Y49530
X50800Y12700
X50800Y35560
X30480Y6350
X24130Y72390
X26670Y72390
X29210Y72390
X29210Y12700
X26670Y12700
X24130Y12700
X30480Y78740
X33020Y78740
X35560Y78740
X35560Y6350
X33020Y6350
T7
X16510Y39624
X27940Y58420
X46990Y40640
X30480Y40640
X30480Y38100
X16510Y41656
X26670Y35560
X45466Y50800
X43180Y58420
X38100Y27940
X38100Y17780
X16510Y35560
X43434Y50800
X36830Y38735
X38100Y68580
X38100Y58420
X33020Y27940
X33020Y17780
X43180Y68580
X59690Y36830
X59690Y49530
X43180Y29210
X43180Y16510
X22860Y68580
X22860Y58420
X17780Y17780
X17780Y27940
X27940Y68580
X35560Y40640
X22860Y17780
X22860Y27940
X17780Y68580
X17780Y58420
X54610Y36830
X54610Y46990
X33020Y68580
X33020Y58420
X27940Y27940
X27940Y17780
X38100Y40640
X35560Y34290
X46990Y45720
X36830Y32385
X38100Y34290
X29210Y34290
X30480Y32385
X31750Y34290
T8
X62640Y31460
X56740Y14260
T9
X26416Y63500
X39116Y63500
X51054Y39624
T10
X15748Y66294
X31496Y51308
X41656Y38862
M30