M48
;GenerationSoftware,Autodesk,EAGLE,9.3.0*%
;CreationDate,2019-02-23T10:49:59Z*%
FMAT,2
ICI,OFF
METRIC,TZ,000.000
T5C0.800
T4C0.813
T3C1.000
T2C1.118
T1C1.321
%
G90
M71
T1
X74930Y6375
X74930Y27864
X74930Y22860
X74930Y17856
X44475Y11430
X49505Y11430
X74930Y11405
T2
X35560Y43180
X55880Y10160
X55880Y12700
X55880Y15240
X38100Y43180
X38100Y33020
X35560Y33020
X38100Y6350
X38100Y16510
X35560Y6350
X35560Y16510
T3
X19685Y64135
X85090Y64135
X85090Y1905
X19685Y1905
T4
X78105Y55880
X80010Y54610
X67310Y19050
X67310Y59690
X67310Y57150
X60960Y12700
X60960Y15240
X64770Y15240
X64770Y12700
X63500Y57150
X63500Y59690
X66040Y6350
X63500Y6350
X57150Y6350
X59690Y6350
X68580Y12700
X68580Y15240
X55880Y57150
X55880Y59690
X59690Y57150
X59690Y59690
X24130Y16510
X24130Y13970
X24130Y10160
X24130Y7620
X50800Y40640
X50800Y43180
X50800Y55880
X50800Y58420
X50800Y45720
X50800Y48260
X50800Y53340
X50800Y50800
X43180Y58420
X43180Y55880
X43180Y53340
X43180Y50800
X43180Y48260
X43180Y45720
X43180Y43180
X43180Y40640
X50800Y19050
X50800Y21590
X50800Y34290
X43180Y34290
X50800Y24130
X50800Y26670
X50800Y31750
X50800Y29210
X43180Y31750
X43180Y29210
X43180Y26670
X43180Y24130
X43180Y21590
X43180Y19050
X35560Y21590
X35560Y19050
X82550Y31750
X82550Y41910
X63500Y31750
X63500Y41910
X67310Y31750
X67310Y41910
X55880Y44450
X55880Y54610
X22860Y40640
X33020Y40640
X34290Y62230
X34290Y52070
X38100Y62230
X38100Y52070
X29210Y46990
X39370Y46990
X29210Y25400
X39370Y25400
X29210Y29210
X39370Y29210
X33020Y44450
X22860Y44450
X78740Y41910
X78740Y31750
X31750Y15240
X31750Y5080
X22860Y33020
X33020Y33020
X39370Y49530
X29210Y49530
X22860Y36830
X33020Y36830
X59690Y44450
X59690Y54610
X55880Y41910
X55880Y31750
X63500Y44450
X63500Y54610
X67310Y54610
X27940Y5080
X27940Y15240
X26670Y52070
X26670Y62230
X74930Y41910
X74930Y31750
X30480Y62230
X30480Y52070
X76200Y49530
X81280Y49530
X78740Y44450
X25717Y21590
X25717Y26670
X25717Y24130
X71120Y31750
X71120Y41910
X67310Y29210
X67310Y44450
X55880Y19050
X55880Y29210
X59690Y19050
X59690Y29210
X63500Y19050
X63500Y29210
X59690Y31750
X59690Y41910
X73660Y57150
X71755Y55880
X73660Y54610
X80010Y57150
T5
X54407Y48463
X20117Y29261
X20117Y20574
X44348Y63094
X70409Y64008
X73609Y60808
X19202Y41605
X69037Y46634
M30