%TF.GenerationSoftware,KiCad,Pcbnew,(5.1.9)-1*%
%TF.CreationDate,2021-06-15T00:17:23-03:00*%
%TF.ProjectId,assert,61737365-7274-42e6-9b69-6361645f7063,rev?*%
%TF.SameCoordinates,Original*%
%TF.FileFunction,Copper,L2,Bot*%
%TF.FilePolarity,Positive*%
%FSLAX46Y46*%
G04 Gerber Fmt 4.6, Leading zero omitted, Abs format (unit mm)*
G04 Created by KiCad (PCBNEW (5.1.9)-1) date 2021-06-15 00:17:23*
%MOMM*%
%LPD*%
G01*
G04 APERTURE LIST*
%TA.AperFunction,NonConductor*%
%ADD10C,0.750000*%
%TD*%
%TA.AperFunction,ComponentPad*%
%ADD11C,2.000000*%
%TD*%
%TA.AperFunction,ComponentPad*%
%ADD12O,2.600000X1.800000*%
%TD*%
%TA.AperFunction,ComponentPad*%
%ADD13R,2.600000X1.800000*%
%TD*%
%TA.AperFunction,ComponentPad*%
%ADD14O,1.600000X1.600000*%
%TD*%
%TA.AperFunction,ComponentPad*%
%ADD15R,1.600000X1.600000*%
%TD*%
%TA.AperFunction,ComponentPad*%
%ADD16C,10.160000*%
%TD*%
%TA.AperFunction,ComponentPad*%
%ADD17O,1.700000X1.700000*%
%TD*%
%TA.AperFunction,ComponentPad*%
%ADD18R,1.700000X1.700000*%
%TD*%
%TA.AperFunction,ComponentPad*%
%ADD19O,2.000000X1.905000*%
%TD*%
%TA.AperFunction,ComponentPad*%
%ADD20R,2.000000X1.905000*%
%TD*%
%TA.AperFunction,WasherPad*%
%ADD21O,3.500000X3.500000*%
%TD*%
%TA.AperFunction,ComponentPad*%
%ADD22C,1.440000*%
%TD*%
%TA.AperFunction,ComponentPad*%
%ADD23C,1.600000*%
%TD*%
%TA.AperFunction,ComponentPad*%
%ADD24C,1.800000*%
%TD*%
%TA.AperFunction,ComponentPad*%
%ADD25R,1.800000X1.800000*%
%TD*%
%TA.AperFunction,ViaPad*%
%ADD26C,3.500000*%
%TD*%
%TA.AperFunction,ViaPad*%
%ADD27C,0.800000*%
%TD*%
%TA.AperFunction,Conductor*%
%ADD28C,1.000000*%
%TD*%
%TA.AperFunction,Conductor*%
%ADD29C,0.500000*%
%TD*%
%TA.AperFunction,Conductor*%
%ADD30C,0.254000*%
%TD*%
%TA.AperFunction,Conductor*%
%ADD31C,0.100000*%
%TD*%
G04 APERTURE END LIST*
D10*
X89950000Y-38665714D02*
X89950000Y-40094285D01*
X90807142Y-38380000D02*
X87807142Y-39380000D01*
X90807142Y-40380000D01*
X90664285Y-41237142D02*
X90807142Y-41665714D01*
X90807142Y-42380000D01*
X90664285Y-42665714D01*
X90521428Y-42808571D01*
X90235714Y-42951428D01*
X89950000Y-42951428D01*
X89664285Y-42808571D01*
X89521428Y-42665714D01*
X89378571Y-42380000D01*
X89235714Y-41808571D01*
X89092857Y-41522857D01*
X88950000Y-41380000D01*
X88664285Y-41237142D01*
X88378571Y-41237142D01*
X88092857Y-41380000D01*
X87950000Y-41522857D01*
X87807142Y-41808571D01*
X87807142Y-42522857D01*
X87950000Y-42951428D01*
X90664285Y-44094285D02*
X90807142Y-44522857D01*
X90807142Y-45237142D01*
X90664285Y-45522857D01*
X90521428Y-45665714D01*
X90235714Y-45808571D01*
X89950000Y-45808571D01*
X89664285Y-45665714D01*
X89521428Y-45522857D01*
X89378571Y-45237142D01*
X89235714Y-44665714D01*
X89092857Y-44380000D01*
X88950000Y-44237142D01*
X88664285Y-44094285D01*
X88378571Y-44094285D01*
X88092857Y-44237142D01*
X87950000Y-44380000D01*
X87807142Y-44665714D01*
X87807142Y-45380000D01*
X87950000Y-45808571D01*
X89235714Y-47094285D02*
X89235714Y-48094285D01*
X90807142Y-48522857D02*
X90807142Y-47094285D01*
X87807142Y-47094285D01*
X87807142Y-48522857D01*
X90807142Y-51522857D02*
X89378571Y-50522857D01*
X90807142Y-49808571D02*
X87807142Y-49808571D01*
X87807142Y-50951428D01*
X87950000Y-51237142D01*
X88092857Y-51380000D01*
X88378571Y-51522857D01*
X88807142Y-51522857D01*
X89092857Y-51380000D01*
X89235714Y-51237142D01*
X89378571Y-50951428D01*
X89378571Y-49808571D01*
X87807142Y-52380000D02*
X87807142Y-54094285D01*
X90807142Y-53237142D02*
X87807142Y-53237142D01*
X89664285Y-57379999D02*
X89664285Y-59665714D01*
X90807142Y-64808571D02*
X90807142Y-63379999D01*
X87807142Y-63379999D01*
X89235714Y-65808571D02*
X89235714Y-66808571D01*
X90807142Y-67237142D02*
X90807142Y-65808571D01*
X87807142Y-65808571D01*
X87807142Y-67237142D01*
X89235714Y-68522857D02*
X89235714Y-69522857D01*
X90807142Y-69951428D02*
X90807142Y-68522857D01*
X87807142Y-68522857D01*
X87807142Y-69951428D01*
X91092857Y-73237142D02*
X90950000Y-72951428D01*
X90664285Y-72665714D01*
X90235714Y-72237142D01*
X90092857Y-71951428D01*
X90092857Y-71665714D01*
X90807142Y-71808571D02*
X90664285Y-71522857D01*
X90378571Y-71237142D01*
X89807142Y-71094285D01*
X88807142Y-71094285D01*
X88235714Y-71237142D01*
X87950000Y-71522857D01*
X87807142Y-71808571D01*
X87807142Y-72379999D01*
X87950000Y-72665714D01*
X88235714Y-72951428D01*
X88807142Y-73094285D01*
X89807142Y-73094285D01*
X90378571Y-72951428D01*
X90664285Y-72665714D01*
X90807142Y-72379999D01*
X90807142Y-71808571D01*
X93057142Y-35594285D02*
X96057142Y-36594285D01*
X93057142Y-37594285D01*
X93057142Y-41451428D02*
X93057142Y-41737142D01*
X93200000Y-42022857D01*
X93342857Y-42165714D01*
X93628571Y-42308571D01*
X94200000Y-42451428D01*
X94914285Y-42451428D01*
X95485714Y-42308571D01*
X95771428Y-42165714D01*
X95914285Y-42022857D01*
X96057142Y-41737142D01*
X96057142Y-41451428D01*
X95914285Y-41165714D01*
X95771428Y-41022857D01*
X95485714Y-40880000D01*
X94914285Y-40737142D01*
X94200000Y-40737142D01*
X93628571Y-40880000D01*
X93342857Y-41022857D01*
X93200000Y-41165714D01*
X93057142Y-41451428D01*
X95771428Y-43737142D02*
X95914285Y-43880000D01*
X96057142Y-43737142D01*
X95914285Y-43594285D01*
X95771428Y-43737142D01*
X96057142Y-43737142D01*
X96057142Y-46737142D02*
X96057142Y-45022857D01*
X96057142Y-45880000D02*
X93057142Y-45880000D01*
X93485714Y-45594285D01*
X93771428Y-45308571D01*
X93914285Y-45022857D01*
X96057142Y-54165714D02*
X96057142Y-52451428D01*
X96057142Y-53308571D02*
X93057142Y-53308571D01*
X93485714Y-53022857D01*
X93771428Y-52737142D01*
X93914285Y-52451428D01*
X94057142Y-56737142D02*
X96057142Y-56737142D01*
X92914285Y-56022857D02*
X95057142Y-55308571D01*
X95057142Y-57165714D01*
X94914285Y-58308571D02*
X94914285Y-60594285D01*
X93057142Y-62594285D02*
X93057142Y-62880000D01*
X93200000Y-63165714D01*
X93342857Y-63308571D01*
X93628571Y-63451428D01*
X94200000Y-63594285D01*
X94914285Y-63594285D01*
X95485714Y-63451428D01*
X95771428Y-63308571D01*
X95914285Y-63165714D01*
X96057142Y-62880000D01*
X96057142Y-62594285D01*
X95914285Y-62308571D01*
X95771428Y-62165714D01*
X95485714Y-62022857D01*
X94914285Y-61880000D01*
X94200000Y-61880000D01*
X93628571Y-62022857D01*
X93342857Y-62165714D01*
X93200000Y-62308571D01*
X93057142Y-62594285D01*
X93057142Y-66165714D02*
X93057142Y-65594285D01*
X93200000Y-65308571D01*
X93342857Y-65165714D01*
X93771428Y-64880000D01*
X94342857Y-64737142D01*
X95485714Y-64737142D01*
X95771428Y-64880000D01*
X95914285Y-65022857D01*
X96057142Y-65308571D01*
X96057142Y-65880000D01*
X95914285Y-66165714D01*
X95771428Y-66308571D01*
X95485714Y-66451428D01*
X94771428Y-66451428D01*
X94485714Y-66308571D01*
X94342857Y-66165714D01*
X94200000Y-65880000D01*
X94200000Y-65308571D01*
X94342857Y-65022857D01*
X94485714Y-64880000D01*
X94771428Y-64737142D01*
X94914285Y-67737142D02*
X94914285Y-70022857D01*
X93342857Y-71308571D02*
X93200000Y-71451428D01*
X93057142Y-71737142D01*
X93057142Y-72451428D01*
X93200000Y-72737142D01*
X93342857Y-72880000D01*
X93628571Y-73022857D01*
X93914285Y-73022857D01*
X94342857Y-72880000D01*
X96057142Y-71165714D01*
X96057142Y-73022857D01*
X96057142Y-75880000D02*
X96057142Y-74165714D01*
X96057142Y-75022857D02*
X93057142Y-75022857D01*
X93485714Y-74737142D01*
X93771428Y-74451428D01*
X93914285Y-74165714D01*
D11*
%TO.P,U2,*%
%TO.N,*%
X70080000Y-21270000D03*
X70080000Y-96269100D03*
D12*
%TO.P,U2,16*%
%TO.N,GNDREF*%
X70080000Y-52670000D03*
%TO.P,U2,15*%
%TO.N,Net-(R6-Pad2)*%
X70080000Y-55210000D03*
%TO.P,U2,14*%
%TO.N,/db7*%
X70080000Y-57750000D03*
%TO.P,U2,13*%
%TO.N,/db6*%
X70080000Y-60290000D03*
%TO.P,U2,12*%
%TO.N,/db5*%
X70080000Y-62830000D03*
%TO.P,U2,11*%
%TO.N,/db4*%
X70080000Y-65370000D03*
%TO.P,U2,10*%
%TO.N,Net-(U2-Pad10)*%
X70080000Y-67910000D03*
%TO.P,U2,9*%
%TO.N,Net-(U2-Pad9)*%
X70080000Y-70450000D03*
%TO.P,U2,8*%
%TO.N,Net-(U2-Pad8)*%
X70080000Y-72990000D03*
%TO.P,U2,7*%
%TO.N,Net-(U2-Pad7)*%
X70080000Y-75530000D03*
%TO.P,U2,6*%
%TO.N,/e*%
X70080000Y-78070000D03*
%TO.P,U2,5*%
%TO.N,GNDREF*%
X70080000Y-80610000D03*
%TO.P,U2,4*%
%TO.N,/rs*%
X70080000Y-83150000D03*
%TO.P,U2,3*%
%TO.N,Net-(RV1-Pad2)*%
X70080000Y-85690000D03*
%TO.P,U2,2*%
%TO.N,/5v*%
X70080000Y-88230000D03*
D13*
%TO.P,U2,1*%
%TO.N,GNDREF*%
X70080000Y-90770000D03*
%TD*%
D14*
%TO.P,A1,16*%
%TO.N,/menos*%
X53340000Y-69215000D03*
%TO.P,A1,15*%
%TO.N,/mais*%
X55880000Y-69215000D03*
%TO.P,A1,30*%
%TO.N,Net-(A1-Pad30)*%
X16260000Y-69215000D03*
%TO.P,A1,14*%
%TO.N,/scl*%
X55880000Y-20955000D03*
%TO.P,A1,29*%
%TO.N,GNDREF*%
X18800000Y-69215000D03*
%TO.P,A1,13*%
%TO.N,/sda*%
X53340000Y-20955000D03*
%TO.P,A1,28*%
%TO.N,/sck*%
X21340000Y-69215000D03*
%TO.P,A1,12*%
%TO.N,/s4*%
X50800000Y-20955000D03*
%TO.P,A1,27*%
%TO.N,/miso*%
X23880000Y-69215000D03*
%TO.P,A1,11*%
%TO.N,/s3*%
X48260000Y-20955000D03*
%TO.P,A1,26*%
%TO.N,/mosi*%
X26420000Y-69215000D03*
%TO.P,A1,10*%
%TO.N,/s2*%
X45720000Y-20955000D03*
%TO.P,A1,25*%
%TO.N,/cs*%
X28960000Y-69215000D03*
%TO.P,A1,9*%
%TO.N,/s1*%
X43180000Y-20955000D03*
%TO.P,A1,24*%
%TO.N,/selecionar*%
X31500000Y-69215000D03*
%TO.P,A1,8*%
%TO.N,/vin*%
X38100000Y-20955000D03*
%TO.P,A1,23*%
%TO.N,/cancelar*%
X34040000Y-69215000D03*
%TO.P,A1,7*%
%TO.N,GNDREF*%
X35560000Y-20955000D03*
%TO.P,A1,22*%
%TO.N,/db7*%
X38100000Y-69215000D03*
%TO.P,A1,6*%
%TO.N,GNDREF*%
X33020000Y-20955000D03*
%TO.P,A1,21*%
%TO.N,/db6*%
X40640000Y-69215000D03*
%TO.P,A1,5*%
%TO.N,/5v*%
X30480000Y-20955000D03*
%TO.P,A1,20*%
%TO.N,/db5*%
X43180000Y-69215000D03*
%TO.P,A1,4*%
%TO.N,Net-(A1-Pad4)*%
X27940000Y-20955000D03*
%TO.P,A1,19*%
%TO.N,/db4*%
X45720000Y-69215000D03*
%TO.P,A1,3*%
%TO.N,Net-(A1-Pad3)*%
X25400000Y-20955000D03*
%TO.P,A1,18*%
%TO.N,/e*%
X48260000Y-69215000D03*
%TO.P,A1,2*%
%TO.N,Net-(A1-Pad2)*%
X22860000Y-20955000D03*
%TO.P,A1,17*%
%TO.N,/rs*%
X50800000Y-69215000D03*
D15*
%TO.P,A1,1*%
%TO.N,Net-(A1-Pad1)*%
X20320000Y-20955000D03*
D14*
%TO.P,A1,31*%
%TO.N,Net-(A1-Pad31)*%
X13720000Y-69215000D03*
%TO.P,A1,32*%
%TO.N,Net-(A1-Pad32)*%
X11180000Y-69215000D03*
%TD*%
D16*
%TO.P,J5,1*%
%TO.N,GNDREF*%
X92710000Y-8890000D03*
%TD*%
%TO.P,J4,1*%
%TO.N,/s4*%
X78740000Y-8890000D03*
%TD*%
D17*
%TO.P,J9,7*%
%TO.N,/bat*%
X25400000Y-75565000D03*
%TO.P,J9,6*%
%TO.N,GNDREF*%
X27940000Y-75565000D03*
%TO.P,J9,5*%
%TO.N,/5v*%
X30480000Y-75565000D03*
%TO.P,J9,4*%
%TO.N,/sda*%
X33020000Y-75565000D03*
%TO.P,J9,3*%
%TO.N,/scl*%
X35560000Y-75565000D03*
%TO.P,J9,2*%
%TO.N,/ds*%
X38100000Y-75565000D03*
D18*
%TO.P,J9,1*%
%TO.N,/sq*%
X40640000Y-75565000D03*
%TD*%
D19*
%TO.P,U1,3*%
%TO.N,/5v*%
X25550000Y-8890000D03*
%TO.P,U1,2*%
%TO.N,GNDREF*%
X25550000Y-11430000D03*
D20*
%TO.P,U1,1*%
%TO.N,/vin*%
X25550000Y-13970000D03*
D21*
%TO.P,U1,*%
%TO.N,*%
X8890000Y-11430000D03*
%TD*%
D11*
%TO.P,SW4,1*%
%TO.N,/cancelar*%
X59635000Y-86360000D03*
%TO.P,SW4,2*%
%TO.N,GNDREF*%
X64135000Y-86360000D03*
%TO.P,SW4,1*%
%TO.N,/cancelar*%
X59635000Y-92860000D03*
%TO.P,SW4,2*%
%TO.N,GNDREF*%
X64135000Y-92860000D03*
%TD*%
%TO.P,SW3,1*%
%TO.N,/selecionar*%
X51435000Y-86360000D03*
%TO.P,SW3,2*%
%TO.N,GNDREF*%
X55935000Y-86360000D03*
%TO.P,SW3,1*%
%TO.N,/selecionar*%
X51435000Y-92860000D03*
%TO.P,SW3,2*%
%TO.N,GNDREF*%
X55935000Y-92860000D03*
%TD*%
%TO.P,SW2,1*%
%TO.N,/menos*%
X51435000Y-75565000D03*
%TO.P,SW2,2*%
%TO.N,GNDREF*%
X55935000Y-75565000D03*
%TO.P,SW2,1*%
%TO.N,/menos*%
X51435000Y-82065000D03*
%TO.P,SW2,2*%
%TO.N,GNDREF*%
X55935000Y-82065000D03*
%TD*%
%TO.P,SW1,1*%
%TO.N,/mais*%
X64190000Y-82065000D03*
%TO.P,SW1,2*%
%TO.N,GNDREF*%
X59690000Y-82065000D03*
%TO.P,SW1,1*%
%TO.N,/mais*%
X64190000Y-75565000D03*
%TO.P,SW1,2*%
%TO.N,GNDREF*%
X59690000Y-75565000D03*
%TD*%
D22*
%TO.P,RV1,1*%
%TO.N,GNDREF*%
X64135000Y-35560000D03*
%TO.P,RV1,2*%
%TO.N,Net-(RV1-Pad2)*%
X64135000Y-38100000D03*
%TO.P,RV1,3*%
%TO.N,/5v*%
X64135000Y-40640000D03*
%TD*%
D14*
%TO.P,R6,2*%
%TO.N,Net-(R6-Pad2)*%
X64135000Y-53340000D03*
D23*
%TO.P,R6,1*%
%TO.N,/5v*%
X64135000Y-45720000D03*
%TD*%
D14*
%TO.P,R5,2*%
%TO.N,/cancelar*%
X44450000Y-93980000D03*
D23*
%TO.P,R5,1*%
%TO.N,/5v*%
X44450000Y-86360000D03*
%TD*%
D14*
%TO.P,R4,2*%
%TO.N,/selecionar*%
X44450000Y-74295000D03*
D23*
%TO.P,R4,1*%
%TO.N,/5v*%
X44450000Y-81915000D03*
%TD*%
D14*
%TO.P,R3,2*%
%TO.N,/menos*%
X48260000Y-86360000D03*
D23*
%TO.P,R3,1*%
%TO.N,/5v*%
X48260000Y-93980000D03*
%TD*%
D14*
%TO.P,R2,2*%
%TO.N,/mais*%
X48260000Y-74295000D03*
D23*
%TO.P,R2,1*%
%TO.N,/5v*%
X48260000Y-81915000D03*
%TD*%
D14*
%TO.P,R1,2*%
%TO.N,Net-(D1-Pad2)*%
X14605000Y-3810000D03*
D23*
%TO.P,R1,1*%
%TO.N,/5v*%
X22225000Y-3810000D03*
%TD*%
D17*
%TO.P,J8,6*%
%TO.N,/cs*%
X3175000Y-75565000D03*
%TO.P,J8,5*%
%TO.N,/sck*%
X5715000Y-75565000D03*
%TO.P,J8,4*%
%TO.N,/mosi*%
X8255000Y-75565000D03*
%TO.P,J8,3*%
%TO.N,/miso*%
X10795000Y-75565000D03*
%TO.P,J8,2*%
%TO.N,/5v*%
X13335000Y-75565000D03*
D18*
%TO.P,J8,1*%
%TO.N,GNDREF*%
X15875000Y-75565000D03*
%TD*%
D16*
%TO.P,J3,1*%
%TO.N,/s3*%
X64770000Y-8890000D03*
%TD*%
%TO.P,J2,1*%
%TO.N,/s2*%
X50800000Y-8890000D03*
%TD*%
%TO.P,J1,1*%
%TO.N,/s1*%
X36830000Y-8890000D03*
%TD*%
D24*
%TO.P,D1,2*%
%TO.N,Net-(D1-Pad2)*%
X11430000Y-3810000D03*
D25*
%TO.P,D1,1*%
%TO.N,GNDREF*%
X8890000Y-3810000D03*
%TD*%
D23*
%TO.P,C2,2*%
%TO.N,GNDREF*%
X28535000Y-3810000D03*
%TO.P,C2,1*%
%TO.N,/5v*%
X26035000Y-3810000D03*
%TD*%
%TO.P,C1,2*%
%TO.N,GNDREF*%
X29210000Y-12740000D03*
%TO.P,C1,1*%
%TO.N,/vin*%
X29210000Y-15240000D03*
%TD*%
D26*
%TO.N,*%
X3175000Y-96520000D03*
X96520000Y-96520000D03*
X3175000Y-3175000D03*
D27*
%TO.N,/mosi*%
X9525000Y-73025000D03*
X12065000Y-73025000D03*
%TD*%
D28*
%TO.N,/menos*%
X53340000Y-70346370D02*
X53340000Y-69215000D01*
X51435000Y-75565000D02*
X51435000Y-72251370D01*
X51435000Y-72251370D02*
X53340000Y-70346370D01*
X48260000Y-85240000D02*
X51435000Y-82065000D01*
X48260000Y-86360000D02*
X48260000Y-85240000D01*
%TO.N,/mais*%
X57840000Y-69215000D02*
X55880000Y-69215000D01*
X64190000Y-75565000D02*
X57840000Y-69215000D01*
X62189999Y-77565001D02*
X64190000Y-75565000D01*
X50476335Y-77565001D02*
X62189999Y-77565001D01*
X48260000Y-74295000D02*
X48260000Y-75348666D01*
X48260000Y-75348666D02*
X50476335Y-77565001D01*
D29*
%TO.N,/scl*%
X56115653Y-20955000D02*
X55880000Y-20955000D01*
X78740000Y-43579347D02*
X56115653Y-20955000D01*
X73314999Y-92420001D02*
X78740000Y-86995000D01*
X62795013Y-96789989D02*
X67165001Y-92420001D01*
X67165001Y-92420001D02*
X73314999Y-92420001D01*
X78740000Y-86995000D02*
X78740000Y-43579347D01*
X44575760Y-96789989D02*
X62795013Y-96789989D01*
X35560000Y-87774229D02*
X44575760Y-96789989D01*
X35560000Y-75565000D02*
X35560000Y-87774229D01*
%TO.N,GNDREF*%
X71880000Y-80610000D02*
X70080000Y-80610000D01*
X72130010Y-80359990D02*
X71880000Y-80610000D01*
X72130010Y-54320010D02*
X72130010Y-80359990D01*
X70480000Y-52670000D02*
X72130010Y-54320010D01*
X70080000Y-52670000D02*
X70480000Y-52670000D01*
%TO.N,/sda*%
X44161542Y-97790000D02*
X63500000Y-97790000D01*
X63500000Y-97790000D02*
X67869988Y-93420012D01*
X67869988Y-93420012D02*
X73729217Y-93420012D01*
X56624001Y-19404999D02*
X54890001Y-19404999D01*
X73729217Y-93420012D02*
X80010000Y-87139229D01*
X80010000Y-87139229D02*
X80010000Y-42790998D01*
X80010000Y-42790998D02*
X56624001Y-19404999D01*
X54890001Y-19404999D02*
X53340000Y-20955000D01*
X33020000Y-86648458D02*
X44161542Y-97790000D01*
X33020000Y-75565000D02*
X33020000Y-86648458D01*
D28*
%TO.N,/sck*%
X21340000Y-68083630D02*
X21340000Y-69215000D01*
X19931370Y-66675000D02*
X21340000Y-68083630D01*
X5715000Y-72015998D02*
X11055998Y-66675000D01*
X5715000Y-75565000D02*
X5715000Y-72015998D01*
X11055998Y-66675000D02*
X19931370Y-66675000D01*
%TO.N,/s4*%
X50800000Y-20955000D02*
X50800000Y-20497482D01*
X50800000Y-20497482D02*
X56327481Y-14970001D01*
X56327481Y-14970001D02*
X72659999Y-14970001D01*
X72659999Y-14970001D02*
X78740000Y-8890000D01*
D29*
%TO.N,/miso*%
X21975000Y-71120000D02*
X23880000Y-69215000D01*
X11430000Y-71120000D02*
X21975000Y-71120000D01*
X10795000Y-71755000D02*
X11430000Y-71120000D01*
X10795000Y-75565000D02*
X10795000Y-71755000D01*
D28*
%TO.N,/s3*%
X48260000Y-20916148D02*
X48260000Y-20955000D01*
X60286148Y-8890000D02*
X48260000Y-20916148D01*
X64770000Y-8890000D02*
X60286148Y-8890000D01*
D29*
%TO.N,/mosi*%
X8255000Y-74295000D02*
X9525000Y-73025000D01*
X8255000Y-75565000D02*
X8255000Y-74295000D01*
X23170012Y-72464988D02*
X26420000Y-69215000D01*
X12625012Y-72464988D02*
X23170012Y-72464988D01*
X12065000Y-73025000D02*
X12625012Y-72464988D01*
D28*
%TO.N,/s2*%
X45720000Y-13970000D02*
X45720000Y-20955000D01*
X50800000Y-8890000D02*
X45720000Y-13970000D01*
%TO.N,/cs*%
X3175000Y-75565000D02*
X3175000Y-72434663D01*
X10434674Y-65174989D02*
X26051359Y-65174989D01*
X3175000Y-72434663D02*
X10434674Y-65174989D01*
X28960000Y-68083630D02*
X28960000Y-69215000D01*
X26051359Y-65174989D02*
X28960000Y-68083630D01*
%TO.N,/s1*%
X43180000Y-15240000D02*
X43180000Y-20955000D01*
X36830000Y-8890000D02*
X43180000Y-15240000D01*
D29*
%TO.N,/selecionar*%
X53185001Y-84609999D02*
X53185001Y-81125001D01*
X51435000Y-86360000D02*
X53185001Y-84609999D01*
X44450000Y-74722011D02*
X44450000Y-74295000D01*
X49543010Y-79815021D02*
X44450000Y-74722011D01*
X51875022Y-79815022D02*
X49543010Y-79815021D01*
X53185001Y-81125001D02*
X51875022Y-79815022D01*
D28*
X42911325Y-72214988D02*
X33368618Y-72214988D01*
X44450000Y-73753663D02*
X42911325Y-72214988D01*
X31500000Y-70346370D02*
X31500000Y-69215000D01*
X33368618Y-72214988D02*
X31500000Y-70346370D01*
X44450000Y-74295000D02*
X44450000Y-73753663D01*
%TO.N,/vin*%
X26820000Y-15240000D02*
X29210000Y-15240000D01*
X25550000Y-13970000D02*
X26820000Y-15240000D01*
X38100000Y-20706815D02*
X38100000Y-20955000D01*
X32633185Y-15240000D02*
X38100000Y-20706815D01*
X29210000Y-15240000D02*
X32633185Y-15240000D01*
D29*
%TO.N,/cancelar*%
X61690001Y-84304999D02*
X61690001Y-80740001D01*
X60015012Y-79065012D02*
X52539241Y-79065012D01*
X52539241Y-79065012D02*
X52289239Y-78815012D01*
X61690001Y-80740001D02*
X60015012Y-79065012D01*
X59635000Y-86360000D02*
X61690001Y-84304999D01*
X49957228Y-78815011D02*
X46250001Y-75107784D01*
X43783979Y-70964977D02*
X35789977Y-70964977D01*
X35789977Y-70964977D02*
X34040000Y-69215000D01*
X46250001Y-75107784D02*
X46250001Y-73430999D01*
X52289239Y-78815012D02*
X49957228Y-78815011D01*
X46250001Y-73430999D02*
X43783979Y-70964977D01*
X46259978Y-95789978D02*
X56705022Y-95789978D01*
X44450000Y-93980000D02*
X46259978Y-95789978D01*
X56705022Y-95789978D02*
X59635000Y-92860000D01*
D28*
%TO.N,/db7*%
X38100000Y-69090998D02*
X38100000Y-69215000D01*
X49440998Y-57750000D02*
X38100000Y-69090998D01*
X70080000Y-57750000D02*
X49440998Y-57750000D01*
%TO.N,/db6*%
X49440998Y-60290000D02*
X40640000Y-69090998D01*
X40640000Y-69090998D02*
X40640000Y-69215000D01*
X70080000Y-60290000D02*
X49440998Y-60290000D01*
%TO.N,/db5*%
X70080000Y-62830000D02*
X69654980Y-62404980D01*
X49447352Y-62404980D02*
X43180000Y-68672332D01*
X43180000Y-68672332D02*
X43180000Y-69215000D01*
X69654980Y-62404980D02*
X49447352Y-62404980D01*
%TO.N,/db4*%
X45720000Y-68253666D02*
X45720000Y-69215000D01*
X63046334Y-65370000D02*
X61581325Y-63904991D01*
X50068675Y-63904991D02*
X45720000Y-68253666D01*
X70080000Y-65370000D02*
X63046334Y-65370000D01*
X61581325Y-63904991D02*
X50068675Y-63904991D01*
%TO.N,/rs*%
X50800000Y-69090998D02*
X50800000Y-69215000D01*
X52475999Y-67414999D02*
X50800000Y-69090998D01*
X59000001Y-67414999D02*
X52475999Y-67414999D01*
X70080000Y-83150000D02*
X69532981Y-83150000D01*
X66190001Y-74604999D02*
X59000001Y-67414999D01*
X69532981Y-83150000D02*
X66190001Y-79807020D01*
X66190001Y-79807020D02*
X66190001Y-74604999D01*
%TO.N,/e*%
X67780000Y-78070000D02*
X67780000Y-74073663D01*
X70080000Y-78070000D02*
X67780000Y-78070000D01*
X67780000Y-74073663D02*
X59621325Y-65914988D01*
X59621325Y-65914988D02*
X51436010Y-65914988D01*
X51436010Y-65914988D02*
X48260000Y-69090998D01*
X48260000Y-69090998D02*
X48260000Y-69215000D01*
%TO.N,/5v*%
X22225000Y-3810000D02*
X26035000Y-3810000D01*
D29*
X26035000Y-8405000D02*
X25550000Y-8890000D01*
D28*
X26035000Y-3810000D02*
X26035000Y-8405000D01*
X30480000Y-19823630D02*
X30480000Y-20955000D01*
X25550000Y-8890000D02*
X25281234Y-8890000D01*
X25281234Y-8890000D02*
X23549999Y-10621235D01*
X29811369Y-19154999D02*
X30480000Y-19823630D01*
X23549999Y-10621235D02*
X23549999Y-15722501D01*
X23549999Y-15722501D02*
X26982497Y-19154999D01*
X26982497Y-19154999D02*
X29811369Y-19154999D01*
X48260000Y-90170000D02*
X44450000Y-86360000D01*
X48260000Y-93980000D02*
X48260000Y-90170000D01*
X44450000Y-86360000D02*
X44450000Y-81915000D01*
X44450000Y-81915000D02*
X48260000Y-81915000D01*
X46450001Y-88360001D02*
X44450000Y-86360000D01*
X70080000Y-88230000D02*
X65225002Y-88230000D01*
X65225002Y-88230000D02*
X65095001Y-88360001D01*
X65095001Y-88360001D02*
X46450001Y-88360001D01*
X64135000Y-40640000D02*
X64135000Y-45720000D01*
X65855001Y-38919999D02*
X64135000Y-40640000D01*
X65855001Y-34734399D02*
X65855001Y-38919999D01*
X64960601Y-33839999D02*
X65855001Y-34734399D01*
X42233629Y-33839999D02*
X64960601Y-33839999D01*
X30480000Y-22086370D02*
X42233629Y-33839999D01*
X30480000Y-20955000D02*
X30480000Y-22086370D01*
X72380000Y-88230000D02*
X70080000Y-88230000D01*
X74880029Y-51385029D02*
X74880029Y-85729971D01*
X74880029Y-85729971D02*
X72380000Y-88230000D01*
X64135000Y-40640000D02*
X74880029Y-51385029D01*
X42649999Y-80114999D02*
X44450000Y-81915000D01*
X30480000Y-74362919D02*
X31127920Y-73714999D01*
X42290001Y-73714999D02*
X42649999Y-74074997D01*
X42649999Y-74074997D02*
X42649999Y-80114999D01*
X30480000Y-74362919D02*
X30480000Y-75565000D01*
X13982920Y-73714999D02*
X31949001Y-73714999D01*
X13335000Y-74362919D02*
X13982920Y-73714999D01*
X13335000Y-75565000D02*
X13335000Y-74362919D01*
X31949001Y-73714999D02*
X42290001Y-73714999D01*
X31127920Y-73714999D02*
X31949001Y-73714999D01*
%TO.N,Net-(D1-Pad2)*%
X11430000Y-3810000D02*
X14605000Y-3810000D01*
%TO.N,Net-(R6-Pad2)*%
X66005000Y-55210000D02*
X64135000Y-53340000D01*
X70080000Y-55210000D02*
X66005000Y-55210000D01*
%TO.N,Net-(RV1-Pad2)*%
X72380000Y-85690000D02*
X70080000Y-85690000D01*
X64135000Y-38100000D02*
X62334999Y-39900001D01*
X62334999Y-46584001D02*
X66520988Y-50769990D01*
X73380020Y-84689980D02*
X72380000Y-85690000D01*
X73380020Y-52883001D02*
X73380020Y-84689980D01*
X71267009Y-50769990D02*
X73380020Y-52883001D01*
X66520988Y-50769990D02*
X71267009Y-50769990D01*
X62334999Y-39900001D02*
X62334999Y-46584001D01*
%TD*%
D30*
%TO.N,GNDREF*%
X98868000Y-95715861D02*
X98715089Y-95346701D01*
X98444011Y-94941005D01*
X98098995Y-94595989D01*
X97693299Y-94324911D01*
X97242514Y-94138190D01*
X96763963Y-94043000D01*
X96276037Y-94043000D01*
X95797486Y-94138190D01*
X95346701Y-94324911D01*
X94941005Y-94595989D01*
X94595989Y-94941005D01*
X94324911Y-95346701D01*
X94138190Y-95797486D01*
X94043000Y-96276037D01*
X94043000Y-96763963D01*
X94138190Y-97242514D01*
X94324911Y-97693299D01*
X94595989Y-98098995D01*
X94941005Y-98444011D01*
X95346701Y-98715089D01*
X95715861Y-98868000D01*
X3979139Y-98868000D01*
X4348299Y-98715089D01*
X4753995Y-98444011D01*
X5099011Y-98098995D01*
X5370089Y-97693299D01*
X5556810Y-97242514D01*
X5652000Y-96763963D01*
X5652000Y-96276037D01*
X5556810Y-95797486D01*
X5370089Y-95346701D01*
X5099011Y-94941005D01*
X4753995Y-94595989D01*
X4348299Y-94324911D01*
X3897514Y-94138190D01*
X3418963Y-94043000D01*
X2931037Y-94043000D01*
X2452486Y-94138190D01*
X2001701Y-94324911D01*
X1596005Y-94595989D01*
X1250989Y-94941005D01*
X979911Y-95346701D01*
X827000Y-95715861D01*
X827000Y-75409679D01*
X1598000Y-75409679D01*
X1598000Y-75720321D01*
X1658604Y-76024994D01*
X1777481Y-76311989D01*
X1950064Y-76570279D01*
X2169721Y-76789936D01*
X2428011Y-76962519D01*
X2715006Y-77081396D01*
X3019679Y-77142000D01*
X3330321Y-77142000D01*
X3634994Y-77081396D01*
X3921989Y-76962519D01*
X4180279Y-76789936D01*
X4399936Y-76570279D01*
X4445000Y-76502836D01*
X4490064Y-76570279D01*
X4709721Y-76789936D01*
X4968011Y-76962519D01*
X5255006Y-77081396D01*
X5559679Y-77142000D01*
X5870321Y-77142000D01*
X6174994Y-77081396D01*
X6461989Y-76962519D01*
X6720279Y-76789936D01*
X6939936Y-76570279D01*
X6985000Y-76502836D01*
X7030064Y-76570279D01*
X7249721Y-76789936D01*
X7508011Y-76962519D01*
X7795006Y-77081396D01*
X8099679Y-77142000D01*
X8410321Y-77142000D01*
X8714994Y-77081396D01*
X9001989Y-76962519D01*
X9260279Y-76789936D01*
X9479936Y-76570279D01*
X9525000Y-76502836D01*
X9570064Y-76570279D01*
X9789721Y-76789936D01*
X10048011Y-76962519D01*
X10335006Y-77081396D01*
X10639679Y-77142000D01*
X10950321Y-77142000D01*
X11254994Y-77081396D01*
X11541989Y-76962519D01*
X11800279Y-76789936D01*
X12019936Y-76570279D01*
X12065000Y-76502836D01*
X12110064Y-76570279D01*
X12329721Y-76789936D01*
X12588011Y-76962519D01*
X12875006Y-77081396D01*
X13179679Y-77142000D01*
X13490321Y-77142000D01*
X13794994Y-77081396D01*
X14081989Y-76962519D01*
X14340279Y-76789936D01*
X14447877Y-76682338D01*
X14494463Y-76769494D01*
X14573815Y-76866185D01*
X14670506Y-76945537D01*
X14780820Y-77004502D01*
X14900518Y-77040812D01*
X15025000Y-77053072D01*
X15589250Y-77050000D01*
X15748000Y-76891250D01*
X15748000Y-75692000D01*
X16002000Y-75692000D01*
X16002000Y-76891250D01*
X16160750Y-77050000D01*
X16725000Y-77053072D01*
X16849482Y-77040812D01*
X16969180Y-77004502D01*
X17079494Y-76945537D01*
X17176185Y-76866185D01*
X17255537Y-76769494D01*
X17314502Y-76659180D01*
X17350812Y-76539482D01*
X17363072Y-76415000D01*
X17360000Y-75850750D01*
X17201250Y-75692000D01*
X16002000Y-75692000D01*
X15748000Y-75692000D01*
X15728000Y-75692000D01*
X15728000Y-75438000D01*
X15748000Y-75438000D01*
X15748000Y-75418000D01*
X16002000Y-75418000D01*
X16002000Y-75438000D01*
X17201250Y-75438000D01*
X17360000Y-75279250D01*
X17361836Y-74941999D01*
X23951124Y-74941999D01*
X23883604Y-75105006D01*
X23823000Y-75409679D01*
X23823000Y-75720321D01*
X23883604Y-76024994D01*
X24002481Y-76311989D01*
X24175064Y-76570279D01*
X24394721Y-76789936D01*
X24653011Y-76962519D01*
X24940006Y-77081396D01*
X25244679Y-77142000D01*
X25555321Y-77142000D01*
X25859994Y-77081396D01*
X26146989Y-76962519D01*
X26405279Y-76789936D01*
X26624936Y-76570279D01*
X26727344Y-76417014D01*
X26744822Y-76446355D01*
X26939731Y-76662588D01*
X27173080Y-76836641D01*
X27435901Y-76961825D01*
X27583110Y-77006476D01*
X27813000Y-76885155D01*
X27813000Y-75692000D01*
X27793000Y-75692000D01*
X27793000Y-75438000D01*
X27813000Y-75438000D01*
X27813000Y-75418000D01*
X28067000Y-75418000D01*
X28067000Y-75438000D01*
X28087000Y-75438000D01*
X28087000Y-75692000D01*
X28067000Y-75692000D01*
X28067000Y-76885155D01*
X28296890Y-77006476D01*
X28444099Y-76961825D01*
X28706920Y-76836641D01*
X28940269Y-76662588D01*
X29135178Y-76446355D01*
X29152656Y-76417014D01*
X29255064Y-76570279D01*
X29474721Y-76789936D01*
X29733011Y-76962519D01*
X30020006Y-77081396D01*
X30324679Y-77142000D01*
X30635321Y-77142000D01*
X30939994Y-77081396D01*
X31226989Y-76962519D01*
X31485279Y-76789936D01*
X31704936Y-76570279D01*
X31750000Y-76502836D01*
X31795064Y-76570279D01*
X32014721Y-76789936D01*
X32043000Y-76808831D01*
X32043001Y-86600455D01*
X32038273Y-86648458D01*
X32057137Y-86839983D01*
X32113003Y-87024148D01*
X32180677Y-87150756D01*
X32203725Y-87193876D01*
X32325815Y-87342644D01*
X32363093Y-87373237D01*
X43436763Y-98446908D01*
X43467356Y-98484186D01*
X43616124Y-98606276D01*
X43785851Y-98696997D01*
X43877934Y-98724930D01*
X43970016Y-98752863D01*
X44161542Y-98771727D01*
X44209535Y-98767000D01*
X63452007Y-98767000D01*
X63500000Y-98771727D01*
X63691525Y-98752863D01*
X63875691Y-98696997D01*
X64045418Y-98606276D01*
X64194186Y-98484186D01*
X64224784Y-98446902D01*
X66572681Y-96099005D01*
X68353000Y-96099005D01*
X68353000Y-96439195D01*
X68419368Y-96772847D01*
X68549553Y-97087141D01*
X68738552Y-97369998D01*
X68979102Y-97610548D01*
X69261959Y-97799547D01*
X69576253Y-97929732D01*
X69909905Y-97996100D01*
X70250095Y-97996100D01*
X70583747Y-97929732D01*
X70898041Y-97799547D01*
X71180898Y-97610548D01*
X71421448Y-97369998D01*
X71610447Y-97087141D01*
X71740632Y-96772847D01*
X71807000Y-96439195D01*
X71807000Y-96099005D01*
X71740632Y-95765353D01*
X71610447Y-95451059D01*
X71421448Y-95168202D01*
X71180898Y-94927652D01*
X70898041Y-94738653D01*
X70583747Y-94608468D01*
X70250095Y-94542100D01*
X69909905Y-94542100D01*
X69576253Y-94608468D01*
X69261959Y-94738653D01*
X68979102Y-94927652D01*
X68738552Y-95168202D01*
X68549553Y-95451059D01*
X68419368Y-95765353D01*
X68353000Y-96099005D01*
X66572681Y-96099005D01*
X68274675Y-94397012D01*
X73681224Y-94397012D01*
X73729217Y-94401739D01*
X73920742Y-94382875D01*
X74010359Y-94355690D01*
X74104908Y-94327009D01*
X74274635Y-94236288D01*
X74423403Y-94114198D01*
X74454001Y-94076914D01*
X80666902Y-87864013D01*
X80704186Y-87833415D01*
X80826276Y-87684647D01*
X80916997Y-87514920D01*
X80969256Y-87342644D01*
X80972863Y-87330755D01*
X80991727Y-87139229D01*
X80987000Y-87091236D01*
X80987000Y-42838991D01*
X80991727Y-42790998D01*
X80972863Y-42599472D01*
X80916997Y-42415307D01*
X80826275Y-42245579D01*
X80734779Y-42134090D01*
X80704186Y-42096812D01*
X80666908Y-42066219D01*
X72807260Y-34206571D01*
X86375500Y-34206571D01*
X86375500Y-77553428D01*
X98329500Y-77553428D01*
X98329500Y-34206571D01*
X86375500Y-34206571D01*
X72807260Y-34206571D01*
X59700594Y-21099905D01*
X68353000Y-21099905D01*
X68353000Y-21440095D01*
X68419368Y-21773747D01*
X68549553Y-22088041D01*
X68738552Y-22370898D01*
X68979102Y-22611448D01*
X69261959Y-22800447D01*
X69576253Y-22930632D01*
X69909905Y-22997000D01*
X70250095Y-22997000D01*
X70583747Y-22930632D01*
X70898041Y-22800447D01*
X71180898Y-22611448D01*
X71421448Y-22370898D01*
X71610447Y-22088041D01*
X71740632Y-21773747D01*
X71807000Y-21440095D01*
X71807000Y-21099905D01*
X71740632Y-20766253D01*
X71610447Y-20451959D01*
X71421448Y-20169102D01*
X71180898Y-19928552D01*
X70898041Y-19739553D01*
X70583747Y-19609368D01*
X70250095Y-19543000D01*
X69909905Y-19543000D01*
X69576253Y-19609368D01*
X69261959Y-19739553D01*
X68979102Y-19928552D01*
X68738552Y-20169102D01*
X68549553Y-20451959D01*
X68419368Y-20766253D01*
X68353000Y-21099905D01*
X59700594Y-21099905D01*
X57348785Y-18748097D01*
X57318187Y-18710813D01*
X57169419Y-18588723D01*
X56999692Y-18498002D01*
X56815526Y-18442136D01*
X56671994Y-18427999D01*
X56624001Y-18423272D01*
X56576008Y-18427999D01*
X54937983Y-18427999D01*
X54890000Y-18423273D01*
X54842017Y-18427999D01*
X54842008Y-18427999D01*
X54698476Y-18442136D01*
X54543606Y-18489115D01*
X56835721Y-16197001D01*
X72599739Y-16197001D01*
X72659999Y-16202936D01*
X72720259Y-16197001D01*
X72720267Y-16197001D01*
X72900533Y-16179246D01*
X73131823Y-16109085D01*
X73344982Y-15995150D01*
X73531816Y-15841818D01*
X73570238Y-15795001D01*
X75593586Y-13771654D01*
X75989354Y-14036097D01*
X77046160Y-14473841D01*
X78168060Y-14697000D01*
X79311940Y-14697000D01*
X80433840Y-14473841D01*
X81490646Y-14036097D01*
X82441747Y-13400592D01*
X82915143Y-12927196D01*
X88852409Y-12927196D01*
X89438124Y-13609416D01*
X90421704Y-14157045D01*
X91493223Y-14502265D01*
X92611501Y-14631808D01*
X93733565Y-14540697D01*
X94816294Y-14232433D01*
X95818079Y-13718863D01*
X95981876Y-13609416D01*
X96567591Y-12927196D01*
X92710000Y-9069605D01*
X88852409Y-12927196D01*
X82915143Y-12927196D01*
X83250592Y-12591747D01*
X83886097Y-11640646D01*
X84323841Y-10583840D01*
X84547000Y-9461940D01*
X84547000Y-8791501D01*
X86968192Y-8791501D01*
X87059303Y-9913565D01*
X87367567Y-10996294D01*
X87881137Y-11998079D01*
X87990584Y-12161876D01*
X88672804Y-12747591D01*
X92530395Y-8890000D01*
X92889605Y-8890000D01*
X96747196Y-12747591D01*
X97429416Y-12161876D01*
X97977045Y-11178296D01*
X98322265Y-10106777D01*
X98451808Y-8988499D01*
X98360697Y-7866435D01*
X98052433Y-6783706D01*
X97538863Y-5781921D01*
X97429416Y-5618124D01*
X96747196Y-5032409D01*
X92889605Y-8890000D01*
X92530395Y-8890000D01*
X88672804Y-5032409D01*
X87990584Y-5618124D01*
X87442955Y-6601704D01*
X87097735Y-7673223D01*
X86968192Y-8791501D01*
X84547000Y-8791501D01*
X84547000Y-8318060D01*
X84323841Y-7196160D01*
X83886097Y-6139354D01*
X83250592Y-5188253D01*
X82915143Y-4852804D01*
X88852409Y-4852804D01*
X92710000Y-8710395D01*
X96567591Y-4852804D01*
X95981876Y-4170584D01*
X94998296Y-3622955D01*
X93926777Y-3277735D01*
X92808499Y-3148192D01*
X91686435Y-3239303D01*
X90603706Y-3547567D01*
X89601921Y-4061137D01*
X89438124Y-4170584D01*
X88852409Y-4852804D01*
X82915143Y-4852804D01*
X82441747Y-4379408D01*
X81490646Y-3743903D01*
X80433840Y-3306159D01*
X79311940Y-3083000D01*
X78168060Y-3083000D01*
X77046160Y-3306159D01*
X75989354Y-3743903D01*
X75038253Y-4379408D01*
X74229408Y-5188253D01*
X73593903Y-6139354D01*
X73156159Y-7196160D01*
X72933000Y-8318060D01*
X72933000Y-9461940D01*
X73156159Y-10583840D01*
X73593903Y-11640646D01*
X73858346Y-12036414D01*
X72151760Y-13743001D01*
X67959295Y-13743001D01*
X68471747Y-13400592D01*
X69280592Y-12591747D01*
X69916097Y-11640646D01*
X70353841Y-10583840D01*
X70577000Y-9461940D01*
X70577000Y-8318060D01*
X70353841Y-7196160D01*
X69916097Y-6139354D01*
X69280592Y-5188253D01*
X68471747Y-4379408D01*
X67520646Y-3743903D01*
X66463840Y-3306159D01*
X65341940Y-3083000D01*
X64198060Y-3083000D01*
X63076160Y-3306159D01*
X62019354Y-3743903D01*
X61068253Y-4379408D01*
X60259408Y-5188253D01*
X59623903Y-6139354D01*
X59186159Y-7196160D01*
X58963000Y-8318060D01*
X58963000Y-8477908D01*
X56049218Y-11391690D01*
X56383841Y-10583840D01*
X56607000Y-9461940D01*
X56607000Y-8318060D01*
X56383841Y-7196160D01*
X55946097Y-6139354D01*
X55310592Y-5188253D01*
X54501747Y-4379408D01*
X53550646Y-3743903D01*
X52493840Y-3306159D01*
X51371940Y-3083000D01*
X50228060Y-3083000D01*
X49106160Y-3306159D01*
X48049354Y-3743903D01*
X47098253Y-4379408D01*
X46289408Y-5188253D01*
X45653903Y-6139354D01*
X45216159Y-7196160D01*
X44993000Y-8318060D01*
X44993000Y-9461940D01*
X45216159Y-10583840D01*
X45653903Y-11640646D01*
X45918347Y-12036414D01*
X44895000Y-13059761D01*
X44848183Y-13098183D01*
X44694851Y-13285018D01*
X44580916Y-13498177D01*
X44510755Y-13729467D01*
X44493000Y-13909733D01*
X44493000Y-13909740D01*
X44487065Y-13970000D01*
X44493000Y-14030260D01*
X44493001Y-20042806D01*
X44450000Y-20107161D01*
X44407000Y-20042807D01*
X44407000Y-15300259D01*
X44412935Y-15239999D01*
X44407000Y-15179739D01*
X44407000Y-15179732D01*
X44389245Y-14999466D01*
X44319084Y-14768176D01*
X44205149Y-14555017D01*
X44051817Y-14368183D01*
X44005005Y-14329765D01*
X41711654Y-12036414D01*
X41976097Y-11640646D01*
X42413841Y-10583840D01*
X42637000Y-9461940D01*
X42637000Y-8318060D01*
X42413841Y-7196160D01*
X41976097Y-6139354D01*
X41340592Y-5188253D01*
X40531747Y-4379408D01*
X39580646Y-3743903D01*
X38523840Y-3306159D01*
X37401940Y-3083000D01*
X36258060Y-3083000D01*
X35136160Y-3306159D01*
X34079354Y-3743903D01*
X33128253Y-4379408D01*
X32319408Y-5188253D01*
X31683903Y-6139354D01*
X31246159Y-7196160D01*
X31023000Y-8318060D01*
X31023000Y-9461940D01*
X31246159Y-10583840D01*
X31683903Y-11640646D01*
X32319408Y-12591747D01*
X33128253Y-13400592D01*
X34079354Y-14036097D01*
X35136160Y-14473841D01*
X36258060Y-14697000D01*
X37401940Y-14697000D01*
X38523840Y-14473841D01*
X39580646Y-14036097D01*
X39976414Y-13771654D01*
X41953000Y-15748240D01*
X41953001Y-20042806D01*
X41826790Y-20231694D01*
X41711681Y-20509590D01*
X41653000Y-20804604D01*
X41653000Y-21105396D01*
X41711681Y-21400410D01*
X41826790Y-21678306D01*
X41993901Y-21928406D01*
X42206594Y-22141099D01*
X42456694Y-22308210D01*
X42734590Y-22423319D01*
X43029604Y-22482000D01*
X43330396Y-22482000D01*
X43625410Y-22423319D01*
X43903306Y-22308210D01*
X44153406Y-22141099D01*
X44366099Y-21928406D01*
X44450000Y-21802839D01*
X44533901Y-21928406D01*
X44746594Y-22141099D01*
X44996694Y-22308210D01*
X45274590Y-22423319D01*
X45569604Y-22482000D01*
X45870396Y-22482000D01*
X46165410Y-22423319D01*
X46443306Y-22308210D01*
X46693406Y-22141099D01*
X46906099Y-21928406D01*
X46990000Y-21802839D01*
X47073901Y-21928406D01*
X47286594Y-22141099D01*
X47536694Y-22308210D01*
X47814590Y-22423319D01*
X48109604Y-22482000D01*
X48410396Y-22482000D01*
X48705410Y-22423319D01*
X48983306Y-22308210D01*
X49233406Y-22141099D01*
X49446099Y-21928406D01*
X49530000Y-21802839D01*
X49613901Y-21928406D01*
X49826594Y-22141099D01*
X50076694Y-22308210D01*
X50354590Y-22423319D01*
X50649604Y-22482000D01*
X50950396Y-22482000D01*
X51245410Y-22423319D01*
X51523306Y-22308210D01*
X51773406Y-22141099D01*
X51986099Y-21928406D01*
X52070000Y-21802839D01*
X52153901Y-21928406D01*
X52366594Y-22141099D01*
X52616694Y-22308210D01*
X52894590Y-22423319D01*
X53189604Y-22482000D01*
X53490396Y-22482000D01*
X53785410Y-22423319D01*
X54063306Y-22308210D01*
X54313406Y-22141099D01*
X54526099Y-21928406D01*
X54610000Y-21802839D01*
X54693901Y-21928406D01*
X54906594Y-22141099D01*
X55156694Y-22308210D01*
X55434590Y-22423319D01*
X55729604Y-22482000D01*
X56030396Y-22482000D01*
X56222713Y-22443746D01*
X77763001Y-43984035D01*
X77763000Y-86590313D01*
X72910313Y-91443001D01*
X72016937Y-91443001D01*
X72015000Y-91055750D01*
X71856250Y-90897000D01*
X70207000Y-90897000D01*
X70207000Y-90917000D01*
X69953000Y-90917000D01*
X69953000Y-90897000D01*
X68303750Y-90897000D01*
X68145000Y-91055750D01*
X68143063Y-91443001D01*
X67212991Y-91443001D01*
X67165000Y-91438274D01*
X67117010Y-91443001D01*
X67117008Y-91443001D01*
X66973476Y-91457138D01*
X66789310Y-91513004D01*
X66619583Y-91603725D01*
X66470815Y-91725815D01*
X66440221Y-91763094D01*
X65730914Y-92472401D01*
X65627795Y-92173912D01*
X65534814Y-91999956D01*
X65270413Y-91904192D01*
X64314605Y-92860000D01*
X64328748Y-92874143D01*
X64149143Y-93053748D01*
X64135000Y-93039605D01*
X63179192Y-93995413D01*
X63274956Y-94259814D01*
X63564571Y-94400704D01*
X63753165Y-94450150D01*
X62390327Y-95812989D01*
X58063697Y-95812989D01*
X59318757Y-94557929D01*
X59464905Y-94587000D01*
X59805095Y-94587000D01*
X60138747Y-94520632D01*
X60453041Y-94390447D01*
X60735898Y-94201448D01*
X60976448Y-93960898D01*
X61165447Y-93678041D01*
X61295632Y-93363747D01*
X61362000Y-93030095D01*
X61362000Y-92922595D01*
X62493282Y-92922595D01*
X62537039Y-93241675D01*
X62642205Y-93546088D01*
X62735186Y-93720044D01*
X62999587Y-93815808D01*
X63955395Y-92860000D01*
X62999587Y-91904192D01*
X62735186Y-91999956D01*
X62594296Y-92289571D01*
X62512616Y-92601108D01*
X62493282Y-92922595D01*
X61362000Y-92922595D01*
X61362000Y-92689905D01*
X61295632Y-92356253D01*
X61165447Y-92041959D01*
X60976448Y-91759102D01*
X60941933Y-91724587D01*
X63179192Y-91724587D01*
X64135000Y-92680395D01*
X65090808Y-91724587D01*
X64995044Y-91460186D01*
X64705429Y-91319296D01*
X64393892Y-91237616D01*
X64072405Y-91218282D01*
X63753325Y-91262039D01*
X63448912Y-91367205D01*
X63274956Y-91460186D01*
X63179192Y-91724587D01*
X60941933Y-91724587D01*
X60735898Y-91518552D01*
X60453041Y-91329553D01*
X60138747Y-91199368D01*
X59805095Y-91133000D01*
X59464905Y-91133000D01*
X59131253Y-91199368D01*
X58816959Y-91329553D01*
X58534102Y-91518552D01*
X58293552Y-91759102D01*
X58104553Y-92041959D01*
X57974368Y-92356253D01*
X57908000Y-92689905D01*
X57908000Y-93030095D01*
X57937071Y-93176243D01*
X57183961Y-93929353D01*
X57070415Y-93815807D01*
X57334814Y-93720044D01*
X57475704Y-93430429D01*
X57557384Y-93118892D01*
X57576718Y-92797405D01*
X57532961Y-92478325D01*
X57427795Y-92173912D01*
X57334814Y-91999956D01*
X57070413Y-91904192D01*
X56114605Y-92860000D01*
X56128748Y-92874143D01*
X55949143Y-93053748D01*
X55935000Y-93039605D01*
X54979192Y-93995413D01*
X55074956Y-94259814D01*
X55364571Y-94400704D01*
X55676108Y-94482384D01*
X55997595Y-94501718D01*
X56316675Y-94457961D01*
X56621088Y-94352795D01*
X56795044Y-94259814D01*
X56890807Y-93995415D01*
X57004353Y-94108961D01*
X56300336Y-94812978D01*
X49539930Y-94812978D01*
X49613210Y-94703306D01*
X49728319Y-94425410D01*
X49787000Y-94130396D01*
X49787000Y-93829604D01*
X49728319Y-93534590D01*
X49613210Y-93256694D01*
X49487000Y-93067807D01*
X49487000Y-92689905D01*
X49708000Y-92689905D01*
X49708000Y-93030095D01*
X49774368Y-93363747D01*
X49904553Y-93678041D01*
X50093552Y-93960898D01*
X50334102Y-94201448D01*
X50616959Y-94390447D01*
X50931253Y-94520632D01*
X51264905Y-94587000D01*
X51605095Y-94587000D01*
X51938747Y-94520632D01*
X52253041Y-94390447D01*
X52535898Y-94201448D01*
X52776448Y-93960898D01*
X52965447Y-93678041D01*
X53095632Y-93363747D01*
X53162000Y-93030095D01*
X53162000Y-92922595D01*
X54293282Y-92922595D01*
X54337039Y-93241675D01*
X54442205Y-93546088D01*
X54535186Y-93720044D01*
X54799587Y-93815808D01*
X55755395Y-92860000D01*
X54799587Y-91904192D01*
X54535186Y-91999956D01*
X54394296Y-92289571D01*
X54312616Y-92601108D01*
X54293282Y-92922595D01*
X53162000Y-92922595D01*
X53162000Y-92689905D01*
X53095632Y-92356253D01*
X52965447Y-92041959D01*
X52776448Y-91759102D01*
X52741933Y-91724587D01*
X54979192Y-91724587D01*
X55935000Y-92680395D01*
X56890808Y-91724587D01*
X56795044Y-91460186D01*
X56505429Y-91319296D01*
X56193892Y-91237616D01*
X55872405Y-91218282D01*
X55553325Y-91262039D01*
X55248912Y-91367205D01*
X55074956Y-91460186D01*
X54979192Y-91724587D01*
X52741933Y-91724587D01*
X52535898Y-91518552D01*
X52253041Y-91329553D01*
X51938747Y-91199368D01*
X51605095Y-91133000D01*
X51264905Y-91133000D01*
X50931253Y-91199368D01*
X50616959Y-91329553D01*
X50334102Y-91518552D01*
X50093552Y-91759102D01*
X49904553Y-92041959D01*
X49774368Y-92356253D01*
X49708000Y-92689905D01*
X49487000Y-92689905D01*
X49487000Y-90230263D01*
X49492935Y-90170000D01*
X49469246Y-89929466D01*
X49399084Y-89698176D01*
X49342832Y-89592936D01*
X49339660Y-89587001D01*
X65034741Y-89587001D01*
X65095001Y-89592936D01*
X65155261Y-89587001D01*
X65155269Y-89587001D01*
X65335535Y-89569246D01*
X65566825Y-89499085D01*
X65645561Y-89457000D01*
X68297477Y-89457000D01*
X68249463Y-89515506D01*
X68190498Y-89625820D01*
X68154188Y-89745518D01*
X68141928Y-89870000D01*
X68145000Y-90484250D01*
X68303750Y-90643000D01*
X69953000Y-90643000D01*
X69953000Y-90623000D01*
X70207000Y-90623000D01*
X70207000Y-90643000D01*
X71856250Y-90643000D01*
X72015000Y-90484250D01*
X72018072Y-89870000D01*
X72005812Y-89745518D01*
X71969502Y-89625820D01*
X71910537Y-89515506D01*
X71862523Y-89457000D01*
X72319740Y-89457000D01*
X72380000Y-89462935D01*
X72440260Y-89457000D01*
X72440268Y-89457000D01*
X72620534Y-89439245D01*
X72851824Y-89369084D01*
X73064983Y-89255149D01*
X73251817Y-89101817D01*
X73290239Y-89055000D01*
X75705034Y-86640206D01*
X75751846Y-86601788D01*
X75905178Y-86414954D01*
X75985250Y-86265148D01*
X76019113Y-86201796D01*
X76089274Y-85970505D01*
X76094781Y-85914590D01*
X76107029Y-85790239D01*
X76107029Y-85790231D01*
X76112964Y-85729971D01*
X76107029Y-85669711D01*
X76107029Y-51445292D01*
X76112964Y-51385029D01*
X76089275Y-51144495D01*
X76019113Y-50913205D01*
X75905178Y-50700046D01*
X75751846Y-50513212D01*
X75705035Y-50474795D01*
X65870239Y-40640000D01*
X66680006Y-39830234D01*
X66726818Y-39791816D01*
X66880150Y-39604982D01*
X66994085Y-39391823D01*
X67037529Y-39248608D01*
X67064247Y-39160533D01*
X67087936Y-38919999D01*
X67082001Y-38859736D01*
X67082001Y-34794662D01*
X67087936Y-34734399D01*
X67064247Y-34493865D01*
X66994085Y-34262575D01*
X66964150Y-34206571D01*
X66880150Y-34049416D01*
X66726818Y-33862582D01*
X66680007Y-33824165D01*
X65870840Y-33014999D01*
X65832418Y-32968182D01*
X65645584Y-32814850D01*
X65432425Y-32700915D01*
X65201135Y-32630754D01*
X65020869Y-32612999D01*
X65020861Y-32612999D01*
X64960601Y-32607064D01*
X64900341Y-32612999D01*
X42741869Y-32612999D01*
X32343878Y-22215009D01*
X32536913Y-22306246D01*
X32670961Y-22346904D01*
X32893000Y-22224915D01*
X32893000Y-21082000D01*
X33147000Y-21082000D01*
X33147000Y-22224915D01*
X33369039Y-22346904D01*
X33503087Y-22306246D01*
X33757420Y-22186037D01*
X33983414Y-22018519D01*
X34172385Y-21810131D01*
X34290000Y-21614018D01*
X34407615Y-21810131D01*
X34596586Y-22018519D01*
X34822580Y-22186037D01*
X35076913Y-22306246D01*
X35210961Y-22346904D01*
X35433000Y-22224915D01*
X35433000Y-21082000D01*
X33147000Y-21082000D01*
X32893000Y-21082000D01*
X32873000Y-21082000D01*
X32873000Y-20828000D01*
X32893000Y-20828000D01*
X32893000Y-20808000D01*
X33147000Y-20808000D01*
X33147000Y-20828000D01*
X35433000Y-20828000D01*
X35433000Y-20808000D01*
X35687000Y-20808000D01*
X35687000Y-20828000D01*
X35707000Y-20828000D01*
X35707000Y-21082000D01*
X35687000Y-21082000D01*
X35687000Y-22224915D01*
X35909039Y-22346904D01*
X36043087Y-22306246D01*
X36297420Y-22186037D01*
X36523414Y-22018519D01*
X36712385Y-21810131D01*
X36770323Y-21713525D01*
X36913901Y-21928406D01*
X37126594Y-22141099D01*
X37376694Y-22308210D01*
X37654590Y-22423319D01*
X37949604Y-22482000D01*
X38250396Y-22482000D01*
X38545410Y-22423319D01*
X38823306Y-22308210D01*
X39073406Y-22141099D01*
X39286099Y-21928406D01*
X39453210Y-21678306D01*
X39568319Y-21400410D01*
X39627000Y-21105396D01*
X39627000Y-20804604D01*
X39568319Y-20509590D01*
X39453210Y-20231694D01*
X39286099Y-19981594D01*
X39073406Y-19768901D01*
X38823306Y-19601790D01*
X38664389Y-19535964D01*
X33543424Y-14415000D01*
X33505002Y-14368183D01*
X33318168Y-14214851D01*
X33105009Y-14100916D01*
X32873719Y-14030755D01*
X32693453Y-14013000D01*
X32693445Y-14013000D01*
X32633185Y-14007065D01*
X32572925Y-14013000D01*
X30122193Y-14013000D01*
X29970579Y-13911695D01*
X30023097Y-13732702D01*
X29210000Y-12919605D01*
X28396903Y-13732702D01*
X28449421Y-13911695D01*
X28297807Y-14013000D01*
X27328240Y-14013000D01*
X27280517Y-13965277D01*
X27280517Y-13017500D01*
X27266480Y-12874983D01*
X27246924Y-12810512D01*
X27769783Y-12810512D01*
X27811213Y-13090130D01*
X27906397Y-13356292D01*
X27973329Y-13481514D01*
X28217298Y-13553097D01*
X29030395Y-12740000D01*
X29389605Y-12740000D01*
X30202702Y-13553097D01*
X30446671Y-13481514D01*
X30567571Y-13226004D01*
X30636300Y-12951816D01*
X30650217Y-12669488D01*
X30608787Y-12389870D01*
X30513603Y-12123708D01*
X30446671Y-11998486D01*
X30202702Y-11926903D01*
X29389605Y-12740000D01*
X29030395Y-12740000D01*
X28217298Y-11926903D01*
X27973329Y-11998486D01*
X27852429Y-12253996D01*
X27783700Y-12528184D01*
X27769783Y-12810512D01*
X27246924Y-12810512D01*
X27224910Y-12737943D01*
X27157403Y-12611647D01*
X27066554Y-12500946D01*
X26955853Y-12410097D01*
X26871374Y-12364942D01*
X26925969Y-12296923D01*
X27069571Y-12021094D01*
X27140563Y-11802980D01*
X27113406Y-11747298D01*
X28396903Y-11747298D01*
X29210000Y-12560395D01*
X30023097Y-11747298D01*
X29951514Y-11503329D01*
X29696004Y-11382429D01*
X29421816Y-11313700D01*
X29139488Y-11299783D01*
X28859870Y-11341213D01*
X28593708Y-11436397D01*
X28468486Y-11503329D01*
X28396903Y-11747298D01*
X27113406Y-11747298D01*
X27020594Y-11557000D01*
X25677000Y-11557000D01*
X25677000Y-11577000D01*
X25423000Y-11577000D01*
X25423000Y-11557000D01*
X25403000Y-11557000D01*
X25403000Y-11303000D01*
X25423000Y-11303000D01*
X25423000Y-11283000D01*
X25677000Y-11283000D01*
X25677000Y-11303000D01*
X27020594Y-11303000D01*
X27140563Y-11057020D01*
X27069571Y-10838906D01*
X26925969Y-10563077D01*
X26731315Y-10320563D01*
X26617809Y-10225328D01*
X26790832Y-10083332D01*
X27000710Y-9827595D01*
X27156663Y-9535827D01*
X27252699Y-9219239D01*
X27285126Y-8890000D01*
X27252699Y-8560761D01*
X27252620Y-8560501D01*
X27262000Y-8465268D01*
X27262000Y-4802702D01*
X27721903Y-4802702D01*
X27793486Y-5046671D01*
X28048996Y-5167571D01*
X28323184Y-5236300D01*
X28605512Y-5250217D01*
X28885130Y-5208787D01*
X29151292Y-5113603D01*
X29276514Y-5046671D01*
X29348097Y-4802702D01*
X28535000Y-3989605D01*
X27721903Y-4802702D01*
X27262000Y-4802702D01*
X27262000Y-4722193D01*
X27363305Y-4570579D01*
X27542298Y-4623097D01*
X28355395Y-3810000D01*
X28714605Y-3810000D01*
X29527702Y-4623097D01*
X29771671Y-4551514D01*
X29892571Y-4296004D01*
X29961300Y-4021816D01*
X29975217Y-3739488D01*
X29933787Y-3459870D01*
X29838603Y-3193708D01*
X29771671Y-3068486D01*
X29527702Y-2996903D01*
X28714605Y-3810000D01*
X28355395Y-3810000D01*
X27542298Y-2996903D01*
X27363305Y-3049421D01*
X27221099Y-2836594D01*
X27201803Y-2817298D01*
X27721903Y-2817298D01*
X28535000Y-3630395D01*
X29348097Y-2817298D01*
X29276514Y-2573329D01*
X29021004Y-2452429D01*
X28746816Y-2383700D01*
X28464488Y-2369783D01*
X28184870Y-2411213D01*
X27918708Y-2506397D01*
X27793486Y-2573329D01*
X27721903Y-2817298D01*
X27201803Y-2817298D01*
X27008406Y-2623901D01*
X26758306Y-2456790D01*
X26480410Y-2341681D01*
X26185396Y-2283000D01*
X25884604Y-2283000D01*
X25589590Y-2341681D01*
X25311694Y-2456790D01*
X25122807Y-2583000D01*
X23137193Y-2583000D01*
X22948306Y-2456790D01*
X22670410Y-2341681D01*
X22375396Y-2283000D01*
X22074604Y-2283000D01*
X21779590Y-2341681D01*
X21501694Y-2456790D01*
X21251594Y-2623901D01*
X21038901Y-2836594D01*
X20871790Y-3086694D01*
X20756681Y-3364590D01*
X20698000Y-3659604D01*
X20698000Y-3960396D01*
X20756681Y-4255410D01*
X20871790Y-4533306D01*
X21038901Y-4783406D01*
X21251594Y-4996099D01*
X21501694Y-5163210D01*
X21779590Y-5278319D01*
X22074604Y-5337000D01*
X22375396Y-5337000D01*
X22670410Y-5278319D01*
X22948306Y-5163210D01*
X23137193Y-5037000D01*
X24808000Y-5037000D01*
X24808001Y-7356853D01*
X24564905Y-7486790D01*
X24309168Y-7696668D01*
X24099290Y-7952405D01*
X23943337Y-8244173D01*
X23847301Y-8560761D01*
X23844249Y-8591745D01*
X22724999Y-9710996D01*
X22678182Y-9749418D01*
X22524850Y-9936253D01*
X22410915Y-10149412D01*
X22340754Y-10380702D01*
X22322999Y-10560968D01*
X22322999Y-10560975D01*
X22317064Y-10621235D01*
X22322999Y-10681495D01*
X22323000Y-15662231D01*
X22317064Y-15722501D01*
X22340754Y-15963034D01*
X22385887Y-16111817D01*
X22410916Y-16194325D01*
X22524851Y-16407484D01*
X22678183Y-16594318D01*
X22724995Y-16632736D01*
X25520258Y-19428000D01*
X25249604Y-19428000D01*
X24954590Y-19486681D01*
X24676694Y-19601790D01*
X24426594Y-19768901D01*
X24213901Y-19981594D01*
X24130000Y-20107161D01*
X24046099Y-19981594D01*
X23833406Y-19768901D01*
X23583306Y-19601790D01*
X23305410Y-19486681D01*
X23010396Y-19428000D01*
X22709604Y-19428000D01*
X22414590Y-19486681D01*
X22136694Y-19601790D01*
X21886594Y-19768901D01*
X21789735Y-19865760D01*
X21727403Y-19749147D01*
X21636554Y-19638446D01*
X21525853Y-19547597D01*
X21399557Y-19480090D01*
X21262517Y-19438520D01*
X21120000Y-19424483D01*
X19520000Y-19424483D01*
X19377483Y-19438520D01*
X19240443Y-19480090D01*
X19114147Y-19547597D01*
X19003446Y-19638446D01*
X18912597Y-19749147D01*
X18845090Y-19875443D01*
X18803520Y-20012483D01*
X18789483Y-20155000D01*
X18789483Y-21755000D01*
X18803520Y-21897517D01*
X18845090Y-22034557D01*
X18912597Y-22160853D01*
X19003446Y-22271554D01*
X19114147Y-22362403D01*
X19240443Y-22429910D01*
X19377483Y-22471480D01*
X19520000Y-22485517D01*
X21120000Y-22485517D01*
X21262517Y-22471480D01*
X21399557Y-22429910D01*
X21525853Y-22362403D01*
X21636554Y-22271554D01*
X21727403Y-22160853D01*
X21789735Y-22044240D01*
X21886594Y-22141099D01*
X22136694Y-22308210D01*
X22414590Y-22423319D01*
X22709604Y-22482000D01*
X23010396Y-22482000D01*
X23305410Y-22423319D01*
X23583306Y-22308210D01*
X23833406Y-22141099D01*
X24046099Y-21928406D01*
X24130000Y-21802839D01*
X24213901Y-21928406D01*
X24426594Y-22141099D01*
X24676694Y-22308210D01*
X24954590Y-22423319D01*
X25249604Y-22482000D01*
X25550396Y-22482000D01*
X25845410Y-22423319D01*
X26123306Y-22308210D01*
X26373406Y-22141099D01*
X26586099Y-21928406D01*
X26670000Y-21802839D01*
X26753901Y-21928406D01*
X26966594Y-22141099D01*
X27216694Y-22308210D01*
X27494590Y-22423319D01*
X27789604Y-22482000D01*
X28090396Y-22482000D01*
X28385410Y-22423319D01*
X28663306Y-22308210D01*
X28913406Y-22141099D01*
X29126099Y-21928406D01*
X29210000Y-21802839D01*
X29253000Y-21867193D01*
X29253000Y-22026110D01*
X29247065Y-22086370D01*
X29253000Y-22146630D01*
X29253000Y-22146638D01*
X29270755Y-22326904D01*
X29340916Y-22558194D01*
X29454852Y-22771353D01*
X29608184Y-22958187D01*
X29654996Y-22996605D01*
X41323393Y-34665003D01*
X41361812Y-34711816D01*
X41548646Y-34865148D01*
X41747893Y-34971647D01*
X41761805Y-34979083D01*
X41993095Y-35049245D01*
X42113575Y-35061110D01*
X42173361Y-35066999D01*
X42173366Y-35066999D01*
X42233629Y-35072934D01*
X42293892Y-35066999D01*
X62869775Y-35066999D01*
X62850734Y-35107790D01*
X62787189Y-35367027D01*
X62775439Y-35633680D01*
X62815937Y-35897501D01*
X62907125Y-36148353D01*
X62963632Y-36254068D01*
X63199440Y-36315955D01*
X63955395Y-35560000D01*
X63941253Y-35545858D01*
X64120858Y-35366253D01*
X64135000Y-35380395D01*
X64149143Y-35366253D01*
X64328748Y-35545858D01*
X64314605Y-35560000D01*
X64328748Y-35574143D01*
X64149143Y-35753748D01*
X64135000Y-35739605D01*
X63379045Y-36495560D01*
X63440932Y-36731368D01*
X63542978Y-36779003D01*
X63449589Y-36817686D01*
X63212592Y-36976042D01*
X63011042Y-37177592D01*
X62852686Y-37414589D01*
X62743608Y-37677926D01*
X62724184Y-37775576D01*
X61509999Y-38989762D01*
X61463182Y-39028184D01*
X61309850Y-39215019D01*
X61195915Y-39428178D01*
X61125754Y-39659468D01*
X61107999Y-39839734D01*
X61107999Y-39839741D01*
X61102064Y-39900001D01*
X61107999Y-39960261D01*
X61108000Y-46523731D01*
X61102064Y-46584001D01*
X61125754Y-46824534D01*
X61136235Y-46859084D01*
X61195916Y-47055825D01*
X61309851Y-47268984D01*
X61463183Y-47455818D01*
X61509995Y-47494236D01*
X65610752Y-51594994D01*
X65649171Y-51641807D01*
X65836005Y-51795139D01*
X66049164Y-51909074D01*
X66280454Y-51979235D01*
X66460720Y-51996990D01*
X66460727Y-51996990D01*
X66520987Y-52002925D01*
X66581247Y-51996990D01*
X68301038Y-51996990D01*
X68213245Y-52199913D01*
X68188964Y-52305260D01*
X68309622Y-52543000D01*
X69953000Y-52543000D01*
X69953000Y-52523000D01*
X70207000Y-52523000D01*
X70207000Y-52543000D01*
X70227000Y-52543000D01*
X70227000Y-52797000D01*
X70207000Y-52797000D01*
X70207000Y-52817000D01*
X69953000Y-52817000D01*
X69953000Y-52797000D01*
X68309622Y-52797000D01*
X68188964Y-53034740D01*
X68213245Y-53140087D01*
X68333138Y-53417204D01*
X68504790Y-53665606D01*
X68721604Y-53875748D01*
X68732535Y-53882807D01*
X68610450Y-53983000D01*
X66513240Y-53983000D01*
X65647638Y-53117398D01*
X65603319Y-52894590D01*
X65488210Y-52616694D01*
X65321099Y-52366594D01*
X65108406Y-52153901D01*
X64858306Y-51986790D01*
X64580410Y-51871681D01*
X64285396Y-51813000D01*
X63984604Y-51813000D01*
X63689590Y-51871681D01*
X63411694Y-51986790D01*
X63161594Y-52153901D01*
X62948901Y-52366594D01*
X62781790Y-52616694D01*
X62666681Y-52894590D01*
X62608000Y-53189604D01*
X62608000Y-53490396D01*
X62666681Y-53785410D01*
X62781790Y-54063306D01*
X62948901Y-54313406D01*
X63161594Y-54526099D01*
X63411694Y-54693210D01*
X63689590Y-54808319D01*
X63912398Y-54852638D01*
X65094765Y-56035005D01*
X65133183Y-56081817D01*
X65320017Y-56235149D01*
X65533176Y-56349084D01*
X65764466Y-56419245D01*
X65944732Y-56437000D01*
X65944739Y-56437000D01*
X66004999Y-56442935D01*
X66065259Y-56437000D01*
X68610450Y-56437000D01*
X68662845Y-56480000D01*
X68610450Y-56523000D01*
X49501257Y-56523000D01*
X49440997Y-56517065D01*
X49380737Y-56523000D01*
X49380730Y-56523000D01*
X49200464Y-56540755D01*
X48969174Y-56610916D01*
X48756015Y-56724851D01*
X48569181Y-56878183D01*
X48530763Y-56924995D01*
X37722607Y-67733152D01*
X37654590Y-67746681D01*
X37376694Y-67861790D01*
X37126594Y-68028901D01*
X36913901Y-68241594D01*
X36746790Y-68491694D01*
X36631681Y-68769590D01*
X36573000Y-69064604D01*
X36573000Y-69365396D01*
X36631681Y-69660410D01*
X36746790Y-69938306D01*
X36779979Y-69987977D01*
X36194664Y-69987977D01*
X35567000Y-69360314D01*
X35567000Y-69064604D01*
X35508319Y-68769590D01*
X35393210Y-68491694D01*
X35226099Y-68241594D01*
X35013406Y-68028901D01*
X34763306Y-67861790D01*
X34485410Y-67746681D01*
X34190396Y-67688000D01*
X33889604Y-67688000D01*
X33594590Y-67746681D01*
X33316694Y-67861790D01*
X33066594Y-68028901D01*
X32853901Y-68241594D01*
X32770000Y-68367161D01*
X32686099Y-68241594D01*
X32473406Y-68028901D01*
X32223306Y-67861790D01*
X31945410Y-67746681D01*
X31650396Y-67688000D01*
X31349604Y-67688000D01*
X31054590Y-67746681D01*
X30776694Y-67861790D01*
X30526594Y-68028901D01*
X30313901Y-68241594D01*
X30230000Y-68367161D01*
X30187000Y-68302807D01*
X30187000Y-68143893D01*
X30192935Y-68083630D01*
X30185993Y-68013133D01*
X30173552Y-67886823D01*
X30169246Y-67843096D01*
X30099084Y-67611806D01*
X30076034Y-67568683D01*
X29985149Y-67398647D01*
X29831817Y-67211813D01*
X29785006Y-67173396D01*
X26961598Y-64349989D01*
X26923176Y-64303172D01*
X26736342Y-64149840D01*
X26523183Y-64035905D01*
X26291893Y-63965744D01*
X26111627Y-63947989D01*
X26111619Y-63947989D01*
X26051359Y-63942054D01*
X25991099Y-63947989D01*
X10494933Y-63947989D01*
X10434673Y-63942054D01*
X10374413Y-63947989D01*
X10374406Y-63947989D01*
X10194140Y-63965744D01*
X9962850Y-64035905D01*
X9749691Y-64149840D01*
X9562857Y-64303172D01*
X9524439Y-64349984D01*
X2349996Y-71524428D01*
X2303184Y-71562846D01*
X2149852Y-71749680D01*
X2117960Y-71809346D01*
X2035917Y-71962839D01*
X1965755Y-72194130D01*
X1942065Y-72434663D01*
X1948001Y-72494933D01*
X1948000Y-74562810D01*
X1777481Y-74818011D01*
X1658604Y-75105006D01*
X1598000Y-75409679D01*
X827000Y-75409679D01*
X827000Y-11186037D01*
X6413000Y-11186037D01*
X6413000Y-11673963D01*
X6508190Y-12152514D01*
X6694911Y-12603299D01*
X6965989Y-13008995D01*
X7311005Y-13354011D01*
X7716701Y-13625089D01*
X8167486Y-13811810D01*
X8646037Y-13907000D01*
X9133963Y-13907000D01*
X9612514Y-13811810D01*
X10063299Y-13625089D01*
X10468995Y-13354011D01*
X10814011Y-13008995D01*
X11085089Y-12603299D01*
X11271810Y-12152514D01*
X11367000Y-11673963D01*
X11367000Y-11186037D01*
X11271810Y-10707486D01*
X11085089Y-10256701D01*
X10814011Y-9851005D01*
X10468995Y-9505989D01*
X10063299Y-9234911D01*
X9612514Y-9048190D01*
X9133963Y-8953000D01*
X8646037Y-8953000D01*
X8167486Y-9048190D01*
X7716701Y-9234911D01*
X7311005Y-9505989D01*
X6965989Y-9851005D01*
X6694911Y-10256701D01*
X6508190Y-10707486D01*
X6413000Y-11186037D01*
X827000Y-11186037D01*
X827000Y-3979139D01*
X979911Y-4348299D01*
X1250989Y-4753995D01*
X1596005Y-5099011D01*
X2001701Y-5370089D01*
X2452486Y-5556810D01*
X2931037Y-5652000D01*
X3418963Y-5652000D01*
X3897514Y-5556810D01*
X4348299Y-5370089D01*
X4753995Y-5099011D01*
X5099011Y-4753995D01*
X5128407Y-4710000D01*
X7351928Y-4710000D01*
X7364188Y-4834482D01*
X7400498Y-4954180D01*
X7459463Y-5064494D01*
X7538815Y-5161185D01*
X7635506Y-5240537D01*
X7745820Y-5299502D01*
X7865518Y-5335812D01*
X7990000Y-5348072D01*
X8604250Y-5345000D01*
X8763000Y-5186250D01*
X8763000Y-3937000D01*
X7513750Y-3937000D01*
X7355000Y-4095750D01*
X7351928Y-4710000D01*
X5128407Y-4710000D01*
X5370089Y-4348299D01*
X5556810Y-3897514D01*
X5652000Y-3418963D01*
X5652000Y-2931037D01*
X5647816Y-2910000D01*
X7351928Y-2910000D01*
X7355000Y-3524250D01*
X7513750Y-3683000D01*
X8763000Y-3683000D01*
X8763000Y-2433750D01*
X9017000Y-2433750D01*
X9017000Y-3683000D01*
X9037000Y-3683000D01*
X9037000Y-3937000D01*
X9017000Y-3937000D01*
X9017000Y-5186250D01*
X9175750Y-5345000D01*
X9790000Y-5348072D01*
X9914482Y-5335812D01*
X10034180Y-5299502D01*
X10144494Y-5240537D01*
X10241185Y-5161185D01*
X10320537Y-5064494D01*
X10342493Y-5023418D01*
X10392848Y-5073773D01*
X10659327Y-5251828D01*
X10955422Y-5374475D01*
X11269755Y-5437000D01*
X11590245Y-5437000D01*
X11904578Y-5374475D01*
X12200673Y-5251828D01*
X12467152Y-5073773D01*
X12503925Y-5037000D01*
X13692807Y-5037000D01*
X13881694Y-5163210D01*
X14159590Y-5278319D01*
X14454604Y-5337000D01*
X14755396Y-5337000D01*
X15050410Y-5278319D01*
X15328306Y-5163210D01*
X15578406Y-4996099D01*
X15791099Y-4783406D01*
X15958210Y-4533306D01*
X16073319Y-4255410D01*
X16132000Y-3960396D01*
X16132000Y-3659604D01*
X16073319Y-3364590D01*
X15958210Y-3086694D01*
X15791099Y-2836594D01*
X15578406Y-2623901D01*
X15328306Y-2456790D01*
X15050410Y-2341681D01*
X14755396Y-2283000D01*
X14454604Y-2283000D01*
X14159590Y-2341681D01*
X13881694Y-2456790D01*
X13692807Y-2583000D01*
X12503925Y-2583000D01*
X12467152Y-2546227D01*
X12200673Y-2368172D01*
X11904578Y-2245525D01*
X11590245Y-2183000D01*
X11269755Y-2183000D01*
X10955422Y-2245525D01*
X10659327Y-2368172D01*
X10392848Y-2546227D01*
X10342493Y-2596582D01*
X10320537Y-2555506D01*
X10241185Y-2458815D01*
X10144494Y-2379463D01*
X10034180Y-2320498D01*
X9914482Y-2284188D01*
X9790000Y-2271928D01*
X9175750Y-2275000D01*
X9017000Y-2433750D01*
X8763000Y-2433750D01*
X8604250Y-2275000D01*
X7990000Y-2271928D01*
X7865518Y-2284188D01*
X7745820Y-2320498D01*
X7635506Y-2379463D01*
X7538815Y-2458815D01*
X7459463Y-2555506D01*
X7400498Y-2665820D01*
X7364188Y-2785518D01*
X7351928Y-2910000D01*
X5647816Y-2910000D01*
X5556810Y-2452486D01*
X5370089Y-2001701D01*
X5099011Y-1596005D01*
X4753995Y-1250989D01*
X4348299Y-979911D01*
X3979139Y-827000D01*
X98868001Y-827000D01*
X98868000Y-95715861D01*
%TA.AperFunction,Conductor*%
D31*
G36*
X98868000Y-95715861D02*
G01*
X98715089Y-95346701D01*
X98444011Y-94941005D01*
X98098995Y-94595989D01*
X97693299Y-94324911D01*
X97242514Y-94138190D01*
X96763963Y-94043000D01*
X96276037Y-94043000D01*
X95797486Y-94138190D01*
X95346701Y-94324911D01*
X94941005Y-94595989D01*
X94595989Y-94941005D01*
X94324911Y-95346701D01*
X94138190Y-95797486D01*
X94043000Y-96276037D01*
X94043000Y-96763963D01*
X94138190Y-97242514D01*
X94324911Y-97693299D01*
X94595989Y-98098995D01*
X94941005Y-98444011D01*
X95346701Y-98715089D01*
X95715861Y-98868000D01*
X3979139Y-98868000D01*
X4348299Y-98715089D01*
X4753995Y-98444011D01*
X5099011Y-98098995D01*
X5370089Y-97693299D01*
X5556810Y-97242514D01*
X5652000Y-96763963D01*
X5652000Y-96276037D01*
X5556810Y-95797486D01*
X5370089Y-95346701D01*
X5099011Y-94941005D01*
X4753995Y-94595989D01*
X4348299Y-94324911D01*
X3897514Y-94138190D01*
X3418963Y-94043000D01*
X2931037Y-94043000D01*
X2452486Y-94138190D01*
X2001701Y-94324911D01*
X1596005Y-94595989D01*
X1250989Y-94941005D01*
X979911Y-95346701D01*
X827000Y-95715861D01*
X827000Y-75409679D01*
X1598000Y-75409679D01*
X1598000Y-75720321D01*
X1658604Y-76024994D01*
X1777481Y-76311989D01*
X1950064Y-76570279D01*
X2169721Y-76789936D01*
X2428011Y-76962519D01*
X2715006Y-77081396D01*
X3019679Y-77142000D01*
X3330321Y-77142000D01*
X3634994Y-77081396D01*
X3921989Y-76962519D01*
X4180279Y-76789936D01*
X4399936Y-76570279D01*
X4445000Y-76502836D01*
X4490064Y-76570279D01*
X4709721Y-76789936D01*
X4968011Y-76962519D01*
X5255006Y-77081396D01*
X5559679Y-77142000D01*
X5870321Y-77142000D01*
X6174994Y-77081396D01*
X6461989Y-76962519D01*
X6720279Y-76789936D01*
X6939936Y-76570279D01*
X6985000Y-76502836D01*
X7030064Y-76570279D01*
X7249721Y-76789936D01*
X7508011Y-76962519D01*
X7795006Y-77081396D01*
X8099679Y-77142000D01*
X8410321Y-77142000D01*
X8714994Y-77081396D01*
X9001989Y-76962519D01*
X9260279Y-76789936D01*
X9479936Y-76570279D01*
X9525000Y-76502836D01*
X9570064Y-76570279D01*
X9789721Y-76789936D01*
X10048011Y-76962519D01*
X10335006Y-77081396D01*
X10639679Y-77142000D01*
X10950321Y-77142000D01*
X11254994Y-77081396D01*
X11541989Y-76962519D01*
X11800279Y-76789936D01*
X12019936Y-76570279D01*
X12065000Y-76502836D01*
X12110064Y-76570279D01*
X12329721Y-76789936D01*
X12588011Y-76962519D01*
X12875006Y-77081396D01*
X13179679Y-77142000D01*
X13490321Y-77142000D01*
X13794994Y-77081396D01*
X14081989Y-76962519D01*
X14340279Y-76789936D01*
X14447877Y-76682338D01*
X14494463Y-76769494D01*
X14573815Y-76866185D01*
X14670506Y-76945537D01*
X14780820Y-77004502D01*
X14900518Y-77040812D01*
X15025000Y-77053072D01*
X15589250Y-77050000D01*
X15748000Y-76891250D01*
X15748000Y-75692000D01*
X16002000Y-75692000D01*
X16002000Y-76891250D01*
X16160750Y-77050000D01*
X16725000Y-77053072D01*
X16849482Y-77040812D01*
X16969180Y-77004502D01*
X17079494Y-76945537D01*
X17176185Y-76866185D01*
X17255537Y-76769494D01*
X17314502Y-76659180D01*
X17350812Y-76539482D01*
X17363072Y-76415000D01*
X17360000Y-75850750D01*
X17201250Y-75692000D01*
X16002000Y-75692000D01*
X15748000Y-75692000D01*
X15728000Y-75692000D01*
X15728000Y-75438000D01*
X15748000Y-75438000D01*
X15748000Y-75418000D01*
X16002000Y-75418000D01*
X16002000Y-75438000D01*
X17201250Y-75438000D01*
X17360000Y-75279250D01*
X17361836Y-74941999D01*
X23951124Y-74941999D01*
X23883604Y-75105006D01*
X23823000Y-75409679D01*
X23823000Y-75720321D01*
X23883604Y-76024994D01*
X24002481Y-76311989D01*
X24175064Y-76570279D01*
X24394721Y-76789936D01*
X24653011Y-76962519D01*
X24940006Y-77081396D01*
X25244679Y-77142000D01*
X25555321Y-77142000D01*
X25859994Y-77081396D01*
X26146989Y-76962519D01*
X26405279Y-76789936D01*
X26624936Y-76570279D01*
X26727344Y-76417014D01*
X26744822Y-76446355D01*
X26939731Y-76662588D01*
X27173080Y-76836641D01*
X27435901Y-76961825D01*
X27583110Y-77006476D01*
X27813000Y-76885155D01*
X27813000Y-75692000D01*
X27793000Y-75692000D01*
X27793000Y-75438000D01*
X27813000Y-75438000D01*
X27813000Y-75418000D01*
X28067000Y-75418000D01*
X28067000Y-75438000D01*
X28087000Y-75438000D01*
X28087000Y-75692000D01*
X28067000Y-75692000D01*
X28067000Y-76885155D01*
X28296890Y-77006476D01*
X28444099Y-76961825D01*
X28706920Y-76836641D01*
X28940269Y-76662588D01*
X29135178Y-76446355D01*
X29152656Y-76417014D01*
X29255064Y-76570279D01*
X29474721Y-76789936D01*
X29733011Y-76962519D01*
X30020006Y-77081396D01*
X30324679Y-77142000D01*
X30635321Y-77142000D01*
X30939994Y-77081396D01*
X31226989Y-76962519D01*
X31485279Y-76789936D01*
X31704936Y-76570279D01*
X31750000Y-76502836D01*
X31795064Y-76570279D01*
X32014721Y-76789936D01*
X32043000Y-76808831D01*
X32043001Y-86600455D01*
X32038273Y-86648458D01*
X32057137Y-86839983D01*
X32113003Y-87024148D01*
X32180677Y-87150756D01*
X32203725Y-87193876D01*
X32325815Y-87342644D01*
X32363093Y-87373237D01*
X43436763Y-98446908D01*
X43467356Y-98484186D01*
X43616124Y-98606276D01*
X43785851Y-98696997D01*
X43877934Y-98724930D01*
X43970016Y-98752863D01*
X44161542Y-98771727D01*
X44209535Y-98767000D01*
X63452007Y-98767000D01*
X63500000Y-98771727D01*
X63691525Y-98752863D01*
X63875691Y-98696997D01*
X64045418Y-98606276D01*
X64194186Y-98484186D01*
X64224784Y-98446902D01*
X66572681Y-96099005D01*
X68353000Y-96099005D01*
X68353000Y-96439195D01*
X68419368Y-96772847D01*
X68549553Y-97087141D01*
X68738552Y-97369998D01*
X68979102Y-97610548D01*
X69261959Y-97799547D01*
X69576253Y-97929732D01*
X69909905Y-97996100D01*
X70250095Y-97996100D01*
X70583747Y-97929732D01*
X70898041Y-97799547D01*
X71180898Y-97610548D01*
X71421448Y-97369998D01*
X71610447Y-97087141D01*
X71740632Y-96772847D01*
X71807000Y-96439195D01*
X71807000Y-96099005D01*
X71740632Y-95765353D01*
X71610447Y-95451059D01*
X71421448Y-95168202D01*
X71180898Y-94927652D01*
X70898041Y-94738653D01*
X70583747Y-94608468D01*
X70250095Y-94542100D01*
X69909905Y-94542100D01*
X69576253Y-94608468D01*
X69261959Y-94738653D01*
X68979102Y-94927652D01*
X68738552Y-95168202D01*
X68549553Y-95451059D01*
X68419368Y-95765353D01*
X68353000Y-96099005D01*
X66572681Y-96099005D01*
X68274675Y-94397012D01*
X73681224Y-94397012D01*
X73729217Y-94401739D01*
X73920742Y-94382875D01*
X74010359Y-94355690D01*
X74104908Y-94327009D01*
X74274635Y-94236288D01*
X74423403Y-94114198D01*
X74454001Y-94076914D01*
X80666902Y-87864013D01*
X80704186Y-87833415D01*
X80826276Y-87684647D01*
X80916997Y-87514920D01*
X80969256Y-87342644D01*
X80972863Y-87330755D01*
X80991727Y-87139229D01*
X80987000Y-87091236D01*
X80987000Y-42838991D01*
X80991727Y-42790998D01*
X80972863Y-42599472D01*
X80916997Y-42415307D01*
X80826275Y-42245579D01*
X80734779Y-42134090D01*
X80704186Y-42096812D01*
X80666908Y-42066219D01*
X72807260Y-34206571D01*
X86375500Y-34206571D01*
X86375500Y-77553428D01*
X98329500Y-77553428D01*
X98329500Y-34206571D01*
X86375500Y-34206571D01*
X72807260Y-34206571D01*
X59700594Y-21099905D01*
X68353000Y-21099905D01*
X68353000Y-21440095D01*
X68419368Y-21773747D01*
X68549553Y-22088041D01*
X68738552Y-22370898D01*
X68979102Y-22611448D01*
X69261959Y-22800447D01*
X69576253Y-22930632D01*
X69909905Y-22997000D01*
X70250095Y-22997000D01*
X70583747Y-22930632D01*
X70898041Y-22800447D01*
X71180898Y-22611448D01*
X71421448Y-22370898D01*
X71610447Y-22088041D01*
X71740632Y-21773747D01*
X71807000Y-21440095D01*
X71807000Y-21099905D01*
X71740632Y-20766253D01*
X71610447Y-20451959D01*
X71421448Y-20169102D01*
X71180898Y-19928552D01*
X70898041Y-19739553D01*
X70583747Y-19609368D01*
X70250095Y-19543000D01*
X69909905Y-19543000D01*
X69576253Y-19609368D01*
X69261959Y-19739553D01*
X68979102Y-19928552D01*
X68738552Y-20169102D01*
X68549553Y-20451959D01*
X68419368Y-20766253D01*
X68353000Y-21099905D01*
X59700594Y-21099905D01*
X57348785Y-18748097D01*
X57318187Y-18710813D01*
X57169419Y-18588723D01*
X56999692Y-18498002D01*
X56815526Y-18442136D01*
X56671994Y-18427999D01*
X56624001Y-18423272D01*
X56576008Y-18427999D01*
X54937983Y-18427999D01*
X54890000Y-18423273D01*
X54842017Y-18427999D01*
X54842008Y-18427999D01*
X54698476Y-18442136D01*
X54543606Y-18489115D01*
X56835721Y-16197001D01*
X72599739Y-16197001D01*
X72659999Y-16202936D01*
X72720259Y-16197001D01*
X72720267Y-16197001D01*
X72900533Y-16179246D01*
X73131823Y-16109085D01*
X73344982Y-15995150D01*
X73531816Y-15841818D01*
X73570238Y-15795001D01*
X75593586Y-13771654D01*
X75989354Y-14036097D01*
X77046160Y-14473841D01*
X78168060Y-14697000D01*
X79311940Y-14697000D01*
X80433840Y-14473841D01*
X81490646Y-14036097D01*
X82441747Y-13400592D01*
X82915143Y-12927196D01*
X88852409Y-12927196D01*
X89438124Y-13609416D01*
X90421704Y-14157045D01*
X91493223Y-14502265D01*
X92611501Y-14631808D01*
X93733565Y-14540697D01*
X94816294Y-14232433D01*
X95818079Y-13718863D01*
X95981876Y-13609416D01*
X96567591Y-12927196D01*
X92710000Y-9069605D01*
X88852409Y-12927196D01*
X82915143Y-12927196D01*
X83250592Y-12591747D01*
X83886097Y-11640646D01*
X84323841Y-10583840D01*
X84547000Y-9461940D01*
X84547000Y-8791501D01*
X86968192Y-8791501D01*
X87059303Y-9913565D01*
X87367567Y-10996294D01*
X87881137Y-11998079D01*
X87990584Y-12161876D01*
X88672804Y-12747591D01*
X92530395Y-8890000D01*
X92889605Y-8890000D01*
X96747196Y-12747591D01*
X97429416Y-12161876D01*
X97977045Y-11178296D01*
X98322265Y-10106777D01*
X98451808Y-8988499D01*
X98360697Y-7866435D01*
X98052433Y-6783706D01*
X97538863Y-5781921D01*
X97429416Y-5618124D01*
X96747196Y-5032409D01*
X92889605Y-8890000D01*
X92530395Y-8890000D01*
X88672804Y-5032409D01*
X87990584Y-5618124D01*
X87442955Y-6601704D01*
X87097735Y-7673223D01*
X86968192Y-8791501D01*
X84547000Y-8791501D01*
X84547000Y-8318060D01*
X84323841Y-7196160D01*
X83886097Y-6139354D01*
X83250592Y-5188253D01*
X82915143Y-4852804D01*
X88852409Y-4852804D01*
X92710000Y-8710395D01*
X96567591Y-4852804D01*
X95981876Y-4170584D01*
X94998296Y-3622955D01*
X93926777Y-3277735D01*
X92808499Y-3148192D01*
X91686435Y-3239303D01*
X90603706Y-3547567D01*
X89601921Y-4061137D01*
X89438124Y-4170584D01*
X88852409Y-4852804D01*
X82915143Y-4852804D01*
X82441747Y-4379408D01*
X81490646Y-3743903D01*
X80433840Y-3306159D01*
X79311940Y-3083000D01*
X78168060Y-3083000D01*
X77046160Y-3306159D01*
X75989354Y-3743903D01*
X75038253Y-4379408D01*
X74229408Y-5188253D01*
X73593903Y-6139354D01*
X73156159Y-7196160D01*
X72933000Y-8318060D01*
X72933000Y-9461940D01*
X73156159Y-10583840D01*
X73593903Y-11640646D01*
X73858346Y-12036414D01*
X72151760Y-13743001D01*
X67959295Y-13743001D01*
X68471747Y-13400592D01*
X69280592Y-12591747D01*
X69916097Y-11640646D01*
X70353841Y-10583840D01*
X70577000Y-9461940D01*
X70577000Y-8318060D01*
X70353841Y-7196160D01*
X69916097Y-6139354D01*
X69280592Y-5188253D01*
X68471747Y-4379408D01*
X67520646Y-3743903D01*
X66463840Y-3306159D01*
X65341940Y-3083000D01*
X64198060Y-3083000D01*
X63076160Y-3306159D01*
X62019354Y-3743903D01*
X61068253Y-4379408D01*
X60259408Y-5188253D01*
X59623903Y-6139354D01*
X59186159Y-7196160D01*
X58963000Y-8318060D01*
X58963000Y-8477908D01*
X56049218Y-11391690D01*
X56383841Y-10583840D01*
X56607000Y-9461940D01*
X56607000Y-8318060D01*
X56383841Y-7196160D01*
X55946097Y-6139354D01*
X55310592Y-5188253D01*
X54501747Y-4379408D01*
X53550646Y-3743903D01*
X52493840Y-3306159D01*
X51371940Y-3083000D01*
X50228060Y-3083000D01*
X49106160Y-3306159D01*
X48049354Y-3743903D01*
X47098253Y-4379408D01*
X46289408Y-5188253D01*
X45653903Y-6139354D01*
X45216159Y-7196160D01*
X44993000Y-8318060D01*
X44993000Y-9461940D01*
X45216159Y-10583840D01*
X45653903Y-11640646D01*
X45918347Y-12036414D01*
X44895000Y-13059761D01*
X44848183Y-13098183D01*
X44694851Y-13285018D01*
X44580916Y-13498177D01*
X44510755Y-13729467D01*
X44493000Y-13909733D01*
X44493000Y-13909740D01*
X44487065Y-13970000D01*
X44493000Y-14030260D01*
X44493001Y-20042806D01*
X44450000Y-20107161D01*
X44407000Y-20042807D01*
X44407000Y-15300259D01*
X44412935Y-15239999D01*
X44407000Y-15179739D01*
X44407000Y-15179732D01*
X44389245Y-14999466D01*
X44319084Y-14768176D01*
X44205149Y-14555017D01*
X44051817Y-14368183D01*
X44005005Y-14329765D01*
X41711654Y-12036414D01*
X41976097Y-11640646D01*
X42413841Y-10583840D01*
X42637000Y-9461940D01*
X42637000Y-8318060D01*
X42413841Y-7196160D01*
X41976097Y-6139354D01*
X41340592Y-5188253D01*
X40531747Y-4379408D01*
X39580646Y-3743903D01*
X38523840Y-3306159D01*
X37401940Y-3083000D01*
X36258060Y-3083000D01*
X35136160Y-3306159D01*
X34079354Y-3743903D01*
X33128253Y-4379408D01*
X32319408Y-5188253D01*
X31683903Y-6139354D01*
X31246159Y-7196160D01*
X31023000Y-8318060D01*
X31023000Y-9461940D01*
X31246159Y-10583840D01*
X31683903Y-11640646D01*
X32319408Y-12591747D01*
X33128253Y-13400592D01*
X34079354Y-14036097D01*
X35136160Y-14473841D01*
X36258060Y-14697000D01*
X37401940Y-14697000D01*
X38523840Y-14473841D01*
X39580646Y-14036097D01*
X39976414Y-13771654D01*
X41953000Y-15748240D01*
X41953001Y-20042806D01*
X41826790Y-20231694D01*
X41711681Y-20509590D01*
X41653000Y-20804604D01*
X41653000Y-21105396D01*
X41711681Y-21400410D01*
X41826790Y-21678306D01*
X41993901Y-21928406D01*
X42206594Y-22141099D01*
X42456694Y-22308210D01*
X42734590Y-22423319D01*
X43029604Y-22482000D01*
X43330396Y-22482000D01*
X43625410Y-22423319D01*
X43903306Y-22308210D01*
X44153406Y-22141099D01*
X44366099Y-21928406D01*
X44450000Y-21802839D01*
X44533901Y-21928406D01*
X44746594Y-22141099D01*
X44996694Y-22308210D01*
X45274590Y-22423319D01*
X45569604Y-22482000D01*
X45870396Y-22482000D01*
X46165410Y-22423319D01*
X46443306Y-22308210D01*
X46693406Y-22141099D01*
X46906099Y-21928406D01*
X46990000Y-21802839D01*
X47073901Y-21928406D01*
X47286594Y-22141099D01*
X47536694Y-22308210D01*
X47814590Y-22423319D01*
X48109604Y-22482000D01*
X48410396Y-22482000D01*
X48705410Y-22423319D01*
X48983306Y-22308210D01*
X49233406Y-22141099D01*
X49446099Y-21928406D01*
X49530000Y-21802839D01*
X49613901Y-21928406D01*
X49826594Y-22141099D01*
X50076694Y-22308210D01*
X50354590Y-22423319D01*
X50649604Y-22482000D01*
X50950396Y-22482000D01*
X51245410Y-22423319D01*
X51523306Y-22308210D01*
X51773406Y-22141099D01*
X51986099Y-21928406D01*
X52070000Y-21802839D01*
X52153901Y-21928406D01*
X52366594Y-22141099D01*
X52616694Y-22308210D01*
X52894590Y-22423319D01*
X53189604Y-22482000D01*
X53490396Y-22482000D01*
X53785410Y-22423319D01*
X54063306Y-22308210D01*
X54313406Y-22141099D01*
X54526099Y-21928406D01*
X54610000Y-21802839D01*
X54693901Y-21928406D01*
X54906594Y-22141099D01*
X55156694Y-22308210D01*
X55434590Y-22423319D01*
X55729604Y-22482000D01*
X56030396Y-22482000D01*
X56222713Y-22443746D01*
X77763001Y-43984035D01*
X77763000Y-86590313D01*
X72910313Y-91443001D01*
X72016937Y-91443001D01*
X72015000Y-91055750D01*
X71856250Y-90897000D01*
X70207000Y-90897000D01*
X70207000Y-90917000D01*
X69953000Y-90917000D01*
X69953000Y-90897000D01*
X68303750Y-90897000D01*
X68145000Y-91055750D01*
X68143063Y-91443001D01*
X67212991Y-91443001D01*
X67165000Y-91438274D01*
X67117010Y-91443001D01*
X67117008Y-91443001D01*
X66973476Y-91457138D01*
X66789310Y-91513004D01*
X66619583Y-91603725D01*
X66470815Y-91725815D01*
X66440221Y-91763094D01*
X65730914Y-92472401D01*
X65627795Y-92173912D01*
X65534814Y-91999956D01*
X65270413Y-91904192D01*
X64314605Y-92860000D01*
X64328748Y-92874143D01*
X64149143Y-93053748D01*
X64135000Y-93039605D01*
X63179192Y-93995413D01*
X63274956Y-94259814D01*
X63564571Y-94400704D01*
X63753165Y-94450150D01*
X62390327Y-95812989D01*
X58063697Y-95812989D01*
X59318757Y-94557929D01*
X59464905Y-94587000D01*
X59805095Y-94587000D01*
X60138747Y-94520632D01*
X60453041Y-94390447D01*
X60735898Y-94201448D01*
X60976448Y-93960898D01*
X61165447Y-93678041D01*
X61295632Y-93363747D01*
X61362000Y-93030095D01*
X61362000Y-92922595D01*
X62493282Y-92922595D01*
X62537039Y-93241675D01*
X62642205Y-93546088D01*
X62735186Y-93720044D01*
X62999587Y-93815808D01*
X63955395Y-92860000D01*
X62999587Y-91904192D01*
X62735186Y-91999956D01*
X62594296Y-92289571D01*
X62512616Y-92601108D01*
X62493282Y-92922595D01*
X61362000Y-92922595D01*
X61362000Y-92689905D01*
X61295632Y-92356253D01*
X61165447Y-92041959D01*
X60976448Y-91759102D01*
X60941933Y-91724587D01*
X63179192Y-91724587D01*
X64135000Y-92680395D01*
X65090808Y-91724587D01*
X64995044Y-91460186D01*
X64705429Y-91319296D01*
X64393892Y-91237616D01*
X64072405Y-91218282D01*
X63753325Y-91262039D01*
X63448912Y-91367205D01*
X63274956Y-91460186D01*
X63179192Y-91724587D01*
X60941933Y-91724587D01*
X60735898Y-91518552D01*
X60453041Y-91329553D01*
X60138747Y-91199368D01*
X59805095Y-91133000D01*
X59464905Y-91133000D01*
X59131253Y-91199368D01*
X58816959Y-91329553D01*
X58534102Y-91518552D01*
X58293552Y-91759102D01*
X58104553Y-92041959D01*
X57974368Y-92356253D01*
X57908000Y-92689905D01*
X57908000Y-93030095D01*
X57937071Y-93176243D01*
X57183961Y-93929353D01*
X57070415Y-93815807D01*
X57334814Y-93720044D01*
X57475704Y-93430429D01*
X57557384Y-93118892D01*
X57576718Y-92797405D01*
X57532961Y-92478325D01*
X57427795Y-92173912D01*
X57334814Y-91999956D01*
X57070413Y-91904192D01*
X56114605Y-92860000D01*
X56128748Y-92874143D01*
X55949143Y-93053748D01*
X55935000Y-93039605D01*
X54979192Y-93995413D01*
X55074956Y-94259814D01*
X55364571Y-94400704D01*
X55676108Y-94482384D01*
X55997595Y-94501718D01*
X56316675Y-94457961D01*
X56621088Y-94352795D01*
X56795044Y-94259814D01*
X56890807Y-93995415D01*
X57004353Y-94108961D01*
X56300336Y-94812978D01*
X49539930Y-94812978D01*
X49613210Y-94703306D01*
X49728319Y-94425410D01*
X49787000Y-94130396D01*
X49787000Y-93829604D01*
X49728319Y-93534590D01*
X49613210Y-93256694D01*
X49487000Y-93067807D01*
X49487000Y-92689905D01*
X49708000Y-92689905D01*
X49708000Y-93030095D01*
X49774368Y-93363747D01*
X49904553Y-93678041D01*
X50093552Y-93960898D01*
X50334102Y-94201448D01*
X50616959Y-94390447D01*
X50931253Y-94520632D01*
X51264905Y-94587000D01*
X51605095Y-94587000D01*
X51938747Y-94520632D01*
X52253041Y-94390447D01*
X52535898Y-94201448D01*
X52776448Y-93960898D01*
X52965447Y-93678041D01*
X53095632Y-93363747D01*
X53162000Y-93030095D01*
X53162000Y-92922595D01*
X54293282Y-92922595D01*
X54337039Y-93241675D01*
X54442205Y-93546088D01*
X54535186Y-93720044D01*
X54799587Y-93815808D01*
X55755395Y-92860000D01*
X54799587Y-91904192D01*
X54535186Y-91999956D01*
X54394296Y-92289571D01*
X54312616Y-92601108D01*
X54293282Y-92922595D01*
X53162000Y-92922595D01*
X53162000Y-92689905D01*
X53095632Y-92356253D01*
X52965447Y-92041959D01*
X52776448Y-91759102D01*
X52741933Y-91724587D01*
X54979192Y-91724587D01*
X55935000Y-92680395D01*
X56890808Y-91724587D01*
X56795044Y-91460186D01*
X56505429Y-91319296D01*
X56193892Y-91237616D01*
X55872405Y-91218282D01*
X55553325Y-91262039D01*
X55248912Y-91367205D01*
X55074956Y-91460186D01*
X54979192Y-91724587D01*
X52741933Y-91724587D01*
X52535898Y-91518552D01*
X52253041Y-91329553D01*
X51938747Y-91199368D01*
X51605095Y-91133000D01*
X51264905Y-91133000D01*
X50931253Y-91199368D01*
X50616959Y-91329553D01*
X50334102Y-91518552D01*
X50093552Y-91759102D01*
X49904553Y-92041959D01*
X49774368Y-92356253D01*
X49708000Y-92689905D01*
X49487000Y-92689905D01*
X49487000Y-90230263D01*
X49492935Y-90170000D01*
X49469246Y-89929466D01*
X49399084Y-89698176D01*
X49342832Y-89592936D01*
X49339660Y-89587001D01*
X65034741Y-89587001D01*
X65095001Y-89592936D01*
X65155261Y-89587001D01*
X65155269Y-89587001D01*
X65335535Y-89569246D01*
X65566825Y-89499085D01*
X65645561Y-89457000D01*
X68297477Y-89457000D01*
X68249463Y-89515506D01*
X68190498Y-89625820D01*
X68154188Y-89745518D01*
X68141928Y-89870000D01*
X68145000Y-90484250D01*
X68303750Y-90643000D01*
X69953000Y-90643000D01*
X69953000Y-90623000D01*
X70207000Y-90623000D01*
X70207000Y-90643000D01*
X71856250Y-90643000D01*
X72015000Y-90484250D01*
X72018072Y-89870000D01*
X72005812Y-89745518D01*
X71969502Y-89625820D01*
X71910537Y-89515506D01*
X71862523Y-89457000D01*
X72319740Y-89457000D01*
X72380000Y-89462935D01*
X72440260Y-89457000D01*
X72440268Y-89457000D01*
X72620534Y-89439245D01*
X72851824Y-89369084D01*
X73064983Y-89255149D01*
X73251817Y-89101817D01*
X73290239Y-89055000D01*
X75705034Y-86640206D01*
X75751846Y-86601788D01*
X75905178Y-86414954D01*
X75985250Y-86265148D01*
X76019113Y-86201796D01*
X76089274Y-85970505D01*
X76094781Y-85914590D01*
X76107029Y-85790239D01*
X76107029Y-85790231D01*
X76112964Y-85729971D01*
X76107029Y-85669711D01*
X76107029Y-51445292D01*
X76112964Y-51385029D01*
X76089275Y-51144495D01*
X76019113Y-50913205D01*
X75905178Y-50700046D01*
X75751846Y-50513212D01*
X75705035Y-50474795D01*
X65870239Y-40640000D01*
X66680006Y-39830234D01*
X66726818Y-39791816D01*
X66880150Y-39604982D01*
X66994085Y-39391823D01*
X67037529Y-39248608D01*
X67064247Y-39160533D01*
X67087936Y-38919999D01*
X67082001Y-38859736D01*
X67082001Y-34794662D01*
X67087936Y-34734399D01*
X67064247Y-34493865D01*
X66994085Y-34262575D01*
X66964150Y-34206571D01*
X66880150Y-34049416D01*
X66726818Y-33862582D01*
X66680007Y-33824165D01*
X65870840Y-33014999D01*
X65832418Y-32968182D01*
X65645584Y-32814850D01*
X65432425Y-32700915D01*
X65201135Y-32630754D01*
X65020869Y-32612999D01*
X65020861Y-32612999D01*
X64960601Y-32607064D01*
X64900341Y-32612999D01*
X42741869Y-32612999D01*
X32343878Y-22215009D01*
X32536913Y-22306246D01*
X32670961Y-22346904D01*
X32893000Y-22224915D01*
X32893000Y-21082000D01*
X33147000Y-21082000D01*
X33147000Y-22224915D01*
X33369039Y-22346904D01*
X33503087Y-22306246D01*
X33757420Y-22186037D01*
X33983414Y-22018519D01*
X34172385Y-21810131D01*
X34290000Y-21614018D01*
X34407615Y-21810131D01*
X34596586Y-22018519D01*
X34822580Y-22186037D01*
X35076913Y-22306246D01*
X35210961Y-22346904D01*
X35433000Y-22224915D01*
X35433000Y-21082000D01*
X33147000Y-21082000D01*
X32893000Y-21082000D01*
X32873000Y-21082000D01*
X32873000Y-20828000D01*
X32893000Y-20828000D01*
X32893000Y-20808000D01*
X33147000Y-20808000D01*
X33147000Y-20828000D01*
X35433000Y-20828000D01*
X35433000Y-20808000D01*
X35687000Y-20808000D01*
X35687000Y-20828000D01*
X35707000Y-20828000D01*
X35707000Y-21082000D01*
X35687000Y-21082000D01*
X35687000Y-22224915D01*
X35909039Y-22346904D01*
X36043087Y-22306246D01*
X36297420Y-22186037D01*
X36523414Y-22018519D01*
X36712385Y-21810131D01*
X36770323Y-21713525D01*
X36913901Y-21928406D01*
X37126594Y-22141099D01*
X37376694Y-22308210D01*
X37654590Y-22423319D01*
X37949604Y-22482000D01*
X38250396Y-22482000D01*
X38545410Y-22423319D01*
X38823306Y-22308210D01*
X39073406Y-22141099D01*
X39286099Y-21928406D01*
X39453210Y-21678306D01*
X39568319Y-21400410D01*
X39627000Y-21105396D01*
X39627000Y-20804604D01*
X39568319Y-20509590D01*
X39453210Y-20231694D01*
X39286099Y-19981594D01*
X39073406Y-19768901D01*
X38823306Y-19601790D01*
X38664389Y-19535964D01*
X33543424Y-14415000D01*
X33505002Y-14368183D01*
X33318168Y-14214851D01*
X33105009Y-14100916D01*
X32873719Y-14030755D01*
X32693453Y-14013000D01*
X32693445Y-14013000D01*
X32633185Y-14007065D01*
X32572925Y-14013000D01*
X30122193Y-14013000D01*
X29970579Y-13911695D01*
X30023097Y-13732702D01*
X29210000Y-12919605D01*
X28396903Y-13732702D01*
X28449421Y-13911695D01*
X28297807Y-14013000D01*
X27328240Y-14013000D01*
X27280517Y-13965277D01*
X27280517Y-13017500D01*
X27266480Y-12874983D01*
X27246924Y-12810512D01*
X27769783Y-12810512D01*
X27811213Y-13090130D01*
X27906397Y-13356292D01*
X27973329Y-13481514D01*
X28217298Y-13553097D01*
X29030395Y-12740000D01*
X29389605Y-12740000D01*
X30202702Y-13553097D01*
X30446671Y-13481514D01*
X30567571Y-13226004D01*
X30636300Y-12951816D01*
X30650217Y-12669488D01*
X30608787Y-12389870D01*
X30513603Y-12123708D01*
X30446671Y-11998486D01*
X30202702Y-11926903D01*
X29389605Y-12740000D01*
X29030395Y-12740000D01*
X28217298Y-11926903D01*
X27973329Y-11998486D01*
X27852429Y-12253996D01*
X27783700Y-12528184D01*
X27769783Y-12810512D01*
X27246924Y-12810512D01*
X27224910Y-12737943D01*
X27157403Y-12611647D01*
X27066554Y-12500946D01*
X26955853Y-12410097D01*
X26871374Y-12364942D01*
X26925969Y-12296923D01*
X27069571Y-12021094D01*
X27140563Y-11802980D01*
X27113406Y-11747298D01*
X28396903Y-11747298D01*
X29210000Y-12560395D01*
X30023097Y-11747298D01*
X29951514Y-11503329D01*
X29696004Y-11382429D01*
X29421816Y-11313700D01*
X29139488Y-11299783D01*
X28859870Y-11341213D01*
X28593708Y-11436397D01*
X28468486Y-11503329D01*
X28396903Y-11747298D01*
X27113406Y-11747298D01*
X27020594Y-11557000D01*
X25677000Y-11557000D01*
X25677000Y-11577000D01*
X25423000Y-11577000D01*
X25423000Y-11557000D01*
X25403000Y-11557000D01*
X25403000Y-11303000D01*
X25423000Y-11303000D01*
X25423000Y-11283000D01*
X25677000Y-11283000D01*
X25677000Y-11303000D01*
X27020594Y-11303000D01*
X27140563Y-11057020D01*
X27069571Y-10838906D01*
X26925969Y-10563077D01*
X26731315Y-10320563D01*
X26617809Y-10225328D01*
X26790832Y-10083332D01*
X27000710Y-9827595D01*
X27156663Y-9535827D01*
X27252699Y-9219239D01*
X27285126Y-8890000D01*
X27252699Y-8560761D01*
X27252620Y-8560501D01*
X27262000Y-8465268D01*
X27262000Y-4802702D01*
X27721903Y-4802702D01*
X27793486Y-5046671D01*
X28048996Y-5167571D01*
X28323184Y-5236300D01*
X28605512Y-5250217D01*
X28885130Y-5208787D01*
X29151292Y-5113603D01*
X29276514Y-5046671D01*
X29348097Y-4802702D01*
X28535000Y-3989605D01*
X27721903Y-4802702D01*
X27262000Y-4802702D01*
X27262000Y-4722193D01*
X27363305Y-4570579D01*
X27542298Y-4623097D01*
X28355395Y-3810000D01*
X28714605Y-3810000D01*
X29527702Y-4623097D01*
X29771671Y-4551514D01*
X29892571Y-4296004D01*
X29961300Y-4021816D01*
X29975217Y-3739488D01*
X29933787Y-3459870D01*
X29838603Y-3193708D01*
X29771671Y-3068486D01*
X29527702Y-2996903D01*
X28714605Y-3810000D01*
X28355395Y-3810000D01*
X27542298Y-2996903D01*
X27363305Y-3049421D01*
X27221099Y-2836594D01*
X27201803Y-2817298D01*
X27721903Y-2817298D01*
X28535000Y-3630395D01*
X29348097Y-2817298D01*
X29276514Y-2573329D01*
X29021004Y-2452429D01*
X28746816Y-2383700D01*
X28464488Y-2369783D01*
X28184870Y-2411213D01*
X27918708Y-2506397D01*
X27793486Y-2573329D01*
X27721903Y-2817298D01*
X27201803Y-2817298D01*
X27008406Y-2623901D01*
X26758306Y-2456790D01*
X26480410Y-2341681D01*
X26185396Y-2283000D01*
X25884604Y-2283000D01*
X25589590Y-2341681D01*
X25311694Y-2456790D01*
X25122807Y-2583000D01*
X23137193Y-2583000D01*
X22948306Y-2456790D01*
X22670410Y-2341681D01*
X22375396Y-2283000D01*
X22074604Y-2283000D01*
X21779590Y-2341681D01*
X21501694Y-2456790D01*
X21251594Y-2623901D01*
X21038901Y-2836594D01*
X20871790Y-3086694D01*
X20756681Y-3364590D01*
X20698000Y-3659604D01*
X20698000Y-3960396D01*
X20756681Y-4255410D01*
X20871790Y-4533306D01*
X21038901Y-4783406D01*
X21251594Y-4996099D01*
X21501694Y-5163210D01*
X21779590Y-5278319D01*
X22074604Y-5337000D01*
X22375396Y-5337000D01*
X22670410Y-5278319D01*
X22948306Y-5163210D01*
X23137193Y-5037000D01*
X24808000Y-5037000D01*
X24808001Y-7356853D01*
X24564905Y-7486790D01*
X24309168Y-7696668D01*
X24099290Y-7952405D01*
X23943337Y-8244173D01*
X23847301Y-8560761D01*
X23844249Y-8591745D01*
X22724999Y-9710996D01*
X22678182Y-9749418D01*
X22524850Y-9936253D01*
X22410915Y-10149412D01*
X22340754Y-10380702D01*
X22322999Y-10560968D01*
X22322999Y-10560975D01*
X22317064Y-10621235D01*
X22322999Y-10681495D01*
X22323000Y-15662231D01*
X22317064Y-15722501D01*
X22340754Y-15963034D01*
X22385887Y-16111817D01*
X22410916Y-16194325D01*
X22524851Y-16407484D01*
X22678183Y-16594318D01*
X22724995Y-16632736D01*
X25520258Y-19428000D01*
X25249604Y-19428000D01*
X24954590Y-19486681D01*
X24676694Y-19601790D01*
X24426594Y-19768901D01*
X24213901Y-19981594D01*
X24130000Y-20107161D01*
X24046099Y-19981594D01*
X23833406Y-19768901D01*
X23583306Y-19601790D01*
X23305410Y-19486681D01*
X23010396Y-19428000D01*
X22709604Y-19428000D01*
X22414590Y-19486681D01*
X22136694Y-19601790D01*
X21886594Y-19768901D01*
X21789735Y-19865760D01*
X21727403Y-19749147D01*
X21636554Y-19638446D01*
X21525853Y-19547597D01*
X21399557Y-19480090D01*
X21262517Y-19438520D01*
X21120000Y-19424483D01*
X19520000Y-19424483D01*
X19377483Y-19438520D01*
X19240443Y-19480090D01*
X19114147Y-19547597D01*
X19003446Y-19638446D01*
X18912597Y-19749147D01*
X18845090Y-19875443D01*
X18803520Y-20012483D01*
X18789483Y-20155000D01*
X18789483Y-21755000D01*
X18803520Y-21897517D01*
X18845090Y-22034557D01*
X18912597Y-22160853D01*
X19003446Y-22271554D01*
X19114147Y-22362403D01*
X19240443Y-22429910D01*
X19377483Y-22471480D01*
X19520000Y-22485517D01*
X21120000Y-22485517D01*
X21262517Y-22471480D01*
X21399557Y-22429910D01*
X21525853Y-22362403D01*
X21636554Y-22271554D01*
X21727403Y-22160853D01*
X21789735Y-22044240D01*
X21886594Y-22141099D01*
X22136694Y-22308210D01*
X22414590Y-22423319D01*
X22709604Y-22482000D01*
X23010396Y-22482000D01*
X23305410Y-22423319D01*
X23583306Y-22308210D01*
X23833406Y-22141099D01*
X24046099Y-21928406D01*
X24130000Y-21802839D01*
X24213901Y-21928406D01*
X24426594Y-22141099D01*
X24676694Y-22308210D01*
X24954590Y-22423319D01*
X25249604Y-22482000D01*
X25550396Y-22482000D01*
X25845410Y-22423319D01*
X26123306Y-22308210D01*
X26373406Y-22141099D01*
X26586099Y-21928406D01*
X26670000Y-21802839D01*
X26753901Y-21928406D01*
X26966594Y-22141099D01*
X27216694Y-22308210D01*
X27494590Y-22423319D01*
X27789604Y-22482000D01*
X28090396Y-22482000D01*
X28385410Y-22423319D01*
X28663306Y-22308210D01*
X28913406Y-22141099D01*
X29126099Y-21928406D01*
X29210000Y-21802839D01*
X29253000Y-21867193D01*
X29253000Y-22026110D01*
X29247065Y-22086370D01*
X29253000Y-22146630D01*
X29253000Y-22146638D01*
X29270755Y-22326904D01*
X29340916Y-22558194D01*
X29454852Y-22771353D01*
X29608184Y-22958187D01*
X29654996Y-22996605D01*
X41323393Y-34665003D01*
X41361812Y-34711816D01*
X41548646Y-34865148D01*
X41747893Y-34971647D01*
X41761805Y-34979083D01*
X41993095Y-35049245D01*
X42113575Y-35061110D01*
X42173361Y-35066999D01*
X42173366Y-35066999D01*
X42233629Y-35072934D01*
X42293892Y-35066999D01*
X62869775Y-35066999D01*
X62850734Y-35107790D01*
X62787189Y-35367027D01*
X62775439Y-35633680D01*
X62815937Y-35897501D01*
X62907125Y-36148353D01*
X62963632Y-36254068D01*
X63199440Y-36315955D01*
X63955395Y-35560000D01*
X63941253Y-35545858D01*
X64120858Y-35366253D01*
X64135000Y-35380395D01*
X64149143Y-35366253D01*
X64328748Y-35545858D01*
X64314605Y-35560000D01*
X64328748Y-35574143D01*
X64149143Y-35753748D01*
X64135000Y-35739605D01*
X63379045Y-36495560D01*
X63440932Y-36731368D01*
X63542978Y-36779003D01*
X63449589Y-36817686D01*
X63212592Y-36976042D01*
X63011042Y-37177592D01*
X62852686Y-37414589D01*
X62743608Y-37677926D01*
X62724184Y-37775576D01*
X61509999Y-38989762D01*
X61463182Y-39028184D01*
X61309850Y-39215019D01*
X61195915Y-39428178D01*
X61125754Y-39659468D01*
X61107999Y-39839734D01*
X61107999Y-39839741D01*
X61102064Y-39900001D01*
X61107999Y-39960261D01*
X61108000Y-46523731D01*
X61102064Y-46584001D01*
X61125754Y-46824534D01*
X61136235Y-46859084D01*
X61195916Y-47055825D01*
X61309851Y-47268984D01*
X61463183Y-47455818D01*
X61509995Y-47494236D01*
X65610752Y-51594994D01*
X65649171Y-51641807D01*
X65836005Y-51795139D01*
X66049164Y-51909074D01*
X66280454Y-51979235D01*
X66460720Y-51996990D01*
X66460727Y-51996990D01*
X66520987Y-52002925D01*
X66581247Y-51996990D01*
X68301038Y-51996990D01*
X68213245Y-52199913D01*
X68188964Y-52305260D01*
X68309622Y-52543000D01*
X69953000Y-52543000D01*
X69953000Y-52523000D01*
X70207000Y-52523000D01*
X70207000Y-52543000D01*
X70227000Y-52543000D01*
X70227000Y-52797000D01*
X70207000Y-52797000D01*
X70207000Y-52817000D01*
X69953000Y-52817000D01*
X69953000Y-52797000D01*
X68309622Y-52797000D01*
X68188964Y-53034740D01*
X68213245Y-53140087D01*
X68333138Y-53417204D01*
X68504790Y-53665606D01*
X68721604Y-53875748D01*
X68732535Y-53882807D01*
X68610450Y-53983000D01*
X66513240Y-53983000D01*
X65647638Y-53117398D01*
X65603319Y-52894590D01*
X65488210Y-52616694D01*
X65321099Y-52366594D01*
X65108406Y-52153901D01*
X64858306Y-51986790D01*
X64580410Y-51871681D01*
X64285396Y-51813000D01*
X63984604Y-51813000D01*
X63689590Y-51871681D01*
X63411694Y-51986790D01*
X63161594Y-52153901D01*
X62948901Y-52366594D01*
X62781790Y-52616694D01*
X62666681Y-52894590D01*
X62608000Y-53189604D01*
X62608000Y-53490396D01*
X62666681Y-53785410D01*
X62781790Y-54063306D01*
X62948901Y-54313406D01*
X63161594Y-54526099D01*
X63411694Y-54693210D01*
X63689590Y-54808319D01*
X63912398Y-54852638D01*
X65094765Y-56035005D01*
X65133183Y-56081817D01*
X65320017Y-56235149D01*
X65533176Y-56349084D01*
X65764466Y-56419245D01*
X65944732Y-56437000D01*
X65944739Y-56437000D01*
X66004999Y-56442935D01*
X66065259Y-56437000D01*
X68610450Y-56437000D01*
X68662845Y-56480000D01*
X68610450Y-56523000D01*
X49501257Y-56523000D01*
X49440997Y-56517065D01*
X49380737Y-56523000D01*
X49380730Y-56523000D01*
X49200464Y-56540755D01*
X48969174Y-56610916D01*
X48756015Y-56724851D01*
X48569181Y-56878183D01*
X48530763Y-56924995D01*
X37722607Y-67733152D01*
X37654590Y-67746681D01*
X37376694Y-67861790D01*
X37126594Y-68028901D01*
X36913901Y-68241594D01*
X36746790Y-68491694D01*
X36631681Y-68769590D01*
X36573000Y-69064604D01*
X36573000Y-69365396D01*
X36631681Y-69660410D01*
X36746790Y-69938306D01*
X36779979Y-69987977D01*
X36194664Y-69987977D01*
X35567000Y-69360314D01*
X35567000Y-69064604D01*
X35508319Y-68769590D01*
X35393210Y-68491694D01*
X35226099Y-68241594D01*
X35013406Y-68028901D01*
X34763306Y-67861790D01*
X34485410Y-67746681D01*
X34190396Y-67688000D01*
X33889604Y-67688000D01*
X33594590Y-67746681D01*
X33316694Y-67861790D01*
X33066594Y-68028901D01*
X32853901Y-68241594D01*
X32770000Y-68367161D01*
X32686099Y-68241594D01*
X32473406Y-68028901D01*
X32223306Y-67861790D01*
X31945410Y-67746681D01*
X31650396Y-67688000D01*
X31349604Y-67688000D01*
X31054590Y-67746681D01*
X30776694Y-67861790D01*
X30526594Y-68028901D01*
X30313901Y-68241594D01*
X30230000Y-68367161D01*
X30187000Y-68302807D01*
X30187000Y-68143893D01*
X30192935Y-68083630D01*
X30185993Y-68013133D01*
X30173552Y-67886823D01*
X30169246Y-67843096D01*
X30099084Y-67611806D01*
X30076034Y-67568683D01*
X29985149Y-67398647D01*
X29831817Y-67211813D01*
X29785006Y-67173396D01*
X26961598Y-64349989D01*
X26923176Y-64303172D01*
X26736342Y-64149840D01*
X26523183Y-64035905D01*
X26291893Y-63965744D01*
X26111627Y-63947989D01*
X26111619Y-63947989D01*
X26051359Y-63942054D01*
X25991099Y-63947989D01*
X10494933Y-63947989D01*
X10434673Y-63942054D01*
X10374413Y-63947989D01*
X10374406Y-63947989D01*
X10194140Y-63965744D01*
X9962850Y-64035905D01*
X9749691Y-64149840D01*
X9562857Y-64303172D01*
X9524439Y-64349984D01*
X2349996Y-71524428D01*
X2303184Y-71562846D01*
X2149852Y-71749680D01*
X2117960Y-71809346D01*
X2035917Y-71962839D01*
X1965755Y-72194130D01*
X1942065Y-72434663D01*
X1948001Y-72494933D01*
X1948000Y-74562810D01*
X1777481Y-74818011D01*
X1658604Y-75105006D01*
X1598000Y-75409679D01*
X827000Y-75409679D01*
X827000Y-11186037D01*
X6413000Y-11186037D01*
X6413000Y-11673963D01*
X6508190Y-12152514D01*
X6694911Y-12603299D01*
X6965989Y-13008995D01*
X7311005Y-13354011D01*
X7716701Y-13625089D01*
X8167486Y-13811810D01*
X8646037Y-13907000D01*
X9133963Y-13907000D01*
X9612514Y-13811810D01*
X10063299Y-13625089D01*
X10468995Y-13354011D01*
X10814011Y-13008995D01*
X11085089Y-12603299D01*
X11271810Y-12152514D01*
X11367000Y-11673963D01*
X11367000Y-11186037D01*
X11271810Y-10707486D01*
X11085089Y-10256701D01*
X10814011Y-9851005D01*
X10468995Y-9505989D01*
X10063299Y-9234911D01*
X9612514Y-9048190D01*
X9133963Y-8953000D01*
X8646037Y-8953000D01*
X8167486Y-9048190D01*
X7716701Y-9234911D01*
X7311005Y-9505989D01*
X6965989Y-9851005D01*
X6694911Y-10256701D01*
X6508190Y-10707486D01*
X6413000Y-11186037D01*
X827000Y-11186037D01*
X827000Y-3979139D01*
X979911Y-4348299D01*
X1250989Y-4753995D01*
X1596005Y-5099011D01*
X2001701Y-5370089D01*
X2452486Y-5556810D01*
X2931037Y-5652000D01*
X3418963Y-5652000D01*
X3897514Y-5556810D01*
X4348299Y-5370089D01*
X4753995Y-5099011D01*
X5099011Y-4753995D01*
X5128407Y-4710000D01*
X7351928Y-4710000D01*
X7364188Y-4834482D01*
X7400498Y-4954180D01*
X7459463Y-5064494D01*
X7538815Y-5161185D01*
X7635506Y-5240537D01*
X7745820Y-5299502D01*
X7865518Y-5335812D01*
X7990000Y-5348072D01*
X8604250Y-5345000D01*
X8763000Y-5186250D01*
X8763000Y-3937000D01*
X7513750Y-3937000D01*
X7355000Y-4095750D01*
X7351928Y-4710000D01*
X5128407Y-4710000D01*
X5370089Y-4348299D01*
X5556810Y-3897514D01*
X5652000Y-3418963D01*
X5652000Y-2931037D01*
X5647816Y-2910000D01*
X7351928Y-2910000D01*
X7355000Y-3524250D01*
X7513750Y-3683000D01*
X8763000Y-3683000D01*
X8763000Y-2433750D01*
X9017000Y-2433750D01*
X9017000Y-3683000D01*
X9037000Y-3683000D01*
X9037000Y-3937000D01*
X9017000Y-3937000D01*
X9017000Y-5186250D01*
X9175750Y-5345000D01*
X9790000Y-5348072D01*
X9914482Y-5335812D01*
X10034180Y-5299502D01*
X10144494Y-5240537D01*
X10241185Y-5161185D01*
X10320537Y-5064494D01*
X10342493Y-5023418D01*
X10392848Y-5073773D01*
X10659327Y-5251828D01*
X10955422Y-5374475D01*
X11269755Y-5437000D01*
X11590245Y-5437000D01*
X11904578Y-5374475D01*
X12200673Y-5251828D01*
X12467152Y-5073773D01*
X12503925Y-5037000D01*
X13692807Y-5037000D01*
X13881694Y-5163210D01*
X14159590Y-5278319D01*
X14454604Y-5337000D01*
X14755396Y-5337000D01*
X15050410Y-5278319D01*
X15328306Y-5163210D01*
X15578406Y-4996099D01*
X15791099Y-4783406D01*
X15958210Y-4533306D01*
X16073319Y-4255410D01*
X16132000Y-3960396D01*
X16132000Y-3659604D01*
X16073319Y-3364590D01*
X15958210Y-3086694D01*
X15791099Y-2836594D01*
X15578406Y-2623901D01*
X15328306Y-2456790D01*
X15050410Y-2341681D01*
X14755396Y-2283000D01*
X14454604Y-2283000D01*
X14159590Y-2341681D01*
X13881694Y-2456790D01*
X13692807Y-2583000D01*
X12503925Y-2583000D01*
X12467152Y-2546227D01*
X12200673Y-2368172D01*
X11904578Y-2245525D01*
X11590245Y-2183000D01*
X11269755Y-2183000D01*
X10955422Y-2245525D01*
X10659327Y-2368172D01*
X10392848Y-2546227D01*
X10342493Y-2596582D01*
X10320537Y-2555506D01*
X10241185Y-2458815D01*
X10144494Y-2379463D01*
X10034180Y-2320498D01*
X9914482Y-2284188D01*
X9790000Y-2271928D01*
X9175750Y-2275000D01*
X9017000Y-2433750D01*
X8763000Y-2433750D01*
X8604250Y-2275000D01*
X7990000Y-2271928D01*
X7865518Y-2284188D01*
X7745820Y-2320498D01*
X7635506Y-2379463D01*
X7538815Y-2458815D01*
X7459463Y-2555506D01*
X7400498Y-2665820D01*
X7364188Y-2785518D01*
X7351928Y-2910000D01*
X5647816Y-2910000D01*
X5556810Y-2452486D01*
X5370089Y-2001701D01*
X5099011Y-1596005D01*
X4753995Y-1250989D01*
X4348299Y-979911D01*
X3979139Y-827000D01*
X98868001Y-827000D01*
X98868000Y-95715861D01*
G37*
%TD.AperFunction*%
D30*
X60032975Y-80464661D02*
X59948892Y-80442616D01*
X59627405Y-80423282D01*
X59308325Y-80467039D01*
X59003912Y-80572205D01*
X58829956Y-80665186D01*
X58734192Y-80929587D01*
X59690000Y-81885395D01*
X59704143Y-81871253D01*
X59883748Y-82050858D01*
X59869605Y-82065000D01*
X59883748Y-82079143D01*
X59704143Y-82258748D01*
X59690000Y-82244605D01*
X58734192Y-83200413D01*
X58829956Y-83464814D01*
X59119571Y-83605704D01*
X59431108Y-83687384D01*
X59752595Y-83706718D01*
X60071675Y-83662961D01*
X60376088Y-83557795D01*
X60550044Y-83464814D01*
X60645807Y-83200415D01*
X60713001Y-83267609D01*
X60713001Y-83900312D01*
X59951243Y-84662071D01*
X59805095Y-84633000D01*
X59464905Y-84633000D01*
X59131253Y-84699368D01*
X58816959Y-84829553D01*
X58534102Y-85018552D01*
X58293552Y-85259102D01*
X58104553Y-85541959D01*
X57974368Y-85856253D01*
X57908000Y-86189905D01*
X57908000Y-86530095D01*
X57974368Y-86863747D01*
X58085897Y-87133001D01*
X57377158Y-87133001D01*
X57475704Y-86930429D01*
X57557384Y-86618892D01*
X57576718Y-86297405D01*
X57532961Y-85978325D01*
X57427795Y-85673912D01*
X57334814Y-85499956D01*
X57070413Y-85404192D01*
X56114605Y-86360000D01*
X56128748Y-86374143D01*
X55949143Y-86553748D01*
X55935000Y-86539605D01*
X55920858Y-86553748D01*
X55741253Y-86374143D01*
X55755395Y-86360000D01*
X54799587Y-85404192D01*
X54535186Y-85499956D01*
X54394296Y-85789571D01*
X54312616Y-86101108D01*
X54293282Y-86422595D01*
X54337039Y-86741675D01*
X54442205Y-87046088D01*
X54488661Y-87133001D01*
X52984103Y-87133001D01*
X53095632Y-86863747D01*
X53162000Y-86530095D01*
X53162000Y-86189905D01*
X53132929Y-86043757D01*
X53841908Y-85334779D01*
X53879187Y-85304185D01*
X53944510Y-85224587D01*
X54979192Y-85224587D01*
X55935000Y-86180395D01*
X56890808Y-85224587D01*
X56795044Y-84960186D01*
X56505429Y-84819296D01*
X56193892Y-84737616D01*
X55872405Y-84718282D01*
X55553325Y-84762039D01*
X55248912Y-84867205D01*
X55074956Y-84960186D01*
X54979192Y-85224587D01*
X53944510Y-85224587D01*
X54001277Y-85155417D01*
X54091998Y-84985690D01*
X54147864Y-84801524D01*
X54162001Y-84657992D01*
X54162001Y-84657990D01*
X54166728Y-84610000D01*
X54162001Y-84562009D01*
X54162001Y-83200413D01*
X54979192Y-83200413D01*
X55074956Y-83464814D01*
X55364571Y-83605704D01*
X55676108Y-83687384D01*
X55997595Y-83706718D01*
X56316675Y-83662961D01*
X56621088Y-83557795D01*
X56795044Y-83464814D01*
X56890808Y-83200413D01*
X55935000Y-82244605D01*
X54979192Y-83200413D01*
X54162001Y-83200413D01*
X54162001Y-82127595D01*
X54293282Y-82127595D01*
X54337039Y-82446675D01*
X54442205Y-82751088D01*
X54535186Y-82925044D01*
X54799587Y-83020808D01*
X55755395Y-82065000D01*
X56114605Y-82065000D01*
X57070413Y-83020808D01*
X57334814Y-82925044D01*
X57475704Y-82635429D01*
X57557384Y-82323892D01*
X57569189Y-82127595D01*
X58048282Y-82127595D01*
X58092039Y-82446675D01*
X58197205Y-82751088D01*
X58290186Y-82925044D01*
X58554587Y-83020808D01*
X59510395Y-82065000D01*
X58554587Y-81109192D01*
X58290186Y-81204956D01*
X58149296Y-81494571D01*
X58067616Y-81806108D01*
X58048282Y-82127595D01*
X57569189Y-82127595D01*
X57576718Y-82002405D01*
X57532961Y-81683325D01*
X57427795Y-81378912D01*
X57334814Y-81204956D01*
X57070413Y-81109192D01*
X56114605Y-82065000D01*
X55755395Y-82065000D01*
X54799587Y-81109192D01*
X54535186Y-81204956D01*
X54394296Y-81494571D01*
X54312616Y-81806108D01*
X54293282Y-82127595D01*
X54162001Y-82127595D01*
X54162001Y-81172993D01*
X54166728Y-81125000D01*
X54147864Y-80933475D01*
X54146685Y-80929587D01*
X54979192Y-80929587D01*
X55935000Y-81885395D01*
X56890808Y-80929587D01*
X56795044Y-80665186D01*
X56505429Y-80524296D01*
X56193892Y-80442616D01*
X55872405Y-80423282D01*
X55553325Y-80467039D01*
X55248912Y-80572205D01*
X55074956Y-80665186D01*
X54979192Y-80929587D01*
X54146685Y-80929587D01*
X54091998Y-80749310D01*
X54028918Y-80631296D01*
X54001277Y-80579583D01*
X53879187Y-80430815D01*
X53841908Y-80400221D01*
X53483699Y-80042012D01*
X59610326Y-80042012D01*
X60032975Y-80464661D01*
%TA.AperFunction,Conductor*%
D31*
G36*
X60032975Y-80464661D02*
G01*
X59948892Y-80442616D01*
X59627405Y-80423282D01*
X59308325Y-80467039D01*
X59003912Y-80572205D01*
X58829956Y-80665186D01*
X58734192Y-80929587D01*
X59690000Y-81885395D01*
X59704143Y-81871253D01*
X59883748Y-82050858D01*
X59869605Y-82065000D01*
X59883748Y-82079143D01*
X59704143Y-82258748D01*
X59690000Y-82244605D01*
X58734192Y-83200413D01*
X58829956Y-83464814D01*
X59119571Y-83605704D01*
X59431108Y-83687384D01*
X59752595Y-83706718D01*
X60071675Y-83662961D01*
X60376088Y-83557795D01*
X60550044Y-83464814D01*
X60645807Y-83200415D01*
X60713001Y-83267609D01*
X60713001Y-83900312D01*
X59951243Y-84662071D01*
X59805095Y-84633000D01*
X59464905Y-84633000D01*
X59131253Y-84699368D01*
X58816959Y-84829553D01*
X58534102Y-85018552D01*
X58293552Y-85259102D01*
X58104553Y-85541959D01*
X57974368Y-85856253D01*
X57908000Y-86189905D01*
X57908000Y-86530095D01*
X57974368Y-86863747D01*
X58085897Y-87133001D01*
X57377158Y-87133001D01*
X57475704Y-86930429D01*
X57557384Y-86618892D01*
X57576718Y-86297405D01*
X57532961Y-85978325D01*
X57427795Y-85673912D01*
X57334814Y-85499956D01*
X57070413Y-85404192D01*
X56114605Y-86360000D01*
X56128748Y-86374143D01*
X55949143Y-86553748D01*
X55935000Y-86539605D01*
X55920858Y-86553748D01*
X55741253Y-86374143D01*
X55755395Y-86360000D01*
X54799587Y-85404192D01*
X54535186Y-85499956D01*
X54394296Y-85789571D01*
X54312616Y-86101108D01*
X54293282Y-86422595D01*
X54337039Y-86741675D01*
X54442205Y-87046088D01*
X54488661Y-87133001D01*
X52984103Y-87133001D01*
X53095632Y-86863747D01*
X53162000Y-86530095D01*
X53162000Y-86189905D01*
X53132929Y-86043757D01*
X53841908Y-85334779D01*
X53879187Y-85304185D01*
X53944510Y-85224587D01*
X54979192Y-85224587D01*
X55935000Y-86180395D01*
X56890808Y-85224587D01*
X56795044Y-84960186D01*
X56505429Y-84819296D01*
X56193892Y-84737616D01*
X55872405Y-84718282D01*
X55553325Y-84762039D01*
X55248912Y-84867205D01*
X55074956Y-84960186D01*
X54979192Y-85224587D01*
X53944510Y-85224587D01*
X54001277Y-85155417D01*
X54091998Y-84985690D01*
X54147864Y-84801524D01*
X54162001Y-84657992D01*
X54162001Y-84657990D01*
X54166728Y-84610000D01*
X54162001Y-84562009D01*
X54162001Y-83200413D01*
X54979192Y-83200413D01*
X55074956Y-83464814D01*
X55364571Y-83605704D01*
X55676108Y-83687384D01*
X55997595Y-83706718D01*
X56316675Y-83662961D01*
X56621088Y-83557795D01*
X56795044Y-83464814D01*
X56890808Y-83200413D01*
X55935000Y-82244605D01*
X54979192Y-83200413D01*
X54162001Y-83200413D01*
X54162001Y-82127595D01*
X54293282Y-82127595D01*
X54337039Y-82446675D01*
X54442205Y-82751088D01*
X54535186Y-82925044D01*
X54799587Y-83020808D01*
X55755395Y-82065000D01*
X56114605Y-82065000D01*
X57070413Y-83020808D01*
X57334814Y-82925044D01*
X57475704Y-82635429D01*
X57557384Y-82323892D01*
X57569189Y-82127595D01*
X58048282Y-82127595D01*
X58092039Y-82446675D01*
X58197205Y-82751088D01*
X58290186Y-82925044D01*
X58554587Y-83020808D01*
X59510395Y-82065000D01*
X58554587Y-81109192D01*
X58290186Y-81204956D01*
X58149296Y-81494571D01*
X58067616Y-81806108D01*
X58048282Y-82127595D01*
X57569189Y-82127595D01*
X57576718Y-82002405D01*
X57532961Y-81683325D01*
X57427795Y-81378912D01*
X57334814Y-81204956D01*
X57070413Y-81109192D01*
X56114605Y-82065000D01*
X55755395Y-82065000D01*
X54799587Y-81109192D01*
X54535186Y-81204956D01*
X54394296Y-81494571D01*
X54312616Y-81806108D01*
X54293282Y-82127595D01*
X54162001Y-82127595D01*
X54162001Y-81172993D01*
X54166728Y-81125000D01*
X54147864Y-80933475D01*
X54146685Y-80929587D01*
X54979192Y-80929587D01*
X55935000Y-81885395D01*
X56890808Y-80929587D01*
X56795044Y-80665186D01*
X56505429Y-80524296D01*
X56193892Y-80442616D01*
X55872405Y-80423282D01*
X55553325Y-80467039D01*
X55248912Y-80572205D01*
X55074956Y-80665186D01*
X54979192Y-80929587D01*
X54146685Y-80929587D01*
X54091998Y-80749310D01*
X54028918Y-80631296D01*
X54001277Y-80579583D01*
X53879187Y-80430815D01*
X53841908Y-80400221D01*
X53483699Y-80042012D01*
X59610326Y-80042012D01*
X60032975Y-80464661D01*
G37*
%TD.AperFunction*%
D30*
X64963001Y-79746760D02*
X64957066Y-79807020D01*
X64963001Y-79867280D01*
X64963001Y-79867287D01*
X64980756Y-80047553D01*
X65050917Y-80278843D01*
X65164852Y-80492002D01*
X65318184Y-80678837D01*
X65365001Y-80717259D01*
X68072156Y-83424415D01*
X68076542Y-83468948D01*
X68169575Y-83775638D01*
X68320654Y-84058286D01*
X68523971Y-84306029D01*
X68662845Y-84420000D01*
X68523971Y-84533971D01*
X68320654Y-84781714D01*
X68169575Y-85064362D01*
X68076542Y-85371052D01*
X68045128Y-85690000D01*
X68076542Y-86008948D01*
X68169575Y-86315638D01*
X68320654Y-86598286D01*
X68523971Y-86846029D01*
X68662845Y-86960000D01*
X68610450Y-87003000D01*
X65640400Y-87003000D01*
X65675704Y-86930429D01*
X65757384Y-86618892D01*
X65776718Y-86297405D01*
X65732961Y-85978325D01*
X65627795Y-85673912D01*
X65534814Y-85499956D01*
X65270413Y-85404192D01*
X64314605Y-86360000D01*
X64328748Y-86374143D01*
X64149143Y-86553748D01*
X64135000Y-86539605D01*
X64120858Y-86553748D01*
X63941253Y-86374143D01*
X63955395Y-86360000D01*
X62999587Y-85404192D01*
X62735186Y-85499956D01*
X62594296Y-85789571D01*
X62512616Y-86101108D01*
X62493282Y-86422595D01*
X62537039Y-86741675D01*
X62642205Y-87046088D01*
X62688661Y-87133001D01*
X61184103Y-87133001D01*
X61295632Y-86863747D01*
X61362000Y-86530095D01*
X61362000Y-86189905D01*
X61332929Y-86043757D01*
X62152099Y-85224587D01*
X63179192Y-85224587D01*
X64135000Y-86180395D01*
X65090808Y-85224587D01*
X64995044Y-84960186D01*
X64705429Y-84819296D01*
X64393892Y-84737616D01*
X64072405Y-84718282D01*
X63753325Y-84762039D01*
X63448912Y-84867205D01*
X63274956Y-84960186D01*
X63179192Y-85224587D01*
X62152099Y-85224587D01*
X62346908Y-85029779D01*
X62384187Y-84999185D01*
X62506277Y-84850417D01*
X62596998Y-84680690D01*
X62652864Y-84496524D01*
X62667001Y-84352992D01*
X62667001Y-84352990D01*
X62671728Y-84305000D01*
X62667001Y-84257009D01*
X62667001Y-82894188D01*
X62848552Y-83165898D01*
X63089102Y-83406448D01*
X63371959Y-83595447D01*
X63686253Y-83725632D01*
X64019905Y-83792000D01*
X64360095Y-83792000D01*
X64693747Y-83725632D01*
X65008041Y-83595447D01*
X65290898Y-83406448D01*
X65531448Y-83165898D01*
X65720447Y-82883041D01*
X65850632Y-82568747D01*
X65917000Y-82235095D01*
X65917000Y-81894905D01*
X65850632Y-81561253D01*
X65720447Y-81246959D01*
X65531448Y-80964102D01*
X65290898Y-80723552D01*
X65008041Y-80534553D01*
X64693747Y-80404368D01*
X64360095Y-80338000D01*
X64019905Y-80338000D01*
X63686253Y-80404368D01*
X63371959Y-80534553D01*
X63089102Y-80723552D01*
X62848552Y-80964102D01*
X62667001Y-81235812D01*
X62667001Y-80787991D01*
X62671728Y-80740000D01*
X62666606Y-80688000D01*
X62652864Y-80548476D01*
X62596998Y-80364310D01*
X62506277Y-80194583D01*
X62384187Y-80045815D01*
X62346908Y-80015221D01*
X61123687Y-78792001D01*
X62129739Y-78792001D01*
X62189999Y-78797936D01*
X62250259Y-78792001D01*
X62250267Y-78792001D01*
X62430533Y-78774246D01*
X62661823Y-78704085D01*
X62874982Y-78590150D01*
X63061816Y-78436818D01*
X63100238Y-78390001D01*
X64198240Y-77292000D01*
X64360095Y-77292000D01*
X64693747Y-77225632D01*
X64963002Y-77114103D01*
X64963001Y-79746760D01*
%TA.AperFunction,Conductor*%
D31*
G36*
X64963001Y-79746760D02*
G01*
X64957066Y-79807020D01*
X64963001Y-79867280D01*
X64963001Y-79867287D01*
X64980756Y-80047553D01*
X65050917Y-80278843D01*
X65164852Y-80492002D01*
X65318184Y-80678837D01*
X65365001Y-80717259D01*
X68072156Y-83424415D01*
X68076542Y-83468948D01*
X68169575Y-83775638D01*
X68320654Y-84058286D01*
X68523971Y-84306029D01*
X68662845Y-84420000D01*
X68523971Y-84533971D01*
X68320654Y-84781714D01*
X68169575Y-85064362D01*
X68076542Y-85371052D01*
X68045128Y-85690000D01*
X68076542Y-86008948D01*
X68169575Y-86315638D01*
X68320654Y-86598286D01*
X68523971Y-86846029D01*
X68662845Y-86960000D01*
X68610450Y-87003000D01*
X65640400Y-87003000D01*
X65675704Y-86930429D01*
X65757384Y-86618892D01*
X65776718Y-86297405D01*
X65732961Y-85978325D01*
X65627795Y-85673912D01*
X65534814Y-85499956D01*
X65270413Y-85404192D01*
X64314605Y-86360000D01*
X64328748Y-86374143D01*
X64149143Y-86553748D01*
X64135000Y-86539605D01*
X64120858Y-86553748D01*
X63941253Y-86374143D01*
X63955395Y-86360000D01*
X62999587Y-85404192D01*
X62735186Y-85499956D01*
X62594296Y-85789571D01*
X62512616Y-86101108D01*
X62493282Y-86422595D01*
X62537039Y-86741675D01*
X62642205Y-87046088D01*
X62688661Y-87133001D01*
X61184103Y-87133001D01*
X61295632Y-86863747D01*
X61362000Y-86530095D01*
X61362000Y-86189905D01*
X61332929Y-86043757D01*
X62152099Y-85224587D01*
X63179192Y-85224587D01*
X64135000Y-86180395D01*
X65090808Y-85224587D01*
X64995044Y-84960186D01*
X64705429Y-84819296D01*
X64393892Y-84737616D01*
X64072405Y-84718282D01*
X63753325Y-84762039D01*
X63448912Y-84867205D01*
X63274956Y-84960186D01*
X63179192Y-85224587D01*
X62152099Y-85224587D01*
X62346908Y-85029779D01*
X62384187Y-84999185D01*
X62506277Y-84850417D01*
X62596998Y-84680690D01*
X62652864Y-84496524D01*
X62667001Y-84352992D01*
X62667001Y-84352990D01*
X62671728Y-84305000D01*
X62667001Y-84257009D01*
X62667001Y-82894188D01*
X62848552Y-83165898D01*
X63089102Y-83406448D01*
X63371959Y-83595447D01*
X63686253Y-83725632D01*
X64019905Y-83792000D01*
X64360095Y-83792000D01*
X64693747Y-83725632D01*
X65008041Y-83595447D01*
X65290898Y-83406448D01*
X65531448Y-83165898D01*
X65720447Y-82883041D01*
X65850632Y-82568747D01*
X65917000Y-82235095D01*
X65917000Y-81894905D01*
X65850632Y-81561253D01*
X65720447Y-81246959D01*
X65531448Y-80964102D01*
X65290898Y-80723552D01*
X65008041Y-80534553D01*
X64693747Y-80404368D01*
X64360095Y-80338000D01*
X64019905Y-80338000D01*
X63686253Y-80404368D01*
X63371959Y-80534553D01*
X63089102Y-80723552D01*
X62848552Y-80964102D01*
X62667001Y-81235812D01*
X62667001Y-80787991D01*
X62671728Y-80740000D01*
X62666606Y-80688000D01*
X62652864Y-80548476D01*
X62596998Y-80364310D01*
X62506277Y-80194583D01*
X62384187Y-80045815D01*
X62346908Y-80015221D01*
X61123687Y-78792001D01*
X62129739Y-78792001D01*
X62189999Y-78797936D01*
X62250259Y-78792001D01*
X62250267Y-78792001D01*
X62430533Y-78774246D01*
X62661823Y-78704085D01*
X62874982Y-78590150D01*
X63061816Y-78436818D01*
X63100238Y-78390001D01*
X64198240Y-77292000D01*
X64360095Y-77292000D01*
X64693747Y-77225632D01*
X64963002Y-77114103D01*
X64963001Y-79746760D01*
G37*
%TD.AperFunction*%
D30*
X72153020Y-53391241D02*
X72153021Y-84181739D01*
X71871760Y-84463000D01*
X71549550Y-84463000D01*
X71497155Y-84420000D01*
X71636029Y-84306029D01*
X71839346Y-84058286D01*
X71990425Y-83775638D01*
X72083458Y-83468948D01*
X72114872Y-83150000D01*
X72083458Y-82831052D01*
X71990425Y-82524362D01*
X71839346Y-82241714D01*
X71636029Y-81993971D01*
X71427465Y-81822807D01*
X71438396Y-81815748D01*
X71655210Y-81605606D01*
X71826862Y-81357204D01*
X71946755Y-81080087D01*
X71971036Y-80974740D01*
X71850378Y-80737000D01*
X70207000Y-80737000D01*
X70207000Y-80757000D01*
X69953000Y-80757000D01*
X69953000Y-80737000D01*
X69933000Y-80737000D01*
X69933000Y-80483000D01*
X69953000Y-80483000D01*
X69953000Y-80463000D01*
X70207000Y-80463000D01*
X70207000Y-80483000D01*
X71850378Y-80483000D01*
X71971036Y-80245260D01*
X71946755Y-80139913D01*
X71826862Y-79862796D01*
X71655210Y-79614394D01*
X71438396Y-79404252D01*
X71427465Y-79397193D01*
X71636029Y-79226029D01*
X71839346Y-78978286D01*
X71990425Y-78695638D01*
X72083458Y-78388948D01*
X72114872Y-78070000D01*
X72083458Y-77751052D01*
X71990425Y-77444362D01*
X71839346Y-77161714D01*
X71636029Y-76913971D01*
X71497155Y-76800000D01*
X71636029Y-76686029D01*
X71839346Y-76438286D01*
X71990425Y-76155638D01*
X72083458Y-75848948D01*
X72114872Y-75530000D01*
X72083458Y-75211052D01*
X71990425Y-74904362D01*
X71839346Y-74621714D01*
X71636029Y-74373971D01*
X71497155Y-74260000D01*
X71636029Y-74146029D01*
X71839346Y-73898286D01*
X71990425Y-73615638D01*
X72083458Y-73308948D01*
X72114872Y-72990000D01*
X72083458Y-72671052D01*
X71990425Y-72364362D01*
X71839346Y-72081714D01*
X71636029Y-71833971D01*
X71497155Y-71720000D01*
X71636029Y-71606029D01*
X71839346Y-71358286D01*
X71990425Y-71075638D01*
X72083458Y-70768948D01*
X72114872Y-70450000D01*
X72083458Y-70131052D01*
X71990425Y-69824362D01*
X71839346Y-69541714D01*
X71636029Y-69293971D01*
X71497155Y-69180000D01*
X71636029Y-69066029D01*
X71839346Y-68818286D01*
X71990425Y-68535638D01*
X72083458Y-68228948D01*
X72114872Y-67910000D01*
X72083458Y-67591052D01*
X71990425Y-67284362D01*
X71839346Y-67001714D01*
X71636029Y-66753971D01*
X71497155Y-66640000D01*
X71636029Y-66526029D01*
X71839346Y-66278286D01*
X71990425Y-65995638D01*
X72083458Y-65688948D01*
X72114872Y-65370000D01*
X72083458Y-65051052D01*
X71990425Y-64744362D01*
X71839346Y-64461714D01*
X71636029Y-64213971D01*
X71497155Y-64100000D01*
X71636029Y-63986029D01*
X71839346Y-63738286D01*
X71990425Y-63455638D01*
X72083458Y-63148948D01*
X72114872Y-62830000D01*
X72083458Y-62511052D01*
X71990425Y-62204362D01*
X71839346Y-61921714D01*
X71636029Y-61673971D01*
X71497155Y-61560000D01*
X71636029Y-61446029D01*
X71839346Y-61198286D01*
X71990425Y-60915638D01*
X72083458Y-60608948D01*
X72114872Y-60290000D01*
X72083458Y-59971052D01*
X71990425Y-59664362D01*
X71839346Y-59381714D01*
X71636029Y-59133971D01*
X71497155Y-59020000D01*
X71636029Y-58906029D01*
X71839346Y-58658286D01*
X71990425Y-58375638D01*
X72083458Y-58068948D01*
X72114872Y-57750000D01*
X72083458Y-57431052D01*
X71990425Y-57124362D01*
X71839346Y-56841714D01*
X71636029Y-56593971D01*
X71497155Y-56480000D01*
X71636029Y-56366029D01*
X71839346Y-56118286D01*
X71990425Y-55835638D01*
X72083458Y-55528948D01*
X72114872Y-55210000D01*
X72083458Y-54891052D01*
X71990425Y-54584362D01*
X71839346Y-54301714D01*
X71636029Y-54053971D01*
X71427465Y-53882807D01*
X71438396Y-53875748D01*
X71655210Y-53665606D01*
X71826862Y-53417204D01*
X71933199Y-53171420D01*
X72153020Y-53391241D01*
%TA.AperFunction,Conductor*%
D31*
G36*
X72153020Y-53391241D02*
G01*
X72153021Y-84181739D01*
X71871760Y-84463000D01*
X71549550Y-84463000D01*
X71497155Y-84420000D01*
X71636029Y-84306029D01*
X71839346Y-84058286D01*
X71990425Y-83775638D01*
X72083458Y-83468948D01*
X72114872Y-83150000D01*
X72083458Y-82831052D01*
X71990425Y-82524362D01*
X71839346Y-82241714D01*
X71636029Y-81993971D01*
X71427465Y-81822807D01*
X71438396Y-81815748D01*
X71655210Y-81605606D01*
X71826862Y-81357204D01*
X71946755Y-81080087D01*
X71971036Y-80974740D01*
X71850378Y-80737000D01*
X70207000Y-80737000D01*
X70207000Y-80757000D01*
X69953000Y-80757000D01*
X69953000Y-80737000D01*
X69933000Y-80737000D01*
X69933000Y-80483000D01*
X69953000Y-80483000D01*
X69953000Y-80463000D01*
X70207000Y-80463000D01*
X70207000Y-80483000D01*
X71850378Y-80483000D01*
X71971036Y-80245260D01*
X71946755Y-80139913D01*
X71826862Y-79862796D01*
X71655210Y-79614394D01*
X71438396Y-79404252D01*
X71427465Y-79397193D01*
X71636029Y-79226029D01*
X71839346Y-78978286D01*
X71990425Y-78695638D01*
X72083458Y-78388948D01*
X72114872Y-78070000D01*
X72083458Y-77751052D01*
X71990425Y-77444362D01*
X71839346Y-77161714D01*
X71636029Y-76913971D01*
X71497155Y-76800000D01*
X71636029Y-76686029D01*
X71839346Y-76438286D01*
X71990425Y-76155638D01*
X72083458Y-75848948D01*
X72114872Y-75530000D01*
X72083458Y-75211052D01*
X71990425Y-74904362D01*
X71839346Y-74621714D01*
X71636029Y-74373971D01*
X71497155Y-74260000D01*
X71636029Y-74146029D01*
X71839346Y-73898286D01*
X71990425Y-73615638D01*
X72083458Y-73308948D01*
X72114872Y-72990000D01*
X72083458Y-72671052D01*
X71990425Y-72364362D01*
X71839346Y-72081714D01*
X71636029Y-71833971D01*
X71497155Y-71720000D01*
X71636029Y-71606029D01*
X71839346Y-71358286D01*
X71990425Y-71075638D01*
X72083458Y-70768948D01*
X72114872Y-70450000D01*
X72083458Y-70131052D01*
X71990425Y-69824362D01*
X71839346Y-69541714D01*
X71636029Y-69293971D01*
X71497155Y-69180000D01*
X71636029Y-69066029D01*
X71839346Y-68818286D01*
X71990425Y-68535638D01*
X72083458Y-68228948D01*
X72114872Y-67910000D01*
X72083458Y-67591052D01*
X71990425Y-67284362D01*
X71839346Y-67001714D01*
X71636029Y-66753971D01*
X71497155Y-66640000D01*
X71636029Y-66526029D01*
X71839346Y-66278286D01*
X71990425Y-65995638D01*
X72083458Y-65688948D01*
X72114872Y-65370000D01*
X72083458Y-65051052D01*
X71990425Y-64744362D01*
X71839346Y-64461714D01*
X71636029Y-64213971D01*
X71497155Y-64100000D01*
X71636029Y-63986029D01*
X71839346Y-63738286D01*
X71990425Y-63455638D01*
X72083458Y-63148948D01*
X72114872Y-62830000D01*
X72083458Y-62511052D01*
X71990425Y-62204362D01*
X71839346Y-61921714D01*
X71636029Y-61673971D01*
X71497155Y-61560000D01*
X71636029Y-61446029D01*
X71839346Y-61198286D01*
X71990425Y-60915638D01*
X72083458Y-60608948D01*
X72114872Y-60290000D01*
X72083458Y-59971052D01*
X71990425Y-59664362D01*
X71839346Y-59381714D01*
X71636029Y-59133971D01*
X71497155Y-59020000D01*
X71636029Y-58906029D01*
X71839346Y-58658286D01*
X71990425Y-58375638D01*
X72083458Y-58068948D01*
X72114872Y-57750000D01*
X72083458Y-57431052D01*
X71990425Y-57124362D01*
X71839346Y-56841714D01*
X71636029Y-56593971D01*
X71497155Y-56480000D01*
X71636029Y-56366029D01*
X71839346Y-56118286D01*
X71990425Y-55835638D01*
X72083458Y-55528948D01*
X72114872Y-55210000D01*
X72083458Y-54891052D01*
X71990425Y-54584362D01*
X71839346Y-54301714D01*
X71636029Y-54053971D01*
X71427465Y-53882807D01*
X71438396Y-53875748D01*
X71655210Y-53665606D01*
X71826862Y-53417204D01*
X71933199Y-53171420D01*
X72153020Y-53391241D01*
G37*
%TD.AperFunction*%
D30*
X54693901Y-70188406D02*
X54906594Y-70401099D01*
X55156694Y-70568210D01*
X55434590Y-70683319D01*
X55729604Y-70742000D01*
X56030396Y-70742000D01*
X56325410Y-70683319D01*
X56603306Y-70568210D01*
X56792193Y-70442000D01*
X57331761Y-70442000D01*
X62454760Y-75565000D01*
X61681760Y-76338001D01*
X61132158Y-76338001D01*
X61230704Y-76135429D01*
X61312384Y-75823892D01*
X61331718Y-75502405D01*
X61287961Y-75183325D01*
X61182795Y-74878912D01*
X61089814Y-74704956D01*
X60825413Y-74609192D01*
X59869605Y-75565000D01*
X59883748Y-75579143D01*
X59704143Y-75758748D01*
X59690000Y-75744605D01*
X59675858Y-75758748D01*
X59496253Y-75579143D01*
X59510395Y-75565000D01*
X58554587Y-74609192D01*
X58290186Y-74704956D01*
X58149296Y-74994571D01*
X58067616Y-75306108D01*
X58048282Y-75627595D01*
X58092039Y-75946675D01*
X58197205Y-76251088D01*
X58243661Y-76338001D01*
X57377158Y-76338001D01*
X57475704Y-76135429D01*
X57557384Y-75823892D01*
X57576718Y-75502405D01*
X57532961Y-75183325D01*
X57427795Y-74878912D01*
X57334814Y-74704956D01*
X57070413Y-74609192D01*
X56114605Y-75565000D01*
X56128748Y-75579143D01*
X55949143Y-75758748D01*
X55935000Y-75744605D01*
X55920858Y-75758748D01*
X55741253Y-75579143D01*
X55755395Y-75565000D01*
X54799587Y-74609192D01*
X54535186Y-74704956D01*
X54394296Y-74994571D01*
X54312616Y-75306108D01*
X54293282Y-75627595D01*
X54337039Y-75946675D01*
X54442205Y-76251088D01*
X54488661Y-76338001D01*
X52984103Y-76338001D01*
X53095632Y-76068747D01*
X53162000Y-75735095D01*
X53162000Y-75394905D01*
X53095632Y-75061253D01*
X52965447Y-74746959D01*
X52776448Y-74464102D01*
X52741933Y-74429587D01*
X54979192Y-74429587D01*
X55935000Y-75385395D01*
X56890808Y-74429587D01*
X58734192Y-74429587D01*
X59690000Y-75385395D01*
X60645808Y-74429587D01*
X60550044Y-74165186D01*
X60260429Y-74024296D01*
X59948892Y-73942616D01*
X59627405Y-73923282D01*
X59308325Y-73967039D01*
X59003912Y-74072205D01*
X58829956Y-74165186D01*
X58734192Y-74429587D01*
X56890808Y-74429587D01*
X56795044Y-74165186D01*
X56505429Y-74024296D01*
X56193892Y-73942616D01*
X55872405Y-73923282D01*
X55553325Y-73967039D01*
X55248912Y-74072205D01*
X55074956Y-74165186D01*
X54979192Y-74429587D01*
X52741933Y-74429587D01*
X52662000Y-74349654D01*
X52662000Y-72759609D01*
X54165006Y-71256604D01*
X54211817Y-71218187D01*
X54365149Y-71031353D01*
X54479084Y-70818194D01*
X54489741Y-70783062D01*
X54549246Y-70586904D01*
X54565111Y-70425814D01*
X54567000Y-70406638D01*
X54567000Y-70406633D01*
X54572935Y-70346370D01*
X54567000Y-70286107D01*
X54567000Y-70127193D01*
X54610000Y-70062839D01*
X54693901Y-70188406D01*
%TA.AperFunction,Conductor*%
D31*
G36*
X54693901Y-70188406D02*
G01*
X54906594Y-70401099D01*
X55156694Y-70568210D01*
X55434590Y-70683319D01*
X55729604Y-70742000D01*
X56030396Y-70742000D01*
X56325410Y-70683319D01*
X56603306Y-70568210D01*
X56792193Y-70442000D01*
X57331761Y-70442000D01*
X62454760Y-75565000D01*
X61681760Y-76338001D01*
X61132158Y-76338001D01*
X61230704Y-76135429D01*
X61312384Y-75823892D01*
X61331718Y-75502405D01*
X61287961Y-75183325D01*
X61182795Y-74878912D01*
X61089814Y-74704956D01*
X60825413Y-74609192D01*
X59869605Y-75565000D01*
X59883748Y-75579143D01*
X59704143Y-75758748D01*
X59690000Y-75744605D01*
X59675858Y-75758748D01*
X59496253Y-75579143D01*
X59510395Y-75565000D01*
X58554587Y-74609192D01*
X58290186Y-74704956D01*
X58149296Y-74994571D01*
X58067616Y-75306108D01*
X58048282Y-75627595D01*
X58092039Y-75946675D01*
X58197205Y-76251088D01*
X58243661Y-76338001D01*
X57377158Y-76338001D01*
X57475704Y-76135429D01*
X57557384Y-75823892D01*
X57576718Y-75502405D01*
X57532961Y-75183325D01*
X57427795Y-74878912D01*
X57334814Y-74704956D01*
X57070413Y-74609192D01*
X56114605Y-75565000D01*
X56128748Y-75579143D01*
X55949143Y-75758748D01*
X55935000Y-75744605D01*
X55920858Y-75758748D01*
X55741253Y-75579143D01*
X55755395Y-75565000D01*
X54799587Y-74609192D01*
X54535186Y-74704956D01*
X54394296Y-74994571D01*
X54312616Y-75306108D01*
X54293282Y-75627595D01*
X54337039Y-75946675D01*
X54442205Y-76251088D01*
X54488661Y-76338001D01*
X52984103Y-76338001D01*
X53095632Y-76068747D01*
X53162000Y-75735095D01*
X53162000Y-75394905D01*
X53095632Y-75061253D01*
X52965447Y-74746959D01*
X52776448Y-74464102D01*
X52741933Y-74429587D01*
X54979192Y-74429587D01*
X55935000Y-75385395D01*
X56890808Y-74429587D01*
X58734192Y-74429587D01*
X59690000Y-75385395D01*
X60645808Y-74429587D01*
X60550044Y-74165186D01*
X60260429Y-74024296D01*
X59948892Y-73942616D01*
X59627405Y-73923282D01*
X59308325Y-73967039D01*
X59003912Y-74072205D01*
X58829956Y-74165186D01*
X58734192Y-74429587D01*
X56890808Y-74429587D01*
X56795044Y-74165186D01*
X56505429Y-74024296D01*
X56193892Y-73942616D01*
X55872405Y-73923282D01*
X55553325Y-73967039D01*
X55248912Y-74072205D01*
X55074956Y-74165186D01*
X54979192Y-74429587D01*
X52741933Y-74429587D01*
X52662000Y-74349654D01*
X52662000Y-72759609D01*
X54165006Y-71256604D01*
X54211817Y-71218187D01*
X54365149Y-71031353D01*
X54479084Y-70818194D01*
X54489741Y-70783062D01*
X54549246Y-70586904D01*
X54565111Y-70425814D01*
X54567000Y-70406638D01*
X54567000Y-70406633D01*
X54572935Y-70346370D01*
X54567000Y-70286107D01*
X54567000Y-70127193D01*
X54610000Y-70062839D01*
X54693901Y-70188406D01*
G37*
%TD.AperFunction*%
D30*
X18927000Y-69088000D02*
X18947000Y-69088000D01*
X18947000Y-69342000D01*
X18927000Y-69342000D01*
X18927000Y-69362000D01*
X18673000Y-69362000D01*
X18673000Y-69342000D01*
X18653000Y-69342000D01*
X18653000Y-69088000D01*
X18673000Y-69088000D01*
X18673000Y-69068000D01*
X18927000Y-69068000D01*
X18927000Y-69088000D01*
%TA.AperFunction,Conductor*%
D31*
G36*
X18927000Y-69088000D02*
G01*
X18947000Y-69088000D01*
X18947000Y-69342000D01*
X18927000Y-69342000D01*
X18927000Y-69362000D01*
X18673000Y-69362000D01*
X18673000Y-69342000D01*
X18653000Y-69342000D01*
X18653000Y-69088000D01*
X18673000Y-69088000D01*
X18673000Y-69068000D01*
X18927000Y-69068000D01*
X18927000Y-69088000D01*
G37*
%TD.AperFunction*%
%TD*%
M02*
