M48
; DRILL file {KiCad (5.1.9)-1} date 06/15/21 00:17:35
; FORMAT={2:4/ absolute / inch / suppress leading zeros}
; #@! TF.CreationDate,2021-06-15T00:17:35-03:00
; #@! TF.GenerationSoftware,Kicad,Pcbnew,(5.1.9)-1
FMAT,2
INCH,TZ
T1C0.0197
T2C0.0315
T3C0.0354
T4C0.0394
T5C0.0433
T6C0.0472
T7C0.0591
T8C0.1181
T9C0.1181
%
G90
G05
T1
X3750Y-28750
X4750Y-28750
T2
X5750Y-1500
X8750Y-1500
X10250Y-1500
X11234Y-1500
X11500Y-5016
X11500Y-6000
X17500Y-29250
X17500Y-32250
X17500Y-34000
X17500Y-37000
X19000Y-29250
X19000Y-32250
X19000Y-34000
X19000Y-37000
X25250Y-14000
X25250Y-15000
X25250Y-16000
X25250Y-18000
X25250Y-21000
T3
X3500Y-1500
X4500Y-1500
T4
X1250Y-29750
X2250Y-29750
X3250Y-29750
X4250Y-29750
X4402Y-27250
X5250Y-29750
X5402Y-27250
X6250Y-29750
X6402Y-27250
X7402Y-27250
X8000Y-8250
X8402Y-27250
X9000Y-8250
X9402Y-27250
X10000Y-8250
X10000Y-29750
X10402Y-27250
X11000Y-8250
X11000Y-29750
X11402Y-27250
X12000Y-8250
X12000Y-29750
X12402Y-27250
X13000Y-8250
X13000Y-29750
X13402Y-27250
X14000Y-8250
X14000Y-29750
X15000Y-8250
X15000Y-27250
X15000Y-29750
X16000Y-27250
X16000Y-29750
X17000Y-8250
X17000Y-27250
X18000Y-8250
X18000Y-27250
X19000Y-8250
X19000Y-27250
X20000Y-8250
X20000Y-27250
X21000Y-8250
X21000Y-27250
X22000Y-8250
X22000Y-27250
T5
X10059Y-3500
X10059Y-4500
X10059Y-5500
X20250Y-29750
X20250Y-32309
X20250Y-34000
X20250Y-36559
X22022Y-29750
X22022Y-32309
X22022Y-34000
X22022Y-36559
X23478Y-34000
X23478Y-36559
X23500Y-29750
X23500Y-32309
X25250Y-34000
X25250Y-36559
X25272Y-29750
X25272Y-32309
T6
X27591Y-20736
X27591Y-21736
X27591Y-22736
X27591Y-23736
X27591Y-24736
X27591Y-25736
X27591Y-26736
X27591Y-27736
X27591Y-28736
X27591Y-29736
X27591Y-30736
X27591Y-31736
X27591Y-32736
X27591Y-33736
X27591Y-34736
X27591Y-35736
T7
X27591Y-8374
X27591Y-37901
T8
X1250Y-1250
X1250Y-38000
X14500Y-3500
X20000Y-3500
X25500Y-3500
X31000Y-3500
X36500Y-3500
X38000Y-38000
T9
X3500Y-4500
T0
M30
