M48
INCH,TZ
T1C0.0236
T2C0.0315
T3C0.0354
T4C0.0394
T5C0.0433
T6C0.0598
T7C0.1181
%
G90
G05
T1
X32500Y-43500
X32500Y-45750
X33287Y-43500
X33287Y-45750
X37500Y-31000
X38287Y-31000
X41000Y-44713
X41000Y-45500
T2
X32500Y-48000
X34250Y-26673
X34250Y-37500
X34469Y-48000
X34500Y-43500
X34500Y-46500
X36000Y-38500
X36000Y-41500
X36000Y-42500
X36000Y-45500
X36500Y-46500
X36500Y-49500
X36750Y-32750
X37000Y-42500
X37000Y-45500
X37250Y-26500
X37250Y-29500
X38000Y-42500
X38000Y-45500
X38000Y-47531
X38000Y-49500
X38719Y-32750
X39000Y-42500
X39000Y-45500
X39250Y-35000
X39250Y-36500
X39250Y-38000
X39250Y-39500
X39250Y-41000
X40000Y-30750
X40000Y-33750
X40000Y-46500
X40000Y-49500
X40750Y-26500
X40750Y-29500
X41250Y-30750
X41250Y-33750
X42250Y-35000
X42250Y-36500
X42250Y-38000
X42250Y-39500
X42250Y-41000
X42500Y-31500
X42500Y-33469
X46000Y-26500
X46000Y-29500
X46000Y-46500
X46000Y-49500
X49000Y-26500
X49000Y-29500
X49000Y-46500
X49000Y-49500
X50000Y-37000
X50000Y-38969
X52000Y-26500
X52000Y-29500
X52000Y-46500
X52000Y-49500
X54250Y-32250
X54250Y-35250
X54250Y-40750
X54250Y-43750
X54750Y-26500
X54750Y-28469
X54750Y-47531
X54750Y-49500
X55000Y-38000
X56000Y-38000
X57000Y-38000
X62500Y-31531
X62500Y-33500
X62500Y-42500
X62500Y-44469
X63750Y-30750
X63750Y-33750
X63750Y-42250
X63750Y-45250
X64000Y-35500
X64000Y-36878
X64000Y-39000
X64000Y-40378
X65000Y-30750
X65000Y-33750
X65000Y-42250
X65000Y-45250
X66250Y-30750
X66250Y-33750
X66250Y-36500
X66250Y-39500
X66250Y-42250
X66250Y-45250
X66750Y-35000
X66750Y-41000
X69750Y-35000
X69750Y-41000
T3
X37250Y-34000
X37250Y-37000
X38000Y-38000
X38000Y-41000
X39000Y-26500
X39000Y-29500
X40500Y-43000
X43500Y-34500
X43500Y-37500
X43500Y-38500
X43500Y-41500
X43500Y-43000
X45500Y-31000
X45500Y-32500
X45500Y-43500
X45500Y-45000
X48500Y-31000
X48500Y-32500
X48500Y-35000
X48500Y-41000
X48500Y-43500
X48500Y-45000
X51500Y-35000
X51500Y-41000
X52750Y-32250
X52750Y-35250
X52750Y-36500
X52750Y-39500
X52750Y-40750
X52750Y-43750
X53500Y-28000
X53500Y-31000
X53500Y-45000
X53500Y-48000
X58750Y-36500
X58750Y-39500
X61750Y-36500
X61750Y-39500
T4
X43250Y-26563
X43250Y-30500
X43250Y-45563
X43250Y-49500
X48500Y-37000
X48500Y-38000
X48500Y-39000
X60750Y-42000
X60750Y-43000
X60750Y-44000
X61000Y-26500
X61000Y-30437
X61000Y-32000
X61000Y-33000
X61000Y-34000
X61000Y-45563
X61000Y-49500
X64500Y-27000
X64500Y-28969
X64500Y-47031
X64500Y-49000
T5
X45500Y-34750
X45500Y-35750
X45500Y-36750
X46250Y-39500
X46250Y-40500
X46250Y-41500
X49750Y-43000
X49750Y-44000
X49750Y-45000
X50500Y-31000
X50500Y-32000
X50500Y-33000
X56500Y-28000
X56500Y-48000
X57500Y-28000
X57500Y-48000
X58500Y-28000
X58500Y-48000
T6
X33500Y-39250
X33500Y-41250
X68500Y-29000
X68500Y-31000
X68500Y-33000
X68500Y-37000
X68500Y-39000
X68500Y-43000
X68500Y-45000
X68500Y-47000
T7
X32500Y-26665
X32500Y-49500
X69500Y-26665
X69500Y-49500
T0
M30
