%TF.GenerationSoftware,KiCad,Pcbnew,(5.1.9)-1*%
%TF.CreationDate,2021-06-08T11:17:56-03:00*%
%TF.ProjectId,amp1000,616d7031-3030-4302-9e6b-696361645f70,rev?*%
%TF.SameCoordinates,Original*%
%TF.FileFunction,Legend,Bot*%
%TF.FilePolarity,Positive*%
%FSLAX46Y46*%
G04 Gerber Fmt 4.6, Leading zero omitted, Abs format (unit mm)*
G04 Created by KiCad (PCBNEW (5.1.9)-1) date 2021-06-08 11:17:56*
%MOMM*%
%LPD*%
G01*
G04 APERTURE LIST*
%ADD10C,0.500000*%
G04 APERTURE END LIST*
D10*
X122530000Y-116507142D02*
X121530000Y-119507142D01*
X120530000Y-116507142D01*
X119530000Y-118364285D02*
X117244285Y-118364285D01*
X115958571Y-118650000D02*
X114530000Y-118650000D01*
X116244285Y-119507142D02*
X115244285Y-116507142D01*
X114244285Y-119507142D01*
X114958571Y-115364285D02*
X115387142Y-115792857D01*
X113244285Y-116507142D02*
X113244285Y-118935714D01*
X113101428Y-119221428D01*
X112958571Y-119364285D01*
X112672857Y-119507142D01*
X112101428Y-119507142D01*
X111815714Y-119364285D01*
X111672857Y-119221428D01*
X111530000Y-118935714D01*
X111530000Y-116507142D01*
X110101428Y-119507142D02*
X110101428Y-116507142D01*
X109387142Y-116507142D01*
X108958571Y-116650000D01*
X108672857Y-116935714D01*
X108530000Y-117221428D01*
X108387142Y-117792857D01*
X108387142Y-118221428D01*
X108530000Y-118792857D01*
X108672857Y-119078571D01*
X108958571Y-119364285D01*
X109387142Y-119507142D01*
X110101428Y-119507142D01*
X107101428Y-119507142D02*
X107101428Y-116507142D01*
X105101428Y-116507142D02*
X104530000Y-116507142D01*
X104244285Y-116650000D01*
X103958571Y-116935714D01*
X103815714Y-117507142D01*
X103815714Y-118507142D01*
X103958571Y-119078571D01*
X104244285Y-119364285D01*
X104530000Y-119507142D01*
X105101428Y-119507142D01*
X105387142Y-119364285D01*
X105672857Y-119078571D01*
X105815714Y-118507142D01*
X105815714Y-117507142D01*
X105672857Y-116935714D01*
X105387142Y-116650000D01*
X105101428Y-116507142D01*
X128101428Y-122935714D02*
X127101428Y-122935714D01*
X126672857Y-124507142D02*
X128101428Y-124507142D01*
X128101428Y-121507142D01*
X126672857Y-121507142D01*
X125672857Y-124507142D02*
X124101428Y-122507142D01*
X125672857Y-122507142D02*
X124101428Y-124507142D01*
X121672857Y-124364285D02*
X121958571Y-124507142D01*
X122530000Y-124507142D01*
X122815714Y-124364285D01*
X122958571Y-124221428D01*
X123101428Y-123935714D01*
X123101428Y-123078571D01*
X122958571Y-122792857D01*
X122815714Y-122650000D01*
X122530000Y-122507142D01*
X121958571Y-122507142D01*
X121672857Y-122650000D01*
X120387142Y-124507142D02*
X120387142Y-122507142D01*
X120387142Y-121507142D02*
X120530000Y-121650000D01*
X120387142Y-121792857D01*
X120244285Y-121650000D01*
X120387142Y-121507142D01*
X120387142Y-121792857D01*
X119387142Y-122507142D02*
X118244285Y-122507142D01*
X118958571Y-121507142D02*
X118958571Y-124078571D01*
X118815714Y-124364285D01*
X118530000Y-124507142D01*
X118244285Y-124507142D01*
X115958571Y-124507142D02*
X115958571Y-122935714D01*
X116101428Y-122650000D01*
X116387142Y-122507142D01*
X116958571Y-122507142D01*
X117244285Y-122650000D01*
X115958571Y-124364285D02*
X116244285Y-124507142D01*
X116958571Y-124507142D01*
X117244285Y-124364285D01*
X117387142Y-124078571D01*
X117387142Y-123792857D01*
X117244285Y-123507142D01*
X116958571Y-123364285D01*
X116244285Y-123364285D01*
X115958571Y-123221428D01*
X113244285Y-124507142D02*
X113244285Y-121507142D01*
X113244285Y-124364285D02*
X113530000Y-124507142D01*
X114101428Y-124507142D01*
X114387142Y-124364285D01*
X114530000Y-124221428D01*
X114672857Y-123935714D01*
X114672857Y-123078571D01*
X114530000Y-122792857D01*
X114387142Y-122650000D01*
X114101428Y-122507142D01*
X113530000Y-122507142D01*
X113244285Y-122650000D01*
X111387142Y-124507142D02*
X111672857Y-124364285D01*
X111815714Y-124221428D01*
X111958571Y-123935714D01*
X111958571Y-123078571D01*
X111815714Y-122792857D01*
X111672857Y-122650000D01*
X111387142Y-122507142D01*
X110958571Y-122507142D01*
X110672857Y-122650000D01*
X110530000Y-122792857D01*
X110387142Y-123078571D01*
X110387142Y-123935714D01*
X110530000Y-124221428D01*
X110672857Y-124364285D01*
X110958571Y-124507142D01*
X111387142Y-124507142D01*
X109101428Y-124507142D02*
X109101428Y-122507142D01*
X109101428Y-123078571D02*
X108958571Y-122792857D01*
X108815714Y-122650000D01*
X108530000Y-122507142D01*
X108244285Y-122507142D01*
X105958571Y-124507142D02*
X105958571Y-122935714D01*
X106101428Y-122650000D01*
X106387142Y-122507142D01*
X106958571Y-122507142D01*
X107244285Y-122650000D01*
X105958571Y-124364285D02*
X106244285Y-124507142D01*
X106958571Y-124507142D01*
X107244285Y-124364285D01*
X107387142Y-124078571D01*
X107387142Y-123792857D01*
X107244285Y-123507142D01*
X106958571Y-123364285D01*
X106244285Y-123364285D01*
X105958571Y-123221428D01*
X101672857Y-121507142D02*
X101387142Y-121507142D01*
X101101428Y-121650000D01*
X100958571Y-121792857D01*
X100815714Y-122078571D01*
X100672857Y-122650000D01*
X100672857Y-123364285D01*
X100815714Y-123935714D01*
X100958571Y-124221428D01*
X101101428Y-124364285D01*
X101387142Y-124507142D01*
X101672857Y-124507142D01*
X101958571Y-124364285D01*
X102101428Y-124221428D01*
X102244285Y-123935714D01*
X102387142Y-123364285D01*
X102387142Y-122650000D01*
X102244285Y-122078571D01*
X102101428Y-121792857D01*
X101958571Y-121650000D01*
X101672857Y-121507142D01*
X97815714Y-124507142D02*
X99530000Y-124507142D01*
X98672857Y-124507142D02*
X98672857Y-121507142D01*
X98958571Y-121935714D01*
X99244285Y-122221428D01*
X99530000Y-122364285D01*
M02*
