G04 EAGLE Gerber RS-274X export*
G75*
%MOMM*%
%FSLAX34Y34*%
%LPD*%
%INTop Copper*%
%IPPOS*%
%AMOC8*
5,1,8,0,0,1.08239X$1,22.5*%
G01*
%ADD10C,2.082800*%
%ADD11P,1.732040X8X292.500000*%
%ADD12P,1.732040X8X112.500000*%
%ADD13P,1.732040X8X202.500000*%
%ADD14P,1.732040X8X22.500000*%
%ADD15C,1.879600*%
%ADD16C,1.574800*%
%ADD17C,1.879600*%
%ADD18P,1.814519X8X292.500000*%
%ADD19P,1.704548X8X112.500000*%
%ADD20P,1.704548X8X22.500000*%
%ADD21P,1.704548X8X292.500000*%
%ADD22P,1.704548X8X202.500000*%
%ADD23P,1.814519X8X22.500000*%
%ADD24C,0.406400*%
%ADD25C,1.562000*%

G36*
X288147Y24650D02*
X288147Y24650D01*
X288219Y24652D01*
X288268Y24670D01*
X288319Y24679D01*
X288383Y24712D01*
X288450Y24737D01*
X288491Y24769D01*
X288537Y24794D01*
X288586Y24846D01*
X288642Y24890D01*
X288670Y24934D01*
X288706Y24972D01*
X288736Y25037D01*
X288775Y25097D01*
X288788Y25148D01*
X288810Y25195D01*
X288818Y25266D01*
X288835Y25336D01*
X288831Y25388D01*
X288837Y25439D01*
X288821Y25510D01*
X288816Y25581D01*
X288796Y25629D01*
X288784Y25680D01*
X288748Y25741D01*
X288720Y25807D01*
X288675Y25863D01*
X288658Y25891D01*
X288641Y25906D01*
X288615Y25938D01*
X276931Y37622D01*
X276857Y37675D01*
X276787Y37735D01*
X276757Y37747D01*
X276731Y37766D01*
X276644Y37793D01*
X276559Y37827D01*
X276518Y37831D01*
X276496Y37838D01*
X276464Y37837D01*
X276392Y37845D01*
X274034Y37845D01*
X266445Y45434D01*
X266445Y56166D01*
X274034Y63755D01*
X284766Y63755D01*
X292355Y56166D01*
X292355Y45434D01*
X291334Y44413D01*
X291322Y44397D01*
X291307Y44385D01*
X291251Y44298D01*
X291191Y44214D01*
X291185Y44195D01*
X291174Y44178D01*
X291149Y44077D01*
X291118Y43979D01*
X291119Y43959D01*
X291114Y43939D01*
X291122Y43836D01*
X291125Y43733D01*
X291131Y43714D01*
X291133Y43694D01*
X291173Y43599D01*
X291209Y43502D01*
X291222Y43486D01*
X291229Y43468D01*
X291334Y43337D01*
X309809Y24862D01*
X309883Y24809D01*
X309953Y24749D01*
X309983Y24737D01*
X310009Y24718D01*
X310096Y24691D01*
X310181Y24657D01*
X310222Y24653D01*
X310244Y24646D01*
X310276Y24647D01*
X310347Y24639D01*
X649773Y24639D01*
X649863Y24654D01*
X649954Y24661D01*
X649983Y24673D01*
X650015Y24679D01*
X650096Y24721D01*
X650180Y24757D01*
X650212Y24783D01*
X650233Y24794D01*
X650255Y24817D01*
X650311Y24862D01*
X701324Y75875D01*
X701368Y75936D01*
X701406Y75976D01*
X701412Y75990D01*
X701437Y76019D01*
X701449Y76049D01*
X701468Y76075D01*
X701495Y76162D01*
X701529Y76247D01*
X701533Y76288D01*
X701540Y76310D01*
X701539Y76342D01*
X701547Y76414D01*
X701547Y284774D01*
X701533Y284865D01*
X701525Y284955D01*
X701513Y284985D01*
X701508Y285017D01*
X701465Y285098D01*
X701429Y285182D01*
X701403Y285214D01*
X701392Y285235D01*
X701369Y285257D01*
X701324Y285313D01*
X684342Y302295D01*
X683259Y304909D01*
X683259Y307739D01*
X684342Y310353D01*
X687608Y313619D01*
X687661Y313693D01*
X687721Y313763D01*
X687733Y313793D01*
X687752Y313819D01*
X687779Y313906D01*
X687813Y313991D01*
X687817Y314032D01*
X687824Y314054D01*
X687823Y314086D01*
X687831Y314158D01*
X687831Y321350D01*
X687817Y321441D01*
X687809Y321531D01*
X687797Y321561D01*
X687792Y321593D01*
X687749Y321674D01*
X687713Y321758D01*
X687687Y321790D01*
X687676Y321811D01*
X687653Y321833D01*
X687608Y321889D01*
X606618Y402879D01*
X605535Y405493D01*
X605535Y407577D01*
X605534Y407585D01*
X605534Y407587D01*
X605532Y407599D01*
X605524Y407647D01*
X605522Y407719D01*
X605504Y407768D01*
X605496Y407819D01*
X605462Y407883D01*
X605437Y407950D01*
X605405Y407991D01*
X605380Y408037D01*
X605328Y408086D01*
X605284Y408142D01*
X605240Y408170D01*
X605202Y408206D01*
X605137Y408236D01*
X605077Y408275D01*
X605026Y408288D01*
X604979Y408310D01*
X604908Y408318D01*
X604838Y408335D01*
X604786Y408331D01*
X604735Y408337D01*
X604664Y408322D01*
X604593Y408316D01*
X604545Y408296D01*
X604494Y408285D01*
X604433Y408248D01*
X604367Y408220D01*
X604311Y408175D01*
X604283Y408159D01*
X604268Y408141D01*
X604236Y408115D01*
X602266Y406145D01*
X591534Y406145D01*
X589056Y408623D01*
X588998Y408665D01*
X588946Y408714D01*
X588899Y408736D01*
X588857Y408767D01*
X588788Y408788D01*
X588723Y408818D01*
X588671Y408824D01*
X588621Y408839D01*
X588550Y408837D01*
X588479Y408845D01*
X588428Y408834D01*
X588376Y408833D01*
X588308Y408808D01*
X588238Y408793D01*
X588193Y408766D01*
X588145Y408748D01*
X588089Y408703D01*
X588027Y408667D01*
X587993Y408627D01*
X587953Y408594D01*
X587914Y408534D01*
X587867Y408480D01*
X587848Y408431D01*
X587820Y408387D01*
X587802Y408318D01*
X587775Y408251D01*
X587767Y408180D01*
X587759Y408149D01*
X587761Y408126D01*
X587757Y408085D01*
X587757Y405598D01*
X587771Y405507D01*
X587779Y405417D01*
X587791Y405387D01*
X587796Y405355D01*
X587839Y405274D01*
X587875Y405190D01*
X587901Y405158D01*
X587912Y405137D01*
X587935Y405115D01*
X587980Y405059D01*
X659826Y333213D01*
X660909Y330599D01*
X660909Y304909D01*
X659826Y302295D01*
X659821Y302290D01*
X659810Y302274D01*
X659794Y302262D01*
X659738Y302174D01*
X659678Y302091D01*
X659672Y302071D01*
X659661Y302055D01*
X659636Y301954D01*
X659605Y301855D01*
X659606Y301835D01*
X659601Y301816D01*
X659609Y301713D01*
X659612Y301610D01*
X659619Y301591D01*
X659620Y301571D01*
X659661Y301476D01*
X659696Y301379D01*
X659709Y301363D01*
X659716Y301345D01*
X659790Y301252D01*
X659796Y301243D01*
X659802Y301238D01*
X659821Y301214D01*
X659826Y301209D01*
X660580Y299389D01*
X660604Y299350D01*
X660620Y299307D01*
X660668Y299246D01*
X660709Y299180D01*
X660745Y299151D01*
X660773Y299115D01*
X660839Y299073D01*
X660899Y299023D01*
X660942Y299007D01*
X660980Y298982D01*
X661056Y298963D01*
X661128Y298935D01*
X661174Y298933D01*
X661219Y298922D01*
X661296Y298928D01*
X661374Y298925D01*
X661418Y298937D01*
X661464Y298941D01*
X661536Y298971D01*
X661610Y298993D01*
X661648Y299019D01*
X661690Y299037D01*
X661797Y299123D01*
X661812Y299133D01*
X661815Y299137D01*
X661821Y299142D01*
X667734Y305055D01*
X678466Y305055D01*
X686055Y297466D01*
X686055Y286734D01*
X678466Y279145D01*
X667734Y279145D01*
X662208Y284671D01*
X662150Y284713D01*
X662098Y284762D01*
X662051Y284784D01*
X662009Y284815D01*
X661940Y284836D01*
X661875Y284866D01*
X661823Y284872D01*
X661773Y284887D01*
X661702Y284885D01*
X661631Y284893D01*
X661580Y284882D01*
X661528Y284881D01*
X661460Y284856D01*
X661390Y284841D01*
X661345Y284814D01*
X661297Y284796D01*
X661241Y284751D01*
X661179Y284715D01*
X661145Y284675D01*
X661105Y284642D01*
X661066Y284582D01*
X661019Y284528D01*
X661000Y284479D01*
X660972Y284435D01*
X660954Y284366D01*
X660927Y284299D01*
X660919Y284228D01*
X660911Y284197D01*
X660913Y284174D01*
X660909Y284133D01*
X660909Y209002D01*
X660923Y208911D01*
X660931Y208821D01*
X660943Y208791D01*
X660948Y208759D01*
X660991Y208678D01*
X661027Y208594D01*
X661053Y208562D01*
X661064Y208541D01*
X661087Y208519D01*
X661132Y208463D01*
X664398Y205197D01*
X665449Y202659D01*
X665473Y202620D01*
X665489Y202576D01*
X665538Y202516D01*
X665579Y202450D01*
X665614Y202420D01*
X665643Y202384D01*
X665708Y202342D01*
X665768Y202293D01*
X665811Y202276D01*
X665850Y202251D01*
X665925Y202232D01*
X665998Y202205D01*
X666044Y202203D01*
X666088Y202191D01*
X666166Y202197D01*
X666244Y202194D01*
X666288Y202207D01*
X666334Y202211D01*
X666405Y202241D01*
X666480Y202263D01*
X666518Y202289D01*
X666560Y202307D01*
X666667Y202392D01*
X666682Y202403D01*
X666685Y202407D01*
X666691Y202412D01*
X667734Y203455D01*
X678466Y203455D01*
X686055Y195866D01*
X686055Y185134D01*
X678466Y177545D01*
X667734Y177545D01*
X662208Y183071D01*
X662150Y183113D01*
X662098Y183162D01*
X662051Y183184D01*
X662009Y183215D01*
X661940Y183236D01*
X661875Y183266D01*
X661823Y183272D01*
X661773Y183287D01*
X661702Y183285D01*
X661631Y183293D01*
X661580Y183282D01*
X661528Y183281D01*
X661460Y183256D01*
X661390Y183241D01*
X661345Y183214D01*
X661297Y183196D01*
X661241Y183151D01*
X661179Y183115D01*
X661145Y183075D01*
X661105Y183042D01*
X661066Y182982D01*
X661019Y182928D01*
X661000Y182879D01*
X660972Y182835D01*
X660954Y182766D01*
X660927Y182699D01*
X660919Y182628D01*
X660911Y182597D01*
X660913Y182574D01*
X660909Y182533D01*
X660909Y181570D01*
X660923Y181479D01*
X660931Y181389D01*
X660943Y181359D01*
X660948Y181327D01*
X660991Y181246D01*
X661027Y181162D01*
X661053Y181130D01*
X661064Y181109D01*
X661087Y181087D01*
X661132Y181031D01*
X668970Y173193D01*
X670053Y170579D01*
X670053Y140317D01*
X668970Y137703D01*
X666862Y135595D01*
X661005Y129738D01*
X660952Y129664D01*
X660892Y129594D01*
X660880Y129564D01*
X660861Y129538D01*
X660834Y129451D01*
X660800Y129366D01*
X660796Y129325D01*
X660789Y129303D01*
X660790Y129271D01*
X660782Y129200D01*
X660782Y121581D01*
X653119Y113918D01*
X642281Y113918D01*
X634618Y121581D01*
X634618Y132419D01*
X641361Y139162D01*
X641373Y139178D01*
X641389Y139190D01*
X641445Y139278D01*
X641505Y139361D01*
X641511Y139380D01*
X641522Y139397D01*
X641547Y139498D01*
X641577Y139597D01*
X641577Y139616D01*
X641582Y139636D01*
X641574Y139739D01*
X641571Y139842D01*
X641564Y139861D01*
X641562Y139881D01*
X641522Y139976D01*
X641486Y140073D01*
X641474Y140089D01*
X641466Y140107D01*
X641361Y140238D01*
X634618Y146981D01*
X634618Y147574D01*
X634615Y147594D01*
X634617Y147613D01*
X634595Y147715D01*
X634579Y147817D01*
X634569Y147834D01*
X634565Y147854D01*
X634512Y147943D01*
X634463Y148034D01*
X634449Y148048D01*
X634439Y148065D01*
X634360Y148132D01*
X634285Y148204D01*
X634267Y148212D01*
X634252Y148225D01*
X634156Y148264D01*
X634062Y148307D01*
X634042Y148309D01*
X634024Y148317D01*
X633857Y148335D01*
X623443Y148335D01*
X623423Y148332D01*
X623404Y148334D01*
X623302Y148312D01*
X623200Y148296D01*
X623183Y148286D01*
X623163Y148282D01*
X623074Y148229D01*
X622983Y148180D01*
X622969Y148166D01*
X622952Y148156D01*
X622885Y148077D01*
X622813Y148002D01*
X622805Y147984D01*
X622792Y147969D01*
X622753Y147873D01*
X622710Y147779D01*
X622708Y147759D01*
X622700Y147741D01*
X622682Y147574D01*
X622682Y146981D01*
X615939Y140238D01*
X615927Y140222D01*
X615911Y140210D01*
X615855Y140122D01*
X615795Y140039D01*
X615789Y140020D01*
X615778Y140003D01*
X615753Y139902D01*
X615723Y139803D01*
X615723Y139784D01*
X615718Y139764D01*
X615726Y139661D01*
X615729Y139558D01*
X615736Y139539D01*
X615738Y139519D01*
X615778Y139424D01*
X615814Y139327D01*
X615826Y139311D01*
X615834Y139293D01*
X615939Y139162D01*
X622682Y132419D01*
X622682Y121581D01*
X615019Y113918D01*
X604181Y113918D01*
X596518Y121581D01*
X596518Y132419D01*
X603261Y139162D01*
X603273Y139178D01*
X603289Y139190D01*
X603345Y139278D01*
X603405Y139361D01*
X603411Y139380D01*
X603422Y139397D01*
X603447Y139498D01*
X603477Y139597D01*
X603477Y139616D01*
X603482Y139636D01*
X603474Y139739D01*
X603471Y139842D01*
X603464Y139861D01*
X603462Y139881D01*
X603422Y139976D01*
X603386Y140073D01*
X603374Y140089D01*
X603366Y140107D01*
X603261Y140238D01*
X596518Y146981D01*
X596518Y157819D01*
X604181Y165482D01*
X615019Y165482D01*
X617717Y162784D01*
X617791Y162731D01*
X617860Y162671D01*
X617890Y162659D01*
X617916Y162640D01*
X618003Y162613D01*
X618088Y162579D01*
X618129Y162575D01*
X618151Y162568D01*
X618184Y162569D01*
X618255Y162561D01*
X639045Y162561D01*
X639135Y162575D01*
X639226Y162583D01*
X639256Y162595D01*
X639288Y162600D01*
X639368Y162643D01*
X639452Y162679D01*
X639485Y162705D01*
X639505Y162716D01*
X639527Y162739D01*
X639583Y162784D01*
X642281Y165482D01*
X653119Y165482D01*
X654528Y164073D01*
X654586Y164031D01*
X654638Y163981D01*
X654685Y163959D01*
X654727Y163929D01*
X654796Y163908D01*
X654861Y163878D01*
X654913Y163872D01*
X654963Y163857D01*
X655034Y163859D01*
X655105Y163851D01*
X655156Y163862D01*
X655208Y163863D01*
X655276Y163888D01*
X655346Y163903D01*
X655391Y163930D01*
X655439Y163948D01*
X655495Y163992D01*
X655557Y164029D01*
X655591Y164069D01*
X655631Y164101D01*
X655670Y164162D01*
X655717Y164216D01*
X655736Y164264D01*
X655764Y164308D01*
X655782Y164378D01*
X655809Y164444D01*
X655817Y164516D01*
X655825Y164547D01*
X655823Y164570D01*
X655827Y164611D01*
X655827Y165902D01*
X655813Y165993D01*
X655805Y166083D01*
X655793Y166113D01*
X655788Y166145D01*
X655745Y166226D01*
X655709Y166310D01*
X655683Y166342D01*
X655672Y166363D01*
X655649Y166385D01*
X655604Y166441D01*
X647766Y174279D01*
X646683Y176893D01*
X646683Y185617D01*
X646672Y185688D01*
X646670Y185759D01*
X646652Y185808D01*
X646644Y185860D01*
X646610Y185923D01*
X646585Y185990D01*
X646553Y186031D01*
X646528Y186077D01*
X646476Y186126D01*
X646432Y186182D01*
X646388Y186210D01*
X646350Y186246D01*
X646285Y186277D01*
X646225Y186315D01*
X646174Y186328D01*
X646127Y186350D01*
X646056Y186358D01*
X645986Y186375D01*
X645934Y186371D01*
X645883Y186377D01*
X645812Y186362D01*
X645741Y186356D01*
X645693Y186336D01*
X645642Y186325D01*
X645581Y186288D01*
X645515Y186260D01*
X645459Y186215D01*
X645431Y186199D01*
X645416Y186181D01*
X645384Y186155D01*
X639314Y180085D01*
X636523Y180085D01*
X636523Y189738D01*
X636520Y189758D01*
X636522Y189777D01*
X636500Y189879D01*
X636483Y189981D01*
X636474Y189998D01*
X636470Y190018D01*
X636417Y190107D01*
X636368Y190198D01*
X636354Y190212D01*
X636344Y190229D01*
X636265Y190296D01*
X636190Y190367D01*
X636172Y190376D01*
X636157Y190389D01*
X636061Y190427D01*
X635967Y190471D01*
X635947Y190473D01*
X635929Y190481D01*
X635762Y190499D01*
X634999Y190499D01*
X634999Y190501D01*
X635762Y190501D01*
X635782Y190504D01*
X635801Y190502D01*
X635903Y190524D01*
X636005Y190541D01*
X636022Y190550D01*
X636042Y190554D01*
X636131Y190607D01*
X636222Y190656D01*
X636236Y190670D01*
X636253Y190680D01*
X636320Y190759D01*
X636391Y190834D01*
X636400Y190852D01*
X636413Y190867D01*
X636452Y190963D01*
X636495Y191057D01*
X636497Y191077D01*
X636505Y191095D01*
X636523Y191262D01*
X636523Y200915D01*
X639314Y200915D01*
X645415Y194814D01*
X645415Y194203D01*
X645430Y194107D01*
X645440Y194010D01*
X645450Y193986D01*
X645454Y193961D01*
X645500Y193875D01*
X645540Y193786D01*
X645557Y193766D01*
X645570Y193743D01*
X645640Y193676D01*
X645706Y193604D01*
X645729Y193592D01*
X645748Y193574D01*
X645836Y193533D01*
X645922Y193486D01*
X645947Y193481D01*
X645971Y193470D01*
X646068Y193459D01*
X646164Y193442D01*
X646190Y193446D01*
X646215Y193443D01*
X646311Y193464D01*
X646407Y193478D01*
X646430Y193490D01*
X646456Y193495D01*
X646539Y193545D01*
X646626Y193589D01*
X646645Y193608D01*
X646667Y193622D01*
X646730Y193695D01*
X646798Y193765D01*
X646814Y193794D01*
X646827Y193808D01*
X646839Y193839D01*
X646879Y193912D01*
X647766Y196053D01*
X650057Y198344D01*
X650068Y198360D01*
X650084Y198372D01*
X650140Y198460D01*
X650200Y198543D01*
X650206Y198562D01*
X650217Y198579D01*
X650242Y198680D01*
X650273Y198779D01*
X650272Y198798D01*
X650277Y198818D01*
X650269Y198921D01*
X650266Y199024D01*
X650259Y199043D01*
X650258Y199063D01*
X650218Y199158D01*
X650182Y199255D01*
X650169Y199271D01*
X650162Y199289D01*
X650057Y199420D01*
X647766Y201711D01*
X646683Y204325D01*
X646683Y283625D01*
X646672Y283695D01*
X646670Y283767D01*
X646652Y283816D01*
X646644Y283867D01*
X646610Y283931D01*
X646585Y283998D01*
X646553Y284039D01*
X646528Y284085D01*
X646476Y284134D01*
X646432Y284190D01*
X646388Y284218D01*
X646350Y284254D01*
X646285Y284284D01*
X646225Y284323D01*
X646174Y284336D01*
X646127Y284358D01*
X646056Y284366D01*
X645986Y284383D01*
X645934Y284379D01*
X645883Y284385D01*
X645812Y284370D01*
X645741Y284364D01*
X645693Y284344D01*
X645642Y284333D01*
X645581Y284296D01*
X645515Y284268D01*
X645459Y284223D01*
X645431Y284207D01*
X645416Y284189D01*
X645384Y284163D01*
X640366Y279145D01*
X629634Y279145D01*
X622045Y286734D01*
X622045Y291124D01*
X622031Y291215D01*
X622023Y291305D01*
X622011Y291335D01*
X622006Y291367D01*
X621963Y291448D01*
X621927Y291532D01*
X621901Y291564D01*
X621890Y291585D01*
X621867Y291607D01*
X621822Y291663D01*
X606618Y306867D01*
X606459Y307250D01*
X606435Y307289D01*
X606419Y307332D01*
X606371Y307393D01*
X606330Y307459D01*
X606294Y307488D01*
X606266Y307524D01*
X606200Y307566D01*
X606140Y307616D01*
X606097Y307632D01*
X606059Y307657D01*
X605983Y307676D01*
X605911Y307704D01*
X605865Y307706D01*
X605820Y307717D01*
X605743Y307711D01*
X605665Y307715D01*
X605621Y307702D01*
X605575Y307698D01*
X605504Y307668D01*
X605429Y307646D01*
X605391Y307620D01*
X605349Y307602D01*
X605242Y307517D01*
X605227Y307506D01*
X605224Y307502D01*
X605218Y307497D01*
X603059Y305338D01*
X603047Y305322D01*
X603032Y305310D01*
X602976Y305223D01*
X602915Y305139D01*
X602910Y305119D01*
X602899Y305103D01*
X602874Y305002D01*
X602843Y304903D01*
X602844Y304884D01*
X602839Y304864D01*
X602847Y304761D01*
X602849Y304658D01*
X602856Y304639D01*
X602858Y304619D01*
X602898Y304524D01*
X602934Y304427D01*
X602946Y304411D01*
X602954Y304393D01*
X603033Y304294D01*
X603037Y304288D01*
X603041Y304284D01*
X603059Y304262D01*
X609855Y297466D01*
X609855Y286734D01*
X602266Y279145D01*
X591534Y279145D01*
X583945Y286734D01*
X583945Y297466D01*
X590741Y304262D01*
X590753Y304278D01*
X590768Y304290D01*
X590799Y304338D01*
X590811Y304351D01*
X590821Y304373D01*
X590824Y304378D01*
X590885Y304461D01*
X590890Y304480D01*
X590901Y304497D01*
X590926Y304598D01*
X590957Y304697D01*
X590956Y304716D01*
X590961Y304736D01*
X590953Y304839D01*
X590951Y304942D01*
X590944Y304961D01*
X590942Y304981D01*
X590902Y305076D01*
X590866Y305173D01*
X590854Y305189D01*
X590846Y305207D01*
X590741Y305338D01*
X587947Y308132D01*
X587873Y308185D01*
X587804Y308245D01*
X587773Y308257D01*
X587747Y308276D01*
X587660Y308303D01*
X587575Y308337D01*
X587534Y308341D01*
X587512Y308348D01*
X587480Y308347D01*
X587409Y308355D01*
X568291Y308355D01*
X568201Y308341D01*
X568110Y308333D01*
X568081Y308321D01*
X568049Y308316D01*
X567968Y308273D01*
X567884Y308237D01*
X567852Y308211D01*
X567831Y308200D01*
X567809Y308177D01*
X567753Y308132D01*
X564959Y305338D01*
X564947Y305322D01*
X564932Y305310D01*
X564876Y305223D01*
X564815Y305139D01*
X564810Y305119D01*
X564799Y305103D01*
X564774Y305002D01*
X564743Y304903D01*
X564744Y304884D01*
X564739Y304864D01*
X564747Y304761D01*
X564749Y304658D01*
X564756Y304639D01*
X564758Y304619D01*
X564798Y304524D01*
X564834Y304427D01*
X564846Y304411D01*
X564854Y304393D01*
X564933Y304294D01*
X564937Y304288D01*
X564941Y304284D01*
X564959Y304262D01*
X571755Y297466D01*
X571755Y286734D01*
X564166Y279145D01*
X559268Y279145D01*
X559177Y279131D01*
X559087Y279123D01*
X559057Y279111D01*
X559025Y279106D01*
X558944Y279063D01*
X558860Y279027D01*
X558828Y279001D01*
X558807Y278990D01*
X558785Y278967D01*
X558729Y278922D01*
X551404Y271597D01*
X551351Y271523D01*
X551291Y271453D01*
X551279Y271423D01*
X551260Y271397D01*
X551233Y271310D01*
X551199Y271225D01*
X551195Y271184D01*
X551188Y271162D01*
X551189Y271130D01*
X551181Y271058D01*
X551181Y259189D01*
X550098Y256575D01*
X545521Y251998D01*
X545510Y251982D01*
X545494Y251970D01*
X545463Y251921D01*
X545461Y251919D01*
X545460Y251917D01*
X545438Y251882D01*
X545378Y251799D01*
X545372Y251779D01*
X545361Y251763D01*
X545336Y251662D01*
X545305Y251563D01*
X545306Y251543D01*
X545301Y251524D01*
X545309Y251421D01*
X545312Y251318D01*
X545319Y251299D01*
X545320Y251279D01*
X545361Y251184D01*
X545396Y251087D01*
X545409Y251071D01*
X545416Y251053D01*
X545521Y250922D01*
X545526Y250917D01*
X546609Y248303D01*
X546609Y181465D01*
X545526Y178851D01*
X533116Y166441D01*
X533063Y166367D01*
X533003Y166297D01*
X532991Y166267D01*
X532972Y166241D01*
X532945Y166154D01*
X532911Y166069D01*
X532907Y166028D01*
X532900Y166006D01*
X532901Y165974D01*
X532893Y165902D01*
X532893Y94701D01*
X532907Y94611D01*
X532915Y94520D01*
X532927Y94491D01*
X532932Y94459D01*
X532975Y94378D01*
X533011Y94294D01*
X533037Y94262D01*
X533048Y94241D01*
X533071Y94219D01*
X533100Y94183D01*
X533116Y94163D01*
X542219Y85060D01*
X542293Y85007D01*
X542363Y84947D01*
X542393Y84935D01*
X542419Y84916D01*
X542506Y84889D01*
X542591Y84855D01*
X542632Y84851D01*
X542654Y84844D01*
X542686Y84845D01*
X542758Y84837D01*
X559199Y84837D01*
X561813Y83754D01*
X568762Y76805D01*
X568836Y76752D01*
X568906Y76692D01*
X568936Y76680D01*
X568962Y76661D01*
X569049Y76634D01*
X569134Y76600D01*
X569175Y76596D01*
X569197Y76589D01*
X569229Y76590D01*
X569301Y76582D01*
X576919Y76582D01*
X584582Y68919D01*
X584582Y58081D01*
X576919Y50418D01*
X566081Y50418D01*
X558418Y58081D01*
X558418Y66715D01*
X558404Y66806D01*
X558396Y66896D01*
X558384Y66926D01*
X558379Y66958D01*
X558336Y67039D01*
X558300Y67123D01*
X558274Y67155D01*
X558263Y67176D01*
X558240Y67198D01*
X558195Y67254D01*
X555061Y70388D01*
X554987Y70441D01*
X554917Y70501D01*
X554887Y70513D01*
X554861Y70532D01*
X554774Y70559D01*
X554689Y70593D01*
X554648Y70597D01*
X554626Y70604D01*
X554594Y70603D01*
X554522Y70611D01*
X538081Y70611D01*
X535467Y71694D01*
X521858Y85303D01*
X519750Y87411D01*
X518667Y90025D01*
X518667Y170579D01*
X519750Y173193D01*
X532160Y185603D01*
X532213Y185677D01*
X532273Y185747D01*
X532285Y185777D01*
X532304Y185803D01*
X532331Y185890D01*
X532365Y185975D01*
X532369Y186016D01*
X532376Y186038D01*
X532375Y186070D01*
X532383Y186142D01*
X532383Y237023D01*
X532372Y237093D01*
X532370Y237165D01*
X532352Y237214D01*
X532344Y237265D01*
X532310Y237329D01*
X532285Y237396D01*
X532253Y237437D01*
X532228Y237483D01*
X532176Y237532D01*
X532132Y237588D01*
X532088Y237616D01*
X532050Y237652D01*
X531985Y237682D01*
X531925Y237721D01*
X531874Y237734D01*
X531827Y237756D01*
X531756Y237764D01*
X531686Y237781D01*
X531634Y237777D01*
X531583Y237783D01*
X531512Y237768D01*
X531441Y237762D01*
X531393Y237742D01*
X531342Y237731D01*
X531281Y237694D01*
X531215Y237666D01*
X531159Y237621D01*
X531131Y237604D01*
X531116Y237587D01*
X531084Y237561D01*
X529809Y236286D01*
X527699Y235412D01*
X527621Y235364D01*
X527540Y235322D01*
X527517Y235299D01*
X527489Y235282D01*
X527431Y235212D01*
X527367Y235147D01*
X527348Y235111D01*
X527333Y235093D01*
X527321Y235063D01*
X527287Y235000D01*
X526856Y233962D01*
X523212Y230318D01*
X520764Y229303D01*
X520703Y229265D01*
X520637Y229236D01*
X520599Y229201D01*
X520555Y229174D01*
X520509Y229118D01*
X520456Y229070D01*
X520431Y229024D01*
X520398Y228984D01*
X520372Y228917D01*
X520338Y228854D01*
X520328Y228803D01*
X520310Y228755D01*
X520307Y228683D01*
X520294Y228612D01*
X520301Y228561D01*
X520299Y228509D01*
X520319Y228440D01*
X520330Y228369D01*
X520353Y228323D01*
X520368Y228273D01*
X520409Y228214D01*
X520441Y228150D01*
X520478Y228113D01*
X520508Y228071D01*
X520566Y228028D01*
X520617Y227978D01*
X520680Y227943D01*
X520705Y227924D01*
X520728Y227917D01*
X520764Y227897D01*
X523212Y226882D01*
X526856Y223238D01*
X528829Y218477D01*
X528829Y213323D01*
X526856Y208562D01*
X523212Y204918D01*
X520764Y203903D01*
X520703Y203865D01*
X520637Y203836D01*
X520599Y203801D01*
X520555Y203774D01*
X520509Y203718D01*
X520456Y203670D01*
X520431Y203624D01*
X520398Y203584D01*
X520372Y203517D01*
X520338Y203454D01*
X520328Y203403D01*
X520310Y203355D01*
X520307Y203283D01*
X520294Y203212D01*
X520301Y203161D01*
X520299Y203109D01*
X520319Y203040D01*
X520330Y202969D01*
X520353Y202923D01*
X520368Y202873D01*
X520409Y202814D01*
X520441Y202750D01*
X520478Y202713D01*
X520508Y202671D01*
X520566Y202628D01*
X520617Y202578D01*
X520680Y202543D01*
X520705Y202524D01*
X520728Y202517D01*
X520764Y202497D01*
X523212Y201482D01*
X526856Y197838D01*
X528829Y193077D01*
X528829Y187923D01*
X526856Y183162D01*
X523212Y179518D01*
X518451Y177545D01*
X497549Y177545D01*
X492788Y179518D01*
X489144Y183162D01*
X487171Y187923D01*
X487171Y193077D01*
X489144Y197838D01*
X492788Y201482D01*
X495236Y202497D01*
X495297Y202535D01*
X495363Y202564D01*
X495401Y202599D01*
X495445Y202626D01*
X495491Y202682D01*
X495544Y202730D01*
X495569Y202776D01*
X495602Y202816D01*
X495628Y202883D01*
X495662Y202946D01*
X495672Y202997D01*
X495690Y203045D01*
X495693Y203117D01*
X495706Y203188D01*
X495699Y203239D01*
X495701Y203291D01*
X495681Y203360D01*
X495670Y203431D01*
X495647Y203477D01*
X495632Y203527D01*
X495591Y203586D01*
X495559Y203650D01*
X495522Y203687D01*
X495492Y203729D01*
X495434Y203772D01*
X495383Y203822D01*
X495320Y203857D01*
X495295Y203876D01*
X495272Y203883D01*
X495236Y203903D01*
X492788Y204918D01*
X489144Y208562D01*
X487171Y213323D01*
X487171Y218477D01*
X489144Y223238D01*
X492788Y226882D01*
X495236Y227897D01*
X495297Y227935D01*
X495363Y227964D01*
X495401Y227999D01*
X495445Y228026D01*
X495491Y228082D01*
X495544Y228130D01*
X495569Y228176D01*
X495602Y228216D01*
X495628Y228283D01*
X495662Y228346D01*
X495672Y228397D01*
X495690Y228445D01*
X495693Y228517D01*
X495706Y228588D01*
X495699Y228639D01*
X495701Y228691D01*
X495681Y228760D01*
X495670Y228831D01*
X495647Y228877D01*
X495632Y228927D01*
X495591Y228986D01*
X495559Y229050D01*
X495522Y229087D01*
X495492Y229129D01*
X495434Y229172D01*
X495383Y229222D01*
X495320Y229257D01*
X495295Y229276D01*
X495272Y229283D01*
X495236Y229303D01*
X492788Y230318D01*
X489144Y233962D01*
X487171Y238723D01*
X487171Y243877D01*
X488985Y248254D01*
X489007Y248349D01*
X489035Y248442D01*
X489035Y248468D01*
X489041Y248494D01*
X489032Y248591D01*
X489029Y248688D01*
X489020Y248713D01*
X489018Y248739D01*
X488978Y248828D01*
X488945Y248919D01*
X488928Y248940D01*
X488918Y248963D01*
X488852Y249035D01*
X488791Y249111D01*
X488769Y249125D01*
X488751Y249145D01*
X488666Y249192D01*
X488584Y249244D01*
X488559Y249251D01*
X488536Y249263D01*
X488440Y249281D01*
X488345Y249304D01*
X488319Y249302D01*
X488294Y249307D01*
X488197Y249293D01*
X488100Y249285D01*
X488076Y249275D01*
X488050Y249271D01*
X487963Y249227D01*
X487874Y249189D01*
X487849Y249168D01*
X487831Y249160D01*
X487808Y249136D01*
X487743Y249084D01*
X478252Y239593D01*
X478199Y239519D01*
X478139Y239449D01*
X478127Y239419D01*
X478108Y239393D01*
X478081Y239306D01*
X478047Y239221D01*
X478043Y239180D01*
X478036Y239158D01*
X478037Y239126D01*
X478029Y239054D01*
X478029Y126706D01*
X478044Y126614D01*
X478051Y126522D01*
X478065Y126485D01*
X478068Y126463D01*
X478080Y126441D01*
X478084Y126434D01*
X478109Y126365D01*
X478151Y126308D01*
X478184Y126245D01*
X478222Y126209D01*
X478253Y126166D01*
X478311Y126125D01*
X478362Y126076D01*
X478410Y126054D01*
X478453Y126023D01*
X478521Y126002D01*
X478585Y125972D01*
X478638Y125966D01*
X478689Y125951D01*
X478759Y125953D01*
X478829Y125945D01*
X478881Y125957D01*
X478935Y125958D01*
X479001Y125982D01*
X479070Y125997D01*
X479115Y126025D01*
X479165Y126043D01*
X479220Y126087D01*
X479281Y126124D01*
X479315Y126164D01*
X479357Y126197D01*
X479395Y126257D01*
X479441Y126311D01*
X479461Y126360D01*
X479489Y126405D01*
X479506Y126473D01*
X479533Y126539D01*
X479541Y126612D01*
X479549Y126643D01*
X479547Y126666D01*
X479551Y126705D01*
X479551Y127796D01*
X481910Y133491D01*
X486269Y137850D01*
X491964Y140209D01*
X498128Y140209D01*
X503823Y137850D01*
X508182Y133491D01*
X510541Y127796D01*
X510541Y100804D01*
X508182Y95109D01*
X503823Y90750D01*
X498128Y88391D01*
X491964Y88391D01*
X486269Y90750D01*
X481910Y95109D01*
X479551Y100804D01*
X479551Y106426D01*
X479548Y106446D01*
X479550Y106465D01*
X479528Y106567D01*
X479512Y106669D01*
X479502Y106686D01*
X479498Y106706D01*
X479445Y106795D01*
X479396Y106886D01*
X479382Y106900D01*
X479372Y106917D01*
X479293Y106984D01*
X479218Y107056D01*
X479200Y107064D01*
X479185Y107077D01*
X479089Y107116D01*
X478995Y107159D01*
X478975Y107161D01*
X478957Y107169D01*
X478790Y107187D01*
X478645Y107187D01*
X476031Y108270D01*
X464886Y119415D01*
X463803Y122029D01*
X463803Y243731D01*
X464886Y246345D01*
X486948Y268407D01*
X487001Y268481D01*
X487061Y268551D01*
X487073Y268581D01*
X487092Y268607D01*
X487119Y268694D01*
X487153Y268779D01*
X487157Y268820D01*
X487164Y268842D01*
X487163Y268874D01*
X487171Y268946D01*
X487171Y269277D01*
X489144Y274038D01*
X492788Y277682D01*
X497549Y279655D01*
X518451Y279655D01*
X519823Y279086D01*
X519936Y279060D01*
X520050Y279031D01*
X520056Y279032D01*
X520062Y279030D01*
X520179Y279041D01*
X520295Y279050D01*
X520301Y279053D01*
X520307Y279053D01*
X520415Y279101D01*
X520522Y279147D01*
X520527Y279151D01*
X520532Y279153D01*
X520546Y279166D01*
X520653Y279251D01*
X527588Y286187D01*
X527641Y286261D01*
X527701Y286331D01*
X527713Y286361D01*
X527732Y286387D01*
X527759Y286474D01*
X527793Y286559D01*
X527797Y286600D01*
X527804Y286622D01*
X527803Y286654D01*
X527811Y286726D01*
X527811Y303167D01*
X528894Y305781D01*
X544611Y321498D01*
X545375Y321814D01*
X545475Y321876D01*
X545575Y321936D01*
X545579Y321941D01*
X545584Y321944D01*
X545659Y322034D01*
X545735Y322123D01*
X545737Y322129D01*
X545741Y322134D01*
X545783Y322242D01*
X545827Y322351D01*
X545828Y322359D01*
X545829Y322363D01*
X545830Y322381D01*
X545845Y322518D01*
X545845Y322866D01*
X553434Y330455D01*
X564166Y330455D01*
X571817Y322804D01*
X571891Y322751D01*
X571960Y322691D01*
X571991Y322679D01*
X572017Y322660D01*
X572104Y322633D01*
X572189Y322599D01*
X572230Y322595D01*
X572252Y322588D01*
X572284Y322589D01*
X572355Y322581D01*
X583345Y322581D01*
X583435Y322595D01*
X583526Y322603D01*
X583555Y322615D01*
X583587Y322620D01*
X583668Y322663D01*
X583752Y322699D01*
X583784Y322725D01*
X583805Y322736D01*
X583827Y322759D01*
X583883Y322804D01*
X591534Y330455D01*
X602266Y330455D01*
X605069Y327652D01*
X605106Y327625D01*
X605137Y327591D01*
X605206Y327554D01*
X605269Y327508D01*
X605313Y327495D01*
X605353Y327472D01*
X605429Y327459D01*
X605504Y327436D01*
X605550Y327437D01*
X605595Y327429D01*
X605672Y327440D01*
X605750Y327442D01*
X605793Y327458D01*
X605838Y327465D01*
X605908Y327500D01*
X605981Y327527D01*
X606017Y327555D01*
X606058Y327576D01*
X606112Y327632D01*
X606173Y327680D01*
X606198Y327719D01*
X606230Y327752D01*
X606296Y327871D01*
X606306Y327887D01*
X606307Y327892D01*
X606311Y327899D01*
X606618Y328641D01*
X606623Y328646D01*
X606634Y328662D01*
X606650Y328674D01*
X606706Y328762D01*
X606766Y328845D01*
X606772Y328864D01*
X606783Y328881D01*
X606808Y328982D01*
X606839Y329081D01*
X606838Y329100D01*
X606843Y329120D01*
X606835Y329223D01*
X606832Y329326D01*
X606825Y329345D01*
X606824Y329365D01*
X606784Y329460D01*
X606748Y329557D01*
X606735Y329573D01*
X606728Y329591D01*
X606623Y329722D01*
X577921Y358424D01*
X577847Y358477D01*
X577777Y358537D01*
X577747Y358549D01*
X577721Y358568D01*
X577634Y358595D01*
X577549Y358629D01*
X577508Y358633D01*
X577486Y358640D01*
X577454Y358639D01*
X577382Y358647D01*
X506077Y358647D01*
X503463Y359730D01*
X501355Y361838D01*
X479328Y383865D01*
X479270Y383907D01*
X479218Y383956D01*
X479171Y383978D01*
X479129Y384008D01*
X479060Y384029D01*
X478995Y384060D01*
X478943Y384065D01*
X478893Y384081D01*
X478822Y384079D01*
X478751Y384087D01*
X478700Y384076D01*
X478648Y384074D01*
X478580Y384050D01*
X478510Y384035D01*
X478465Y384008D01*
X478417Y383990D01*
X478361Y383945D01*
X478299Y383908D01*
X478265Y383869D01*
X478225Y383836D01*
X478186Y383776D01*
X478139Y383721D01*
X478120Y383673D01*
X478092Y383629D01*
X478074Y383560D01*
X478047Y383493D01*
X478039Y383422D01*
X478031Y383391D01*
X478033Y383367D01*
X478029Y383327D01*
X478029Y341590D01*
X478043Y341499D01*
X478051Y341409D01*
X478063Y341379D01*
X478068Y341347D01*
X478111Y341266D01*
X478147Y341182D01*
X478173Y341150D01*
X478184Y341129D01*
X478207Y341107D01*
X478252Y341051D01*
X491266Y328037D01*
X491282Y328025D01*
X491294Y328010D01*
X491382Y327954D01*
X491466Y327894D01*
X491485Y327888D01*
X491501Y327877D01*
X491602Y327852D01*
X491701Y327821D01*
X491721Y327822D01*
X491740Y327817D01*
X491843Y327825D01*
X491946Y327828D01*
X491965Y327834D01*
X491985Y327836D01*
X492080Y327876D01*
X492178Y327912D01*
X492193Y327925D01*
X492211Y327932D01*
X492342Y328037D01*
X492788Y328483D01*
X495236Y329497D01*
X495297Y329535D01*
X495363Y329564D01*
X495401Y329599D01*
X495445Y329626D01*
X495491Y329682D01*
X495544Y329730D01*
X495569Y329776D01*
X495602Y329816D01*
X495628Y329883D01*
X495662Y329946D01*
X495672Y329997D01*
X495690Y330045D01*
X495693Y330117D01*
X495706Y330188D01*
X495699Y330239D01*
X495701Y330291D01*
X495681Y330360D01*
X495670Y330431D01*
X495647Y330477D01*
X495632Y330527D01*
X495591Y330586D01*
X495559Y330650D01*
X495522Y330687D01*
X495492Y330729D01*
X495434Y330772D01*
X495383Y330822D01*
X495320Y330857D01*
X495295Y330876D01*
X495272Y330883D01*
X495236Y330903D01*
X492788Y331918D01*
X489144Y335562D01*
X487171Y340323D01*
X487171Y345477D01*
X489144Y350238D01*
X492788Y353882D01*
X497549Y355855D01*
X518451Y355855D01*
X523212Y353882D01*
X526856Y350238D01*
X528829Y345477D01*
X528829Y340323D01*
X526856Y335562D01*
X523212Y331918D01*
X520764Y330903D01*
X520703Y330865D01*
X520637Y330836D01*
X520599Y330801D01*
X520555Y330774D01*
X520509Y330718D01*
X520456Y330670D01*
X520431Y330624D01*
X520398Y330584D01*
X520372Y330517D01*
X520338Y330454D01*
X520328Y330403D01*
X520310Y330355D01*
X520307Y330283D01*
X520294Y330212D01*
X520301Y330161D01*
X520299Y330109D01*
X520319Y330040D01*
X520330Y329969D01*
X520353Y329923D01*
X520368Y329873D01*
X520409Y329814D01*
X520441Y329750D01*
X520478Y329713D01*
X520508Y329671D01*
X520566Y329628D01*
X520617Y329578D01*
X520680Y329543D01*
X520705Y329524D01*
X520728Y329517D01*
X520764Y329497D01*
X523212Y328482D01*
X526856Y324838D01*
X528829Y320077D01*
X528829Y314923D01*
X526856Y310162D01*
X523212Y306518D01*
X518451Y304545D01*
X497549Y304545D01*
X492788Y306518D01*
X489144Y310162D01*
X488162Y312532D01*
X488114Y312609D01*
X488072Y312690D01*
X488049Y312713D01*
X488032Y312741D01*
X487962Y312799D01*
X487897Y312863D01*
X487861Y312882D01*
X487843Y312897D01*
X487813Y312909D01*
X487750Y312944D01*
X485175Y314010D01*
X470184Y329001D01*
X470126Y329043D01*
X470074Y329092D01*
X470027Y329114D01*
X469985Y329144D01*
X469916Y329165D01*
X469851Y329196D01*
X469799Y329201D01*
X469749Y329217D01*
X469678Y329215D01*
X469607Y329223D01*
X469556Y329212D01*
X469504Y329210D01*
X469436Y329186D01*
X469366Y329171D01*
X469321Y329144D01*
X469273Y329126D01*
X469217Y329081D01*
X469155Y329044D01*
X469121Y329005D01*
X469081Y328972D01*
X469042Y328912D01*
X468995Y328857D01*
X468976Y328809D01*
X468948Y328765D01*
X468930Y328696D01*
X468903Y328629D01*
X468895Y328558D01*
X468887Y328527D01*
X468889Y328503D01*
X468885Y328463D01*
X468885Y295765D01*
X467802Y293151D01*
X461229Y286578D01*
X458615Y285495D01*
X451469Y285495D01*
X451354Y285476D01*
X451238Y285459D01*
X451232Y285457D01*
X451226Y285456D01*
X451124Y285401D01*
X451019Y285348D01*
X451014Y285343D01*
X451009Y285340D01*
X450928Y285255D01*
X450847Y285172D01*
X450843Y285166D01*
X450839Y285162D01*
X450832Y285145D01*
X450766Y285025D01*
X450656Y284762D01*
X447012Y281118D01*
X444564Y280103D01*
X444503Y280065D01*
X444437Y280036D01*
X444399Y280001D01*
X444355Y279974D01*
X444309Y279918D01*
X444256Y279870D01*
X444231Y279824D01*
X444198Y279784D01*
X444172Y279717D01*
X444138Y279654D01*
X444128Y279603D01*
X444110Y279555D01*
X444107Y279483D01*
X444094Y279412D01*
X444101Y279361D01*
X444099Y279309D01*
X444119Y279240D01*
X444130Y279169D01*
X444153Y279123D01*
X444168Y279073D01*
X444209Y279014D01*
X444241Y278950D01*
X444278Y278913D01*
X444308Y278871D01*
X444366Y278828D01*
X444417Y278778D01*
X444480Y278743D01*
X444505Y278724D01*
X444528Y278717D01*
X444564Y278697D01*
X447012Y277682D01*
X450656Y274038D01*
X452629Y269277D01*
X452629Y264123D01*
X450656Y259362D01*
X447012Y255718D01*
X444564Y254703D01*
X444503Y254665D01*
X444437Y254636D01*
X444399Y254601D01*
X444355Y254574D01*
X444309Y254518D01*
X444256Y254470D01*
X444231Y254424D01*
X444198Y254384D01*
X444172Y254317D01*
X444138Y254254D01*
X444128Y254203D01*
X444110Y254155D01*
X444107Y254083D01*
X444094Y254012D01*
X444101Y253961D01*
X444099Y253909D01*
X444119Y253840D01*
X444130Y253769D01*
X444153Y253723D01*
X444168Y253673D01*
X444209Y253614D01*
X444241Y253550D01*
X444278Y253513D01*
X444308Y253471D01*
X444366Y253428D01*
X444417Y253378D01*
X444480Y253343D01*
X444505Y253324D01*
X444528Y253317D01*
X444564Y253297D01*
X447012Y252282D01*
X450656Y248638D01*
X452629Y243877D01*
X452629Y238723D01*
X450656Y233962D01*
X447012Y230318D01*
X444564Y229303D01*
X444503Y229265D01*
X444437Y229236D01*
X444399Y229201D01*
X444355Y229174D01*
X444309Y229118D01*
X444256Y229070D01*
X444231Y229024D01*
X444198Y228984D01*
X444172Y228917D01*
X444138Y228854D01*
X444128Y228803D01*
X444110Y228755D01*
X444107Y228683D01*
X444094Y228612D01*
X444101Y228561D01*
X444099Y228509D01*
X444119Y228440D01*
X444130Y228369D01*
X444153Y228323D01*
X444168Y228273D01*
X444209Y228214D01*
X444241Y228150D01*
X444278Y228113D01*
X444308Y228071D01*
X444366Y228028D01*
X444417Y227978D01*
X444480Y227943D01*
X444505Y227924D01*
X444528Y227917D01*
X444564Y227897D01*
X447012Y226882D01*
X450656Y223238D01*
X452629Y218477D01*
X452629Y213323D01*
X450656Y208562D01*
X447012Y204918D01*
X444564Y203903D01*
X444503Y203865D01*
X444437Y203836D01*
X444399Y203801D01*
X444355Y203774D01*
X444309Y203718D01*
X444256Y203670D01*
X444231Y203624D01*
X444198Y203584D01*
X444172Y203517D01*
X444138Y203454D01*
X444128Y203403D01*
X444110Y203355D01*
X444107Y203283D01*
X444094Y203212D01*
X444101Y203161D01*
X444099Y203109D01*
X444119Y203040D01*
X444130Y202969D01*
X444153Y202923D01*
X444168Y202873D01*
X444209Y202814D01*
X444241Y202750D01*
X444278Y202713D01*
X444308Y202671D01*
X444366Y202628D01*
X444417Y202578D01*
X444480Y202543D01*
X444505Y202524D01*
X444528Y202517D01*
X444564Y202497D01*
X447012Y201482D01*
X450656Y197838D01*
X452629Y193077D01*
X452629Y187923D01*
X450656Y183162D01*
X447012Y179518D01*
X442251Y177545D01*
X421349Y177545D01*
X416588Y179518D01*
X412944Y183162D01*
X410971Y187923D01*
X410971Y193077D01*
X412944Y197838D01*
X416588Y201482D01*
X419036Y202497D01*
X419097Y202535D01*
X419163Y202564D01*
X419201Y202599D01*
X419245Y202626D01*
X419291Y202682D01*
X419344Y202730D01*
X419369Y202776D01*
X419402Y202816D01*
X419428Y202883D01*
X419462Y202946D01*
X419472Y202997D01*
X419490Y203045D01*
X419493Y203117D01*
X419506Y203188D01*
X419499Y203239D01*
X419501Y203291D01*
X419481Y203360D01*
X419470Y203431D01*
X419447Y203477D01*
X419432Y203527D01*
X419391Y203586D01*
X419359Y203650D01*
X419322Y203687D01*
X419292Y203729D01*
X419234Y203772D01*
X419183Y203822D01*
X419120Y203857D01*
X419095Y203876D01*
X419072Y203883D01*
X419036Y203903D01*
X416588Y204918D01*
X412944Y208562D01*
X410971Y213323D01*
X410971Y218477D01*
X412944Y223238D01*
X416588Y226882D01*
X419036Y227897D01*
X419097Y227935D01*
X419163Y227964D01*
X419201Y227999D01*
X419245Y228026D01*
X419291Y228082D01*
X419344Y228130D01*
X419369Y228176D01*
X419402Y228216D01*
X419428Y228283D01*
X419462Y228346D01*
X419472Y228397D01*
X419490Y228445D01*
X419493Y228517D01*
X419506Y228588D01*
X419499Y228639D01*
X419501Y228691D01*
X419481Y228760D01*
X419470Y228831D01*
X419447Y228877D01*
X419432Y228927D01*
X419391Y228986D01*
X419359Y229050D01*
X419322Y229087D01*
X419292Y229129D01*
X419234Y229172D01*
X419183Y229222D01*
X419120Y229257D01*
X419095Y229276D01*
X419072Y229283D01*
X419036Y229303D01*
X416588Y230318D01*
X416497Y230408D01*
X416423Y230461D01*
X416354Y230521D01*
X416324Y230533D01*
X416297Y230552D01*
X416210Y230579D01*
X416125Y230613D01*
X416085Y230617D01*
X416062Y230624D01*
X416030Y230623D01*
X415959Y230631D01*
X414742Y230631D01*
X414651Y230617D01*
X414561Y230609D01*
X414531Y230597D01*
X414499Y230592D01*
X414418Y230549D01*
X414334Y230513D01*
X414302Y230487D01*
X414281Y230476D01*
X414259Y230453D01*
X414203Y230408D01*
X405100Y221305D01*
X405047Y221231D01*
X404987Y221161D01*
X404975Y221131D01*
X404956Y221105D01*
X404929Y221018D01*
X404895Y220933D01*
X404891Y220892D01*
X404884Y220870D01*
X404885Y220838D01*
X404877Y220766D01*
X404877Y181465D01*
X403794Y178851D01*
X395090Y170147D01*
X395022Y170053D01*
X394952Y169958D01*
X394950Y169952D01*
X394946Y169947D01*
X394912Y169836D01*
X394876Y169724D01*
X394876Y169718D01*
X394874Y169712D01*
X394877Y169595D01*
X394878Y169478D01*
X394880Y169471D01*
X394880Y169466D01*
X394887Y169449D01*
X394925Y169317D01*
X395479Y167980D01*
X395479Y162220D01*
X393274Y156898D01*
X389202Y152826D01*
X385434Y151265D01*
X385378Y151230D01*
X385318Y151205D01*
X385253Y151153D01*
X385225Y151135D01*
X385212Y151120D01*
X385187Y151100D01*
X321605Y87518D01*
X319497Y85410D01*
X316883Y84327D01*
X305054Y84327D01*
X305034Y84324D01*
X305015Y84326D01*
X304913Y84304D01*
X304811Y84288D01*
X304794Y84278D01*
X304774Y84274D01*
X304685Y84221D01*
X304594Y84172D01*
X304580Y84158D01*
X304563Y84148D01*
X304496Y84069D01*
X304424Y83994D01*
X304416Y83976D01*
X304403Y83961D01*
X304364Y83865D01*
X304321Y83771D01*
X304319Y83751D01*
X304311Y83733D01*
X304293Y83566D01*
X304293Y67270D01*
X304296Y67247D01*
X304295Y67229D01*
X304309Y67164D01*
X304315Y67089D01*
X304327Y67059D01*
X304332Y67027D01*
X304343Y67007D01*
X304347Y66989D01*
X304382Y66930D01*
X304411Y66862D01*
X304437Y66830D01*
X304448Y66809D01*
X304463Y66795D01*
X304473Y66778D01*
X304490Y66763D01*
X304516Y66731D01*
X309275Y61972D01*
X309291Y61960D01*
X309303Y61945D01*
X309391Y61889D01*
X309475Y61829D01*
X309494Y61823D01*
X309510Y61812D01*
X309611Y61787D01*
X309710Y61756D01*
X309730Y61757D01*
X309749Y61752D01*
X309852Y61760D01*
X309955Y61763D01*
X309974Y61769D01*
X309994Y61771D01*
X310089Y61811D01*
X310187Y61847D01*
X310202Y61860D01*
X310220Y61867D01*
X310351Y61972D01*
X312134Y63755D01*
X322866Y63755D01*
X324903Y61718D01*
X324919Y61706D01*
X324931Y61691D01*
X325018Y61635D01*
X325102Y61575D01*
X325121Y61569D01*
X325138Y61558D01*
X325239Y61533D01*
X325337Y61502D01*
X325357Y61503D01*
X325377Y61498D01*
X325480Y61506D01*
X325583Y61509D01*
X325602Y61515D01*
X325622Y61517D01*
X325717Y61557D01*
X325814Y61593D01*
X325830Y61606D01*
X325848Y61613D01*
X325979Y61718D01*
X334299Y70038D01*
X336913Y71121D01*
X342576Y71121D01*
X342691Y71140D01*
X342807Y71157D01*
X342813Y71159D01*
X342819Y71160D01*
X342922Y71215D01*
X343026Y71268D01*
X343031Y71273D01*
X343036Y71276D01*
X343116Y71360D01*
X343199Y71444D01*
X343202Y71450D01*
X343206Y71454D01*
X343214Y71471D01*
X343280Y71591D01*
X343326Y71702D01*
X347398Y75774D01*
X352720Y77979D01*
X358480Y77979D01*
X363802Y75774D01*
X367762Y71814D01*
X367778Y71803D01*
X367790Y71787D01*
X367878Y71731D01*
X367961Y71671D01*
X367980Y71665D01*
X367997Y71654D01*
X368098Y71629D01*
X368197Y71598D01*
X368216Y71599D01*
X368236Y71594D01*
X368339Y71602D01*
X368442Y71605D01*
X368461Y71612D01*
X368481Y71613D01*
X368576Y71653D01*
X368673Y71689D01*
X368689Y71702D01*
X368707Y71709D01*
X368838Y71814D01*
X372798Y75774D01*
X378120Y77979D01*
X383880Y77979D01*
X389202Y75774D01*
X393274Y71702D01*
X395479Y66380D01*
X395479Y60620D01*
X393274Y55298D01*
X389202Y51226D01*
X383880Y49021D01*
X378120Y49021D01*
X372798Y51226D01*
X368838Y55186D01*
X368822Y55197D01*
X368810Y55213D01*
X368722Y55269D01*
X368639Y55329D01*
X368620Y55335D01*
X368603Y55346D01*
X368502Y55371D01*
X368403Y55402D01*
X368384Y55401D01*
X368364Y55406D01*
X368261Y55398D01*
X368158Y55395D01*
X368139Y55388D01*
X368119Y55387D01*
X368024Y55346D01*
X367927Y55311D01*
X367911Y55298D01*
X367893Y55291D01*
X367762Y55186D01*
X363802Y51226D01*
X358480Y49021D01*
X352720Y49021D01*
X347398Y51226D01*
X343326Y55298D01*
X342859Y56425D01*
X342797Y56525D01*
X342737Y56625D01*
X342732Y56629D01*
X342729Y56634D01*
X342640Y56709D01*
X342550Y56785D01*
X342544Y56787D01*
X342540Y56791D01*
X342432Y56833D01*
X342322Y56877D01*
X342315Y56878D01*
X342310Y56879D01*
X342292Y56880D01*
X342155Y56895D01*
X341590Y56895D01*
X341499Y56881D01*
X341409Y56873D01*
X341379Y56861D01*
X341347Y56856D01*
X341266Y56813D01*
X341182Y56777D01*
X341150Y56751D01*
X341129Y56740D01*
X341107Y56717D01*
X341051Y56672D01*
X330678Y46299D01*
X330625Y46225D01*
X330565Y46155D01*
X330553Y46125D01*
X330534Y46099D01*
X330507Y46012D01*
X330473Y45927D01*
X330469Y45886D01*
X330462Y45864D01*
X330463Y45832D01*
X330455Y45760D01*
X330455Y45434D01*
X322866Y37845D01*
X312134Y37845D01*
X304545Y45434D01*
X304545Y46269D01*
X304531Y46359D01*
X304523Y46450D01*
X304511Y46479D01*
X304506Y46511D01*
X304463Y46592D01*
X304427Y46676D01*
X304401Y46708D01*
X304390Y46729D01*
X304367Y46751D01*
X304322Y46807D01*
X291150Y59979D01*
X290067Y62593D01*
X290067Y88179D01*
X290053Y88269D01*
X290045Y88360D01*
X290033Y88389D01*
X290028Y88421D01*
X289985Y88502D01*
X289949Y88586D01*
X289923Y88618D01*
X289912Y88639D01*
X289889Y88661D01*
X289844Y88717D01*
X249869Y128692D01*
X249853Y128704D01*
X249840Y128719D01*
X249753Y128775D01*
X249669Y128836D01*
X249650Y128841D01*
X249633Y128852D01*
X249533Y128878D01*
X249434Y128908D01*
X249414Y128907D01*
X249395Y128912D01*
X249292Y128904D01*
X249188Y128902D01*
X249170Y128895D01*
X249150Y128893D01*
X249055Y128853D01*
X248957Y128817D01*
X248942Y128805D01*
X248923Y128797D01*
X248792Y128692D01*
X246719Y126618D01*
X235881Y126618D01*
X228218Y134281D01*
X228218Y145119D01*
X235881Y152782D01*
X246719Y152782D01*
X254382Y145119D01*
X254382Y144157D01*
X254388Y144117D01*
X254388Y144116D01*
X254390Y144106D01*
X254401Y144042D01*
X254418Y143926D01*
X254420Y143921D01*
X254421Y143914D01*
X254439Y143881D01*
X254440Y143875D01*
X254457Y143846D01*
X254476Y143812D01*
X254529Y143707D01*
X254534Y143703D01*
X254537Y143697D01*
X254560Y143675D01*
X254566Y143664D01*
X254615Y143622D01*
X254621Y143617D01*
X254705Y143535D01*
X254711Y143531D01*
X254715Y143528D01*
X254732Y143520D01*
X254741Y143515D01*
X254753Y143504D01*
X254779Y143494D01*
X254852Y143454D01*
X255489Y143190D01*
X257597Y141082D01*
X299903Y98776D01*
X299977Y98723D01*
X300047Y98663D01*
X300077Y98651D01*
X300103Y98632D01*
X300190Y98605D01*
X300275Y98571D01*
X300316Y98567D01*
X300338Y98560D01*
X300370Y98561D01*
X300441Y98553D01*
X312206Y98553D01*
X312297Y98567D01*
X312387Y98575D01*
X312417Y98587D01*
X312449Y98592D01*
X312530Y98635D01*
X312614Y98671D01*
X312646Y98697D01*
X312667Y98708D01*
X312689Y98731D01*
X312745Y98776D01*
X369258Y155289D01*
X369270Y155305D01*
X369285Y155318D01*
X369342Y155405D01*
X369402Y155489D01*
X369408Y155508D01*
X369418Y155525D01*
X369444Y155625D01*
X369474Y155724D01*
X369474Y155744D01*
X369479Y155763D01*
X369470Y155866D01*
X369468Y155970D01*
X369461Y155989D01*
X369459Y156008D01*
X369419Y156103D01*
X369383Y156201D01*
X369371Y156217D01*
X369363Y156235D01*
X369258Y156366D01*
X368838Y156786D01*
X368822Y156797D01*
X368810Y156813D01*
X368722Y156869D01*
X368639Y156929D01*
X368620Y156935D01*
X368603Y156946D01*
X368502Y156971D01*
X368403Y157002D01*
X368384Y157001D01*
X368364Y157006D01*
X368261Y156998D01*
X368158Y156995D01*
X368139Y156988D01*
X368119Y156987D01*
X368024Y156947D01*
X367927Y156911D01*
X367911Y156898D01*
X367893Y156891D01*
X367762Y156786D01*
X363802Y152826D01*
X358480Y150621D01*
X352720Y150621D01*
X347398Y152826D01*
X343326Y156898D01*
X343280Y157009D01*
X343218Y157109D01*
X343158Y157209D01*
X343153Y157213D01*
X343150Y157218D01*
X343060Y157293D01*
X342971Y157369D01*
X342965Y157371D01*
X342961Y157375D01*
X342852Y157417D01*
X342743Y157461D01*
X342735Y157462D01*
X342731Y157463D01*
X342713Y157464D01*
X342576Y157479D01*
X336913Y157479D01*
X334299Y158562D01*
X308173Y184688D01*
X308099Y184741D01*
X308029Y184801D01*
X307999Y184813D01*
X307973Y184832D01*
X307886Y184859D01*
X307801Y184893D01*
X307760Y184897D01*
X307738Y184904D01*
X307706Y184903D01*
X307634Y184911D01*
X261325Y184911D01*
X261255Y184900D01*
X261183Y184898D01*
X261134Y184880D01*
X261083Y184872D01*
X261019Y184838D01*
X260952Y184813D01*
X260911Y184781D01*
X260865Y184756D01*
X260816Y184704D01*
X260760Y184660D01*
X260732Y184616D01*
X260696Y184578D01*
X260666Y184513D01*
X260627Y184453D01*
X260614Y184402D01*
X260592Y184355D01*
X260584Y184284D01*
X260567Y184214D01*
X260571Y184162D01*
X260565Y184111D01*
X260580Y184040D01*
X260586Y183969D01*
X260606Y183921D01*
X260617Y183870D01*
X260654Y183809D01*
X260682Y183743D01*
X260727Y183687D01*
X260744Y183659D01*
X260761Y183644D01*
X260787Y183612D01*
X266634Y177765D01*
X267717Y175151D01*
X267717Y167854D01*
X267731Y167763D01*
X267739Y167673D01*
X267751Y167643D01*
X267756Y167611D01*
X267799Y167530D01*
X267835Y167446D01*
X267861Y167414D01*
X267872Y167393D01*
X267895Y167371D01*
X267940Y167315D01*
X271429Y163826D01*
X271445Y163814D01*
X271457Y163799D01*
X271545Y163743D01*
X271629Y163683D01*
X271648Y163677D01*
X271664Y163666D01*
X271765Y163641D01*
X271864Y163610D01*
X271884Y163611D01*
X271903Y163606D01*
X272006Y163614D01*
X272110Y163617D01*
X272128Y163623D01*
X272148Y163625D01*
X272243Y163665D01*
X272341Y163701D01*
X272356Y163714D01*
X272374Y163721D01*
X272505Y163826D01*
X274034Y165355D01*
X284766Y165355D01*
X292355Y157766D01*
X292355Y147034D01*
X284766Y139445D01*
X274034Y139445D01*
X266445Y147034D01*
X266445Y148609D01*
X266427Y148723D01*
X266409Y148840D01*
X266407Y148845D01*
X266406Y148851D01*
X266351Y148954D01*
X266298Y149059D01*
X266293Y149063D01*
X266290Y149069D01*
X266206Y149149D01*
X266122Y149231D01*
X266116Y149235D01*
X266112Y149238D01*
X266095Y149246D01*
X265975Y149312D01*
X265719Y149418D01*
X254574Y160563D01*
X253491Y163177D01*
X253491Y170474D01*
X253477Y170565D01*
X253469Y170655D01*
X253457Y170685D01*
X253452Y170717D01*
X253409Y170798D01*
X253373Y170882D01*
X253347Y170914D01*
X253336Y170935D01*
X253313Y170957D01*
X253268Y171013D01*
X248737Y175544D01*
X248663Y175597D01*
X248593Y175657D01*
X248563Y175669D01*
X248537Y175688D01*
X248450Y175715D01*
X248365Y175749D01*
X248324Y175753D01*
X248302Y175760D01*
X248270Y175759D01*
X248198Y175767D01*
X247379Y175767D01*
X247308Y175756D01*
X247236Y175754D01*
X247187Y175736D01*
X247136Y175728D01*
X247073Y175694D01*
X247005Y175669D01*
X246965Y175637D01*
X246919Y175612D01*
X246869Y175560D01*
X246813Y175516D01*
X246785Y175472D01*
X246749Y175434D01*
X246719Y175369D01*
X246680Y175309D01*
X246668Y175258D01*
X246646Y175211D01*
X246638Y175140D01*
X246620Y175070D01*
X246624Y175018D01*
X246619Y174967D01*
X246634Y174896D01*
X246639Y174825D01*
X246660Y174777D01*
X246671Y174726D01*
X246708Y174665D01*
X246736Y174599D01*
X246780Y174543D01*
X246797Y174515D01*
X246815Y174500D01*
X246840Y174468D01*
X251842Y169467D01*
X251842Y166623D01*
X242062Y166623D01*
X242042Y166620D01*
X242023Y166622D01*
X241921Y166600D01*
X241819Y166583D01*
X241802Y166574D01*
X241782Y166570D01*
X241693Y166517D01*
X241602Y166468D01*
X241588Y166454D01*
X241571Y166444D01*
X241504Y166365D01*
X241433Y166290D01*
X241424Y166272D01*
X241411Y166257D01*
X241373Y166161D01*
X241329Y166067D01*
X241327Y166047D01*
X241319Y166029D01*
X241301Y165862D01*
X241301Y165099D01*
X241299Y165099D01*
X241299Y165862D01*
X241296Y165882D01*
X241298Y165901D01*
X241276Y166003D01*
X241259Y166105D01*
X241250Y166122D01*
X241246Y166142D01*
X241193Y166231D01*
X241144Y166322D01*
X241130Y166336D01*
X241120Y166353D01*
X241041Y166420D01*
X240966Y166491D01*
X240948Y166500D01*
X240933Y166513D01*
X240837Y166552D01*
X240743Y166595D01*
X240723Y166597D01*
X240705Y166605D01*
X240538Y166623D01*
X230758Y166623D01*
X230758Y169467D01*
X236933Y175642D01*
X237658Y175642D01*
X237728Y175653D01*
X237800Y175655D01*
X237849Y175673D01*
X237900Y175681D01*
X237964Y175715D01*
X238031Y175740D01*
X238072Y175772D01*
X238118Y175797D01*
X238167Y175848D01*
X238223Y175893D01*
X238251Y175937D01*
X238287Y175975D01*
X238317Y176040D01*
X238356Y176100D01*
X238369Y176151D01*
X238391Y176198D01*
X238399Y176269D01*
X238416Y176339D01*
X238412Y176391D01*
X238418Y176442D01*
X238403Y176513D01*
X238397Y176584D01*
X238377Y176632D01*
X238366Y176683D01*
X238329Y176744D01*
X238301Y176810D01*
X238256Y176866D01*
X238239Y176894D01*
X238222Y176909D01*
X238196Y176941D01*
X221305Y193832D01*
X221231Y193885D01*
X221161Y193945D01*
X221131Y193957D01*
X221105Y193976D01*
X221018Y194003D01*
X220933Y194037D01*
X220892Y194041D01*
X220870Y194048D01*
X220838Y194047D01*
X220767Y194055D01*
X206795Y194055D01*
X206730Y194045D01*
X206665Y194044D01*
X206585Y194021D01*
X206552Y194016D01*
X206535Y194006D01*
X206504Y193997D01*
X203732Y192849D01*
X203200Y192849D01*
X203180Y192846D01*
X203161Y192848D01*
X203059Y192826D01*
X202957Y192810D01*
X202940Y192800D01*
X202920Y192796D01*
X202831Y192743D01*
X202740Y192694D01*
X202726Y192680D01*
X202709Y192670D01*
X202642Y192591D01*
X202571Y192516D01*
X202562Y192498D01*
X202549Y192483D01*
X202510Y192387D01*
X202467Y192293D01*
X202465Y192273D01*
X202457Y192255D01*
X202439Y192088D01*
X202439Y26237D01*
X202454Y26147D01*
X202461Y26056D01*
X202473Y26026D01*
X202479Y25994D01*
X202521Y25913D01*
X202557Y25830D01*
X202583Y25797D01*
X202594Y25777D01*
X202617Y25755D01*
X202662Y25699D01*
X203499Y24862D01*
X203572Y24809D01*
X203642Y24749D01*
X203672Y24737D01*
X203698Y24718D01*
X203785Y24691D01*
X203870Y24657D01*
X203911Y24653D01*
X203933Y24646D01*
X203966Y24647D01*
X204037Y24639D01*
X288077Y24639D01*
X288147Y24650D01*
G37*
G36*
X843803Y24654D02*
X843803Y24654D01*
X843894Y24661D01*
X843924Y24673D01*
X843956Y24679D01*
X844037Y24721D01*
X844120Y24757D01*
X844153Y24783D01*
X844173Y24794D01*
X844195Y24817D01*
X844251Y24862D01*
X845909Y26519D01*
X849147Y27861D01*
X850900Y27861D01*
X850920Y27864D01*
X850939Y27862D01*
X851041Y27884D01*
X851143Y27900D01*
X851160Y27910D01*
X851180Y27914D01*
X851269Y27967D01*
X851360Y28016D01*
X851374Y28030D01*
X851391Y28040D01*
X851458Y28119D01*
X851530Y28194D01*
X851538Y28212D01*
X851551Y28227D01*
X851590Y28323D01*
X851633Y28417D01*
X851635Y28437D01*
X851643Y28455D01*
X851661Y28622D01*
X851661Y217973D01*
X851650Y218043D01*
X851648Y218115D01*
X851630Y218164D01*
X851622Y218215D01*
X851588Y218278D01*
X851563Y218346D01*
X851531Y218387D01*
X851506Y218433D01*
X851455Y218482D01*
X851410Y218538D01*
X851366Y218566D01*
X851328Y218602D01*
X851263Y218632D01*
X851203Y218671D01*
X851152Y218684D01*
X851105Y218706D01*
X851034Y218714D01*
X850964Y218731D01*
X850912Y218727D01*
X850861Y218733D01*
X850790Y218717D01*
X850719Y218712D01*
X850671Y218692D01*
X850620Y218680D01*
X850559Y218644D01*
X850493Y218616D01*
X850437Y218571D01*
X850409Y218554D01*
X850394Y218537D01*
X850362Y218511D01*
X762609Y130758D01*
X762582Y130720D01*
X762548Y130689D01*
X762510Y130621D01*
X762465Y130558D01*
X762452Y130514D01*
X762429Y130474D01*
X762416Y130397D01*
X762393Y130323D01*
X762394Y130277D01*
X762386Y130232D01*
X762397Y130155D01*
X762399Y130077D01*
X762415Y130034D01*
X762421Y129988D01*
X762457Y129919D01*
X762483Y129846D01*
X762512Y129810D01*
X762533Y129769D01*
X762589Y129715D01*
X762637Y129654D01*
X762676Y129629D01*
X762709Y129597D01*
X762828Y129531D01*
X762844Y129521D01*
X762849Y129520D01*
X762856Y129516D01*
X768491Y127182D01*
X772850Y122823D01*
X775209Y117128D01*
X775209Y110964D01*
X772850Y105269D01*
X768491Y100910D01*
X762796Y98551D01*
X735804Y98551D01*
X730109Y100910D01*
X725750Y105269D01*
X723391Y110964D01*
X723391Y117128D01*
X725750Y122823D01*
X730109Y127182D01*
X735804Y129541D01*
X740959Y129541D01*
X741049Y129555D01*
X741140Y129563D01*
X741169Y129575D01*
X741201Y129580D01*
X741282Y129623D01*
X741366Y129659D01*
X741398Y129685D01*
X741419Y129696D01*
X741441Y129719D01*
X741497Y129764D01*
X851438Y239705D01*
X851491Y239779D01*
X851551Y239849D01*
X851563Y239879D01*
X851582Y239905D01*
X851609Y239992D01*
X851643Y240077D01*
X851647Y240118D01*
X851654Y240140D01*
X851653Y240172D01*
X851661Y240243D01*
X851661Y444754D01*
X851658Y444774D01*
X851660Y444793D01*
X851638Y444895D01*
X851622Y444997D01*
X851612Y445014D01*
X851608Y445034D01*
X851555Y445123D01*
X851506Y445214D01*
X851492Y445228D01*
X851482Y445245D01*
X851403Y445312D01*
X851328Y445384D01*
X851310Y445392D01*
X851295Y445405D01*
X851199Y445444D01*
X851105Y445487D01*
X851085Y445489D01*
X851067Y445497D01*
X850900Y445515D01*
X812506Y445515D01*
X812415Y445501D01*
X812325Y445493D01*
X812295Y445481D01*
X812263Y445476D01*
X812182Y445433D01*
X812098Y445397D01*
X812066Y445371D01*
X812045Y445360D01*
X812023Y445337D01*
X811967Y445292D01*
X808701Y442026D01*
X806087Y440943D01*
X801624Y440943D01*
X801604Y440940D01*
X801585Y440942D01*
X801483Y440920D01*
X801381Y440904D01*
X801364Y440894D01*
X801344Y440890D01*
X801255Y440837D01*
X801164Y440788D01*
X801150Y440774D01*
X801133Y440764D01*
X801066Y440685D01*
X800994Y440610D01*
X800986Y440592D01*
X800973Y440577D01*
X800934Y440481D01*
X800891Y440387D01*
X800889Y440367D01*
X800881Y440349D01*
X800863Y440182D01*
X800863Y438924D01*
X793918Y431979D01*
X793907Y431963D01*
X793891Y431950D01*
X793835Y431863D01*
X793775Y431779D01*
X793769Y431760D01*
X793758Y431744D01*
X793733Y431643D01*
X793702Y431544D01*
X793703Y431524D01*
X793698Y431505D01*
X793706Y431402D01*
X793709Y431298D01*
X793716Y431280D01*
X793717Y431260D01*
X793757Y431165D01*
X793793Y431067D01*
X793806Y431052D01*
X793813Y431033D01*
X793918Y430903D01*
X800355Y424466D01*
X800355Y413734D01*
X792766Y406145D01*
X782034Y406145D01*
X774445Y413734D01*
X774445Y424466D01*
X780882Y430903D01*
X780893Y430919D01*
X780909Y430931D01*
X780965Y431019D01*
X781025Y431102D01*
X781031Y431121D01*
X781042Y431138D01*
X781067Y431239D01*
X781098Y431337D01*
X781097Y431357D01*
X781102Y431377D01*
X781094Y431479D01*
X781091Y431583D01*
X781084Y431602D01*
X781083Y431622D01*
X781043Y431717D01*
X781007Y431814D01*
X780994Y431830D01*
X780987Y431848D01*
X780882Y431979D01*
X773937Y438924D01*
X773937Y450076D01*
X781824Y457963D01*
X792976Y457963D01*
X795547Y455392D01*
X795621Y455339D01*
X795691Y455279D01*
X795721Y455267D01*
X795747Y455248D01*
X795834Y455221D01*
X795919Y455187D01*
X795960Y455183D01*
X795982Y455176D01*
X796014Y455177D01*
X796086Y455169D01*
X801410Y455169D01*
X801500Y455183D01*
X801591Y455191D01*
X801621Y455203D01*
X801653Y455208D01*
X801734Y455251D01*
X801818Y455287D01*
X801850Y455313D01*
X801871Y455324D01*
X801893Y455347D01*
X801949Y455392D01*
X803107Y456550D01*
X805215Y458658D01*
X807829Y459741D01*
X850900Y459741D01*
X850920Y459744D01*
X850939Y459742D01*
X851041Y459764D01*
X851143Y459780D01*
X851160Y459790D01*
X851180Y459794D01*
X851269Y459847D01*
X851360Y459896D01*
X851374Y459910D01*
X851391Y459920D01*
X851458Y459999D01*
X851530Y460074D01*
X851538Y460092D01*
X851551Y460107D01*
X851590Y460203D01*
X851633Y460297D01*
X851635Y460317D01*
X851643Y460335D01*
X851661Y460502D01*
X851661Y631778D01*
X851658Y631798D01*
X851660Y631817D01*
X851638Y631919D01*
X851622Y632021D01*
X851612Y632038D01*
X851608Y632058D01*
X851555Y632147D01*
X851506Y632238D01*
X851492Y632252D01*
X851482Y632269D01*
X851403Y632336D01*
X851328Y632408D01*
X851310Y632416D01*
X851295Y632429D01*
X851199Y632468D01*
X851105Y632511D01*
X851085Y632513D01*
X851067Y632521D01*
X850900Y632539D01*
X849147Y632539D01*
X845909Y633881D01*
X844251Y635538D01*
X844177Y635591D01*
X844108Y635651D01*
X844078Y635663D01*
X844052Y635682D01*
X843965Y635709D01*
X843880Y635743D01*
X843839Y635747D01*
X843817Y635754D01*
X843784Y635753D01*
X843713Y635761D01*
X752307Y635761D01*
X752237Y635750D01*
X752165Y635748D01*
X752116Y635730D01*
X752065Y635722D01*
X752002Y635688D01*
X751934Y635663D01*
X751893Y635631D01*
X751847Y635606D01*
X751798Y635555D01*
X751742Y635510D01*
X751714Y635466D01*
X751678Y635428D01*
X751648Y635363D01*
X751609Y635303D01*
X751596Y635252D01*
X751574Y635205D01*
X751566Y635134D01*
X751549Y635064D01*
X751553Y635012D01*
X751547Y634961D01*
X751563Y634890D01*
X751568Y634819D01*
X751588Y634771D01*
X751600Y634720D01*
X751636Y634659D01*
X751664Y634593D01*
X751709Y634537D01*
X751726Y634509D01*
X751743Y634494D01*
X751769Y634462D01*
X801553Y584678D01*
X801627Y584625D01*
X801697Y584565D01*
X801727Y584553D01*
X801753Y584534D01*
X801840Y584507D01*
X801925Y584473D01*
X801966Y584469D01*
X801988Y584462D01*
X802020Y584463D01*
X802092Y584455D01*
X805466Y584455D01*
X813055Y576866D01*
X813055Y566134D01*
X806259Y559338D01*
X806247Y559322D01*
X806232Y559310D01*
X806176Y559222D01*
X806115Y559139D01*
X806110Y559120D01*
X806099Y559103D01*
X806074Y559002D01*
X806043Y558903D01*
X806044Y558884D01*
X806039Y558864D01*
X806047Y558761D01*
X806049Y558658D01*
X806056Y558639D01*
X806058Y558619D01*
X806098Y558524D01*
X806134Y558427D01*
X806146Y558411D01*
X806154Y558393D01*
X806259Y558262D01*
X813055Y551466D01*
X813055Y540734D01*
X805466Y533145D01*
X794734Y533145D01*
X787145Y540734D01*
X787145Y545084D01*
X787142Y545104D01*
X787144Y545123D01*
X787122Y545225D01*
X787106Y545327D01*
X787096Y545344D01*
X787092Y545364D01*
X787039Y545453D01*
X786990Y545544D01*
X786976Y545558D01*
X786966Y545575D01*
X786887Y545642D01*
X786812Y545714D01*
X786794Y545722D01*
X786779Y545735D01*
X786683Y545774D01*
X786589Y545817D01*
X786569Y545819D01*
X786551Y545827D01*
X786384Y545845D01*
X775684Y545845D01*
X768095Y553434D01*
X768095Y564166D01*
X775684Y571755D01*
X786384Y571755D01*
X786404Y571758D01*
X786423Y571756D01*
X786525Y571778D01*
X786627Y571794D01*
X786644Y571804D01*
X786664Y571808D01*
X786753Y571861D01*
X786844Y571910D01*
X786858Y571924D01*
X786875Y571934D01*
X786942Y572013D01*
X787014Y572088D01*
X787022Y572106D01*
X787035Y572121D01*
X787074Y572217D01*
X787117Y572311D01*
X787119Y572331D01*
X787127Y572349D01*
X787145Y572516D01*
X787145Y576866D01*
X787658Y577379D01*
X787670Y577395D01*
X787685Y577407D01*
X787741Y577494D01*
X787801Y577578D01*
X787807Y577597D01*
X787818Y577614D01*
X787843Y577715D01*
X787874Y577813D01*
X787873Y577833D01*
X787878Y577853D01*
X787870Y577956D01*
X787867Y578059D01*
X787861Y578078D01*
X787859Y578098D01*
X787819Y578193D01*
X787783Y578290D01*
X787770Y578306D01*
X787763Y578324D01*
X787658Y578455D01*
X782350Y583763D01*
X782334Y583774D01*
X782322Y583790D01*
X782234Y583846D01*
X782151Y583906D01*
X782132Y583912D01*
X782115Y583923D01*
X782014Y583948D01*
X781915Y583979D01*
X781896Y583978D01*
X781876Y583983D01*
X781773Y583975D01*
X781670Y583972D01*
X781651Y583965D01*
X781631Y583964D01*
X781536Y583924D01*
X781439Y583888D01*
X781423Y583875D01*
X781405Y583868D01*
X781274Y583763D01*
X766288Y568777D01*
X766235Y568703D01*
X766175Y568633D01*
X766163Y568603D01*
X766144Y568577D01*
X766117Y568490D01*
X766083Y568405D01*
X766079Y568364D01*
X766072Y568342D01*
X766073Y568310D01*
X766065Y568239D01*
X766065Y533509D01*
X764982Y530895D01*
X749265Y515178D01*
X746651Y514095D01*
X721066Y514095D01*
X720975Y514081D01*
X720885Y514073D01*
X720855Y514061D01*
X720823Y514056D01*
X720742Y514013D01*
X720658Y513977D01*
X720626Y513951D01*
X720605Y513940D01*
X720583Y513917D01*
X720527Y513872D01*
X687189Y480534D01*
X687147Y480476D01*
X687098Y480424D01*
X687076Y480377D01*
X687046Y480335D01*
X687025Y480266D01*
X686994Y480201D01*
X686989Y480149D01*
X686973Y480099D01*
X686975Y480028D01*
X686967Y479957D01*
X686978Y479906D01*
X686980Y479854D01*
X687004Y479786D01*
X687019Y479716D01*
X687046Y479671D01*
X687064Y479623D01*
X687109Y479567D01*
X687146Y479505D01*
X687185Y479471D01*
X687218Y479431D01*
X687278Y479392D01*
X687333Y479345D01*
X687381Y479326D01*
X687425Y479298D01*
X687494Y479280D01*
X687561Y479253D01*
X687632Y479245D01*
X687663Y479237D01*
X687687Y479239D01*
X687727Y479235D01*
X692936Y479235D01*
X697674Y477272D01*
X701267Y473680D01*
X701341Y473627D01*
X701410Y473567D01*
X701440Y473555D01*
X701466Y473536D01*
X701553Y473509D01*
X701638Y473475D01*
X701679Y473471D01*
X701701Y473464D01*
X701734Y473465D01*
X701805Y473457D01*
X732830Y473457D01*
X732921Y473471D01*
X733011Y473479D01*
X733041Y473491D01*
X733073Y473496D01*
X733154Y473539D01*
X733238Y473575D01*
X733270Y473601D01*
X733291Y473612D01*
X733313Y473635D01*
X733369Y473680D01*
X748437Y488748D01*
X748448Y488764D01*
X748464Y488776D01*
X748520Y488864D01*
X748580Y488947D01*
X748586Y488966D01*
X748597Y488983D01*
X748622Y489084D01*
X748653Y489182D01*
X748652Y489202D01*
X748657Y489222D01*
X748649Y489325D01*
X748646Y489428D01*
X748639Y489447D01*
X748638Y489467D01*
X748597Y489562D01*
X748562Y489659D01*
X748549Y489675D01*
X748541Y489693D01*
X748537Y489698D01*
X748537Y500876D01*
X756424Y508763D01*
X767576Y508763D01*
X775463Y500876D01*
X775463Y489724D01*
X767576Y481837D01*
X761959Y481837D01*
X761869Y481823D01*
X761778Y481815D01*
X761749Y481803D01*
X761717Y481798D01*
X761636Y481755D01*
X761552Y481719D01*
X761520Y481693D01*
X761499Y481682D01*
X761477Y481659D01*
X761421Y481614D01*
X740121Y460314D01*
X737507Y459231D01*
X701805Y459231D01*
X701715Y459217D01*
X701624Y459209D01*
X701594Y459197D01*
X701562Y459192D01*
X701481Y459149D01*
X701398Y459113D01*
X701365Y459087D01*
X701345Y459076D01*
X701323Y459053D01*
X701267Y459008D01*
X697674Y455416D01*
X692936Y453453D01*
X687808Y453453D01*
X683070Y455416D01*
X679444Y459042D01*
X677481Y463780D01*
X677481Y468989D01*
X677470Y469059D01*
X677468Y469131D01*
X677450Y469180D01*
X677442Y469231D01*
X677408Y469295D01*
X677383Y469362D01*
X677351Y469403D01*
X677326Y469449D01*
X677274Y469498D01*
X677230Y469554D01*
X677186Y469582D01*
X677148Y469618D01*
X677083Y469648D01*
X677023Y469687D01*
X676972Y469700D01*
X676925Y469722D01*
X676854Y469730D01*
X676784Y469747D01*
X676732Y469743D01*
X676681Y469749D01*
X676610Y469734D01*
X676539Y469728D01*
X676491Y469708D01*
X676440Y469697D01*
X676379Y469660D01*
X676313Y469632D01*
X676257Y469587D01*
X676229Y469570D01*
X676214Y469553D01*
X676182Y469527D01*
X664393Y457738D01*
X664382Y457722D01*
X664366Y457710D01*
X664310Y457622D01*
X664250Y457539D01*
X664244Y457520D01*
X664233Y457503D01*
X664208Y457402D01*
X664177Y457303D01*
X664178Y457284D01*
X664173Y457264D01*
X664181Y457161D01*
X664184Y457058D01*
X664191Y457039D01*
X664192Y457019D01*
X664233Y456924D01*
X664268Y456827D01*
X664281Y456811D01*
X664288Y456793D01*
X664393Y456662D01*
X665129Y455926D01*
X665145Y455914D01*
X665157Y455899D01*
X665245Y455843D01*
X665329Y455783D01*
X665348Y455777D01*
X665364Y455766D01*
X665465Y455741D01*
X665564Y455710D01*
X665584Y455711D01*
X665603Y455706D01*
X665706Y455714D01*
X665810Y455717D01*
X665828Y455723D01*
X665848Y455725D01*
X665943Y455765D01*
X666041Y455801D01*
X666056Y455813D01*
X666074Y455821D01*
X666205Y455926D01*
X667734Y457455D01*
X678466Y457455D01*
X686055Y449866D01*
X686055Y439134D01*
X679259Y432338D01*
X679247Y432322D01*
X679232Y432310D01*
X679176Y432222D01*
X679115Y432139D01*
X679110Y432120D01*
X679099Y432103D01*
X679074Y432002D01*
X679043Y431903D01*
X679044Y431884D01*
X679039Y431864D01*
X679047Y431761D01*
X679049Y431658D01*
X679056Y431639D01*
X679058Y431619D01*
X679098Y431524D01*
X679134Y431427D01*
X679146Y431411D01*
X679154Y431393D01*
X679259Y431262D01*
X686055Y424466D01*
X686055Y413734D01*
X678466Y406145D01*
X667734Y406145D01*
X660145Y413734D01*
X660145Y424466D01*
X666941Y431262D01*
X666953Y431278D01*
X666968Y431290D01*
X667024Y431378D01*
X667085Y431461D01*
X667090Y431480D01*
X667101Y431497D01*
X667126Y431598D01*
X667157Y431697D01*
X667156Y431716D01*
X667161Y431736D01*
X667153Y431839D01*
X667151Y431942D01*
X667144Y431961D01*
X667142Y431981D01*
X667102Y432076D01*
X667066Y432173D01*
X667054Y432189D01*
X667046Y432207D01*
X666941Y432338D01*
X660145Y439134D01*
X660145Y441006D01*
X660126Y441121D01*
X660109Y441237D01*
X660107Y441243D01*
X660106Y441249D01*
X660051Y441352D01*
X659998Y441456D01*
X659993Y441461D01*
X659990Y441466D01*
X659906Y441546D01*
X659822Y441629D01*
X659816Y441632D01*
X659812Y441636D01*
X659795Y441644D01*
X659675Y441710D01*
X658911Y442026D01*
X654334Y446603D01*
X654318Y446614D01*
X654306Y446630D01*
X654218Y446686D01*
X654135Y446746D01*
X654116Y446752D01*
X654099Y446763D01*
X653998Y446788D01*
X653899Y446819D01*
X653880Y446818D01*
X653860Y446823D01*
X653757Y446815D01*
X653654Y446812D01*
X653635Y446805D01*
X653615Y446804D01*
X653520Y446764D01*
X653423Y446728D01*
X653407Y446715D01*
X653389Y446708D01*
X653258Y446603D01*
X648178Y441523D01*
X648125Y441449D01*
X648065Y441379D01*
X648053Y441349D01*
X648034Y441323D01*
X648007Y441236D01*
X647973Y441151D01*
X647969Y441110D01*
X647962Y441088D01*
X647963Y441056D01*
X647955Y440984D01*
X647955Y439134D01*
X641159Y432338D01*
X641147Y432322D01*
X641132Y432310D01*
X641076Y432222D01*
X641015Y432139D01*
X641010Y432120D01*
X640999Y432103D01*
X640974Y432002D01*
X640943Y431903D01*
X640944Y431884D01*
X640939Y431864D01*
X640947Y431761D01*
X640949Y431658D01*
X640956Y431639D01*
X640958Y431619D01*
X640998Y431524D01*
X641034Y431427D01*
X641046Y431411D01*
X641054Y431393D01*
X641159Y431262D01*
X647955Y424466D01*
X647955Y413734D01*
X640366Y406145D01*
X629634Y406145D01*
X622045Y413734D01*
X622045Y423712D01*
X622031Y423802D01*
X622023Y423893D01*
X622011Y423923D01*
X622006Y423955D01*
X621963Y424036D01*
X621927Y424120D01*
X621901Y424152D01*
X621890Y424173D01*
X621867Y424195D01*
X621822Y424251D01*
X621060Y425013D01*
X621002Y425055D01*
X620950Y425104D01*
X620903Y425126D01*
X620861Y425156D01*
X620792Y425177D01*
X620727Y425208D01*
X620675Y425213D01*
X620625Y425229D01*
X620554Y425227D01*
X620483Y425235D01*
X620432Y425224D01*
X620380Y425222D01*
X620312Y425198D01*
X620242Y425183D01*
X620197Y425156D01*
X620149Y425138D01*
X620093Y425093D01*
X620031Y425056D01*
X619997Y425017D01*
X619957Y424984D01*
X619918Y424924D01*
X619871Y424869D01*
X619852Y424821D01*
X619824Y424777D01*
X619806Y424708D01*
X619779Y424641D01*
X619771Y424570D01*
X619763Y424539D01*
X619765Y424515D01*
X619761Y424475D01*
X619761Y410170D01*
X619775Y410079D01*
X619783Y409989D01*
X619795Y409959D01*
X619800Y409927D01*
X619843Y409846D01*
X619879Y409762D01*
X619905Y409730D01*
X619916Y409709D01*
X619939Y409687D01*
X619984Y409631D01*
X700974Y328641D01*
X701430Y327539D01*
X701454Y327500D01*
X701470Y327457D01*
X701519Y327397D01*
X701560Y327330D01*
X701595Y327301D01*
X701624Y327265D01*
X701689Y327223D01*
X701749Y327174D01*
X701792Y327157D01*
X701831Y327132D01*
X701906Y327113D01*
X701979Y327085D01*
X702025Y327083D01*
X702069Y327072D01*
X702147Y327078D01*
X702225Y327075D01*
X702269Y327088D01*
X702314Y327091D01*
X702386Y327122D01*
X702461Y327144D01*
X702499Y327170D01*
X702541Y327188D01*
X702648Y327273D01*
X702663Y327284D01*
X702666Y327288D01*
X702672Y327292D01*
X705834Y330455D01*
X716566Y330455D01*
X724155Y322866D01*
X724155Y312134D01*
X716566Y304545D01*
X705834Y304545D01*
X702523Y307856D01*
X702486Y307883D01*
X702455Y307917D01*
X702386Y307954D01*
X702323Y308000D01*
X702279Y308013D01*
X702239Y308035D01*
X702162Y308049D01*
X702088Y308072D01*
X702042Y308071D01*
X701997Y308079D01*
X701920Y308068D01*
X701842Y308066D01*
X701799Y308050D01*
X701754Y308043D01*
X701684Y308008D01*
X701611Y307981D01*
X701575Y307953D01*
X701534Y307932D01*
X701480Y307876D01*
X701419Y307828D01*
X701394Y307789D01*
X701362Y307756D01*
X701296Y307636D01*
X701286Y307621D01*
X701285Y307616D01*
X701281Y307609D01*
X700974Y306867D01*
X700969Y306862D01*
X700958Y306846D01*
X700942Y306834D01*
X700886Y306747D01*
X700826Y306663D01*
X700820Y306644D01*
X700809Y306627D01*
X700784Y306526D01*
X700753Y306428D01*
X700754Y306408D01*
X700749Y306388D01*
X700757Y306285D01*
X700760Y306182D01*
X700767Y306163D01*
X700768Y306143D01*
X700808Y306048D01*
X700844Y305951D01*
X700857Y305935D01*
X700864Y305917D01*
X700945Y305816D01*
X700948Y305810D01*
X700952Y305807D01*
X700969Y305786D01*
X714690Y292065D01*
X715773Y289451D01*
X715773Y71737D01*
X714690Y69123D01*
X671505Y25938D01*
X671463Y25880D01*
X671414Y25828D01*
X671392Y25781D01*
X671362Y25739D01*
X671341Y25670D01*
X671310Y25605D01*
X671305Y25553D01*
X671289Y25503D01*
X671291Y25432D01*
X671283Y25361D01*
X671294Y25310D01*
X671296Y25258D01*
X671320Y25190D01*
X671336Y25120D01*
X671362Y25076D01*
X671380Y25027D01*
X671425Y24971D01*
X671462Y24909D01*
X671501Y24875D01*
X671534Y24835D01*
X671594Y24796D01*
X671649Y24749D01*
X671697Y24730D01*
X671741Y24702D01*
X671810Y24684D01*
X671877Y24657D01*
X671948Y24649D01*
X671979Y24641D01*
X672003Y24643D01*
X672043Y24639D01*
X843713Y24639D01*
X843803Y24654D01*
G37*
G36*
X530506Y485810D02*
X530506Y485810D01*
X530558Y485812D01*
X530626Y485836D01*
X530696Y485851D01*
X530741Y485878D01*
X530789Y485896D01*
X530845Y485941D01*
X530907Y485978D01*
X530941Y486017D01*
X530981Y486050D01*
X531020Y486110D01*
X531067Y486165D01*
X531086Y486213D01*
X531114Y486257D01*
X531132Y486326D01*
X531159Y486393D01*
X531167Y486464D01*
X531175Y486495D01*
X531173Y486519D01*
X531177Y486559D01*
X531177Y487196D01*
X533140Y491934D01*
X536766Y495560D01*
X541504Y497523D01*
X546632Y497523D01*
X551370Y495560D01*
X554963Y491968D01*
X555037Y491915D01*
X555106Y491855D01*
X555136Y491843D01*
X555162Y491824D01*
X555249Y491797D01*
X555334Y491763D01*
X555375Y491759D01*
X555397Y491752D01*
X555430Y491753D01*
X555501Y491745D01*
X655106Y491745D01*
X655197Y491759D01*
X655287Y491767D01*
X655317Y491779D01*
X655349Y491784D01*
X655430Y491827D01*
X655514Y491863D01*
X655546Y491889D01*
X655567Y491900D01*
X655589Y491923D01*
X655645Y491968D01*
X676473Y512796D01*
X676515Y512854D01*
X676564Y512906D01*
X676586Y512953D01*
X676616Y512995D01*
X676637Y513064D01*
X676668Y513129D01*
X676673Y513181D01*
X676689Y513231D01*
X676687Y513302D01*
X676695Y513373D01*
X676684Y513424D01*
X676682Y513476D01*
X676658Y513544D01*
X676643Y513614D01*
X676616Y513659D01*
X676598Y513707D01*
X676553Y513763D01*
X676516Y513825D01*
X676477Y513859D01*
X676444Y513899D01*
X676384Y513938D01*
X676329Y513985D01*
X676281Y514004D01*
X676237Y514032D01*
X676168Y514050D01*
X676101Y514077D01*
X676030Y514085D01*
X675999Y514093D01*
X675975Y514091D01*
X675935Y514095D01*
X661525Y514095D01*
X658911Y515178D01*
X641167Y532922D01*
X641093Y532975D01*
X641023Y533035D01*
X640993Y533047D01*
X640967Y533066D01*
X640880Y533093D01*
X640795Y533127D01*
X640754Y533131D01*
X640732Y533138D01*
X640700Y533137D01*
X640628Y533145D01*
X629634Y533145D01*
X622045Y540734D01*
X622045Y551466D01*
X628751Y558172D01*
X628763Y558188D01*
X628778Y558201D01*
X628834Y558288D01*
X628895Y558372D01*
X628901Y558391D01*
X628911Y558407D01*
X628937Y558508D01*
X628967Y558607D01*
X628967Y558627D01*
X628971Y558646D01*
X628963Y558749D01*
X628961Y558853D01*
X628954Y558871D01*
X628952Y558891D01*
X628912Y558986D01*
X628876Y559084D01*
X628864Y559099D01*
X628856Y559117D01*
X628751Y559248D01*
X621918Y566081D01*
X621918Y576919D01*
X629581Y584582D01*
X640419Y584582D01*
X648082Y576919D01*
X648082Y566081D01*
X641249Y559248D01*
X641237Y559232D01*
X641222Y559220D01*
X641165Y559132D01*
X641105Y559049D01*
X641099Y559030D01*
X641089Y559013D01*
X641063Y558912D01*
X641033Y558814D01*
X641033Y558794D01*
X641029Y558774D01*
X641037Y558671D01*
X641039Y558568D01*
X641046Y558549D01*
X641048Y558529D01*
X641088Y558434D01*
X641124Y558337D01*
X641136Y558321D01*
X641144Y558303D01*
X641249Y558172D01*
X647955Y551466D01*
X647955Y546568D01*
X647969Y546477D01*
X647977Y546387D01*
X647989Y546357D01*
X647994Y546325D01*
X648037Y546244D01*
X648073Y546160D01*
X648099Y546128D01*
X648110Y546107D01*
X648133Y546085D01*
X648178Y546029D01*
X665663Y528544D01*
X665737Y528491D01*
X665807Y528431D01*
X665837Y528419D01*
X665863Y528400D01*
X665950Y528373D01*
X666035Y528339D01*
X666076Y528335D01*
X666098Y528328D01*
X666130Y528329D01*
X666202Y528321D01*
X677966Y528321D01*
X678057Y528335D01*
X678147Y528343D01*
X678177Y528355D01*
X678209Y528360D01*
X678290Y528403D01*
X678374Y528439D01*
X678406Y528465D01*
X678427Y528476D01*
X678449Y528499D01*
X678505Y528544D01*
X687608Y537647D01*
X687661Y537721D01*
X687721Y537791D01*
X687733Y537821D01*
X687752Y537847D01*
X687779Y537934D01*
X687813Y538019D01*
X687817Y538060D01*
X687824Y538082D01*
X687823Y538114D01*
X687831Y538186D01*
X687831Y540911D01*
X688914Y543525D01*
X704372Y558983D01*
X704425Y559057D01*
X704485Y559127D01*
X704497Y559157D01*
X704516Y559183D01*
X704543Y559270D01*
X704577Y559355D01*
X704581Y559396D01*
X704588Y559418D01*
X704587Y559450D01*
X704595Y559522D01*
X704595Y564166D01*
X712184Y571755D01*
X722884Y571755D01*
X722904Y571758D01*
X722923Y571756D01*
X723025Y571778D01*
X723127Y571794D01*
X723144Y571804D01*
X723164Y571808D01*
X723253Y571861D01*
X723344Y571910D01*
X723358Y571924D01*
X723375Y571934D01*
X723442Y572013D01*
X723514Y572088D01*
X723522Y572106D01*
X723535Y572121D01*
X723574Y572217D01*
X723617Y572311D01*
X723619Y572331D01*
X723627Y572349D01*
X723645Y572516D01*
X723645Y576866D01*
X731234Y584455D01*
X741966Y584455D01*
X749555Y576866D01*
X749555Y566134D01*
X742759Y559338D01*
X742747Y559322D01*
X742732Y559310D01*
X742676Y559222D01*
X742615Y559139D01*
X742610Y559120D01*
X742599Y559103D01*
X742574Y559002D01*
X742543Y558903D01*
X742544Y558884D01*
X742539Y558864D01*
X742547Y558761D01*
X742549Y558658D01*
X742556Y558639D01*
X742558Y558619D01*
X742598Y558524D01*
X742634Y558427D01*
X742646Y558411D01*
X742654Y558393D01*
X742759Y558262D01*
X749555Y551466D01*
X749555Y540734D01*
X741966Y533145D01*
X740116Y533145D01*
X740025Y533131D01*
X739935Y533123D01*
X739905Y533111D01*
X739873Y533106D01*
X739792Y533063D01*
X739708Y533027D01*
X739676Y533001D01*
X739655Y532990D01*
X739633Y532967D01*
X739577Y532922D01*
X736275Y529620D01*
X736233Y529562D01*
X736184Y529510D01*
X736162Y529463D01*
X736132Y529421D01*
X736111Y529352D01*
X736080Y529287D01*
X736075Y529235D01*
X736059Y529185D01*
X736061Y529114D01*
X736053Y529043D01*
X736064Y528992D01*
X736066Y528940D01*
X736090Y528872D01*
X736105Y528802D01*
X736132Y528757D01*
X736150Y528709D01*
X736195Y528653D01*
X736232Y528591D01*
X736271Y528557D01*
X736304Y528517D01*
X736364Y528478D01*
X736419Y528431D01*
X736467Y528412D01*
X736511Y528384D01*
X736580Y528366D01*
X736647Y528339D01*
X736718Y528331D01*
X736749Y528323D01*
X736773Y528325D01*
X736813Y528321D01*
X741974Y528321D01*
X742065Y528335D01*
X742155Y528343D01*
X742185Y528355D01*
X742217Y528360D01*
X742298Y528403D01*
X742382Y528439D01*
X742414Y528465D01*
X742435Y528476D01*
X742457Y528499D01*
X742513Y528544D01*
X751616Y537647D01*
X751669Y537721D01*
X751729Y537791D01*
X751741Y537821D01*
X751760Y537847D01*
X751787Y537934D01*
X751821Y538019D01*
X751825Y538060D01*
X751832Y538082D01*
X751831Y538114D01*
X751839Y538186D01*
X751839Y572915D01*
X752922Y575529D01*
X755030Y577637D01*
X771215Y593822D01*
X771226Y593838D01*
X771242Y593850D01*
X771298Y593938D01*
X771358Y594021D01*
X771364Y594040D01*
X771375Y594057D01*
X771400Y594158D01*
X771431Y594257D01*
X771430Y594276D01*
X771435Y594296D01*
X771427Y594399D01*
X771424Y594502D01*
X771417Y594521D01*
X771416Y594541D01*
X771376Y594636D01*
X771340Y594733D01*
X771327Y594749D01*
X771320Y594767D01*
X771215Y594898D01*
X730575Y635538D01*
X730501Y635591D01*
X730431Y635651D01*
X730401Y635663D01*
X730375Y635682D01*
X730288Y635709D01*
X730203Y635743D01*
X730162Y635747D01*
X730140Y635754D01*
X730108Y635753D01*
X730037Y635761D01*
X720303Y635761D01*
X720233Y635750D01*
X720161Y635748D01*
X720112Y635730D01*
X720061Y635722D01*
X719998Y635688D01*
X719930Y635663D01*
X719889Y635631D01*
X719843Y635606D01*
X719794Y635555D01*
X719738Y635510D01*
X719710Y635466D01*
X719674Y635428D01*
X719644Y635363D01*
X719605Y635303D01*
X719592Y635252D01*
X719570Y635205D01*
X719562Y635134D01*
X719545Y635064D01*
X719549Y635012D01*
X719543Y634961D01*
X719559Y634890D01*
X719564Y634819D01*
X719584Y634771D01*
X719596Y634720D01*
X719632Y634659D01*
X719660Y634593D01*
X719705Y634537D01*
X719722Y634509D01*
X719739Y634494D01*
X719765Y634462D01*
X733037Y621190D01*
X733111Y621137D01*
X733181Y621077D01*
X733211Y621065D01*
X733237Y621046D01*
X733324Y621019D01*
X733409Y620985D01*
X733450Y620981D01*
X733472Y620974D01*
X733504Y620975D01*
X733576Y620967D01*
X738656Y620967D01*
X743394Y619004D01*
X747020Y615378D01*
X748983Y610640D01*
X748983Y605512D01*
X747020Y600774D01*
X743394Y597148D01*
X738656Y595185D01*
X733528Y595185D01*
X728790Y597148D01*
X725164Y600774D01*
X723201Y605512D01*
X723201Y610592D01*
X723187Y610683D01*
X723179Y610773D01*
X723167Y610803D01*
X723162Y610835D01*
X723119Y610916D01*
X723083Y611000D01*
X723057Y611032D01*
X723046Y611053D01*
X723023Y611075D01*
X722978Y611131D01*
X707143Y626966D01*
X707069Y627019D01*
X706999Y627079D01*
X706969Y627091D01*
X706943Y627110D01*
X706856Y627137D01*
X706771Y627171D01*
X706730Y627175D01*
X706708Y627182D01*
X706676Y627181D01*
X706604Y627189D01*
X701524Y627189D01*
X696786Y629152D01*
X693160Y632778D01*
X692119Y635291D01*
X692057Y635391D01*
X691997Y635491D01*
X691992Y635495D01*
X691989Y635500D01*
X691899Y635575D01*
X691810Y635651D01*
X691804Y635653D01*
X691800Y635657D01*
X691691Y635699D01*
X691582Y635743D01*
X691575Y635744D01*
X691570Y635745D01*
X691552Y635746D01*
X691415Y635761D01*
X578571Y635761D01*
X578501Y635750D01*
X578429Y635748D01*
X578380Y635730D01*
X578329Y635722D01*
X578266Y635688D01*
X578198Y635663D01*
X578157Y635631D01*
X578111Y635606D01*
X578062Y635555D01*
X578006Y635510D01*
X577978Y635466D01*
X577942Y635428D01*
X577912Y635363D01*
X577873Y635303D01*
X577860Y635252D01*
X577838Y635205D01*
X577830Y635134D01*
X577813Y635064D01*
X577817Y635012D01*
X577811Y634961D01*
X577827Y634890D01*
X577832Y634819D01*
X577852Y634771D01*
X577864Y634720D01*
X577900Y634659D01*
X577928Y634593D01*
X577973Y634537D01*
X577990Y634509D01*
X578007Y634494D01*
X578033Y634462D01*
X600390Y612105D01*
X601075Y610452D01*
X601137Y610352D01*
X601196Y610252D01*
X601201Y610248D01*
X601204Y610243D01*
X601295Y610168D01*
X601383Y610092D01*
X601389Y610090D01*
X601394Y610086D01*
X601502Y610044D01*
X601611Y610000D01*
X601619Y609999D01*
X601623Y609998D01*
X601642Y609997D01*
X601778Y609982D01*
X602319Y609982D01*
X609982Y602319D01*
X609982Y591481D01*
X603239Y584738D01*
X603227Y584722D01*
X603211Y584710D01*
X603155Y584622D01*
X603095Y584539D01*
X603089Y584520D01*
X603078Y584503D01*
X603053Y584402D01*
X603023Y584303D01*
X603023Y584284D01*
X603018Y584264D01*
X603026Y584161D01*
X603029Y584058D01*
X603036Y584039D01*
X603038Y584019D01*
X603078Y583924D01*
X603114Y583827D01*
X603126Y583811D01*
X603134Y583793D01*
X603239Y583662D01*
X609982Y576919D01*
X609982Y566081D01*
X603149Y559248D01*
X603137Y559232D01*
X603122Y559220D01*
X603065Y559132D01*
X603005Y559049D01*
X602999Y559030D01*
X602989Y559013D01*
X602963Y558912D01*
X602933Y558814D01*
X602933Y558794D01*
X602929Y558774D01*
X602937Y558671D01*
X602939Y558568D01*
X602946Y558549D01*
X602948Y558529D01*
X602988Y558434D01*
X603024Y558337D01*
X603036Y558321D01*
X603044Y558303D01*
X603149Y558172D01*
X609855Y551466D01*
X609855Y540734D01*
X602266Y533145D01*
X591534Y533145D01*
X583945Y540734D01*
X583945Y551466D01*
X590651Y558172D01*
X590663Y558188D01*
X590678Y558201D01*
X590734Y558288D01*
X590795Y558372D01*
X590801Y558391D01*
X590811Y558407D01*
X590837Y558508D01*
X590867Y558607D01*
X590867Y558627D01*
X590871Y558646D01*
X590863Y558749D01*
X590861Y558853D01*
X590854Y558871D01*
X590852Y558891D01*
X590812Y558986D01*
X590776Y559084D01*
X590764Y559099D01*
X590756Y559117D01*
X590651Y559248D01*
X583818Y566081D01*
X583818Y576919D01*
X590561Y583662D01*
X590573Y583678D01*
X590589Y583690D01*
X590645Y583778D01*
X590705Y583861D01*
X590711Y583880D01*
X590722Y583897D01*
X590747Y583998D01*
X590777Y584097D01*
X590777Y584116D01*
X590782Y584136D01*
X590774Y584239D01*
X590771Y584342D01*
X590764Y584361D01*
X590762Y584381D01*
X590722Y584476D01*
X590686Y584573D01*
X590674Y584589D01*
X590666Y584607D01*
X590561Y584738D01*
X583818Y591481D01*
X583818Y602319D01*
X586400Y604900D01*
X586412Y604917D01*
X586427Y604929D01*
X586483Y605016D01*
X586544Y605100D01*
X586549Y605119D01*
X586560Y605136D01*
X586586Y605236D01*
X586616Y605335D01*
X586615Y605355D01*
X586620Y605374D01*
X586612Y605477D01*
X586610Y605581D01*
X586603Y605600D01*
X586601Y605620D01*
X586561Y605715D01*
X586525Y605812D01*
X586513Y605828D01*
X586505Y605846D01*
X586400Y605977D01*
X556839Y635538D01*
X556765Y635591D01*
X556695Y635651D01*
X556665Y635663D01*
X556639Y635682D01*
X556552Y635709D01*
X556467Y635743D01*
X556426Y635747D01*
X556404Y635754D01*
X556372Y635753D01*
X556301Y635761D01*
X456577Y635761D01*
X456532Y635754D01*
X456486Y635756D01*
X456411Y635734D01*
X456335Y635722D01*
X456294Y635700D01*
X456250Y635687D01*
X456186Y635643D01*
X456117Y635606D01*
X456086Y635573D01*
X456048Y635547D01*
X456001Y635484D01*
X455948Y635428D01*
X455929Y635386D01*
X455901Y635350D01*
X455877Y635276D01*
X455844Y635205D01*
X455839Y635159D01*
X455825Y635116D01*
X455826Y635038D01*
X455817Y634961D01*
X455827Y634916D01*
X455827Y634870D01*
X455865Y634738D01*
X455869Y634720D01*
X455872Y634716D01*
X455874Y634709D01*
X456375Y633500D01*
X456375Y628372D01*
X454412Y623634D01*
X450786Y620008D01*
X448584Y619096D01*
X448545Y619071D01*
X448502Y619056D01*
X448441Y619007D01*
X448375Y618966D01*
X448345Y618931D01*
X448310Y618902D01*
X448268Y618837D01*
X448218Y618777D01*
X448202Y618734D01*
X448177Y618695D01*
X448158Y618619D01*
X448130Y618547D01*
X448128Y618501D01*
X448117Y618457D01*
X448123Y618379D01*
X448119Y618301D01*
X448132Y618257D01*
X448136Y618211D01*
X448166Y618140D01*
X448188Y618065D01*
X448214Y618027D01*
X448232Y617985D01*
X448317Y617878D01*
X448328Y617863D01*
X448332Y617860D01*
X448337Y617854D01*
X449621Y616570D01*
X467802Y598389D01*
X468885Y595775D01*
X468885Y544789D01*
X468896Y544719D01*
X468898Y544647D01*
X468916Y544598D01*
X468924Y544547D01*
X468958Y544483D01*
X468983Y544416D01*
X469015Y544375D01*
X469040Y544329D01*
X469092Y544280D01*
X469136Y544224D01*
X469180Y544196D01*
X469218Y544160D01*
X469283Y544130D01*
X469343Y544091D01*
X469394Y544078D01*
X469441Y544056D01*
X469512Y544048D01*
X469582Y544031D01*
X469634Y544035D01*
X469685Y544029D01*
X469756Y544044D01*
X469827Y544050D01*
X469875Y544070D01*
X469926Y544081D01*
X469987Y544118D01*
X470053Y544146D01*
X470109Y544191D01*
X470137Y544208D01*
X470152Y544225D01*
X470184Y544251D01*
X486966Y561033D01*
X487004Y561086D01*
X487050Y561133D01*
X487091Y561206D01*
X487110Y561233D01*
X487115Y561251D01*
X487131Y561280D01*
X489144Y566138D01*
X492788Y569782D01*
X495236Y570797D01*
X495297Y570835D01*
X495363Y570864D01*
X495401Y570899D01*
X495445Y570926D01*
X495491Y570982D01*
X495544Y571030D01*
X495569Y571076D01*
X495602Y571116D01*
X495628Y571183D01*
X495662Y571246D01*
X495672Y571297D01*
X495690Y571345D01*
X495693Y571417D01*
X495706Y571488D01*
X495699Y571539D01*
X495701Y571591D01*
X495681Y571660D01*
X495670Y571731D01*
X495647Y571777D01*
X495632Y571827D01*
X495591Y571886D01*
X495559Y571950D01*
X495522Y571987D01*
X495492Y572029D01*
X495434Y572072D01*
X495383Y572122D01*
X495320Y572157D01*
X495295Y572176D01*
X495272Y572183D01*
X495236Y572203D01*
X492788Y573218D01*
X489144Y576862D01*
X487171Y581623D01*
X487171Y586777D01*
X489144Y591538D01*
X492788Y595182D01*
X497549Y597155D01*
X518451Y597155D01*
X523212Y595182D01*
X525843Y592552D01*
X525917Y592499D01*
X525986Y592439D01*
X526017Y592427D01*
X526043Y592408D01*
X526130Y592381D01*
X526215Y592347D01*
X526256Y592343D01*
X526278Y592336D01*
X526310Y592337D01*
X526381Y592329D01*
X531767Y592329D01*
X534381Y591246D01*
X534386Y591241D01*
X534402Y591230D01*
X534414Y591214D01*
X534501Y591158D01*
X534585Y591098D01*
X534604Y591092D01*
X534621Y591081D01*
X534722Y591056D01*
X534820Y591025D01*
X534840Y591026D01*
X534860Y591021D01*
X534963Y591029D01*
X535066Y591032D01*
X535085Y591039D01*
X535105Y591040D01*
X535200Y591080D01*
X535297Y591116D01*
X535313Y591129D01*
X535331Y591136D01*
X535462Y591241D01*
X544611Y600390D01*
X545248Y600654D01*
X545348Y600715D01*
X545448Y600775D01*
X545452Y600780D01*
X545457Y600784D01*
X545532Y600873D01*
X545608Y600962D01*
X545610Y600968D01*
X545614Y600973D01*
X545656Y601081D01*
X545700Y601190D01*
X545701Y601198D01*
X545702Y601203D01*
X545703Y601221D01*
X545718Y601357D01*
X545718Y602319D01*
X553381Y609982D01*
X564219Y609982D01*
X571882Y602319D01*
X571882Y591481D01*
X565139Y584738D01*
X565127Y584722D01*
X565111Y584710D01*
X565055Y584622D01*
X564995Y584539D01*
X564989Y584520D01*
X564978Y584503D01*
X564953Y584402D01*
X564923Y584303D01*
X564923Y584284D01*
X564918Y584264D01*
X564926Y584161D01*
X564929Y584058D01*
X564936Y584039D01*
X564938Y584019D01*
X564978Y583924D01*
X565014Y583827D01*
X565026Y583811D01*
X565034Y583793D01*
X565139Y583662D01*
X571882Y576919D01*
X571882Y566081D01*
X565049Y559248D01*
X565037Y559232D01*
X565022Y559220D01*
X564965Y559132D01*
X564905Y559049D01*
X564899Y559030D01*
X564889Y559013D01*
X564863Y558912D01*
X564833Y558814D01*
X564833Y558794D01*
X564829Y558774D01*
X564837Y558671D01*
X564839Y558568D01*
X564846Y558549D01*
X564848Y558529D01*
X564888Y558434D01*
X564924Y558337D01*
X564936Y558321D01*
X564944Y558303D01*
X565049Y558172D01*
X571755Y551466D01*
X571755Y540734D01*
X564166Y533145D01*
X553434Y533145D01*
X545845Y540734D01*
X545845Y551466D01*
X552551Y558172D01*
X552563Y558188D01*
X552578Y558201D01*
X552634Y558288D01*
X552695Y558372D01*
X552701Y558391D01*
X552711Y558407D01*
X552737Y558508D01*
X552767Y558607D01*
X552767Y558627D01*
X552771Y558646D01*
X552763Y558749D01*
X552761Y558853D01*
X552754Y558871D01*
X552752Y558891D01*
X552712Y558986D01*
X552676Y559084D01*
X552664Y559099D01*
X552656Y559117D01*
X552551Y559248D01*
X545718Y566081D01*
X545718Y576919D01*
X552461Y583662D01*
X552473Y583678D01*
X552489Y583690D01*
X552545Y583778D01*
X552605Y583861D01*
X552611Y583880D01*
X552622Y583897D01*
X552647Y583998D01*
X552677Y584097D01*
X552677Y584116D01*
X552682Y584136D01*
X552674Y584239D01*
X552671Y584342D01*
X552664Y584361D01*
X552662Y584381D01*
X552622Y584476D01*
X552586Y584573D01*
X552574Y584589D01*
X552566Y584607D01*
X552461Y584738D01*
X551308Y585892D01*
X551291Y585904D01*
X551279Y585919D01*
X551192Y585975D01*
X551108Y586036D01*
X551089Y586041D01*
X551072Y586052D01*
X550971Y586078D01*
X550873Y586108D01*
X550853Y586107D01*
X550833Y586112D01*
X550731Y586104D01*
X550627Y586102D01*
X550608Y586095D01*
X550588Y586093D01*
X550494Y586053D01*
X550396Y586017D01*
X550380Y586005D01*
X550362Y585997D01*
X550231Y585892D01*
X538953Y574614D01*
X536339Y573531D01*
X533509Y573531D01*
X530895Y574614D01*
X528187Y577322D01*
X528149Y577349D01*
X528118Y577383D01*
X528050Y577421D01*
X527987Y577466D01*
X527943Y577479D01*
X527903Y577502D01*
X527826Y577515D01*
X527752Y577538D01*
X527706Y577537D01*
X527661Y577545D01*
X527584Y577534D01*
X527506Y577532D01*
X527463Y577516D01*
X527417Y577510D01*
X527348Y577474D01*
X527275Y577448D01*
X527239Y577419D01*
X527198Y577398D01*
X527144Y577342D01*
X527083Y577294D01*
X527058Y577255D01*
X527026Y577222D01*
X526960Y577103D01*
X526950Y577087D01*
X526949Y577082D01*
X526945Y577075D01*
X526856Y576862D01*
X523212Y573218D01*
X520764Y572203D01*
X520703Y572165D01*
X520637Y572136D01*
X520599Y572101D01*
X520555Y572074D01*
X520509Y572018D01*
X520456Y571970D01*
X520431Y571924D01*
X520398Y571884D01*
X520372Y571817D01*
X520338Y571754D01*
X520328Y571703D01*
X520310Y571655D01*
X520307Y571583D01*
X520294Y571512D01*
X520301Y571461D01*
X520299Y571409D01*
X520319Y571340D01*
X520330Y571269D01*
X520353Y571223D01*
X520368Y571173D01*
X520409Y571114D01*
X520441Y571050D01*
X520478Y571013D01*
X520508Y570971D01*
X520566Y570928D01*
X520617Y570878D01*
X520680Y570843D01*
X520705Y570824D01*
X520728Y570817D01*
X520764Y570797D01*
X523212Y569782D01*
X526856Y566138D01*
X528829Y561377D01*
X528829Y556223D01*
X526856Y551462D01*
X523212Y547818D01*
X520764Y546803D01*
X520703Y546765D01*
X520637Y546736D01*
X520599Y546701D01*
X520555Y546674D01*
X520509Y546618D01*
X520456Y546570D01*
X520431Y546524D01*
X520398Y546484D01*
X520372Y546417D01*
X520338Y546354D01*
X520328Y546303D01*
X520310Y546255D01*
X520307Y546183D01*
X520294Y546112D01*
X520301Y546061D01*
X520299Y546009D01*
X520319Y545940D01*
X520330Y545869D01*
X520353Y545823D01*
X520368Y545773D01*
X520409Y545714D01*
X520441Y545650D01*
X520478Y545613D01*
X520508Y545571D01*
X520566Y545528D01*
X520617Y545478D01*
X520663Y545452D01*
X520672Y545444D01*
X520685Y545439D01*
X520705Y545424D01*
X520728Y545417D01*
X520764Y545397D01*
X523212Y544382D01*
X526856Y540738D01*
X528829Y535977D01*
X528829Y530823D01*
X526856Y526062D01*
X523212Y522418D01*
X520764Y521403D01*
X520703Y521365D01*
X520637Y521336D01*
X520599Y521301D01*
X520555Y521274D01*
X520509Y521218D01*
X520456Y521170D01*
X520431Y521124D01*
X520398Y521084D01*
X520372Y521017D01*
X520338Y520954D01*
X520328Y520903D01*
X520310Y520855D01*
X520307Y520783D01*
X520294Y520712D01*
X520301Y520661D01*
X520299Y520609D01*
X520319Y520540D01*
X520330Y520469D01*
X520353Y520423D01*
X520368Y520373D01*
X520409Y520314D01*
X520441Y520250D01*
X520478Y520213D01*
X520508Y520171D01*
X520566Y520128D01*
X520617Y520078D01*
X520680Y520043D01*
X520705Y520024D01*
X520728Y520017D01*
X520764Y519997D01*
X523212Y518982D01*
X526856Y515338D01*
X528829Y510577D01*
X528829Y505423D01*
X526856Y500662D01*
X523212Y497018D01*
X520764Y496003D01*
X520703Y495965D01*
X520637Y495936D01*
X520599Y495901D01*
X520555Y495874D01*
X520509Y495818D01*
X520456Y495770D01*
X520431Y495724D01*
X520398Y495684D01*
X520372Y495617D01*
X520338Y495554D01*
X520328Y495503D01*
X520310Y495455D01*
X520307Y495383D01*
X520294Y495312D01*
X520301Y495261D01*
X520299Y495209D01*
X520319Y495140D01*
X520330Y495069D01*
X520353Y495023D01*
X520368Y494973D01*
X520409Y494914D01*
X520441Y494850D01*
X520478Y494813D01*
X520508Y494771D01*
X520566Y494728D01*
X520617Y494678D01*
X520680Y494643D01*
X520705Y494624D01*
X520728Y494617D01*
X520764Y494597D01*
X523212Y493582D01*
X526856Y489938D01*
X528049Y487060D01*
X528097Y486983D01*
X528138Y486902D01*
X528161Y486879D01*
X528178Y486851D01*
X528248Y486793D01*
X528314Y486729D01*
X528350Y486709D01*
X528368Y486695D01*
X528398Y486683D01*
X528461Y486648D01*
X529809Y486090D01*
X529878Y486021D01*
X529936Y485979D01*
X529988Y485930D01*
X530035Y485908D01*
X530077Y485878D01*
X530146Y485857D01*
X530211Y485826D01*
X530263Y485821D01*
X530312Y485805D01*
X530384Y485807D01*
X530455Y485799D01*
X530506Y485810D01*
G37*
G36*
X342270Y171724D02*
X342270Y171724D01*
X342386Y171741D01*
X342392Y171743D01*
X342398Y171744D01*
X342501Y171799D01*
X342606Y171852D01*
X342610Y171857D01*
X342616Y171860D01*
X342695Y171944D01*
X342778Y172028D01*
X342782Y172034D01*
X342785Y172038D01*
X342793Y172055D01*
X342859Y172175D01*
X343326Y173302D01*
X347398Y177374D01*
X347964Y177609D01*
X348003Y177633D01*
X348046Y177649D01*
X348107Y177697D01*
X348173Y177738D01*
X348202Y177774D01*
X348238Y177802D01*
X348280Y177868D01*
X348330Y177928D01*
X348346Y177971D01*
X348371Y178009D01*
X348390Y178085D01*
X348418Y178157D01*
X348420Y178203D01*
X348431Y178248D01*
X348425Y178325D01*
X348428Y178403D01*
X348415Y178447D01*
X348412Y178493D01*
X348381Y178564D01*
X348360Y178639D01*
X348333Y178677D01*
X348315Y178719D01*
X348230Y178826D01*
X348219Y178841D01*
X348215Y178844D01*
X348211Y178850D01*
X342137Y184924D01*
X342137Y196076D01*
X350024Y203963D01*
X350252Y203963D01*
X350323Y203974D01*
X350395Y203976D01*
X350444Y203994D01*
X350495Y204002D01*
X350558Y204036D01*
X350626Y204061D01*
X350666Y204093D01*
X350713Y204118D01*
X350762Y204170D01*
X350818Y204214D01*
X350846Y204258D01*
X350882Y204296D01*
X350912Y204361D01*
X350951Y204421D01*
X350964Y204472D01*
X350986Y204519D01*
X350993Y204590D01*
X351011Y204660D01*
X351007Y204712D01*
X351013Y204763D01*
X350997Y204834D01*
X350992Y204905D01*
X350971Y204953D01*
X350960Y205004D01*
X350924Y205065D01*
X350895Y205131D01*
X350851Y205187D01*
X350834Y205215D01*
X350816Y205230D01*
X350791Y205262D01*
X344677Y211376D01*
X344677Y214377D01*
X354838Y214377D01*
X354858Y214380D01*
X354877Y214378D01*
X354979Y214400D01*
X355081Y214417D01*
X355098Y214426D01*
X355118Y214430D01*
X355207Y214483D01*
X355298Y214532D01*
X355312Y214546D01*
X355329Y214556D01*
X355396Y214635D01*
X355467Y214710D01*
X355476Y214728D01*
X355489Y214743D01*
X355527Y214839D01*
X355571Y214933D01*
X355573Y214953D01*
X355581Y214971D01*
X355599Y215138D01*
X355599Y215901D01*
X355601Y215901D01*
X355601Y215138D01*
X355604Y215118D01*
X355602Y215099D01*
X355624Y214997D01*
X355641Y214895D01*
X355650Y214878D01*
X355654Y214858D01*
X355707Y214769D01*
X355756Y214678D01*
X355770Y214664D01*
X355780Y214647D01*
X355859Y214580D01*
X355934Y214509D01*
X355952Y214500D01*
X355967Y214487D01*
X356063Y214448D01*
X356157Y214405D01*
X356177Y214403D01*
X356195Y214395D01*
X356362Y214377D01*
X366523Y214377D01*
X366523Y211376D01*
X360409Y205262D01*
X360367Y205204D01*
X360318Y205152D01*
X360296Y205105D01*
X360266Y205063D01*
X360245Y204994D01*
X360214Y204929D01*
X360209Y204877D01*
X360193Y204827D01*
X360195Y204756D01*
X360187Y204685D01*
X360198Y204634D01*
X360200Y204582D01*
X360224Y204514D01*
X360240Y204444D01*
X360266Y204399D01*
X360284Y204351D01*
X360329Y204295D01*
X360366Y204233D01*
X360405Y204199D01*
X360438Y204159D01*
X360498Y204120D01*
X360553Y204073D01*
X360601Y204054D01*
X360645Y204026D01*
X360714Y204008D01*
X360781Y203981D01*
X360852Y203973D01*
X360883Y203965D01*
X360907Y203967D01*
X360948Y203963D01*
X361176Y203963D01*
X369063Y196076D01*
X369063Y184924D01*
X362989Y178850D01*
X362963Y178813D01*
X362929Y178782D01*
X362891Y178714D01*
X362846Y178650D01*
X362832Y178607D01*
X362810Y178566D01*
X362796Y178490D01*
X362773Y178415D01*
X362775Y178369D01*
X362766Y178324D01*
X362778Y178247D01*
X362780Y178169D01*
X362796Y178126D01*
X362802Y178081D01*
X362837Y178012D01*
X362864Y177938D01*
X362893Y177903D01*
X362914Y177862D01*
X362969Y177807D01*
X363018Y177746D01*
X363057Y177722D01*
X363089Y177689D01*
X363209Y177624D01*
X363225Y177613D01*
X363230Y177612D01*
X363236Y177609D01*
X363802Y177374D01*
X367762Y173414D01*
X367778Y173403D01*
X367790Y173387D01*
X367878Y173331D01*
X367961Y173271D01*
X367980Y173265D01*
X367997Y173254D01*
X368098Y173229D01*
X368197Y173198D01*
X368216Y173199D01*
X368236Y173194D01*
X368339Y173202D01*
X368442Y173205D01*
X368461Y173212D01*
X368481Y173213D01*
X368576Y173253D01*
X368673Y173289D01*
X368689Y173302D01*
X368707Y173309D01*
X368838Y173414D01*
X372798Y177374D01*
X378120Y179579D01*
X383952Y179579D01*
X384008Y179565D01*
X384014Y179565D01*
X384020Y179564D01*
X384137Y179575D01*
X384253Y179584D01*
X384258Y179586D01*
X384265Y179587D01*
X384372Y179635D01*
X384479Y179680D01*
X384485Y179685D01*
X384489Y179687D01*
X384503Y179699D01*
X384610Y179785D01*
X390428Y185603D01*
X390481Y185677D01*
X390541Y185747D01*
X390553Y185777D01*
X390572Y185803D01*
X390599Y185890D01*
X390633Y185975D01*
X390637Y186016D01*
X390644Y186038D01*
X390643Y186070D01*
X390651Y186142D01*
X390651Y225443D01*
X391734Y228057D01*
X407451Y243774D01*
X410065Y244857D01*
X410868Y244857D01*
X410983Y244876D01*
X411099Y244893D01*
X411105Y244895D01*
X411111Y244896D01*
X411214Y244951D01*
X411319Y245004D01*
X411323Y245009D01*
X411329Y245012D01*
X411408Y245096D01*
X411491Y245180D01*
X411495Y245186D01*
X411498Y245190D01*
X411506Y245207D01*
X411572Y245327D01*
X412944Y248638D01*
X416588Y252282D01*
X419036Y253297D01*
X419097Y253335D01*
X419163Y253364D01*
X419201Y253399D01*
X419245Y253426D01*
X419291Y253482D01*
X419344Y253530D01*
X419369Y253576D01*
X419402Y253616D01*
X419428Y253683D01*
X419462Y253746D01*
X419472Y253797D01*
X419490Y253845D01*
X419493Y253917D01*
X419506Y253988D01*
X419499Y254039D01*
X419501Y254091D01*
X419481Y254160D01*
X419470Y254231D01*
X419447Y254277D01*
X419432Y254327D01*
X419391Y254386D01*
X419359Y254450D01*
X419322Y254487D01*
X419292Y254529D01*
X419234Y254572D01*
X419183Y254622D01*
X419120Y254657D01*
X419095Y254676D01*
X419072Y254683D01*
X419036Y254703D01*
X416588Y255718D01*
X412944Y259362D01*
X410971Y264123D01*
X410971Y269277D01*
X412944Y274038D01*
X416588Y277682D01*
X419036Y278697D01*
X419097Y278735D01*
X419163Y278764D01*
X419201Y278799D01*
X419245Y278826D01*
X419291Y278882D01*
X419344Y278930D01*
X419369Y278976D01*
X419402Y279016D01*
X419428Y279083D01*
X419462Y279146D01*
X419472Y279197D01*
X419490Y279245D01*
X419493Y279317D01*
X419506Y279388D01*
X419499Y279439D01*
X419501Y279491D01*
X419481Y279560D01*
X419470Y279631D01*
X419447Y279677D01*
X419432Y279727D01*
X419391Y279786D01*
X419359Y279850D01*
X419322Y279887D01*
X419292Y279929D01*
X419234Y279972D01*
X419183Y280022D01*
X419120Y280057D01*
X419095Y280076D01*
X419072Y280083D01*
X419036Y280103D01*
X416588Y281118D01*
X412944Y284762D01*
X410971Y289523D01*
X410971Y294677D01*
X412944Y299438D01*
X416588Y303082D01*
X419036Y304097D01*
X419097Y304135D01*
X419163Y304164D01*
X419201Y304199D01*
X419245Y304226D01*
X419291Y304282D01*
X419344Y304330D01*
X419369Y304376D01*
X419402Y304416D01*
X419428Y304483D01*
X419462Y304546D01*
X419472Y304597D01*
X419490Y304645D01*
X419493Y304717D01*
X419506Y304788D01*
X419499Y304839D01*
X419501Y304891D01*
X419481Y304960D01*
X419470Y305031D01*
X419447Y305077D01*
X419432Y305127D01*
X419391Y305186D01*
X419359Y305250D01*
X419322Y305287D01*
X419292Y305329D01*
X419234Y305372D01*
X419183Y305422D01*
X419120Y305457D01*
X419095Y305476D01*
X419072Y305483D01*
X419036Y305503D01*
X416588Y306518D01*
X412944Y310162D01*
X410971Y314923D01*
X410971Y320077D01*
X411707Y321853D01*
X411729Y321948D01*
X411758Y322041D01*
X411757Y322067D01*
X411763Y322092D01*
X411754Y322189D01*
X411751Y322287D01*
X411742Y322311D01*
X411740Y322337D01*
X411700Y322426D01*
X411667Y322518D01*
X411651Y322538D01*
X411640Y322562D01*
X411574Y322634D01*
X411513Y322710D01*
X411491Y322724D01*
X411474Y322743D01*
X411388Y322790D01*
X411306Y322843D01*
X411281Y322849D01*
X411258Y322862D01*
X411162Y322879D01*
X411068Y322903D01*
X411042Y322901D01*
X411016Y322905D01*
X410919Y322891D01*
X410823Y322884D01*
X410799Y322873D01*
X410773Y322869D01*
X410686Y322825D01*
X410596Y322787D01*
X410571Y322767D01*
X410553Y322758D01*
X410530Y322734D01*
X410465Y322682D01*
X394137Y306354D01*
X394095Y306296D01*
X394046Y306244D01*
X394024Y306197D01*
X393994Y306155D01*
X393973Y306086D01*
X393942Y306021D01*
X393937Y305969D01*
X393921Y305919D01*
X393923Y305848D01*
X393915Y305777D01*
X393926Y305726D01*
X393928Y305674D01*
X393952Y305606D01*
X393967Y305536D01*
X393994Y305492D01*
X394012Y305443D01*
X394057Y305387D01*
X394094Y305325D01*
X394133Y305291D01*
X394166Y305251D01*
X394226Y305212D01*
X394281Y305165D01*
X394329Y305146D01*
X394373Y305118D01*
X394442Y305100D01*
X394509Y305073D01*
X394580Y305065D01*
X394611Y305057D01*
X394635Y305059D01*
X394675Y305055D01*
X399066Y305055D01*
X406655Y297466D01*
X406655Y286734D01*
X399066Y279145D01*
X394676Y279145D01*
X394585Y279131D01*
X394495Y279123D01*
X394465Y279111D01*
X394433Y279106D01*
X394352Y279063D01*
X394268Y279027D01*
X394236Y279001D01*
X394215Y278990D01*
X394193Y278967D01*
X394137Y278922D01*
X383505Y268290D01*
X380891Y267207D01*
X309586Y267207D01*
X309495Y267193D01*
X309405Y267185D01*
X309375Y267173D01*
X309343Y267168D01*
X309262Y267125D01*
X309178Y267089D01*
X309146Y267063D01*
X309125Y267052D01*
X309103Y267029D01*
X309047Y266984D01*
X305781Y263718D01*
X303243Y262667D01*
X303204Y262642D01*
X303160Y262627D01*
X303100Y262578D01*
X303034Y262537D01*
X303004Y262502D01*
X302968Y262473D01*
X302926Y262407D01*
X302877Y262348D01*
X302860Y262305D01*
X302835Y262266D01*
X302816Y262191D01*
X302789Y262118D01*
X302787Y262072D01*
X302775Y262028D01*
X302781Y261950D01*
X302778Y261872D01*
X302791Y261828D01*
X302795Y261782D01*
X302825Y261711D01*
X302847Y261636D01*
X302873Y261598D01*
X302891Y261556D01*
X302976Y261449D01*
X302987Y261434D01*
X302991Y261431D01*
X302996Y261425D01*
X305055Y259366D01*
X305055Y248634D01*
X297466Y241045D01*
X286734Y241045D01*
X279145Y248634D01*
X279145Y259366D01*
X285500Y265721D01*
X285512Y265737D01*
X285527Y265749D01*
X285583Y265836D01*
X285643Y265920D01*
X285649Y265939D01*
X285660Y265956D01*
X285685Y266057D01*
X285716Y266155D01*
X285715Y266175D01*
X285720Y266195D01*
X285712Y266298D01*
X285709Y266401D01*
X285703Y266420D01*
X285701Y266440D01*
X285661Y266535D01*
X285625Y266632D01*
X285612Y266648D01*
X285605Y266666D01*
X285500Y266797D01*
X267025Y285272D01*
X266951Y285325D01*
X266881Y285385D01*
X266851Y285397D01*
X266825Y285416D01*
X266738Y285443D01*
X266653Y285477D01*
X266612Y285481D01*
X266590Y285488D01*
X266558Y285487D01*
X266486Y285495D01*
X212601Y285495D01*
X212511Y285481D01*
X212420Y285473D01*
X212390Y285461D01*
X212358Y285456D01*
X212277Y285413D01*
X212194Y285377D01*
X212161Y285351D01*
X212141Y285340D01*
X212119Y285317D01*
X212063Y285272D01*
X208470Y281680D01*
X203732Y279717D01*
X203200Y279717D01*
X203180Y279714D01*
X203161Y279716D01*
X203059Y279694D01*
X202957Y279678D01*
X202940Y279668D01*
X202920Y279664D01*
X202831Y279611D01*
X202740Y279562D01*
X202726Y279548D01*
X202709Y279538D01*
X202642Y279459D01*
X202571Y279384D01*
X202562Y279366D01*
X202549Y279351D01*
X202510Y279255D01*
X202467Y279161D01*
X202465Y279141D01*
X202457Y279123D01*
X202439Y278956D01*
X202439Y246847D01*
X202454Y246757D01*
X202461Y246666D01*
X202473Y246637D01*
X202479Y246605D01*
X202521Y246524D01*
X202557Y246440D01*
X202583Y246408D01*
X202594Y246387D01*
X202617Y246365D01*
X202662Y246309D01*
X249611Y199360D01*
X249685Y199307D01*
X249755Y199247D01*
X249785Y199235D01*
X249811Y199216D01*
X249898Y199189D01*
X249983Y199155D01*
X250024Y199151D01*
X250046Y199144D01*
X250078Y199145D01*
X250150Y199137D01*
X312311Y199137D01*
X314925Y198054D01*
X341051Y171928D01*
X341125Y171875D01*
X341195Y171815D01*
X341225Y171803D01*
X341251Y171784D01*
X341338Y171757D01*
X341423Y171723D01*
X341464Y171719D01*
X341486Y171712D01*
X341518Y171713D01*
X341590Y171705D01*
X342155Y171705D01*
X342270Y171724D01*
G37*
%LPC*%
G36*
X629581Y50418D02*
X629581Y50418D01*
X621918Y58081D01*
X621918Y62651D01*
X621904Y62742D01*
X621896Y62832D01*
X621884Y62862D01*
X621879Y62894D01*
X621836Y62975D01*
X621800Y63059D01*
X621774Y63091D01*
X621763Y63112D01*
X621740Y63134D01*
X621695Y63190D01*
X605353Y79532D01*
X605279Y79585D01*
X605209Y79645D01*
X605179Y79657D01*
X605153Y79676D01*
X605066Y79703D01*
X604981Y79737D01*
X604940Y79741D01*
X604918Y79748D01*
X604886Y79747D01*
X604814Y79755D01*
X593050Y79755D01*
X592959Y79741D01*
X592869Y79733D01*
X592839Y79721D01*
X592807Y79716D01*
X592726Y79673D01*
X592642Y79637D01*
X592610Y79611D01*
X592589Y79600D01*
X592567Y79577D01*
X592511Y79532D01*
X589245Y76266D01*
X586631Y75183D01*
X583801Y75183D01*
X581187Y76266D01*
X570555Y86898D01*
X570481Y86951D01*
X570411Y87011D01*
X570381Y87023D01*
X570355Y87042D01*
X570268Y87069D01*
X570183Y87103D01*
X570142Y87107D01*
X570120Y87114D01*
X570088Y87113D01*
X570016Y87121D01*
X546522Y87121D01*
X541200Y89326D01*
X537128Y93398D01*
X534923Y98720D01*
X534923Y104480D01*
X537128Y109802D01*
X541088Y113762D01*
X541099Y113778D01*
X541115Y113790D01*
X541171Y113878D01*
X541231Y113961D01*
X541237Y113980D01*
X541248Y113997D01*
X541273Y114098D01*
X541304Y114197D01*
X541303Y114216D01*
X541308Y114236D01*
X541300Y114339D01*
X541297Y114442D01*
X541290Y114461D01*
X541289Y114481D01*
X541248Y114576D01*
X541213Y114673D01*
X541200Y114689D01*
X541193Y114707D01*
X541088Y114838D01*
X537128Y118798D01*
X534923Y124120D01*
X534923Y129880D01*
X537128Y135202D01*
X541200Y139274D01*
X543903Y140394D01*
X543938Y140416D01*
X543978Y140430D01*
X544042Y140480D01*
X544112Y140523D01*
X544138Y140556D01*
X544171Y140582D01*
X544216Y140650D01*
X544268Y140713D01*
X544283Y140752D01*
X544307Y140787D01*
X544327Y140866D01*
X544357Y140942D01*
X544358Y140984D01*
X544369Y141025D01*
X544364Y141107D01*
X544367Y141188D01*
X544355Y141229D01*
X544352Y141270D01*
X544321Y141346D01*
X544298Y141424D01*
X544275Y141459D01*
X544259Y141498D01*
X544205Y141559D01*
X544158Y141626D01*
X544125Y141652D01*
X544097Y141683D01*
X543987Y141756D01*
X543981Y141761D01*
X543976Y141763D01*
X543968Y141768D01*
X543961Y141773D01*
X543959Y141774D01*
X543957Y141775D01*
X543145Y142189D01*
X541624Y143294D01*
X540296Y144622D01*
X539191Y146143D01*
X538338Y147817D01*
X537757Y149604D01*
X537556Y150877D01*
X558038Y150877D01*
X558058Y150880D01*
X558077Y150878D01*
X558179Y150900D01*
X558281Y150917D01*
X558298Y150926D01*
X558318Y150930D01*
X558407Y150983D01*
X558498Y151032D01*
X558512Y151046D01*
X558529Y151056D01*
X558596Y151135D01*
X558667Y151210D01*
X558676Y151228D01*
X558689Y151243D01*
X558727Y151339D01*
X558771Y151433D01*
X558773Y151453D01*
X558781Y151471D01*
X558799Y151638D01*
X558799Y152401D01*
X558801Y152401D01*
X558801Y151638D01*
X558804Y151618D01*
X558802Y151599D01*
X558824Y151497D01*
X558841Y151395D01*
X558850Y151378D01*
X558854Y151358D01*
X558907Y151269D01*
X558956Y151178D01*
X558970Y151164D01*
X558980Y151147D01*
X559059Y151080D01*
X559134Y151009D01*
X559152Y151000D01*
X559167Y150987D01*
X559263Y150948D01*
X559357Y150905D01*
X559377Y150903D01*
X559395Y150895D01*
X559562Y150877D01*
X580044Y150877D01*
X579843Y149604D01*
X579262Y147817D01*
X578409Y146143D01*
X577304Y144622D01*
X575976Y143294D01*
X574455Y142189D01*
X573643Y141775D01*
X573609Y141750D01*
X573571Y141733D01*
X573511Y141678D01*
X573445Y141630D01*
X573421Y141595D01*
X573390Y141567D01*
X573350Y141495D01*
X573303Y141428D01*
X573292Y141388D01*
X573271Y141351D01*
X573257Y141271D01*
X573234Y141193D01*
X573235Y141151D01*
X573228Y141109D01*
X573240Y141028D01*
X573242Y140947D01*
X573257Y140908D01*
X573263Y140866D01*
X573300Y140793D01*
X573329Y140717D01*
X573356Y140684D01*
X573375Y140647D01*
X573433Y140590D01*
X573485Y140526D01*
X573521Y140504D01*
X573550Y140475D01*
X573686Y140400D01*
X573693Y140395D01*
X573695Y140395D01*
X573697Y140394D01*
X576400Y139274D01*
X580472Y135202D01*
X581494Y132735D01*
X581529Y132679D01*
X581555Y132618D01*
X581607Y132553D01*
X581624Y132525D01*
X581639Y132513D01*
X581659Y132488D01*
X582209Y131938D01*
X601655Y112492D01*
X601729Y112439D01*
X601799Y112379D01*
X601829Y112367D01*
X601855Y112348D01*
X601942Y112321D01*
X602027Y112287D01*
X602068Y112283D01*
X602090Y112276D01*
X602122Y112277D01*
X602194Y112269D01*
X664250Y112269D01*
X664341Y112283D01*
X664431Y112291D01*
X664461Y112303D01*
X664493Y112308D01*
X664574Y112351D01*
X664658Y112387D01*
X664690Y112413D01*
X664711Y112424D01*
X664733Y112447D01*
X664789Y112492D01*
X672760Y120463D01*
X672772Y120479D01*
X672787Y120492D01*
X672843Y120579D01*
X672904Y120663D01*
X672909Y120682D01*
X672920Y120699D01*
X672946Y120799D01*
X672976Y120898D01*
X672975Y120918D01*
X672980Y120937D01*
X672972Y121040D01*
X672970Y121144D01*
X672963Y121162D01*
X672961Y121182D01*
X672921Y121277D01*
X672885Y121375D01*
X672873Y121390D01*
X672865Y121409D01*
X672760Y121540D01*
X672718Y121581D01*
X672718Y132419D01*
X679461Y139162D01*
X679473Y139178D01*
X679489Y139190D01*
X679545Y139278D01*
X679605Y139361D01*
X679611Y139380D01*
X679622Y139397D01*
X679647Y139498D01*
X679677Y139597D01*
X679677Y139616D01*
X679682Y139636D01*
X679674Y139739D01*
X679671Y139842D01*
X679664Y139861D01*
X679662Y139881D01*
X679622Y139976D01*
X679586Y140073D01*
X679574Y140089D01*
X679566Y140107D01*
X679461Y140238D01*
X672718Y146981D01*
X672718Y157819D01*
X680381Y165482D01*
X691219Y165482D01*
X698882Y157819D01*
X698882Y146981D01*
X692139Y140238D01*
X692127Y140222D01*
X692111Y140210D01*
X692055Y140122D01*
X691995Y140039D01*
X691989Y140020D01*
X691978Y140003D01*
X691953Y139902D01*
X691923Y139803D01*
X691923Y139784D01*
X691918Y139764D01*
X691926Y139661D01*
X691929Y139558D01*
X691936Y139539D01*
X691938Y139519D01*
X691978Y139424D01*
X692014Y139327D01*
X692026Y139311D01*
X692034Y139293D01*
X692139Y139162D01*
X698882Y132419D01*
X698882Y121581D01*
X691219Y113918D01*
X686648Y113918D01*
X686558Y113904D01*
X686467Y113896D01*
X686438Y113884D01*
X686406Y113879D01*
X686325Y113836D01*
X686241Y113800D01*
X686209Y113774D01*
X686188Y113763D01*
X686166Y113740D01*
X686110Y113695D01*
X673649Y101234D01*
X671541Y99126D01*
X668927Y98043D01*
X597517Y98043D01*
X594903Y99126D01*
X578390Y115639D01*
X578374Y115651D01*
X578361Y115666D01*
X578274Y115723D01*
X578190Y115783D01*
X578171Y115789D01*
X578154Y115799D01*
X578054Y115825D01*
X577955Y115855D01*
X577935Y115855D01*
X577916Y115860D01*
X577813Y115851D01*
X577709Y115849D01*
X577690Y115842D01*
X577671Y115840D01*
X577576Y115800D01*
X577478Y115764D01*
X577462Y115752D01*
X577444Y115744D01*
X577313Y115639D01*
X576512Y114838D01*
X576501Y114822D01*
X576485Y114810D01*
X576429Y114723D01*
X576369Y114639D01*
X576363Y114619D01*
X576352Y114603D01*
X576327Y114502D01*
X576296Y114403D01*
X576297Y114384D01*
X576292Y114364D01*
X576300Y114261D01*
X576303Y114158D01*
X576310Y114139D01*
X576311Y114119D01*
X576352Y114024D01*
X576387Y113927D01*
X576400Y113911D01*
X576407Y113893D01*
X576512Y113762D01*
X580472Y109802D01*
X582677Y104480D01*
X582677Y98720D01*
X581751Y96485D01*
X581740Y96441D01*
X581722Y96401D01*
X581715Y96333D01*
X581696Y96258D01*
X581696Y96251D01*
X581695Y96245D01*
X581699Y96195D01*
X581695Y96157D01*
X581708Y96097D01*
X581715Y96012D01*
X581717Y96007D01*
X581718Y96000D01*
X581740Y95950D01*
X581747Y95916D01*
X581776Y95869D01*
X581811Y95786D01*
X581816Y95780D01*
X581818Y95776D01*
X581830Y95762D01*
X581867Y95716D01*
X581874Y95705D01*
X581880Y95700D01*
X581916Y95655D01*
X584678Y92893D01*
X584694Y92882D01*
X584706Y92866D01*
X584794Y92810D01*
X584877Y92750D01*
X584896Y92744D01*
X584913Y92733D01*
X585014Y92708D01*
X585113Y92677D01*
X585132Y92678D01*
X585152Y92673D01*
X585255Y92681D01*
X585358Y92684D01*
X585377Y92691D01*
X585397Y92692D01*
X585492Y92732D01*
X585589Y92768D01*
X585605Y92781D01*
X585623Y92788D01*
X585754Y92893D01*
X585759Y92898D01*
X588373Y93981D01*
X609491Y93981D01*
X612105Y92898D01*
X628463Y76540D01*
X628479Y76528D01*
X628492Y76513D01*
X628579Y76457D01*
X628663Y76396D01*
X628682Y76391D01*
X628699Y76380D01*
X628799Y76354D01*
X628898Y76324D01*
X628918Y76325D01*
X628937Y76320D01*
X629040Y76328D01*
X629144Y76330D01*
X629162Y76337D01*
X629182Y76339D01*
X629277Y76379D01*
X629375Y76415D01*
X629390Y76427D01*
X629409Y76435D01*
X629540Y76540D01*
X629581Y76582D01*
X640419Y76582D01*
X647162Y69839D01*
X647178Y69827D01*
X647190Y69811D01*
X647278Y69755D01*
X647361Y69695D01*
X647380Y69689D01*
X647397Y69678D01*
X647498Y69653D01*
X647597Y69623D01*
X647616Y69623D01*
X647636Y69618D01*
X647739Y69626D01*
X647842Y69629D01*
X647861Y69636D01*
X647881Y69638D01*
X647976Y69678D01*
X648073Y69714D01*
X648089Y69726D01*
X648107Y69734D01*
X648238Y69839D01*
X654981Y76582D01*
X665819Y76582D01*
X673482Y68919D01*
X673482Y58081D01*
X665819Y50418D01*
X654981Y50418D01*
X648238Y57161D01*
X648222Y57173D01*
X648210Y57189D01*
X648141Y57233D01*
X648107Y57262D01*
X648087Y57270D01*
X648039Y57305D01*
X648020Y57311D01*
X648003Y57322D01*
X647902Y57347D01*
X647803Y57377D01*
X647784Y57377D01*
X647764Y57382D01*
X647661Y57374D01*
X647558Y57371D01*
X647539Y57364D01*
X647519Y57362D01*
X647452Y57334D01*
X647445Y57333D01*
X647430Y57325D01*
X647424Y57322D01*
X647327Y57286D01*
X647311Y57274D01*
X647293Y57266D01*
X647240Y57224D01*
X647228Y57218D01*
X647215Y57204D01*
X647162Y57161D01*
X640419Y50418D01*
X629581Y50418D01*
G37*
%LPD*%
G36*
X342242Y336870D02*
X342242Y336870D01*
X342320Y336872D01*
X342363Y336888D01*
X342409Y336894D01*
X342478Y336929D01*
X342551Y336956D01*
X342587Y336985D01*
X342628Y337006D01*
X342682Y337061D01*
X342743Y337110D01*
X342768Y337149D01*
X342800Y337181D01*
X342866Y337301D01*
X342876Y337317D01*
X342877Y337322D01*
X342881Y337328D01*
X343326Y338402D01*
X347398Y342474D01*
X352773Y344701D01*
X352800Y344712D01*
X352803Y344713D01*
X352835Y344718D01*
X352916Y344761D01*
X353000Y344797D01*
X353032Y344823D01*
X353053Y344834D01*
X353075Y344857D01*
X353131Y344902D01*
X353852Y345623D01*
X353905Y345697D01*
X353965Y345767D01*
X353977Y345797D01*
X353996Y345823D01*
X354023Y345910D01*
X354057Y345995D01*
X354061Y346036D01*
X354068Y346058D01*
X354067Y346090D01*
X354075Y346162D01*
X354075Y348887D01*
X355158Y351501D01*
X375447Y371790D01*
X378061Y372873D01*
X394462Y372873D01*
X394482Y372876D01*
X394501Y372874D01*
X394603Y372896D01*
X394705Y372912D01*
X394722Y372922D01*
X394742Y372926D01*
X394831Y372979D01*
X394922Y373028D01*
X394936Y373042D01*
X394953Y373052D01*
X395020Y373131D01*
X395092Y373206D01*
X395100Y373224D01*
X395113Y373239D01*
X395152Y373335D01*
X395195Y373429D01*
X395197Y373449D01*
X395205Y373467D01*
X395223Y373634D01*
X395223Y424476D01*
X395208Y424572D01*
X395198Y424669D01*
X395188Y424693D01*
X395184Y424719D01*
X395138Y424805D01*
X395098Y424894D01*
X395081Y424913D01*
X395068Y424936D01*
X394998Y425003D01*
X394932Y425075D01*
X394909Y425088D01*
X394890Y425106D01*
X394802Y425147D01*
X394716Y425194D01*
X394691Y425198D01*
X394667Y425209D01*
X394570Y425220D01*
X394474Y425237D01*
X394448Y425234D01*
X394423Y425236D01*
X394327Y425216D01*
X394231Y425202D01*
X394208Y425190D01*
X394182Y425184D01*
X394099Y425134D01*
X394012Y425090D01*
X393993Y425071D01*
X393971Y425058D01*
X393908Y424984D01*
X393840Y424915D01*
X393824Y424886D01*
X393811Y424871D01*
X393799Y424840D01*
X393759Y424768D01*
X393274Y423598D01*
X389202Y419526D01*
X383880Y417321D01*
X378120Y417321D01*
X372798Y419526D01*
X368838Y423486D01*
X368822Y423497D01*
X368810Y423513D01*
X368722Y423569D01*
X368639Y423629D01*
X368620Y423635D01*
X368603Y423646D01*
X368502Y423671D01*
X368403Y423702D01*
X368384Y423701D01*
X368364Y423706D01*
X368261Y423698D01*
X368158Y423695D01*
X368139Y423688D01*
X368119Y423687D01*
X368024Y423646D01*
X367927Y423611D01*
X367911Y423598D01*
X367893Y423591D01*
X367762Y423486D01*
X363802Y419526D01*
X358480Y417321D01*
X352720Y417321D01*
X347398Y419526D01*
X343326Y423598D01*
X341121Y428920D01*
X341121Y434680D01*
X341368Y435276D01*
X341391Y435371D01*
X341419Y435464D01*
X341419Y435490D01*
X341424Y435516D01*
X341415Y435613D01*
X341413Y435710D01*
X341404Y435735D01*
X341401Y435761D01*
X341362Y435850D01*
X341328Y435941D01*
X341312Y435962D01*
X341301Y435985D01*
X341235Y436057D01*
X341175Y436133D01*
X341153Y436147D01*
X341135Y436167D01*
X341050Y436214D01*
X340968Y436266D01*
X340942Y436273D01*
X340919Y436285D01*
X340824Y436303D01*
X340729Y436326D01*
X340703Y436324D01*
X340677Y436329D01*
X340581Y436315D01*
X340484Y436307D01*
X340460Y436297D01*
X340434Y436293D01*
X340347Y436249D01*
X340258Y436211D01*
X340232Y436190D01*
X340215Y436182D01*
X340192Y436158D01*
X340127Y436106D01*
X335566Y431545D01*
X324834Y431545D01*
X324321Y432058D01*
X324305Y432070D01*
X324293Y432085D01*
X324205Y432141D01*
X324122Y432201D01*
X324103Y432207D01*
X324086Y432218D01*
X323985Y432243D01*
X323887Y432274D01*
X323867Y432273D01*
X323847Y432278D01*
X323744Y432270D01*
X323641Y432267D01*
X323622Y432261D01*
X323602Y432259D01*
X323507Y432219D01*
X323410Y432183D01*
X323394Y432170D01*
X323376Y432163D01*
X323245Y432058D01*
X318232Y427045D01*
X318179Y426971D01*
X318119Y426901D01*
X318107Y426871D01*
X318088Y426845D01*
X318061Y426758D01*
X318027Y426673D01*
X318023Y426632D01*
X318016Y426610D01*
X318017Y426578D01*
X318009Y426506D01*
X318009Y359878D01*
X318023Y359787D01*
X318031Y359697D01*
X318043Y359667D01*
X318048Y359635D01*
X318091Y359554D01*
X318127Y359470D01*
X318153Y359438D01*
X318164Y359417D01*
X318187Y359395D01*
X318232Y359339D01*
X333106Y344465D01*
X334193Y343378D01*
X334267Y343325D01*
X334337Y343265D01*
X334367Y343253D01*
X334393Y343234D01*
X334480Y343207D01*
X334565Y343173D01*
X334606Y343169D01*
X334628Y343162D01*
X334660Y343163D01*
X334731Y343155D01*
X335566Y343155D01*
X341639Y337081D01*
X341677Y337055D01*
X341708Y337021D01*
X341776Y336983D01*
X341839Y336938D01*
X341883Y336924D01*
X341923Y336902D01*
X342000Y336888D01*
X342074Y336865D01*
X342120Y336867D01*
X342165Y336858D01*
X342242Y336870D01*
G37*
%LPC*%
G36*
X251599Y202437D02*
X251599Y202437D01*
X243712Y210324D01*
X243712Y221476D01*
X250298Y228062D01*
X250309Y228078D01*
X250325Y228090D01*
X250381Y228178D01*
X250441Y228261D01*
X250447Y228280D01*
X250458Y228297D01*
X250483Y228398D01*
X250513Y228497D01*
X250513Y228516D01*
X250518Y228536D01*
X250510Y228639D01*
X250507Y228742D01*
X250500Y228761D01*
X250499Y228781D01*
X250458Y228876D01*
X250423Y228973D01*
X250410Y228989D01*
X250402Y229007D01*
X250298Y229138D01*
X243712Y235724D01*
X243712Y246876D01*
X250298Y253462D01*
X250309Y253478D01*
X250325Y253490D01*
X250381Y253578D01*
X250441Y253661D01*
X250447Y253680D01*
X250458Y253697D01*
X250483Y253798D01*
X250513Y253897D01*
X250513Y253916D01*
X250518Y253936D01*
X250510Y254039D01*
X250507Y254142D01*
X250500Y254161D01*
X250499Y254181D01*
X250458Y254276D01*
X250423Y254373D01*
X250410Y254389D01*
X250402Y254407D01*
X250298Y254538D01*
X243712Y261124D01*
X243712Y272276D01*
X251599Y280163D01*
X262751Y280163D01*
X270638Y272276D01*
X270638Y261124D01*
X264052Y254538D01*
X264041Y254522D01*
X264025Y254510D01*
X263969Y254422D01*
X263909Y254339D01*
X263903Y254320D01*
X263892Y254303D01*
X263867Y254202D01*
X263837Y254103D01*
X263837Y254084D01*
X263832Y254064D01*
X263840Y253961D01*
X263843Y253858D01*
X263850Y253839D01*
X263851Y253819D01*
X263892Y253724D01*
X263927Y253627D01*
X263940Y253611D01*
X263948Y253593D01*
X264052Y253462D01*
X270638Y246876D01*
X270638Y235724D01*
X264052Y229138D01*
X264041Y229122D01*
X264025Y229110D01*
X263969Y229022D01*
X263909Y228939D01*
X263903Y228920D01*
X263892Y228903D01*
X263867Y228802D01*
X263837Y228703D01*
X263837Y228684D01*
X263832Y228664D01*
X263840Y228561D01*
X263843Y228458D01*
X263850Y228439D01*
X263851Y228419D01*
X263892Y228324D01*
X263927Y228227D01*
X263940Y228211D01*
X263948Y228193D01*
X264052Y228062D01*
X265635Y226479D01*
X265652Y226467D01*
X265664Y226452D01*
X265751Y226396D01*
X265835Y226335D01*
X265854Y226329D01*
X265871Y226319D01*
X265971Y226293D01*
X266070Y226263D01*
X266090Y226263D01*
X266109Y226259D01*
X266212Y226267D01*
X266316Y226269D01*
X266335Y226276D01*
X266355Y226278D01*
X266450Y226318D01*
X266547Y226354D01*
X266563Y226366D01*
X266581Y226374D01*
X266712Y226479D01*
X274863Y234630D01*
X277477Y235713D01*
X298490Y235713D01*
X298581Y235727D01*
X298671Y235735D01*
X298701Y235747D01*
X298733Y235752D01*
X298814Y235795D01*
X298898Y235831D01*
X298930Y235857D01*
X298951Y235868D01*
X298973Y235891D01*
X299029Y235936D01*
X320583Y257490D01*
X323197Y258573D01*
X379984Y258573D01*
X380004Y258576D01*
X380023Y258574D01*
X380125Y258596D01*
X380227Y258612D01*
X380244Y258622D01*
X380264Y258626D01*
X380353Y258679D01*
X380444Y258728D01*
X380458Y258742D01*
X380475Y258752D01*
X380542Y258831D01*
X380614Y258906D01*
X380622Y258924D01*
X380635Y258939D01*
X380674Y259035D01*
X380717Y259129D01*
X380719Y259149D01*
X380727Y259167D01*
X380745Y259334D01*
X380745Y259366D01*
X388334Y266955D01*
X399066Y266955D01*
X406655Y259366D01*
X406655Y248634D01*
X399066Y241045D01*
X388334Y241045D01*
X385255Y244124D01*
X385181Y244177D01*
X385112Y244237D01*
X385081Y244249D01*
X385055Y244268D01*
X384968Y244295D01*
X384883Y244329D01*
X384842Y244333D01*
X384820Y244340D01*
X384788Y244339D01*
X384717Y244347D01*
X327874Y244347D01*
X327783Y244333D01*
X327693Y244325D01*
X327663Y244313D01*
X327631Y244308D01*
X327550Y244265D01*
X327466Y244229D01*
X327434Y244203D01*
X327413Y244192D01*
X327391Y244169D01*
X327335Y244124D01*
X305781Y222570D01*
X303167Y221487D01*
X282154Y221487D01*
X282063Y221473D01*
X281973Y221465D01*
X281943Y221453D01*
X281911Y221448D01*
X281830Y221405D01*
X281746Y221369D01*
X281714Y221343D01*
X281693Y221332D01*
X281671Y221309D01*
X281615Y221264D01*
X264613Y204262D01*
X264594Y204254D01*
X264529Y204202D01*
X264501Y204185D01*
X264489Y204170D01*
X264463Y204149D01*
X262751Y202437D01*
X251599Y202437D01*
G37*
%LPD*%
G36*
X641950Y303862D02*
X641950Y303862D01*
X642028Y303864D01*
X642071Y303879D01*
X642117Y303886D01*
X642186Y303921D01*
X642259Y303948D01*
X642295Y303977D01*
X642336Y303998D01*
X642390Y304053D01*
X642451Y304102D01*
X642476Y304140D01*
X642508Y304173D01*
X642574Y304293D01*
X642584Y304309D01*
X642585Y304314D01*
X642589Y304320D01*
X643194Y305781D01*
X646460Y309047D01*
X646513Y309121D01*
X646573Y309191D01*
X646585Y309221D01*
X646604Y309247D01*
X646631Y309334D01*
X646665Y309419D01*
X646669Y309460D01*
X646676Y309482D01*
X646675Y309514D01*
X646683Y309586D01*
X646683Y312617D01*
X646672Y312688D01*
X646670Y312759D01*
X646652Y312808D01*
X646644Y312860D01*
X646610Y312923D01*
X646585Y312990D01*
X646553Y313031D01*
X646528Y313077D01*
X646476Y313126D01*
X646432Y313182D01*
X646388Y313210D01*
X646350Y313246D01*
X646285Y313277D01*
X646225Y313315D01*
X646174Y313328D01*
X646127Y313350D01*
X646056Y313358D01*
X645986Y313375D01*
X645934Y313371D01*
X645883Y313377D01*
X645812Y313362D01*
X645741Y313356D01*
X645693Y313336D01*
X645642Y313325D01*
X645581Y313288D01*
X645515Y313260D01*
X645459Y313215D01*
X645431Y313199D01*
X645416Y313181D01*
X645384Y313155D01*
X639314Y307085D01*
X636523Y307085D01*
X636523Y316738D01*
X636520Y316758D01*
X636522Y316777D01*
X636500Y316879D01*
X636483Y316981D01*
X636474Y316998D01*
X636470Y317018D01*
X636417Y317107D01*
X636368Y317198D01*
X636354Y317212D01*
X636344Y317229D01*
X636265Y317296D01*
X636190Y317367D01*
X636172Y317376D01*
X636157Y317389D01*
X636061Y317427D01*
X635967Y317471D01*
X635947Y317473D01*
X635929Y317481D01*
X635762Y317499D01*
X634999Y317499D01*
X634999Y317501D01*
X635762Y317501D01*
X635782Y317504D01*
X635801Y317502D01*
X635903Y317524D01*
X636005Y317541D01*
X636022Y317550D01*
X636042Y317554D01*
X636131Y317607D01*
X636222Y317656D01*
X636236Y317670D01*
X636253Y317680D01*
X636320Y317759D01*
X636391Y317834D01*
X636400Y317852D01*
X636413Y317867D01*
X636452Y317963D01*
X636495Y318057D01*
X636497Y318077D01*
X636505Y318095D01*
X636523Y318262D01*
X636523Y327915D01*
X639314Y327915D01*
X645384Y321845D01*
X645442Y321803D01*
X645494Y321754D01*
X645541Y321732D01*
X645583Y321701D01*
X645652Y321680D01*
X645717Y321650D01*
X645769Y321644D01*
X645819Y321629D01*
X645890Y321631D01*
X645961Y321623D01*
X646012Y321634D01*
X646064Y321635D01*
X646132Y321660D01*
X646202Y321675D01*
X646247Y321702D01*
X646295Y321720D01*
X646351Y321765D01*
X646413Y321801D01*
X646447Y321841D01*
X646487Y321874D01*
X646526Y321934D01*
X646573Y321988D01*
X646592Y322037D01*
X646620Y322080D01*
X646638Y322150D01*
X646665Y322216D01*
X646673Y322288D01*
X646681Y322319D01*
X646679Y322342D01*
X646683Y322383D01*
X646683Y325922D01*
X646669Y326013D01*
X646661Y326103D01*
X646649Y326133D01*
X646644Y326165D01*
X646601Y326246D01*
X646565Y326330D01*
X646539Y326362D01*
X646528Y326383D01*
X646505Y326405D01*
X646460Y326461D01*
X574614Y398307D01*
X573531Y400921D01*
X573531Y426506D01*
X573517Y426597D01*
X573509Y426687D01*
X573497Y426717D01*
X573492Y426749D01*
X573449Y426830D01*
X573413Y426914D01*
X573387Y426946D01*
X573376Y426967D01*
X573353Y426989D01*
X573308Y427045D01*
X567025Y433328D01*
X567009Y433340D01*
X566997Y433355D01*
X566909Y433411D01*
X566825Y433471D01*
X566806Y433477D01*
X566790Y433488D01*
X566689Y433513D01*
X566590Y433544D01*
X566570Y433543D01*
X566551Y433548D01*
X566448Y433540D01*
X566344Y433537D01*
X566326Y433531D01*
X566306Y433529D01*
X566211Y433489D01*
X566113Y433453D01*
X566098Y433440D01*
X566080Y433433D01*
X565949Y433328D01*
X564959Y432338D01*
X564947Y432322D01*
X564932Y432310D01*
X564876Y432223D01*
X564815Y432139D01*
X564810Y432119D01*
X564799Y432103D01*
X564774Y432002D01*
X564743Y431903D01*
X564744Y431884D01*
X564739Y431864D01*
X564747Y431761D01*
X564749Y431658D01*
X564756Y431639D01*
X564758Y431619D01*
X564798Y431524D01*
X564834Y431427D01*
X564846Y431411D01*
X564854Y431393D01*
X564959Y431262D01*
X571755Y424466D01*
X571755Y413734D01*
X564166Y406145D01*
X553434Y406145D01*
X551651Y407928D01*
X551635Y407940D01*
X551623Y407955D01*
X551536Y408011D01*
X551452Y408071D01*
X551433Y408077D01*
X551416Y408088D01*
X551315Y408113D01*
X551217Y408144D01*
X551197Y408143D01*
X551177Y408148D01*
X551074Y408140D01*
X550971Y408137D01*
X550952Y408131D01*
X550932Y408129D01*
X550837Y408089D01*
X550740Y408053D01*
X550724Y408040D01*
X550706Y408033D01*
X550575Y407928D01*
X548097Y405450D01*
X545483Y404367D01*
X538186Y404367D01*
X538095Y404353D01*
X538005Y404345D01*
X537975Y404333D01*
X537943Y404328D01*
X537862Y404285D01*
X537778Y404249D01*
X537746Y404223D01*
X537725Y404212D01*
X537703Y404189D01*
X537647Y404144D01*
X534381Y400878D01*
X531767Y399795D01*
X527669Y399795D01*
X527554Y399776D01*
X527438Y399759D01*
X527432Y399757D01*
X527426Y399756D01*
X527324Y399701D01*
X527219Y399648D01*
X527214Y399643D01*
X527209Y399640D01*
X527129Y399556D01*
X527047Y399472D01*
X527043Y399466D01*
X527039Y399462D01*
X527032Y399445D01*
X526966Y399325D01*
X526856Y399062D01*
X523212Y395418D01*
X518451Y393445D01*
X497549Y393445D01*
X492788Y395418D01*
X489144Y399062D01*
X488637Y400284D01*
X488586Y400367D01*
X488540Y400453D01*
X488522Y400471D01*
X488508Y400493D01*
X488432Y400555D01*
X488362Y400622D01*
X488338Y400633D01*
X488318Y400650D01*
X488227Y400685D01*
X488139Y400726D01*
X488113Y400729D01*
X488089Y400738D01*
X487991Y400742D01*
X487895Y400753D01*
X487869Y400747D01*
X487843Y400748D01*
X487749Y400721D01*
X487654Y400701D01*
X487632Y400687D01*
X487607Y400680D01*
X487527Y400624D01*
X487443Y400574D01*
X487426Y400555D01*
X487405Y400540D01*
X487346Y400461D01*
X487283Y400387D01*
X487273Y400363D01*
X487258Y400342D01*
X487228Y400250D01*
X487191Y400159D01*
X487188Y400127D01*
X487182Y400108D01*
X487182Y400075D01*
X487173Y399993D01*
X487173Y396454D01*
X487187Y396363D01*
X487195Y396273D01*
X487207Y396243D01*
X487212Y396211D01*
X487255Y396130D01*
X487291Y396046D01*
X487317Y396014D01*
X487328Y395993D01*
X487351Y395971D01*
X487396Y395915D01*
X510215Y373096D01*
X510289Y373043D01*
X510359Y372983D01*
X510389Y372971D01*
X510415Y372952D01*
X510502Y372925D01*
X510587Y372891D01*
X510628Y372887D01*
X510650Y372880D01*
X510682Y372881D01*
X510754Y372873D01*
X582059Y372873D01*
X584673Y371790D01*
X623250Y333213D01*
X624333Y330599D01*
X624333Y327769D01*
X623250Y325155D01*
X619984Y321889D01*
X619931Y321815D01*
X619871Y321745D01*
X619859Y321715D01*
X619840Y321689D01*
X619813Y321602D01*
X619779Y321517D01*
X619775Y321476D01*
X619768Y321454D01*
X619769Y321422D01*
X619761Y321350D01*
X619761Y314158D01*
X619775Y314067D01*
X619783Y313977D01*
X619795Y313947D01*
X619800Y313915D01*
X619843Y313834D01*
X619879Y313750D01*
X619905Y313718D01*
X619916Y313697D01*
X619939Y313675D01*
X619984Y313619D01*
X628553Y305050D01*
X628569Y305038D01*
X628581Y305023D01*
X628669Y304967D01*
X628753Y304907D01*
X628772Y304901D01*
X628788Y304890D01*
X628889Y304865D01*
X628988Y304834D01*
X629008Y304835D01*
X629027Y304830D01*
X629130Y304838D01*
X629234Y304841D01*
X629252Y304847D01*
X629272Y304849D01*
X629367Y304889D01*
X629465Y304925D01*
X629480Y304937D01*
X629498Y304945D01*
X629629Y305050D01*
X629634Y305055D01*
X640366Y305055D01*
X641347Y304073D01*
X641385Y304046D01*
X641416Y304013D01*
X641484Y303975D01*
X641547Y303930D01*
X641591Y303916D01*
X641631Y303894D01*
X641708Y303880D01*
X641782Y303857D01*
X641828Y303859D01*
X641873Y303850D01*
X641950Y303862D01*
G37*
%LPC*%
G36*
X735804Y213105D02*
X735804Y213105D01*
X730109Y215464D01*
X725750Y219823D01*
X723391Y225518D01*
X723391Y231682D01*
X725750Y237377D01*
X730109Y241736D01*
X735804Y244095D01*
X762796Y244095D01*
X768491Y241736D01*
X772850Y237377D01*
X775209Y231682D01*
X775209Y225518D01*
X772850Y219823D01*
X768491Y215464D01*
X762796Y213105D01*
X735804Y213105D01*
G37*
%LPD*%
%LPC*%
G36*
X735804Y163067D02*
X735804Y163067D01*
X730109Y165426D01*
X725750Y169785D01*
X723391Y175480D01*
X723391Y181644D01*
X725750Y187339D01*
X730109Y191698D01*
X735804Y194057D01*
X762796Y194057D01*
X768491Y191698D01*
X772850Y187339D01*
X775209Y181644D01*
X775209Y175480D01*
X772850Y169785D01*
X768491Y165426D01*
X762796Y163067D01*
X735804Y163067D01*
G37*
%LPD*%
%LPC*%
G36*
X441672Y88391D02*
X441672Y88391D01*
X435977Y90750D01*
X431618Y95109D01*
X429259Y100804D01*
X429259Y127796D01*
X431618Y133491D01*
X435977Y137850D01*
X441672Y140209D01*
X447836Y140209D01*
X453531Y137850D01*
X457890Y133491D01*
X460249Y127796D01*
X460249Y100804D01*
X457890Y95109D01*
X453531Y90750D01*
X447836Y88391D01*
X441672Y88391D01*
G37*
%LPD*%
%LPC*%
G36*
X235881Y63118D02*
X235881Y63118D01*
X228218Y70781D01*
X228218Y81619D01*
X234961Y88362D01*
X234973Y88378D01*
X234989Y88390D01*
X235045Y88478D01*
X235105Y88561D01*
X235111Y88580D01*
X235122Y88597D01*
X235147Y88698D01*
X235177Y88797D01*
X235177Y88816D01*
X235182Y88836D01*
X235174Y88939D01*
X235171Y89042D01*
X235164Y89061D01*
X235162Y89081D01*
X235122Y89176D01*
X235086Y89273D01*
X235074Y89289D01*
X235066Y89307D01*
X234961Y89438D01*
X228218Y96181D01*
X228218Y107019D01*
X235881Y114682D01*
X246719Y114682D01*
X254382Y107019D01*
X254382Y96181D01*
X247639Y89438D01*
X247627Y89422D01*
X247611Y89410D01*
X247555Y89322D01*
X247495Y89239D01*
X247489Y89220D01*
X247478Y89203D01*
X247453Y89102D01*
X247423Y89003D01*
X247423Y88984D01*
X247418Y88964D01*
X247426Y88861D01*
X247429Y88758D01*
X247436Y88739D01*
X247438Y88719D01*
X247478Y88624D01*
X247514Y88527D01*
X247526Y88511D01*
X247534Y88493D01*
X247639Y88362D01*
X254382Y81619D01*
X254382Y70781D01*
X246719Y63118D01*
X235881Y63118D01*
G37*
%LPD*%
%LPC*%
G36*
X667734Y533145D02*
X667734Y533145D01*
X660145Y540734D01*
X660145Y551466D01*
X666851Y558172D01*
X666863Y558188D01*
X666878Y558201D01*
X666934Y558288D01*
X666995Y558372D01*
X667001Y558391D01*
X667011Y558407D01*
X667037Y558508D01*
X667067Y558607D01*
X667067Y558627D01*
X667071Y558646D01*
X667063Y558749D01*
X667061Y558853D01*
X667054Y558871D01*
X667052Y558891D01*
X667012Y558986D01*
X666976Y559084D01*
X666964Y559099D01*
X666956Y559117D01*
X666851Y559248D01*
X660018Y566081D01*
X660018Y576919D01*
X667681Y584582D01*
X678519Y584582D01*
X686182Y576919D01*
X686182Y566081D01*
X679349Y559248D01*
X679337Y559232D01*
X679322Y559220D01*
X679265Y559132D01*
X679205Y559049D01*
X679199Y559030D01*
X679189Y559013D01*
X679163Y558912D01*
X679133Y558814D01*
X679133Y558794D01*
X679129Y558774D01*
X679137Y558671D01*
X679139Y558568D01*
X679146Y558549D01*
X679148Y558529D01*
X679188Y558434D01*
X679224Y558337D01*
X679236Y558321D01*
X679244Y558303D01*
X679349Y558172D01*
X686055Y551466D01*
X686055Y540734D01*
X678466Y533145D01*
X667734Y533145D01*
G37*
%LPD*%
%LPC*%
G36*
X820134Y406145D02*
X820134Y406145D01*
X812545Y413734D01*
X812545Y424466D01*
X820134Y432055D01*
X830866Y432055D01*
X838455Y424466D01*
X838455Y413734D01*
X830866Y406145D01*
X820134Y406145D01*
G37*
%LPD*%
%LPC*%
G36*
X312134Y139445D02*
X312134Y139445D01*
X304545Y147034D01*
X304545Y157766D01*
X312134Y165355D01*
X322866Y165355D01*
X330455Y157766D01*
X330455Y147034D01*
X322866Y139445D01*
X312134Y139445D01*
G37*
%LPD*%
%LPC*%
G36*
X705834Y406145D02*
X705834Y406145D01*
X698245Y413734D01*
X698245Y424466D01*
X705834Y432055D01*
X716566Y432055D01*
X724155Y424466D01*
X724155Y413734D01*
X716566Y406145D01*
X705834Y406145D01*
G37*
%LPD*%
%LPC*%
G36*
X591534Y177545D02*
X591534Y177545D01*
X583945Y185134D01*
X583945Y195866D01*
X591534Y203455D01*
X602266Y203455D01*
X609855Y195866D01*
X609855Y185134D01*
X602266Y177545D01*
X591534Y177545D01*
G37*
%LPD*%
%LPC*%
G36*
X743934Y406145D02*
X743934Y406145D01*
X736345Y413734D01*
X736345Y424466D01*
X743934Y432055D01*
X754666Y432055D01*
X762255Y424466D01*
X762255Y413734D01*
X754666Y406145D01*
X743934Y406145D01*
G37*
%LPD*%
%LPC*%
G36*
X820134Y304545D02*
X820134Y304545D01*
X812545Y312134D01*
X812545Y322866D01*
X820134Y330455D01*
X830866Y330455D01*
X838455Y322866D01*
X838455Y312134D01*
X830866Y304545D01*
X820134Y304545D01*
G37*
%LPD*%
%LPC*%
G36*
X782034Y304545D02*
X782034Y304545D01*
X774445Y312134D01*
X774445Y322866D01*
X782034Y330455D01*
X792766Y330455D01*
X800355Y322866D01*
X800355Y312134D01*
X792766Y304545D01*
X782034Y304545D01*
G37*
%LPD*%
%LPC*%
G36*
X743934Y304545D02*
X743934Y304545D01*
X736345Y312134D01*
X736345Y322866D01*
X743934Y330455D01*
X754666Y330455D01*
X762255Y322866D01*
X762255Y312134D01*
X754666Y304545D01*
X743934Y304545D01*
G37*
%LPD*%
%LPC*%
G36*
X750823Y280161D02*
X750823Y280161D01*
X750823Y291593D01*
X760734Y291593D01*
X762748Y291274D01*
X764687Y290644D01*
X766504Y289718D01*
X768153Y288519D01*
X769595Y287077D01*
X770794Y285428D01*
X771720Y283611D01*
X772350Y281672D01*
X772589Y280161D01*
X750823Y280161D01*
G37*
%LPD*%
%LPC*%
G36*
X750823Y65277D02*
X750823Y65277D01*
X750823Y76709D01*
X760734Y76709D01*
X762748Y76390D01*
X764687Y75760D01*
X766504Y74834D01*
X768153Y73635D01*
X769595Y72193D01*
X770794Y70544D01*
X771720Y68727D01*
X772350Y66788D01*
X772589Y65277D01*
X750823Y65277D01*
G37*
%LPD*%
%LPC*%
G36*
X726011Y280161D02*
X726011Y280161D01*
X726250Y281672D01*
X726880Y283611D01*
X727806Y285428D01*
X729005Y287077D01*
X730447Y288519D01*
X732096Y289718D01*
X733913Y290644D01*
X735852Y291274D01*
X737866Y291593D01*
X747777Y291593D01*
X747777Y280161D01*
X726011Y280161D01*
G37*
%LPD*%
%LPC*%
G36*
X726011Y65277D02*
X726011Y65277D01*
X726250Y66788D01*
X726880Y68727D01*
X727806Y70544D01*
X729005Y72193D01*
X730447Y73635D01*
X732096Y74834D01*
X733913Y75760D01*
X735852Y76390D01*
X737866Y76709D01*
X747777Y76709D01*
X747777Y65277D01*
X726011Y65277D01*
G37*
%LPD*%
%LPC*%
G36*
X750823Y265683D02*
X750823Y265683D01*
X750823Y277115D01*
X772589Y277115D01*
X772350Y275604D01*
X771720Y273665D01*
X770794Y271848D01*
X769595Y270199D01*
X768153Y268757D01*
X766504Y267558D01*
X764687Y266632D01*
X762748Y266002D01*
X760734Y265683D01*
X750823Y265683D01*
G37*
%LPD*%
%LPC*%
G36*
X750823Y50799D02*
X750823Y50799D01*
X750823Y62231D01*
X772589Y62231D01*
X772350Y60720D01*
X771720Y58781D01*
X770794Y56964D01*
X769595Y55315D01*
X768153Y53873D01*
X766504Y52674D01*
X764687Y51748D01*
X762748Y51118D01*
X760734Y50799D01*
X750823Y50799D01*
G37*
%LPD*%
%LPC*%
G36*
X737866Y265683D02*
X737866Y265683D01*
X735852Y266002D01*
X733913Y266632D01*
X732096Y267558D01*
X730447Y268757D01*
X729005Y270199D01*
X727806Y271848D01*
X726880Y273665D01*
X726250Y275604D01*
X726011Y277115D01*
X747777Y277115D01*
X747777Y265683D01*
X737866Y265683D01*
G37*
%LPD*%
%LPC*%
G36*
X737866Y50799D02*
X737866Y50799D01*
X735852Y51118D01*
X733913Y51748D01*
X732096Y52674D01*
X730447Y53873D01*
X729005Y55315D01*
X727806Y56964D01*
X726880Y58781D01*
X726250Y60720D01*
X726011Y62231D01*
X747777Y62231D01*
X747777Y50799D01*
X737866Y50799D01*
G37*
%LPD*%
%LPC*%
G36*
X560323Y153923D02*
X560323Y153923D01*
X560323Y164339D01*
X569138Y164339D01*
X570994Y164045D01*
X572781Y163464D01*
X574455Y162611D01*
X575976Y161506D01*
X577304Y160178D01*
X578409Y158657D01*
X579262Y156983D01*
X579843Y155196D01*
X580044Y153923D01*
X560323Y153923D01*
G37*
%LPD*%
%LPC*%
G36*
X537556Y153923D02*
X537556Y153923D01*
X537757Y155196D01*
X538338Y156983D01*
X539191Y158657D01*
X540296Y160178D01*
X541624Y161506D01*
X543145Y162611D01*
X544819Y163464D01*
X546606Y164045D01*
X548462Y164339D01*
X557277Y164339D01*
X557277Y153923D01*
X537556Y153923D01*
G37*
%LPD*%
%LPC*%
G36*
X509523Y293623D02*
X509523Y293623D01*
X509523Y302515D01*
X516694Y302515D01*
X518313Y302258D01*
X519872Y301752D01*
X521333Y301007D01*
X522659Y300044D01*
X523818Y298885D01*
X524781Y297559D01*
X525526Y296098D01*
X526032Y294539D01*
X526177Y293623D01*
X509523Y293623D01*
G37*
%LPD*%
%LPC*%
G36*
X489823Y293623D02*
X489823Y293623D01*
X489968Y294539D01*
X490474Y296098D01*
X491219Y297559D01*
X492182Y298885D01*
X493341Y300044D01*
X494667Y301007D01*
X496128Y301752D01*
X497687Y302258D01*
X499306Y302515D01*
X506477Y302515D01*
X506477Y293623D01*
X489823Y293623D01*
G37*
%LPD*%
%LPC*%
G36*
X509523Y281685D02*
X509523Y281685D01*
X509523Y290577D01*
X526177Y290577D01*
X526032Y289661D01*
X525526Y288102D01*
X524781Y286641D01*
X523818Y285315D01*
X522659Y284156D01*
X521333Y283193D01*
X519872Y282448D01*
X518313Y281942D01*
X516694Y281685D01*
X509523Y281685D01*
G37*
%LPD*%
%LPC*%
G36*
X499306Y281685D02*
X499306Y281685D01*
X497687Y281942D01*
X496128Y282448D01*
X494667Y283193D01*
X493341Y284156D01*
X492182Y285315D01*
X491219Y286641D01*
X490474Y288102D01*
X489968Y289661D01*
X489823Y290577D01*
X506477Y290577D01*
X506477Y281685D01*
X499306Y281685D01*
G37*
%LPD*%
%LPC*%
G36*
X814323Y496823D02*
X814323Y496823D01*
X814323Y506223D01*
X817324Y506223D01*
X823723Y499824D01*
X823723Y496823D01*
X814323Y496823D01*
G37*
%LPD*%
%LPC*%
G36*
X357123Y217423D02*
X357123Y217423D01*
X357123Y226823D01*
X360124Y226823D01*
X366523Y220424D01*
X366523Y217423D01*
X357123Y217423D01*
G37*
%LPD*%
%LPC*%
G36*
X801877Y496823D02*
X801877Y496823D01*
X801877Y499824D01*
X808276Y506223D01*
X811277Y506223D01*
X811277Y496823D01*
X801877Y496823D01*
G37*
%LPD*%
%LPC*%
G36*
X344677Y217423D02*
X344677Y217423D01*
X344677Y220424D01*
X351076Y226823D01*
X354077Y226823D01*
X354077Y217423D01*
X344677Y217423D01*
G37*
%LPD*%
%LPC*%
G36*
X814323Y484377D02*
X814323Y484377D01*
X814323Y493777D01*
X823723Y493777D01*
X823723Y490776D01*
X817324Y484377D01*
X814323Y484377D01*
G37*
%LPD*%
%LPC*%
G36*
X808276Y484377D02*
X808276Y484377D01*
X801877Y490776D01*
X801877Y493777D01*
X811277Y493777D01*
X811277Y484377D01*
X808276Y484377D01*
G37*
%LPD*%
%LPC*%
G36*
X674623Y598423D02*
X674623Y598423D01*
X674623Y607442D01*
X677467Y607442D01*
X683642Y601267D01*
X683642Y598423D01*
X674623Y598423D01*
G37*
%LPD*%
%LPC*%
G36*
X636523Y598423D02*
X636523Y598423D01*
X636523Y607442D01*
X639367Y607442D01*
X645542Y601267D01*
X645542Y598423D01*
X636523Y598423D01*
G37*
%LPD*%
%LPC*%
G36*
X598423Y65023D02*
X598423Y65023D01*
X598423Y74042D01*
X601267Y74042D01*
X607442Y67867D01*
X607442Y65023D01*
X598423Y65023D01*
G37*
%LPD*%
%LPC*%
G36*
X662558Y598423D02*
X662558Y598423D01*
X662558Y601267D01*
X668733Y607442D01*
X671577Y607442D01*
X671577Y598423D01*
X662558Y598423D01*
G37*
%LPD*%
%LPC*%
G36*
X636523Y586358D02*
X636523Y586358D01*
X636523Y595377D01*
X645542Y595377D01*
X645542Y592533D01*
X639367Y586358D01*
X636523Y586358D01*
G37*
%LPD*%
%LPC*%
G36*
X674623Y586358D02*
X674623Y586358D01*
X674623Y595377D01*
X683642Y595377D01*
X683642Y592533D01*
X677467Y586358D01*
X674623Y586358D01*
G37*
%LPD*%
%LPC*%
G36*
X586358Y65023D02*
X586358Y65023D01*
X586358Y67867D01*
X592533Y74042D01*
X595377Y74042D01*
X595377Y65023D01*
X586358Y65023D01*
G37*
%LPD*%
%LPC*%
G36*
X242823Y154558D02*
X242823Y154558D01*
X242823Y163577D01*
X251842Y163577D01*
X251842Y160733D01*
X245667Y154558D01*
X242823Y154558D01*
G37*
%LPD*%
%LPC*%
G36*
X624458Y598423D02*
X624458Y598423D01*
X624458Y601267D01*
X630633Y607442D01*
X633477Y607442D01*
X633477Y598423D01*
X624458Y598423D01*
G37*
%LPD*%
%LPC*%
G36*
X598423Y52958D02*
X598423Y52958D01*
X598423Y61977D01*
X607442Y61977D01*
X607442Y59133D01*
X601267Y52958D01*
X598423Y52958D01*
G37*
%LPD*%
%LPC*%
G36*
X592533Y52958D02*
X592533Y52958D01*
X586358Y59133D01*
X586358Y61977D01*
X595377Y61977D01*
X595377Y52958D01*
X592533Y52958D01*
G37*
%LPD*%
%LPC*%
G36*
X668733Y586358D02*
X668733Y586358D01*
X662558Y592533D01*
X662558Y595377D01*
X671577Y595377D01*
X671577Y586358D01*
X668733Y586358D01*
G37*
%LPD*%
%LPC*%
G36*
X236933Y154558D02*
X236933Y154558D01*
X230758Y160733D01*
X230758Y163577D01*
X239777Y163577D01*
X239777Y154558D01*
X236933Y154558D01*
G37*
%LPD*%
%LPC*%
G36*
X630633Y586358D02*
X630633Y586358D01*
X624458Y592533D01*
X624458Y595377D01*
X633477Y595377D01*
X633477Y586358D01*
X630633Y586358D01*
G37*
%LPD*%
%LPC*%
G36*
X331723Y369823D02*
X331723Y369823D01*
X331723Y378715D01*
X334514Y378715D01*
X340615Y372614D01*
X340615Y369823D01*
X331723Y369823D01*
G37*
%LPD*%
%LPC*%
G36*
X560323Y192023D02*
X560323Y192023D01*
X560323Y200915D01*
X563114Y200915D01*
X569215Y194814D01*
X569215Y192023D01*
X560323Y192023D01*
G37*
%LPD*%
%LPC*%
G36*
X331723Y407923D02*
X331723Y407923D01*
X331723Y416815D01*
X334514Y416815D01*
X340615Y410714D01*
X340615Y407923D01*
X331723Y407923D01*
G37*
%LPD*%
%LPC*%
G36*
X674623Y319023D02*
X674623Y319023D01*
X674623Y327915D01*
X677414Y327915D01*
X683515Y321814D01*
X683515Y319023D01*
X674623Y319023D01*
G37*
%LPD*%
%LPC*%
G36*
X319785Y369823D02*
X319785Y369823D01*
X319785Y372614D01*
X325886Y378715D01*
X328677Y378715D01*
X328677Y369823D01*
X319785Y369823D01*
G37*
%LPD*%
%LPC*%
G36*
X319785Y407923D02*
X319785Y407923D01*
X319785Y410714D01*
X325886Y416815D01*
X328677Y416815D01*
X328677Y407923D01*
X319785Y407923D01*
G37*
%LPD*%
%LPC*%
G36*
X331723Y395985D02*
X331723Y395985D01*
X331723Y404877D01*
X340615Y404877D01*
X340615Y402086D01*
X334514Y395985D01*
X331723Y395985D01*
G37*
%LPD*%
%LPC*%
G36*
X624585Y192023D02*
X624585Y192023D01*
X624585Y194814D01*
X630686Y200915D01*
X633477Y200915D01*
X633477Y192023D01*
X624585Y192023D01*
G37*
%LPD*%
%LPC*%
G36*
X548385Y192023D02*
X548385Y192023D01*
X548385Y194814D01*
X554486Y200915D01*
X557277Y200915D01*
X557277Y192023D01*
X548385Y192023D01*
G37*
%LPD*%
%LPC*%
G36*
X560323Y180085D02*
X560323Y180085D01*
X560323Y188977D01*
X569215Y188977D01*
X569215Y186186D01*
X563114Y180085D01*
X560323Y180085D01*
G37*
%LPD*%
%LPC*%
G36*
X674623Y307085D02*
X674623Y307085D01*
X674623Y315977D01*
X683515Y315977D01*
X683515Y313186D01*
X677414Y307085D01*
X674623Y307085D01*
G37*
%LPD*%
%LPC*%
G36*
X624585Y319023D02*
X624585Y319023D01*
X624585Y321814D01*
X630686Y327915D01*
X633477Y327915D01*
X633477Y319023D01*
X624585Y319023D01*
G37*
%LPD*%
%LPC*%
G36*
X662685Y319023D02*
X662685Y319023D01*
X662685Y321814D01*
X668786Y327915D01*
X671577Y327915D01*
X671577Y319023D01*
X662685Y319023D01*
G37*
%LPD*%
%LPC*%
G36*
X331723Y357885D02*
X331723Y357885D01*
X331723Y366777D01*
X340615Y366777D01*
X340615Y363986D01*
X334514Y357885D01*
X331723Y357885D01*
G37*
%LPD*%
%LPC*%
G36*
X554486Y180085D02*
X554486Y180085D01*
X548385Y186186D01*
X548385Y188977D01*
X557277Y188977D01*
X557277Y180085D01*
X554486Y180085D01*
G37*
%LPD*%
%LPC*%
G36*
X630686Y307085D02*
X630686Y307085D01*
X624585Y313186D01*
X624585Y315977D01*
X633477Y315977D01*
X633477Y307085D01*
X630686Y307085D01*
G37*
%LPD*%
%LPC*%
G36*
X668786Y307085D02*
X668786Y307085D01*
X662685Y313186D01*
X662685Y315977D01*
X671577Y315977D01*
X671577Y307085D01*
X668786Y307085D01*
G37*
%LPD*%
%LPC*%
G36*
X630686Y180085D02*
X630686Y180085D01*
X624585Y186186D01*
X624585Y188977D01*
X633477Y188977D01*
X633477Y180085D01*
X630686Y180085D01*
G37*
%LPD*%
%LPC*%
G36*
X325886Y395985D02*
X325886Y395985D01*
X319785Y402086D01*
X319785Y404877D01*
X328677Y404877D01*
X328677Y395985D01*
X325886Y395985D01*
G37*
%LPD*%
%LPC*%
G36*
X325886Y357885D02*
X325886Y357885D01*
X319785Y363986D01*
X319785Y366777D01*
X328677Y366777D01*
X328677Y357885D01*
X325886Y357885D01*
G37*
%LPD*%
%LPC*%
G36*
X330199Y406399D02*
X330199Y406399D01*
X330199Y406401D01*
X330201Y406401D01*
X330201Y406399D01*
X330199Y406399D01*
G37*
%LPD*%
%LPC*%
G36*
X558799Y190499D02*
X558799Y190499D01*
X558799Y190501D01*
X558801Y190501D01*
X558801Y190499D01*
X558799Y190499D01*
G37*
%LPD*%
%LPC*%
G36*
X812799Y495299D02*
X812799Y495299D01*
X812799Y495301D01*
X812801Y495301D01*
X812801Y495299D01*
X812799Y495299D01*
G37*
%LPD*%
%LPC*%
G36*
X634999Y596899D02*
X634999Y596899D01*
X634999Y596901D01*
X635001Y596901D01*
X635001Y596899D01*
X634999Y596899D01*
G37*
%LPD*%
%LPC*%
G36*
X673099Y596899D02*
X673099Y596899D01*
X673099Y596901D01*
X673101Y596901D01*
X673101Y596899D01*
X673099Y596899D01*
G37*
%LPD*%
%LPC*%
G36*
X673099Y317499D02*
X673099Y317499D01*
X673099Y317501D01*
X673101Y317501D01*
X673101Y317499D01*
X673099Y317499D01*
G37*
%LPD*%
%LPC*%
G36*
X507999Y292099D02*
X507999Y292099D01*
X507999Y292101D01*
X508001Y292101D01*
X508001Y292099D01*
X507999Y292099D01*
G37*
%LPD*%
%LPC*%
G36*
X749299Y63753D02*
X749299Y63753D01*
X749299Y63755D01*
X749301Y63755D01*
X749301Y63753D01*
X749299Y63753D01*
G37*
%LPD*%
%LPC*%
G36*
X596899Y63499D02*
X596899Y63499D01*
X596899Y63501D01*
X596901Y63501D01*
X596901Y63499D01*
X596899Y63499D01*
G37*
%LPD*%
%LPC*%
G36*
X749299Y278637D02*
X749299Y278637D01*
X749299Y278639D01*
X749301Y278639D01*
X749301Y278637D01*
X749299Y278637D01*
G37*
%LPD*%
%LPC*%
G36*
X330199Y368299D02*
X330199Y368299D01*
X330199Y368301D01*
X330201Y368301D01*
X330201Y368299D01*
X330199Y368299D01*
G37*
%LPD*%
D10*
X444754Y103886D02*
X444754Y124714D01*
X495046Y124714D02*
X495046Y103886D01*
D11*
X673100Y596900D03*
X673100Y571500D03*
D12*
X609600Y127000D03*
X609600Y152400D03*
D11*
X647700Y152400D03*
X647700Y127000D03*
D12*
X635000Y571500D03*
X635000Y596900D03*
D13*
X660400Y63500D03*
X635000Y63500D03*
D14*
X571500Y63500D03*
X596900Y63500D03*
D12*
X685800Y127000D03*
X685800Y152400D03*
X558800Y571500D03*
X558800Y596900D03*
X596900Y571500D03*
X596900Y596900D03*
D11*
X241300Y165100D03*
X241300Y139700D03*
X241300Y101600D03*
X241300Y76200D03*
D15*
X381000Y431800D03*
X381000Y330200D03*
X355600Y431800D03*
X355600Y330200D03*
X381000Y63500D03*
X381000Y165100D03*
X355600Y63500D03*
X355600Y165100D03*
D16*
X500126Y406400D02*
X515874Y406400D01*
X515874Y431800D02*
X500126Y431800D01*
X500126Y558800D02*
X515874Y558800D01*
X515874Y584200D02*
X500126Y584200D01*
X500126Y457200D02*
X515874Y457200D01*
X515874Y482600D02*
X500126Y482600D01*
X500126Y533400D02*
X515874Y533400D01*
X515874Y508000D02*
X500126Y508000D01*
X439674Y584200D02*
X423926Y584200D01*
X423926Y558800D02*
X439674Y558800D01*
X439674Y533400D02*
X423926Y533400D01*
X423926Y508000D02*
X439674Y508000D01*
X439674Y482600D02*
X423926Y482600D01*
X423926Y457200D02*
X439674Y457200D01*
X439674Y431800D02*
X423926Y431800D01*
X423926Y406400D02*
X439674Y406400D01*
X500126Y190500D02*
X515874Y190500D01*
X515874Y215900D02*
X500126Y215900D01*
X500126Y342900D02*
X515874Y342900D01*
X439674Y342900D02*
X423926Y342900D01*
X500126Y241300D02*
X515874Y241300D01*
X515874Y266700D02*
X500126Y266700D01*
X500126Y317500D02*
X515874Y317500D01*
X515874Y292100D02*
X500126Y292100D01*
X439674Y317500D02*
X423926Y317500D01*
X423926Y292100D02*
X439674Y292100D01*
X439674Y266700D02*
X423926Y266700D01*
X423926Y241300D02*
X439674Y241300D01*
X439674Y215900D02*
X423926Y215900D01*
X423926Y190500D02*
X439674Y190500D01*
D17*
X549402Y101600D02*
X568198Y101600D01*
X568198Y127000D02*
X549402Y127000D01*
X549402Y152400D02*
X568198Y152400D01*
D18*
X355600Y215900D03*
X355600Y190500D03*
D19*
X825500Y317500D03*
X825500Y419100D03*
X635000Y317500D03*
X635000Y419100D03*
X673100Y317500D03*
X673100Y419100D03*
X558800Y444500D03*
X558800Y546100D03*
D20*
X228600Y406400D03*
X330200Y406400D03*
D21*
X342900Y622300D03*
X342900Y520700D03*
X381000Y622300D03*
X381000Y520700D03*
D20*
X292100Y469900D03*
X393700Y469900D03*
X292100Y254000D03*
X393700Y254000D03*
X292100Y292100D03*
X393700Y292100D03*
D22*
X330200Y444500D03*
X228600Y444500D03*
D21*
X787400Y419100D03*
X787400Y317500D03*
X317500Y152400D03*
X317500Y50800D03*
D20*
X228600Y330200D03*
X330200Y330200D03*
D22*
X393700Y495300D03*
X292100Y495300D03*
D20*
X228600Y368300D03*
X330200Y368300D03*
D19*
X596900Y444500D03*
X596900Y546100D03*
D21*
X558800Y419100D03*
X558800Y317500D03*
D19*
X635000Y444500D03*
X635000Y546100D03*
X673100Y444500D03*
X673100Y546100D03*
X279400Y50800D03*
X279400Y152400D03*
X266700Y520700D03*
X266700Y622300D03*
D21*
X749300Y419100D03*
X749300Y317500D03*
X304800Y622300D03*
X304800Y520700D03*
D23*
X762000Y495300D03*
X812800Y495300D03*
X787400Y444500D03*
D18*
X257175Y215900D03*
X257175Y266700D03*
X257175Y241300D03*
D19*
X711200Y317500D03*
X711200Y419100D03*
D21*
X673100Y292100D03*
X673100Y190500D03*
D19*
X558800Y190500D03*
X558800Y292100D03*
X596900Y190500D03*
X596900Y292100D03*
X635000Y190500D03*
X635000Y292100D03*
X596900Y317500D03*
X596900Y419100D03*
X736600Y571500D03*
X717550Y558800D03*
X736600Y546100D03*
X800100Y571500D03*
X781050Y558800D03*
X800100Y546100D03*
D10*
X759714Y178562D02*
X738886Y178562D01*
X738886Y228600D02*
X759714Y228600D01*
X759714Y278638D02*
X738886Y278638D01*
X738886Y63754D02*
X759714Y63754D01*
X759714Y114046D02*
X738886Y114046D01*
D24*
X397764Y498348D02*
X397764Y507492D01*
X402336Y512064D01*
X402336Y521208D01*
X411480Y530352D01*
X429768Y530352D01*
X397764Y498348D02*
X393700Y495300D01*
X429768Y530352D02*
X431800Y533400D01*
X512064Y269748D02*
X521208Y269748D01*
X534924Y283464D01*
X534924Y301752D01*
X548640Y315468D01*
X557784Y315468D01*
X512064Y269748D02*
X508000Y266700D01*
X557784Y315468D02*
X558800Y317500D01*
X562356Y315468D02*
X594360Y315468D01*
X596900Y317500D01*
X562356Y315468D02*
X558800Y317500D01*
X495046Y114300D02*
X480060Y114300D01*
X470916Y123444D01*
X470916Y242316D01*
X493776Y265176D01*
X507492Y265176D01*
X508000Y266700D01*
X662940Y448056D02*
X672084Y448056D01*
X662940Y448056D02*
X653796Y457200D01*
X640080Y443484D01*
X635508Y443484D01*
X672084Y448056D02*
X673100Y444500D01*
X635508Y443484D02*
X635000Y444500D01*
X338328Y658368D02*
X306324Y626364D01*
X338328Y658368D02*
X717804Y658368D01*
X781812Y594360D02*
X800100Y576072D01*
X781812Y594360D02*
X717804Y658368D01*
X800100Y576072D02*
X800100Y571500D01*
X306324Y626364D02*
X304800Y622300D01*
X653796Y457200D02*
X717804Y521208D01*
X745236Y521208D01*
X758952Y534924D01*
X758952Y571500D01*
X781812Y594360D01*
X662940Y141732D02*
X649224Y128016D01*
X662940Y141732D02*
X662940Y169164D01*
X653796Y178308D01*
X653796Y192024D01*
X658368Y196596D01*
X658368Y201168D01*
X653796Y205740D01*
X653796Y297180D01*
X649224Y301752D01*
X653796Y306324D01*
X653796Y329184D01*
X580644Y402336D01*
X580644Y429768D01*
X562356Y448056D01*
X649224Y128016D02*
X647700Y127000D01*
X558800Y444500D02*
X562356Y448056D01*
X562356Y100584D02*
X566928Y100584D01*
X585216Y82296D01*
X589788Y86868D01*
X608076Y86868D01*
X626364Y68580D01*
X635508Y68580D01*
X635508Y64008D01*
X562356Y100584D02*
X558800Y101600D01*
X635000Y63500D02*
X635508Y64008D01*
X525780Y242316D02*
X512064Y242316D01*
X534924Y251460D02*
X544068Y260604D01*
X534924Y251460D02*
X525780Y242316D01*
X544068Y260604D02*
X544068Y274320D01*
X553212Y283464D01*
X553212Y292608D01*
X557784Y292608D01*
X512064Y242316D02*
X508000Y241300D01*
X557784Y292608D02*
X558800Y292100D01*
X557784Y77724D02*
X571500Y64008D01*
X557784Y77724D02*
X539496Y77724D01*
X525780Y91440D01*
X525780Y169164D01*
X539496Y182880D01*
X539496Y246888D01*
X534924Y251460D01*
X571500Y64008D02*
X571500Y63500D01*
X667512Y105156D02*
X685800Y123444D01*
X667512Y105156D02*
X598932Y105156D01*
X576072Y128016D01*
X562356Y128016D01*
X685800Y127000D02*
X685800Y123444D01*
X562356Y128016D02*
X558800Y127000D01*
X508000Y457200D02*
X502920Y457200D01*
X484632Y438912D01*
X484632Y434340D01*
X480060Y429768D01*
X480060Y393192D01*
X507492Y365760D01*
X580644Y365760D01*
X617220Y329184D01*
X612648Y324612D01*
X612648Y310896D01*
X626364Y297180D01*
X635508Y297180D01*
X635508Y292608D01*
X635000Y292100D01*
X525780Y480060D02*
X512064Y480060D01*
X525780Y480060D02*
X539496Y466344D01*
X608076Y466344D01*
X612648Y461772D01*
X612648Y443484D01*
X630936Y425196D01*
X635508Y425196D01*
X635508Y420624D01*
X512064Y480060D02*
X508000Y482600D01*
X635508Y420624D02*
X635000Y419100D01*
X790956Y448056D02*
X804672Y448056D01*
X809244Y452628D01*
X854964Y452628D01*
X859536Y448056D01*
X859536Y237744D01*
X745236Y123444D01*
X745236Y114300D01*
X787400Y444500D02*
X790956Y448056D01*
X749300Y114046D02*
X745236Y114300D01*
X736092Y466344D02*
X690372Y466344D01*
X736092Y466344D02*
X758952Y489204D01*
X763524Y489204D01*
X763524Y493776D01*
X762000Y495300D01*
D25*
X690372Y466344D03*
D24*
X530352Y406908D02*
X512064Y406908D01*
X530352Y406908D02*
X534924Y411480D01*
X544068Y411480D01*
X553212Y420624D01*
X557784Y420624D01*
X512064Y406908D02*
X508000Y406400D01*
X557784Y420624D02*
X558800Y419100D01*
X736092Y539496D02*
X736092Y544068D01*
X736092Y539496D02*
X726948Y530352D01*
X704088Y530352D01*
X658368Y484632D01*
X544068Y484632D01*
X736092Y544068D02*
X736600Y546100D01*
D25*
X544068Y484632D03*
D24*
X530352Y585216D02*
X512064Y585216D01*
X530352Y585216D02*
X534924Y580644D01*
X548640Y594360D01*
X557784Y594360D01*
X512064Y585216D02*
X508000Y584200D01*
X557784Y594360D02*
X558800Y596900D01*
X379476Y516636D02*
X365760Y502920D01*
X365760Y457200D01*
X379476Y443484D01*
X379476Y434340D01*
X379476Y516636D02*
X381000Y520700D01*
X379476Y434340D02*
X381000Y431800D01*
X489204Y320040D02*
X507492Y320040D01*
X489204Y320040D02*
X470916Y338328D01*
X470916Y507492D01*
X461772Y516636D01*
X461772Y594360D01*
X443484Y612648D01*
X397764Y612648D01*
X384048Y626364D01*
X507492Y320040D02*
X508000Y317500D01*
X381000Y622300D02*
X384048Y626364D01*
X397764Y576072D02*
X342900Y521208D01*
X397764Y576072D02*
X397764Y612648D01*
X342900Y521208D02*
X342900Y520700D01*
X594360Y598932D02*
X594360Y608076D01*
X553212Y649224D01*
X365760Y649224D01*
X347472Y630936D01*
X347472Y621792D01*
X342900Y621792D01*
X594360Y598932D02*
X596900Y596900D01*
X342900Y621792D02*
X342900Y622300D01*
X434340Y292608D02*
X457200Y292608D01*
X461772Y297180D01*
X461772Y352044D01*
X448056Y365760D01*
X402336Y365760D02*
X379476Y365760D01*
X402336Y365760D02*
X448056Y365760D01*
X379476Y365760D02*
X361188Y347472D01*
X361188Y342900D01*
X356616Y338328D01*
X361188Y333756D01*
X356616Y329184D01*
X431800Y292100D02*
X434340Y292608D01*
X356616Y329184D02*
X355600Y330200D01*
X397764Y448056D02*
X397764Y466344D01*
X397764Y448056D02*
X402336Y443484D01*
X402336Y365760D01*
X397764Y466344D02*
X393700Y469900D01*
X393192Y251460D02*
X324612Y251460D01*
X301752Y228600D01*
X278892Y228600D01*
X260604Y210312D01*
X256032Y210312D01*
X256032Y214884D01*
X393192Y251460D02*
X393700Y254000D01*
X257175Y215900D02*
X256032Y214884D01*
X416052Y342900D02*
X431800Y342900D01*
X416052Y342900D02*
X406908Y333756D01*
X406908Y329184D01*
X384048Y306324D01*
X310896Y306324D01*
X292608Y288036D01*
X292100Y292100D01*
X411480Y237744D02*
X429768Y237744D01*
X411480Y237744D02*
X397764Y224028D01*
X397764Y182880D01*
X384048Y169164D01*
X429768Y237744D02*
X431800Y241300D01*
X384048Y169164D02*
X381000Y165100D01*
X324612Y50292D02*
X320040Y50292D01*
X324612Y50292D02*
X338328Y64008D01*
X347472Y64008D01*
X352044Y68580D01*
X356616Y64008D01*
X355600Y63500D01*
X251460Y137160D02*
X242316Y137160D01*
X251460Y137160D02*
X297180Y91440D01*
X297180Y64008D01*
X315468Y45720D01*
X320040Y50292D01*
X242316Y137160D02*
X241300Y139700D01*
X317500Y50800D02*
X320040Y50292D01*
X379476Y155448D02*
X379476Y164592D01*
X379476Y155448D02*
X315468Y91440D01*
X297180Y91440D01*
X379476Y164592D02*
X381000Y165100D01*
X329184Y443484D02*
X324612Y443484D01*
X310896Y429768D01*
X310896Y356616D01*
X329184Y338328D01*
X324612Y333756D01*
X324612Y329184D01*
X329184Y329184D01*
X329184Y443484D02*
X330200Y444500D01*
X330200Y330200D02*
X329184Y329184D01*
X598932Y438912D02*
X598932Y443484D01*
X598932Y438912D02*
X612648Y425196D01*
X612648Y406908D01*
X694944Y324612D01*
X694944Y310896D01*
X690372Y306324D01*
X708660Y288036D01*
X708660Y73152D01*
X649224Y13716D01*
X310896Y13716D01*
X278892Y45720D01*
X278892Y50292D01*
X596900Y444500D02*
X598932Y443484D01*
X279400Y50800D02*
X278892Y50292D01*
X228600Y330200D02*
X228600Y338328D01*
X219456Y347472D01*
X219456Y352044D01*
X233172Y365760D01*
X228600Y370332D01*
X228600Y368300D01*
X274320Y498348D02*
X288036Y498348D01*
X274320Y498348D02*
X251460Y475488D01*
X251460Y397764D01*
X224028Y370332D01*
X228600Y365760D01*
X292100Y495300D02*
X288036Y498348D01*
X228600Y368300D02*
X228600Y365760D01*
X338328Y164592D02*
X352044Y164592D01*
X338328Y164592D02*
X310896Y192024D01*
X246888Y192024D01*
X182880Y256032D01*
X182880Y315468D01*
X219456Y352044D01*
X352044Y164592D02*
X355600Y165100D01*
X379476Y274320D02*
X393192Y288036D01*
X379476Y274320D02*
X306324Y274320D01*
X301752Y269748D01*
X292608Y269748D01*
X269748Y292608D01*
X201168Y292608D01*
X393192Y288036D02*
X393700Y292100D01*
D25*
X201168Y292608D03*
D24*
X694944Y539496D02*
X713232Y557784D01*
X694944Y539496D02*
X694944Y534924D01*
X681228Y521208D01*
X662940Y521208D01*
X635508Y548640D01*
X713232Y557784D02*
X717550Y558800D01*
X635508Y548640D02*
X635000Y546100D01*
X278892Y155448D02*
X269748Y155448D01*
X260604Y164592D01*
X260604Y173736D01*
X251460Y182880D01*
X242316Y182880D01*
X224028Y201168D01*
X205740Y201168D01*
X201168Y205740D01*
X192024Y416052D02*
X192024Y484632D01*
X251460Y544068D01*
X274320Y544068D01*
X301752Y516636D01*
X278892Y155448D02*
X279400Y152400D01*
X301752Y516636D02*
X304800Y520700D01*
X704088Y640080D02*
X736092Y608076D01*
D25*
X201168Y205740D03*
X192024Y416052D03*
X736092Y608076D03*
X704088Y640080D03*
D24*
X269748Y621792D02*
X269748Y612648D01*
X283464Y598932D01*
X352044Y598932D01*
X365760Y612648D01*
X365760Y630936D01*
X374904Y640080D01*
X434340Y640080D01*
X443484Y630936D01*
X269748Y621792D02*
X266700Y622300D01*
D25*
X443484Y630936D03*
D24*
X612648Y155448D02*
X644652Y155448D01*
X612648Y155448D02*
X609600Y152400D01*
X644652Y155448D02*
X647700Y152400D01*
X507492Y507492D02*
X484632Y507492D01*
X475488Y516636D01*
X475488Y539496D01*
X493776Y557784D01*
X507492Y557784D01*
X508000Y508000D02*
X507492Y507492D01*
X507492Y557784D02*
X508000Y558800D01*
M02*
