G04 EAGLE Gerber RS-274X export*
G75*
%MOMM*%
%FSLAX34Y34*%
%LPD*%
%INSoldermask Bottom*%
%IPPOS*%
%AMOC8*
5,1,8,0,0,1.08239X$1,22.5*%
G01*
%ADD10C,1.203200*%
%ADD11C,2.032000*%
%ADD12P,1.951982X8X292.500000*%
%ADD13P,1.951982X8X112.500000*%
%ADD14P,1.951982X8X202.500000*%
%ADD15P,1.951982X8X22.500000*%
%ADD16C,1.828800*%
%ADD17C,1.524000*%
%ADD18C,2.082800*%
%ADD19P,2.034460X8X292.500000*%
%ADD20P,1.649562X8X112.500000*%
%ADD21P,1.649562X8X22.500000*%
%ADD22P,1.649562X8X292.500000*%
%ADD23P,1.649562X8X202.500000*%
%ADD24P,2.034460X8X22.500000*%
%ADD25C,1.765200*%


D10*
X196850Y641350D03*
X850900Y641350D03*
X850900Y19050D03*
X196850Y19050D03*
D11*
X444754Y105156D02*
X444754Y123444D01*
X495046Y123444D02*
X495046Y105156D01*
D12*
X673100Y596900D03*
X673100Y571500D03*
D13*
X609600Y127000D03*
X609600Y152400D03*
D12*
X647700Y152400D03*
X647700Y127000D03*
D13*
X635000Y571500D03*
X635000Y596900D03*
D14*
X660400Y63500D03*
X635000Y63500D03*
D15*
X571500Y63500D03*
X596900Y63500D03*
D13*
X685800Y127000D03*
X685800Y152400D03*
X558800Y571500D03*
X558800Y596900D03*
X596900Y571500D03*
X596900Y596900D03*
D12*
X241300Y165100D03*
X241300Y139700D03*
X241300Y101600D03*
X241300Y76200D03*
D16*
X381000Y431800D03*
X381000Y330200D03*
X355600Y431800D03*
X355600Y330200D03*
X381000Y63500D03*
X381000Y165100D03*
X355600Y63500D03*
X355600Y165100D03*
D17*
X501396Y406400D02*
X514604Y406400D01*
X514604Y431800D02*
X501396Y431800D01*
X501396Y558800D02*
X514604Y558800D01*
X514604Y584200D02*
X501396Y584200D01*
X501396Y457200D02*
X514604Y457200D01*
X514604Y482600D02*
X501396Y482600D01*
X501396Y533400D02*
X514604Y533400D01*
X514604Y508000D02*
X501396Y508000D01*
X438404Y584200D02*
X425196Y584200D01*
X425196Y558800D02*
X438404Y558800D01*
X438404Y533400D02*
X425196Y533400D01*
X425196Y508000D02*
X438404Y508000D01*
X438404Y482600D02*
X425196Y482600D01*
X425196Y457200D02*
X438404Y457200D01*
X438404Y431800D02*
X425196Y431800D01*
X425196Y406400D02*
X438404Y406400D01*
X501396Y190500D02*
X514604Y190500D01*
X514604Y215900D02*
X501396Y215900D01*
X501396Y342900D02*
X514604Y342900D01*
X438404Y342900D02*
X425196Y342900D01*
X501396Y241300D02*
X514604Y241300D01*
X514604Y266700D02*
X501396Y266700D01*
X501396Y317500D02*
X514604Y317500D01*
X514604Y292100D02*
X501396Y292100D01*
X438404Y317500D02*
X425196Y317500D01*
X425196Y292100D02*
X438404Y292100D01*
X438404Y266700D02*
X425196Y266700D01*
X425196Y241300D02*
X438404Y241300D01*
X438404Y215900D02*
X425196Y215900D01*
X425196Y190500D02*
X438404Y190500D01*
D18*
X549402Y101600D02*
X568198Y101600D01*
X568198Y127000D02*
X549402Y127000D01*
X549402Y152400D02*
X568198Y152400D01*
D19*
X355600Y215900D03*
X355600Y190500D03*
D20*
X825500Y317500D03*
X825500Y419100D03*
X635000Y317500D03*
X635000Y419100D03*
X673100Y317500D03*
X673100Y419100D03*
X558800Y444500D03*
X558800Y546100D03*
D21*
X228600Y406400D03*
X330200Y406400D03*
D22*
X342900Y622300D03*
X342900Y520700D03*
X381000Y622300D03*
X381000Y520700D03*
D21*
X292100Y469900D03*
X393700Y469900D03*
X292100Y254000D03*
X393700Y254000D03*
X292100Y292100D03*
X393700Y292100D03*
D23*
X330200Y444500D03*
X228600Y444500D03*
D22*
X787400Y419100D03*
X787400Y317500D03*
X317500Y152400D03*
X317500Y50800D03*
D21*
X228600Y330200D03*
X330200Y330200D03*
D23*
X393700Y495300D03*
X292100Y495300D03*
D21*
X228600Y368300D03*
X330200Y368300D03*
D20*
X596900Y444500D03*
X596900Y546100D03*
D22*
X558800Y419100D03*
X558800Y317500D03*
D20*
X635000Y444500D03*
X635000Y546100D03*
X673100Y444500D03*
X673100Y546100D03*
X279400Y50800D03*
X279400Y152400D03*
X266700Y520700D03*
X266700Y622300D03*
D22*
X749300Y419100D03*
X749300Y317500D03*
X304800Y622300D03*
X304800Y520700D03*
D24*
X762000Y495300D03*
X812800Y495300D03*
X787400Y444500D03*
D19*
X257175Y215900D03*
X257175Y266700D03*
X257175Y241300D03*
D20*
X711200Y317500D03*
X711200Y419100D03*
D22*
X673100Y292100D03*
X673100Y190500D03*
D20*
X558800Y190500D03*
X558800Y292100D03*
X596900Y190500D03*
X596900Y292100D03*
X635000Y190500D03*
X635000Y292100D03*
X596900Y317500D03*
X596900Y419100D03*
X736600Y571500D03*
X717550Y558800D03*
X736600Y546100D03*
X800100Y571500D03*
X781050Y558800D03*
X800100Y546100D03*
D11*
X758444Y178562D02*
X740156Y178562D01*
X740156Y228600D02*
X758444Y228600D01*
X758444Y278638D02*
X740156Y278638D01*
X740156Y63754D02*
X758444Y63754D01*
X758444Y114046D02*
X740156Y114046D01*
D25*
X690372Y466344D03*
X544068Y484632D03*
X201168Y292608D03*
X201168Y205740D03*
X192024Y416052D03*
X736092Y608076D03*
X704088Y640080D03*
X443484Y630936D03*
M02*
