G04 EAGLE Gerber RS-274X export*
G75*
%MOMM*%
%FSLAX34Y34*%
%LPD*%
%INTop Copper*%
%IPPOS*%
%AMOC8*
5,1,8,0,0,1.08239X$1,22.5*%
G01*
%ADD10C,1.879600*%
%ADD11C,1.320800*%
%ADD12P,1.814519X8X112.500000*%
%ADD13P,1.814519X8X292.500000*%
%ADD14C,1.524000*%
%ADD15P,1.814519X8X22.500000*%
%ADD16P,1.814519X8X202.500000*%
%ADD17C,4.016000*%
%ADD18C,0.203200*%
%ADD19C,1.006400*%

G36*
X837750Y139201D02*
X837750Y139201D01*
X837808Y139199D01*
X837890Y139221D01*
X837974Y139233D01*
X838027Y139256D01*
X838083Y139271D01*
X838156Y139314D01*
X838233Y139349D01*
X838278Y139387D01*
X838328Y139416D01*
X838386Y139478D01*
X838450Y139532D01*
X838482Y139581D01*
X838522Y139624D01*
X838561Y139699D01*
X838608Y139769D01*
X838625Y139825D01*
X838652Y139877D01*
X838663Y139945D01*
X838693Y140040D01*
X838696Y140140D01*
X838707Y140208D01*
X838707Y621792D01*
X838699Y621850D01*
X838701Y621908D01*
X838679Y621990D01*
X838667Y622074D01*
X838644Y622127D01*
X838629Y622183D01*
X838586Y622256D01*
X838551Y622333D01*
X838513Y622378D01*
X838484Y622428D01*
X838422Y622486D01*
X838368Y622550D01*
X838319Y622582D01*
X838276Y622622D01*
X838201Y622661D01*
X838131Y622708D01*
X838075Y622725D01*
X838023Y622752D01*
X837955Y622763D01*
X837860Y622793D01*
X837760Y622796D01*
X837692Y622807D01*
X89408Y622807D01*
X89350Y622799D01*
X89292Y622801D01*
X89210Y622779D01*
X89126Y622767D01*
X89073Y622744D01*
X89017Y622729D01*
X88944Y622686D01*
X88867Y622651D01*
X88822Y622613D01*
X88772Y622584D01*
X88714Y622522D01*
X88650Y622468D01*
X88618Y622419D01*
X88578Y622376D01*
X88539Y622301D01*
X88492Y622231D01*
X88475Y622175D01*
X88448Y622123D01*
X88437Y622055D01*
X88407Y621960D01*
X88404Y621860D01*
X88393Y621792D01*
X88393Y140208D01*
X88401Y140150D01*
X88399Y140092D01*
X88421Y140010D01*
X88433Y139926D01*
X88456Y139873D01*
X88471Y139817D01*
X88514Y139744D01*
X88549Y139667D01*
X88587Y139622D01*
X88616Y139572D01*
X88678Y139514D01*
X88732Y139450D01*
X88781Y139418D01*
X88824Y139378D01*
X88899Y139339D01*
X88969Y139292D01*
X89025Y139275D01*
X89077Y139248D01*
X89145Y139237D01*
X89240Y139207D01*
X89340Y139204D01*
X89408Y139193D01*
X837692Y139193D01*
X837750Y139201D01*
G37*
%LPC*%
G36*
X443095Y234235D02*
X443095Y234235D01*
X440498Y235311D01*
X438511Y237298D01*
X437435Y239895D01*
X437435Y242705D01*
X438511Y245302D01*
X440498Y247289D01*
X440825Y247424D01*
X440826Y247425D01*
X440827Y247426D01*
X440944Y247495D01*
X441069Y247569D01*
X441071Y247570D01*
X441072Y247571D01*
X441167Y247672D01*
X441265Y247776D01*
X441265Y247777D01*
X441266Y247778D01*
X441331Y247904D01*
X441395Y248028D01*
X441395Y248030D01*
X441396Y248031D01*
X441398Y248046D01*
X441450Y248307D01*
X441447Y248338D01*
X441451Y248362D01*
X441451Y259172D01*
X441447Y259201D01*
X441450Y259230D01*
X441427Y259341D01*
X441411Y259453D01*
X441399Y259480D01*
X441394Y259509D01*
X441342Y259609D01*
X441295Y259713D01*
X441276Y259735D01*
X441263Y259761D01*
X441185Y259843D01*
X441112Y259930D01*
X441087Y259946D01*
X441067Y259967D01*
X440969Y260024D01*
X440875Y260087D01*
X440847Y260096D01*
X440822Y260111D01*
X440712Y260139D01*
X440604Y260173D01*
X440574Y260174D01*
X440546Y260181D01*
X440433Y260177D01*
X440320Y260180D01*
X440291Y260173D01*
X440262Y260172D01*
X440154Y260137D01*
X440045Y260108D01*
X440019Y260093D01*
X439991Y260084D01*
X439928Y260039D01*
X439800Y259963D01*
X439757Y259917D01*
X439718Y259889D01*
X436114Y256285D01*
X427486Y256285D01*
X421385Y262386D01*
X421385Y271014D01*
X427486Y277115D01*
X436114Y277115D01*
X439718Y273511D01*
X439742Y273493D01*
X439761Y273470D01*
X439855Y273408D01*
X439945Y273340D01*
X439973Y273329D01*
X439997Y273313D01*
X440105Y273279D01*
X440211Y273238D01*
X440240Y273236D01*
X440268Y273227D01*
X440382Y273224D01*
X440494Y273215D01*
X440523Y273221D01*
X440552Y273220D01*
X440662Y273248D01*
X440773Y273271D01*
X440799Y273284D01*
X440827Y273292D01*
X440925Y273349D01*
X441025Y273402D01*
X441047Y273422D01*
X441072Y273437D01*
X441149Y273519D01*
X441231Y273597D01*
X441246Y273623D01*
X441266Y273644D01*
X441318Y273745D01*
X441375Y273843D01*
X441382Y273871D01*
X441396Y273897D01*
X441409Y273975D01*
X441445Y274118D01*
X441443Y274181D01*
X441451Y274228D01*
X441451Y361238D01*
X441451Y361239D01*
X441451Y361241D01*
X441431Y361381D01*
X441411Y361519D01*
X441411Y361521D01*
X441411Y361522D01*
X441353Y361649D01*
X441295Y361779D01*
X441294Y361780D01*
X441293Y361781D01*
X441202Y361888D01*
X441112Y361996D01*
X441110Y361996D01*
X441109Y361998D01*
X441096Y362006D01*
X440875Y362153D01*
X440846Y362162D01*
X440825Y362176D01*
X440498Y362311D01*
X438511Y364298D01*
X437435Y366895D01*
X437435Y369705D01*
X438511Y372302D01*
X440498Y374289D01*
X443095Y375365D01*
X443373Y375365D01*
X443402Y375369D01*
X443431Y375366D01*
X443542Y375389D01*
X443654Y375405D01*
X443681Y375417D01*
X443710Y375422D01*
X443810Y375475D01*
X443914Y375521D01*
X443936Y375540D01*
X443962Y375553D01*
X444044Y375631D01*
X444131Y375704D01*
X444147Y375729D01*
X444168Y375749D01*
X444225Y375847D01*
X444288Y375941D01*
X444297Y375969D01*
X444312Y375994D01*
X444340Y376104D01*
X444374Y376212D01*
X444375Y376242D01*
X444382Y376270D01*
X444378Y376383D01*
X444381Y376496D01*
X444374Y376525D01*
X444373Y376554D01*
X444338Y376662D01*
X444309Y376771D01*
X444295Y376797D01*
X444285Y376825D01*
X444240Y376889D01*
X444164Y377016D01*
X444119Y377059D01*
X444091Y377098D01*
X443535Y377654D01*
X443465Y377707D01*
X443401Y377766D01*
X443352Y377792D01*
X443307Y377825D01*
X443226Y377856D01*
X443148Y377896D01*
X443100Y377904D01*
X443042Y377926D01*
X442894Y377938D01*
X442817Y377951D01*
X278137Y377951D01*
X265735Y390354D01*
X265035Y391054D01*
X265010Y391072D01*
X264990Y391096D01*
X264923Y391138D01*
X264807Y391225D01*
X264747Y391248D01*
X264705Y391274D01*
X261808Y392474D01*
X259378Y394904D01*
X258063Y398078D01*
X258063Y414722D01*
X259378Y417896D01*
X261808Y420326D01*
X263025Y420830D01*
X263026Y420831D01*
X263027Y420831D01*
X263148Y420903D01*
X263269Y420974D01*
X263270Y420976D01*
X263272Y420976D01*
X263369Y421080D01*
X263465Y421181D01*
X263465Y421182D01*
X263466Y421184D01*
X263531Y421309D01*
X263595Y421434D01*
X263595Y421435D01*
X263596Y421437D01*
X263598Y421452D01*
X263650Y421713D01*
X263647Y421743D01*
X263651Y421768D01*
X263651Y598163D01*
X278137Y612649D01*
X496563Y612649D01*
X498646Y610566D01*
X498646Y610565D01*
X502074Y607138D01*
X502120Y607103D01*
X502161Y607060D01*
X502233Y607018D01*
X502301Y606967D01*
X502355Y606946D01*
X502406Y606917D01*
X502488Y606896D01*
X502566Y606866D01*
X502625Y606861D01*
X502681Y606847D01*
X502766Y606849D01*
X502850Y606842D01*
X502907Y606854D01*
X502966Y606856D01*
X503046Y606882D01*
X503128Y606898D01*
X503180Y606925D01*
X503236Y606943D01*
X503292Y606983D01*
X503381Y607029D01*
X503453Y607098D01*
X503509Y607138D01*
X503686Y607315D01*
X512314Y607315D01*
X518415Y601214D01*
X518415Y600964D01*
X518423Y600906D01*
X518421Y600848D01*
X518443Y600766D01*
X518455Y600682D01*
X518478Y600629D01*
X518493Y600573D01*
X518536Y600500D01*
X518571Y600423D01*
X518609Y600378D01*
X518638Y600328D01*
X518700Y600270D01*
X518754Y600206D01*
X518803Y600174D01*
X518846Y600134D01*
X518921Y600095D01*
X518991Y600048D01*
X519047Y600031D01*
X519099Y600004D01*
X519167Y599993D01*
X519262Y599963D01*
X519362Y599960D01*
X519430Y599949D01*
X521970Y599949D01*
X522028Y599957D01*
X522086Y599955D01*
X522168Y599977D01*
X522252Y599989D01*
X522305Y600012D01*
X522361Y600027D01*
X522434Y600070D01*
X522511Y600105D01*
X522556Y600143D01*
X522606Y600172D01*
X522664Y600234D01*
X522728Y600288D01*
X522760Y600337D01*
X522800Y600380D01*
X522839Y600455D01*
X522886Y600525D01*
X522903Y600581D01*
X522930Y600633D01*
X522941Y600701D01*
X522971Y600796D01*
X522974Y600896D01*
X522985Y600964D01*
X522985Y601214D01*
X529086Y607315D01*
X537714Y607315D01*
X543815Y601214D01*
X543815Y592586D01*
X537714Y586485D01*
X529086Y586485D01*
X522985Y592586D01*
X522985Y592836D01*
X522977Y592894D01*
X522979Y592952D01*
X522957Y593034D01*
X522945Y593118D01*
X522922Y593171D01*
X522907Y593227D01*
X522864Y593300D01*
X522829Y593377D01*
X522791Y593422D01*
X522762Y593472D01*
X522700Y593530D01*
X522646Y593594D01*
X522597Y593626D01*
X522554Y593666D01*
X522479Y593705D01*
X522409Y593752D01*
X522353Y593769D01*
X522301Y593796D01*
X522233Y593807D01*
X522138Y593837D01*
X522038Y593840D01*
X521970Y593851D01*
X519430Y593851D01*
X519372Y593843D01*
X519314Y593845D01*
X519232Y593823D01*
X519148Y593811D01*
X519095Y593788D01*
X519039Y593773D01*
X518966Y593730D01*
X518889Y593695D01*
X518844Y593657D01*
X518794Y593628D01*
X518736Y593566D01*
X518672Y593512D01*
X518640Y593463D01*
X518600Y593420D01*
X518561Y593345D01*
X518514Y593275D01*
X518497Y593219D01*
X518470Y593167D01*
X518459Y593099D01*
X518429Y593004D01*
X518426Y592904D01*
X518415Y592836D01*
X518415Y592586D01*
X512314Y586485D01*
X503686Y586485D01*
X497585Y592586D01*
X497585Y601214D01*
X497762Y601391D01*
X497797Y601437D01*
X497840Y601478D01*
X497882Y601550D01*
X497933Y601618D01*
X497954Y601673D01*
X497983Y601723D01*
X498004Y601805D01*
X498034Y601883D01*
X498039Y601942D01*
X498053Y601998D01*
X498051Y602083D01*
X498058Y602167D01*
X498046Y602224D01*
X498044Y602283D01*
X498018Y602363D01*
X498002Y602446D01*
X497975Y602497D01*
X497957Y602553D01*
X497917Y602609D01*
X497871Y602698D01*
X497809Y602763D01*
X497797Y602783D01*
X497785Y602794D01*
X497762Y602826D01*
X494335Y606254D01*
X494265Y606306D01*
X494201Y606366D01*
X494151Y606392D01*
X494107Y606425D01*
X494026Y606456D01*
X493948Y606496D01*
X493900Y606504D01*
X493842Y606526D01*
X493694Y606538D01*
X493617Y606551D01*
X490128Y606551D01*
X490099Y606547D01*
X490070Y606550D01*
X489959Y606527D01*
X489847Y606511D01*
X489820Y606499D01*
X489791Y606494D01*
X489691Y606442D01*
X489587Y606395D01*
X489565Y606376D01*
X489539Y606363D01*
X489457Y606285D01*
X489370Y606212D01*
X489354Y606187D01*
X489333Y606167D01*
X489276Y606069D01*
X489213Y605975D01*
X489204Y605947D01*
X489189Y605922D01*
X489161Y605812D01*
X489127Y605704D01*
X489126Y605674D01*
X489119Y605646D01*
X489123Y605533D01*
X489120Y605420D01*
X489127Y605391D01*
X489128Y605362D01*
X489163Y605254D01*
X489192Y605145D01*
X489207Y605119D01*
X489216Y605091D01*
X489261Y605028D01*
X489337Y604900D01*
X489383Y604857D01*
X489411Y604818D01*
X493015Y601214D01*
X493015Y592586D01*
X486914Y586485D01*
X478286Y586485D01*
X472185Y592586D01*
X472185Y601214D01*
X475789Y604818D01*
X475807Y604842D01*
X475830Y604861D01*
X475892Y604955D01*
X475960Y605045D01*
X475971Y605073D01*
X475987Y605097D01*
X476021Y605205D01*
X476062Y605311D01*
X476064Y605340D01*
X476073Y605368D01*
X476076Y605482D01*
X476085Y605594D01*
X476079Y605623D01*
X476080Y605652D01*
X476052Y605762D01*
X476029Y605873D01*
X476016Y605899D01*
X476008Y605927D01*
X475951Y606025D01*
X475898Y606125D01*
X475878Y606147D01*
X475863Y606172D01*
X475781Y606249D01*
X475703Y606331D01*
X475677Y606346D01*
X475656Y606366D01*
X475555Y606418D01*
X475457Y606475D01*
X475429Y606482D01*
X475403Y606496D01*
X475325Y606509D01*
X475182Y606545D01*
X475119Y606543D01*
X475072Y606551D01*
X432065Y606551D01*
X432036Y606547D01*
X432007Y606550D01*
X431896Y606527D01*
X431784Y606511D01*
X431757Y606499D01*
X431728Y606494D01*
X431628Y606442D01*
X431524Y606395D01*
X431502Y606376D01*
X431476Y606363D01*
X431394Y606285D01*
X431307Y606212D01*
X431291Y606187D01*
X431270Y606167D01*
X431213Y606069D01*
X431150Y605975D01*
X431141Y605947D01*
X431126Y605922D01*
X431098Y605812D01*
X431064Y605704D01*
X431063Y605674D01*
X431056Y605646D01*
X431060Y605533D01*
X431057Y605420D01*
X431064Y605391D01*
X431065Y605362D01*
X431100Y605254D01*
X431128Y605145D01*
X431143Y605119D01*
X431152Y605091D01*
X431198Y605028D01*
X431274Y604900D01*
X431319Y604857D01*
X431347Y604818D01*
X434691Y601475D01*
X436431Y597274D01*
X436431Y592726D01*
X434690Y588525D01*
X431475Y585310D01*
X427274Y583569D01*
X422726Y583569D01*
X418525Y585310D01*
X415310Y588525D01*
X413614Y592617D01*
X413611Y592623D01*
X413610Y592628D01*
X413539Y592745D01*
X413470Y592862D01*
X413465Y592866D01*
X413462Y592872D01*
X413362Y592964D01*
X413263Y593057D01*
X413258Y593060D01*
X413253Y593064D01*
X413132Y593125D01*
X413011Y593187D01*
X413004Y593189D01*
X412999Y593191D01*
X412865Y593216D01*
X412732Y593242D01*
X412725Y593242D01*
X412719Y593243D01*
X412583Y593230D01*
X412448Y593218D01*
X412443Y593216D01*
X412436Y593215D01*
X412310Y593165D01*
X412183Y593116D01*
X412178Y593112D01*
X412172Y593110D01*
X412064Y593026D01*
X411956Y592944D01*
X411953Y592939D01*
X411948Y592936D01*
X411867Y592825D01*
X411786Y592717D01*
X411784Y592711D01*
X411780Y592706D01*
X411766Y592664D01*
X411686Y592451D01*
X411683Y592415D01*
X411674Y592387D01*
X411645Y592204D01*
X411064Y590417D01*
X410211Y588743D01*
X409106Y587222D01*
X407778Y585894D01*
X406257Y584789D01*
X404583Y583936D01*
X402796Y583355D01*
X402031Y583234D01*
X402031Y593984D01*
X402023Y594042D01*
X402025Y594100D01*
X402003Y594182D01*
X401991Y594265D01*
X401967Y594319D01*
X401953Y594375D01*
X401910Y594448D01*
X401875Y594525D01*
X401837Y594569D01*
X401807Y594620D01*
X401746Y594677D01*
X401691Y594742D01*
X401643Y594774D01*
X401600Y594814D01*
X401525Y594853D01*
X401455Y594899D01*
X401399Y594917D01*
X401347Y594944D01*
X401279Y594955D01*
X401184Y594985D01*
X401084Y594988D01*
X401016Y594999D01*
X398984Y594999D01*
X398926Y594991D01*
X398868Y594992D01*
X398786Y594971D01*
X398703Y594959D01*
X398649Y594935D01*
X398593Y594921D01*
X398520Y594878D01*
X398443Y594843D01*
X398398Y594805D01*
X398348Y594775D01*
X398290Y594714D01*
X398226Y594659D01*
X398194Y594611D01*
X398154Y594568D01*
X398115Y594493D01*
X398069Y594423D01*
X398051Y594367D01*
X398024Y594315D01*
X398013Y594247D01*
X397983Y594152D01*
X397980Y594052D01*
X397969Y593984D01*
X397969Y583234D01*
X397204Y583355D01*
X395417Y583936D01*
X393743Y584789D01*
X392222Y585894D01*
X390894Y587222D01*
X389789Y588743D01*
X388936Y590417D01*
X388355Y592204D01*
X388326Y592387D01*
X388324Y592393D01*
X388324Y592400D01*
X388283Y592529D01*
X388243Y592659D01*
X388239Y592664D01*
X388238Y592670D01*
X388162Y592783D01*
X388087Y592897D01*
X388083Y592901D01*
X388079Y592906D01*
X387975Y592994D01*
X387872Y593083D01*
X387867Y593085D01*
X387862Y593089D01*
X387737Y593145D01*
X387614Y593201D01*
X387608Y593202D01*
X387602Y593205D01*
X387468Y593223D01*
X387333Y593244D01*
X387326Y593243D01*
X387320Y593244D01*
X387186Y593224D01*
X387051Y593207D01*
X387045Y593204D01*
X387039Y593203D01*
X386915Y593147D01*
X386790Y593093D01*
X386786Y593089D01*
X386780Y593086D01*
X386676Y592998D01*
X386572Y592911D01*
X386568Y592906D01*
X386563Y592902D01*
X386540Y592865D01*
X386412Y592676D01*
X386401Y592642D01*
X386386Y592617D01*
X384690Y588525D01*
X381475Y585310D01*
X377274Y583569D01*
X372666Y583569D01*
X372551Y583599D01*
X372549Y583599D01*
X372547Y583599D01*
X372411Y583595D01*
X372266Y583591D01*
X372265Y583590D01*
X372263Y583590D01*
X372134Y583548D01*
X371996Y583504D01*
X371994Y583503D01*
X371993Y583503D01*
X371981Y583494D01*
X371760Y583346D01*
X371740Y583322D01*
X371719Y583308D01*
X358946Y570535D01*
X358894Y570465D01*
X358834Y570401D01*
X358808Y570351D01*
X358775Y570307D01*
X358744Y570226D01*
X358704Y570148D01*
X358696Y570100D01*
X358674Y570042D01*
X358662Y569894D01*
X358649Y569817D01*
X358649Y553628D01*
X358653Y553599D01*
X358650Y553570D01*
X358673Y553459D01*
X358689Y553347D01*
X358701Y553320D01*
X358706Y553291D01*
X358758Y553191D01*
X358805Y553087D01*
X358824Y553065D01*
X358837Y553039D01*
X358915Y552957D01*
X358988Y552870D01*
X359013Y552854D01*
X359033Y552833D01*
X359131Y552776D01*
X359225Y552713D01*
X359253Y552704D01*
X359278Y552689D01*
X359388Y552661D01*
X359496Y552627D01*
X359526Y552626D01*
X359554Y552619D01*
X359667Y552623D01*
X359780Y552620D01*
X359809Y552627D01*
X359838Y552628D01*
X359946Y552663D01*
X360055Y552692D01*
X360081Y552707D01*
X360109Y552716D01*
X360172Y552761D01*
X360300Y552837D01*
X360343Y552883D01*
X360382Y552911D01*
X363986Y556515D01*
X372614Y556515D01*
X378715Y550414D01*
X378715Y541786D01*
X372614Y535685D01*
X363986Y535685D01*
X360382Y539289D01*
X360358Y539307D01*
X360339Y539330D01*
X360245Y539392D01*
X360155Y539460D01*
X360127Y539471D01*
X360103Y539487D01*
X359995Y539521D01*
X359889Y539562D01*
X359860Y539564D01*
X359832Y539573D01*
X359718Y539576D01*
X359606Y539585D01*
X359577Y539579D01*
X359548Y539580D01*
X359438Y539552D01*
X359327Y539529D01*
X359301Y539516D01*
X359273Y539508D01*
X359175Y539451D01*
X359075Y539398D01*
X359053Y539378D01*
X359028Y539363D01*
X358951Y539281D01*
X358869Y539203D01*
X358854Y539177D01*
X358834Y539156D01*
X358782Y539055D01*
X358725Y538957D01*
X358718Y538929D01*
X358704Y538903D01*
X358691Y538825D01*
X358655Y538682D01*
X358657Y538619D01*
X358649Y538572D01*
X358649Y535083D01*
X358656Y535034D01*
X358655Y535024D01*
X358659Y535009D01*
X358661Y534997D01*
X358664Y534909D01*
X358681Y534857D01*
X358689Y534802D01*
X358724Y534722D01*
X358751Y534639D01*
X358779Y534600D01*
X358805Y534542D01*
X358901Y534429D01*
X358946Y534365D01*
X422149Y471163D01*
X422149Y455930D01*
X422156Y455875D01*
X422155Y455834D01*
X422156Y455833D01*
X422155Y455814D01*
X422177Y455732D01*
X422189Y455648D01*
X422212Y455595D01*
X422227Y455539D01*
X422270Y455466D01*
X422305Y455389D01*
X422343Y455344D01*
X422372Y455294D01*
X422434Y455236D01*
X422488Y455172D01*
X422537Y455140D01*
X422580Y455100D01*
X422655Y455061D01*
X422725Y455014D01*
X422781Y454997D01*
X422833Y454970D01*
X422901Y454959D01*
X422996Y454929D01*
X423096Y454926D01*
X423164Y454915D01*
X423414Y454915D01*
X429515Y448814D01*
X429515Y440186D01*
X423414Y434085D01*
X414786Y434085D01*
X408685Y440186D01*
X408685Y448814D01*
X414786Y454915D01*
X415036Y454915D01*
X415094Y454923D01*
X415152Y454921D01*
X415234Y454943D01*
X415318Y454955D01*
X415371Y454978D01*
X415427Y454993D01*
X415500Y455036D01*
X415577Y455071D01*
X415622Y455109D01*
X415672Y455138D01*
X415730Y455200D01*
X415794Y455254D01*
X415826Y455303D01*
X415866Y455346D01*
X415905Y455421D01*
X415952Y455491D01*
X415969Y455547D01*
X415996Y455599D01*
X416007Y455667D01*
X416037Y455762D01*
X416040Y455862D01*
X416051Y455930D01*
X416051Y468217D01*
X416039Y468303D01*
X416036Y468391D01*
X416019Y468443D01*
X416011Y468498D01*
X415976Y468578D01*
X415949Y468661D01*
X415921Y468700D01*
X415895Y468758D01*
X415799Y468871D01*
X415754Y468935D01*
X352551Y532137D01*
X352551Y572763D01*
X354634Y574846D01*
X354635Y574846D01*
X366094Y586305D01*
X366129Y586352D01*
X366171Y586392D01*
X366214Y586465D01*
X366264Y586532D01*
X366285Y586587D01*
X366315Y586637D01*
X366336Y586719D01*
X366366Y586798D01*
X366371Y586856D01*
X366385Y586913D01*
X366382Y586997D01*
X366389Y587081D01*
X366378Y587139D01*
X366376Y587197D01*
X366350Y587277D01*
X366333Y587360D01*
X366306Y587412D01*
X366288Y587468D01*
X366248Y587524D01*
X366202Y587612D01*
X366134Y587685D01*
X366094Y587741D01*
X365310Y588525D01*
X363569Y592726D01*
X363569Y597274D01*
X365309Y601475D01*
X368653Y604818D01*
X368670Y604842D01*
X368693Y604861D01*
X368755Y604955D01*
X368824Y605045D01*
X368834Y605073D01*
X368850Y605097D01*
X368884Y605205D01*
X368925Y605311D01*
X368927Y605340D01*
X368936Y605368D01*
X368939Y605482D01*
X368948Y605594D01*
X368943Y605623D01*
X368943Y605652D01*
X368915Y605762D01*
X368892Y605873D01*
X368879Y605899D01*
X368872Y605927D01*
X368814Y606025D01*
X368761Y606125D01*
X368741Y606147D01*
X368726Y606172D01*
X368644Y606249D01*
X368566Y606331D01*
X368540Y606346D01*
X368519Y606366D01*
X368418Y606418D01*
X368320Y606475D01*
X368292Y606482D01*
X368266Y606496D01*
X368188Y606509D01*
X368045Y606545D01*
X367982Y606543D01*
X367935Y606551D01*
X281083Y606551D01*
X280997Y606539D01*
X280909Y606536D01*
X280857Y606519D01*
X280802Y606511D01*
X280722Y606476D01*
X280639Y606449D01*
X280600Y606421D01*
X280542Y606395D01*
X280429Y606299D01*
X280365Y606254D01*
X270046Y595935D01*
X269994Y595865D01*
X269934Y595801D01*
X269908Y595751D01*
X269875Y595707D01*
X269844Y595626D01*
X269804Y595548D01*
X269796Y595500D01*
X269774Y595442D01*
X269762Y595294D01*
X269749Y595217D01*
X269749Y421768D01*
X269749Y421766D01*
X269749Y421765D01*
X269769Y421625D01*
X269789Y421486D01*
X269789Y421485D01*
X269789Y421483D01*
X269848Y421353D01*
X269905Y421227D01*
X269906Y421226D01*
X269907Y421224D01*
X269998Y421117D01*
X270088Y421010D01*
X270090Y421009D01*
X270091Y421008D01*
X270104Y421000D01*
X270325Y420852D01*
X270354Y420843D01*
X270375Y420830D01*
X271592Y420326D01*
X274022Y417896D01*
X275337Y414722D01*
X275337Y398078D01*
X274022Y394904D01*
X272633Y393515D01*
X272598Y393468D01*
X272555Y393428D01*
X272513Y393355D01*
X272462Y393287D01*
X272441Y393233D01*
X272411Y393182D01*
X272391Y393101D01*
X272361Y393022D01*
X272356Y392963D01*
X272341Y392907D01*
X272344Y392823D01*
X272337Y392738D01*
X272349Y392681D01*
X272350Y392623D01*
X272376Y392542D01*
X272393Y392460D01*
X272420Y392408D01*
X272438Y392352D01*
X272478Y392296D01*
X272524Y392207D01*
X272593Y392135D01*
X272633Y392079D01*
X280365Y384346D01*
X280435Y384294D01*
X280499Y384234D01*
X280549Y384208D01*
X280593Y384175D01*
X280674Y384144D01*
X280752Y384104D01*
X280800Y384096D01*
X280858Y384074D01*
X281006Y384062D01*
X281083Y384049D01*
X445763Y384049D01*
X460249Y369563D01*
X460249Y341177D01*
X460256Y341127D01*
X460255Y341111D01*
X460261Y341091D01*
X460263Y341006D01*
X460281Y340951D01*
X460289Y340895D01*
X460324Y340817D01*
X460350Y340735D01*
X460382Y340688D01*
X460405Y340636D01*
X460460Y340570D01*
X460508Y340499D01*
X460552Y340462D01*
X460588Y340419D01*
X460660Y340371D01*
X460726Y340316D01*
X460778Y340293D01*
X460825Y340261D01*
X460907Y340235D01*
X460986Y340200D01*
X461042Y340193D01*
X461096Y340175D01*
X461182Y340173D01*
X461267Y340161D01*
X461323Y340170D01*
X461380Y340168D01*
X461463Y340190D01*
X461549Y340202D01*
X461600Y340226D01*
X461655Y340240D01*
X461729Y340284D01*
X461808Y340319D01*
X461851Y340356D01*
X461900Y340385D01*
X461959Y340448D01*
X462024Y340503D01*
X462050Y340545D01*
X462094Y340592D01*
X462160Y340722D01*
X462202Y340788D01*
X462578Y341696D01*
X465008Y344126D01*
X468182Y345441D01*
X471618Y345441D01*
X474792Y344126D01*
X477222Y341696D01*
X478537Y338522D01*
X478537Y334264D01*
X478545Y334206D01*
X478543Y334148D01*
X478565Y334066D01*
X478577Y333982D01*
X478600Y333929D01*
X478615Y333873D01*
X478658Y333800D01*
X478693Y333723D01*
X478731Y333678D01*
X478760Y333628D01*
X478822Y333570D01*
X478876Y333506D01*
X478925Y333474D01*
X478968Y333434D01*
X479043Y333395D01*
X479113Y333348D01*
X479169Y333331D01*
X479221Y333304D01*
X479289Y333293D01*
X479384Y333263D01*
X479484Y333260D01*
X479552Y333249D01*
X485648Y333249D01*
X485706Y333257D01*
X485764Y333255D01*
X485846Y333277D01*
X485930Y333289D01*
X485983Y333312D01*
X486039Y333327D01*
X486112Y333370D01*
X486189Y333405D01*
X486234Y333443D01*
X486284Y333472D01*
X486342Y333534D01*
X486406Y333588D01*
X486438Y333637D01*
X486478Y333680D01*
X486517Y333755D01*
X486564Y333825D01*
X486581Y333881D01*
X486608Y333933D01*
X486619Y334001D01*
X486649Y334096D01*
X486652Y334196D01*
X486663Y334264D01*
X486663Y338522D01*
X487978Y341696D01*
X490408Y344126D01*
X493305Y345326D01*
X493332Y345342D01*
X493361Y345351D01*
X493425Y345397D01*
X493550Y345471D01*
X493594Y345517D01*
X493635Y345546D01*
X494335Y346246D01*
X506737Y358649D01*
X648963Y358649D01*
X651046Y356566D01*
X651046Y356565D01*
X666794Y340817D01*
X666818Y340800D01*
X666837Y340777D01*
X666931Y340715D01*
X667021Y340647D01*
X667049Y340636D01*
X667073Y340620D01*
X667181Y340586D01*
X667287Y340545D01*
X667316Y340543D01*
X667344Y340534D01*
X667458Y340531D01*
X667570Y340522D01*
X667599Y340527D01*
X667628Y340527D01*
X667738Y340555D01*
X667849Y340578D01*
X667875Y340591D01*
X667903Y340599D01*
X668001Y340656D01*
X668101Y340709D01*
X668123Y340729D01*
X668148Y340744D01*
X668225Y340826D01*
X668307Y340904D01*
X668322Y340930D01*
X668342Y340951D01*
X668394Y341052D01*
X668451Y341150D01*
X668458Y341178D01*
X668472Y341204D01*
X668485Y341281D01*
X668521Y341425D01*
X668519Y341488D01*
X668527Y341535D01*
X668527Y344820D01*
X669997Y348368D01*
X672712Y351083D01*
X676260Y352553D01*
X695340Y352553D01*
X698888Y351083D01*
X701603Y348368D01*
X703073Y344820D01*
X703073Y340980D01*
X701603Y337432D01*
X698888Y334717D01*
X695340Y333247D01*
X676815Y333247D01*
X676786Y333243D01*
X676757Y333246D01*
X676646Y333223D01*
X676534Y333207D01*
X676507Y333195D01*
X676478Y333190D01*
X676378Y333138D01*
X676274Y333091D01*
X676252Y333072D01*
X676226Y333059D01*
X676144Y332981D01*
X676057Y332908D01*
X676041Y332883D01*
X676020Y332863D01*
X675963Y332765D01*
X675900Y332671D01*
X675891Y332643D01*
X675876Y332618D01*
X675848Y332508D01*
X675814Y332400D01*
X675813Y332370D01*
X675806Y332342D01*
X675810Y332229D01*
X675807Y332116D01*
X675814Y332087D01*
X675815Y332058D01*
X675850Y331950D01*
X675879Y331841D01*
X675894Y331815D01*
X675903Y331787D01*
X675948Y331724D01*
X676024Y331596D01*
X676069Y331553D01*
X676097Y331514D01*
X737565Y270046D01*
X737635Y269994D01*
X737699Y269934D01*
X737749Y269908D01*
X737793Y269875D01*
X737874Y269844D01*
X737952Y269804D01*
X738000Y269796D01*
X738058Y269774D01*
X738206Y269762D01*
X738283Y269749D01*
X750570Y269749D01*
X750628Y269757D01*
X750686Y269755D01*
X750768Y269777D01*
X750852Y269789D01*
X750905Y269812D01*
X750961Y269827D01*
X751034Y269870D01*
X751111Y269905D01*
X751156Y269943D01*
X751206Y269972D01*
X751264Y270034D01*
X751328Y270088D01*
X751360Y270137D01*
X751400Y270180D01*
X751439Y270255D01*
X751486Y270325D01*
X751503Y270381D01*
X751530Y270433D01*
X751541Y270501D01*
X751571Y270596D01*
X751574Y270696D01*
X751585Y270764D01*
X751585Y271014D01*
X757686Y277115D01*
X766314Y277115D01*
X772415Y271014D01*
X772415Y262386D01*
X766314Y256285D01*
X757686Y256285D01*
X751585Y262386D01*
X751585Y262636D01*
X751577Y262694D01*
X751579Y262752D01*
X751557Y262834D01*
X751545Y262918D01*
X751522Y262971D01*
X751507Y263027D01*
X751464Y263100D01*
X751429Y263177D01*
X751391Y263222D01*
X751362Y263272D01*
X751300Y263330D01*
X751246Y263394D01*
X751197Y263426D01*
X751154Y263466D01*
X751079Y263505D01*
X751009Y263552D01*
X750953Y263569D01*
X750901Y263596D01*
X750833Y263607D01*
X750738Y263637D01*
X750638Y263640D01*
X750570Y263651D01*
X735337Y263651D01*
X646735Y352254D01*
X646665Y352306D01*
X646601Y352366D01*
X646551Y352392D01*
X646507Y352425D01*
X646426Y352456D01*
X646348Y352496D01*
X646300Y352504D01*
X646242Y352526D01*
X646094Y352538D01*
X646017Y352551D01*
X509683Y352551D01*
X509597Y352539D01*
X509509Y352536D01*
X509457Y352519D01*
X509402Y352511D01*
X509322Y352476D01*
X509239Y352449D01*
X509200Y352421D01*
X509142Y352395D01*
X509029Y352299D01*
X508965Y352254D01*
X501233Y344521D01*
X501198Y344475D01*
X501155Y344434D01*
X501113Y344361D01*
X501062Y344294D01*
X501041Y344239D01*
X501011Y344189D01*
X500991Y344107D01*
X500961Y344028D01*
X500956Y343970D01*
X500941Y343913D01*
X500944Y343829D01*
X500937Y343745D01*
X500949Y343688D01*
X500950Y343629D01*
X500976Y343549D01*
X500993Y343466D01*
X501020Y343414D01*
X501038Y343359D01*
X501078Y343303D01*
X501124Y343214D01*
X501193Y343142D01*
X501233Y343085D01*
X502622Y341696D01*
X503937Y338522D01*
X503937Y321878D01*
X502622Y318704D01*
X500192Y316274D01*
X497018Y314959D01*
X493582Y314959D01*
X490408Y316274D01*
X487978Y318704D01*
X486663Y321878D01*
X486663Y326136D01*
X486655Y326194D01*
X486657Y326252D01*
X486635Y326334D01*
X486623Y326418D01*
X486600Y326471D01*
X486585Y326527D01*
X486542Y326600D01*
X486507Y326677D01*
X486469Y326722D01*
X486440Y326772D01*
X486378Y326830D01*
X486324Y326894D01*
X486275Y326926D01*
X486232Y326966D01*
X486157Y327005D01*
X486087Y327052D01*
X486031Y327069D01*
X485979Y327096D01*
X485911Y327107D01*
X485816Y327137D01*
X485716Y327140D01*
X485648Y327151D01*
X479552Y327151D01*
X479494Y327143D01*
X479436Y327145D01*
X479354Y327123D01*
X479270Y327111D01*
X479217Y327088D01*
X479161Y327073D01*
X479088Y327030D01*
X479011Y326995D01*
X478966Y326957D01*
X478916Y326928D01*
X478858Y326866D01*
X478794Y326812D01*
X478762Y326763D01*
X478722Y326720D01*
X478683Y326645D01*
X478636Y326575D01*
X478619Y326519D01*
X478592Y326467D01*
X478581Y326399D01*
X478551Y326304D01*
X478548Y326204D01*
X478537Y326136D01*
X478537Y321878D01*
X477222Y318704D01*
X474792Y316274D01*
X471618Y314959D01*
X468182Y314959D01*
X465008Y316274D01*
X462578Y318704D01*
X462202Y319612D01*
X462158Y319686D01*
X462123Y319764D01*
X462086Y319808D01*
X462057Y319857D01*
X461995Y319916D01*
X461939Y319981D01*
X461892Y320013D01*
X461851Y320052D01*
X461774Y320091D01*
X461703Y320139D01*
X461649Y320156D01*
X461598Y320182D01*
X461514Y320199D01*
X461432Y320225D01*
X461375Y320226D01*
X461319Y320237D01*
X461234Y320230D01*
X461148Y320232D01*
X461093Y320218D01*
X461036Y320213D01*
X460955Y320182D01*
X460873Y320160D01*
X460824Y320131D01*
X460771Y320111D01*
X460702Y320059D01*
X460628Y320015D01*
X460589Y319973D01*
X460544Y319939D01*
X460492Y319870D01*
X460434Y319808D01*
X460408Y319757D01*
X460374Y319711D01*
X460343Y319631D01*
X460304Y319554D01*
X460296Y319506D01*
X460273Y319445D01*
X460262Y319301D01*
X460249Y319223D01*
X460249Y306483D01*
X460261Y306397D01*
X460264Y306309D01*
X460281Y306257D01*
X460289Y306202D01*
X460324Y306122D01*
X460351Y306039D01*
X460379Y306000D01*
X460405Y305942D01*
X460501Y305829D01*
X460546Y305765D01*
X485649Y280663D01*
X485649Y278088D01*
X485649Y278087D01*
X485649Y278085D01*
X485669Y277942D01*
X485689Y277807D01*
X485689Y277805D01*
X485689Y277804D01*
X485746Y277678D01*
X485805Y277547D01*
X485806Y277546D01*
X485807Y277545D01*
X485898Y277437D01*
X485988Y277330D01*
X485990Y277329D01*
X485991Y277328D01*
X486004Y277320D01*
X486225Y277173D01*
X486254Y277163D01*
X486275Y277150D01*
X489075Y275990D01*
X492290Y272775D01*
X494031Y268574D01*
X494031Y264026D01*
X492290Y259825D01*
X489075Y256610D01*
X484874Y254869D01*
X480326Y254869D01*
X476125Y256610D01*
X472910Y259825D01*
X471169Y264026D01*
X471169Y268574D01*
X472910Y272775D01*
X476125Y275990D01*
X478662Y277041D01*
X478761Y277100D01*
X478863Y277153D01*
X478883Y277172D01*
X478907Y277186D01*
X478986Y277269D01*
X479069Y277348D01*
X479083Y277372D01*
X479102Y277393D01*
X479155Y277495D01*
X479213Y277594D01*
X479219Y277621D01*
X479232Y277645D01*
X479254Y277758D01*
X479283Y277869D01*
X479282Y277897D01*
X479287Y277924D01*
X479277Y278039D01*
X479274Y278153D01*
X479265Y278180D01*
X479263Y278207D01*
X479221Y278315D01*
X479186Y278424D01*
X479172Y278444D01*
X479161Y278473D01*
X479000Y278685D01*
X478991Y278697D01*
X456235Y301454D01*
X456234Y301454D01*
X454151Y303537D01*
X454151Y366617D01*
X454143Y366673D01*
X454145Y366725D01*
X454137Y366752D01*
X454136Y366791D01*
X454119Y366843D01*
X454111Y366898D01*
X454083Y366963D01*
X454073Y367000D01*
X454063Y367016D01*
X454049Y367061D01*
X454021Y367100D01*
X453995Y367158D01*
X453942Y367221D01*
X453928Y367245D01*
X453899Y367271D01*
X453854Y367335D01*
X453298Y367891D01*
X453274Y367908D01*
X453255Y367931D01*
X453161Y367993D01*
X453071Y368061D01*
X453043Y368072D01*
X453019Y368088D01*
X452911Y368122D01*
X452805Y368163D01*
X452776Y368165D01*
X452748Y368174D01*
X452634Y368177D01*
X452522Y368186D01*
X452493Y368181D01*
X452464Y368181D01*
X452354Y368153D01*
X452243Y368130D01*
X452217Y368117D01*
X452189Y368109D01*
X452091Y368052D01*
X451991Y367999D01*
X451969Y367979D01*
X451944Y367964D01*
X451867Y367882D01*
X451785Y367804D01*
X451770Y367778D01*
X451750Y367757D01*
X451698Y367656D01*
X451641Y367558D01*
X451634Y367530D01*
X451620Y367504D01*
X451607Y367426D01*
X451571Y367283D01*
X451573Y367220D01*
X451565Y367173D01*
X451565Y366895D01*
X450489Y364298D01*
X448502Y362311D01*
X448175Y362176D01*
X448174Y362175D01*
X448173Y362174D01*
X448056Y362105D01*
X447931Y362031D01*
X447929Y362030D01*
X447928Y362029D01*
X447833Y361928D01*
X447735Y361824D01*
X447735Y361823D01*
X447734Y361822D01*
X447669Y361696D01*
X447605Y361572D01*
X447605Y361570D01*
X447604Y361569D01*
X447602Y361554D01*
X447550Y361293D01*
X447553Y361262D01*
X447549Y361238D01*
X447549Y274228D01*
X447553Y274199D01*
X447550Y274170D01*
X447573Y274059D01*
X447589Y273947D01*
X447601Y273920D01*
X447606Y273891D01*
X447658Y273791D01*
X447705Y273687D01*
X447724Y273665D01*
X447737Y273639D01*
X447815Y273557D01*
X447888Y273470D01*
X447913Y273454D01*
X447933Y273433D01*
X448031Y273376D01*
X448125Y273313D01*
X448153Y273304D01*
X448178Y273289D01*
X448288Y273261D01*
X448396Y273227D01*
X448426Y273226D01*
X448454Y273219D01*
X448567Y273223D01*
X448680Y273220D01*
X448709Y273227D01*
X448738Y273228D01*
X448846Y273263D01*
X448955Y273292D01*
X448981Y273307D01*
X449009Y273316D01*
X449072Y273361D01*
X449200Y273437D01*
X449243Y273483D01*
X449282Y273511D01*
X452886Y277115D01*
X461514Y277115D01*
X467615Y271014D01*
X467615Y262386D01*
X461514Y256285D01*
X452886Y256285D01*
X449282Y259889D01*
X449258Y259907D01*
X449239Y259930D01*
X449145Y259992D01*
X449055Y260060D01*
X449027Y260071D01*
X449003Y260087D01*
X448895Y260121D01*
X448789Y260162D01*
X448760Y260164D01*
X448732Y260173D01*
X448618Y260176D01*
X448506Y260185D01*
X448477Y260179D01*
X448448Y260180D01*
X448338Y260152D01*
X448227Y260129D01*
X448201Y260116D01*
X448173Y260108D01*
X448075Y260051D01*
X447975Y259998D01*
X447953Y259978D01*
X447928Y259963D01*
X447851Y259881D01*
X447769Y259803D01*
X447754Y259777D01*
X447734Y259756D01*
X447682Y259655D01*
X447625Y259557D01*
X447618Y259529D01*
X447604Y259503D01*
X447591Y259425D01*
X447555Y259282D01*
X447557Y259219D01*
X447549Y259172D01*
X447549Y248362D01*
X447549Y248361D01*
X447549Y248359D01*
X447569Y248216D01*
X447589Y248081D01*
X447589Y248079D01*
X447589Y248078D01*
X447647Y247950D01*
X447705Y247821D01*
X447706Y247820D01*
X447707Y247819D01*
X447801Y247708D01*
X447888Y247604D01*
X447890Y247604D01*
X447891Y247602D01*
X447904Y247594D01*
X448125Y247447D01*
X448154Y247438D01*
X448175Y247424D01*
X448502Y247289D01*
X450489Y245302D01*
X451565Y242705D01*
X451565Y239895D01*
X450489Y237298D01*
X448502Y235311D01*
X445905Y234235D01*
X443095Y234235D01*
G37*
%LPD*%
%LPC*%
G36*
X646295Y361235D02*
X646295Y361235D01*
X643698Y362311D01*
X641711Y364298D01*
X640635Y366895D01*
X640635Y369705D01*
X641711Y372302D01*
X643698Y374289D01*
X644025Y374424D01*
X644026Y374425D01*
X644027Y374426D01*
X644144Y374495D01*
X644269Y374569D01*
X644271Y374570D01*
X644272Y374571D01*
X644367Y374672D01*
X644465Y374776D01*
X644465Y374777D01*
X644466Y374778D01*
X644531Y374904D01*
X644595Y375028D01*
X644595Y375030D01*
X644596Y375031D01*
X644598Y375046D01*
X644650Y375307D01*
X644647Y375338D01*
X644651Y375362D01*
X644651Y442817D01*
X644644Y442865D01*
X644645Y442869D01*
X644643Y442875D01*
X644639Y442903D01*
X644636Y442991D01*
X644619Y443043D01*
X644611Y443098D01*
X644576Y443178D01*
X644549Y443261D01*
X644521Y443300D01*
X644495Y443358D01*
X644399Y443471D01*
X644354Y443535D01*
X634035Y453854D01*
X633965Y453906D01*
X633901Y453966D01*
X633851Y453992D01*
X633807Y454025D01*
X633726Y454056D01*
X633648Y454096D01*
X633600Y454104D01*
X633542Y454126D01*
X633394Y454138D01*
X633317Y454151D01*
X516565Y454151D01*
X516536Y454147D01*
X516507Y454150D01*
X516396Y454127D01*
X516284Y454111D01*
X516257Y454099D01*
X516228Y454094D01*
X516128Y454041D01*
X516024Y453995D01*
X516002Y453976D01*
X515976Y453963D01*
X515894Y453885D01*
X515807Y453812D01*
X515791Y453787D01*
X515770Y453767D01*
X515713Y453669D01*
X515650Y453575D01*
X515641Y453547D01*
X515626Y453522D01*
X515598Y453412D01*
X515564Y453304D01*
X515563Y453274D01*
X515556Y453246D01*
X515560Y453133D01*
X515557Y453020D01*
X515564Y452991D01*
X515565Y452962D01*
X515600Y452854D01*
X515628Y452745D01*
X515643Y452719D01*
X515652Y452691D01*
X515698Y452627D01*
X515774Y452500D01*
X515819Y452457D01*
X515847Y452418D01*
X517291Y450975D01*
X519031Y446774D01*
X519031Y442226D01*
X517290Y438025D01*
X514075Y434810D01*
X509874Y433069D01*
X505326Y433069D01*
X501125Y434810D01*
X497910Y438025D01*
X496169Y442226D01*
X496169Y446774D01*
X497909Y450975D01*
X499353Y452418D01*
X499370Y452442D01*
X499393Y452461D01*
X499455Y452555D01*
X499524Y452645D01*
X499534Y452673D01*
X499550Y452697D01*
X499584Y452805D01*
X499625Y452911D01*
X499627Y452940D01*
X499636Y452968D01*
X499639Y453082D01*
X499648Y453194D01*
X499643Y453223D01*
X499643Y453252D01*
X499615Y453362D01*
X499592Y453473D01*
X499579Y453499D01*
X499572Y453527D01*
X499514Y453625D01*
X499461Y453725D01*
X499441Y453747D01*
X499426Y453772D01*
X499344Y453849D01*
X499266Y453931D01*
X499240Y453946D01*
X499219Y453966D01*
X499118Y454018D01*
X499020Y454075D01*
X498992Y454082D01*
X498966Y454096D01*
X498888Y454109D01*
X498745Y454145D01*
X498682Y454143D01*
X498635Y454151D01*
X496983Y454151D01*
X496897Y454139D01*
X496809Y454136D01*
X496757Y454119D01*
X496702Y454111D01*
X496622Y454076D01*
X496539Y454049D01*
X496500Y454021D01*
X496442Y453995D01*
X496329Y453899D01*
X496265Y453854D01*
X485946Y443535D01*
X485894Y443465D01*
X485834Y443401D01*
X485808Y443351D01*
X485775Y443307D01*
X485744Y443226D01*
X485704Y443148D01*
X485696Y443100D01*
X485674Y443042D01*
X485664Y442925D01*
X485663Y442920D01*
X485662Y442900D01*
X485662Y442894D01*
X485649Y442817D01*
X485649Y433483D01*
X485661Y433397D01*
X485664Y433309D01*
X485681Y433257D01*
X485689Y433202D01*
X485724Y433122D01*
X485751Y433039D01*
X485779Y433000D01*
X485805Y432942D01*
X485901Y432829D01*
X485946Y432765D01*
X496965Y421746D01*
X496990Y421728D01*
X497010Y421704D01*
X497077Y421662D01*
X497193Y421575D01*
X497253Y421552D01*
X497295Y421526D01*
X500192Y420326D01*
X502622Y417896D01*
X503937Y414722D01*
X503937Y398078D01*
X502622Y394904D01*
X500192Y392474D01*
X497018Y391159D01*
X493582Y391159D01*
X490408Y392474D01*
X487978Y394904D01*
X486663Y398078D01*
X486663Y414722D01*
X487978Y417896D01*
X489367Y419285D01*
X489402Y419332D01*
X489445Y419372D01*
X489487Y419445D01*
X489538Y419513D01*
X489559Y419567D01*
X489589Y419618D01*
X489609Y419699D01*
X489639Y419778D01*
X489644Y419837D01*
X489659Y419893D01*
X489656Y419978D01*
X489663Y420062D01*
X489651Y420119D01*
X489650Y420177D01*
X489624Y420258D01*
X489607Y420340D01*
X489580Y420392D01*
X489562Y420448D01*
X489522Y420504D01*
X489476Y420593D01*
X489407Y420665D01*
X489367Y420721D01*
X481635Y428454D01*
X481634Y428454D01*
X479551Y430537D01*
X479551Y445763D01*
X494037Y460249D01*
X636263Y460249D01*
X650749Y445763D01*
X650749Y375362D01*
X650749Y375361D01*
X650749Y375359D01*
X650769Y375218D01*
X650789Y375081D01*
X650789Y375079D01*
X650789Y375078D01*
X650847Y374950D01*
X650905Y374821D01*
X650906Y374820D01*
X650907Y374819D01*
X650998Y374712D01*
X651088Y374604D01*
X651090Y374604D01*
X651091Y374602D01*
X651104Y374594D01*
X651325Y374447D01*
X651354Y374438D01*
X651375Y374424D01*
X651702Y374289D01*
X653689Y372302D01*
X654765Y369705D01*
X654765Y366895D01*
X653689Y364298D01*
X651702Y362311D01*
X649105Y361235D01*
X646295Y361235D01*
G37*
%LPD*%
%LPC*%
G36*
X341026Y191769D02*
X341026Y191769D01*
X336825Y193510D01*
X333610Y196725D01*
X331869Y200926D01*
X331869Y205474D01*
X333029Y208273D01*
X333029Y208275D01*
X333030Y208276D01*
X333063Y208405D01*
X333100Y208549D01*
X333100Y208550D01*
X333100Y208552D01*
X333096Y208692D01*
X333092Y208833D01*
X333091Y208834D01*
X333091Y208836D01*
X333050Y208963D01*
X333005Y209103D01*
X333004Y209105D01*
X333004Y209106D01*
X332995Y209118D01*
X332847Y209340D01*
X332823Y209359D01*
X332809Y209380D01*
X329635Y212554D01*
X329565Y212606D01*
X329501Y212666D01*
X329451Y212692D01*
X329407Y212725D01*
X329326Y212756D01*
X329248Y212796D01*
X329200Y212804D01*
X329142Y212826D01*
X328994Y212838D01*
X328917Y212851D01*
X252737Y212851D01*
X225551Y240037D01*
X225551Y386638D01*
X225551Y386639D01*
X225551Y386641D01*
X225531Y386781D01*
X225511Y386919D01*
X225511Y386921D01*
X225511Y386922D01*
X225453Y387050D01*
X225395Y387179D01*
X225394Y387180D01*
X225393Y387181D01*
X225302Y387288D01*
X225212Y387396D01*
X225210Y387396D01*
X225209Y387398D01*
X225196Y387406D01*
X224975Y387553D01*
X224946Y387562D01*
X224925Y387576D01*
X224598Y387711D01*
X222611Y389698D01*
X221535Y392295D01*
X221535Y395105D01*
X222611Y397702D01*
X224598Y399689D01*
X227195Y400765D01*
X230005Y400765D01*
X232602Y399689D01*
X234589Y397702D01*
X235665Y395105D01*
X235665Y392295D01*
X234589Y389698D01*
X232602Y387711D01*
X232275Y387576D01*
X232274Y387575D01*
X232273Y387574D01*
X232156Y387505D01*
X232031Y387431D01*
X232029Y387430D01*
X232028Y387429D01*
X231933Y387328D01*
X231835Y387224D01*
X231835Y387223D01*
X231834Y387222D01*
X231767Y387092D01*
X231705Y386972D01*
X231705Y386970D01*
X231704Y386969D01*
X231702Y386954D01*
X231650Y386693D01*
X231653Y386662D01*
X231649Y386638D01*
X231649Y242983D01*
X231661Y242897D01*
X231664Y242809D01*
X231681Y242757D01*
X231689Y242702D01*
X231724Y242622D01*
X231751Y242539D01*
X231779Y242500D01*
X231805Y242442D01*
X231901Y242329D01*
X231946Y242265D01*
X254965Y219246D01*
X255035Y219194D01*
X255099Y219134D01*
X255149Y219108D01*
X255193Y219075D01*
X255274Y219044D01*
X255352Y219004D01*
X255400Y218996D01*
X255458Y218974D01*
X255606Y218962D01*
X255683Y218949D01*
X331863Y218949D01*
X337120Y213691D01*
X337122Y213690D01*
X337123Y213689D01*
X337236Y213604D01*
X337348Y213520D01*
X337349Y213520D01*
X337350Y213519D01*
X337482Y213469D01*
X337613Y213419D01*
X337615Y213419D01*
X337616Y213418D01*
X337761Y213407D01*
X337897Y213396D01*
X337898Y213396D01*
X337900Y213396D01*
X337915Y213399D01*
X338175Y213451D01*
X338202Y213465D01*
X338227Y213471D01*
X341026Y214631D01*
X345574Y214631D01*
X349775Y212890D01*
X352990Y209675D01*
X354731Y205474D01*
X354731Y200926D01*
X352990Y196725D01*
X349775Y193510D01*
X345574Y191769D01*
X341026Y191769D01*
G37*
%LPD*%
%LPC*%
G36*
X452886Y154685D02*
X452886Y154685D01*
X446785Y160786D01*
X446785Y169414D01*
X452886Y175515D01*
X453136Y175515D01*
X453194Y175523D01*
X453252Y175521D01*
X453334Y175543D01*
X453418Y175555D01*
X453471Y175578D01*
X453527Y175593D01*
X453600Y175636D01*
X453677Y175671D01*
X453722Y175709D01*
X453772Y175738D01*
X453830Y175800D01*
X453894Y175854D01*
X453926Y175903D01*
X453966Y175946D01*
X454005Y176021D01*
X454052Y176091D01*
X454069Y176147D01*
X454096Y176199D01*
X454107Y176267D01*
X454137Y176362D01*
X454140Y176462D01*
X454151Y176530D01*
X454151Y188817D01*
X454139Y188903D01*
X454136Y188991D01*
X454119Y189043D01*
X454111Y189098D01*
X454076Y189178D01*
X454049Y189261D01*
X454021Y189300D01*
X453995Y189358D01*
X453899Y189471D01*
X453854Y189535D01*
X403351Y240037D01*
X403351Y245435D01*
X403347Y245464D01*
X403350Y245493D01*
X403327Y245604D01*
X403311Y245716D01*
X403299Y245743D01*
X403294Y245772D01*
X403241Y245872D01*
X403195Y245976D01*
X403176Y245998D01*
X403163Y246024D01*
X403085Y246106D01*
X403012Y246193D01*
X402987Y246209D01*
X402967Y246230D01*
X402869Y246287D01*
X402775Y246350D01*
X402747Y246359D01*
X402722Y246374D01*
X402612Y246402D01*
X402504Y246436D01*
X402474Y246437D01*
X402446Y246444D01*
X402333Y246440D01*
X402220Y246443D01*
X402191Y246436D01*
X402162Y246435D01*
X402054Y246400D01*
X401945Y246372D01*
X401919Y246357D01*
X401891Y246348D01*
X401828Y246302D01*
X401700Y246226D01*
X401657Y246181D01*
X401618Y246153D01*
X399775Y244309D01*
X395574Y242569D01*
X391026Y242569D01*
X386825Y244310D01*
X383610Y247525D01*
X381869Y251726D01*
X381869Y256274D01*
X383610Y260475D01*
X386825Y263690D01*
X391026Y265431D01*
X395574Y265431D01*
X399775Y263691D01*
X401618Y261847D01*
X401642Y261830D01*
X401661Y261807D01*
X401755Y261745D01*
X401845Y261676D01*
X401873Y261666D01*
X401897Y261650D01*
X402005Y261616D01*
X402111Y261575D01*
X402140Y261573D01*
X402168Y261564D01*
X402282Y261561D01*
X402394Y261552D01*
X402423Y261557D01*
X402452Y261557D01*
X402562Y261585D01*
X402673Y261608D01*
X402699Y261621D01*
X402727Y261628D01*
X402825Y261686D01*
X402925Y261739D01*
X402947Y261759D01*
X402972Y261774D01*
X403049Y261856D01*
X403131Y261934D01*
X403146Y261960D01*
X403166Y261981D01*
X403218Y262082D01*
X403275Y262180D01*
X403282Y262208D01*
X403296Y262234D01*
X403309Y262312D01*
X403345Y262455D01*
X403343Y262518D01*
X403351Y262565D01*
X403351Y265017D01*
X403339Y265103D01*
X403336Y265191D01*
X403319Y265243D01*
X403311Y265298D01*
X403276Y265378D01*
X403249Y265461D01*
X403221Y265500D01*
X403195Y265558D01*
X403099Y265671D01*
X403054Y265735D01*
X380863Y287926D01*
X380771Y287994D01*
X380683Y288069D01*
X380658Y288080D01*
X380636Y288096D01*
X380528Y288137D01*
X380423Y288184D01*
X380396Y288188D01*
X380370Y288198D01*
X380256Y288207D01*
X380142Y288223D01*
X380114Y288219D01*
X380087Y288221D01*
X379974Y288199D01*
X379860Y288182D01*
X379835Y288171D01*
X379808Y288165D01*
X379706Y288112D01*
X379601Y288065D01*
X379580Y288047D01*
X379556Y288034D01*
X379472Y287955D01*
X379385Y287881D01*
X379372Y287860D01*
X379350Y287839D01*
X379215Y287609D01*
X379207Y287596D01*
X378391Y285625D01*
X375175Y282410D01*
X370974Y280669D01*
X366426Y280669D01*
X362225Y282410D01*
X359010Y285625D01*
X357269Y289826D01*
X357269Y294374D01*
X359010Y298575D01*
X362225Y301790D01*
X366426Y303531D01*
X370974Y303531D01*
X375175Y301790D01*
X378390Y298575D01*
X379550Y295775D01*
X379551Y295774D01*
X379551Y295773D01*
X379622Y295654D01*
X379695Y295531D01*
X379696Y295530D01*
X379697Y295528D01*
X379800Y295431D01*
X379901Y295335D01*
X379903Y295335D01*
X379904Y295334D01*
X380030Y295269D01*
X380154Y295205D01*
X380156Y295205D01*
X380157Y295204D01*
X380172Y295202D01*
X380433Y295150D01*
X380463Y295153D01*
X380488Y295149D01*
X382263Y295149D01*
X409449Y267963D01*
X409449Y242983D01*
X409461Y242897D01*
X409464Y242809D01*
X409481Y242757D01*
X409489Y242702D01*
X409524Y242622D01*
X409551Y242539D01*
X409579Y242500D01*
X409605Y242442D01*
X409701Y242329D01*
X409746Y242265D01*
X460249Y191763D01*
X460249Y176530D01*
X460257Y176472D01*
X460255Y176414D01*
X460277Y176332D01*
X460289Y176248D01*
X460312Y176195D01*
X460327Y176139D01*
X460370Y176066D01*
X460405Y175989D01*
X460443Y175944D01*
X460472Y175894D01*
X460534Y175836D01*
X460588Y175772D01*
X460637Y175740D01*
X460680Y175700D01*
X460755Y175661D01*
X460825Y175614D01*
X460881Y175597D01*
X460933Y175570D01*
X461001Y175559D01*
X461096Y175529D01*
X461196Y175526D01*
X461264Y175515D01*
X461514Y175515D01*
X467615Y169414D01*
X467615Y160786D01*
X461514Y154685D01*
X452886Y154685D01*
G37*
%LPD*%
%LPC*%
G36*
X605286Y167385D02*
X605286Y167385D01*
X599185Y173486D01*
X599185Y182114D01*
X599362Y182291D01*
X599397Y182337D01*
X599440Y182378D01*
X599482Y182450D01*
X599533Y182518D01*
X599554Y182573D01*
X599583Y182623D01*
X599604Y182705D01*
X599634Y182783D01*
X599639Y182842D01*
X599653Y182898D01*
X599651Y182983D01*
X599658Y183067D01*
X599646Y183124D01*
X599644Y183183D01*
X599618Y183263D01*
X599602Y183346D01*
X599575Y183397D01*
X599557Y183453D01*
X599517Y183509D01*
X599471Y183598D01*
X599402Y183670D01*
X599362Y183726D01*
X581151Y201937D01*
X581151Y277717D01*
X581139Y277803D01*
X581136Y277891D01*
X581119Y277943D01*
X581111Y277998D01*
X581076Y278078D01*
X581049Y278161D01*
X581021Y278200D01*
X580995Y278258D01*
X580899Y278371D01*
X580854Y278435D01*
X570535Y288754D01*
X570465Y288806D01*
X570401Y288866D01*
X570352Y288892D01*
X570307Y288925D01*
X570226Y288956D01*
X570148Y288996D01*
X570100Y289004D01*
X570042Y289026D01*
X569894Y289038D01*
X569817Y289051D01*
X532137Y289051D01*
X517651Y303537D01*
X517651Y314832D01*
X517651Y314834D01*
X517651Y314835D01*
X517643Y314891D01*
X517645Y314947D01*
X517624Y315028D01*
X517611Y315114D01*
X517611Y315115D01*
X517611Y315117D01*
X517586Y315170D01*
X517573Y315222D01*
X517532Y315291D01*
X517495Y315373D01*
X517494Y315374D01*
X517493Y315376D01*
X517454Y315422D01*
X517428Y315467D01*
X517371Y315520D01*
X517312Y315590D01*
X517310Y315591D01*
X517309Y315592D01*
X517296Y315600D01*
X517259Y315625D01*
X517220Y315661D01*
X517153Y315696D01*
X517075Y315748D01*
X517046Y315757D01*
X517025Y315770D01*
X515808Y316274D01*
X513378Y318704D01*
X512063Y321878D01*
X512063Y338522D01*
X513378Y341696D01*
X515808Y344126D01*
X518982Y345441D01*
X522418Y345441D01*
X525592Y344126D01*
X528022Y341696D01*
X529337Y338522D01*
X529337Y321878D01*
X528022Y318704D01*
X525592Y316274D01*
X524375Y315770D01*
X524374Y315769D01*
X524373Y315769D01*
X524292Y315721D01*
X524223Y315690D01*
X524184Y315657D01*
X524131Y315626D01*
X524130Y315624D01*
X524128Y315624D01*
X524065Y315556D01*
X524006Y315506D01*
X523977Y315463D01*
X523935Y315419D01*
X523935Y315418D01*
X523934Y315416D01*
X523893Y315336D01*
X523848Y315270D01*
X523832Y315219D01*
X523805Y315166D01*
X523805Y315165D01*
X523804Y315163D01*
X523802Y315148D01*
X523788Y315079D01*
X523763Y314999D01*
X523761Y314943D01*
X523750Y314887D01*
X523753Y314857D01*
X523749Y314832D01*
X523749Y306483D01*
X523761Y306397D01*
X523764Y306309D01*
X523781Y306257D01*
X523789Y306202D01*
X523824Y306122D01*
X523851Y306039D01*
X523879Y306000D01*
X523905Y305942D01*
X524001Y305829D01*
X524046Y305765D01*
X534365Y295446D01*
X534435Y295394D01*
X534499Y295334D01*
X534549Y295308D01*
X534593Y295275D01*
X534674Y295244D01*
X534752Y295204D01*
X534800Y295196D01*
X534858Y295174D01*
X535006Y295162D01*
X535083Y295149D01*
X572763Y295149D01*
X574846Y293066D01*
X574846Y293065D01*
X587249Y280663D01*
X587249Y204883D01*
X587261Y204797D01*
X587264Y204709D01*
X587281Y204657D01*
X587289Y204602D01*
X587324Y204522D01*
X587351Y204439D01*
X587379Y204400D01*
X587405Y204342D01*
X587501Y204229D01*
X587546Y204165D01*
X603674Y188038D01*
X603720Y188003D01*
X603761Y187960D01*
X603833Y187918D01*
X603901Y187867D01*
X603955Y187846D01*
X604006Y187817D01*
X604088Y187796D01*
X604166Y187766D01*
X604225Y187761D01*
X604281Y187747D01*
X604366Y187749D01*
X604450Y187742D01*
X604507Y187754D01*
X604566Y187756D01*
X604646Y187782D01*
X604728Y187798D01*
X604780Y187825D01*
X604836Y187843D01*
X604892Y187883D01*
X604981Y187929D01*
X605053Y187998D01*
X605109Y188038D01*
X605286Y188215D01*
X613914Y188215D01*
X620015Y182114D01*
X620015Y173486D01*
X613914Y167385D01*
X605286Y167385D01*
G37*
%LPD*%
%LPC*%
G36*
X328937Y149351D02*
X328937Y149351D01*
X314451Y163837D01*
X314451Y179070D01*
X314443Y179128D01*
X314445Y179186D01*
X314423Y179268D01*
X314411Y179352D01*
X314388Y179405D01*
X314373Y179461D01*
X314330Y179534D01*
X314295Y179611D01*
X314257Y179656D01*
X314228Y179706D01*
X314166Y179764D01*
X314112Y179828D01*
X314063Y179860D01*
X314020Y179900D01*
X313945Y179939D01*
X313875Y179986D01*
X313819Y180003D01*
X313767Y180030D01*
X313699Y180041D01*
X313604Y180071D01*
X313504Y180074D01*
X313436Y180085D01*
X313186Y180085D01*
X307085Y186186D01*
X307085Y194814D01*
X313186Y200915D01*
X321814Y200915D01*
X327915Y194814D01*
X327915Y186186D01*
X321814Y180085D01*
X321564Y180085D01*
X321506Y180077D01*
X321448Y180079D01*
X321366Y180057D01*
X321282Y180045D01*
X321229Y180022D01*
X321173Y180007D01*
X321100Y179964D01*
X321023Y179929D01*
X320978Y179891D01*
X320928Y179862D01*
X320870Y179800D01*
X320806Y179746D01*
X320774Y179697D01*
X320734Y179654D01*
X320695Y179579D01*
X320648Y179509D01*
X320631Y179453D01*
X320604Y179401D01*
X320593Y179333D01*
X320563Y179238D01*
X320560Y179138D01*
X320549Y179070D01*
X320549Y166783D01*
X320561Y166697D01*
X320564Y166609D01*
X320581Y166557D01*
X320589Y166502D01*
X320624Y166422D01*
X320651Y166339D01*
X320679Y166300D01*
X320705Y166242D01*
X320801Y166129D01*
X320846Y166065D01*
X331165Y155746D01*
X331235Y155694D01*
X331299Y155634D01*
X331349Y155608D01*
X331393Y155575D01*
X331474Y155544D01*
X331552Y155504D01*
X331600Y155496D01*
X331658Y155474D01*
X331806Y155462D01*
X331883Y155449D01*
X353917Y155449D01*
X354003Y155461D01*
X354091Y155464D01*
X354143Y155481D01*
X354198Y155489D01*
X354278Y155524D01*
X354361Y155551D01*
X354400Y155579D01*
X354458Y155605D01*
X354571Y155701D01*
X354635Y155746D01*
X364954Y166065D01*
X365006Y166135D01*
X365066Y166199D01*
X365092Y166249D01*
X365125Y166293D01*
X365156Y166374D01*
X365196Y166452D01*
X365204Y166500D01*
X365226Y166558D01*
X365238Y166706D01*
X365251Y166783D01*
X365251Y217163D01*
X367334Y219246D01*
X367335Y219246D01*
X377654Y229565D01*
X377654Y229566D01*
X379737Y231649D01*
X381512Y231649D01*
X381513Y231649D01*
X381515Y231649D01*
X381655Y231669D01*
X381793Y231689D01*
X381795Y231689D01*
X381796Y231689D01*
X381922Y231746D01*
X382053Y231805D01*
X382054Y231806D01*
X382055Y231807D01*
X382163Y231898D01*
X382270Y231988D01*
X382271Y231990D01*
X382272Y231991D01*
X382280Y232004D01*
X382427Y232225D01*
X382437Y232254D01*
X382450Y232275D01*
X383610Y235075D01*
X386825Y238290D01*
X391026Y240031D01*
X395574Y240031D01*
X399775Y238290D01*
X402990Y235075D01*
X404731Y230874D01*
X404731Y226326D01*
X402990Y222125D01*
X399775Y218910D01*
X395574Y217169D01*
X391026Y217169D01*
X386825Y218910D01*
X383610Y222125D01*
X382793Y224096D01*
X382735Y224195D01*
X382682Y224297D01*
X382663Y224317D01*
X382648Y224341D01*
X382565Y224420D01*
X382486Y224503D01*
X382462Y224517D01*
X382442Y224536D01*
X382340Y224589D01*
X382241Y224647D01*
X382214Y224654D01*
X382189Y224666D01*
X382076Y224689D01*
X381965Y224717D01*
X381937Y224716D01*
X381910Y224721D01*
X381796Y224712D01*
X381681Y224708D01*
X381655Y224699D01*
X381627Y224697D01*
X381520Y224656D01*
X381410Y224620D01*
X381390Y224606D01*
X381362Y224595D01*
X381149Y224434D01*
X381137Y224426D01*
X371646Y214935D01*
X371594Y214865D01*
X371534Y214801D01*
X371508Y214751D01*
X371475Y214707D01*
X371444Y214626D01*
X371404Y214548D01*
X371396Y214500D01*
X371374Y214442D01*
X371362Y214294D01*
X371349Y214217D01*
X371349Y163837D01*
X356863Y149351D01*
X328937Y149351D01*
G37*
%LPD*%
%LPC*%
G36*
X290382Y391159D02*
X290382Y391159D01*
X287208Y392474D01*
X284778Y394904D01*
X283463Y398078D01*
X283463Y414722D01*
X284778Y417896D01*
X287208Y420326D01*
X288425Y420830D01*
X288426Y420831D01*
X288427Y420831D01*
X288548Y420903D01*
X288669Y420974D01*
X288670Y420976D01*
X288672Y420976D01*
X288769Y421080D01*
X288865Y421181D01*
X288865Y421182D01*
X288866Y421184D01*
X288931Y421309D01*
X288995Y421434D01*
X288995Y421435D01*
X288996Y421437D01*
X288998Y421452D01*
X289050Y421713D01*
X289047Y421743D01*
X289051Y421768D01*
X289051Y471163D01*
X303537Y485649D01*
X373938Y485649D01*
X373939Y485649D01*
X373941Y485649D01*
X374081Y485669D01*
X374219Y485689D01*
X374221Y485689D01*
X374222Y485689D01*
X374350Y485747D01*
X374479Y485805D01*
X374480Y485806D01*
X374481Y485807D01*
X374588Y485898D01*
X374696Y485988D01*
X374696Y485990D01*
X374698Y485991D01*
X374706Y486004D01*
X374853Y486225D01*
X374862Y486254D01*
X374876Y486275D01*
X375011Y486602D01*
X376998Y488589D01*
X379595Y489665D01*
X382405Y489665D01*
X385002Y488589D01*
X386989Y486602D01*
X388065Y484005D01*
X388065Y481195D01*
X386989Y478598D01*
X385002Y476611D01*
X382405Y475535D01*
X379595Y475535D01*
X376998Y476611D01*
X375011Y478598D01*
X374876Y478925D01*
X374875Y478926D01*
X374874Y478927D01*
X374805Y479044D01*
X374731Y479169D01*
X374730Y479171D01*
X374729Y479172D01*
X374628Y479267D01*
X374524Y479365D01*
X374523Y479365D01*
X374522Y479366D01*
X374396Y479431D01*
X374272Y479495D01*
X374270Y479495D01*
X374269Y479496D01*
X374254Y479498D01*
X373993Y479550D01*
X373962Y479547D01*
X373938Y479551D01*
X306483Y479551D01*
X306397Y479539D01*
X306309Y479536D01*
X306257Y479519D01*
X306202Y479511D01*
X306122Y479476D01*
X306039Y479449D01*
X306000Y479421D01*
X305942Y479395D01*
X305829Y479299D01*
X305765Y479254D01*
X295446Y468935D01*
X295394Y468865D01*
X295334Y468801D01*
X295308Y468751D01*
X295275Y468707D01*
X295244Y468626D01*
X295204Y468548D01*
X295196Y468500D01*
X295174Y468442D01*
X295162Y468294D01*
X295149Y468217D01*
X295149Y421768D01*
X295149Y421766D01*
X295149Y421765D01*
X295169Y421625D01*
X295189Y421486D01*
X295189Y421485D01*
X295189Y421483D01*
X295248Y421353D01*
X295305Y421227D01*
X295306Y421226D01*
X295307Y421224D01*
X295398Y421117D01*
X295488Y421010D01*
X295490Y421009D01*
X295491Y421008D01*
X295504Y421000D01*
X295725Y420852D01*
X295754Y420843D01*
X295775Y420830D01*
X296992Y420326D01*
X299422Y417896D01*
X300737Y414722D01*
X300737Y398078D01*
X299422Y394904D01*
X296992Y392474D01*
X293818Y391159D01*
X290382Y391159D01*
G37*
%LPD*%
%LPC*%
G36*
X102726Y333569D02*
X102726Y333569D01*
X98525Y335310D01*
X95310Y338525D01*
X93569Y342726D01*
X93569Y347274D01*
X95310Y351475D01*
X98525Y354691D01*
X102617Y356386D01*
X102622Y356389D01*
X102629Y356390D01*
X102746Y356462D01*
X102862Y356530D01*
X102866Y356534D01*
X102872Y356538D01*
X102965Y356639D01*
X103057Y356737D01*
X103060Y356742D01*
X103064Y356747D01*
X103125Y356868D01*
X103187Y356989D01*
X103189Y356996D01*
X103191Y357001D01*
X103216Y357134D01*
X103242Y357268D01*
X103242Y357275D01*
X103243Y357281D01*
X103230Y357416D01*
X103218Y357552D01*
X103216Y357557D01*
X103215Y357564D01*
X103164Y357691D01*
X103116Y357817D01*
X103112Y357822D01*
X103110Y357828D01*
X103026Y357936D01*
X102944Y358044D01*
X102939Y358047D01*
X102936Y358052D01*
X102825Y358133D01*
X102717Y358214D01*
X102711Y358216D01*
X102706Y358220D01*
X102665Y358233D01*
X102451Y358314D01*
X102415Y358317D01*
X102387Y358326D01*
X102204Y358355D01*
X100417Y358936D01*
X98743Y359789D01*
X97222Y360894D01*
X95894Y362222D01*
X94789Y363743D01*
X93936Y365417D01*
X93355Y367204D01*
X93234Y367969D01*
X103984Y367969D01*
X104042Y367977D01*
X104100Y367975D01*
X104182Y367997D01*
X104265Y368009D01*
X104319Y368033D01*
X104375Y368047D01*
X104448Y368090D01*
X104525Y368125D01*
X104569Y368163D01*
X104620Y368193D01*
X104677Y368254D01*
X104742Y368309D01*
X104774Y368357D01*
X104814Y368400D01*
X104853Y368475D01*
X104899Y368545D01*
X104917Y368601D01*
X104944Y368653D01*
X104955Y368721D01*
X104985Y368816D01*
X104988Y368916D01*
X104999Y368984D01*
X104999Y371016D01*
X104991Y371074D01*
X104992Y371132D01*
X104971Y371214D01*
X104959Y371297D01*
X104935Y371351D01*
X104921Y371407D01*
X104878Y371480D01*
X104843Y371557D01*
X104805Y371602D01*
X104775Y371652D01*
X104714Y371710D01*
X104659Y371774D01*
X104611Y371806D01*
X104568Y371846D01*
X104493Y371885D01*
X104423Y371931D01*
X104367Y371949D01*
X104315Y371976D01*
X104247Y371987D01*
X104152Y372017D01*
X104052Y372020D01*
X103984Y372031D01*
X93234Y372031D01*
X93355Y372796D01*
X93936Y374583D01*
X94789Y376257D01*
X95894Y377778D01*
X97222Y379106D01*
X98743Y380211D01*
X100417Y381064D01*
X102204Y381645D01*
X102387Y381674D01*
X102393Y381676D01*
X102400Y381676D01*
X102530Y381717D01*
X102659Y381757D01*
X102664Y381760D01*
X102670Y381762D01*
X102784Y381839D01*
X102897Y381913D01*
X102901Y381917D01*
X102906Y381921D01*
X102994Y382025D01*
X103083Y382128D01*
X103085Y382134D01*
X103089Y382138D01*
X103145Y382262D01*
X103202Y382386D01*
X103202Y382392D01*
X103205Y382398D01*
X103223Y382532D01*
X103244Y382667D01*
X103243Y382674D01*
X103244Y382680D01*
X103225Y382813D01*
X103207Y382949D01*
X103204Y382955D01*
X103203Y382961D01*
X103147Y383085D01*
X103093Y383210D01*
X103089Y383214D01*
X103086Y383220D01*
X102998Y383324D01*
X102911Y383428D01*
X102906Y383432D01*
X102902Y383437D01*
X102865Y383460D01*
X102676Y383588D01*
X102642Y383599D01*
X102617Y383614D01*
X98525Y385309D01*
X95310Y388525D01*
X93569Y392726D01*
X93569Y397274D01*
X95310Y401475D01*
X98525Y404690D01*
X102726Y406431D01*
X107274Y406431D01*
X111475Y404690D01*
X114690Y401475D01*
X116431Y397274D01*
X116431Y392726D01*
X114690Y388525D01*
X111475Y385309D01*
X107383Y383614D01*
X107378Y383611D01*
X107371Y383610D01*
X107254Y383538D01*
X107138Y383470D01*
X107134Y383466D01*
X107128Y383462D01*
X107035Y383361D01*
X106943Y383263D01*
X106940Y383258D01*
X106936Y383253D01*
X106875Y383132D01*
X106813Y383011D01*
X106811Y383004D01*
X106809Y382999D01*
X106784Y382866D01*
X106758Y382732D01*
X106758Y382725D01*
X106757Y382719D01*
X106770Y382583D01*
X106782Y382448D01*
X106784Y382443D01*
X106785Y382436D01*
X106836Y382309D01*
X106884Y382183D01*
X106888Y382178D01*
X106890Y382172D01*
X106975Y382063D01*
X107056Y381956D01*
X107061Y381953D01*
X107064Y381948D01*
X107175Y381867D01*
X107283Y381786D01*
X107289Y381784D01*
X107294Y381780D01*
X107335Y381767D01*
X107549Y381686D01*
X107585Y381683D01*
X107613Y381674D01*
X107796Y381645D01*
X109583Y381064D01*
X111257Y380211D01*
X112778Y379106D01*
X114106Y377778D01*
X115211Y376257D01*
X116064Y374583D01*
X116645Y372796D01*
X116766Y372031D01*
X106016Y372031D01*
X105958Y372023D01*
X105900Y372025D01*
X105818Y372003D01*
X105735Y371991D01*
X105681Y371967D01*
X105625Y371953D01*
X105552Y371910D01*
X105475Y371875D01*
X105431Y371837D01*
X105380Y371807D01*
X105323Y371746D01*
X105258Y371691D01*
X105226Y371643D01*
X105186Y371600D01*
X105147Y371525D01*
X105101Y371455D01*
X105083Y371399D01*
X105056Y371347D01*
X105045Y371279D01*
X105015Y371184D01*
X105012Y371084D01*
X105001Y371016D01*
X105001Y368984D01*
X105009Y368926D01*
X105008Y368868D01*
X105029Y368786D01*
X105041Y368703D01*
X105065Y368649D01*
X105079Y368593D01*
X105122Y368520D01*
X105157Y368443D01*
X105195Y368398D01*
X105225Y368348D01*
X105286Y368290D01*
X105341Y368226D01*
X105389Y368194D01*
X105432Y368154D01*
X105507Y368115D01*
X105577Y368069D01*
X105633Y368051D01*
X105685Y368024D01*
X105753Y368013D01*
X105848Y367983D01*
X105948Y367980D01*
X106016Y367969D01*
X116766Y367969D01*
X116645Y367204D01*
X116064Y365417D01*
X115211Y363743D01*
X114106Y362222D01*
X112778Y360894D01*
X111257Y359789D01*
X109583Y358936D01*
X107796Y358355D01*
X107613Y358326D01*
X107607Y358324D01*
X107600Y358324D01*
X107470Y358283D01*
X107341Y358243D01*
X107336Y358240D01*
X107330Y358238D01*
X107216Y358161D01*
X107103Y358087D01*
X107099Y358083D01*
X107094Y358079D01*
X107006Y357975D01*
X106917Y357872D01*
X106915Y357866D01*
X106911Y357862D01*
X106855Y357738D01*
X106798Y357614D01*
X106798Y357608D01*
X106795Y357602D01*
X106777Y357468D01*
X106756Y357333D01*
X106757Y357326D01*
X106756Y357320D01*
X106776Y357185D01*
X106793Y357051D01*
X106796Y357045D01*
X106797Y357039D01*
X106853Y356915D01*
X106907Y356790D01*
X106911Y356786D01*
X106914Y356780D01*
X107002Y356676D01*
X107089Y356572D01*
X107094Y356568D01*
X107098Y356563D01*
X107135Y356540D01*
X107324Y356412D01*
X107358Y356401D01*
X107383Y356386D01*
X111475Y354691D01*
X114690Y351475D01*
X116431Y347274D01*
X116431Y342726D01*
X114690Y338525D01*
X111475Y335310D01*
X107274Y333569D01*
X102726Y333569D01*
G37*
%LPD*%
%LPC*%
G36*
X481195Y361235D02*
X481195Y361235D01*
X478598Y362311D01*
X476611Y364298D01*
X475535Y366895D01*
X475535Y369705D01*
X476611Y372302D01*
X478598Y374289D01*
X481195Y375365D01*
X484005Y375365D01*
X486602Y374289D01*
X488589Y372302D01*
X488724Y371975D01*
X488725Y371974D01*
X488726Y371973D01*
X488797Y371853D01*
X488869Y371731D01*
X488870Y371729D01*
X488871Y371728D01*
X488976Y371629D01*
X489076Y371535D01*
X489077Y371535D01*
X489078Y371534D01*
X489204Y371469D01*
X489328Y371405D01*
X489330Y371405D01*
X489331Y371404D01*
X489346Y371402D01*
X489607Y371350D01*
X489638Y371353D01*
X489662Y371349D01*
X569817Y371349D01*
X569903Y371361D01*
X569991Y371364D01*
X570043Y371381D01*
X570098Y371389D01*
X570178Y371424D01*
X570261Y371451D01*
X570300Y371479D01*
X570358Y371505D01*
X570471Y371601D01*
X570535Y371646D01*
X577050Y378162D01*
X577051Y378163D01*
X577053Y378164D01*
X577139Y378279D01*
X577221Y378389D01*
X577222Y378391D01*
X577223Y378392D01*
X577272Y378523D01*
X577323Y378655D01*
X577323Y378656D01*
X577323Y378658D01*
X577334Y378796D01*
X577346Y378938D01*
X577346Y378940D01*
X577346Y378941D01*
X577342Y378956D01*
X577290Y379217D01*
X577276Y379244D01*
X577270Y379268D01*
X577135Y379595D01*
X577135Y382405D01*
X578211Y385002D01*
X580198Y386989D01*
X582795Y388065D01*
X585605Y388065D01*
X588202Y386989D01*
X590189Y385002D01*
X591265Y382405D01*
X591265Y379595D01*
X590189Y376998D01*
X588202Y375011D01*
X585605Y373935D01*
X582795Y373935D01*
X582468Y374070D01*
X582467Y374071D01*
X582465Y374072D01*
X582330Y374106D01*
X582193Y374141D01*
X582191Y374141D01*
X582190Y374142D01*
X582049Y374137D01*
X581909Y374133D01*
X581907Y374133D01*
X581906Y374133D01*
X581772Y374089D01*
X581638Y374047D01*
X581637Y374046D01*
X581635Y374045D01*
X581623Y374037D01*
X581402Y373888D01*
X581382Y373865D01*
X581362Y373850D01*
X574846Y367335D01*
X574846Y367334D01*
X572763Y365251D01*
X489662Y365251D01*
X489661Y365251D01*
X489659Y365251D01*
X489519Y365231D01*
X489381Y365211D01*
X489379Y365211D01*
X489378Y365211D01*
X489250Y365153D01*
X489121Y365095D01*
X489120Y365094D01*
X489119Y365093D01*
X489012Y365002D01*
X488904Y364912D01*
X488904Y364910D01*
X488902Y364909D01*
X488894Y364896D01*
X488747Y364675D01*
X488738Y364646D01*
X488724Y364625D01*
X488589Y364298D01*
X486602Y362311D01*
X484005Y361235D01*
X481195Y361235D01*
G37*
%LPD*%
%LPC*%
G36*
X277126Y280269D02*
X277126Y280269D01*
X272925Y282010D01*
X269710Y285225D01*
X267969Y289426D01*
X267969Y293974D01*
X269710Y298175D01*
X272925Y301390D01*
X277126Y303131D01*
X281674Y303131D01*
X285875Y301390D01*
X289090Y298175D01*
X290250Y295375D01*
X290251Y295374D01*
X290251Y295373D01*
X290322Y295254D01*
X290395Y295131D01*
X290396Y295130D01*
X290397Y295128D01*
X290500Y295031D01*
X290601Y294935D01*
X290603Y294935D01*
X290604Y294934D01*
X290730Y294869D01*
X290854Y294805D01*
X290856Y294805D01*
X290857Y294804D01*
X290872Y294802D01*
X291133Y294750D01*
X291163Y294753D01*
X291188Y294749D01*
X306070Y294749D01*
X306128Y294757D01*
X306186Y294755D01*
X306268Y294777D01*
X306352Y294789D01*
X306405Y294812D01*
X306461Y294827D01*
X306534Y294870D01*
X306611Y294905D01*
X306656Y294943D01*
X306706Y294972D01*
X306764Y295034D01*
X306828Y295088D01*
X306860Y295137D01*
X306900Y295180D01*
X306939Y295255D01*
X306986Y295325D01*
X307003Y295381D01*
X307030Y295433D01*
X307041Y295501D01*
X307071Y295596D01*
X307074Y295696D01*
X307085Y295764D01*
X307085Y296414D01*
X313186Y302515D01*
X321814Y302515D01*
X327915Y296414D01*
X327915Y287786D01*
X321814Y281685D01*
X313186Y281685D01*
X307064Y287807D01*
X307057Y287834D01*
X307045Y287918D01*
X307022Y287971D01*
X307007Y288027D01*
X306964Y288100D01*
X306929Y288177D01*
X306891Y288222D01*
X306862Y288272D01*
X306800Y288330D01*
X306746Y288394D01*
X306697Y288426D01*
X306654Y288466D01*
X306579Y288505D01*
X306509Y288552D01*
X306453Y288569D01*
X306401Y288596D01*
X306333Y288607D01*
X306238Y288637D01*
X306138Y288640D01*
X306070Y288651D01*
X291188Y288651D01*
X291187Y288651D01*
X291185Y288651D01*
X291045Y288631D01*
X290907Y288611D01*
X290905Y288611D01*
X290904Y288611D01*
X290778Y288554D01*
X290647Y288495D01*
X290646Y288494D01*
X290645Y288493D01*
X290537Y288402D01*
X290430Y288312D01*
X290429Y288310D01*
X290428Y288309D01*
X290420Y288296D01*
X290273Y288075D01*
X290263Y288046D01*
X290250Y288025D01*
X289090Y285225D01*
X285875Y282010D01*
X281674Y280269D01*
X277126Y280269D01*
G37*
%LPD*%
%LPC*%
G36*
X505726Y254869D02*
X505726Y254869D01*
X501525Y256610D01*
X498310Y259825D01*
X496569Y264026D01*
X496569Y268574D01*
X498310Y272775D01*
X501525Y275990D01*
X505726Y277731D01*
X510274Y277731D01*
X514475Y275990D01*
X517690Y272775D01*
X518850Y269975D01*
X518851Y269974D01*
X518851Y269973D01*
X518922Y269854D01*
X518995Y269731D01*
X518996Y269730D01*
X518997Y269728D01*
X519100Y269631D01*
X519201Y269535D01*
X519203Y269535D01*
X519204Y269534D01*
X519330Y269469D01*
X519454Y269405D01*
X519456Y269405D01*
X519457Y269404D01*
X519472Y269402D01*
X519733Y269350D01*
X519763Y269353D01*
X519788Y269349D01*
X521970Y269349D01*
X522028Y269357D01*
X522086Y269355D01*
X522168Y269377D01*
X522252Y269389D01*
X522305Y269412D01*
X522361Y269427D01*
X522434Y269470D01*
X522511Y269505D01*
X522556Y269543D01*
X522606Y269572D01*
X522664Y269634D01*
X522728Y269688D01*
X522760Y269737D01*
X522800Y269780D01*
X522839Y269855D01*
X522886Y269925D01*
X522903Y269981D01*
X522930Y270033D01*
X522941Y270101D01*
X522971Y270196D01*
X522974Y270296D01*
X522985Y270364D01*
X522985Y271014D01*
X529086Y277115D01*
X537714Y277115D01*
X543815Y271014D01*
X543815Y262386D01*
X537714Y256285D01*
X529086Y256285D01*
X522964Y262407D01*
X522957Y262434D01*
X522945Y262518D01*
X522922Y262571D01*
X522907Y262627D01*
X522864Y262700D01*
X522829Y262777D01*
X522791Y262822D01*
X522762Y262872D01*
X522700Y262930D01*
X522646Y262994D01*
X522597Y263026D01*
X522554Y263066D01*
X522479Y263105D01*
X522409Y263152D01*
X522353Y263169D01*
X522301Y263196D01*
X522233Y263207D01*
X522138Y263237D01*
X522038Y263240D01*
X521970Y263251D01*
X519788Y263251D01*
X519787Y263251D01*
X519785Y263251D01*
X519645Y263231D01*
X519507Y263211D01*
X519505Y263211D01*
X519504Y263211D01*
X519378Y263154D01*
X519247Y263095D01*
X519246Y263094D01*
X519245Y263093D01*
X519134Y262999D01*
X519030Y262912D01*
X519029Y262910D01*
X519028Y262909D01*
X519020Y262896D01*
X518873Y262675D01*
X518863Y262646D01*
X518850Y262625D01*
X517690Y259825D01*
X514475Y256610D01*
X510274Y254869D01*
X505726Y254869D01*
G37*
%LPD*%
%LPC*%
G36*
X430395Y475535D02*
X430395Y475535D01*
X427798Y476611D01*
X425811Y478598D01*
X424735Y481195D01*
X424735Y484005D01*
X425811Y486602D01*
X427798Y488589D01*
X430395Y489665D01*
X433205Y489665D01*
X435802Y488589D01*
X437789Y486602D01*
X437924Y486275D01*
X437925Y486274D01*
X437926Y486273D01*
X437995Y486156D01*
X438069Y486031D01*
X438070Y486029D01*
X438071Y486028D01*
X438172Y485933D01*
X438276Y485835D01*
X438277Y485835D01*
X438278Y485834D01*
X438404Y485769D01*
X438528Y485705D01*
X438530Y485705D01*
X438531Y485704D01*
X438546Y485702D01*
X438807Y485650D01*
X438838Y485653D01*
X438862Y485649D01*
X468217Y485649D01*
X468303Y485661D01*
X468391Y485664D01*
X468443Y485681D01*
X468498Y485689D01*
X468578Y485724D01*
X468661Y485751D01*
X468700Y485779D01*
X468758Y485805D01*
X468871Y485901D01*
X468935Y485946D01*
X472362Y489374D01*
X472397Y489420D01*
X472440Y489461D01*
X472482Y489533D01*
X472533Y489601D01*
X472554Y489655D01*
X472583Y489706D01*
X472604Y489788D01*
X472634Y489866D01*
X472639Y489925D01*
X472653Y489981D01*
X472651Y490066D01*
X472658Y490150D01*
X472646Y490207D01*
X472644Y490266D01*
X472618Y490346D01*
X472602Y490428D01*
X472575Y490480D01*
X472557Y490536D01*
X472517Y490592D01*
X472471Y490681D01*
X472402Y490753D01*
X472362Y490809D01*
X472185Y490986D01*
X472185Y499614D01*
X478286Y505715D01*
X486914Y505715D01*
X493015Y499614D01*
X493015Y490986D01*
X486914Y484885D01*
X478286Y484885D01*
X478109Y485062D01*
X478063Y485097D01*
X478022Y485140D01*
X477950Y485182D01*
X477882Y485233D01*
X477827Y485254D01*
X477777Y485283D01*
X477695Y485304D01*
X477617Y485334D01*
X477558Y485339D01*
X477502Y485353D01*
X477417Y485351D01*
X477333Y485358D01*
X477276Y485346D01*
X477217Y485344D01*
X477137Y485318D01*
X477054Y485302D01*
X477003Y485275D01*
X476947Y485257D01*
X476891Y485217D01*
X476802Y485171D01*
X476730Y485102D01*
X476674Y485062D01*
X471163Y479551D01*
X438862Y479551D01*
X438861Y479551D01*
X438859Y479551D01*
X438719Y479531D01*
X438581Y479511D01*
X438579Y479511D01*
X438578Y479511D01*
X438450Y479453D01*
X438321Y479395D01*
X438320Y479394D01*
X438319Y479393D01*
X438211Y479301D01*
X438104Y479212D01*
X438104Y479210D01*
X438102Y479209D01*
X438094Y479196D01*
X437947Y478975D01*
X437938Y478946D01*
X437924Y478925D01*
X437789Y478598D01*
X435802Y476611D01*
X433205Y475535D01*
X430395Y475535D01*
G37*
%LPD*%
%LPC*%
G36*
X804999Y459999D02*
X804999Y459999D01*
X804999Y461016D01*
X804991Y461074D01*
X804992Y461132D01*
X804971Y461214D01*
X804959Y461297D01*
X804935Y461351D01*
X804921Y461407D01*
X804878Y461480D01*
X804843Y461557D01*
X804805Y461602D01*
X804775Y461652D01*
X804714Y461710D01*
X804659Y461774D01*
X804611Y461806D01*
X804568Y461846D01*
X804493Y461885D01*
X804423Y461931D01*
X804367Y461949D01*
X804315Y461976D01*
X804247Y461987D01*
X804152Y462017D01*
X804052Y462020D01*
X803984Y462031D01*
X793234Y462031D01*
X793355Y462796D01*
X793936Y464583D01*
X794789Y466257D01*
X795894Y467778D01*
X797222Y469106D01*
X798743Y470211D01*
X800417Y471064D01*
X802204Y471645D01*
X802387Y471674D01*
X802393Y471676D01*
X802400Y471676D01*
X802530Y471717D01*
X802659Y471757D01*
X802664Y471760D01*
X802670Y471762D01*
X802784Y471839D01*
X802897Y471913D01*
X802901Y471917D01*
X802906Y471921D01*
X802994Y472025D01*
X803083Y472128D01*
X803085Y472134D01*
X803089Y472138D01*
X803145Y472262D01*
X803202Y472386D01*
X803202Y472392D01*
X803205Y472398D01*
X803223Y472532D01*
X803244Y472667D01*
X803243Y472674D01*
X803244Y472680D01*
X803224Y472814D01*
X803207Y472949D01*
X803204Y472955D01*
X803203Y472961D01*
X803147Y473085D01*
X803093Y473210D01*
X803089Y473214D01*
X803086Y473220D01*
X802998Y473324D01*
X802911Y473428D01*
X802906Y473432D01*
X802902Y473437D01*
X802865Y473460D01*
X802676Y473588D01*
X802642Y473599D01*
X802617Y473614D01*
X798525Y475309D01*
X795310Y478525D01*
X793569Y482726D01*
X793569Y487274D01*
X795310Y491475D01*
X798525Y494690D01*
X802726Y496431D01*
X807274Y496431D01*
X811475Y494690D01*
X814690Y491475D01*
X816431Y487274D01*
X816431Y482726D01*
X814690Y478525D01*
X811475Y475309D01*
X807383Y473614D01*
X807378Y473611D01*
X807371Y473610D01*
X807254Y473538D01*
X807138Y473470D01*
X807134Y473466D01*
X807128Y473462D01*
X807035Y473361D01*
X806943Y473263D01*
X806940Y473258D01*
X806936Y473253D01*
X806875Y473132D01*
X806813Y473011D01*
X806811Y473004D01*
X806809Y472999D01*
X806784Y472866D01*
X806758Y472732D01*
X806758Y472725D01*
X806757Y472719D01*
X806770Y472583D01*
X806782Y472448D01*
X806784Y472443D01*
X806785Y472436D01*
X806836Y472309D01*
X806884Y472183D01*
X806888Y472178D01*
X806890Y472172D01*
X806974Y472064D01*
X807056Y471956D01*
X807061Y471953D01*
X807064Y471948D01*
X807175Y471867D01*
X807283Y471786D01*
X807289Y471784D01*
X807294Y471780D01*
X807335Y471767D01*
X807549Y471686D01*
X807585Y471683D01*
X807613Y471674D01*
X807796Y471645D01*
X809583Y471064D01*
X811257Y470211D01*
X812778Y469106D01*
X814106Y467778D01*
X815211Y466257D01*
X816064Y464583D01*
X816645Y462796D01*
X816766Y462031D01*
X806016Y462031D01*
X805958Y462023D01*
X805900Y462025D01*
X805818Y462003D01*
X805735Y461991D01*
X805681Y461967D01*
X805625Y461953D01*
X805552Y461910D01*
X805475Y461875D01*
X805431Y461837D01*
X805380Y461807D01*
X805323Y461746D01*
X805258Y461691D01*
X805226Y461643D01*
X805186Y461600D01*
X805147Y461525D01*
X805101Y461455D01*
X805083Y461399D01*
X805056Y461347D01*
X805045Y461279D01*
X805015Y461184D01*
X805012Y461084D01*
X805001Y461016D01*
X805001Y459999D01*
X804999Y459999D01*
G37*
%LPD*%
%LPC*%
G36*
X804999Y364999D02*
X804999Y364999D01*
X804999Y366016D01*
X804991Y366074D01*
X804992Y366132D01*
X804971Y366214D01*
X804959Y366297D01*
X804935Y366351D01*
X804921Y366407D01*
X804878Y366480D01*
X804843Y366557D01*
X804805Y366602D01*
X804775Y366652D01*
X804714Y366710D01*
X804659Y366774D01*
X804611Y366806D01*
X804568Y366846D01*
X804493Y366885D01*
X804423Y366931D01*
X804367Y366949D01*
X804315Y366976D01*
X804247Y366987D01*
X804152Y367017D01*
X804052Y367020D01*
X803984Y367031D01*
X793234Y367031D01*
X793355Y367796D01*
X793936Y369583D01*
X794789Y371257D01*
X795894Y372778D01*
X797222Y374106D01*
X798743Y375211D01*
X800417Y376064D01*
X802204Y376645D01*
X802387Y376674D01*
X802393Y376676D01*
X802400Y376676D01*
X802530Y376717D01*
X802659Y376757D01*
X802664Y376760D01*
X802670Y376762D01*
X802784Y376839D01*
X802897Y376913D01*
X802901Y376917D01*
X802906Y376921D01*
X802994Y377025D01*
X803083Y377128D01*
X803085Y377134D01*
X803089Y377138D01*
X803145Y377262D01*
X803202Y377386D01*
X803202Y377392D01*
X803205Y377398D01*
X803223Y377532D01*
X803244Y377667D01*
X803243Y377674D01*
X803244Y377680D01*
X803224Y377814D01*
X803207Y377949D01*
X803204Y377955D01*
X803203Y377961D01*
X803147Y378085D01*
X803093Y378210D01*
X803089Y378214D01*
X803086Y378220D01*
X802998Y378324D01*
X802911Y378428D01*
X802906Y378432D01*
X802902Y378437D01*
X802865Y378460D01*
X802676Y378588D01*
X802642Y378599D01*
X802617Y378614D01*
X798525Y380309D01*
X795310Y383525D01*
X793569Y387726D01*
X793569Y392274D01*
X795310Y396475D01*
X798525Y399690D01*
X802726Y401431D01*
X807274Y401431D01*
X811475Y399690D01*
X814690Y396475D01*
X816431Y392274D01*
X816431Y387726D01*
X814690Y383525D01*
X811475Y380309D01*
X807383Y378614D01*
X807378Y378611D01*
X807371Y378610D01*
X807254Y378538D01*
X807138Y378470D01*
X807134Y378466D01*
X807128Y378462D01*
X807035Y378361D01*
X806943Y378263D01*
X806940Y378258D01*
X806936Y378253D01*
X806875Y378132D01*
X806813Y378011D01*
X806811Y378004D01*
X806809Y377999D01*
X806784Y377866D01*
X806758Y377732D01*
X806758Y377725D01*
X806757Y377719D01*
X806770Y377583D01*
X806782Y377448D01*
X806784Y377443D01*
X806785Y377436D01*
X806836Y377309D01*
X806884Y377183D01*
X806888Y377178D01*
X806890Y377172D01*
X806974Y377064D01*
X807056Y376956D01*
X807061Y376953D01*
X807064Y376948D01*
X807175Y376867D01*
X807283Y376786D01*
X807289Y376784D01*
X807294Y376780D01*
X807335Y376767D01*
X807549Y376686D01*
X807585Y376683D01*
X807613Y376674D01*
X807796Y376645D01*
X809583Y376064D01*
X811257Y375211D01*
X812778Y374106D01*
X814106Y372778D01*
X815211Y371257D01*
X816064Y369583D01*
X816645Y367796D01*
X816766Y367031D01*
X806016Y367031D01*
X805958Y367023D01*
X805900Y367025D01*
X805818Y367003D01*
X805735Y366991D01*
X805681Y366967D01*
X805625Y366953D01*
X805552Y366910D01*
X805475Y366875D01*
X805431Y366837D01*
X805380Y366807D01*
X805323Y366746D01*
X805258Y366691D01*
X805226Y366643D01*
X805186Y366600D01*
X805147Y366525D01*
X805101Y366455D01*
X805083Y366399D01*
X805056Y366347D01*
X805045Y366279D01*
X805015Y366184D01*
X805012Y366084D01*
X805001Y366016D01*
X805001Y364999D01*
X804999Y364999D01*
G37*
%LPD*%
%LPC*%
G36*
X734680Y465327D02*
X734680Y465327D01*
X731132Y466797D01*
X728417Y469512D01*
X726947Y473060D01*
X726947Y492140D01*
X728417Y495688D01*
X731132Y498403D01*
X734680Y499873D01*
X738520Y499873D01*
X742068Y498403D01*
X744783Y495688D01*
X746253Y492140D01*
X746253Y473060D01*
X744783Y469512D01*
X742068Y466797D01*
X738520Y465327D01*
X734680Y465327D01*
G37*
%LPD*%
%LPC*%
G36*
X676260Y447547D02*
X676260Y447547D01*
X672712Y449017D01*
X669997Y451732D01*
X668527Y455280D01*
X668527Y459120D01*
X669997Y462668D01*
X672712Y465383D01*
X676260Y466853D01*
X695340Y466853D01*
X698888Y465383D01*
X701603Y462668D01*
X703073Y459120D01*
X703073Y455280D01*
X701603Y451732D01*
X698888Y449017D01*
X695340Y447547D01*
X676260Y447547D01*
G37*
%LPD*%
%LPC*%
G36*
X734680Y351027D02*
X734680Y351027D01*
X731132Y352497D01*
X728417Y355212D01*
X726947Y358760D01*
X726947Y377840D01*
X728417Y381388D01*
X731132Y384103D01*
X734680Y385573D01*
X738520Y385573D01*
X742068Y384103D01*
X744783Y381388D01*
X746253Y377840D01*
X746253Y358760D01*
X744783Y355212D01*
X742068Y352497D01*
X738520Y351027D01*
X734680Y351027D01*
G37*
%LPD*%
%LPC*%
G36*
X391982Y391159D02*
X391982Y391159D01*
X388808Y392474D01*
X386378Y394904D01*
X385063Y398078D01*
X385063Y414722D01*
X386378Y417896D01*
X388808Y420326D01*
X391982Y421641D01*
X395418Y421641D01*
X398592Y420326D01*
X401022Y417896D01*
X402337Y414722D01*
X402337Y398078D01*
X401022Y394904D01*
X398592Y392474D01*
X395418Y391159D01*
X391982Y391159D01*
G37*
%LPD*%
%LPC*%
G36*
X417382Y314959D02*
X417382Y314959D01*
X414208Y316274D01*
X411778Y318704D01*
X410463Y321878D01*
X410463Y338522D01*
X411778Y341696D01*
X414208Y344126D01*
X417382Y345441D01*
X420818Y345441D01*
X423992Y344126D01*
X426422Y341696D01*
X427737Y338522D01*
X427737Y321878D01*
X426422Y318704D01*
X423992Y316274D01*
X420818Y314959D01*
X417382Y314959D01*
G37*
%LPD*%
%LPC*%
G36*
X620582Y314959D02*
X620582Y314959D01*
X617408Y316274D01*
X614978Y318704D01*
X613663Y321878D01*
X613663Y338522D01*
X614978Y341696D01*
X617408Y344126D01*
X620582Y345441D01*
X624018Y345441D01*
X627192Y344126D01*
X629622Y341696D01*
X630937Y338522D01*
X630937Y321878D01*
X629622Y318704D01*
X627192Y316274D01*
X624018Y314959D01*
X620582Y314959D01*
G37*
%LPD*%
%LPC*%
G36*
X544382Y314959D02*
X544382Y314959D01*
X541208Y316274D01*
X538778Y318704D01*
X537463Y321878D01*
X537463Y338522D01*
X538778Y341696D01*
X541208Y344126D01*
X544382Y345441D01*
X547818Y345441D01*
X550992Y344126D01*
X553422Y341696D01*
X554737Y338522D01*
X554737Y321878D01*
X553422Y318704D01*
X550992Y316274D01*
X547818Y314959D01*
X544382Y314959D01*
G37*
%LPD*%
%LPC*%
G36*
X595182Y314959D02*
X595182Y314959D01*
X592008Y316274D01*
X589578Y318704D01*
X588263Y321878D01*
X588263Y338522D01*
X589578Y341696D01*
X592008Y344126D01*
X595182Y345441D01*
X598618Y345441D01*
X601792Y344126D01*
X604222Y341696D01*
X605537Y338522D01*
X605537Y321878D01*
X604222Y318704D01*
X601792Y316274D01*
X598618Y314959D01*
X595182Y314959D01*
G37*
%LPD*%
%LPC*%
G36*
X264982Y314959D02*
X264982Y314959D01*
X261808Y316274D01*
X259378Y318704D01*
X258063Y321878D01*
X258063Y338522D01*
X259378Y341696D01*
X261808Y344126D01*
X264982Y345441D01*
X268418Y345441D01*
X271592Y344126D01*
X274022Y341696D01*
X275337Y338522D01*
X275337Y321878D01*
X274022Y318704D01*
X271592Y316274D01*
X268418Y314959D01*
X264982Y314959D01*
G37*
%LPD*%
%LPC*%
G36*
X290382Y314959D02*
X290382Y314959D01*
X287208Y316274D01*
X284778Y318704D01*
X283463Y321878D01*
X283463Y338522D01*
X284778Y341696D01*
X287208Y344126D01*
X290382Y345441D01*
X293818Y345441D01*
X296992Y344126D01*
X299422Y341696D01*
X300737Y338522D01*
X300737Y321878D01*
X299422Y318704D01*
X296992Y316274D01*
X293818Y314959D01*
X290382Y314959D01*
G37*
%LPD*%
%LPC*%
G36*
X366582Y314959D02*
X366582Y314959D01*
X363408Y316274D01*
X360978Y318704D01*
X359663Y321878D01*
X359663Y338522D01*
X360978Y341696D01*
X363408Y344126D01*
X366582Y345441D01*
X370018Y345441D01*
X373192Y344126D01*
X375622Y341696D01*
X376937Y338522D01*
X376937Y321878D01*
X375622Y318704D01*
X373192Y316274D01*
X370018Y314959D01*
X366582Y314959D01*
G37*
%LPD*%
%LPC*%
G36*
X391982Y314959D02*
X391982Y314959D01*
X388808Y316274D01*
X386378Y318704D01*
X385063Y321878D01*
X385063Y338522D01*
X386378Y341696D01*
X388808Y344126D01*
X391982Y345441D01*
X395418Y345441D01*
X398592Y344126D01*
X401022Y341696D01*
X402337Y338522D01*
X402337Y321878D01*
X401022Y318704D01*
X398592Y316274D01*
X395418Y314959D01*
X391982Y314959D01*
G37*
%LPD*%
%LPC*%
G36*
X341182Y314959D02*
X341182Y314959D01*
X338008Y316274D01*
X335578Y318704D01*
X334263Y321878D01*
X334263Y338522D01*
X335578Y341696D01*
X338008Y344126D01*
X341182Y345441D01*
X344618Y345441D01*
X347792Y344126D01*
X350222Y341696D01*
X351537Y338522D01*
X351537Y321878D01*
X350222Y318704D01*
X347792Y316274D01*
X344618Y314959D01*
X341182Y314959D01*
G37*
%LPD*%
%LPC*%
G36*
X315782Y314959D02*
X315782Y314959D01*
X312608Y316274D01*
X310178Y318704D01*
X308863Y321878D01*
X308863Y338522D01*
X310178Y341696D01*
X312608Y344126D01*
X315782Y345441D01*
X319218Y345441D01*
X322392Y344126D01*
X324822Y341696D01*
X326137Y338522D01*
X326137Y321878D01*
X324822Y318704D01*
X322392Y316274D01*
X319218Y314959D01*
X315782Y314959D01*
G37*
%LPD*%
%LPC*%
G36*
X544382Y391159D02*
X544382Y391159D01*
X541208Y392474D01*
X538778Y394904D01*
X537463Y398078D01*
X537463Y414722D01*
X538778Y417896D01*
X541208Y420326D01*
X544382Y421641D01*
X547818Y421641D01*
X550992Y420326D01*
X553422Y417896D01*
X554737Y414722D01*
X554737Y398078D01*
X553422Y394904D01*
X550992Y392474D01*
X547818Y391159D01*
X544382Y391159D01*
G37*
%LPD*%
%LPC*%
G36*
X341182Y391159D02*
X341182Y391159D01*
X338008Y392474D01*
X335578Y394904D01*
X334263Y398078D01*
X334263Y414722D01*
X335578Y417896D01*
X338008Y420326D01*
X341182Y421641D01*
X344618Y421641D01*
X347792Y420326D01*
X350222Y417896D01*
X351537Y414722D01*
X351537Y398078D01*
X350222Y394904D01*
X347792Y392474D01*
X344618Y391159D01*
X341182Y391159D01*
G37*
%LPD*%
%LPC*%
G36*
X620582Y391159D02*
X620582Y391159D01*
X617408Y392474D01*
X614978Y394904D01*
X613663Y398078D01*
X613663Y414722D01*
X614978Y417896D01*
X617408Y420326D01*
X620582Y421641D01*
X624018Y421641D01*
X627192Y420326D01*
X629622Y417896D01*
X630937Y414722D01*
X630937Y398078D01*
X629622Y394904D01*
X627192Y392474D01*
X624018Y391159D01*
X620582Y391159D01*
G37*
%LPD*%
%LPC*%
G36*
X468182Y391159D02*
X468182Y391159D01*
X465008Y392474D01*
X462578Y394904D01*
X461263Y398078D01*
X461263Y414722D01*
X462578Y417896D01*
X465008Y420326D01*
X468182Y421641D01*
X471618Y421641D01*
X474792Y420326D01*
X477222Y417896D01*
X478537Y414722D01*
X478537Y398078D01*
X477222Y394904D01*
X474792Y392474D01*
X471618Y391159D01*
X468182Y391159D01*
G37*
%LPD*%
%LPC*%
G36*
X595182Y391159D02*
X595182Y391159D01*
X592008Y392474D01*
X589578Y394904D01*
X588263Y398078D01*
X588263Y414722D01*
X589578Y417896D01*
X592008Y420326D01*
X595182Y421641D01*
X598618Y421641D01*
X601792Y420326D01*
X604222Y417896D01*
X605537Y414722D01*
X605537Y398078D01*
X604222Y394904D01*
X601792Y392474D01*
X598618Y391159D01*
X595182Y391159D01*
G37*
%LPD*%
%LPC*%
G36*
X417382Y391159D02*
X417382Y391159D01*
X414208Y392474D01*
X411778Y394904D01*
X410463Y398078D01*
X410463Y414722D01*
X411778Y417896D01*
X414208Y420326D01*
X417382Y421641D01*
X420818Y421641D01*
X423992Y420326D01*
X426422Y417896D01*
X427737Y414722D01*
X427737Y398078D01*
X426422Y394904D01*
X423992Y392474D01*
X420818Y391159D01*
X417382Y391159D01*
G37*
%LPD*%
%LPC*%
G36*
X518982Y391159D02*
X518982Y391159D01*
X515808Y392474D01*
X513378Y394904D01*
X512063Y398078D01*
X512063Y414722D01*
X513378Y417896D01*
X515808Y420326D01*
X518982Y421641D01*
X522418Y421641D01*
X525592Y420326D01*
X528022Y417896D01*
X529337Y414722D01*
X529337Y398078D01*
X528022Y394904D01*
X525592Y392474D01*
X522418Y391159D01*
X518982Y391159D01*
G37*
%LPD*%
%LPC*%
G36*
X366582Y391159D02*
X366582Y391159D01*
X363408Y392474D01*
X360978Y394904D01*
X359663Y398078D01*
X359663Y414722D01*
X360978Y417896D01*
X363408Y420326D01*
X366582Y421641D01*
X370018Y421641D01*
X373192Y420326D01*
X375622Y417896D01*
X376937Y414722D01*
X376937Y398078D01*
X375622Y394904D01*
X373192Y392474D01*
X370018Y391159D01*
X366582Y391159D01*
G37*
%LPD*%
%LPC*%
G36*
X102726Y408569D02*
X102726Y408569D01*
X98525Y410310D01*
X95310Y413525D01*
X93569Y417726D01*
X93569Y422274D01*
X95310Y426475D01*
X98525Y429690D01*
X102726Y431431D01*
X107274Y431431D01*
X111475Y429690D01*
X114690Y426475D01*
X116431Y422274D01*
X116431Y417726D01*
X114690Y413525D01*
X111475Y410310D01*
X107274Y408569D01*
X102726Y408569D01*
G37*
%LPD*%
%LPC*%
G36*
X556926Y204469D02*
X556926Y204469D01*
X552725Y206210D01*
X549510Y209425D01*
X547769Y213626D01*
X547769Y218174D01*
X549510Y222375D01*
X552725Y225590D01*
X556926Y227331D01*
X561474Y227331D01*
X565675Y225590D01*
X568890Y222375D01*
X570631Y218174D01*
X570631Y213626D01*
X568890Y209425D01*
X565675Y206210D01*
X561474Y204469D01*
X556926Y204469D01*
G37*
%LPD*%
%LPC*%
G36*
X213226Y534669D02*
X213226Y534669D01*
X209025Y536410D01*
X205810Y539625D01*
X204069Y543826D01*
X204069Y548374D01*
X205810Y552575D01*
X209025Y555790D01*
X213226Y557531D01*
X217774Y557531D01*
X221975Y555790D01*
X225190Y552575D01*
X226931Y548374D01*
X226931Y543826D01*
X225190Y539625D01*
X221975Y536410D01*
X217774Y534669D01*
X213226Y534669D01*
G37*
%LPD*%
%LPC*%
G36*
X163226Y534669D02*
X163226Y534669D01*
X159025Y536410D01*
X155810Y539625D01*
X154069Y543826D01*
X154069Y548374D01*
X155810Y552575D01*
X159025Y555790D01*
X163226Y557531D01*
X167774Y557531D01*
X171975Y555790D01*
X175190Y552575D01*
X176931Y548374D01*
X176931Y543826D01*
X175190Y539625D01*
X171975Y536410D01*
X167774Y534669D01*
X163226Y534669D01*
G37*
%LPD*%
%LPC*%
G36*
X341026Y242569D02*
X341026Y242569D01*
X336825Y244310D01*
X333610Y247525D01*
X331869Y251726D01*
X331869Y256274D01*
X333610Y260475D01*
X336825Y263690D01*
X341026Y265431D01*
X345574Y265431D01*
X349775Y263690D01*
X352990Y260475D01*
X354731Y256274D01*
X354731Y251726D01*
X352990Y247525D01*
X349775Y244310D01*
X345574Y242569D01*
X341026Y242569D01*
G37*
%LPD*%
%LPC*%
G36*
X505726Y204869D02*
X505726Y204869D01*
X501525Y206610D01*
X498310Y209825D01*
X496569Y214026D01*
X496569Y218574D01*
X498310Y222775D01*
X501525Y225990D01*
X505726Y227731D01*
X510274Y227731D01*
X514475Y225990D01*
X517690Y222775D01*
X519431Y218574D01*
X519431Y214026D01*
X517690Y209825D01*
X514475Y206610D01*
X510274Y204869D01*
X505726Y204869D01*
G37*
%LPD*%
%LPC*%
G36*
X162826Y305669D02*
X162826Y305669D01*
X158625Y307410D01*
X155410Y310625D01*
X153669Y314826D01*
X153669Y319374D01*
X155410Y323575D01*
X158625Y326790D01*
X162826Y328531D01*
X167374Y328531D01*
X171575Y326790D01*
X174790Y323575D01*
X176531Y319374D01*
X176531Y314826D01*
X174790Y310625D01*
X171575Y307410D01*
X167374Y305669D01*
X162826Y305669D01*
G37*
%LPD*%
%LPC*%
G36*
X391026Y191769D02*
X391026Y191769D01*
X386825Y193510D01*
X383610Y196725D01*
X381869Y200926D01*
X381869Y205474D01*
X383610Y209675D01*
X386825Y212890D01*
X391026Y214631D01*
X395574Y214631D01*
X399775Y212890D01*
X402990Y209675D01*
X404731Y205474D01*
X404731Y200926D01*
X402990Y196725D01*
X399775Y193510D01*
X395574Y191769D01*
X391026Y191769D01*
G37*
%LPD*%
%LPC*%
G36*
X340626Y496169D02*
X340626Y496169D01*
X336425Y497910D01*
X333210Y501125D01*
X331469Y505326D01*
X331469Y509874D01*
X333210Y514075D01*
X336425Y517290D01*
X340626Y519031D01*
X345174Y519031D01*
X349375Y517290D01*
X352590Y514075D01*
X354331Y509874D01*
X354331Y505326D01*
X352590Y501125D01*
X349375Y497910D01*
X345174Y496169D01*
X340626Y496169D01*
G37*
%LPD*%
%LPC*%
G36*
X683126Y204469D02*
X683126Y204469D01*
X678925Y206210D01*
X675710Y209425D01*
X673969Y213626D01*
X673969Y218174D01*
X675710Y222375D01*
X678925Y225590D01*
X683126Y227331D01*
X687674Y227331D01*
X691875Y225590D01*
X695090Y222375D01*
X696831Y218174D01*
X696831Y213626D01*
X695090Y209425D01*
X691875Y206210D01*
X687674Y204469D01*
X683126Y204469D01*
G37*
%LPD*%
%LPC*%
G36*
X455326Y433069D02*
X455326Y433069D01*
X451125Y434810D01*
X447910Y438025D01*
X446169Y442226D01*
X446169Y446774D01*
X447910Y450975D01*
X451125Y454190D01*
X455326Y455931D01*
X459874Y455931D01*
X464075Y454190D01*
X467290Y450975D01*
X469031Y446774D01*
X469031Y442226D01*
X467290Y438025D01*
X464075Y434810D01*
X459874Y433069D01*
X455326Y433069D01*
G37*
%LPD*%
%LPC*%
G36*
X633126Y204469D02*
X633126Y204469D01*
X628925Y206210D01*
X625710Y209425D01*
X623969Y213626D01*
X623969Y218174D01*
X625710Y222375D01*
X628925Y225590D01*
X633126Y227331D01*
X637674Y227331D01*
X641875Y225590D01*
X645090Y222375D01*
X646831Y218174D01*
X646831Y213626D01*
X645090Y209425D01*
X641875Y206210D01*
X637674Y204469D01*
X633126Y204469D01*
G37*
%LPD*%
%LPC*%
G36*
X606926Y204469D02*
X606926Y204469D01*
X602725Y206210D01*
X599510Y209425D01*
X597769Y213626D01*
X597769Y218174D01*
X599510Y222375D01*
X602725Y225590D01*
X606926Y227331D01*
X611474Y227331D01*
X615675Y225590D01*
X618890Y222375D01*
X620631Y218174D01*
X620631Y213626D01*
X618890Y209425D01*
X615675Y206210D01*
X611474Y204469D01*
X606926Y204469D01*
G37*
%LPD*%
%LPC*%
G36*
X137426Y305669D02*
X137426Y305669D01*
X133225Y307410D01*
X130010Y310625D01*
X128269Y314826D01*
X128269Y319374D01*
X130010Y323575D01*
X133225Y326790D01*
X137426Y328531D01*
X141974Y328531D01*
X146175Y326790D01*
X149390Y323575D01*
X151131Y319374D01*
X151131Y314826D01*
X149390Y310625D01*
X146175Y307410D01*
X141974Y305669D01*
X137426Y305669D01*
G37*
%LPD*%
%LPC*%
G36*
X480326Y204869D02*
X480326Y204869D01*
X476125Y206610D01*
X472910Y209825D01*
X471169Y214026D01*
X471169Y218574D01*
X472910Y222775D01*
X476125Y225990D01*
X480326Y227731D01*
X484874Y227731D01*
X489075Y225990D01*
X492290Y222775D01*
X494031Y218574D01*
X494031Y214026D01*
X492290Y209825D01*
X489075Y206610D01*
X484874Y204869D01*
X480326Y204869D01*
G37*
%LPD*%
%LPC*%
G36*
X341026Y217169D02*
X341026Y217169D01*
X336825Y218910D01*
X333610Y222125D01*
X331869Y226326D01*
X331869Y230874D01*
X333610Y235075D01*
X336825Y238290D01*
X341026Y240031D01*
X345574Y240031D01*
X349775Y238290D01*
X352990Y235075D01*
X354731Y230874D01*
X354731Y226326D01*
X352990Y222125D01*
X349775Y218910D01*
X345574Y217169D01*
X341026Y217169D01*
G37*
%LPD*%
%LPC*%
G36*
X102726Y308569D02*
X102726Y308569D01*
X98525Y310310D01*
X95310Y313525D01*
X93569Y317726D01*
X93569Y322274D01*
X95310Y326475D01*
X98525Y329690D01*
X102726Y331431D01*
X107274Y331431D01*
X111475Y329690D01*
X114690Y326475D01*
X116431Y322274D01*
X116431Y317726D01*
X114690Y313525D01*
X111475Y310310D01*
X107274Y308569D01*
X102726Y308569D01*
G37*
%LPD*%
%LPC*%
G36*
X391026Y166369D02*
X391026Y166369D01*
X386825Y168110D01*
X383610Y171325D01*
X381869Y175526D01*
X381869Y180074D01*
X383610Y184275D01*
X386825Y187490D01*
X391026Y189231D01*
X395574Y189231D01*
X399775Y187490D01*
X402990Y184275D01*
X404731Y180074D01*
X404731Y175526D01*
X402990Y171325D01*
X399775Y168110D01*
X395574Y166369D01*
X391026Y166369D01*
G37*
%LPD*%
%LPC*%
G36*
X341026Y166369D02*
X341026Y166369D01*
X336825Y168110D01*
X333610Y171325D01*
X331869Y175526D01*
X331869Y180074D01*
X333610Y184275D01*
X336825Y187490D01*
X341026Y189231D01*
X345574Y189231D01*
X349775Y187490D01*
X352990Y184275D01*
X354731Y180074D01*
X354731Y175526D01*
X352990Y171325D01*
X349775Y168110D01*
X345574Y166369D01*
X341026Y166369D01*
G37*
%LPD*%
%LPC*%
G36*
X414786Y535685D02*
X414786Y535685D01*
X408685Y541786D01*
X408685Y550414D01*
X414786Y556515D01*
X423414Y556515D01*
X429515Y550414D01*
X429515Y541786D01*
X423414Y535685D01*
X414786Y535685D01*
G37*
%LPD*%
%LPC*%
G36*
X313186Y535685D02*
X313186Y535685D01*
X307085Y541786D01*
X307085Y550414D01*
X313186Y556515D01*
X321814Y556515D01*
X327915Y550414D01*
X327915Y541786D01*
X321814Y535685D01*
X313186Y535685D01*
G37*
%LPD*%
%LPC*%
G36*
X389386Y535685D02*
X389386Y535685D01*
X383285Y541786D01*
X383285Y550414D01*
X389386Y556515D01*
X398014Y556515D01*
X404115Y550414D01*
X404115Y541786D01*
X398014Y535685D01*
X389386Y535685D01*
G37*
%LPD*%
%LPC*%
G36*
X656086Y281685D02*
X656086Y281685D01*
X649985Y287786D01*
X649985Y296414D01*
X656086Y302515D01*
X664714Y302515D01*
X670815Y296414D01*
X670815Y287786D01*
X664714Y281685D01*
X656086Y281685D01*
G37*
%LPD*%
%LPC*%
G36*
X198886Y484885D02*
X198886Y484885D01*
X192785Y490986D01*
X192785Y499614D01*
X198886Y505715D01*
X207514Y505715D01*
X213615Y499614D01*
X213615Y490986D01*
X207514Y484885D01*
X198886Y484885D01*
G37*
%LPD*%
%LPC*%
G36*
X503686Y484885D02*
X503686Y484885D01*
X497585Y490986D01*
X497585Y499614D01*
X503686Y505715D01*
X512314Y505715D01*
X518415Y499614D01*
X518415Y490986D01*
X512314Y484885D01*
X503686Y484885D01*
G37*
%LPD*%
%LPC*%
G36*
X617986Y484885D02*
X617986Y484885D01*
X611885Y490986D01*
X611885Y499614D01*
X617986Y505715D01*
X626614Y505715D01*
X632715Y499614D01*
X632715Y490986D01*
X626614Y484885D01*
X617986Y484885D01*
G37*
%LPD*%
%LPC*%
G36*
X592586Y484885D02*
X592586Y484885D01*
X586485Y490986D01*
X586485Y499614D01*
X592586Y505715D01*
X601214Y505715D01*
X607315Y499614D01*
X607315Y490986D01*
X601214Y484885D01*
X592586Y484885D01*
G37*
%LPD*%
%LPC*%
G36*
X529086Y484885D02*
X529086Y484885D01*
X522985Y490986D01*
X522985Y499614D01*
X529086Y505715D01*
X537714Y505715D01*
X543815Y499614D01*
X543815Y490986D01*
X537714Y484885D01*
X529086Y484885D01*
G37*
%LPD*%
%LPC*%
G36*
X757686Y281685D02*
X757686Y281685D01*
X751585Y287786D01*
X751585Y296414D01*
X757686Y302515D01*
X766314Y302515D01*
X772415Y296414D01*
X772415Y287786D01*
X766314Y281685D01*
X757686Y281685D01*
G37*
%LPD*%
%LPC*%
G36*
X198886Y383285D02*
X198886Y383285D01*
X192785Y389386D01*
X192785Y398014D01*
X198886Y404115D01*
X207514Y404115D01*
X213615Y398014D01*
X213615Y389386D01*
X207514Y383285D01*
X198886Y383285D01*
G37*
%LPD*%
%LPC*%
G36*
X160786Y510285D02*
X160786Y510285D01*
X154685Y516386D01*
X154685Y525014D01*
X160786Y531115D01*
X169414Y531115D01*
X175515Y525014D01*
X175515Y516386D01*
X169414Y510285D01*
X160786Y510285D01*
G37*
%LPD*%
%LPC*%
G36*
X160786Y408685D02*
X160786Y408685D01*
X154685Y414786D01*
X154685Y423414D01*
X160786Y429515D01*
X169414Y429515D01*
X175515Y423414D01*
X175515Y414786D01*
X169414Y408685D01*
X160786Y408685D01*
G37*
%LPD*%
%LPC*%
G36*
X363986Y434085D02*
X363986Y434085D01*
X357885Y440186D01*
X357885Y448814D01*
X363986Y454915D01*
X372614Y454915D01*
X378715Y448814D01*
X378715Y440186D01*
X372614Y434085D01*
X363986Y434085D01*
G37*
%LPD*%
%LPC*%
G36*
X656086Y256285D02*
X656086Y256285D01*
X649985Y262386D01*
X649985Y271014D01*
X656086Y277115D01*
X664714Y277115D01*
X670815Y271014D01*
X670815Y262386D01*
X664714Y256285D01*
X656086Y256285D01*
G37*
%LPD*%
%LPC*%
G36*
X630686Y256285D02*
X630686Y256285D01*
X624585Y262386D01*
X624585Y271014D01*
X630686Y277115D01*
X639314Y277115D01*
X645415Y271014D01*
X645415Y262386D01*
X639314Y256285D01*
X630686Y256285D01*
G37*
%LPD*%
%LPC*%
G36*
X757686Y230885D02*
X757686Y230885D01*
X751585Y236986D01*
X751585Y245614D01*
X757686Y251715D01*
X766314Y251715D01*
X772415Y245614D01*
X772415Y236986D01*
X766314Y230885D01*
X757686Y230885D01*
G37*
%LPD*%
%LPC*%
G36*
X656086Y230885D02*
X656086Y230885D01*
X649985Y236986D01*
X649985Y245614D01*
X656086Y251715D01*
X664714Y251715D01*
X670815Y245614D01*
X670815Y236986D01*
X664714Y230885D01*
X656086Y230885D01*
G37*
%LPD*%
%LPC*%
G36*
X630686Y230885D02*
X630686Y230885D01*
X624585Y236986D01*
X624585Y245614D01*
X630686Y251715D01*
X639314Y251715D01*
X645415Y245614D01*
X645415Y236986D01*
X639314Y230885D01*
X630686Y230885D01*
G37*
%LPD*%
%LPC*%
G36*
X389386Y434085D02*
X389386Y434085D01*
X383285Y440186D01*
X383285Y448814D01*
X389386Y454915D01*
X398014Y454915D01*
X404115Y448814D01*
X404115Y440186D01*
X398014Y434085D01*
X389386Y434085D01*
G37*
%LPD*%
%LPC*%
G36*
X592586Y586485D02*
X592586Y586485D01*
X586485Y592586D01*
X586485Y601214D01*
X592586Y607315D01*
X601214Y607315D01*
X607315Y601214D01*
X607315Y592586D01*
X601214Y586485D01*
X592586Y586485D01*
G37*
%LPD*%
%LPC*%
G36*
X617986Y586485D02*
X617986Y586485D01*
X611885Y592586D01*
X611885Y601214D01*
X617986Y607315D01*
X626614Y607315D01*
X632715Y601214D01*
X632715Y592586D01*
X626614Y586485D01*
X617986Y586485D01*
G37*
%LPD*%
%LPC*%
G36*
X706886Y167385D02*
X706886Y167385D01*
X700785Y173486D01*
X700785Y182114D01*
X706886Y188215D01*
X715514Y188215D01*
X721615Y182114D01*
X721615Y173486D01*
X715514Y167385D01*
X706886Y167385D01*
G37*
%LPD*%
%LPC*%
G36*
X579886Y167385D02*
X579886Y167385D01*
X573785Y173486D01*
X573785Y182114D01*
X579886Y188215D01*
X588514Y188215D01*
X594615Y182114D01*
X594615Y173486D01*
X588514Y167385D01*
X579886Y167385D01*
G37*
%LPD*%
%LPC*%
G36*
X478286Y167385D02*
X478286Y167385D01*
X472185Y173486D01*
X472185Y182114D01*
X478286Y188215D01*
X486914Y188215D01*
X493015Y182114D01*
X493015Y173486D01*
X486914Y167385D01*
X478286Y167385D01*
G37*
%LPD*%
%LPC*%
G36*
X427486Y154685D02*
X427486Y154685D01*
X421385Y160786D01*
X421385Y169414D01*
X427486Y175515D01*
X436114Y175515D01*
X442215Y169414D01*
X442215Y160786D01*
X436114Y154685D01*
X427486Y154685D01*
G37*
%LPD*%
%LPC*%
G36*
X706886Y141985D02*
X706886Y141985D01*
X700785Y148086D01*
X700785Y156714D01*
X706886Y162815D01*
X715514Y162815D01*
X721615Y156714D01*
X721615Y148086D01*
X715514Y141985D01*
X706886Y141985D01*
G37*
%LPD*%
%LPC*%
G36*
X687831Y510031D02*
X687831Y510031D01*
X687831Y518161D01*
X694220Y518161D01*
X695799Y517911D01*
X697320Y517416D01*
X698745Y516690D01*
X700039Y515750D01*
X701170Y514619D01*
X702110Y513325D01*
X702836Y511900D01*
X703331Y510379D01*
X703386Y510031D01*
X687831Y510031D01*
G37*
%LPD*%
%LPC*%
G36*
X687831Y395731D02*
X687831Y395731D01*
X687831Y403861D01*
X694220Y403861D01*
X695799Y403611D01*
X697320Y403116D01*
X698745Y402390D01*
X700039Y401450D01*
X701170Y400319D01*
X702110Y399025D01*
X702836Y397600D01*
X703331Y396079D01*
X703386Y395731D01*
X687831Y395731D01*
G37*
%LPD*%
%LPC*%
G36*
X668214Y510031D02*
X668214Y510031D01*
X668269Y510379D01*
X668764Y511900D01*
X669490Y513325D01*
X670430Y514619D01*
X671561Y515750D01*
X672855Y516690D01*
X674280Y517416D01*
X675801Y517911D01*
X677380Y518161D01*
X683769Y518161D01*
X683769Y510031D01*
X668214Y510031D01*
G37*
%LPD*%
%LPC*%
G36*
X668214Y395731D02*
X668214Y395731D01*
X668269Y396079D01*
X668764Y397600D01*
X669490Y399025D01*
X670430Y400319D01*
X671561Y401450D01*
X672855Y402390D01*
X674280Y403116D01*
X675801Y403611D01*
X677380Y403861D01*
X683769Y403861D01*
X683769Y395731D01*
X668214Y395731D01*
G37*
%LPD*%
%LPC*%
G36*
X687831Y497839D02*
X687831Y497839D01*
X687831Y505969D01*
X703386Y505969D01*
X703331Y505621D01*
X702836Y504100D01*
X702110Y502675D01*
X701170Y501381D01*
X700039Y500250D01*
X698745Y499310D01*
X697320Y498584D01*
X695799Y498089D01*
X694220Y497839D01*
X687831Y497839D01*
G37*
%LPD*%
%LPC*%
G36*
X687831Y383539D02*
X687831Y383539D01*
X687831Y391669D01*
X703386Y391669D01*
X703331Y391321D01*
X702836Y389800D01*
X702110Y388375D01*
X701170Y387081D01*
X700039Y385950D01*
X698745Y385010D01*
X697320Y384284D01*
X695799Y383789D01*
X694220Y383539D01*
X687831Y383539D01*
G37*
%LPD*%
%LPC*%
G36*
X677380Y497839D02*
X677380Y497839D01*
X675801Y498089D01*
X674280Y498584D01*
X672855Y499310D01*
X671561Y500250D01*
X670430Y501381D01*
X669490Y502675D01*
X668764Y504100D01*
X668269Y505621D01*
X668214Y505969D01*
X683769Y505969D01*
X683769Y497839D01*
X677380Y497839D01*
G37*
%LPD*%
%LPC*%
G36*
X677380Y383539D02*
X677380Y383539D01*
X675801Y383789D01*
X674280Y384284D01*
X672855Y385010D01*
X671561Y385950D01*
X670430Y387081D01*
X669490Y388375D01*
X668764Y389800D01*
X668269Y391321D01*
X668214Y391669D01*
X683769Y391669D01*
X683769Y383539D01*
X677380Y383539D01*
G37*
%LPD*%
%LPC*%
G36*
X573531Y408431D02*
X573531Y408431D01*
X573531Y421924D01*
X574167Y421797D01*
X575832Y421108D01*
X577330Y420107D01*
X578603Y418834D01*
X579604Y417336D01*
X580293Y415671D01*
X580645Y413905D01*
X580645Y408431D01*
X573531Y408431D01*
G37*
%LPD*%
%LPC*%
G36*
X319531Y408431D02*
X319531Y408431D01*
X319531Y421924D01*
X320167Y421797D01*
X321832Y421108D01*
X323330Y420107D01*
X324603Y418834D01*
X325604Y417336D01*
X326293Y415671D01*
X326645Y413905D01*
X326645Y408431D01*
X319531Y408431D01*
G37*
%LPD*%
%LPC*%
G36*
X573531Y332231D02*
X573531Y332231D01*
X573531Y345724D01*
X574167Y345597D01*
X575832Y344908D01*
X577330Y343907D01*
X578603Y342634D01*
X579604Y341136D01*
X580293Y339471D01*
X580645Y337705D01*
X580645Y332231D01*
X573531Y332231D01*
G37*
%LPD*%
%LPC*%
G36*
X573531Y328169D02*
X573531Y328169D01*
X580645Y328169D01*
X580645Y322695D01*
X580293Y320929D01*
X579604Y319264D01*
X578603Y317766D01*
X577330Y316493D01*
X575832Y315492D01*
X574167Y314803D01*
X573531Y314676D01*
X573531Y328169D01*
G37*
%LPD*%
%LPC*%
G36*
X573531Y404369D02*
X573531Y404369D01*
X580645Y404369D01*
X580645Y398895D01*
X580293Y397129D01*
X579604Y395464D01*
X578603Y393966D01*
X577330Y392693D01*
X575832Y391692D01*
X574167Y391003D01*
X573531Y390876D01*
X573531Y404369D01*
G37*
%LPD*%
%LPC*%
G36*
X319531Y404369D02*
X319531Y404369D01*
X326645Y404369D01*
X326645Y398895D01*
X326293Y397129D01*
X325604Y395464D01*
X324603Y393966D01*
X323330Y392693D01*
X321832Y391692D01*
X320167Y391003D01*
X319531Y390876D01*
X319531Y404369D01*
G37*
%LPD*%
%LPC*%
G36*
X562355Y332231D02*
X562355Y332231D01*
X562355Y337705D01*
X562707Y339471D01*
X563396Y341136D01*
X564397Y342634D01*
X565670Y343907D01*
X567168Y344908D01*
X568833Y345597D01*
X569469Y345724D01*
X569469Y332231D01*
X562355Y332231D01*
G37*
%LPD*%
%LPC*%
G36*
X562355Y408431D02*
X562355Y408431D01*
X562355Y413905D01*
X562707Y415671D01*
X563396Y417336D01*
X564397Y418834D01*
X565670Y420107D01*
X567168Y421108D01*
X568833Y421797D01*
X569469Y421924D01*
X569469Y408431D01*
X562355Y408431D01*
G37*
%LPD*%
%LPC*%
G36*
X308355Y408431D02*
X308355Y408431D01*
X308355Y413905D01*
X308707Y415671D01*
X309396Y417336D01*
X310397Y418834D01*
X311670Y420107D01*
X313168Y421108D01*
X314833Y421797D01*
X315469Y421924D01*
X315469Y408431D01*
X308355Y408431D01*
G37*
%LPD*%
%LPC*%
G36*
X568833Y314803D02*
X568833Y314803D01*
X567168Y315492D01*
X565670Y316493D01*
X564397Y317766D01*
X563396Y319264D01*
X562707Y320929D01*
X562355Y322695D01*
X562355Y328169D01*
X569469Y328169D01*
X569469Y314676D01*
X568833Y314803D01*
G37*
%LPD*%
%LPC*%
G36*
X314833Y391003D02*
X314833Y391003D01*
X313168Y391692D01*
X311670Y392693D01*
X310397Y393966D01*
X309396Y395464D01*
X308707Y397129D01*
X308355Y398895D01*
X308355Y404369D01*
X315469Y404369D01*
X315469Y390876D01*
X314833Y391003D01*
G37*
%LPD*%
%LPC*%
G36*
X568833Y391003D02*
X568833Y391003D01*
X567168Y391692D01*
X565670Y392693D01*
X564397Y393966D01*
X563396Y395464D01*
X562707Y397129D01*
X562355Y398895D01*
X562355Y404369D01*
X569469Y404369D01*
X569469Y390876D01*
X568833Y391003D01*
G37*
%LPD*%
%LPC*%
G36*
X141731Y269131D02*
X141731Y269131D01*
X141731Y278866D01*
X142496Y278745D01*
X144283Y278164D01*
X145957Y277311D01*
X147478Y276206D01*
X148806Y274878D01*
X149911Y273357D01*
X150764Y271683D01*
X151345Y269896D01*
X151397Y269564D01*
X151434Y269444D01*
X151467Y269323D01*
X151476Y269309D01*
X151481Y269292D01*
X151550Y269187D01*
X151583Y269131D01*
X141731Y269131D01*
G37*
%LPD*%
%LPC*%
G36*
X153213Y269131D02*
X153213Y269131D01*
X153222Y269144D01*
X153296Y269246D01*
X153301Y269261D01*
X153312Y269276D01*
X153400Y269546D01*
X153400Y269555D01*
X153403Y269564D01*
X153455Y269896D01*
X154036Y271683D01*
X154889Y273357D01*
X155994Y274878D01*
X157322Y276206D01*
X158843Y277311D01*
X160517Y278164D01*
X162304Y278745D01*
X163069Y278866D01*
X163069Y269131D01*
X153213Y269131D01*
G37*
%LPD*%
%LPC*%
G36*
X141731Y265069D02*
X141731Y265069D01*
X151587Y265069D01*
X151578Y265055D01*
X151504Y264954D01*
X151499Y264940D01*
X151489Y264924D01*
X151400Y264654D01*
X151400Y264645D01*
X151397Y264636D01*
X151345Y264304D01*
X150764Y262517D01*
X149911Y260843D01*
X148806Y259322D01*
X147478Y257994D01*
X145957Y256889D01*
X144283Y256036D01*
X142496Y255455D01*
X141731Y255334D01*
X141731Y265069D01*
G37*
%LPD*%
%LPC*%
G36*
X162304Y255455D02*
X162304Y255455D01*
X160517Y256036D01*
X158843Y256889D01*
X157322Y257994D01*
X155994Y259322D01*
X154889Y260843D01*
X154036Y262517D01*
X153455Y264304D01*
X153403Y264636D01*
X153366Y264756D01*
X153333Y264877D01*
X153324Y264891D01*
X153319Y264908D01*
X153251Y265013D01*
X153217Y265069D01*
X163069Y265069D01*
X163069Y255334D01*
X162304Y255455D01*
G37*
%LPD*%
%LPC*%
G36*
X281431Y243731D02*
X281431Y243731D01*
X281431Y253466D01*
X282196Y253345D01*
X283983Y252764D01*
X285657Y251911D01*
X287178Y250806D01*
X288506Y249478D01*
X289611Y247957D01*
X290464Y246283D01*
X291045Y244496D01*
X291166Y243731D01*
X281431Y243731D01*
G37*
%LPD*%
%LPC*%
G36*
X420731Y294131D02*
X420731Y294131D01*
X420731Y303866D01*
X421496Y303745D01*
X423283Y303164D01*
X424957Y302311D01*
X426478Y301206D01*
X427806Y299878D01*
X428911Y298357D01*
X429764Y296683D01*
X430345Y294896D01*
X430466Y294131D01*
X420731Y294131D01*
G37*
%LPD*%
%LPC*%
G36*
X167131Y269131D02*
X167131Y269131D01*
X167131Y278866D01*
X167896Y278745D01*
X169683Y278164D01*
X171357Y277311D01*
X172878Y276206D01*
X174206Y274878D01*
X175311Y273357D01*
X176164Y271683D01*
X176745Y269896D01*
X176866Y269131D01*
X167131Y269131D01*
G37*
%LPD*%
%LPC*%
G36*
X344931Y459631D02*
X344931Y459631D01*
X344931Y469366D01*
X345696Y469245D01*
X347483Y468664D01*
X349157Y467811D01*
X350678Y466706D01*
X352006Y465378D01*
X353111Y463857D01*
X353964Y462183D01*
X354545Y460396D01*
X354666Y459631D01*
X344931Y459631D01*
G37*
%LPD*%
%LPC*%
G36*
X331134Y459631D02*
X331134Y459631D01*
X331255Y460396D01*
X331836Y462183D01*
X332689Y463857D01*
X333794Y465378D01*
X335122Y466706D01*
X336643Y467811D01*
X338317Y468664D01*
X340104Y469245D01*
X340869Y469366D01*
X340869Y459631D01*
X331134Y459631D01*
G37*
%LPD*%
%LPC*%
G36*
X406934Y294131D02*
X406934Y294131D01*
X407055Y294896D01*
X407636Y296683D01*
X408489Y298357D01*
X409594Y299878D01*
X410922Y301206D01*
X412443Y302311D01*
X414117Y303164D01*
X415904Y303745D01*
X416669Y303866D01*
X416669Y294131D01*
X406934Y294131D01*
G37*
%LPD*%
%LPC*%
G36*
X420731Y290069D02*
X420731Y290069D01*
X430466Y290069D01*
X430345Y289304D01*
X429764Y287517D01*
X428911Y285843D01*
X427806Y284322D01*
X426478Y282994D01*
X424957Y281889D01*
X423283Y281036D01*
X421496Y280455D01*
X420731Y280334D01*
X420731Y290069D01*
G37*
%LPD*%
%LPC*%
G36*
X807031Y457969D02*
X807031Y457969D01*
X816766Y457969D01*
X816645Y457204D01*
X816064Y455417D01*
X815211Y453743D01*
X814106Y452222D01*
X812778Y450894D01*
X811257Y449789D01*
X809583Y448936D01*
X807796Y448355D01*
X807031Y448234D01*
X807031Y457969D01*
G37*
%LPD*%
%LPC*%
G36*
X807031Y362969D02*
X807031Y362969D01*
X816766Y362969D01*
X816645Y362204D01*
X816064Y360417D01*
X815211Y358743D01*
X814106Y357222D01*
X812778Y355894D01*
X811257Y354789D01*
X809583Y353936D01*
X807796Y353355D01*
X807031Y353234D01*
X807031Y362969D01*
G37*
%LPD*%
%LPC*%
G36*
X344931Y455569D02*
X344931Y455569D01*
X354666Y455569D01*
X354545Y454804D01*
X353964Y453017D01*
X353111Y451343D01*
X352006Y449822D01*
X350678Y448494D01*
X349157Y447389D01*
X347483Y446536D01*
X345696Y445955D01*
X344931Y445834D01*
X344931Y455569D01*
G37*
%LPD*%
%LPC*%
G36*
X167131Y265069D02*
X167131Y265069D01*
X176866Y265069D01*
X176745Y264304D01*
X176164Y262517D01*
X175311Y260843D01*
X174206Y259322D01*
X172878Y257994D01*
X171357Y256889D01*
X169683Y256036D01*
X167896Y255455D01*
X167131Y255334D01*
X167131Y265069D01*
G37*
%LPD*%
%LPC*%
G36*
X127934Y269131D02*
X127934Y269131D01*
X128055Y269896D01*
X128636Y271683D01*
X129489Y273357D01*
X130594Y274878D01*
X131922Y276206D01*
X133443Y277311D01*
X135117Y278164D01*
X136904Y278745D01*
X137669Y278866D01*
X137669Y269131D01*
X127934Y269131D01*
G37*
%LPD*%
%LPC*%
G36*
X267634Y243731D02*
X267634Y243731D01*
X267755Y244496D01*
X268336Y246283D01*
X269189Y247957D01*
X270294Y249478D01*
X271622Y250806D01*
X273143Y251911D01*
X274817Y252764D01*
X276604Y253345D01*
X277369Y253466D01*
X277369Y243731D01*
X267634Y243731D01*
G37*
%LPD*%
%LPC*%
G36*
X281431Y239669D02*
X281431Y239669D01*
X291166Y239669D01*
X291045Y238904D01*
X290464Y237117D01*
X289611Y235443D01*
X288506Y233922D01*
X287178Y232594D01*
X285657Y231489D01*
X283983Y230636D01*
X282196Y230055D01*
X281431Y229934D01*
X281431Y239669D01*
G37*
%LPD*%
%LPC*%
G36*
X340104Y445955D02*
X340104Y445955D01*
X338317Y446536D01*
X336643Y447389D01*
X335122Y448494D01*
X333794Y449822D01*
X332689Y451343D01*
X331836Y453017D01*
X331255Y454804D01*
X331134Y455569D01*
X340869Y455569D01*
X340869Y445834D01*
X340104Y445955D01*
G37*
%LPD*%
%LPC*%
G36*
X415904Y280455D02*
X415904Y280455D01*
X414117Y281036D01*
X412443Y281889D01*
X410922Y282994D01*
X409594Y284322D01*
X408489Y285843D01*
X407636Y287517D01*
X407055Y289304D01*
X406934Y290069D01*
X416669Y290069D01*
X416669Y280334D01*
X415904Y280455D01*
G37*
%LPD*%
%LPC*%
G36*
X802204Y448355D02*
X802204Y448355D01*
X800417Y448936D01*
X798743Y449789D01*
X797222Y450894D01*
X795894Y452222D01*
X794789Y453743D01*
X793936Y455417D01*
X793355Y457204D01*
X793234Y457969D01*
X802969Y457969D01*
X802969Y448234D01*
X802204Y448355D01*
G37*
%LPD*%
%LPC*%
G36*
X136904Y255455D02*
X136904Y255455D01*
X135117Y256036D01*
X133443Y256889D01*
X131922Y257994D01*
X130594Y259322D01*
X129489Y260843D01*
X128636Y262517D01*
X128055Y264304D01*
X127934Y265069D01*
X137669Y265069D01*
X137669Y255334D01*
X136904Y255455D01*
G37*
%LPD*%
%LPC*%
G36*
X276604Y230055D02*
X276604Y230055D01*
X274817Y230636D01*
X273143Y231489D01*
X271622Y232594D01*
X270294Y233922D01*
X269189Y235443D01*
X268336Y237117D01*
X267755Y238904D01*
X267634Y239669D01*
X277369Y239669D01*
X277369Y229934D01*
X276604Y230055D01*
G37*
%LPD*%
%LPC*%
G36*
X802204Y353355D02*
X802204Y353355D01*
X800417Y353936D01*
X798743Y354789D01*
X797222Y355894D01*
X795894Y357222D01*
X794789Y358743D01*
X793936Y360417D01*
X793355Y362204D01*
X793234Y362969D01*
X802969Y362969D01*
X802969Y353234D01*
X802204Y353355D01*
G37*
%LPD*%
%LPC*%
G36*
X535431Y243331D02*
X535431Y243331D01*
X535431Y252223D01*
X537924Y252223D01*
X544323Y245824D01*
X544323Y243331D01*
X535431Y243331D01*
G37*
%LPD*%
%LPC*%
G36*
X319531Y446531D02*
X319531Y446531D01*
X319531Y455423D01*
X322024Y455423D01*
X328423Y449024D01*
X328423Y446531D01*
X319531Y446531D01*
G37*
%LPD*%
%LPC*%
G36*
X611631Y154431D02*
X611631Y154431D01*
X611631Y163323D01*
X614124Y163323D01*
X620523Y156924D01*
X620523Y154431D01*
X611631Y154431D01*
G37*
%LPD*%
%LPC*%
G36*
X535431Y230377D02*
X535431Y230377D01*
X535431Y239269D01*
X544323Y239269D01*
X544323Y236776D01*
X537924Y230377D01*
X535431Y230377D01*
G37*
%LPD*%
%LPC*%
G36*
X319531Y433577D02*
X319531Y433577D01*
X319531Y442469D01*
X328423Y442469D01*
X328423Y439976D01*
X322024Y433577D01*
X319531Y433577D01*
G37*
%LPD*%
%LPC*%
G36*
X522477Y243331D02*
X522477Y243331D01*
X522477Y245824D01*
X528876Y252223D01*
X531369Y252223D01*
X531369Y243331D01*
X522477Y243331D01*
G37*
%LPD*%
%LPC*%
G36*
X306577Y446531D02*
X306577Y446531D01*
X306577Y449024D01*
X312976Y455423D01*
X315469Y455423D01*
X315469Y446531D01*
X306577Y446531D01*
G37*
%LPD*%
%LPC*%
G36*
X598677Y154431D02*
X598677Y154431D01*
X598677Y156924D01*
X605076Y163323D01*
X607569Y163323D01*
X607569Y154431D01*
X598677Y154431D01*
G37*
%LPD*%
%LPC*%
G36*
X611631Y141477D02*
X611631Y141477D01*
X611631Y150369D01*
X620523Y150369D01*
X620523Y147876D01*
X614124Y141477D01*
X611631Y141477D01*
G37*
%LPD*%
%LPC*%
G36*
X312976Y433577D02*
X312976Y433577D01*
X306577Y439976D01*
X306577Y442469D01*
X315469Y442469D01*
X315469Y433577D01*
X312976Y433577D01*
G37*
%LPD*%
%LPC*%
G36*
X528876Y230377D02*
X528876Y230377D01*
X522477Y236776D01*
X522477Y239269D01*
X531369Y239269D01*
X531369Y230377D01*
X528876Y230377D01*
G37*
%LPD*%
%LPC*%
G36*
X605076Y141477D02*
X605076Y141477D01*
X598677Y147876D01*
X598677Y150369D01*
X607569Y150369D01*
X607569Y141477D01*
X605076Y141477D01*
G37*
%LPD*%
%LPC*%
G36*
X317499Y406399D02*
X317499Y406399D01*
X317499Y406401D01*
X317501Y406401D01*
X317501Y406399D01*
X317499Y406399D01*
G37*
%LPD*%
%LPC*%
G36*
X571499Y406399D02*
X571499Y406399D01*
X571499Y406401D01*
X571501Y406401D01*
X571501Y406399D01*
X571499Y406399D01*
G37*
%LPD*%
%LPC*%
G36*
X279399Y241699D02*
X279399Y241699D01*
X279399Y241701D01*
X279401Y241701D01*
X279401Y241699D01*
X279399Y241699D01*
G37*
%LPD*%
%LPC*%
G36*
X533399Y241299D02*
X533399Y241299D01*
X533399Y241301D01*
X533401Y241301D01*
X533401Y241299D01*
X533399Y241299D01*
G37*
%LPD*%
%LPC*%
G36*
X317499Y444499D02*
X317499Y444499D01*
X317499Y444501D01*
X317501Y444501D01*
X317501Y444499D01*
X317499Y444499D01*
G37*
%LPD*%
%LPC*%
G36*
X139699Y267099D02*
X139699Y267099D01*
X139699Y267101D01*
X139701Y267101D01*
X139701Y267099D01*
X139699Y267099D01*
G37*
%LPD*%
%LPC*%
G36*
X685799Y507999D02*
X685799Y507999D01*
X685799Y508001D01*
X685801Y508001D01*
X685801Y507999D01*
X685799Y507999D01*
G37*
%LPD*%
%LPC*%
G36*
X165099Y267099D02*
X165099Y267099D01*
X165099Y267101D01*
X165101Y267101D01*
X165101Y267099D01*
X165099Y267099D01*
G37*
%LPD*%
%LPC*%
G36*
X685799Y393699D02*
X685799Y393699D01*
X685799Y393701D01*
X685801Y393701D01*
X685801Y393699D01*
X685799Y393699D01*
G37*
%LPD*%
%LPC*%
G36*
X571499Y330199D02*
X571499Y330199D01*
X571499Y330201D01*
X571501Y330201D01*
X571501Y330199D01*
X571499Y330199D01*
G37*
%LPD*%
%LPC*%
G36*
X609599Y152399D02*
X609599Y152399D01*
X609599Y152401D01*
X609601Y152401D01*
X609601Y152399D01*
X609599Y152399D01*
G37*
%LPD*%
%LPC*%
G36*
X418699Y292099D02*
X418699Y292099D01*
X418699Y292101D01*
X418701Y292101D01*
X418701Y292099D01*
X418699Y292099D01*
G37*
%LPD*%
%LPC*%
G36*
X342899Y457599D02*
X342899Y457599D01*
X342899Y457601D01*
X342901Y457601D01*
X342901Y457599D01*
X342899Y457599D01*
G37*
%LPD*%
D10*
X165500Y546100D03*
X215500Y546100D03*
X482600Y266300D03*
X482600Y216300D03*
X508000Y216300D03*
X508000Y266300D03*
X559200Y215900D03*
X609200Y215900D03*
X635400Y215900D03*
X685400Y215900D03*
X457600Y444500D03*
X507600Y444500D03*
X342900Y457600D03*
X342900Y507600D03*
X393300Y254000D03*
X343300Y254000D03*
X393300Y228600D03*
X343300Y228600D03*
X279400Y241700D03*
X279400Y291700D03*
X393300Y203200D03*
X343300Y203200D03*
X393300Y177800D03*
X343300Y177800D03*
X418700Y292100D03*
X368700Y292100D03*
D11*
X419100Y399796D02*
X419100Y413004D01*
X393700Y413004D02*
X393700Y399796D01*
X266700Y399796D02*
X266700Y413004D01*
X266700Y336804D02*
X266700Y323596D01*
X368300Y399796D02*
X368300Y413004D01*
X342900Y413004D02*
X342900Y399796D01*
X292100Y399796D02*
X292100Y413004D01*
X317500Y413004D02*
X317500Y399796D01*
X292100Y336804D02*
X292100Y323596D01*
X317500Y323596D02*
X317500Y336804D01*
X342900Y336804D02*
X342900Y323596D01*
X368300Y323596D02*
X368300Y336804D01*
X393700Y336804D02*
X393700Y323596D01*
X419100Y323596D02*
X419100Y336804D01*
X622300Y399796D02*
X622300Y413004D01*
X596900Y413004D02*
X596900Y399796D01*
X469900Y399796D02*
X469900Y413004D01*
X469900Y336804D02*
X469900Y323596D01*
X571500Y399796D02*
X571500Y413004D01*
X546100Y413004D02*
X546100Y399796D01*
X495300Y399796D02*
X495300Y413004D01*
X520700Y413004D02*
X520700Y399796D01*
X495300Y336804D02*
X495300Y323596D01*
X520700Y323596D02*
X520700Y336804D01*
X546100Y336804D02*
X546100Y323596D01*
X571500Y323596D02*
X571500Y336804D01*
X596900Y336804D02*
X596900Y323596D01*
X622300Y323596D02*
X622300Y336804D01*
D10*
X105000Y420000D03*
X805000Y460000D03*
X805000Y390000D03*
X805000Y365000D03*
X105000Y395000D03*
X105000Y370000D03*
X105000Y345000D03*
X105000Y320000D03*
X375000Y595000D03*
X425000Y595000D03*
X400000Y595000D03*
X805000Y485000D03*
D12*
X165100Y419100D03*
X165100Y520700D03*
X317500Y190500D03*
X317500Y292100D03*
X431800Y165100D03*
X431800Y266700D03*
D13*
X457200Y266700D03*
X457200Y165100D03*
X596900Y596900D03*
X596900Y495300D03*
D12*
X622300Y495300D03*
X622300Y596900D03*
D14*
X736600Y490220D02*
X736600Y474980D01*
X693420Y508000D02*
X678180Y508000D01*
X678180Y457200D02*
X693420Y457200D01*
D15*
X482600Y177800D03*
X584200Y177800D03*
D16*
X635000Y266700D03*
X533400Y266700D03*
D15*
X533400Y241300D03*
X635000Y241300D03*
D16*
X711200Y177800D03*
X609600Y177800D03*
D12*
X203200Y393700D03*
X203200Y495300D03*
D15*
X609600Y152400D03*
X711200Y152400D03*
X660400Y241300D03*
X762000Y241300D03*
D16*
X762000Y266700D03*
X660400Y266700D03*
D15*
X660400Y292100D03*
X762000Y292100D03*
D14*
X736600Y360680D02*
X736600Y375920D01*
X693420Y393700D02*
X678180Y393700D01*
X678180Y342900D02*
X693420Y342900D01*
D13*
X393700Y546100D03*
X393700Y444500D03*
X368300Y546100D03*
X368300Y444500D03*
X419100Y546100D03*
X419100Y444500D03*
D12*
X317500Y444500D03*
X317500Y546100D03*
D13*
X482600Y596900D03*
X482600Y495300D03*
D12*
X508000Y495300D03*
X508000Y596900D03*
D13*
X533400Y596900D03*
X533400Y495300D03*
D10*
X165100Y317100D03*
X165100Y267100D03*
X139700Y317100D03*
X139700Y267100D03*
D17*
X125000Y190000D03*
X112300Y583700D03*
X810800Y583700D03*
X798100Y177300D03*
D18*
X375000Y590900D02*
X375000Y595000D01*
X375000Y590900D02*
X355600Y571500D01*
X355600Y533400D01*
X419100Y469900D01*
X419100Y444500D01*
X292100Y469900D02*
X292100Y406400D01*
X292100Y469900D02*
X304800Y482600D01*
X381000Y482600D01*
D19*
X381000Y482600D03*
X431800Y482600D03*
D18*
X469900Y482600D01*
X482600Y495300D01*
X508000Y596900D02*
X533400Y596900D01*
X508000Y596900D02*
X495300Y609600D01*
X279400Y609600D01*
X266700Y596900D01*
X266700Y406400D01*
X482600Y279400D02*
X482600Y266300D01*
X482600Y279400D02*
X457200Y304800D01*
X457200Y368300D01*
X444500Y381000D01*
X279400Y381000D01*
X266700Y393700D01*
X266700Y406400D01*
X381000Y228600D02*
X393300Y228600D01*
X381000Y228600D02*
X368300Y215900D01*
X368300Y165100D01*
X355600Y152400D01*
X330200Y152400D01*
X317500Y165100D01*
X317500Y190500D01*
D19*
X584200Y381000D03*
D18*
X571500Y368300D01*
X482600Y368300D01*
D19*
X482600Y368300D03*
X444500Y368300D03*
D18*
X444500Y241300D01*
D19*
X444500Y241300D03*
D18*
X317100Y291700D02*
X279400Y291700D01*
X317100Y291700D02*
X317500Y292100D01*
D19*
X228600Y393700D03*
D18*
X228600Y241300D01*
X254000Y215900D01*
X330600Y215900D01*
X343300Y203200D01*
X368700Y292100D02*
X381000Y292100D01*
X406400Y266700D01*
X406400Y241300D01*
X457200Y190500D01*
X457200Y165100D01*
X508000Y266300D02*
X533000Y266300D01*
X533400Y266700D01*
D19*
X647700Y368300D03*
D18*
X495300Y406400D02*
X495300Y419100D01*
X482600Y431800D01*
X482600Y444500D01*
X495300Y457200D01*
X635000Y457200D01*
X647700Y444500D01*
X647700Y368300D01*
X584200Y203200D02*
X609600Y177800D01*
X584200Y203200D02*
X584200Y279400D01*
X571500Y292100D01*
X533400Y292100D01*
X520700Y304800D01*
X520700Y330200D01*
X736600Y266700D02*
X762000Y266700D01*
X736600Y266700D02*
X647700Y355600D01*
X508000Y355600D01*
X495300Y342900D01*
X495300Y330200D01*
X469900Y330200D01*
M02*
