G04 EAGLE Gerber RS-274X export*
G75*
%MOMM*%
%FSLAX34Y34*%
%LPD*%
%INSilkscreen Top*%
%IPPOS*%
%AMOC8*
5,1,8,0,0,1.08239X$1,22.5*%
G01*
%ADD10C,0.406400*%
%ADD11C,0.101600*%
%ADD12C,0.152400*%
%ADD13C,0.203200*%
%ADD14C,0.025400*%
%ADD15C,0.127000*%
%ADD16R,0.609600X0.863600*%
%ADD17R,0.863600X0.609600*%


D10*
X85000Y435000D02*
X85000Y305000D01*
X125000Y305000D01*
X125000Y435000D01*
X85000Y435000D01*
X355600Y571500D02*
X355600Y609600D01*
X355600Y571500D02*
X444500Y571500D01*
X444500Y609600D01*
X355600Y609600D01*
X787400Y508000D02*
X787400Y444500D01*
X825500Y444500D01*
X825500Y508000D01*
X787400Y508000D01*
X787400Y406400D02*
X825500Y406400D01*
X825500Y342900D01*
X787400Y342900D01*
X787400Y406400D01*
D11*
X124806Y411908D02*
X120908Y411908D01*
X122857Y411908D02*
X122857Y423602D01*
X120908Y423602D02*
X124806Y423602D01*
X128704Y423602D02*
X128704Y411908D01*
X136500Y411908D02*
X128704Y423602D01*
X136500Y423602D02*
X136500Y411908D01*
X152092Y417755D02*
X159888Y417755D01*
X124806Y386908D02*
X120908Y386908D01*
X122857Y386908D02*
X122857Y398602D01*
X120908Y398602D02*
X124806Y398602D01*
X128704Y398602D02*
X128704Y386908D01*
X136500Y386908D02*
X128704Y398602D01*
X136500Y398602D02*
X136500Y386908D01*
X152092Y392755D02*
X159888Y392755D01*
X155990Y396653D02*
X155990Y388857D01*
X128704Y371653D02*
X126755Y373602D01*
X122857Y373602D01*
X120908Y371653D01*
X120908Y363857D01*
X122857Y361908D01*
X126755Y361908D01*
X128704Y363857D01*
X128704Y367755D01*
X124806Y367755D01*
X132602Y361908D02*
X132602Y373602D01*
X140398Y361908D01*
X140398Y373602D01*
X144296Y373602D02*
X144296Y361908D01*
X150143Y361908D01*
X152092Y363857D01*
X152092Y371653D01*
X150143Y373602D01*
X144296Y373602D01*
X128704Y342755D02*
X120908Y342755D01*
X124806Y346653D02*
X124806Y338857D01*
X132602Y344704D02*
X136500Y348602D01*
X136500Y336908D01*
X132602Y336908D02*
X140398Y336908D01*
X144296Y348602D02*
X152092Y348602D01*
X144296Y348602D02*
X144296Y342755D01*
X148194Y344704D01*
X150143Y344704D01*
X152092Y342755D01*
X152092Y338857D01*
X150143Y336908D01*
X146245Y336908D01*
X144296Y338857D01*
X155990Y340806D02*
X155990Y348602D01*
X155990Y340806D02*
X159888Y336908D01*
X163786Y340806D01*
X163786Y348602D01*
X98704Y292755D02*
X90908Y292755D01*
X102602Y294704D02*
X106500Y298602D01*
X106500Y286908D01*
X102602Y286908D02*
X110398Y286908D01*
X114296Y298602D02*
X122092Y298602D01*
X114296Y298602D02*
X114296Y292755D01*
X118194Y294704D01*
X120143Y294704D01*
X122092Y292755D01*
X122092Y288857D01*
X120143Y286908D01*
X116245Y286908D01*
X114296Y288857D01*
X125990Y290806D02*
X125990Y298602D01*
X125990Y290806D02*
X129888Y286908D01*
X133786Y290806D01*
X133786Y298602D01*
X385908Y566908D02*
X385908Y578602D01*
X391755Y578602D01*
X393704Y576653D01*
X393704Y572755D01*
X391755Y570806D01*
X385908Y570806D01*
X399551Y578602D02*
X403449Y578602D01*
X399551Y578602D02*
X397602Y576653D01*
X397602Y568857D01*
X399551Y566908D01*
X403449Y566908D01*
X405398Y568857D01*
X405398Y576653D01*
X403449Y578602D01*
X413194Y578602D02*
X413194Y566908D01*
X409296Y578602D02*
X417092Y578602D01*
D12*
X648462Y587502D02*
X653885Y587502D01*
X651174Y587502D02*
X651174Y603772D01*
X653885Y603772D02*
X648462Y603772D01*
X659376Y603772D02*
X662088Y603772D01*
X662088Y587502D01*
X659376Y587502D02*
X664800Y587502D01*
X670291Y590214D02*
X670291Y598349D01*
X670291Y590214D02*
X673002Y587502D01*
X681137Y587502D01*
X681137Y598349D01*
X686662Y598349D02*
X686662Y587502D01*
X686662Y598349D02*
X689374Y598349D01*
X692086Y595637D01*
X692086Y587502D01*
X692086Y595637D02*
X694797Y598349D01*
X697509Y595637D01*
X697509Y587502D01*
X703034Y598349D02*
X705746Y598349D01*
X705746Y587502D01*
X708457Y587502D02*
X703034Y587502D01*
X705746Y603772D02*
X705746Y606484D01*
X713948Y598349D02*
X713948Y587502D01*
X713948Y598349D02*
X722083Y598349D01*
X724795Y595637D01*
X724795Y587502D01*
X733031Y598349D02*
X738455Y598349D01*
X741166Y595637D01*
X741166Y587502D01*
X733031Y587502D01*
X730320Y590214D01*
X733031Y592925D01*
X741166Y592925D01*
X746691Y587502D02*
X754826Y587502D01*
X757538Y590214D01*
X754826Y592925D01*
X749403Y592925D01*
X746691Y595637D01*
X749403Y598349D01*
X757538Y598349D01*
X765775Y587502D02*
X771198Y587502D01*
X773910Y590214D01*
X773910Y595637D01*
X771198Y598349D01*
X765775Y598349D01*
X763063Y595637D01*
X763063Y590214D01*
X765775Y587502D01*
X779435Y587502D02*
X779435Y598349D01*
X782146Y598349D01*
X784858Y595637D01*
X784858Y587502D01*
X784858Y595637D02*
X787569Y598349D01*
X790281Y595637D01*
X790281Y587502D01*
X659309Y547720D02*
X656597Y550432D01*
X651174Y550432D01*
X648462Y547720D01*
X648462Y536874D01*
X651174Y534162D01*
X656597Y534162D01*
X659309Y536874D01*
X664834Y534162D02*
X664834Y545009D01*
X670257Y545009D02*
X664834Y539585D01*
X670257Y545009D02*
X672969Y545009D01*
X681188Y534162D02*
X686611Y534162D01*
X689323Y536874D01*
X689323Y542297D01*
X686611Y545009D01*
X681188Y545009D01*
X678477Y542297D01*
X678477Y536874D01*
X681188Y534162D01*
X694848Y534162D02*
X702983Y534162D01*
X705695Y536874D01*
X702983Y539585D01*
X697560Y539585D01*
X694848Y542297D01*
X697560Y545009D01*
X705695Y545009D01*
X711220Y534162D02*
X719355Y534162D01*
X722066Y536874D01*
X719355Y539585D01*
X713931Y539585D01*
X711220Y542297D01*
X713931Y545009D01*
X722066Y545009D01*
X730303Y550432D02*
X735726Y550432D01*
X730303Y550432D02*
X727591Y547720D01*
X727591Y536874D01*
X730303Y534162D01*
X735726Y534162D01*
X738438Y536874D01*
X738438Y547720D01*
X735726Y550432D01*
X743963Y545009D02*
X749386Y534162D01*
X754809Y545009D01*
X763046Y534162D02*
X768469Y534162D01*
X763046Y534162D02*
X760334Y536874D01*
X760334Y542297D01*
X763046Y545009D01*
X768469Y545009D01*
X771181Y542297D01*
X771181Y539585D01*
X760334Y539585D01*
X776706Y534162D02*
X776706Y545009D01*
X782129Y545009D02*
X776706Y539585D01*
X782129Y545009D02*
X784841Y545009D01*
X806720Y547720D02*
X806720Y536874D01*
X806720Y547720D02*
X809432Y550432D01*
X814855Y550432D01*
X817567Y547720D01*
X817567Y536874D01*
X814855Y534162D01*
X809432Y534162D01*
X806720Y536874D01*
X817567Y547720D01*
X823092Y545009D02*
X828515Y550432D01*
X828515Y534162D01*
X823092Y534162D02*
X833939Y534162D01*
D13*
X201900Y553720D02*
X179100Y553720D01*
X201900Y553720D02*
X201900Y546100D01*
X201900Y538480D01*
X179100Y538480D01*
X179100Y546100D01*
X179100Y553720D01*
X201900Y546100D02*
X204440Y546100D01*
X179100Y546100D02*
X176560Y546100D01*
D14*
X167726Y561051D02*
X167102Y561676D01*
X165852Y561676D01*
X165227Y561051D01*
X165227Y558552D01*
X165852Y557927D01*
X167102Y557927D01*
X167726Y558552D01*
X168910Y560426D02*
X170160Y561676D01*
X170160Y557927D01*
X168910Y557927D02*
X171410Y557927D01*
D13*
X490220Y252700D02*
X490220Y229900D01*
X482600Y229900D01*
X474980Y229900D01*
X474980Y252700D01*
X482600Y252700D01*
X490220Y252700D01*
X482600Y229900D02*
X482600Y227360D01*
X482600Y252700D02*
X482600Y255240D01*
D14*
X494424Y257652D02*
X495049Y258277D01*
X494424Y257652D02*
X494424Y256402D01*
X495049Y255778D01*
X497548Y255778D01*
X498173Y256402D01*
X498173Y257652D01*
X497548Y258277D01*
X495674Y259461D02*
X494424Y260710D01*
X498173Y260710D01*
X498173Y259461D02*
X498173Y261960D01*
X497548Y263144D02*
X495049Y263144D01*
X494424Y263769D01*
X494424Y265018D01*
X495049Y265643D01*
X497548Y265643D01*
X498173Y265018D01*
X498173Y263769D01*
X497548Y263144D01*
X495049Y265643D01*
D13*
X500380Y252700D02*
X500380Y229900D01*
X500380Y252700D02*
X508000Y252700D01*
X515620Y252700D01*
X515620Y229900D01*
X508000Y229900D01*
X500380Y229900D01*
X508000Y252700D02*
X508000Y255240D01*
X508000Y229900D02*
X508000Y227360D01*
D14*
X493049Y218526D02*
X492424Y217902D01*
X492424Y216652D01*
X493049Y216027D01*
X495548Y216027D01*
X496173Y216652D01*
X496173Y217902D01*
X495548Y218526D01*
X493674Y219710D02*
X492424Y220960D01*
X496173Y220960D01*
X496173Y219710D02*
X496173Y222210D01*
X493674Y223393D02*
X492424Y224643D01*
X496173Y224643D01*
X496173Y223393D02*
X496173Y225893D01*
D13*
X572800Y223520D02*
X595600Y223520D01*
X595600Y215900D01*
X595600Y208280D01*
X572800Y208280D01*
X572800Y215900D01*
X572800Y223520D01*
X595600Y215900D02*
X598140Y215900D01*
X572800Y215900D02*
X570260Y215900D01*
D14*
X561426Y230851D02*
X560802Y231476D01*
X559552Y231476D01*
X558927Y230851D01*
X558927Y228352D01*
X559552Y227727D01*
X560802Y227727D01*
X561426Y228352D01*
X562610Y230226D02*
X563860Y231476D01*
X563860Y227727D01*
X562610Y227727D02*
X565110Y227727D01*
X566293Y227727D02*
X568793Y227727D01*
X568793Y230226D02*
X566293Y227727D01*
X568793Y230226D02*
X568793Y230851D01*
X568168Y231476D01*
X566918Y231476D01*
X566293Y230851D01*
D13*
X649000Y223520D02*
X671800Y223520D01*
X671800Y215900D01*
X671800Y208280D01*
X649000Y208280D01*
X649000Y215900D01*
X649000Y223520D01*
X671800Y215900D02*
X674340Y215900D01*
X649000Y215900D02*
X646460Y215900D01*
D14*
X637626Y230851D02*
X637002Y231476D01*
X635752Y231476D01*
X635127Y230851D01*
X635127Y228352D01*
X635752Y227727D01*
X637002Y227727D01*
X637626Y228352D01*
X638810Y230226D02*
X640060Y231476D01*
X640060Y227727D01*
X638810Y227727D02*
X641310Y227727D01*
X642493Y230851D02*
X643118Y231476D01*
X644368Y231476D01*
X644993Y230851D01*
X644993Y230226D01*
X644368Y229602D01*
X643743Y229602D01*
X644368Y229602D02*
X644993Y228977D01*
X644993Y228352D01*
X644368Y227727D01*
X643118Y227727D01*
X642493Y228352D01*
D13*
X494000Y452120D02*
X471200Y452120D01*
X494000Y452120D02*
X494000Y444500D01*
X494000Y436880D01*
X471200Y436880D01*
X471200Y444500D01*
X471200Y452120D01*
X494000Y444500D02*
X496540Y444500D01*
X471200Y444500D02*
X468660Y444500D01*
D14*
X459826Y459451D02*
X459202Y460076D01*
X457952Y460076D01*
X457327Y459451D01*
X457327Y456952D01*
X457952Y456327D01*
X459202Y456327D01*
X459826Y456952D01*
X461010Y456327D02*
X463510Y456327D01*
X463510Y458826D02*
X461010Y456327D01*
X463510Y458826D02*
X463510Y459451D01*
X462885Y460076D01*
X461635Y460076D01*
X461010Y459451D01*
D13*
X335280Y471200D02*
X335280Y494000D01*
X342900Y494000D01*
X350520Y494000D01*
X350520Y471200D01*
X342900Y471200D01*
X335280Y471200D01*
X342900Y494000D02*
X342900Y496540D01*
X342900Y471200D02*
X342900Y468660D01*
D14*
X327949Y459826D02*
X327324Y459202D01*
X327324Y457952D01*
X327949Y457327D01*
X330448Y457327D01*
X331073Y457952D01*
X331073Y459202D01*
X330448Y459826D01*
X327949Y461010D02*
X327324Y461635D01*
X327324Y462885D01*
X327949Y463510D01*
X328574Y463510D01*
X329198Y462885D01*
X329198Y462260D01*
X329198Y462885D02*
X329823Y463510D01*
X330448Y463510D01*
X331073Y462885D01*
X331073Y461635D01*
X330448Y461010D01*
D13*
X356900Y246380D02*
X379700Y246380D01*
X356900Y246380D02*
X356900Y254000D01*
X356900Y261620D01*
X379700Y261620D01*
X379700Y254000D01*
X379700Y246380D01*
X356900Y254000D02*
X354360Y254000D01*
X379700Y254000D02*
X382240Y254000D01*
D14*
X388335Y242176D02*
X388960Y241551D01*
X388335Y242176D02*
X387086Y242176D01*
X386461Y241551D01*
X386461Y239052D01*
X387086Y238427D01*
X388335Y238427D01*
X388960Y239052D01*
X392018Y238427D02*
X392018Y242176D01*
X390144Y240302D01*
X392643Y240302D01*
D13*
X379700Y220980D02*
X356900Y220980D01*
X356900Y228600D01*
X356900Y236220D01*
X379700Y236220D01*
X379700Y228600D01*
X379700Y220980D01*
X356900Y228600D02*
X354360Y228600D01*
X379700Y228600D02*
X382240Y228600D01*
D14*
X388335Y216776D02*
X388960Y216151D01*
X388335Y216776D02*
X387086Y216776D01*
X386461Y216151D01*
X386461Y213652D01*
X387086Y213027D01*
X388335Y213027D01*
X388960Y213652D01*
X390144Y216776D02*
X392643Y216776D01*
X390144Y216776D02*
X390144Y214902D01*
X391394Y215526D01*
X392018Y215526D01*
X392643Y214902D01*
X392643Y213652D01*
X392018Y213027D01*
X390769Y213027D01*
X390144Y213652D01*
D13*
X271780Y255300D02*
X271780Y278100D01*
X279400Y278100D01*
X287020Y278100D01*
X287020Y255300D01*
X279400Y255300D01*
X271780Y255300D01*
X279400Y278100D02*
X279400Y280640D01*
X279400Y255300D02*
X279400Y252760D01*
D14*
X264449Y243926D02*
X263824Y243302D01*
X263824Y242052D01*
X264449Y241427D01*
X266948Y241427D01*
X267573Y242052D01*
X267573Y243302D01*
X266948Y243926D01*
X264449Y246360D02*
X263824Y247610D01*
X264449Y246360D02*
X265698Y245110D01*
X266948Y245110D01*
X267573Y245735D01*
X267573Y246985D01*
X266948Y247610D01*
X266323Y247610D01*
X265698Y246985D01*
X265698Y245110D01*
D13*
X356900Y195580D02*
X379700Y195580D01*
X356900Y195580D02*
X356900Y203200D01*
X356900Y210820D01*
X379700Y210820D01*
X379700Y203200D01*
X379700Y195580D01*
X356900Y203200D02*
X354360Y203200D01*
X379700Y203200D02*
X382240Y203200D01*
D14*
X388335Y191376D02*
X388960Y190751D01*
X388335Y191376D02*
X387086Y191376D01*
X386461Y190751D01*
X386461Y188252D01*
X387086Y187627D01*
X388335Y187627D01*
X388960Y188252D01*
X390144Y191376D02*
X392643Y191376D01*
X392643Y190751D01*
X390144Y188252D01*
X390144Y187627D01*
D13*
X379700Y170180D02*
X356900Y170180D01*
X356900Y177800D01*
X356900Y185420D01*
X379700Y185420D01*
X379700Y177800D01*
X379700Y170180D01*
X356900Y177800D02*
X354360Y177800D01*
X379700Y177800D02*
X382240Y177800D01*
D14*
X388335Y165976D02*
X388960Y165351D01*
X388335Y165976D02*
X387086Y165976D01*
X386461Y165351D01*
X386461Y162852D01*
X387086Y162227D01*
X388335Y162227D01*
X388960Y162852D01*
X390144Y165351D02*
X390769Y165976D01*
X392018Y165976D01*
X392643Y165351D01*
X392643Y164726D01*
X392018Y164102D01*
X392643Y163477D01*
X392643Y162852D01*
X392018Y162227D01*
X390769Y162227D01*
X390144Y162852D01*
X390144Y163477D01*
X390769Y164102D01*
X390144Y164726D01*
X390144Y165351D01*
X390769Y164102D02*
X392018Y164102D01*
D13*
X382300Y284480D02*
X405100Y284480D01*
X382300Y284480D02*
X382300Y292100D01*
X382300Y299720D01*
X405100Y299720D01*
X405100Y292100D01*
X405100Y284480D01*
X382300Y292100D02*
X379760Y292100D01*
X405100Y292100D02*
X407640Y292100D01*
D14*
X413735Y280276D02*
X414360Y279651D01*
X413735Y280276D02*
X412486Y280276D01*
X411861Y279651D01*
X411861Y277152D01*
X412486Y276527D01*
X413735Y276527D01*
X414360Y277152D01*
X415544Y277152D02*
X416169Y276527D01*
X417418Y276527D01*
X418043Y277152D01*
X418043Y279651D01*
X417418Y280276D01*
X416169Y280276D01*
X415544Y279651D01*
X415544Y279026D01*
X416169Y278402D01*
X418043Y278402D01*
D12*
X431800Y339090D02*
X254000Y339090D01*
X254000Y397510D02*
X431800Y397510D01*
X254000Y397510D02*
X254000Y339090D01*
X431800Y339090D02*
X431800Y358140D01*
X431800Y378460D02*
X431800Y397510D01*
X431800Y378460D02*
X431553Y378457D01*
X431305Y378448D01*
X431058Y378433D01*
X430812Y378412D01*
X430566Y378385D01*
X430321Y378352D01*
X430076Y378313D01*
X429833Y378268D01*
X429591Y378217D01*
X429350Y378160D01*
X429111Y378098D01*
X428873Y378029D01*
X428637Y377955D01*
X428403Y377875D01*
X428171Y377790D01*
X427941Y377698D01*
X427713Y377602D01*
X427488Y377499D01*
X427265Y377392D01*
X427045Y377278D01*
X426828Y377160D01*
X426613Y377036D01*
X426402Y376907D01*
X426194Y376773D01*
X425989Y376634D01*
X425788Y376490D01*
X425590Y376342D01*
X425396Y376188D01*
X425206Y376030D01*
X425020Y375867D01*
X424838Y375700D01*
X424660Y375528D01*
X424486Y375352D01*
X424316Y375172D01*
X424151Y374987D01*
X423991Y374799D01*
X423835Y374607D01*
X423683Y374411D01*
X423537Y374212D01*
X423395Y374009D01*
X423259Y373802D01*
X423127Y373593D01*
X423001Y373380D01*
X422880Y373164D01*
X422764Y372946D01*
X422654Y372724D01*
X422549Y372500D01*
X422449Y372274D01*
X422355Y372045D01*
X422267Y371814D01*
X422184Y371580D01*
X422107Y371345D01*
X422036Y371108D01*
X421970Y370870D01*
X421911Y370630D01*
X421857Y370388D01*
X421809Y370145D01*
X421767Y369902D01*
X421731Y369657D01*
X421701Y369411D01*
X421677Y369165D01*
X421659Y368918D01*
X421647Y368671D01*
X421641Y368424D01*
X421641Y368176D01*
X421647Y367929D01*
X421659Y367682D01*
X421677Y367435D01*
X421701Y367189D01*
X421731Y366943D01*
X421767Y366698D01*
X421809Y366455D01*
X421857Y366212D01*
X421911Y365970D01*
X421970Y365730D01*
X422036Y365492D01*
X422107Y365255D01*
X422184Y365020D01*
X422267Y364786D01*
X422355Y364555D01*
X422449Y364326D01*
X422549Y364100D01*
X422654Y363876D01*
X422764Y363654D01*
X422880Y363436D01*
X423001Y363220D01*
X423127Y363007D01*
X423259Y362798D01*
X423395Y362591D01*
X423537Y362388D01*
X423683Y362189D01*
X423835Y361993D01*
X423991Y361801D01*
X424151Y361613D01*
X424316Y361428D01*
X424486Y361248D01*
X424660Y361072D01*
X424838Y360900D01*
X425020Y360733D01*
X425206Y360570D01*
X425396Y360412D01*
X425590Y360258D01*
X425788Y360110D01*
X425989Y359966D01*
X426194Y359827D01*
X426402Y359693D01*
X426613Y359564D01*
X426828Y359440D01*
X427045Y359322D01*
X427265Y359208D01*
X427488Y359101D01*
X427713Y358998D01*
X427941Y358902D01*
X428171Y358810D01*
X428403Y358725D01*
X428637Y358645D01*
X428873Y358571D01*
X429111Y358502D01*
X429350Y358440D01*
X429591Y358383D01*
X429833Y358332D01*
X430076Y358287D01*
X430321Y358248D01*
X430566Y358215D01*
X430812Y358188D01*
X431058Y358167D01*
X431305Y358152D01*
X431553Y358143D01*
X431800Y358140D01*
D15*
X447675Y368231D02*
X447675Y372044D01*
X447675Y370138D02*
X436235Y370138D01*
X436235Y372044D02*
X436235Y368231D01*
X436235Y381747D02*
X438142Y383654D01*
X436235Y381747D02*
X436235Y377934D01*
X438142Y376027D01*
X445768Y376027D01*
X447675Y377934D01*
X447675Y381747D01*
X445768Y383654D01*
X440049Y387721D02*
X436235Y391534D01*
X447675Y391534D01*
X447675Y387721D02*
X447675Y395347D01*
X344494Y374025D02*
X344494Y362585D01*
X340681Y374025D02*
X348308Y374025D01*
X352375Y374025D02*
X352375Y362585D01*
X360002Y362585D01*
X364069Y364492D02*
X364069Y372118D01*
X365976Y374025D01*
X369789Y374025D01*
X371695Y372118D01*
X371695Y364492D01*
X369789Y362585D01*
X365976Y362585D01*
X364069Y364492D01*
X371695Y372118D01*
X375763Y374025D02*
X383389Y374025D01*
X383389Y372118D01*
X375763Y364492D01*
X375763Y362585D01*
X393177Y362585D02*
X393177Y374025D01*
X387457Y368305D01*
X395083Y368305D01*
X399151Y362585D02*
X399151Y374025D01*
X404871Y374025D01*
X406777Y372118D01*
X406777Y368305D01*
X404871Y366398D01*
X399151Y366398D01*
D12*
X457200Y339090D02*
X635000Y339090D01*
X635000Y397510D02*
X457200Y397510D01*
X457200Y339090D01*
X635000Y339090D02*
X635000Y358140D01*
X635000Y378460D02*
X635000Y397510D01*
X635000Y378460D02*
X634753Y378457D01*
X634505Y378448D01*
X634258Y378433D01*
X634012Y378412D01*
X633766Y378385D01*
X633521Y378352D01*
X633276Y378313D01*
X633033Y378268D01*
X632791Y378217D01*
X632550Y378160D01*
X632311Y378098D01*
X632073Y378029D01*
X631837Y377955D01*
X631603Y377875D01*
X631371Y377790D01*
X631141Y377698D01*
X630913Y377602D01*
X630688Y377499D01*
X630465Y377392D01*
X630245Y377278D01*
X630028Y377160D01*
X629813Y377036D01*
X629602Y376907D01*
X629394Y376773D01*
X629189Y376634D01*
X628988Y376490D01*
X628790Y376342D01*
X628596Y376188D01*
X628406Y376030D01*
X628220Y375867D01*
X628038Y375700D01*
X627860Y375528D01*
X627686Y375352D01*
X627516Y375172D01*
X627351Y374987D01*
X627191Y374799D01*
X627035Y374607D01*
X626883Y374411D01*
X626737Y374212D01*
X626595Y374009D01*
X626459Y373802D01*
X626327Y373593D01*
X626201Y373380D01*
X626080Y373164D01*
X625964Y372946D01*
X625854Y372724D01*
X625749Y372500D01*
X625649Y372274D01*
X625555Y372045D01*
X625467Y371814D01*
X625384Y371580D01*
X625307Y371345D01*
X625236Y371108D01*
X625170Y370870D01*
X625111Y370630D01*
X625057Y370388D01*
X625009Y370145D01*
X624967Y369902D01*
X624931Y369657D01*
X624901Y369411D01*
X624877Y369165D01*
X624859Y368918D01*
X624847Y368671D01*
X624841Y368424D01*
X624841Y368176D01*
X624847Y367929D01*
X624859Y367682D01*
X624877Y367435D01*
X624901Y367189D01*
X624931Y366943D01*
X624967Y366698D01*
X625009Y366455D01*
X625057Y366212D01*
X625111Y365970D01*
X625170Y365730D01*
X625236Y365492D01*
X625307Y365255D01*
X625384Y365020D01*
X625467Y364786D01*
X625555Y364555D01*
X625649Y364326D01*
X625749Y364100D01*
X625854Y363876D01*
X625964Y363654D01*
X626080Y363436D01*
X626201Y363220D01*
X626327Y363007D01*
X626459Y362798D01*
X626595Y362591D01*
X626737Y362388D01*
X626883Y362189D01*
X627035Y361993D01*
X627191Y361801D01*
X627351Y361613D01*
X627516Y361428D01*
X627686Y361248D01*
X627860Y361072D01*
X628038Y360900D01*
X628220Y360733D01*
X628406Y360570D01*
X628596Y360412D01*
X628790Y360258D01*
X628988Y360110D01*
X629189Y359966D01*
X629394Y359827D01*
X629602Y359693D01*
X629813Y359564D01*
X630028Y359440D01*
X630245Y359322D01*
X630465Y359208D01*
X630688Y359101D01*
X630913Y358998D01*
X631141Y358902D01*
X631371Y358810D01*
X631603Y358725D01*
X631837Y358645D01*
X632073Y358571D01*
X632311Y358502D01*
X632550Y358440D01*
X632791Y358383D01*
X633033Y358332D01*
X633276Y358287D01*
X633521Y358248D01*
X633766Y358215D01*
X634012Y358188D01*
X634258Y358167D01*
X634505Y358152D01*
X634753Y358143D01*
X635000Y358140D01*
D15*
X650875Y368231D02*
X650875Y372044D01*
X650875Y370138D02*
X639435Y370138D01*
X639435Y372044D02*
X639435Y368231D01*
X639435Y381747D02*
X641342Y383654D01*
X639435Y381747D02*
X639435Y377934D01*
X641342Y376027D01*
X648968Y376027D01*
X650875Y377934D01*
X650875Y381747D01*
X648968Y383654D01*
X650875Y387721D02*
X650875Y395347D01*
X650875Y387721D02*
X643249Y395347D01*
X641342Y395347D01*
X639435Y393441D01*
X639435Y389628D01*
X641342Y387721D01*
X547694Y374025D02*
X547694Y362585D01*
X543881Y374025D02*
X551508Y374025D01*
X555575Y374025D02*
X555575Y362585D01*
X563202Y362585D01*
X567269Y364492D02*
X567269Y372118D01*
X569176Y374025D01*
X572989Y374025D01*
X574895Y372118D01*
X574895Y364492D01*
X572989Y362585D01*
X569176Y362585D01*
X567269Y364492D01*
X574895Y372118D01*
X578963Y374025D02*
X586589Y374025D01*
X586589Y372118D01*
X578963Y364492D01*
X578963Y362585D01*
X596377Y362585D02*
X596377Y374025D01*
X590657Y368305D01*
X598283Y368305D01*
X602351Y362585D02*
X602351Y374025D01*
X608071Y374025D01*
X609977Y372118D01*
X609977Y368305D01*
X608071Y366398D01*
X602351Y366398D01*
D12*
X156210Y438150D02*
X156110Y438152D01*
X156011Y438158D01*
X155911Y438168D01*
X155813Y438181D01*
X155714Y438199D01*
X155617Y438220D01*
X155521Y438245D01*
X155425Y438274D01*
X155331Y438307D01*
X155238Y438343D01*
X155147Y438383D01*
X155057Y438427D01*
X154969Y438474D01*
X154883Y438524D01*
X154799Y438578D01*
X154717Y438635D01*
X154638Y438695D01*
X154560Y438759D01*
X154486Y438825D01*
X154414Y438894D01*
X154345Y438966D01*
X154279Y439040D01*
X154215Y439118D01*
X154155Y439197D01*
X154098Y439279D01*
X154044Y439363D01*
X153994Y439449D01*
X153947Y439537D01*
X153903Y439627D01*
X153863Y439718D01*
X153827Y439811D01*
X153794Y439905D01*
X153765Y440001D01*
X153740Y440097D01*
X153719Y440194D01*
X153701Y440293D01*
X153688Y440391D01*
X153678Y440491D01*
X153672Y440590D01*
X153670Y440690D01*
X173990Y438150D02*
X174090Y438152D01*
X174189Y438158D01*
X174289Y438168D01*
X174387Y438181D01*
X174486Y438199D01*
X174583Y438220D01*
X174679Y438245D01*
X174775Y438274D01*
X174869Y438307D01*
X174962Y438343D01*
X175053Y438383D01*
X175143Y438427D01*
X175231Y438474D01*
X175317Y438524D01*
X175401Y438578D01*
X175483Y438635D01*
X175562Y438695D01*
X175640Y438759D01*
X175714Y438825D01*
X175786Y438894D01*
X175855Y438966D01*
X175921Y439040D01*
X175985Y439118D01*
X176045Y439197D01*
X176102Y439279D01*
X176156Y439363D01*
X176206Y439449D01*
X176253Y439537D01*
X176297Y439627D01*
X176337Y439718D01*
X176373Y439811D01*
X176406Y439905D01*
X176435Y440001D01*
X176460Y440097D01*
X176481Y440194D01*
X176499Y440293D01*
X176512Y440391D01*
X176522Y440491D01*
X176528Y440590D01*
X176530Y440690D01*
X176530Y499110D02*
X176528Y499210D01*
X176522Y499309D01*
X176512Y499409D01*
X176499Y499507D01*
X176481Y499606D01*
X176460Y499703D01*
X176435Y499799D01*
X176406Y499895D01*
X176373Y499989D01*
X176337Y500082D01*
X176297Y500173D01*
X176253Y500263D01*
X176206Y500351D01*
X176156Y500437D01*
X176102Y500521D01*
X176045Y500603D01*
X175985Y500682D01*
X175921Y500760D01*
X175855Y500834D01*
X175786Y500906D01*
X175714Y500975D01*
X175640Y501041D01*
X175562Y501105D01*
X175483Y501165D01*
X175401Y501222D01*
X175317Y501276D01*
X175231Y501326D01*
X175143Y501373D01*
X175053Y501417D01*
X174962Y501457D01*
X174869Y501493D01*
X174775Y501526D01*
X174679Y501555D01*
X174583Y501580D01*
X174486Y501601D01*
X174387Y501619D01*
X174289Y501632D01*
X174189Y501642D01*
X174090Y501648D01*
X173990Y501650D01*
X156210Y501650D02*
X156110Y501648D01*
X156011Y501642D01*
X155911Y501632D01*
X155813Y501619D01*
X155714Y501601D01*
X155617Y501580D01*
X155521Y501555D01*
X155425Y501526D01*
X155331Y501493D01*
X155238Y501457D01*
X155147Y501417D01*
X155057Y501373D01*
X154969Y501326D01*
X154883Y501276D01*
X154799Y501222D01*
X154717Y501165D01*
X154638Y501105D01*
X154560Y501041D01*
X154486Y500975D01*
X154414Y500906D01*
X154345Y500834D01*
X154279Y500760D01*
X154215Y500682D01*
X154155Y500603D01*
X154098Y500521D01*
X154044Y500437D01*
X153994Y500351D01*
X153947Y500263D01*
X153903Y500173D01*
X153863Y500082D01*
X153827Y499989D01*
X153794Y499895D01*
X153765Y499799D01*
X153740Y499703D01*
X153719Y499606D01*
X153701Y499507D01*
X153688Y499409D01*
X153678Y499309D01*
X153672Y499210D01*
X153670Y499110D01*
X156210Y438150D02*
X173990Y438150D01*
X153670Y440690D02*
X153670Y444500D01*
X154940Y445770D01*
X176530Y444500D02*
X176530Y440690D01*
X176530Y444500D02*
X175260Y445770D01*
X154940Y494030D02*
X153670Y495300D01*
X154940Y494030D02*
X154940Y445770D01*
X175260Y494030D02*
X176530Y495300D01*
X175260Y494030D02*
X175260Y445770D01*
X153670Y495300D02*
X153670Y499110D01*
X176530Y499110D02*
X176530Y495300D01*
X173990Y501650D02*
X156210Y501650D01*
D16*
X165100Y505968D03*
X165100Y433832D03*
D15*
X163185Y452755D02*
X174625Y452755D01*
X163185Y452755D02*
X163185Y458475D01*
X165092Y460382D01*
X168905Y460382D01*
X170812Y458475D01*
X170812Y452755D01*
X170812Y456568D02*
X174625Y460382D01*
X166999Y464449D02*
X163185Y468262D01*
X174625Y468262D01*
X174625Y464449D02*
X174625Y472075D01*
D12*
X306070Y212090D02*
X306072Y211990D01*
X306078Y211891D01*
X306088Y211791D01*
X306101Y211693D01*
X306119Y211594D01*
X306140Y211497D01*
X306165Y211401D01*
X306194Y211305D01*
X306227Y211211D01*
X306263Y211118D01*
X306303Y211027D01*
X306347Y210937D01*
X306394Y210849D01*
X306444Y210763D01*
X306498Y210679D01*
X306555Y210597D01*
X306615Y210518D01*
X306679Y210440D01*
X306745Y210366D01*
X306814Y210294D01*
X306886Y210225D01*
X306960Y210159D01*
X307038Y210095D01*
X307117Y210035D01*
X307199Y209978D01*
X307283Y209924D01*
X307369Y209874D01*
X307457Y209827D01*
X307547Y209783D01*
X307638Y209743D01*
X307731Y209707D01*
X307825Y209674D01*
X307921Y209645D01*
X308017Y209620D01*
X308114Y209599D01*
X308213Y209581D01*
X308311Y209568D01*
X308411Y209558D01*
X308510Y209552D01*
X308610Y209550D01*
X326390Y209550D02*
X326490Y209552D01*
X326589Y209558D01*
X326689Y209568D01*
X326787Y209581D01*
X326886Y209599D01*
X326983Y209620D01*
X327079Y209645D01*
X327175Y209674D01*
X327269Y209707D01*
X327362Y209743D01*
X327453Y209783D01*
X327543Y209827D01*
X327631Y209874D01*
X327717Y209924D01*
X327801Y209978D01*
X327883Y210035D01*
X327962Y210095D01*
X328040Y210159D01*
X328114Y210225D01*
X328186Y210294D01*
X328255Y210366D01*
X328321Y210440D01*
X328385Y210518D01*
X328445Y210597D01*
X328502Y210679D01*
X328556Y210763D01*
X328606Y210849D01*
X328653Y210937D01*
X328697Y211027D01*
X328737Y211118D01*
X328773Y211211D01*
X328806Y211305D01*
X328835Y211401D01*
X328860Y211497D01*
X328881Y211594D01*
X328899Y211693D01*
X328912Y211791D01*
X328922Y211891D01*
X328928Y211990D01*
X328930Y212090D01*
X328930Y270510D02*
X328928Y270610D01*
X328922Y270709D01*
X328912Y270809D01*
X328899Y270907D01*
X328881Y271006D01*
X328860Y271103D01*
X328835Y271199D01*
X328806Y271295D01*
X328773Y271389D01*
X328737Y271482D01*
X328697Y271573D01*
X328653Y271663D01*
X328606Y271751D01*
X328556Y271837D01*
X328502Y271921D01*
X328445Y272003D01*
X328385Y272082D01*
X328321Y272160D01*
X328255Y272234D01*
X328186Y272306D01*
X328114Y272375D01*
X328040Y272441D01*
X327962Y272505D01*
X327883Y272565D01*
X327801Y272622D01*
X327717Y272676D01*
X327631Y272726D01*
X327543Y272773D01*
X327453Y272817D01*
X327362Y272857D01*
X327269Y272893D01*
X327175Y272926D01*
X327079Y272955D01*
X326983Y272980D01*
X326886Y273001D01*
X326787Y273019D01*
X326689Y273032D01*
X326589Y273042D01*
X326490Y273048D01*
X326390Y273050D01*
X308610Y273050D02*
X308510Y273048D01*
X308411Y273042D01*
X308311Y273032D01*
X308213Y273019D01*
X308114Y273001D01*
X308017Y272980D01*
X307921Y272955D01*
X307825Y272926D01*
X307731Y272893D01*
X307638Y272857D01*
X307547Y272817D01*
X307457Y272773D01*
X307369Y272726D01*
X307283Y272676D01*
X307199Y272622D01*
X307117Y272565D01*
X307038Y272505D01*
X306960Y272441D01*
X306886Y272375D01*
X306814Y272306D01*
X306745Y272234D01*
X306679Y272160D01*
X306615Y272082D01*
X306555Y272003D01*
X306498Y271921D01*
X306444Y271837D01*
X306394Y271751D01*
X306347Y271663D01*
X306303Y271573D01*
X306263Y271482D01*
X306227Y271389D01*
X306194Y271295D01*
X306165Y271199D01*
X306140Y271103D01*
X306119Y271006D01*
X306101Y270907D01*
X306088Y270809D01*
X306078Y270709D01*
X306072Y270610D01*
X306070Y270510D01*
X308610Y209550D02*
X326390Y209550D01*
X306070Y212090D02*
X306070Y215900D01*
X307340Y217170D01*
X328930Y215900D02*
X328930Y212090D01*
X328930Y215900D02*
X327660Y217170D01*
X307340Y265430D02*
X306070Y266700D01*
X307340Y265430D02*
X307340Y217170D01*
X327660Y265430D02*
X328930Y266700D01*
X327660Y265430D02*
X327660Y217170D01*
X306070Y266700D02*
X306070Y270510D01*
X328930Y270510D02*
X328930Y266700D01*
X326390Y273050D02*
X308610Y273050D01*
D16*
X317500Y277368D03*
X317500Y205232D03*
D15*
X301625Y211455D02*
X290185Y211455D01*
X290185Y217175D01*
X292092Y219082D01*
X295905Y219082D01*
X297812Y217175D01*
X297812Y211455D01*
X297812Y215268D02*
X301625Y219082D01*
X293999Y223149D02*
X290185Y226962D01*
X301625Y226962D01*
X301625Y223149D02*
X301625Y230775D01*
X299718Y234843D02*
X292092Y234843D01*
X290185Y236750D01*
X290185Y240563D01*
X292092Y242469D01*
X299718Y242469D01*
X301625Y240563D01*
X301625Y236750D01*
X299718Y234843D01*
X292092Y242469D01*
D12*
X420370Y186690D02*
X420372Y186590D01*
X420378Y186491D01*
X420388Y186391D01*
X420401Y186293D01*
X420419Y186194D01*
X420440Y186097D01*
X420465Y186001D01*
X420494Y185905D01*
X420527Y185811D01*
X420563Y185718D01*
X420603Y185627D01*
X420647Y185537D01*
X420694Y185449D01*
X420744Y185363D01*
X420798Y185279D01*
X420855Y185197D01*
X420915Y185118D01*
X420979Y185040D01*
X421045Y184966D01*
X421114Y184894D01*
X421186Y184825D01*
X421260Y184759D01*
X421338Y184695D01*
X421417Y184635D01*
X421499Y184578D01*
X421583Y184524D01*
X421669Y184474D01*
X421757Y184427D01*
X421847Y184383D01*
X421938Y184343D01*
X422031Y184307D01*
X422125Y184274D01*
X422221Y184245D01*
X422317Y184220D01*
X422414Y184199D01*
X422513Y184181D01*
X422611Y184168D01*
X422711Y184158D01*
X422810Y184152D01*
X422910Y184150D01*
X440690Y184150D02*
X440790Y184152D01*
X440889Y184158D01*
X440989Y184168D01*
X441087Y184181D01*
X441186Y184199D01*
X441283Y184220D01*
X441379Y184245D01*
X441475Y184274D01*
X441569Y184307D01*
X441662Y184343D01*
X441753Y184383D01*
X441843Y184427D01*
X441931Y184474D01*
X442017Y184524D01*
X442101Y184578D01*
X442183Y184635D01*
X442262Y184695D01*
X442340Y184759D01*
X442414Y184825D01*
X442486Y184894D01*
X442555Y184966D01*
X442621Y185040D01*
X442685Y185118D01*
X442745Y185197D01*
X442802Y185279D01*
X442856Y185363D01*
X442906Y185449D01*
X442953Y185537D01*
X442997Y185627D01*
X443037Y185718D01*
X443073Y185811D01*
X443106Y185905D01*
X443135Y186001D01*
X443160Y186097D01*
X443181Y186194D01*
X443199Y186293D01*
X443212Y186391D01*
X443222Y186491D01*
X443228Y186590D01*
X443230Y186690D01*
X443230Y245110D02*
X443228Y245210D01*
X443222Y245309D01*
X443212Y245409D01*
X443199Y245507D01*
X443181Y245606D01*
X443160Y245703D01*
X443135Y245799D01*
X443106Y245895D01*
X443073Y245989D01*
X443037Y246082D01*
X442997Y246173D01*
X442953Y246263D01*
X442906Y246351D01*
X442856Y246437D01*
X442802Y246521D01*
X442745Y246603D01*
X442685Y246682D01*
X442621Y246760D01*
X442555Y246834D01*
X442486Y246906D01*
X442414Y246975D01*
X442340Y247041D01*
X442262Y247105D01*
X442183Y247165D01*
X442101Y247222D01*
X442017Y247276D01*
X441931Y247326D01*
X441843Y247373D01*
X441753Y247417D01*
X441662Y247457D01*
X441569Y247493D01*
X441475Y247526D01*
X441379Y247555D01*
X441283Y247580D01*
X441186Y247601D01*
X441087Y247619D01*
X440989Y247632D01*
X440889Y247642D01*
X440790Y247648D01*
X440690Y247650D01*
X422910Y247650D02*
X422810Y247648D01*
X422711Y247642D01*
X422611Y247632D01*
X422513Y247619D01*
X422414Y247601D01*
X422317Y247580D01*
X422221Y247555D01*
X422125Y247526D01*
X422031Y247493D01*
X421938Y247457D01*
X421847Y247417D01*
X421757Y247373D01*
X421669Y247326D01*
X421583Y247276D01*
X421499Y247222D01*
X421417Y247165D01*
X421338Y247105D01*
X421260Y247041D01*
X421186Y246975D01*
X421114Y246906D01*
X421045Y246834D01*
X420979Y246760D01*
X420915Y246682D01*
X420855Y246603D01*
X420798Y246521D01*
X420744Y246437D01*
X420694Y246351D01*
X420647Y246263D01*
X420603Y246173D01*
X420563Y246082D01*
X420527Y245989D01*
X420494Y245895D01*
X420465Y245799D01*
X420440Y245703D01*
X420419Y245606D01*
X420401Y245507D01*
X420388Y245409D01*
X420378Y245309D01*
X420372Y245210D01*
X420370Y245110D01*
X422910Y184150D02*
X440690Y184150D01*
X420370Y186690D02*
X420370Y190500D01*
X421640Y191770D01*
X443230Y190500D02*
X443230Y186690D01*
X443230Y190500D02*
X441960Y191770D01*
X421640Y240030D02*
X420370Y241300D01*
X421640Y240030D02*
X421640Y191770D01*
X441960Y240030D02*
X443230Y241300D01*
X441960Y240030D02*
X441960Y191770D01*
X420370Y241300D02*
X420370Y245110D01*
X443230Y245110D02*
X443230Y241300D01*
X440690Y247650D02*
X422910Y247650D01*
D16*
X431800Y251968D03*
X431800Y179832D03*
D15*
X428625Y198755D02*
X417185Y198755D01*
X417185Y204475D01*
X419092Y206382D01*
X422905Y206382D01*
X424812Y204475D01*
X424812Y198755D01*
X424812Y202568D02*
X428625Y206382D01*
X420999Y210449D02*
X417185Y214262D01*
X428625Y214262D01*
X428625Y210449D02*
X428625Y218075D01*
X420999Y222143D02*
X417185Y225956D01*
X428625Y225956D01*
X428625Y222143D02*
X428625Y229769D01*
D12*
X466090Y247650D02*
X466190Y247648D01*
X466289Y247642D01*
X466389Y247632D01*
X466487Y247619D01*
X466586Y247601D01*
X466683Y247580D01*
X466779Y247555D01*
X466875Y247526D01*
X466969Y247493D01*
X467062Y247457D01*
X467153Y247417D01*
X467243Y247373D01*
X467331Y247326D01*
X467417Y247276D01*
X467501Y247222D01*
X467583Y247165D01*
X467662Y247105D01*
X467740Y247041D01*
X467814Y246975D01*
X467886Y246906D01*
X467955Y246834D01*
X468021Y246760D01*
X468085Y246682D01*
X468145Y246603D01*
X468202Y246521D01*
X468256Y246437D01*
X468306Y246351D01*
X468353Y246263D01*
X468397Y246173D01*
X468437Y246082D01*
X468473Y245989D01*
X468506Y245895D01*
X468535Y245799D01*
X468560Y245703D01*
X468581Y245606D01*
X468599Y245507D01*
X468612Y245409D01*
X468622Y245309D01*
X468628Y245210D01*
X468630Y245110D01*
X448310Y247650D02*
X448210Y247648D01*
X448111Y247642D01*
X448011Y247632D01*
X447913Y247619D01*
X447814Y247601D01*
X447717Y247580D01*
X447621Y247555D01*
X447525Y247526D01*
X447431Y247493D01*
X447338Y247457D01*
X447247Y247417D01*
X447157Y247373D01*
X447069Y247326D01*
X446983Y247276D01*
X446899Y247222D01*
X446817Y247165D01*
X446738Y247105D01*
X446660Y247041D01*
X446586Y246975D01*
X446514Y246906D01*
X446445Y246834D01*
X446379Y246760D01*
X446315Y246682D01*
X446255Y246603D01*
X446198Y246521D01*
X446144Y246437D01*
X446094Y246351D01*
X446047Y246263D01*
X446003Y246173D01*
X445963Y246082D01*
X445927Y245989D01*
X445894Y245895D01*
X445865Y245799D01*
X445840Y245703D01*
X445819Y245606D01*
X445801Y245507D01*
X445788Y245409D01*
X445778Y245309D01*
X445772Y245210D01*
X445770Y245110D01*
X445770Y186690D02*
X445772Y186590D01*
X445778Y186491D01*
X445788Y186391D01*
X445801Y186293D01*
X445819Y186194D01*
X445840Y186097D01*
X445865Y186001D01*
X445894Y185905D01*
X445927Y185811D01*
X445963Y185718D01*
X446003Y185627D01*
X446047Y185537D01*
X446094Y185449D01*
X446144Y185363D01*
X446198Y185279D01*
X446255Y185197D01*
X446315Y185118D01*
X446379Y185040D01*
X446445Y184966D01*
X446514Y184894D01*
X446586Y184825D01*
X446660Y184759D01*
X446738Y184695D01*
X446817Y184635D01*
X446899Y184578D01*
X446983Y184524D01*
X447069Y184474D01*
X447157Y184427D01*
X447247Y184383D01*
X447338Y184343D01*
X447431Y184307D01*
X447525Y184274D01*
X447621Y184245D01*
X447717Y184220D01*
X447814Y184199D01*
X447913Y184181D01*
X448011Y184168D01*
X448111Y184158D01*
X448210Y184152D01*
X448310Y184150D01*
X466090Y184150D02*
X466190Y184152D01*
X466289Y184158D01*
X466389Y184168D01*
X466487Y184181D01*
X466586Y184199D01*
X466683Y184220D01*
X466779Y184245D01*
X466875Y184274D01*
X466969Y184307D01*
X467062Y184343D01*
X467153Y184383D01*
X467243Y184427D01*
X467331Y184474D01*
X467417Y184524D01*
X467501Y184578D01*
X467583Y184635D01*
X467662Y184695D01*
X467740Y184759D01*
X467814Y184825D01*
X467886Y184894D01*
X467955Y184966D01*
X468021Y185040D01*
X468085Y185118D01*
X468145Y185197D01*
X468202Y185279D01*
X468256Y185363D01*
X468306Y185449D01*
X468353Y185537D01*
X468397Y185627D01*
X468437Y185718D01*
X468473Y185811D01*
X468506Y185905D01*
X468535Y186001D01*
X468560Y186097D01*
X468581Y186194D01*
X468599Y186293D01*
X468612Y186391D01*
X468622Y186491D01*
X468628Y186590D01*
X468630Y186690D01*
X466090Y247650D02*
X448310Y247650D01*
X468630Y245110D02*
X468630Y241300D01*
X467360Y240030D01*
X445770Y241300D02*
X445770Y245110D01*
X445770Y241300D02*
X447040Y240030D01*
X467360Y191770D02*
X468630Y190500D01*
X467360Y191770D02*
X467360Y240030D01*
X447040Y191770D02*
X445770Y190500D01*
X447040Y191770D02*
X447040Y240030D01*
X468630Y190500D02*
X468630Y186690D01*
X445770Y186690D02*
X445770Y190500D01*
X448310Y184150D02*
X466090Y184150D01*
D16*
X457200Y179832D03*
X457200Y251968D03*
D15*
X459105Y186533D02*
X447665Y186533D01*
X447665Y192253D01*
X449572Y194160D01*
X453385Y194160D01*
X455292Y192253D01*
X455292Y186533D01*
X455292Y190346D02*
X459105Y194160D01*
X451479Y198227D02*
X447665Y202040D01*
X459105Y202040D01*
X459105Y198227D02*
X459105Y205854D01*
X459105Y209921D02*
X459105Y217547D01*
X459105Y209921D02*
X451479Y217547D01*
X449572Y217547D01*
X447665Y215641D01*
X447665Y211828D01*
X449572Y209921D01*
D12*
X608330Y575310D02*
X608328Y575410D01*
X608322Y575509D01*
X608312Y575609D01*
X608299Y575707D01*
X608281Y575806D01*
X608260Y575903D01*
X608235Y575999D01*
X608206Y576095D01*
X608173Y576189D01*
X608137Y576282D01*
X608097Y576373D01*
X608053Y576463D01*
X608006Y576551D01*
X607956Y576637D01*
X607902Y576721D01*
X607845Y576803D01*
X607785Y576882D01*
X607721Y576960D01*
X607655Y577034D01*
X607586Y577106D01*
X607514Y577175D01*
X607440Y577241D01*
X607362Y577305D01*
X607283Y577365D01*
X607201Y577422D01*
X607117Y577476D01*
X607031Y577526D01*
X606943Y577573D01*
X606853Y577617D01*
X606762Y577657D01*
X606669Y577693D01*
X606575Y577726D01*
X606479Y577755D01*
X606383Y577780D01*
X606286Y577801D01*
X606187Y577819D01*
X606089Y577832D01*
X605989Y577842D01*
X605890Y577848D01*
X605790Y577850D01*
X588010Y577850D02*
X587910Y577848D01*
X587811Y577842D01*
X587711Y577832D01*
X587613Y577819D01*
X587514Y577801D01*
X587417Y577780D01*
X587321Y577755D01*
X587225Y577726D01*
X587131Y577693D01*
X587038Y577657D01*
X586947Y577617D01*
X586857Y577573D01*
X586769Y577526D01*
X586683Y577476D01*
X586599Y577422D01*
X586517Y577365D01*
X586438Y577305D01*
X586360Y577241D01*
X586286Y577175D01*
X586214Y577106D01*
X586145Y577034D01*
X586079Y576960D01*
X586015Y576882D01*
X585955Y576803D01*
X585898Y576721D01*
X585844Y576637D01*
X585794Y576551D01*
X585747Y576463D01*
X585703Y576373D01*
X585663Y576282D01*
X585627Y576189D01*
X585594Y576095D01*
X585565Y575999D01*
X585540Y575903D01*
X585519Y575806D01*
X585501Y575707D01*
X585488Y575609D01*
X585478Y575509D01*
X585472Y575410D01*
X585470Y575310D01*
X585470Y516890D02*
X585472Y516790D01*
X585478Y516691D01*
X585488Y516591D01*
X585501Y516493D01*
X585519Y516394D01*
X585540Y516297D01*
X585565Y516201D01*
X585594Y516105D01*
X585627Y516011D01*
X585663Y515918D01*
X585703Y515827D01*
X585747Y515737D01*
X585794Y515649D01*
X585844Y515563D01*
X585898Y515479D01*
X585955Y515397D01*
X586015Y515318D01*
X586079Y515240D01*
X586145Y515166D01*
X586214Y515094D01*
X586286Y515025D01*
X586360Y514959D01*
X586438Y514895D01*
X586517Y514835D01*
X586599Y514778D01*
X586683Y514724D01*
X586769Y514674D01*
X586857Y514627D01*
X586947Y514583D01*
X587038Y514543D01*
X587131Y514507D01*
X587225Y514474D01*
X587321Y514445D01*
X587417Y514420D01*
X587514Y514399D01*
X587613Y514381D01*
X587711Y514368D01*
X587811Y514358D01*
X587910Y514352D01*
X588010Y514350D01*
X605790Y514350D02*
X605890Y514352D01*
X605989Y514358D01*
X606089Y514368D01*
X606187Y514381D01*
X606286Y514399D01*
X606383Y514420D01*
X606479Y514445D01*
X606575Y514474D01*
X606669Y514507D01*
X606762Y514543D01*
X606853Y514583D01*
X606943Y514627D01*
X607031Y514674D01*
X607117Y514724D01*
X607201Y514778D01*
X607283Y514835D01*
X607362Y514895D01*
X607440Y514959D01*
X607514Y515025D01*
X607586Y515094D01*
X607655Y515166D01*
X607721Y515240D01*
X607785Y515318D01*
X607845Y515397D01*
X607902Y515479D01*
X607956Y515563D01*
X608006Y515649D01*
X608053Y515737D01*
X608097Y515827D01*
X608137Y515918D01*
X608173Y516011D01*
X608206Y516105D01*
X608235Y516201D01*
X608260Y516297D01*
X608281Y516394D01*
X608299Y516493D01*
X608312Y516591D01*
X608322Y516691D01*
X608328Y516790D01*
X608330Y516890D01*
X605790Y577850D02*
X588010Y577850D01*
X608330Y575310D02*
X608330Y571500D01*
X607060Y570230D01*
X585470Y571500D02*
X585470Y575310D01*
X585470Y571500D02*
X586740Y570230D01*
X607060Y521970D02*
X608330Y520700D01*
X607060Y521970D02*
X607060Y570230D01*
X586740Y521970D02*
X585470Y520700D01*
X586740Y521970D02*
X586740Y570230D01*
X608330Y520700D02*
X608330Y516890D01*
X585470Y516890D02*
X585470Y520700D01*
X588010Y514350D02*
X605790Y514350D01*
D16*
X596900Y510032D03*
X596900Y582168D03*
D15*
X598805Y529433D02*
X587365Y529433D01*
X587365Y535153D01*
X589272Y537060D01*
X593085Y537060D01*
X594992Y535153D01*
X594992Y529433D01*
X594992Y533246D02*
X598805Y537060D01*
X591179Y541127D02*
X587365Y544940D01*
X598805Y544940D01*
X598805Y541127D02*
X598805Y548754D01*
X589272Y552821D02*
X587365Y554728D01*
X587365Y558541D01*
X589272Y560447D01*
X591179Y560447D01*
X593085Y558541D01*
X593085Y556634D01*
X593085Y558541D02*
X594992Y560447D01*
X596898Y560447D01*
X598805Y558541D01*
X598805Y554728D01*
X596898Y552821D01*
D12*
X610870Y516890D02*
X610872Y516790D01*
X610878Y516691D01*
X610888Y516591D01*
X610901Y516493D01*
X610919Y516394D01*
X610940Y516297D01*
X610965Y516201D01*
X610994Y516105D01*
X611027Y516011D01*
X611063Y515918D01*
X611103Y515827D01*
X611147Y515737D01*
X611194Y515649D01*
X611244Y515563D01*
X611298Y515479D01*
X611355Y515397D01*
X611415Y515318D01*
X611479Y515240D01*
X611545Y515166D01*
X611614Y515094D01*
X611686Y515025D01*
X611760Y514959D01*
X611838Y514895D01*
X611917Y514835D01*
X611999Y514778D01*
X612083Y514724D01*
X612169Y514674D01*
X612257Y514627D01*
X612347Y514583D01*
X612438Y514543D01*
X612531Y514507D01*
X612625Y514474D01*
X612721Y514445D01*
X612817Y514420D01*
X612914Y514399D01*
X613013Y514381D01*
X613111Y514368D01*
X613211Y514358D01*
X613310Y514352D01*
X613410Y514350D01*
X631190Y514350D02*
X631290Y514352D01*
X631389Y514358D01*
X631489Y514368D01*
X631587Y514381D01*
X631686Y514399D01*
X631783Y514420D01*
X631879Y514445D01*
X631975Y514474D01*
X632069Y514507D01*
X632162Y514543D01*
X632253Y514583D01*
X632343Y514627D01*
X632431Y514674D01*
X632517Y514724D01*
X632601Y514778D01*
X632683Y514835D01*
X632762Y514895D01*
X632840Y514959D01*
X632914Y515025D01*
X632986Y515094D01*
X633055Y515166D01*
X633121Y515240D01*
X633185Y515318D01*
X633245Y515397D01*
X633302Y515479D01*
X633356Y515563D01*
X633406Y515649D01*
X633453Y515737D01*
X633497Y515827D01*
X633537Y515918D01*
X633573Y516011D01*
X633606Y516105D01*
X633635Y516201D01*
X633660Y516297D01*
X633681Y516394D01*
X633699Y516493D01*
X633712Y516591D01*
X633722Y516691D01*
X633728Y516790D01*
X633730Y516890D01*
X633730Y575310D02*
X633728Y575410D01*
X633722Y575509D01*
X633712Y575609D01*
X633699Y575707D01*
X633681Y575806D01*
X633660Y575903D01*
X633635Y575999D01*
X633606Y576095D01*
X633573Y576189D01*
X633537Y576282D01*
X633497Y576373D01*
X633453Y576463D01*
X633406Y576551D01*
X633356Y576637D01*
X633302Y576721D01*
X633245Y576803D01*
X633185Y576882D01*
X633121Y576960D01*
X633055Y577034D01*
X632986Y577106D01*
X632914Y577175D01*
X632840Y577241D01*
X632762Y577305D01*
X632683Y577365D01*
X632601Y577422D01*
X632517Y577476D01*
X632431Y577526D01*
X632343Y577573D01*
X632253Y577617D01*
X632162Y577657D01*
X632069Y577693D01*
X631975Y577726D01*
X631879Y577755D01*
X631783Y577780D01*
X631686Y577801D01*
X631587Y577819D01*
X631489Y577832D01*
X631389Y577842D01*
X631290Y577848D01*
X631190Y577850D01*
X613410Y577850D02*
X613310Y577848D01*
X613211Y577842D01*
X613111Y577832D01*
X613013Y577819D01*
X612914Y577801D01*
X612817Y577780D01*
X612721Y577755D01*
X612625Y577726D01*
X612531Y577693D01*
X612438Y577657D01*
X612347Y577617D01*
X612257Y577573D01*
X612169Y577526D01*
X612083Y577476D01*
X611999Y577422D01*
X611917Y577365D01*
X611838Y577305D01*
X611760Y577241D01*
X611686Y577175D01*
X611614Y577106D01*
X611545Y577034D01*
X611479Y576960D01*
X611415Y576882D01*
X611355Y576803D01*
X611298Y576721D01*
X611244Y576637D01*
X611194Y576551D01*
X611147Y576463D01*
X611103Y576373D01*
X611063Y576282D01*
X611027Y576189D01*
X610994Y576095D01*
X610965Y575999D01*
X610940Y575903D01*
X610919Y575806D01*
X610901Y575707D01*
X610888Y575609D01*
X610878Y575509D01*
X610872Y575410D01*
X610870Y575310D01*
X613410Y514350D02*
X631190Y514350D01*
X610870Y516890D02*
X610870Y520700D01*
X612140Y521970D01*
X633730Y520700D02*
X633730Y516890D01*
X633730Y520700D02*
X632460Y521970D01*
X612140Y570230D02*
X610870Y571500D01*
X612140Y570230D02*
X612140Y521970D01*
X632460Y570230D02*
X633730Y571500D01*
X632460Y570230D02*
X632460Y521970D01*
X610870Y571500D02*
X610870Y575310D01*
X633730Y575310D02*
X633730Y571500D01*
X631190Y577850D02*
X613410Y577850D01*
D16*
X622300Y582168D03*
X622300Y510032D03*
D15*
X620385Y528955D02*
X631825Y528955D01*
X620385Y528955D02*
X620385Y534675D01*
X622292Y536582D01*
X626105Y536582D01*
X628012Y534675D01*
X628012Y528955D01*
X628012Y532768D02*
X631825Y536582D01*
X624199Y540649D02*
X620385Y544462D01*
X631825Y544462D01*
X631825Y540649D02*
X631825Y548275D01*
X631825Y558063D02*
X620385Y558063D01*
X626105Y552343D01*
X626105Y559969D01*
D12*
X713740Y485140D02*
X720090Y485140D01*
X720090Y480060D01*
X713740Y480060D01*
X713740Y473710D01*
X708660Y473710D01*
X708660Y480060D01*
X702310Y480060D01*
X702310Y485140D01*
X708660Y485140D01*
X708660Y491490D01*
X713740Y491490D01*
X713740Y485140D01*
X749300Y473710D02*
X749300Y448310D01*
X702310Y491490D02*
X697230Y496570D01*
X702310Y473710D02*
X697230Y468630D01*
X711200Y496570D02*
X711200Y501650D01*
X711200Y468630D02*
X711200Y463550D01*
X721360Y492760D02*
X723900Y495300D01*
X721360Y472440D02*
X723900Y469900D01*
X673100Y466090D02*
X673100Y499110D01*
X673100Y448310D02*
X673102Y448188D01*
X673108Y448066D01*
X673118Y447944D01*
X673131Y447823D01*
X673149Y447702D01*
X673170Y447582D01*
X673196Y447462D01*
X673225Y447344D01*
X673257Y447226D01*
X673294Y447109D01*
X673334Y446994D01*
X673378Y446880D01*
X673426Y446768D01*
X673477Y446657D01*
X673532Y446548D01*
X673590Y446440D01*
X673652Y446335D01*
X673717Y446232D01*
X673785Y446130D01*
X673857Y446031D01*
X673931Y445935D01*
X674009Y445840D01*
X674090Y445749D01*
X674173Y445659D01*
X674259Y445573D01*
X674349Y445490D01*
X674440Y445409D01*
X674535Y445331D01*
X674631Y445257D01*
X674730Y445185D01*
X674832Y445117D01*
X674935Y445052D01*
X675040Y444990D01*
X675148Y444932D01*
X675257Y444877D01*
X675368Y444826D01*
X675480Y444778D01*
X675594Y444734D01*
X675709Y444694D01*
X675826Y444657D01*
X675944Y444625D01*
X676062Y444596D01*
X676182Y444570D01*
X676302Y444549D01*
X676423Y444531D01*
X676544Y444518D01*
X676666Y444508D01*
X676788Y444502D01*
X676910Y444500D01*
X745490Y444500D02*
X745612Y444502D01*
X745734Y444508D01*
X745856Y444518D01*
X745977Y444531D01*
X746098Y444549D01*
X746218Y444570D01*
X746338Y444596D01*
X746456Y444625D01*
X746574Y444657D01*
X746691Y444694D01*
X746806Y444734D01*
X746920Y444778D01*
X747032Y444826D01*
X747143Y444877D01*
X747252Y444932D01*
X747360Y444990D01*
X747465Y445052D01*
X747568Y445117D01*
X747670Y445185D01*
X747769Y445257D01*
X747865Y445331D01*
X747960Y445409D01*
X748051Y445490D01*
X748141Y445573D01*
X748227Y445659D01*
X748310Y445749D01*
X748391Y445840D01*
X748469Y445935D01*
X748543Y446031D01*
X748615Y446130D01*
X748683Y446232D01*
X748748Y446335D01*
X748810Y446440D01*
X748868Y446548D01*
X748923Y446657D01*
X748974Y446768D01*
X749022Y446880D01*
X749066Y446994D01*
X749106Y447109D01*
X749143Y447226D01*
X749175Y447344D01*
X749204Y447462D01*
X749230Y447582D01*
X749251Y447702D01*
X749269Y447823D01*
X749282Y447944D01*
X749292Y448066D01*
X749298Y448188D01*
X749300Y448310D01*
X749300Y516890D02*
X749298Y517012D01*
X749292Y517134D01*
X749282Y517256D01*
X749269Y517377D01*
X749251Y517498D01*
X749230Y517618D01*
X749204Y517738D01*
X749175Y517856D01*
X749143Y517974D01*
X749106Y518091D01*
X749066Y518206D01*
X749022Y518320D01*
X748974Y518432D01*
X748923Y518543D01*
X748868Y518652D01*
X748810Y518760D01*
X748748Y518865D01*
X748683Y518968D01*
X748615Y519070D01*
X748543Y519169D01*
X748469Y519265D01*
X748391Y519360D01*
X748310Y519451D01*
X748227Y519541D01*
X748141Y519627D01*
X748051Y519710D01*
X747960Y519791D01*
X747865Y519869D01*
X747769Y519943D01*
X747670Y520015D01*
X747568Y520083D01*
X747465Y520148D01*
X747360Y520210D01*
X747252Y520268D01*
X747143Y520323D01*
X747032Y520374D01*
X746920Y520422D01*
X746806Y520466D01*
X746691Y520506D01*
X746574Y520543D01*
X746456Y520575D01*
X746338Y520604D01*
X746218Y520630D01*
X746098Y520651D01*
X745977Y520669D01*
X745856Y520682D01*
X745734Y520692D01*
X745612Y520698D01*
X745490Y520700D01*
X676910Y520700D02*
X676788Y520698D01*
X676666Y520692D01*
X676544Y520682D01*
X676423Y520669D01*
X676302Y520651D01*
X676182Y520630D01*
X676062Y520604D01*
X675944Y520575D01*
X675826Y520543D01*
X675709Y520506D01*
X675594Y520466D01*
X675480Y520422D01*
X675368Y520374D01*
X675257Y520323D01*
X675148Y520268D01*
X675040Y520210D01*
X674935Y520148D01*
X674832Y520083D01*
X674730Y520015D01*
X674631Y519943D01*
X674535Y519869D01*
X674440Y519791D01*
X674349Y519710D01*
X674259Y519627D01*
X674173Y519541D01*
X674090Y519451D01*
X674009Y519360D01*
X673931Y519265D01*
X673857Y519169D01*
X673785Y519070D01*
X673717Y518968D01*
X673652Y518865D01*
X673590Y518760D01*
X673532Y518652D01*
X673477Y518543D01*
X673426Y518432D01*
X673378Y518320D01*
X673334Y518206D01*
X673294Y518091D01*
X673257Y517974D01*
X673225Y517856D01*
X673196Y517738D01*
X673170Y517618D01*
X673149Y517498D01*
X673131Y517377D01*
X673118Y517256D01*
X673108Y517134D01*
X673102Y517012D01*
X673100Y516890D01*
X749300Y516890D02*
X749300Y491490D01*
X745490Y444500D02*
X695960Y444500D01*
X695960Y520700D02*
X745490Y520700D01*
D15*
X753735Y473553D02*
X765175Y473553D01*
X753735Y473553D02*
X753735Y479273D01*
X755642Y481180D01*
X759455Y481180D01*
X761362Y479273D01*
X761362Y473553D01*
X761362Y477366D02*
X765175Y481180D01*
X757549Y485247D02*
X753735Y489060D01*
X765175Y489060D01*
X765175Y485247D02*
X765175Y492874D01*
X753735Y496941D02*
X753735Y504567D01*
X753735Y496941D02*
X759455Y496941D01*
X757549Y500754D01*
X757549Y502661D01*
X759455Y504567D01*
X763268Y504567D01*
X765175Y502661D01*
X765175Y498848D01*
X763268Y496941D01*
D12*
X504190Y189230D02*
X504090Y189228D01*
X503991Y189222D01*
X503891Y189212D01*
X503793Y189199D01*
X503694Y189181D01*
X503597Y189160D01*
X503501Y189135D01*
X503405Y189106D01*
X503311Y189073D01*
X503218Y189037D01*
X503127Y188997D01*
X503037Y188953D01*
X502949Y188906D01*
X502863Y188856D01*
X502779Y188802D01*
X502697Y188745D01*
X502618Y188685D01*
X502540Y188621D01*
X502466Y188555D01*
X502394Y188486D01*
X502325Y188414D01*
X502259Y188340D01*
X502195Y188262D01*
X502135Y188183D01*
X502078Y188101D01*
X502024Y188017D01*
X501974Y187931D01*
X501927Y187843D01*
X501883Y187753D01*
X501843Y187662D01*
X501807Y187569D01*
X501774Y187475D01*
X501745Y187379D01*
X501720Y187283D01*
X501699Y187186D01*
X501681Y187087D01*
X501668Y186989D01*
X501658Y186889D01*
X501652Y186790D01*
X501650Y186690D01*
X501650Y168910D02*
X501652Y168810D01*
X501658Y168711D01*
X501668Y168611D01*
X501681Y168513D01*
X501699Y168414D01*
X501720Y168317D01*
X501745Y168221D01*
X501774Y168125D01*
X501807Y168031D01*
X501843Y167938D01*
X501883Y167847D01*
X501927Y167757D01*
X501974Y167669D01*
X502024Y167583D01*
X502078Y167499D01*
X502135Y167417D01*
X502195Y167338D01*
X502259Y167260D01*
X502325Y167186D01*
X502394Y167114D01*
X502466Y167045D01*
X502540Y166979D01*
X502618Y166915D01*
X502697Y166855D01*
X502779Y166798D01*
X502863Y166744D01*
X502949Y166694D01*
X503037Y166647D01*
X503127Y166603D01*
X503218Y166563D01*
X503311Y166527D01*
X503405Y166494D01*
X503501Y166465D01*
X503597Y166440D01*
X503694Y166419D01*
X503793Y166401D01*
X503891Y166388D01*
X503991Y166378D01*
X504090Y166372D01*
X504190Y166370D01*
X562610Y166370D02*
X562710Y166372D01*
X562809Y166378D01*
X562909Y166388D01*
X563007Y166401D01*
X563106Y166419D01*
X563203Y166440D01*
X563299Y166465D01*
X563395Y166494D01*
X563489Y166527D01*
X563582Y166563D01*
X563673Y166603D01*
X563763Y166647D01*
X563851Y166694D01*
X563937Y166744D01*
X564021Y166798D01*
X564103Y166855D01*
X564182Y166915D01*
X564260Y166979D01*
X564334Y167045D01*
X564406Y167114D01*
X564475Y167186D01*
X564541Y167260D01*
X564605Y167338D01*
X564665Y167417D01*
X564722Y167499D01*
X564776Y167583D01*
X564826Y167669D01*
X564873Y167757D01*
X564917Y167847D01*
X564957Y167938D01*
X564993Y168031D01*
X565026Y168125D01*
X565055Y168221D01*
X565080Y168317D01*
X565101Y168414D01*
X565119Y168513D01*
X565132Y168611D01*
X565142Y168711D01*
X565148Y168810D01*
X565150Y168910D01*
X565150Y186690D02*
X565148Y186790D01*
X565142Y186889D01*
X565132Y186989D01*
X565119Y187087D01*
X565101Y187186D01*
X565080Y187283D01*
X565055Y187379D01*
X565026Y187475D01*
X564993Y187569D01*
X564957Y187662D01*
X564917Y187753D01*
X564873Y187843D01*
X564826Y187931D01*
X564776Y188017D01*
X564722Y188101D01*
X564665Y188183D01*
X564605Y188262D01*
X564541Y188340D01*
X564475Y188414D01*
X564406Y188486D01*
X564334Y188555D01*
X564260Y188621D01*
X564182Y188685D01*
X564103Y188745D01*
X564021Y188802D01*
X563937Y188856D01*
X563851Y188906D01*
X563763Y188953D01*
X563673Y188997D01*
X563582Y189037D01*
X563489Y189073D01*
X563395Y189106D01*
X563299Y189135D01*
X563203Y189160D01*
X563106Y189181D01*
X563007Y189199D01*
X562909Y189212D01*
X562809Y189222D01*
X562710Y189228D01*
X562610Y189230D01*
X501650Y186690D02*
X501650Y168910D01*
X504190Y189230D02*
X508000Y189230D01*
X509270Y187960D01*
X508000Y166370D02*
X504190Y166370D01*
X508000Y166370D02*
X509270Y167640D01*
X557530Y187960D02*
X558800Y189230D01*
X557530Y187960D02*
X509270Y187960D01*
X557530Y167640D02*
X558800Y166370D01*
X557530Y167640D02*
X509270Y167640D01*
X558800Y189230D02*
X562610Y189230D01*
X562610Y166370D02*
X558800Y166370D01*
X565150Y168910D02*
X565150Y186690D01*
D17*
X569468Y177800D03*
X497332Y177800D03*
D15*
X528955Y179715D02*
X528955Y168275D01*
X528955Y179715D02*
X534675Y179715D01*
X536582Y177808D01*
X536582Y173995D01*
X534675Y172088D01*
X528955Y172088D01*
X532768Y172088D02*
X536582Y168275D01*
X540649Y175902D02*
X544462Y179715D01*
X544462Y168275D01*
X540649Y168275D02*
X548275Y168275D01*
X556156Y177808D02*
X559969Y179715D01*
X556156Y177808D02*
X552343Y173995D01*
X552343Y170182D01*
X554250Y168275D01*
X558063Y168275D01*
X559969Y170182D01*
X559969Y172088D01*
X558063Y173995D01*
X552343Y173995D01*
D12*
X613410Y255270D02*
X613510Y255272D01*
X613609Y255278D01*
X613709Y255288D01*
X613807Y255301D01*
X613906Y255319D01*
X614003Y255340D01*
X614099Y255365D01*
X614195Y255394D01*
X614289Y255427D01*
X614382Y255463D01*
X614473Y255503D01*
X614563Y255547D01*
X614651Y255594D01*
X614737Y255644D01*
X614821Y255698D01*
X614903Y255755D01*
X614982Y255815D01*
X615060Y255879D01*
X615134Y255945D01*
X615206Y256014D01*
X615275Y256086D01*
X615341Y256160D01*
X615405Y256238D01*
X615465Y256317D01*
X615522Y256399D01*
X615576Y256483D01*
X615626Y256569D01*
X615673Y256657D01*
X615717Y256747D01*
X615757Y256838D01*
X615793Y256931D01*
X615826Y257025D01*
X615855Y257121D01*
X615880Y257217D01*
X615901Y257314D01*
X615919Y257413D01*
X615932Y257511D01*
X615942Y257611D01*
X615948Y257710D01*
X615950Y257810D01*
X615950Y275590D02*
X615948Y275690D01*
X615942Y275789D01*
X615932Y275889D01*
X615919Y275987D01*
X615901Y276086D01*
X615880Y276183D01*
X615855Y276279D01*
X615826Y276375D01*
X615793Y276469D01*
X615757Y276562D01*
X615717Y276653D01*
X615673Y276743D01*
X615626Y276831D01*
X615576Y276917D01*
X615522Y277001D01*
X615465Y277083D01*
X615405Y277162D01*
X615341Y277240D01*
X615275Y277314D01*
X615206Y277386D01*
X615134Y277455D01*
X615060Y277521D01*
X614982Y277585D01*
X614903Y277645D01*
X614821Y277702D01*
X614737Y277756D01*
X614651Y277806D01*
X614563Y277853D01*
X614473Y277897D01*
X614382Y277937D01*
X614289Y277973D01*
X614195Y278006D01*
X614099Y278035D01*
X614003Y278060D01*
X613906Y278081D01*
X613807Y278099D01*
X613709Y278112D01*
X613609Y278122D01*
X613510Y278128D01*
X613410Y278130D01*
X554990Y278130D02*
X554890Y278128D01*
X554791Y278122D01*
X554691Y278112D01*
X554593Y278099D01*
X554494Y278081D01*
X554397Y278060D01*
X554301Y278035D01*
X554205Y278006D01*
X554111Y277973D01*
X554018Y277937D01*
X553927Y277897D01*
X553837Y277853D01*
X553749Y277806D01*
X553663Y277756D01*
X553579Y277702D01*
X553497Y277645D01*
X553418Y277585D01*
X553340Y277521D01*
X553266Y277455D01*
X553194Y277386D01*
X553125Y277314D01*
X553059Y277240D01*
X552995Y277162D01*
X552935Y277083D01*
X552878Y277001D01*
X552824Y276917D01*
X552774Y276831D01*
X552727Y276743D01*
X552683Y276653D01*
X552643Y276562D01*
X552607Y276469D01*
X552574Y276375D01*
X552545Y276279D01*
X552520Y276183D01*
X552499Y276086D01*
X552481Y275987D01*
X552468Y275889D01*
X552458Y275789D01*
X552452Y275690D01*
X552450Y275590D01*
X552450Y257810D02*
X552452Y257710D01*
X552458Y257611D01*
X552468Y257511D01*
X552481Y257413D01*
X552499Y257314D01*
X552520Y257217D01*
X552545Y257121D01*
X552574Y257025D01*
X552607Y256931D01*
X552643Y256838D01*
X552683Y256747D01*
X552727Y256657D01*
X552774Y256569D01*
X552824Y256483D01*
X552878Y256399D01*
X552935Y256317D01*
X552995Y256238D01*
X553059Y256160D01*
X553125Y256086D01*
X553194Y256014D01*
X553266Y255945D01*
X553340Y255879D01*
X553418Y255815D01*
X553497Y255755D01*
X553579Y255698D01*
X553663Y255644D01*
X553749Y255594D01*
X553837Y255547D01*
X553927Y255503D01*
X554018Y255463D01*
X554111Y255427D01*
X554205Y255394D01*
X554301Y255365D01*
X554397Y255340D01*
X554494Y255319D01*
X554593Y255301D01*
X554691Y255288D01*
X554791Y255278D01*
X554890Y255272D01*
X554990Y255270D01*
X615950Y257810D02*
X615950Y275590D01*
X613410Y255270D02*
X609600Y255270D01*
X608330Y256540D01*
X609600Y278130D02*
X613410Y278130D01*
X609600Y278130D02*
X608330Y276860D01*
X560070Y256540D02*
X558800Y255270D01*
X560070Y256540D02*
X608330Y256540D01*
X560070Y276860D02*
X558800Y278130D01*
X560070Y276860D02*
X608330Y276860D01*
X558800Y255270D02*
X554990Y255270D01*
X554990Y278130D02*
X558800Y278130D01*
X552450Y275590D02*
X552450Y257810D01*
D17*
X548132Y266700D03*
X620268Y266700D03*
D15*
X567533Y264795D02*
X567533Y276235D01*
X573253Y276235D01*
X575160Y274328D01*
X575160Y270515D01*
X573253Y268608D01*
X567533Y268608D01*
X571346Y268608D02*
X575160Y264795D01*
X579227Y272422D02*
X583040Y276235D01*
X583040Y264795D01*
X579227Y264795D02*
X586854Y264795D01*
X590921Y276235D02*
X598547Y276235D01*
X598547Y274328D01*
X590921Y266702D01*
X590921Y264795D01*
D12*
X554990Y252730D02*
X554890Y252728D01*
X554791Y252722D01*
X554691Y252712D01*
X554593Y252699D01*
X554494Y252681D01*
X554397Y252660D01*
X554301Y252635D01*
X554205Y252606D01*
X554111Y252573D01*
X554018Y252537D01*
X553927Y252497D01*
X553837Y252453D01*
X553749Y252406D01*
X553663Y252356D01*
X553579Y252302D01*
X553497Y252245D01*
X553418Y252185D01*
X553340Y252121D01*
X553266Y252055D01*
X553194Y251986D01*
X553125Y251914D01*
X553059Y251840D01*
X552995Y251762D01*
X552935Y251683D01*
X552878Y251601D01*
X552824Y251517D01*
X552774Y251431D01*
X552727Y251343D01*
X552683Y251253D01*
X552643Y251162D01*
X552607Y251069D01*
X552574Y250975D01*
X552545Y250879D01*
X552520Y250783D01*
X552499Y250686D01*
X552481Y250587D01*
X552468Y250489D01*
X552458Y250389D01*
X552452Y250290D01*
X552450Y250190D01*
X552450Y232410D02*
X552452Y232310D01*
X552458Y232211D01*
X552468Y232111D01*
X552481Y232013D01*
X552499Y231914D01*
X552520Y231817D01*
X552545Y231721D01*
X552574Y231625D01*
X552607Y231531D01*
X552643Y231438D01*
X552683Y231347D01*
X552727Y231257D01*
X552774Y231169D01*
X552824Y231083D01*
X552878Y230999D01*
X552935Y230917D01*
X552995Y230838D01*
X553059Y230760D01*
X553125Y230686D01*
X553194Y230614D01*
X553266Y230545D01*
X553340Y230479D01*
X553418Y230415D01*
X553497Y230355D01*
X553579Y230298D01*
X553663Y230244D01*
X553749Y230194D01*
X553837Y230147D01*
X553927Y230103D01*
X554018Y230063D01*
X554111Y230027D01*
X554205Y229994D01*
X554301Y229965D01*
X554397Y229940D01*
X554494Y229919D01*
X554593Y229901D01*
X554691Y229888D01*
X554791Y229878D01*
X554890Y229872D01*
X554990Y229870D01*
X613410Y229870D02*
X613510Y229872D01*
X613609Y229878D01*
X613709Y229888D01*
X613807Y229901D01*
X613906Y229919D01*
X614003Y229940D01*
X614099Y229965D01*
X614195Y229994D01*
X614289Y230027D01*
X614382Y230063D01*
X614473Y230103D01*
X614563Y230147D01*
X614651Y230194D01*
X614737Y230244D01*
X614821Y230298D01*
X614903Y230355D01*
X614982Y230415D01*
X615060Y230479D01*
X615134Y230545D01*
X615206Y230614D01*
X615275Y230686D01*
X615341Y230760D01*
X615405Y230838D01*
X615465Y230917D01*
X615522Y230999D01*
X615576Y231083D01*
X615626Y231169D01*
X615673Y231257D01*
X615717Y231347D01*
X615757Y231438D01*
X615793Y231531D01*
X615826Y231625D01*
X615855Y231721D01*
X615880Y231817D01*
X615901Y231914D01*
X615919Y232013D01*
X615932Y232111D01*
X615942Y232211D01*
X615948Y232310D01*
X615950Y232410D01*
X615950Y250190D02*
X615948Y250290D01*
X615942Y250389D01*
X615932Y250489D01*
X615919Y250587D01*
X615901Y250686D01*
X615880Y250783D01*
X615855Y250879D01*
X615826Y250975D01*
X615793Y251069D01*
X615757Y251162D01*
X615717Y251253D01*
X615673Y251343D01*
X615626Y251431D01*
X615576Y251517D01*
X615522Y251601D01*
X615465Y251683D01*
X615405Y251762D01*
X615341Y251840D01*
X615275Y251914D01*
X615206Y251986D01*
X615134Y252055D01*
X615060Y252121D01*
X614982Y252185D01*
X614903Y252245D01*
X614821Y252302D01*
X614737Y252356D01*
X614651Y252406D01*
X614563Y252453D01*
X614473Y252497D01*
X614382Y252537D01*
X614289Y252573D01*
X614195Y252606D01*
X614099Y252635D01*
X614003Y252660D01*
X613906Y252681D01*
X613807Y252699D01*
X613709Y252712D01*
X613609Y252722D01*
X613510Y252728D01*
X613410Y252730D01*
X552450Y250190D02*
X552450Y232410D01*
X554990Y252730D02*
X558800Y252730D01*
X560070Y251460D01*
X558800Y229870D02*
X554990Y229870D01*
X558800Y229870D02*
X560070Y231140D01*
X608330Y251460D02*
X609600Y252730D01*
X608330Y251460D02*
X560070Y251460D01*
X608330Y231140D02*
X609600Y229870D01*
X608330Y231140D02*
X560070Y231140D01*
X609600Y252730D02*
X613410Y252730D01*
X613410Y229870D02*
X609600Y229870D01*
X615950Y232410D02*
X615950Y250190D01*
D17*
X620268Y241300D03*
X548132Y241300D03*
D15*
X567055Y243215D02*
X567055Y231775D01*
X567055Y243215D02*
X572775Y243215D01*
X574682Y241308D01*
X574682Y237495D01*
X572775Y235588D01*
X567055Y235588D01*
X570868Y235588D02*
X574682Y231775D01*
X578749Y239402D02*
X582562Y243215D01*
X582562Y231775D01*
X578749Y231775D02*
X586375Y231775D01*
X590443Y241308D02*
X592350Y243215D01*
X596163Y243215D01*
X598069Y241308D01*
X598069Y239402D01*
X596163Y237495D01*
X598069Y235588D01*
X598069Y233682D01*
X596163Y231775D01*
X592350Y231775D01*
X590443Y233682D01*
X590443Y235588D01*
X592350Y237495D01*
X590443Y239402D01*
X590443Y241308D01*
X592350Y237495D02*
X596163Y237495D01*
D12*
X689610Y166370D02*
X689710Y166372D01*
X689809Y166378D01*
X689909Y166388D01*
X690007Y166401D01*
X690106Y166419D01*
X690203Y166440D01*
X690299Y166465D01*
X690395Y166494D01*
X690489Y166527D01*
X690582Y166563D01*
X690673Y166603D01*
X690763Y166647D01*
X690851Y166694D01*
X690937Y166744D01*
X691021Y166798D01*
X691103Y166855D01*
X691182Y166915D01*
X691260Y166979D01*
X691334Y167045D01*
X691406Y167114D01*
X691475Y167186D01*
X691541Y167260D01*
X691605Y167338D01*
X691665Y167417D01*
X691722Y167499D01*
X691776Y167583D01*
X691826Y167669D01*
X691873Y167757D01*
X691917Y167847D01*
X691957Y167938D01*
X691993Y168031D01*
X692026Y168125D01*
X692055Y168221D01*
X692080Y168317D01*
X692101Y168414D01*
X692119Y168513D01*
X692132Y168611D01*
X692142Y168711D01*
X692148Y168810D01*
X692150Y168910D01*
X692150Y186690D02*
X692148Y186790D01*
X692142Y186889D01*
X692132Y186989D01*
X692119Y187087D01*
X692101Y187186D01*
X692080Y187283D01*
X692055Y187379D01*
X692026Y187475D01*
X691993Y187569D01*
X691957Y187662D01*
X691917Y187753D01*
X691873Y187843D01*
X691826Y187931D01*
X691776Y188017D01*
X691722Y188101D01*
X691665Y188183D01*
X691605Y188262D01*
X691541Y188340D01*
X691475Y188414D01*
X691406Y188486D01*
X691334Y188555D01*
X691260Y188621D01*
X691182Y188685D01*
X691103Y188745D01*
X691021Y188802D01*
X690937Y188856D01*
X690851Y188906D01*
X690763Y188953D01*
X690673Y188997D01*
X690582Y189037D01*
X690489Y189073D01*
X690395Y189106D01*
X690299Y189135D01*
X690203Y189160D01*
X690106Y189181D01*
X690007Y189199D01*
X689909Y189212D01*
X689809Y189222D01*
X689710Y189228D01*
X689610Y189230D01*
X631190Y189230D02*
X631090Y189228D01*
X630991Y189222D01*
X630891Y189212D01*
X630793Y189199D01*
X630694Y189181D01*
X630597Y189160D01*
X630501Y189135D01*
X630405Y189106D01*
X630311Y189073D01*
X630218Y189037D01*
X630127Y188997D01*
X630037Y188953D01*
X629949Y188906D01*
X629863Y188856D01*
X629779Y188802D01*
X629697Y188745D01*
X629618Y188685D01*
X629540Y188621D01*
X629466Y188555D01*
X629394Y188486D01*
X629325Y188414D01*
X629259Y188340D01*
X629195Y188262D01*
X629135Y188183D01*
X629078Y188101D01*
X629024Y188017D01*
X628974Y187931D01*
X628927Y187843D01*
X628883Y187753D01*
X628843Y187662D01*
X628807Y187569D01*
X628774Y187475D01*
X628745Y187379D01*
X628720Y187283D01*
X628699Y187186D01*
X628681Y187087D01*
X628668Y186989D01*
X628658Y186889D01*
X628652Y186790D01*
X628650Y186690D01*
X628650Y168910D02*
X628652Y168810D01*
X628658Y168711D01*
X628668Y168611D01*
X628681Y168513D01*
X628699Y168414D01*
X628720Y168317D01*
X628745Y168221D01*
X628774Y168125D01*
X628807Y168031D01*
X628843Y167938D01*
X628883Y167847D01*
X628927Y167757D01*
X628974Y167669D01*
X629024Y167583D01*
X629078Y167499D01*
X629135Y167417D01*
X629195Y167338D01*
X629259Y167260D01*
X629325Y167186D01*
X629394Y167114D01*
X629466Y167045D01*
X629540Y166979D01*
X629618Y166915D01*
X629697Y166855D01*
X629779Y166798D01*
X629863Y166744D01*
X629949Y166694D01*
X630037Y166647D01*
X630127Y166603D01*
X630218Y166563D01*
X630311Y166527D01*
X630405Y166494D01*
X630501Y166465D01*
X630597Y166440D01*
X630694Y166419D01*
X630793Y166401D01*
X630891Y166388D01*
X630991Y166378D01*
X631090Y166372D01*
X631190Y166370D01*
X692150Y168910D02*
X692150Y186690D01*
X689610Y166370D02*
X685800Y166370D01*
X684530Y167640D01*
X685800Y189230D02*
X689610Y189230D01*
X685800Y189230D02*
X684530Y187960D01*
X636270Y167640D02*
X635000Y166370D01*
X636270Y167640D02*
X684530Y167640D01*
X636270Y187960D02*
X635000Y189230D01*
X636270Y187960D02*
X684530Y187960D01*
X635000Y166370D02*
X631190Y166370D01*
X631190Y189230D02*
X635000Y189230D01*
X628650Y186690D02*
X628650Y168910D01*
D17*
X624332Y177800D03*
X696468Y177800D03*
D15*
X643733Y175895D02*
X643733Y187335D01*
X649453Y187335D01*
X651360Y185428D01*
X651360Y181615D01*
X649453Y179708D01*
X643733Y179708D01*
X647546Y179708D02*
X651360Y175895D01*
X655427Y183522D02*
X659240Y187335D01*
X659240Y175895D01*
X655427Y175895D02*
X663054Y175895D01*
X667121Y177802D02*
X669028Y175895D01*
X672841Y175895D01*
X674747Y177802D01*
X674747Y185428D01*
X672841Y187335D01*
X669028Y187335D01*
X667121Y185428D01*
X667121Y183522D01*
X669028Y181615D01*
X674747Y181615D01*
D12*
X194310Y412750D02*
X194210Y412752D01*
X194111Y412758D01*
X194011Y412768D01*
X193913Y412781D01*
X193814Y412799D01*
X193717Y412820D01*
X193621Y412845D01*
X193525Y412874D01*
X193431Y412907D01*
X193338Y412943D01*
X193247Y412983D01*
X193157Y413027D01*
X193069Y413074D01*
X192983Y413124D01*
X192899Y413178D01*
X192817Y413235D01*
X192738Y413295D01*
X192660Y413359D01*
X192586Y413425D01*
X192514Y413494D01*
X192445Y413566D01*
X192379Y413640D01*
X192315Y413718D01*
X192255Y413797D01*
X192198Y413879D01*
X192144Y413963D01*
X192094Y414049D01*
X192047Y414137D01*
X192003Y414227D01*
X191963Y414318D01*
X191927Y414411D01*
X191894Y414505D01*
X191865Y414601D01*
X191840Y414697D01*
X191819Y414794D01*
X191801Y414893D01*
X191788Y414991D01*
X191778Y415091D01*
X191772Y415190D01*
X191770Y415290D01*
X212090Y412750D02*
X212190Y412752D01*
X212289Y412758D01*
X212389Y412768D01*
X212487Y412781D01*
X212586Y412799D01*
X212683Y412820D01*
X212779Y412845D01*
X212875Y412874D01*
X212969Y412907D01*
X213062Y412943D01*
X213153Y412983D01*
X213243Y413027D01*
X213331Y413074D01*
X213417Y413124D01*
X213501Y413178D01*
X213583Y413235D01*
X213662Y413295D01*
X213740Y413359D01*
X213814Y413425D01*
X213886Y413494D01*
X213955Y413566D01*
X214021Y413640D01*
X214085Y413718D01*
X214145Y413797D01*
X214202Y413879D01*
X214256Y413963D01*
X214306Y414049D01*
X214353Y414137D01*
X214397Y414227D01*
X214437Y414318D01*
X214473Y414411D01*
X214506Y414505D01*
X214535Y414601D01*
X214560Y414697D01*
X214581Y414794D01*
X214599Y414893D01*
X214612Y414991D01*
X214622Y415091D01*
X214628Y415190D01*
X214630Y415290D01*
X214630Y473710D02*
X214628Y473810D01*
X214622Y473909D01*
X214612Y474009D01*
X214599Y474107D01*
X214581Y474206D01*
X214560Y474303D01*
X214535Y474399D01*
X214506Y474495D01*
X214473Y474589D01*
X214437Y474682D01*
X214397Y474773D01*
X214353Y474863D01*
X214306Y474951D01*
X214256Y475037D01*
X214202Y475121D01*
X214145Y475203D01*
X214085Y475282D01*
X214021Y475360D01*
X213955Y475434D01*
X213886Y475506D01*
X213814Y475575D01*
X213740Y475641D01*
X213662Y475705D01*
X213583Y475765D01*
X213501Y475822D01*
X213417Y475876D01*
X213331Y475926D01*
X213243Y475973D01*
X213153Y476017D01*
X213062Y476057D01*
X212969Y476093D01*
X212875Y476126D01*
X212779Y476155D01*
X212683Y476180D01*
X212586Y476201D01*
X212487Y476219D01*
X212389Y476232D01*
X212289Y476242D01*
X212190Y476248D01*
X212090Y476250D01*
X194310Y476250D02*
X194210Y476248D01*
X194111Y476242D01*
X194011Y476232D01*
X193913Y476219D01*
X193814Y476201D01*
X193717Y476180D01*
X193621Y476155D01*
X193525Y476126D01*
X193431Y476093D01*
X193338Y476057D01*
X193247Y476017D01*
X193157Y475973D01*
X193069Y475926D01*
X192983Y475876D01*
X192899Y475822D01*
X192817Y475765D01*
X192738Y475705D01*
X192660Y475641D01*
X192586Y475575D01*
X192514Y475506D01*
X192445Y475434D01*
X192379Y475360D01*
X192315Y475282D01*
X192255Y475203D01*
X192198Y475121D01*
X192144Y475037D01*
X192094Y474951D01*
X192047Y474863D01*
X192003Y474773D01*
X191963Y474682D01*
X191927Y474589D01*
X191894Y474495D01*
X191865Y474399D01*
X191840Y474303D01*
X191819Y474206D01*
X191801Y474107D01*
X191788Y474009D01*
X191778Y473909D01*
X191772Y473810D01*
X191770Y473710D01*
X194310Y412750D02*
X212090Y412750D01*
X191770Y415290D02*
X191770Y419100D01*
X193040Y420370D01*
X214630Y419100D02*
X214630Y415290D01*
X214630Y419100D02*
X213360Y420370D01*
X193040Y468630D02*
X191770Y469900D01*
X193040Y468630D02*
X193040Y420370D01*
X213360Y468630D02*
X214630Y469900D01*
X213360Y468630D02*
X213360Y420370D01*
X191770Y469900D02*
X191770Y473710D01*
X214630Y473710D02*
X214630Y469900D01*
X212090Y476250D02*
X194310Y476250D01*
D16*
X203200Y480568D03*
X203200Y408432D03*
D15*
X201285Y440055D02*
X212725Y440055D01*
X201285Y440055D02*
X201285Y445775D01*
X203192Y447682D01*
X207005Y447682D01*
X208912Y445775D01*
X208912Y440055D01*
X208912Y443868D02*
X212725Y447682D01*
X212725Y451749D02*
X212725Y459375D01*
X212725Y451749D02*
X205099Y459375D01*
X203192Y459375D01*
X201285Y457469D01*
X201285Y453656D01*
X203192Y451749D01*
D12*
X628650Y161290D02*
X628652Y161390D01*
X628658Y161489D01*
X628668Y161589D01*
X628681Y161687D01*
X628699Y161786D01*
X628720Y161883D01*
X628745Y161979D01*
X628774Y162075D01*
X628807Y162169D01*
X628843Y162262D01*
X628883Y162353D01*
X628927Y162443D01*
X628974Y162531D01*
X629024Y162617D01*
X629078Y162701D01*
X629135Y162783D01*
X629195Y162862D01*
X629259Y162940D01*
X629325Y163014D01*
X629394Y163086D01*
X629466Y163155D01*
X629540Y163221D01*
X629618Y163285D01*
X629697Y163345D01*
X629779Y163402D01*
X629863Y163456D01*
X629949Y163506D01*
X630037Y163553D01*
X630127Y163597D01*
X630218Y163637D01*
X630311Y163673D01*
X630405Y163706D01*
X630501Y163735D01*
X630597Y163760D01*
X630694Y163781D01*
X630793Y163799D01*
X630891Y163812D01*
X630991Y163822D01*
X631090Y163828D01*
X631190Y163830D01*
X628650Y143510D02*
X628652Y143410D01*
X628658Y143311D01*
X628668Y143211D01*
X628681Y143113D01*
X628699Y143014D01*
X628720Y142917D01*
X628745Y142821D01*
X628774Y142725D01*
X628807Y142631D01*
X628843Y142538D01*
X628883Y142447D01*
X628927Y142357D01*
X628974Y142269D01*
X629024Y142183D01*
X629078Y142099D01*
X629135Y142017D01*
X629195Y141938D01*
X629259Y141860D01*
X629325Y141786D01*
X629394Y141714D01*
X629466Y141645D01*
X629540Y141579D01*
X629618Y141515D01*
X629697Y141455D01*
X629779Y141398D01*
X629863Y141344D01*
X629949Y141294D01*
X630037Y141247D01*
X630127Y141203D01*
X630218Y141163D01*
X630311Y141127D01*
X630405Y141094D01*
X630501Y141065D01*
X630597Y141040D01*
X630694Y141019D01*
X630793Y141001D01*
X630891Y140988D01*
X630991Y140978D01*
X631090Y140972D01*
X631190Y140970D01*
X689610Y140970D02*
X689710Y140972D01*
X689809Y140978D01*
X689909Y140988D01*
X690007Y141001D01*
X690106Y141019D01*
X690203Y141040D01*
X690299Y141065D01*
X690395Y141094D01*
X690489Y141127D01*
X690582Y141163D01*
X690673Y141203D01*
X690763Y141247D01*
X690851Y141294D01*
X690937Y141344D01*
X691021Y141398D01*
X691103Y141455D01*
X691182Y141515D01*
X691260Y141579D01*
X691334Y141645D01*
X691406Y141714D01*
X691475Y141786D01*
X691541Y141860D01*
X691605Y141938D01*
X691665Y142017D01*
X691722Y142099D01*
X691776Y142183D01*
X691826Y142269D01*
X691873Y142357D01*
X691917Y142447D01*
X691957Y142538D01*
X691993Y142631D01*
X692026Y142725D01*
X692055Y142821D01*
X692080Y142917D01*
X692101Y143014D01*
X692119Y143113D01*
X692132Y143211D01*
X692142Y143311D01*
X692148Y143410D01*
X692150Y143510D01*
X692150Y161290D02*
X692148Y161390D01*
X692142Y161489D01*
X692132Y161589D01*
X692119Y161687D01*
X692101Y161786D01*
X692080Y161883D01*
X692055Y161979D01*
X692026Y162075D01*
X691993Y162169D01*
X691957Y162262D01*
X691917Y162353D01*
X691873Y162443D01*
X691826Y162531D01*
X691776Y162617D01*
X691722Y162701D01*
X691665Y162783D01*
X691605Y162862D01*
X691541Y162940D01*
X691475Y163014D01*
X691406Y163086D01*
X691334Y163155D01*
X691260Y163221D01*
X691182Y163285D01*
X691103Y163345D01*
X691021Y163402D01*
X690937Y163456D01*
X690851Y163506D01*
X690763Y163553D01*
X690673Y163597D01*
X690582Y163637D01*
X690489Y163673D01*
X690395Y163706D01*
X690299Y163735D01*
X690203Y163760D01*
X690106Y163781D01*
X690007Y163799D01*
X689909Y163812D01*
X689809Y163822D01*
X689710Y163828D01*
X689610Y163830D01*
X628650Y161290D02*
X628650Y143510D01*
X631190Y163830D02*
X635000Y163830D01*
X636270Y162560D01*
X635000Y140970D02*
X631190Y140970D01*
X635000Y140970D02*
X636270Y142240D01*
X684530Y162560D02*
X685800Y163830D01*
X684530Y162560D02*
X636270Y162560D01*
X684530Y142240D02*
X685800Y140970D01*
X684530Y142240D02*
X636270Y142240D01*
X685800Y163830D02*
X689610Y163830D01*
X689610Y140970D02*
X685800Y140970D01*
X692150Y143510D02*
X692150Y161290D01*
D17*
X696468Y152400D03*
X624332Y152400D03*
D15*
X643255Y154315D02*
X643255Y142875D01*
X643255Y154315D02*
X648975Y154315D01*
X650882Y152408D01*
X650882Y148595D01*
X648975Y146688D01*
X643255Y146688D01*
X647068Y146688D02*
X650882Y142875D01*
X654949Y142875D02*
X662575Y142875D01*
X654949Y142875D02*
X662575Y150502D01*
X662575Y152408D01*
X660669Y154315D01*
X656856Y154315D01*
X654949Y152408D01*
X666643Y152408D02*
X666643Y144782D01*
X666643Y152408D02*
X668550Y154315D01*
X672363Y154315D01*
X674269Y152408D01*
X674269Y144782D01*
X672363Y142875D01*
X668550Y142875D01*
X666643Y144782D01*
X674269Y152408D01*
D12*
X679450Y250190D02*
X679452Y250290D01*
X679458Y250389D01*
X679468Y250489D01*
X679481Y250587D01*
X679499Y250686D01*
X679520Y250783D01*
X679545Y250879D01*
X679574Y250975D01*
X679607Y251069D01*
X679643Y251162D01*
X679683Y251253D01*
X679727Y251343D01*
X679774Y251431D01*
X679824Y251517D01*
X679878Y251601D01*
X679935Y251683D01*
X679995Y251762D01*
X680059Y251840D01*
X680125Y251914D01*
X680194Y251986D01*
X680266Y252055D01*
X680340Y252121D01*
X680418Y252185D01*
X680497Y252245D01*
X680579Y252302D01*
X680663Y252356D01*
X680749Y252406D01*
X680837Y252453D01*
X680927Y252497D01*
X681018Y252537D01*
X681111Y252573D01*
X681205Y252606D01*
X681301Y252635D01*
X681397Y252660D01*
X681494Y252681D01*
X681593Y252699D01*
X681691Y252712D01*
X681791Y252722D01*
X681890Y252728D01*
X681990Y252730D01*
X679450Y232410D02*
X679452Y232310D01*
X679458Y232211D01*
X679468Y232111D01*
X679481Y232013D01*
X679499Y231914D01*
X679520Y231817D01*
X679545Y231721D01*
X679574Y231625D01*
X679607Y231531D01*
X679643Y231438D01*
X679683Y231347D01*
X679727Y231257D01*
X679774Y231169D01*
X679824Y231083D01*
X679878Y230999D01*
X679935Y230917D01*
X679995Y230838D01*
X680059Y230760D01*
X680125Y230686D01*
X680194Y230614D01*
X680266Y230545D01*
X680340Y230479D01*
X680418Y230415D01*
X680497Y230355D01*
X680579Y230298D01*
X680663Y230244D01*
X680749Y230194D01*
X680837Y230147D01*
X680927Y230103D01*
X681018Y230063D01*
X681111Y230027D01*
X681205Y229994D01*
X681301Y229965D01*
X681397Y229940D01*
X681494Y229919D01*
X681593Y229901D01*
X681691Y229888D01*
X681791Y229878D01*
X681890Y229872D01*
X681990Y229870D01*
X740410Y229870D02*
X740510Y229872D01*
X740609Y229878D01*
X740709Y229888D01*
X740807Y229901D01*
X740906Y229919D01*
X741003Y229940D01*
X741099Y229965D01*
X741195Y229994D01*
X741289Y230027D01*
X741382Y230063D01*
X741473Y230103D01*
X741563Y230147D01*
X741651Y230194D01*
X741737Y230244D01*
X741821Y230298D01*
X741903Y230355D01*
X741982Y230415D01*
X742060Y230479D01*
X742134Y230545D01*
X742206Y230614D01*
X742275Y230686D01*
X742341Y230760D01*
X742405Y230838D01*
X742465Y230917D01*
X742522Y230999D01*
X742576Y231083D01*
X742626Y231169D01*
X742673Y231257D01*
X742717Y231347D01*
X742757Y231438D01*
X742793Y231531D01*
X742826Y231625D01*
X742855Y231721D01*
X742880Y231817D01*
X742901Y231914D01*
X742919Y232013D01*
X742932Y232111D01*
X742942Y232211D01*
X742948Y232310D01*
X742950Y232410D01*
X742950Y250190D02*
X742948Y250290D01*
X742942Y250389D01*
X742932Y250489D01*
X742919Y250587D01*
X742901Y250686D01*
X742880Y250783D01*
X742855Y250879D01*
X742826Y250975D01*
X742793Y251069D01*
X742757Y251162D01*
X742717Y251253D01*
X742673Y251343D01*
X742626Y251431D01*
X742576Y251517D01*
X742522Y251601D01*
X742465Y251683D01*
X742405Y251762D01*
X742341Y251840D01*
X742275Y251914D01*
X742206Y251986D01*
X742134Y252055D01*
X742060Y252121D01*
X741982Y252185D01*
X741903Y252245D01*
X741821Y252302D01*
X741737Y252356D01*
X741651Y252406D01*
X741563Y252453D01*
X741473Y252497D01*
X741382Y252537D01*
X741289Y252573D01*
X741195Y252606D01*
X741099Y252635D01*
X741003Y252660D01*
X740906Y252681D01*
X740807Y252699D01*
X740709Y252712D01*
X740609Y252722D01*
X740510Y252728D01*
X740410Y252730D01*
X679450Y250190D02*
X679450Y232410D01*
X681990Y252730D02*
X685800Y252730D01*
X687070Y251460D01*
X685800Y229870D02*
X681990Y229870D01*
X685800Y229870D02*
X687070Y231140D01*
X735330Y251460D02*
X736600Y252730D01*
X735330Y251460D02*
X687070Y251460D01*
X735330Y231140D02*
X736600Y229870D01*
X735330Y231140D02*
X687070Y231140D01*
X736600Y252730D02*
X740410Y252730D01*
X740410Y229870D02*
X736600Y229870D01*
X742950Y232410D02*
X742950Y250190D01*
D17*
X747268Y241300D03*
X675132Y241300D03*
D15*
X694055Y243215D02*
X694055Y231775D01*
X694055Y243215D02*
X699775Y243215D01*
X701682Y241308D01*
X701682Y237495D01*
X699775Y235588D01*
X694055Y235588D01*
X697868Y235588D02*
X701682Y231775D01*
X705749Y231775D02*
X713375Y231775D01*
X705749Y231775D02*
X713375Y239402D01*
X713375Y241308D01*
X711469Y243215D01*
X707656Y243215D01*
X705749Y241308D01*
X717443Y239402D02*
X721256Y243215D01*
X721256Y231775D01*
X717443Y231775D02*
X725069Y231775D01*
D12*
X740410Y255270D02*
X740510Y255272D01*
X740609Y255278D01*
X740709Y255288D01*
X740807Y255301D01*
X740906Y255319D01*
X741003Y255340D01*
X741099Y255365D01*
X741195Y255394D01*
X741289Y255427D01*
X741382Y255463D01*
X741473Y255503D01*
X741563Y255547D01*
X741651Y255594D01*
X741737Y255644D01*
X741821Y255698D01*
X741903Y255755D01*
X741982Y255815D01*
X742060Y255879D01*
X742134Y255945D01*
X742206Y256014D01*
X742275Y256086D01*
X742341Y256160D01*
X742405Y256238D01*
X742465Y256317D01*
X742522Y256399D01*
X742576Y256483D01*
X742626Y256569D01*
X742673Y256657D01*
X742717Y256747D01*
X742757Y256838D01*
X742793Y256931D01*
X742826Y257025D01*
X742855Y257121D01*
X742880Y257217D01*
X742901Y257314D01*
X742919Y257413D01*
X742932Y257511D01*
X742942Y257611D01*
X742948Y257710D01*
X742950Y257810D01*
X742950Y275590D02*
X742948Y275690D01*
X742942Y275789D01*
X742932Y275889D01*
X742919Y275987D01*
X742901Y276086D01*
X742880Y276183D01*
X742855Y276279D01*
X742826Y276375D01*
X742793Y276469D01*
X742757Y276562D01*
X742717Y276653D01*
X742673Y276743D01*
X742626Y276831D01*
X742576Y276917D01*
X742522Y277001D01*
X742465Y277083D01*
X742405Y277162D01*
X742341Y277240D01*
X742275Y277314D01*
X742206Y277386D01*
X742134Y277455D01*
X742060Y277521D01*
X741982Y277585D01*
X741903Y277645D01*
X741821Y277702D01*
X741737Y277756D01*
X741651Y277806D01*
X741563Y277853D01*
X741473Y277897D01*
X741382Y277937D01*
X741289Y277973D01*
X741195Y278006D01*
X741099Y278035D01*
X741003Y278060D01*
X740906Y278081D01*
X740807Y278099D01*
X740709Y278112D01*
X740609Y278122D01*
X740510Y278128D01*
X740410Y278130D01*
X681990Y278130D02*
X681890Y278128D01*
X681791Y278122D01*
X681691Y278112D01*
X681593Y278099D01*
X681494Y278081D01*
X681397Y278060D01*
X681301Y278035D01*
X681205Y278006D01*
X681111Y277973D01*
X681018Y277937D01*
X680927Y277897D01*
X680837Y277853D01*
X680749Y277806D01*
X680663Y277756D01*
X680579Y277702D01*
X680497Y277645D01*
X680418Y277585D01*
X680340Y277521D01*
X680266Y277455D01*
X680194Y277386D01*
X680125Y277314D01*
X680059Y277240D01*
X679995Y277162D01*
X679935Y277083D01*
X679878Y277001D01*
X679824Y276917D01*
X679774Y276831D01*
X679727Y276743D01*
X679683Y276653D01*
X679643Y276562D01*
X679607Y276469D01*
X679574Y276375D01*
X679545Y276279D01*
X679520Y276183D01*
X679499Y276086D01*
X679481Y275987D01*
X679468Y275889D01*
X679458Y275789D01*
X679452Y275690D01*
X679450Y275590D01*
X679450Y257810D02*
X679452Y257710D01*
X679458Y257611D01*
X679468Y257511D01*
X679481Y257413D01*
X679499Y257314D01*
X679520Y257217D01*
X679545Y257121D01*
X679574Y257025D01*
X679607Y256931D01*
X679643Y256838D01*
X679683Y256747D01*
X679727Y256657D01*
X679774Y256569D01*
X679824Y256483D01*
X679878Y256399D01*
X679935Y256317D01*
X679995Y256238D01*
X680059Y256160D01*
X680125Y256086D01*
X680194Y256014D01*
X680266Y255945D01*
X680340Y255879D01*
X680418Y255815D01*
X680497Y255755D01*
X680579Y255698D01*
X680663Y255644D01*
X680749Y255594D01*
X680837Y255547D01*
X680927Y255503D01*
X681018Y255463D01*
X681111Y255427D01*
X681205Y255394D01*
X681301Y255365D01*
X681397Y255340D01*
X681494Y255319D01*
X681593Y255301D01*
X681691Y255288D01*
X681791Y255278D01*
X681890Y255272D01*
X681990Y255270D01*
X742950Y257810D02*
X742950Y275590D01*
X740410Y255270D02*
X736600Y255270D01*
X735330Y256540D01*
X736600Y278130D02*
X740410Y278130D01*
X736600Y278130D02*
X735330Y276860D01*
X687070Y256540D02*
X685800Y255270D01*
X687070Y256540D02*
X735330Y256540D01*
X687070Y276860D02*
X685800Y278130D01*
X687070Y276860D02*
X735330Y276860D01*
X685800Y255270D02*
X681990Y255270D01*
X681990Y278130D02*
X685800Y278130D01*
X679450Y275590D02*
X679450Y257810D01*
D17*
X675132Y266700D03*
X747268Y266700D03*
D15*
X681833Y264795D02*
X681833Y276235D01*
X687553Y276235D01*
X689460Y274328D01*
X689460Y270515D01*
X687553Y268608D01*
X681833Y268608D01*
X685646Y268608D02*
X689460Y264795D01*
X693527Y264795D02*
X701154Y264795D01*
X693527Y264795D02*
X701154Y272422D01*
X701154Y274328D01*
X699247Y276235D01*
X695434Y276235D01*
X693527Y274328D01*
X705221Y264795D02*
X712847Y264795D01*
X705221Y264795D02*
X712847Y272422D01*
X712847Y274328D01*
X710941Y276235D01*
X707128Y276235D01*
X705221Y274328D01*
D12*
X679450Y300990D02*
X679452Y301090D01*
X679458Y301189D01*
X679468Y301289D01*
X679481Y301387D01*
X679499Y301486D01*
X679520Y301583D01*
X679545Y301679D01*
X679574Y301775D01*
X679607Y301869D01*
X679643Y301962D01*
X679683Y302053D01*
X679727Y302143D01*
X679774Y302231D01*
X679824Y302317D01*
X679878Y302401D01*
X679935Y302483D01*
X679995Y302562D01*
X680059Y302640D01*
X680125Y302714D01*
X680194Y302786D01*
X680266Y302855D01*
X680340Y302921D01*
X680418Y302985D01*
X680497Y303045D01*
X680579Y303102D01*
X680663Y303156D01*
X680749Y303206D01*
X680837Y303253D01*
X680927Y303297D01*
X681018Y303337D01*
X681111Y303373D01*
X681205Y303406D01*
X681301Y303435D01*
X681397Y303460D01*
X681494Y303481D01*
X681593Y303499D01*
X681691Y303512D01*
X681791Y303522D01*
X681890Y303528D01*
X681990Y303530D01*
X679450Y283210D02*
X679452Y283110D01*
X679458Y283011D01*
X679468Y282911D01*
X679481Y282813D01*
X679499Y282714D01*
X679520Y282617D01*
X679545Y282521D01*
X679574Y282425D01*
X679607Y282331D01*
X679643Y282238D01*
X679683Y282147D01*
X679727Y282057D01*
X679774Y281969D01*
X679824Y281883D01*
X679878Y281799D01*
X679935Y281717D01*
X679995Y281638D01*
X680059Y281560D01*
X680125Y281486D01*
X680194Y281414D01*
X680266Y281345D01*
X680340Y281279D01*
X680418Y281215D01*
X680497Y281155D01*
X680579Y281098D01*
X680663Y281044D01*
X680749Y280994D01*
X680837Y280947D01*
X680927Y280903D01*
X681018Y280863D01*
X681111Y280827D01*
X681205Y280794D01*
X681301Y280765D01*
X681397Y280740D01*
X681494Y280719D01*
X681593Y280701D01*
X681691Y280688D01*
X681791Y280678D01*
X681890Y280672D01*
X681990Y280670D01*
X740410Y280670D02*
X740510Y280672D01*
X740609Y280678D01*
X740709Y280688D01*
X740807Y280701D01*
X740906Y280719D01*
X741003Y280740D01*
X741099Y280765D01*
X741195Y280794D01*
X741289Y280827D01*
X741382Y280863D01*
X741473Y280903D01*
X741563Y280947D01*
X741651Y280994D01*
X741737Y281044D01*
X741821Y281098D01*
X741903Y281155D01*
X741982Y281215D01*
X742060Y281279D01*
X742134Y281345D01*
X742206Y281414D01*
X742275Y281486D01*
X742341Y281560D01*
X742405Y281638D01*
X742465Y281717D01*
X742522Y281799D01*
X742576Y281883D01*
X742626Y281969D01*
X742673Y282057D01*
X742717Y282147D01*
X742757Y282238D01*
X742793Y282331D01*
X742826Y282425D01*
X742855Y282521D01*
X742880Y282617D01*
X742901Y282714D01*
X742919Y282813D01*
X742932Y282911D01*
X742942Y283011D01*
X742948Y283110D01*
X742950Y283210D01*
X742950Y300990D02*
X742948Y301090D01*
X742942Y301189D01*
X742932Y301289D01*
X742919Y301387D01*
X742901Y301486D01*
X742880Y301583D01*
X742855Y301679D01*
X742826Y301775D01*
X742793Y301869D01*
X742757Y301962D01*
X742717Y302053D01*
X742673Y302143D01*
X742626Y302231D01*
X742576Y302317D01*
X742522Y302401D01*
X742465Y302483D01*
X742405Y302562D01*
X742341Y302640D01*
X742275Y302714D01*
X742206Y302786D01*
X742134Y302855D01*
X742060Y302921D01*
X741982Y302985D01*
X741903Y303045D01*
X741821Y303102D01*
X741737Y303156D01*
X741651Y303206D01*
X741563Y303253D01*
X741473Y303297D01*
X741382Y303337D01*
X741289Y303373D01*
X741195Y303406D01*
X741099Y303435D01*
X741003Y303460D01*
X740906Y303481D01*
X740807Y303499D01*
X740709Y303512D01*
X740609Y303522D01*
X740510Y303528D01*
X740410Y303530D01*
X679450Y300990D02*
X679450Y283210D01*
X681990Y303530D02*
X685800Y303530D01*
X687070Y302260D01*
X685800Y280670D02*
X681990Y280670D01*
X685800Y280670D02*
X687070Y281940D01*
X735330Y302260D02*
X736600Y303530D01*
X735330Y302260D02*
X687070Y302260D01*
X735330Y281940D02*
X736600Y280670D01*
X735330Y281940D02*
X687070Y281940D01*
X736600Y303530D02*
X740410Y303530D01*
X740410Y280670D02*
X736600Y280670D01*
X742950Y283210D02*
X742950Y300990D01*
D17*
X747268Y292100D03*
X675132Y292100D03*
D15*
X681355Y307975D02*
X681355Y319415D01*
X687075Y319415D01*
X688982Y317508D01*
X688982Y313695D01*
X687075Y311788D01*
X681355Y311788D01*
X685168Y311788D02*
X688982Y307975D01*
X693049Y307975D02*
X700675Y307975D01*
X693049Y307975D02*
X700675Y315602D01*
X700675Y317508D01*
X698769Y319415D01*
X694956Y319415D01*
X693049Y317508D01*
X704743Y317508D02*
X706650Y319415D01*
X710463Y319415D01*
X712369Y317508D01*
X712369Y315602D01*
X710463Y313695D01*
X708556Y313695D01*
X710463Y313695D02*
X712369Y311788D01*
X712369Y309882D01*
X710463Y307975D01*
X706650Y307975D01*
X704743Y309882D01*
D12*
X713740Y370840D02*
X720090Y370840D01*
X720090Y365760D01*
X713740Y365760D01*
X713740Y359410D01*
X708660Y359410D01*
X708660Y365760D01*
X702310Y365760D01*
X702310Y370840D01*
X708660Y370840D01*
X708660Y377190D01*
X713740Y377190D01*
X713740Y370840D01*
X749300Y359410D02*
X749300Y334010D01*
X702310Y377190D02*
X697230Y382270D01*
X702310Y359410D02*
X697230Y354330D01*
X711200Y382270D02*
X711200Y387350D01*
X711200Y354330D02*
X711200Y349250D01*
X721360Y378460D02*
X723900Y381000D01*
X721360Y358140D02*
X723900Y355600D01*
X673100Y351790D02*
X673100Y384810D01*
X673100Y334010D02*
X673102Y333888D01*
X673108Y333766D01*
X673118Y333644D01*
X673131Y333523D01*
X673149Y333402D01*
X673170Y333282D01*
X673196Y333162D01*
X673225Y333044D01*
X673257Y332926D01*
X673294Y332809D01*
X673334Y332694D01*
X673378Y332580D01*
X673426Y332468D01*
X673477Y332357D01*
X673532Y332248D01*
X673590Y332140D01*
X673652Y332035D01*
X673717Y331932D01*
X673785Y331830D01*
X673857Y331731D01*
X673931Y331635D01*
X674009Y331540D01*
X674090Y331449D01*
X674173Y331359D01*
X674259Y331273D01*
X674349Y331190D01*
X674440Y331109D01*
X674535Y331031D01*
X674631Y330957D01*
X674730Y330885D01*
X674832Y330817D01*
X674935Y330752D01*
X675040Y330690D01*
X675148Y330632D01*
X675257Y330577D01*
X675368Y330526D01*
X675480Y330478D01*
X675594Y330434D01*
X675709Y330394D01*
X675826Y330357D01*
X675944Y330325D01*
X676062Y330296D01*
X676182Y330270D01*
X676302Y330249D01*
X676423Y330231D01*
X676544Y330218D01*
X676666Y330208D01*
X676788Y330202D01*
X676910Y330200D01*
X745490Y330200D02*
X745612Y330202D01*
X745734Y330208D01*
X745856Y330218D01*
X745977Y330231D01*
X746098Y330249D01*
X746218Y330270D01*
X746338Y330296D01*
X746456Y330325D01*
X746574Y330357D01*
X746691Y330394D01*
X746806Y330434D01*
X746920Y330478D01*
X747032Y330526D01*
X747143Y330577D01*
X747252Y330632D01*
X747360Y330690D01*
X747465Y330752D01*
X747568Y330817D01*
X747670Y330885D01*
X747769Y330957D01*
X747865Y331031D01*
X747960Y331109D01*
X748051Y331190D01*
X748141Y331273D01*
X748227Y331359D01*
X748310Y331449D01*
X748391Y331540D01*
X748469Y331635D01*
X748543Y331731D01*
X748615Y331830D01*
X748683Y331932D01*
X748748Y332035D01*
X748810Y332140D01*
X748868Y332248D01*
X748923Y332357D01*
X748974Y332468D01*
X749022Y332580D01*
X749066Y332694D01*
X749106Y332809D01*
X749143Y332926D01*
X749175Y333044D01*
X749204Y333162D01*
X749230Y333282D01*
X749251Y333402D01*
X749269Y333523D01*
X749282Y333644D01*
X749292Y333766D01*
X749298Y333888D01*
X749300Y334010D01*
X749300Y402590D02*
X749298Y402712D01*
X749292Y402834D01*
X749282Y402956D01*
X749269Y403077D01*
X749251Y403198D01*
X749230Y403318D01*
X749204Y403438D01*
X749175Y403556D01*
X749143Y403674D01*
X749106Y403791D01*
X749066Y403906D01*
X749022Y404020D01*
X748974Y404132D01*
X748923Y404243D01*
X748868Y404352D01*
X748810Y404460D01*
X748748Y404565D01*
X748683Y404668D01*
X748615Y404770D01*
X748543Y404869D01*
X748469Y404965D01*
X748391Y405060D01*
X748310Y405151D01*
X748227Y405241D01*
X748141Y405327D01*
X748051Y405410D01*
X747960Y405491D01*
X747865Y405569D01*
X747769Y405643D01*
X747670Y405715D01*
X747568Y405783D01*
X747465Y405848D01*
X747360Y405910D01*
X747252Y405968D01*
X747143Y406023D01*
X747032Y406074D01*
X746920Y406122D01*
X746806Y406166D01*
X746691Y406206D01*
X746574Y406243D01*
X746456Y406275D01*
X746338Y406304D01*
X746218Y406330D01*
X746098Y406351D01*
X745977Y406369D01*
X745856Y406382D01*
X745734Y406392D01*
X745612Y406398D01*
X745490Y406400D01*
X676910Y406400D02*
X676788Y406398D01*
X676666Y406392D01*
X676544Y406382D01*
X676423Y406369D01*
X676302Y406351D01*
X676182Y406330D01*
X676062Y406304D01*
X675944Y406275D01*
X675826Y406243D01*
X675709Y406206D01*
X675594Y406166D01*
X675480Y406122D01*
X675368Y406074D01*
X675257Y406023D01*
X675148Y405968D01*
X675040Y405910D01*
X674935Y405848D01*
X674832Y405783D01*
X674730Y405715D01*
X674631Y405643D01*
X674535Y405569D01*
X674440Y405491D01*
X674349Y405410D01*
X674259Y405327D01*
X674173Y405241D01*
X674090Y405151D01*
X674009Y405060D01*
X673931Y404965D01*
X673857Y404869D01*
X673785Y404770D01*
X673717Y404668D01*
X673652Y404565D01*
X673590Y404460D01*
X673532Y404352D01*
X673477Y404243D01*
X673426Y404132D01*
X673378Y404020D01*
X673334Y403906D01*
X673294Y403791D01*
X673257Y403674D01*
X673225Y403556D01*
X673196Y403438D01*
X673170Y403318D01*
X673149Y403198D01*
X673131Y403077D01*
X673118Y402956D01*
X673108Y402834D01*
X673102Y402712D01*
X673100Y402590D01*
X749300Y402590D02*
X749300Y377190D01*
X745490Y330200D02*
X695960Y330200D01*
X695960Y406400D02*
X745490Y406400D01*
D15*
X753735Y359253D02*
X765175Y359253D01*
X753735Y359253D02*
X753735Y364973D01*
X755642Y366880D01*
X759455Y366880D01*
X761362Y364973D01*
X761362Y359253D01*
X761362Y363066D02*
X765175Y366880D01*
X765175Y370947D02*
X765175Y378574D01*
X757549Y378574D02*
X765175Y370947D01*
X757549Y378574D02*
X755642Y378574D01*
X753735Y376667D01*
X753735Y372854D01*
X755642Y370947D01*
X753735Y388361D02*
X765175Y388361D01*
X759455Y382641D02*
X753735Y388361D01*
X759455Y390267D02*
X759455Y382641D01*
D12*
X405130Y524510D02*
X405128Y524610D01*
X405122Y524709D01*
X405112Y524809D01*
X405099Y524907D01*
X405081Y525006D01*
X405060Y525103D01*
X405035Y525199D01*
X405006Y525295D01*
X404973Y525389D01*
X404937Y525482D01*
X404897Y525573D01*
X404853Y525663D01*
X404806Y525751D01*
X404756Y525837D01*
X404702Y525921D01*
X404645Y526003D01*
X404585Y526082D01*
X404521Y526160D01*
X404455Y526234D01*
X404386Y526306D01*
X404314Y526375D01*
X404240Y526441D01*
X404162Y526505D01*
X404083Y526565D01*
X404001Y526622D01*
X403917Y526676D01*
X403831Y526726D01*
X403743Y526773D01*
X403653Y526817D01*
X403562Y526857D01*
X403469Y526893D01*
X403375Y526926D01*
X403279Y526955D01*
X403183Y526980D01*
X403086Y527001D01*
X402987Y527019D01*
X402889Y527032D01*
X402789Y527042D01*
X402690Y527048D01*
X402590Y527050D01*
X384810Y527050D02*
X384710Y527048D01*
X384611Y527042D01*
X384511Y527032D01*
X384413Y527019D01*
X384314Y527001D01*
X384217Y526980D01*
X384121Y526955D01*
X384025Y526926D01*
X383931Y526893D01*
X383838Y526857D01*
X383747Y526817D01*
X383657Y526773D01*
X383569Y526726D01*
X383483Y526676D01*
X383399Y526622D01*
X383317Y526565D01*
X383238Y526505D01*
X383160Y526441D01*
X383086Y526375D01*
X383014Y526306D01*
X382945Y526234D01*
X382879Y526160D01*
X382815Y526082D01*
X382755Y526003D01*
X382698Y525921D01*
X382644Y525837D01*
X382594Y525751D01*
X382547Y525663D01*
X382503Y525573D01*
X382463Y525482D01*
X382427Y525389D01*
X382394Y525295D01*
X382365Y525199D01*
X382340Y525103D01*
X382319Y525006D01*
X382301Y524907D01*
X382288Y524809D01*
X382278Y524709D01*
X382272Y524610D01*
X382270Y524510D01*
X382270Y466090D02*
X382272Y465990D01*
X382278Y465891D01*
X382288Y465791D01*
X382301Y465693D01*
X382319Y465594D01*
X382340Y465497D01*
X382365Y465401D01*
X382394Y465305D01*
X382427Y465211D01*
X382463Y465118D01*
X382503Y465027D01*
X382547Y464937D01*
X382594Y464849D01*
X382644Y464763D01*
X382698Y464679D01*
X382755Y464597D01*
X382815Y464518D01*
X382879Y464440D01*
X382945Y464366D01*
X383014Y464294D01*
X383086Y464225D01*
X383160Y464159D01*
X383238Y464095D01*
X383317Y464035D01*
X383399Y463978D01*
X383483Y463924D01*
X383569Y463874D01*
X383657Y463827D01*
X383747Y463783D01*
X383838Y463743D01*
X383931Y463707D01*
X384025Y463674D01*
X384121Y463645D01*
X384217Y463620D01*
X384314Y463599D01*
X384413Y463581D01*
X384511Y463568D01*
X384611Y463558D01*
X384710Y463552D01*
X384810Y463550D01*
X402590Y463550D02*
X402690Y463552D01*
X402789Y463558D01*
X402889Y463568D01*
X402987Y463581D01*
X403086Y463599D01*
X403183Y463620D01*
X403279Y463645D01*
X403375Y463674D01*
X403469Y463707D01*
X403562Y463743D01*
X403653Y463783D01*
X403743Y463827D01*
X403831Y463874D01*
X403917Y463924D01*
X404001Y463978D01*
X404083Y464035D01*
X404162Y464095D01*
X404240Y464159D01*
X404314Y464225D01*
X404386Y464294D01*
X404455Y464366D01*
X404521Y464440D01*
X404585Y464518D01*
X404645Y464597D01*
X404702Y464679D01*
X404756Y464763D01*
X404806Y464849D01*
X404853Y464937D01*
X404897Y465027D01*
X404937Y465118D01*
X404973Y465211D01*
X405006Y465305D01*
X405035Y465401D01*
X405060Y465497D01*
X405081Y465594D01*
X405099Y465693D01*
X405112Y465791D01*
X405122Y465891D01*
X405128Y465990D01*
X405130Y466090D01*
X402590Y527050D02*
X384810Y527050D01*
X405130Y524510D02*
X405130Y520700D01*
X403860Y519430D01*
X382270Y520700D02*
X382270Y524510D01*
X382270Y520700D02*
X383540Y519430D01*
X403860Y471170D02*
X405130Y469900D01*
X403860Y471170D02*
X403860Y519430D01*
X383540Y471170D02*
X382270Y469900D01*
X383540Y471170D02*
X383540Y519430D01*
X405130Y469900D02*
X405130Y466090D01*
X382270Y466090D02*
X382270Y469900D01*
X384810Y463550D02*
X402590Y463550D01*
D16*
X393700Y459232D03*
X393700Y531368D03*
D15*
X395605Y477627D02*
X384165Y477627D01*
X384165Y483347D01*
X386072Y485254D01*
X389885Y485254D01*
X391792Y483347D01*
X391792Y477627D01*
X391792Y481440D02*
X395605Y485254D01*
X386072Y489321D02*
X384165Y491228D01*
X384165Y495041D01*
X386072Y496948D01*
X387979Y496948D01*
X389885Y495041D01*
X389885Y493134D01*
X389885Y495041D02*
X391792Y496948D01*
X393698Y496948D01*
X395605Y495041D01*
X395605Y491228D01*
X393698Y489321D01*
D12*
X379730Y524510D02*
X379728Y524610D01*
X379722Y524709D01*
X379712Y524809D01*
X379699Y524907D01*
X379681Y525006D01*
X379660Y525103D01*
X379635Y525199D01*
X379606Y525295D01*
X379573Y525389D01*
X379537Y525482D01*
X379497Y525573D01*
X379453Y525663D01*
X379406Y525751D01*
X379356Y525837D01*
X379302Y525921D01*
X379245Y526003D01*
X379185Y526082D01*
X379121Y526160D01*
X379055Y526234D01*
X378986Y526306D01*
X378914Y526375D01*
X378840Y526441D01*
X378762Y526505D01*
X378683Y526565D01*
X378601Y526622D01*
X378517Y526676D01*
X378431Y526726D01*
X378343Y526773D01*
X378253Y526817D01*
X378162Y526857D01*
X378069Y526893D01*
X377975Y526926D01*
X377879Y526955D01*
X377783Y526980D01*
X377686Y527001D01*
X377587Y527019D01*
X377489Y527032D01*
X377389Y527042D01*
X377290Y527048D01*
X377190Y527050D01*
X359410Y527050D02*
X359310Y527048D01*
X359211Y527042D01*
X359111Y527032D01*
X359013Y527019D01*
X358914Y527001D01*
X358817Y526980D01*
X358721Y526955D01*
X358625Y526926D01*
X358531Y526893D01*
X358438Y526857D01*
X358347Y526817D01*
X358257Y526773D01*
X358169Y526726D01*
X358083Y526676D01*
X357999Y526622D01*
X357917Y526565D01*
X357838Y526505D01*
X357760Y526441D01*
X357686Y526375D01*
X357614Y526306D01*
X357545Y526234D01*
X357479Y526160D01*
X357415Y526082D01*
X357355Y526003D01*
X357298Y525921D01*
X357244Y525837D01*
X357194Y525751D01*
X357147Y525663D01*
X357103Y525573D01*
X357063Y525482D01*
X357027Y525389D01*
X356994Y525295D01*
X356965Y525199D01*
X356940Y525103D01*
X356919Y525006D01*
X356901Y524907D01*
X356888Y524809D01*
X356878Y524709D01*
X356872Y524610D01*
X356870Y524510D01*
X356870Y466090D02*
X356872Y465990D01*
X356878Y465891D01*
X356888Y465791D01*
X356901Y465693D01*
X356919Y465594D01*
X356940Y465497D01*
X356965Y465401D01*
X356994Y465305D01*
X357027Y465211D01*
X357063Y465118D01*
X357103Y465027D01*
X357147Y464937D01*
X357194Y464849D01*
X357244Y464763D01*
X357298Y464679D01*
X357355Y464597D01*
X357415Y464518D01*
X357479Y464440D01*
X357545Y464366D01*
X357614Y464294D01*
X357686Y464225D01*
X357760Y464159D01*
X357838Y464095D01*
X357917Y464035D01*
X357999Y463978D01*
X358083Y463924D01*
X358169Y463874D01*
X358257Y463827D01*
X358347Y463783D01*
X358438Y463743D01*
X358531Y463707D01*
X358625Y463674D01*
X358721Y463645D01*
X358817Y463620D01*
X358914Y463599D01*
X359013Y463581D01*
X359111Y463568D01*
X359211Y463558D01*
X359310Y463552D01*
X359410Y463550D01*
X377190Y463550D02*
X377290Y463552D01*
X377389Y463558D01*
X377489Y463568D01*
X377587Y463581D01*
X377686Y463599D01*
X377783Y463620D01*
X377879Y463645D01*
X377975Y463674D01*
X378069Y463707D01*
X378162Y463743D01*
X378253Y463783D01*
X378343Y463827D01*
X378431Y463874D01*
X378517Y463924D01*
X378601Y463978D01*
X378683Y464035D01*
X378762Y464095D01*
X378840Y464159D01*
X378914Y464225D01*
X378986Y464294D01*
X379055Y464366D01*
X379121Y464440D01*
X379185Y464518D01*
X379245Y464597D01*
X379302Y464679D01*
X379356Y464763D01*
X379406Y464849D01*
X379453Y464937D01*
X379497Y465027D01*
X379537Y465118D01*
X379573Y465211D01*
X379606Y465305D01*
X379635Y465401D01*
X379660Y465497D01*
X379681Y465594D01*
X379699Y465693D01*
X379712Y465791D01*
X379722Y465891D01*
X379728Y465990D01*
X379730Y466090D01*
X377190Y527050D02*
X359410Y527050D01*
X379730Y524510D02*
X379730Y520700D01*
X378460Y519430D01*
X356870Y520700D02*
X356870Y524510D01*
X356870Y520700D02*
X358140Y519430D01*
X378460Y471170D02*
X379730Y469900D01*
X378460Y471170D02*
X378460Y519430D01*
X358140Y471170D02*
X356870Y469900D01*
X358140Y471170D02*
X358140Y519430D01*
X379730Y469900D02*
X379730Y466090D01*
X356870Y466090D02*
X356870Y469900D01*
X359410Y463550D02*
X377190Y463550D01*
D16*
X368300Y459232D03*
X368300Y531368D03*
D15*
X370205Y477627D02*
X358765Y477627D01*
X358765Y483347D01*
X360672Y485254D01*
X364485Y485254D01*
X366392Y483347D01*
X366392Y477627D01*
X366392Y481440D02*
X370205Y485254D01*
X370205Y495041D02*
X358765Y495041D01*
X364485Y489321D01*
X364485Y496948D01*
D12*
X427990Y527050D02*
X428090Y527048D01*
X428189Y527042D01*
X428289Y527032D01*
X428387Y527019D01*
X428486Y527001D01*
X428583Y526980D01*
X428679Y526955D01*
X428775Y526926D01*
X428869Y526893D01*
X428962Y526857D01*
X429053Y526817D01*
X429143Y526773D01*
X429231Y526726D01*
X429317Y526676D01*
X429401Y526622D01*
X429483Y526565D01*
X429562Y526505D01*
X429640Y526441D01*
X429714Y526375D01*
X429786Y526306D01*
X429855Y526234D01*
X429921Y526160D01*
X429985Y526082D01*
X430045Y526003D01*
X430102Y525921D01*
X430156Y525837D01*
X430206Y525751D01*
X430253Y525663D01*
X430297Y525573D01*
X430337Y525482D01*
X430373Y525389D01*
X430406Y525295D01*
X430435Y525199D01*
X430460Y525103D01*
X430481Y525006D01*
X430499Y524907D01*
X430512Y524809D01*
X430522Y524709D01*
X430528Y524610D01*
X430530Y524510D01*
X410210Y527050D02*
X410110Y527048D01*
X410011Y527042D01*
X409911Y527032D01*
X409813Y527019D01*
X409714Y527001D01*
X409617Y526980D01*
X409521Y526955D01*
X409425Y526926D01*
X409331Y526893D01*
X409238Y526857D01*
X409147Y526817D01*
X409057Y526773D01*
X408969Y526726D01*
X408883Y526676D01*
X408799Y526622D01*
X408717Y526565D01*
X408638Y526505D01*
X408560Y526441D01*
X408486Y526375D01*
X408414Y526306D01*
X408345Y526234D01*
X408279Y526160D01*
X408215Y526082D01*
X408155Y526003D01*
X408098Y525921D01*
X408044Y525837D01*
X407994Y525751D01*
X407947Y525663D01*
X407903Y525573D01*
X407863Y525482D01*
X407827Y525389D01*
X407794Y525295D01*
X407765Y525199D01*
X407740Y525103D01*
X407719Y525006D01*
X407701Y524907D01*
X407688Y524809D01*
X407678Y524709D01*
X407672Y524610D01*
X407670Y524510D01*
X407670Y466090D02*
X407672Y465990D01*
X407678Y465891D01*
X407688Y465791D01*
X407701Y465693D01*
X407719Y465594D01*
X407740Y465497D01*
X407765Y465401D01*
X407794Y465305D01*
X407827Y465211D01*
X407863Y465118D01*
X407903Y465027D01*
X407947Y464937D01*
X407994Y464849D01*
X408044Y464763D01*
X408098Y464679D01*
X408155Y464597D01*
X408215Y464518D01*
X408279Y464440D01*
X408345Y464366D01*
X408414Y464294D01*
X408486Y464225D01*
X408560Y464159D01*
X408638Y464095D01*
X408717Y464035D01*
X408799Y463978D01*
X408883Y463924D01*
X408969Y463874D01*
X409057Y463827D01*
X409147Y463783D01*
X409238Y463743D01*
X409331Y463707D01*
X409425Y463674D01*
X409521Y463645D01*
X409617Y463620D01*
X409714Y463599D01*
X409813Y463581D01*
X409911Y463568D01*
X410011Y463558D01*
X410110Y463552D01*
X410210Y463550D01*
X427990Y463550D02*
X428090Y463552D01*
X428189Y463558D01*
X428289Y463568D01*
X428387Y463581D01*
X428486Y463599D01*
X428583Y463620D01*
X428679Y463645D01*
X428775Y463674D01*
X428869Y463707D01*
X428962Y463743D01*
X429053Y463783D01*
X429143Y463827D01*
X429231Y463874D01*
X429317Y463924D01*
X429401Y463978D01*
X429483Y464035D01*
X429562Y464095D01*
X429640Y464159D01*
X429714Y464225D01*
X429786Y464294D01*
X429855Y464366D01*
X429921Y464440D01*
X429985Y464518D01*
X430045Y464597D01*
X430102Y464679D01*
X430156Y464763D01*
X430206Y464849D01*
X430253Y464937D01*
X430297Y465027D01*
X430337Y465118D01*
X430373Y465211D01*
X430406Y465305D01*
X430435Y465401D01*
X430460Y465497D01*
X430481Y465594D01*
X430499Y465693D01*
X430512Y465791D01*
X430522Y465891D01*
X430528Y465990D01*
X430530Y466090D01*
X427990Y527050D02*
X410210Y527050D01*
X430530Y524510D02*
X430530Y520700D01*
X429260Y519430D01*
X407670Y520700D02*
X407670Y524510D01*
X407670Y520700D02*
X408940Y519430D01*
X429260Y471170D02*
X430530Y469900D01*
X429260Y471170D02*
X429260Y519430D01*
X408940Y471170D02*
X407670Y469900D01*
X408940Y471170D02*
X408940Y519430D01*
X430530Y469900D02*
X430530Y466090D01*
X407670Y466090D02*
X407670Y469900D01*
X410210Y463550D02*
X427990Y463550D01*
D16*
X419100Y459232D03*
X419100Y531368D03*
D15*
X421005Y477627D02*
X409565Y477627D01*
X409565Y483347D01*
X411472Y485254D01*
X415285Y485254D01*
X417192Y483347D01*
X417192Y477627D01*
X417192Y481440D02*
X421005Y485254D01*
X409565Y489321D02*
X409565Y496948D01*
X409565Y489321D02*
X415285Y489321D01*
X413379Y493134D01*
X413379Y495041D01*
X415285Y496948D01*
X419098Y496948D01*
X421005Y495041D01*
X421005Y491228D01*
X419098Y489321D01*
D12*
X308610Y463550D02*
X308510Y463552D01*
X308411Y463558D01*
X308311Y463568D01*
X308213Y463581D01*
X308114Y463599D01*
X308017Y463620D01*
X307921Y463645D01*
X307825Y463674D01*
X307731Y463707D01*
X307638Y463743D01*
X307547Y463783D01*
X307457Y463827D01*
X307369Y463874D01*
X307283Y463924D01*
X307199Y463978D01*
X307117Y464035D01*
X307038Y464095D01*
X306960Y464159D01*
X306886Y464225D01*
X306814Y464294D01*
X306745Y464366D01*
X306679Y464440D01*
X306615Y464518D01*
X306555Y464597D01*
X306498Y464679D01*
X306444Y464763D01*
X306394Y464849D01*
X306347Y464937D01*
X306303Y465027D01*
X306263Y465118D01*
X306227Y465211D01*
X306194Y465305D01*
X306165Y465401D01*
X306140Y465497D01*
X306119Y465594D01*
X306101Y465693D01*
X306088Y465791D01*
X306078Y465891D01*
X306072Y465990D01*
X306070Y466090D01*
X326390Y463550D02*
X326490Y463552D01*
X326589Y463558D01*
X326689Y463568D01*
X326787Y463581D01*
X326886Y463599D01*
X326983Y463620D01*
X327079Y463645D01*
X327175Y463674D01*
X327269Y463707D01*
X327362Y463743D01*
X327453Y463783D01*
X327543Y463827D01*
X327631Y463874D01*
X327717Y463924D01*
X327801Y463978D01*
X327883Y464035D01*
X327962Y464095D01*
X328040Y464159D01*
X328114Y464225D01*
X328186Y464294D01*
X328255Y464366D01*
X328321Y464440D01*
X328385Y464518D01*
X328445Y464597D01*
X328502Y464679D01*
X328556Y464763D01*
X328606Y464849D01*
X328653Y464937D01*
X328697Y465027D01*
X328737Y465118D01*
X328773Y465211D01*
X328806Y465305D01*
X328835Y465401D01*
X328860Y465497D01*
X328881Y465594D01*
X328899Y465693D01*
X328912Y465791D01*
X328922Y465891D01*
X328928Y465990D01*
X328930Y466090D01*
X328930Y524510D02*
X328928Y524610D01*
X328922Y524709D01*
X328912Y524809D01*
X328899Y524907D01*
X328881Y525006D01*
X328860Y525103D01*
X328835Y525199D01*
X328806Y525295D01*
X328773Y525389D01*
X328737Y525482D01*
X328697Y525573D01*
X328653Y525663D01*
X328606Y525751D01*
X328556Y525837D01*
X328502Y525921D01*
X328445Y526003D01*
X328385Y526082D01*
X328321Y526160D01*
X328255Y526234D01*
X328186Y526306D01*
X328114Y526375D01*
X328040Y526441D01*
X327962Y526505D01*
X327883Y526565D01*
X327801Y526622D01*
X327717Y526676D01*
X327631Y526726D01*
X327543Y526773D01*
X327453Y526817D01*
X327362Y526857D01*
X327269Y526893D01*
X327175Y526926D01*
X327079Y526955D01*
X326983Y526980D01*
X326886Y527001D01*
X326787Y527019D01*
X326689Y527032D01*
X326589Y527042D01*
X326490Y527048D01*
X326390Y527050D01*
X308610Y527050D02*
X308510Y527048D01*
X308411Y527042D01*
X308311Y527032D01*
X308213Y527019D01*
X308114Y527001D01*
X308017Y526980D01*
X307921Y526955D01*
X307825Y526926D01*
X307731Y526893D01*
X307638Y526857D01*
X307547Y526817D01*
X307457Y526773D01*
X307369Y526726D01*
X307283Y526676D01*
X307199Y526622D01*
X307117Y526565D01*
X307038Y526505D01*
X306960Y526441D01*
X306886Y526375D01*
X306814Y526306D01*
X306745Y526234D01*
X306679Y526160D01*
X306615Y526082D01*
X306555Y526003D01*
X306498Y525921D01*
X306444Y525837D01*
X306394Y525751D01*
X306347Y525663D01*
X306303Y525573D01*
X306263Y525482D01*
X306227Y525389D01*
X306194Y525295D01*
X306165Y525199D01*
X306140Y525103D01*
X306119Y525006D01*
X306101Y524907D01*
X306088Y524809D01*
X306078Y524709D01*
X306072Y524610D01*
X306070Y524510D01*
X308610Y463550D02*
X326390Y463550D01*
X306070Y466090D02*
X306070Y469900D01*
X307340Y471170D01*
X328930Y469900D02*
X328930Y466090D01*
X328930Y469900D02*
X327660Y471170D01*
X307340Y519430D02*
X306070Y520700D01*
X307340Y519430D02*
X307340Y471170D01*
X327660Y519430D02*
X328930Y520700D01*
X327660Y519430D02*
X327660Y471170D01*
X306070Y520700D02*
X306070Y524510D01*
X328930Y524510D02*
X328930Y520700D01*
X326390Y527050D02*
X308610Y527050D01*
D16*
X317500Y531368D03*
X317500Y459232D03*
D15*
X301625Y465455D02*
X290185Y465455D01*
X290185Y471175D01*
X292092Y473082D01*
X295905Y473082D01*
X297812Y471175D01*
X297812Y465455D01*
X297812Y469268D02*
X301625Y473082D01*
X292092Y480962D02*
X290185Y484775D01*
X292092Y480962D02*
X295905Y477149D01*
X299718Y477149D01*
X301625Y479056D01*
X301625Y482869D01*
X299718Y484775D01*
X297812Y484775D01*
X295905Y482869D01*
X295905Y477149D01*
D12*
X491490Y577850D02*
X491590Y577848D01*
X491689Y577842D01*
X491789Y577832D01*
X491887Y577819D01*
X491986Y577801D01*
X492083Y577780D01*
X492179Y577755D01*
X492275Y577726D01*
X492369Y577693D01*
X492462Y577657D01*
X492553Y577617D01*
X492643Y577573D01*
X492731Y577526D01*
X492817Y577476D01*
X492901Y577422D01*
X492983Y577365D01*
X493062Y577305D01*
X493140Y577241D01*
X493214Y577175D01*
X493286Y577106D01*
X493355Y577034D01*
X493421Y576960D01*
X493485Y576882D01*
X493545Y576803D01*
X493602Y576721D01*
X493656Y576637D01*
X493706Y576551D01*
X493753Y576463D01*
X493797Y576373D01*
X493837Y576282D01*
X493873Y576189D01*
X493906Y576095D01*
X493935Y575999D01*
X493960Y575903D01*
X493981Y575806D01*
X493999Y575707D01*
X494012Y575609D01*
X494022Y575509D01*
X494028Y575410D01*
X494030Y575310D01*
X473710Y577850D02*
X473610Y577848D01*
X473511Y577842D01*
X473411Y577832D01*
X473313Y577819D01*
X473214Y577801D01*
X473117Y577780D01*
X473021Y577755D01*
X472925Y577726D01*
X472831Y577693D01*
X472738Y577657D01*
X472647Y577617D01*
X472557Y577573D01*
X472469Y577526D01*
X472383Y577476D01*
X472299Y577422D01*
X472217Y577365D01*
X472138Y577305D01*
X472060Y577241D01*
X471986Y577175D01*
X471914Y577106D01*
X471845Y577034D01*
X471779Y576960D01*
X471715Y576882D01*
X471655Y576803D01*
X471598Y576721D01*
X471544Y576637D01*
X471494Y576551D01*
X471447Y576463D01*
X471403Y576373D01*
X471363Y576282D01*
X471327Y576189D01*
X471294Y576095D01*
X471265Y575999D01*
X471240Y575903D01*
X471219Y575806D01*
X471201Y575707D01*
X471188Y575609D01*
X471178Y575509D01*
X471172Y575410D01*
X471170Y575310D01*
X471170Y516890D02*
X471172Y516790D01*
X471178Y516691D01*
X471188Y516591D01*
X471201Y516493D01*
X471219Y516394D01*
X471240Y516297D01*
X471265Y516201D01*
X471294Y516105D01*
X471327Y516011D01*
X471363Y515918D01*
X471403Y515827D01*
X471447Y515737D01*
X471494Y515649D01*
X471544Y515563D01*
X471598Y515479D01*
X471655Y515397D01*
X471715Y515318D01*
X471779Y515240D01*
X471845Y515166D01*
X471914Y515094D01*
X471986Y515025D01*
X472060Y514959D01*
X472138Y514895D01*
X472217Y514835D01*
X472299Y514778D01*
X472383Y514724D01*
X472469Y514674D01*
X472557Y514627D01*
X472647Y514583D01*
X472738Y514543D01*
X472831Y514507D01*
X472925Y514474D01*
X473021Y514445D01*
X473117Y514420D01*
X473214Y514399D01*
X473313Y514381D01*
X473411Y514368D01*
X473511Y514358D01*
X473610Y514352D01*
X473710Y514350D01*
X491490Y514350D02*
X491590Y514352D01*
X491689Y514358D01*
X491789Y514368D01*
X491887Y514381D01*
X491986Y514399D01*
X492083Y514420D01*
X492179Y514445D01*
X492275Y514474D01*
X492369Y514507D01*
X492462Y514543D01*
X492553Y514583D01*
X492643Y514627D01*
X492731Y514674D01*
X492817Y514724D01*
X492901Y514778D01*
X492983Y514835D01*
X493062Y514895D01*
X493140Y514959D01*
X493214Y515025D01*
X493286Y515094D01*
X493355Y515166D01*
X493421Y515240D01*
X493485Y515318D01*
X493545Y515397D01*
X493602Y515479D01*
X493656Y515563D01*
X493706Y515649D01*
X493753Y515737D01*
X493797Y515827D01*
X493837Y515918D01*
X493873Y516011D01*
X493906Y516105D01*
X493935Y516201D01*
X493960Y516297D01*
X493981Y516394D01*
X493999Y516493D01*
X494012Y516591D01*
X494022Y516691D01*
X494028Y516790D01*
X494030Y516890D01*
X491490Y577850D02*
X473710Y577850D01*
X494030Y575310D02*
X494030Y571500D01*
X492760Y570230D01*
X471170Y571500D02*
X471170Y575310D01*
X471170Y571500D02*
X472440Y570230D01*
X492760Y521970D02*
X494030Y520700D01*
X492760Y521970D02*
X492760Y570230D01*
X472440Y521970D02*
X471170Y520700D01*
X472440Y521970D02*
X472440Y570230D01*
X494030Y520700D02*
X494030Y516890D01*
X471170Y516890D02*
X471170Y520700D01*
X473710Y514350D02*
X491490Y514350D01*
D16*
X482600Y510032D03*
X482600Y582168D03*
D15*
X484505Y528427D02*
X473065Y528427D01*
X473065Y534147D01*
X474972Y536054D01*
X478785Y536054D01*
X480692Y534147D01*
X480692Y528427D01*
X480692Y532240D02*
X484505Y536054D01*
X473065Y540121D02*
X473065Y547748D01*
X474972Y547748D01*
X482598Y540121D01*
X484505Y540121D01*
D12*
X496570Y516890D02*
X496572Y516790D01*
X496578Y516691D01*
X496588Y516591D01*
X496601Y516493D01*
X496619Y516394D01*
X496640Y516297D01*
X496665Y516201D01*
X496694Y516105D01*
X496727Y516011D01*
X496763Y515918D01*
X496803Y515827D01*
X496847Y515737D01*
X496894Y515649D01*
X496944Y515563D01*
X496998Y515479D01*
X497055Y515397D01*
X497115Y515318D01*
X497179Y515240D01*
X497245Y515166D01*
X497314Y515094D01*
X497386Y515025D01*
X497460Y514959D01*
X497538Y514895D01*
X497617Y514835D01*
X497699Y514778D01*
X497783Y514724D01*
X497869Y514674D01*
X497957Y514627D01*
X498047Y514583D01*
X498138Y514543D01*
X498231Y514507D01*
X498325Y514474D01*
X498421Y514445D01*
X498517Y514420D01*
X498614Y514399D01*
X498713Y514381D01*
X498811Y514368D01*
X498911Y514358D01*
X499010Y514352D01*
X499110Y514350D01*
X516890Y514350D02*
X516990Y514352D01*
X517089Y514358D01*
X517189Y514368D01*
X517287Y514381D01*
X517386Y514399D01*
X517483Y514420D01*
X517579Y514445D01*
X517675Y514474D01*
X517769Y514507D01*
X517862Y514543D01*
X517953Y514583D01*
X518043Y514627D01*
X518131Y514674D01*
X518217Y514724D01*
X518301Y514778D01*
X518383Y514835D01*
X518462Y514895D01*
X518540Y514959D01*
X518614Y515025D01*
X518686Y515094D01*
X518755Y515166D01*
X518821Y515240D01*
X518885Y515318D01*
X518945Y515397D01*
X519002Y515479D01*
X519056Y515563D01*
X519106Y515649D01*
X519153Y515737D01*
X519197Y515827D01*
X519237Y515918D01*
X519273Y516011D01*
X519306Y516105D01*
X519335Y516201D01*
X519360Y516297D01*
X519381Y516394D01*
X519399Y516493D01*
X519412Y516591D01*
X519422Y516691D01*
X519428Y516790D01*
X519430Y516890D01*
X519430Y575310D02*
X519428Y575410D01*
X519422Y575509D01*
X519412Y575609D01*
X519399Y575707D01*
X519381Y575806D01*
X519360Y575903D01*
X519335Y575999D01*
X519306Y576095D01*
X519273Y576189D01*
X519237Y576282D01*
X519197Y576373D01*
X519153Y576463D01*
X519106Y576551D01*
X519056Y576637D01*
X519002Y576721D01*
X518945Y576803D01*
X518885Y576882D01*
X518821Y576960D01*
X518755Y577034D01*
X518686Y577106D01*
X518614Y577175D01*
X518540Y577241D01*
X518462Y577305D01*
X518383Y577365D01*
X518301Y577422D01*
X518217Y577476D01*
X518131Y577526D01*
X518043Y577573D01*
X517953Y577617D01*
X517862Y577657D01*
X517769Y577693D01*
X517675Y577726D01*
X517579Y577755D01*
X517483Y577780D01*
X517386Y577801D01*
X517287Y577819D01*
X517189Y577832D01*
X517089Y577842D01*
X516990Y577848D01*
X516890Y577850D01*
X499110Y577850D02*
X499010Y577848D01*
X498911Y577842D01*
X498811Y577832D01*
X498713Y577819D01*
X498614Y577801D01*
X498517Y577780D01*
X498421Y577755D01*
X498325Y577726D01*
X498231Y577693D01*
X498138Y577657D01*
X498047Y577617D01*
X497957Y577573D01*
X497869Y577526D01*
X497783Y577476D01*
X497699Y577422D01*
X497617Y577365D01*
X497538Y577305D01*
X497460Y577241D01*
X497386Y577175D01*
X497314Y577106D01*
X497245Y577034D01*
X497179Y576960D01*
X497115Y576882D01*
X497055Y576803D01*
X496998Y576721D01*
X496944Y576637D01*
X496894Y576551D01*
X496847Y576463D01*
X496803Y576373D01*
X496763Y576282D01*
X496727Y576189D01*
X496694Y576095D01*
X496665Y575999D01*
X496640Y575903D01*
X496619Y575806D01*
X496601Y575707D01*
X496588Y575609D01*
X496578Y575509D01*
X496572Y575410D01*
X496570Y575310D01*
X499110Y514350D02*
X516890Y514350D01*
X496570Y516890D02*
X496570Y520700D01*
X497840Y521970D01*
X519430Y520700D02*
X519430Y516890D01*
X519430Y520700D02*
X518160Y521970D01*
X497840Y570230D02*
X496570Y571500D01*
X497840Y570230D02*
X497840Y521970D01*
X518160Y570230D02*
X519430Y571500D01*
X518160Y570230D02*
X518160Y521970D01*
X496570Y571500D02*
X496570Y575310D01*
X519430Y575310D02*
X519430Y571500D01*
X516890Y577850D02*
X499110Y577850D01*
D16*
X508000Y582168D03*
X508000Y510032D03*
D15*
X506085Y528955D02*
X517525Y528955D01*
X506085Y528955D02*
X506085Y534675D01*
X507992Y536582D01*
X511805Y536582D01*
X513712Y534675D01*
X513712Y528955D01*
X513712Y532768D02*
X517525Y536582D01*
X507992Y540649D02*
X506085Y542556D01*
X506085Y546369D01*
X507992Y548275D01*
X509899Y548275D01*
X511805Y546369D01*
X513712Y548275D01*
X515618Y548275D01*
X517525Y546369D01*
X517525Y542556D01*
X515618Y540649D01*
X513712Y540649D01*
X511805Y542556D01*
X509899Y540649D01*
X507992Y540649D01*
X511805Y542556D02*
X511805Y546369D01*
D12*
X542290Y577850D02*
X542390Y577848D01*
X542489Y577842D01*
X542589Y577832D01*
X542687Y577819D01*
X542786Y577801D01*
X542883Y577780D01*
X542979Y577755D01*
X543075Y577726D01*
X543169Y577693D01*
X543262Y577657D01*
X543353Y577617D01*
X543443Y577573D01*
X543531Y577526D01*
X543617Y577476D01*
X543701Y577422D01*
X543783Y577365D01*
X543862Y577305D01*
X543940Y577241D01*
X544014Y577175D01*
X544086Y577106D01*
X544155Y577034D01*
X544221Y576960D01*
X544285Y576882D01*
X544345Y576803D01*
X544402Y576721D01*
X544456Y576637D01*
X544506Y576551D01*
X544553Y576463D01*
X544597Y576373D01*
X544637Y576282D01*
X544673Y576189D01*
X544706Y576095D01*
X544735Y575999D01*
X544760Y575903D01*
X544781Y575806D01*
X544799Y575707D01*
X544812Y575609D01*
X544822Y575509D01*
X544828Y575410D01*
X544830Y575310D01*
X524510Y577850D02*
X524410Y577848D01*
X524311Y577842D01*
X524211Y577832D01*
X524113Y577819D01*
X524014Y577801D01*
X523917Y577780D01*
X523821Y577755D01*
X523725Y577726D01*
X523631Y577693D01*
X523538Y577657D01*
X523447Y577617D01*
X523357Y577573D01*
X523269Y577526D01*
X523183Y577476D01*
X523099Y577422D01*
X523017Y577365D01*
X522938Y577305D01*
X522860Y577241D01*
X522786Y577175D01*
X522714Y577106D01*
X522645Y577034D01*
X522579Y576960D01*
X522515Y576882D01*
X522455Y576803D01*
X522398Y576721D01*
X522344Y576637D01*
X522294Y576551D01*
X522247Y576463D01*
X522203Y576373D01*
X522163Y576282D01*
X522127Y576189D01*
X522094Y576095D01*
X522065Y575999D01*
X522040Y575903D01*
X522019Y575806D01*
X522001Y575707D01*
X521988Y575609D01*
X521978Y575509D01*
X521972Y575410D01*
X521970Y575310D01*
X521970Y516890D02*
X521972Y516790D01*
X521978Y516691D01*
X521988Y516591D01*
X522001Y516493D01*
X522019Y516394D01*
X522040Y516297D01*
X522065Y516201D01*
X522094Y516105D01*
X522127Y516011D01*
X522163Y515918D01*
X522203Y515827D01*
X522247Y515737D01*
X522294Y515649D01*
X522344Y515563D01*
X522398Y515479D01*
X522455Y515397D01*
X522515Y515318D01*
X522579Y515240D01*
X522645Y515166D01*
X522714Y515094D01*
X522786Y515025D01*
X522860Y514959D01*
X522938Y514895D01*
X523017Y514835D01*
X523099Y514778D01*
X523183Y514724D01*
X523269Y514674D01*
X523357Y514627D01*
X523447Y514583D01*
X523538Y514543D01*
X523631Y514507D01*
X523725Y514474D01*
X523821Y514445D01*
X523917Y514420D01*
X524014Y514399D01*
X524113Y514381D01*
X524211Y514368D01*
X524311Y514358D01*
X524410Y514352D01*
X524510Y514350D01*
X542290Y514350D02*
X542390Y514352D01*
X542489Y514358D01*
X542589Y514368D01*
X542687Y514381D01*
X542786Y514399D01*
X542883Y514420D01*
X542979Y514445D01*
X543075Y514474D01*
X543169Y514507D01*
X543262Y514543D01*
X543353Y514583D01*
X543443Y514627D01*
X543531Y514674D01*
X543617Y514724D01*
X543701Y514778D01*
X543783Y514835D01*
X543862Y514895D01*
X543940Y514959D01*
X544014Y515025D01*
X544086Y515094D01*
X544155Y515166D01*
X544221Y515240D01*
X544285Y515318D01*
X544345Y515397D01*
X544402Y515479D01*
X544456Y515563D01*
X544506Y515649D01*
X544553Y515737D01*
X544597Y515827D01*
X544637Y515918D01*
X544673Y516011D01*
X544706Y516105D01*
X544735Y516201D01*
X544760Y516297D01*
X544781Y516394D01*
X544799Y516493D01*
X544812Y516591D01*
X544822Y516691D01*
X544828Y516790D01*
X544830Y516890D01*
X542290Y577850D02*
X524510Y577850D01*
X544830Y575310D02*
X544830Y571500D01*
X543560Y570230D01*
X521970Y571500D02*
X521970Y575310D01*
X521970Y571500D02*
X523240Y570230D01*
X543560Y521970D02*
X544830Y520700D01*
X543560Y521970D02*
X543560Y570230D01*
X523240Y521970D02*
X521970Y520700D01*
X523240Y521970D02*
X523240Y570230D01*
X544830Y520700D02*
X544830Y516890D01*
X521970Y516890D02*
X521970Y520700D01*
X524510Y514350D02*
X542290Y514350D01*
D16*
X533400Y510032D03*
X533400Y582168D03*
D15*
X536565Y528427D02*
X548005Y528427D01*
X536565Y528427D02*
X536565Y534147D01*
X538472Y536054D01*
X542285Y536054D01*
X544192Y534147D01*
X544192Y528427D01*
X544192Y532240D02*
X548005Y536054D01*
X546098Y540121D02*
X548005Y542028D01*
X548005Y545841D01*
X546098Y547748D01*
X538472Y547748D01*
X536565Y545841D01*
X536565Y542028D01*
X538472Y540121D01*
X540379Y540121D01*
X542285Y542028D01*
X542285Y547748D01*
D13*
X172720Y303500D02*
X172720Y280700D01*
X165100Y280700D01*
X157480Y280700D01*
X157480Y303500D01*
X165100Y303500D01*
X172720Y303500D01*
X165100Y280700D02*
X165100Y278160D01*
X165100Y303500D02*
X165100Y306040D01*
D14*
X176924Y308452D02*
X177549Y309077D01*
X176924Y308452D02*
X176924Y307202D01*
X177549Y306578D01*
X180048Y306578D01*
X180673Y307202D01*
X180673Y308452D01*
X180048Y309077D01*
X178174Y310261D02*
X176924Y311510D01*
X180673Y311510D01*
X180673Y310261D02*
X180673Y312760D01*
X180673Y315818D02*
X176924Y315818D01*
X178798Y313944D01*
X178798Y316443D01*
D13*
X147320Y303500D02*
X147320Y280700D01*
X139700Y280700D01*
X132080Y280700D01*
X132080Y303500D01*
X139700Y303500D01*
X147320Y303500D01*
X139700Y280700D02*
X139700Y278160D01*
X139700Y303500D02*
X139700Y306040D01*
D14*
X151524Y308452D02*
X152149Y309077D01*
X151524Y308452D02*
X151524Y307202D01*
X152149Y306578D01*
X154648Y306578D01*
X155273Y307202D01*
X155273Y308452D01*
X154648Y309077D01*
X152774Y310261D02*
X151524Y311510D01*
X155273Y311510D01*
X155273Y310261D02*
X155273Y312760D01*
X151524Y313944D02*
X151524Y316443D01*
X151524Y313944D02*
X153398Y313944D01*
X152774Y315194D01*
X152774Y315818D01*
X153398Y316443D01*
X154648Y316443D01*
X155273Y315818D01*
X155273Y314569D01*
X154648Y313944D01*
M02*
