M48
;GenerationSoftware,Autodesk,EAGLE,9.3.0*%
;CreationDate,2019-04-12T15:51:14Z*%
FMAT,2
ICI,OFF
METRIC,TZ,000.000
T5C0.600
T4C0.813
T3C0.900
T2C1.016
T1C3.000
%
G90
M71
T1
X12500Y19000
X11230Y58370
X81080Y58370
X79810Y17730
T2
X37500Y59500
X10500Y32000
X10500Y34500
X10500Y37000
X10500Y39500
X80500Y36500
X80500Y39000
X80500Y46000
X10500Y42000
X42500Y59500
X40000Y59500
X80500Y48500
X73660Y48260
X68580Y50800
X68580Y45720
X73660Y36830
X68580Y39370
X68580Y34290
T3
X45760Y44450
X50760Y44450
X34290Y45760
X34290Y50760
X39330Y25400
X34330Y25400
X39330Y22860
X34330Y22860
X27940Y24170
X27940Y29170
X39330Y20320
X34330Y20320
X39330Y17780
X34330Y17780
X41870Y29210
X36870Y29210
X16550Y54610
X21550Y54610
X48260Y26630
X48260Y21630
X50800Y21630
X50800Y26630
X55920Y21590
X13970Y26710
X60920Y21590
X63540Y21590
X68540Y21590
X16510Y31710
X16510Y26710
X13970Y31710
T4
X62230Y40640
X59690Y40640
X46990Y40640
X46990Y33020
X57150Y40640
X54610Y40640
X49530Y40640
X52070Y40640
X49530Y33020
X52070Y33020
X54610Y33020
X57150Y33020
X59690Y33020
X62230Y33020
X39370Y33020
X41910Y40640
X39370Y40640
X26670Y40640
X16510Y41910
X16510Y52070
X31750Y19050
X31750Y29210
X43180Y16510
X43180Y26670
X45720Y26670
X45720Y16510
X59690Y59690
X59690Y49530
X62230Y49530
X62230Y59690
X26670Y33020
X36830Y40640
X34290Y40640
X48260Y17780
X58420Y17780
X63500Y26670
X53340Y26670
X53340Y24130
X63500Y24130
X29210Y40640
X60960Y17780
X20320Y39370
X20320Y49530
X60960Y15240
X71120Y15240
X66040Y24130
X76200Y24130
X76200Y26670
X66040Y26670
X66040Y29210
X76200Y29210
X31750Y40640
X29210Y33020
X31750Y33020
X39370Y54610
X71120Y17780
X36830Y54610
X36830Y44450
X41910Y54610
X41910Y44450
X31750Y44450
X31750Y54610
X48260Y59690
X48260Y49530
X50800Y49530
X50800Y59690
X53340Y59690
X53340Y49530
X34290Y33020
X36830Y33020
X41910Y33020
X39370Y44450
T5
X22860Y39370
X44450Y24130
X44450Y36830
X48260Y36830
X58420Y38100
X43180Y48260
X38100Y48260
X64770Y36830
M30