M48
INCH,TZ
T1C0.0197
T2C0.0315
T3C0.0354
T4C0.0394
T5C0.0433
T6C0.0472
T7C0.1181
%
G90
G05
T1
X9400Y-28190
X10500Y-28200
T2
X6300Y-1500
X9300Y-1500
X10800Y-1500
X11784Y-1500
X12050Y-5016
X12050Y-6000
X18050Y-29250
X18050Y-32250
X18050Y-34000
X18050Y-37000
X19550Y-29250
X19550Y-32250
X19550Y-34000
X19550Y-37000
X25800Y-14000
X25800Y-15000
X25800Y-16000
X25800Y-18000
X25800Y-21000
T3
X4050Y-1500
X5050Y-1500
T4
X950Y-29750
X1950Y-29750
X2950Y-29750
X3950Y-29750
X4950Y-29750
X4952Y-27250
X5950Y-29750
X5952Y-27250
X6952Y-27250
X7952Y-27250
X8550Y-8250
X8952Y-27250
X9550Y-8250
X9952Y-27250
X10550Y-8250
X10550Y-29750
X10952Y-27250
X11550Y-8250
X11550Y-29750
X11952Y-27250
X12550Y-8250
X12550Y-29750
X12952Y-27250
X13550Y-8250
X13550Y-29750
X13952Y-27250
X14550Y-8250
X14550Y-29750
X15550Y-8250
X15550Y-27250
X15550Y-29750
X16550Y-27250
X16550Y-29750
X17550Y-8250
X17550Y-27250
X18550Y-8250
X18550Y-27250
X19550Y-8250
X19550Y-27250
X20550Y-8250
X20550Y-27250
X21550Y-8250
X21550Y-27250
X22550Y-8250
X22550Y-27250
X28141Y-8374
X28141Y-37901
T5
X10609Y-3500
X10609Y-4500
X10609Y-5500
X20800Y-29750
X20800Y-32309
X20800Y-34000
X20800Y-36559
X22572Y-29750
X22572Y-32309
X22572Y-34000
X22572Y-36559
X24028Y-34000
X24028Y-36559
X24050Y-29750
X24050Y-32309
X25800Y-34000
X25800Y-36559
X25822Y-29750
X25822Y-32309
T6
X28141Y-20736
X28141Y-21736
X28141Y-22736
X28141Y-23736
X28141Y-24736
X28141Y-25736
X28141Y-26736
X28141Y-27736
X28141Y-28736
X28141Y-29736
X28141Y-30736
X28141Y-31736
X28141Y-32736
X28141Y-33736
X28141Y-34736
X28141Y-35736
T7
X-2402Y-1000
X-2402Y-44882
X15050Y-3500
X20550Y-3500
X26050Y-3500
X31550Y-3500
X36800Y-3500
X41732Y-1000
X41732Y-44882
T0
M30
