%TF.GenerationSoftware,KiCad,Pcbnew,(5.1.9)-1*%
%TF.CreationDate,2021-06-23T18:15:50-03:00*%
%TF.ProjectId,assert,61737365-7274-42e6-9b69-6361645f7063,rev?*%
%TF.SameCoordinates,Original*%
%TF.FileFunction,Other,Fab,Top*%
%FSLAX46Y46*%
G04 Gerber Fmt 4.6, Leading zero omitted, Abs format (unit mm)*
G04 Created by KiCad (PCBNEW (5.1.9)-1) date 2021-06-23 18:15:50*
%MOMM*%
%LPD*%
G01*
G04 APERTURE LIST*
%ADD10C,0.100000*%
%ADD11C,0.150000*%
%ADD12C,0.120000*%
%ADD13C,0.090000*%
G04 APERTURE END LIST*
D10*
%TO.C,U2*%
X68977000Y-89770000D02*
X69977000Y-90770000D01*
X69977000Y-90770000D02*
X68977000Y-91770000D01*
X68977000Y-91770000D02*
X68977000Y-98770000D01*
X68977000Y-89770000D02*
X68977000Y-18770000D01*
X68977000Y-18770000D02*
X104977000Y-18770000D01*
X104977000Y-18770000D02*
X104977000Y-98770000D01*
X104977000Y-98770000D02*
X68977000Y-98770000D01*
%TO.C,A1*%
X-6223000Y-18415000D02*
X59817000Y-18415000D01*
X-6223000Y-71755000D02*
X-6223000Y-18415000D01*
X58297000Y-71755000D02*
X-6223000Y-71755000D01*
X59817000Y-70235000D02*
X58297000Y-71755000D01*
X59817000Y-20955000D02*
X62357000Y-23495000D01*
X59817000Y-18415000D02*
X59817000Y-20955000D01*
X62357000Y-56265000D02*
X59817000Y-58805000D01*
X62357000Y-23495000D02*
X62357000Y-56265000D01*
X59817000Y-58805000D02*
X59817000Y-70235000D01*
X-8123000Y-30485000D02*
X-8123000Y-21595000D01*
X5207000Y-30485000D02*
X-8123000Y-30485000D01*
X5207000Y-21595000D02*
X5207000Y-30485000D01*
X-8123000Y-21595000D02*
X5207000Y-21595000D01*
X-12573000Y-62225000D02*
X-12573000Y-50795000D01*
X3307000Y-62225000D02*
X-12573000Y-62225000D01*
X3307000Y-50795000D02*
X3307000Y-62225000D01*
X-12573000Y-50795000D02*
X3307000Y-50795000D01*
%TO.C,J5*%
X95472000Y-8890000D02*
G75*
G03*
X95472000Y-8890000I-2000000J0D01*
G01*
X98322258Y-8890000D02*
G75*
G03*
X98322258Y-8890000I-4850258J0D01*
G01*
%TO.C,J4*%
X84987258Y-8890000D02*
G75*
G03*
X84987258Y-8890000I-4850258J0D01*
G01*
X82137000Y-8890000D02*
G75*
G03*
X82137000Y-8890000I-2000000J0D01*
G01*
%TO.C,J9*%
X25527000Y-74295000D02*
X43307000Y-74295000D01*
X25527000Y-76835000D02*
X25527000Y-74295000D01*
X42672000Y-76835000D02*
X25527000Y-76835000D01*
X43307000Y-76200000D02*
X42672000Y-76835000D01*
X43307000Y-74295000D02*
X43307000Y-76200000D01*
%TO.C,U1*%
X12137000Y-11430000D02*
G75*
G03*
X12137000Y-11430000I-1850000J0D01*
G01*
X13887000Y-16430000D02*
X7487000Y-16430000D01*
X7487000Y-16430000D02*
X7487000Y-6430000D01*
X7487000Y-6430000D02*
X13887000Y-6430000D01*
X13887000Y-6430000D02*
X13887000Y-16430000D01*
X23137000Y-16430000D02*
X13887000Y-16430000D01*
X13887000Y-16430000D02*
X13887000Y-6430000D01*
X13887000Y-6430000D02*
X23137000Y-6430000D01*
X23137000Y-6430000D02*
X23137000Y-16430000D01*
X23137000Y-13970000D02*
X26947000Y-13970000D01*
X23137000Y-11430000D02*
X26947000Y-11430000D01*
X23137000Y-8890000D02*
X26947000Y-8890000D01*
%TO.C,SW4*%
X65297564Y-89610000D02*
G75*
G03*
X65297564Y-89610000I-2015564J0D01*
G01*
X60282000Y-92610000D02*
X60282000Y-89610000D01*
X66282000Y-92610000D02*
X60282000Y-92610000D01*
X66282000Y-86610000D02*
X66282000Y-92610000D01*
X60282000Y-86610000D02*
X66282000Y-86610000D01*
X60282000Y-89610000D02*
X60282000Y-86610000D01*
%TO.C,SW3*%
X57097564Y-89610000D02*
G75*
G03*
X57097564Y-89610000I-2015564J0D01*
G01*
X52082000Y-92610000D02*
X52082000Y-89610000D01*
X58082000Y-92610000D02*
X52082000Y-92610000D01*
X58082000Y-86610000D02*
X58082000Y-92610000D01*
X52082000Y-86610000D02*
X58082000Y-86610000D01*
X52082000Y-89610000D02*
X52082000Y-86610000D01*
%TO.C,SW2*%
X57097564Y-78815000D02*
G75*
G03*
X57097564Y-78815000I-2015564J0D01*
G01*
X52082000Y-81815000D02*
X52082000Y-78815000D01*
X58082000Y-81815000D02*
X52082000Y-81815000D01*
X58082000Y-75815000D02*
X58082000Y-81815000D01*
X52082000Y-75815000D02*
X58082000Y-75815000D01*
X52082000Y-78815000D02*
X52082000Y-75815000D01*
%TO.C,SW1*%
X65352564Y-78815000D02*
G75*
G03*
X65352564Y-78815000I-2015564J0D01*
G01*
X66337000Y-75815000D02*
X66337000Y-78815000D01*
X60337000Y-75815000D02*
X66337000Y-75815000D01*
X60337000Y-81815000D02*
X60337000Y-75815000D01*
X66337000Y-81815000D02*
X60337000Y-81815000D01*
X66337000Y-78815000D02*
X66337000Y-81815000D01*
%TO.C,RV1*%
X63117000Y-33335000D02*
X67947000Y-33335000D01*
X63117000Y-42865000D02*
X63117000Y-33335000D01*
X67947000Y-42865000D02*
X63117000Y-42865000D01*
X67947000Y-33335000D02*
X67947000Y-42865000D01*
%TO.C,R6*%
X65532000Y-53340000D02*
X65532000Y-52680000D01*
X65532000Y-45720000D02*
X65532000Y-46380000D01*
X66782000Y-52680000D02*
X66782000Y-46380000D01*
X64282000Y-52680000D02*
X66782000Y-52680000D01*
X64282000Y-46380000D02*
X64282000Y-52680000D01*
X66782000Y-46380000D02*
X64282000Y-46380000D01*
%TO.C,R5*%
X45847000Y-93980000D02*
X45847000Y-93320000D01*
X45847000Y-86360000D02*
X45847000Y-87020000D01*
X47097000Y-93320000D02*
X47097000Y-87020000D01*
X44597000Y-93320000D02*
X47097000Y-93320000D01*
X44597000Y-87020000D02*
X44597000Y-93320000D01*
X47097000Y-87020000D02*
X44597000Y-87020000D01*
%TO.C,R4*%
X45847000Y-74295000D02*
X45847000Y-74955000D01*
X45847000Y-81915000D02*
X45847000Y-81255000D01*
X44597000Y-74955000D02*
X44597000Y-81255000D01*
X47097000Y-74955000D02*
X44597000Y-74955000D01*
X47097000Y-81255000D02*
X47097000Y-74955000D01*
X44597000Y-81255000D02*
X47097000Y-81255000D01*
%TO.C,R3*%
X49657000Y-86360000D02*
X49657000Y-87020000D01*
X49657000Y-93980000D02*
X49657000Y-93320000D01*
X48407000Y-87020000D02*
X48407000Y-93320000D01*
X50907000Y-87020000D02*
X48407000Y-87020000D01*
X50907000Y-93320000D02*
X50907000Y-87020000D01*
X48407000Y-93320000D02*
X50907000Y-93320000D01*
%TO.C,R2*%
X49657000Y-74295000D02*
X49657000Y-74955000D01*
X49657000Y-81915000D02*
X49657000Y-81255000D01*
X48407000Y-74955000D02*
X48407000Y-81255000D01*
X50907000Y-74955000D02*
X48407000Y-74955000D01*
X50907000Y-81255000D02*
X50907000Y-74955000D01*
X48407000Y-81255000D02*
X50907000Y-81255000D01*
%TO.C,R1*%
X16002000Y-3810000D02*
X16662000Y-3810000D01*
X23622000Y-3810000D02*
X22962000Y-3810000D01*
X16662000Y-5060000D02*
X22962000Y-5060000D01*
X16662000Y-2560000D02*
X16662000Y-5060000D01*
X22962000Y-2560000D02*
X16662000Y-2560000D01*
X22962000Y-5060000D02*
X22962000Y-2560000D01*
%TO.C,J8*%
X1143000Y-74295000D02*
X16383000Y-74295000D01*
X1143000Y-76835000D02*
X1143000Y-74295000D01*
X15748000Y-76835000D02*
X1143000Y-76835000D01*
X16383000Y-76200000D02*
X15748000Y-76835000D01*
X16383000Y-74295000D02*
X16383000Y-76200000D01*
%TO.C,J3*%
X71017258Y-8890000D02*
G75*
G03*
X71017258Y-8890000I-4850258J0D01*
G01*
X68167000Y-8890000D02*
G75*
G03*
X68167000Y-8890000I-2000000J0D01*
G01*
%TO.C,J2*%
X57047258Y-8890000D02*
G75*
G03*
X57047258Y-8890000I-4850258J0D01*
G01*
X54197000Y-8890000D02*
G75*
G03*
X54197000Y-8890000I-2000000J0D01*
G01*
%TO.C,J1*%
X43077258Y-8890000D02*
G75*
G03*
X43077258Y-8890000I-4850258J0D01*
G01*
X40227000Y-8890000D02*
G75*
G03*
X40227000Y-8890000I-2000000J0D01*
G01*
%TO.C,D1*%
X10057000Y-2643810D02*
X10057000Y-4976190D01*
X13057000Y-3810000D02*
G75*
G03*
X13057000Y-3810000I-1500000J0D01*
G01*
X10056445Y-4975476D02*
G75*
G03*
X10057000Y-2643810I1500555J1165476D01*
G01*
%TO.C,C2*%
X30182000Y-3010000D02*
X27182000Y-3010000D01*
X30182000Y-4610000D02*
X30182000Y-3010000D01*
X27182000Y-4610000D02*
X30182000Y-4610000D01*
X27182000Y-3010000D02*
X27182000Y-4610000D01*
%TO.C,C1*%
X29807000Y-12490000D02*
X29807000Y-15490000D01*
X31407000Y-12490000D02*
X29807000Y-12490000D01*
X31407000Y-15490000D02*
X31407000Y-12490000D01*
X29807000Y-15490000D02*
X31407000Y-15490000D01*
%TD*%
%TO.C,U2*%
D11*
X106589380Y-100175238D02*
X106589380Y-100651428D01*
X105589380Y-100651428D01*
X106494142Y-99270476D02*
X106541761Y-99318095D01*
X106589380Y-99460952D01*
X106589380Y-99556190D01*
X106541761Y-99699047D01*
X106446523Y-99794285D01*
X106351285Y-99841904D01*
X106160809Y-99889523D01*
X106017952Y-99889523D01*
X105827476Y-99841904D01*
X105732238Y-99794285D01*
X105637000Y-99699047D01*
X105589380Y-99556190D01*
X105589380Y-99460952D01*
X105637000Y-99318095D01*
X105684619Y-99270476D01*
X106589380Y-98841904D02*
X105589380Y-98841904D01*
X105589380Y-98603809D01*
X105637000Y-98460952D01*
X105732238Y-98365714D01*
X105827476Y-98318095D01*
X106017952Y-98270476D01*
X106160809Y-98270476D01*
X106351285Y-98318095D01*
X106446523Y-98365714D01*
X106541761Y-98460952D01*
X106589380Y-98603809D01*
X106589380Y-98841904D01*
X106208428Y-97841904D02*
X106208428Y-97080000D01*
X105589380Y-96413333D02*
X105589380Y-96318095D01*
X105637000Y-96222857D01*
X105684619Y-96175238D01*
X105779857Y-96127619D01*
X105970333Y-96080000D01*
X106208428Y-96080000D01*
X106398904Y-96127619D01*
X106494142Y-96175238D01*
X106541761Y-96222857D01*
X106589380Y-96318095D01*
X106589380Y-96413333D01*
X106541761Y-96508571D01*
X106494142Y-96556190D01*
X106398904Y-96603809D01*
X106208428Y-96651428D01*
X105970333Y-96651428D01*
X105779857Y-96603809D01*
X105684619Y-96556190D01*
X105637000Y-96508571D01*
X105589380Y-96413333D01*
X106589380Y-95127619D02*
X106589380Y-95699047D01*
X106589380Y-95413333D02*
X105589380Y-95413333D01*
X105732238Y-95508571D01*
X105827476Y-95603809D01*
X105875095Y-95699047D01*
X105589380Y-94270476D02*
X105589380Y-94460952D01*
X105637000Y-94556190D01*
X105684619Y-94603809D01*
X105827476Y-94699047D01*
X106017952Y-94746666D01*
X106398904Y-94746666D01*
X106494142Y-94699047D01*
X106541761Y-94651428D01*
X106589380Y-94556190D01*
X106589380Y-94365714D01*
X106541761Y-94270476D01*
X106494142Y-94222857D01*
X106398904Y-94175238D01*
X106160809Y-94175238D01*
X106065571Y-94222857D01*
X106017952Y-94270476D01*
X105970333Y-94365714D01*
X105970333Y-94556190D01*
X106017952Y-94651428D01*
X106065571Y-94699047D01*
X106160809Y-94746666D01*
X106589380Y-93746666D02*
X105589380Y-93746666D01*
X106589380Y-93175238D01*
X105589380Y-93175238D01*
X105589380Y-92508571D02*
X105589380Y-92413333D01*
X105637000Y-92318095D01*
X105684619Y-92270476D01*
X105779857Y-92222857D01*
X105970333Y-92175238D01*
X106208428Y-92175238D01*
X106398904Y-92222857D01*
X106494142Y-92270476D01*
X106541761Y-92318095D01*
X106589380Y-92413333D01*
X106589380Y-92508571D01*
X106541761Y-92603809D01*
X106494142Y-92651428D01*
X106398904Y-92699047D01*
X106208428Y-92746666D01*
X105970333Y-92746666D01*
X105779857Y-92699047D01*
X105684619Y-92651428D01*
X105637000Y-92603809D01*
X105589380Y-92508571D01*
X105589380Y-91556190D02*
X105589380Y-91460952D01*
X105637000Y-91365714D01*
X105684619Y-91318095D01*
X105779857Y-91270476D01*
X105970333Y-91222857D01*
X106208428Y-91222857D01*
X106398904Y-91270476D01*
X106494142Y-91318095D01*
X106541761Y-91365714D01*
X106589380Y-91460952D01*
X106589380Y-91556190D01*
X106541761Y-91651428D01*
X106494142Y-91699047D01*
X106398904Y-91746666D01*
X106208428Y-91794285D01*
X105970333Y-91794285D01*
X105779857Y-91746666D01*
X105684619Y-91699047D01*
X105637000Y-91651428D01*
X105589380Y-91556190D01*
X105684619Y-90841904D02*
X105637000Y-90794285D01*
X105589380Y-90699047D01*
X105589380Y-90460952D01*
X105637000Y-90365714D01*
X105684619Y-90318095D01*
X105779857Y-90270476D01*
X105875095Y-90270476D01*
X106017952Y-90318095D01*
X106589380Y-90889523D01*
X106589380Y-90270476D01*
X106589380Y-89365714D02*
X106589380Y-89841904D01*
X105589380Y-89841904D01*
D10*
X85669380Y-61161904D02*
X86478904Y-61161904D01*
X86574142Y-61114285D01*
X86621761Y-61066666D01*
X86669380Y-60971428D01*
X86669380Y-60780952D01*
X86621761Y-60685714D01*
X86574142Y-60638095D01*
X86478904Y-60590476D01*
X85669380Y-60590476D01*
X85764619Y-60161904D02*
X85717000Y-60114285D01*
X85669380Y-60019047D01*
X85669380Y-59780952D01*
X85717000Y-59685714D01*
X85764619Y-59638095D01*
X85859857Y-59590476D01*
X85955095Y-59590476D01*
X86097952Y-59638095D01*
X86669380Y-60209523D01*
X86669380Y-59590476D01*
%TO.C,A1*%
D11*
X15812238Y-43981666D02*
X16288428Y-43981666D01*
X15717000Y-44267380D02*
X16050333Y-43267380D01*
X16383666Y-44267380D01*
X16717000Y-44267380D02*
X16717000Y-43600714D01*
X16717000Y-43791190D02*
X16764619Y-43695952D01*
X16812238Y-43648333D01*
X16907476Y-43600714D01*
X17002714Y-43600714D01*
X17764619Y-44267380D02*
X17764619Y-43267380D01*
X17764619Y-44219761D02*
X17669380Y-44267380D01*
X17478904Y-44267380D01*
X17383666Y-44219761D01*
X17336047Y-44172142D01*
X17288428Y-44076904D01*
X17288428Y-43791190D01*
X17336047Y-43695952D01*
X17383666Y-43648333D01*
X17478904Y-43600714D01*
X17669380Y-43600714D01*
X17764619Y-43648333D01*
X18669380Y-43600714D02*
X18669380Y-44267380D01*
X18240809Y-43600714D02*
X18240809Y-44124523D01*
X18288428Y-44219761D01*
X18383666Y-44267380D01*
X18526523Y-44267380D01*
X18621761Y-44219761D01*
X18669380Y-44172142D01*
X19145571Y-44267380D02*
X19145571Y-43600714D01*
X19145571Y-43267380D02*
X19097952Y-43315000D01*
X19145571Y-43362619D01*
X19193190Y-43315000D01*
X19145571Y-43267380D01*
X19145571Y-43362619D01*
X19621761Y-43600714D02*
X19621761Y-44267380D01*
X19621761Y-43695952D02*
X19669380Y-43648333D01*
X19764619Y-43600714D01*
X19907476Y-43600714D01*
X20002714Y-43648333D01*
X20050333Y-43743571D01*
X20050333Y-44267380D01*
X20669380Y-44267380D02*
X20574142Y-44219761D01*
X20526523Y-44172142D01*
X20478904Y-44076904D01*
X20478904Y-43791190D01*
X20526523Y-43695952D01*
X20574142Y-43648333D01*
X20669380Y-43600714D01*
X20812238Y-43600714D01*
X20907476Y-43648333D01*
X20955095Y-43695952D01*
X21002714Y-43791190D01*
X21002714Y-44076904D01*
X20955095Y-44172142D01*
X20907476Y-44219761D01*
X20812238Y-44267380D01*
X20669380Y-44267380D01*
X21193190Y-44362619D02*
X21955095Y-44362619D01*
X22193190Y-43267380D02*
X22193190Y-44076904D01*
X22240809Y-44172142D01*
X22288428Y-44219761D01*
X22383666Y-44267380D01*
X22574142Y-44267380D01*
X22669380Y-44219761D01*
X22717000Y-44172142D01*
X22764619Y-44076904D01*
X22764619Y-43267380D01*
X23240809Y-44267380D02*
X23240809Y-43267380D01*
X23812238Y-44267380D01*
X23812238Y-43267380D01*
X24478904Y-43267380D02*
X24669380Y-43267380D01*
X24764619Y-43315000D01*
X24859857Y-43410238D01*
X24907476Y-43600714D01*
X24907476Y-43934047D01*
X24859857Y-44124523D01*
X24764619Y-44219761D01*
X24669380Y-44267380D01*
X24478904Y-44267380D01*
X24383666Y-44219761D01*
X24288428Y-44124523D01*
X24240809Y-43934047D01*
X24240809Y-43600714D01*
X24288428Y-43410238D01*
X24383666Y-43315000D01*
X24478904Y-43267380D01*
X25097952Y-44362619D02*
X25859857Y-44362619D01*
X26669380Y-44267380D02*
X26336047Y-43791190D01*
X26097952Y-44267380D02*
X26097952Y-43267380D01*
X26478904Y-43267380D01*
X26574142Y-43315000D01*
X26621761Y-43362619D01*
X26669380Y-43457857D01*
X26669380Y-43600714D01*
X26621761Y-43695952D01*
X26574142Y-43743571D01*
X26478904Y-43791190D01*
X26097952Y-43791190D01*
X27002714Y-43267380D02*
X27621761Y-43267380D01*
X27288428Y-43648333D01*
X27431285Y-43648333D01*
X27526523Y-43695952D01*
X27574142Y-43743571D01*
X27621761Y-43838809D01*
X27621761Y-44076904D01*
X27574142Y-44172142D01*
X27526523Y-44219761D01*
X27431285Y-44267380D01*
X27145571Y-44267380D01*
X27050333Y-44219761D01*
X27002714Y-44172142D01*
X21002714Y-41441666D02*
X21478904Y-41441666D01*
X20907476Y-41727380D02*
X21240809Y-40727380D01*
X21574142Y-41727380D01*
X22431285Y-41727380D02*
X21859857Y-41727380D01*
X22145571Y-41727380D02*
X22145571Y-40727380D01*
X22050333Y-40870238D01*
X21955095Y-40965476D01*
X21859857Y-41013095D01*
%TO.C,J5*%
D12*
X93205333Y-8451904D02*
X93205333Y-9023333D01*
X93167238Y-9137619D01*
X93091047Y-9213809D01*
X92976761Y-9251904D01*
X92900571Y-9251904D01*
X93967238Y-8451904D02*
X93586285Y-8451904D01*
X93548190Y-8832857D01*
X93586285Y-8794761D01*
X93662476Y-8756666D01*
X93852952Y-8756666D01*
X93929142Y-8794761D01*
X93967238Y-8832857D01*
X94005333Y-8909047D01*
X94005333Y-9099523D01*
X93967238Y-9175714D01*
X93929142Y-9213809D01*
X93852952Y-9251904D01*
X93662476Y-9251904D01*
X93586285Y-9213809D01*
X93548190Y-9175714D01*
%TO.C,J4*%
X79870333Y-8451904D02*
X79870333Y-9023333D01*
X79832238Y-9137619D01*
X79756047Y-9213809D01*
X79641761Y-9251904D01*
X79565571Y-9251904D01*
X80594142Y-8718571D02*
X80594142Y-9251904D01*
X80403666Y-8413809D02*
X80213190Y-8985238D01*
X80708428Y-8985238D01*
%TO.C,J9*%
D11*
X34083666Y-75017380D02*
X34083666Y-75731666D01*
X34036047Y-75874523D01*
X33940809Y-75969761D01*
X33797952Y-76017380D01*
X33702714Y-76017380D01*
X34607476Y-76017380D02*
X34797952Y-76017380D01*
X34893190Y-75969761D01*
X34940809Y-75922142D01*
X35036047Y-75779285D01*
X35083666Y-75588809D01*
X35083666Y-75207857D01*
X35036047Y-75112619D01*
X34988428Y-75065000D01*
X34893190Y-75017380D01*
X34702714Y-75017380D01*
X34607476Y-75065000D01*
X34559857Y-75112619D01*
X34512238Y-75207857D01*
X34512238Y-75445952D01*
X34559857Y-75541190D01*
X34607476Y-75588809D01*
X34702714Y-75636428D01*
X34893190Y-75636428D01*
X34988428Y-75588809D01*
X35036047Y-75541190D01*
X35083666Y-75445952D01*
%TO.C,U1*%
X5819380Y-12191904D02*
X6628904Y-12191904D01*
X6724142Y-12144285D01*
X6771761Y-12096666D01*
X6819380Y-12001428D01*
X6819380Y-11810952D01*
X6771761Y-11715714D01*
X6724142Y-11668095D01*
X6628904Y-11620476D01*
X5819380Y-11620476D01*
X6819380Y-10620476D02*
X6819380Y-11191904D01*
X6819380Y-10906190D02*
X5819380Y-10906190D01*
X5962238Y-11001428D01*
X6057476Y-11096666D01*
X6105095Y-11191904D01*
%TO.C,SW4*%
X63686761Y-90943333D02*
X63734380Y-90800476D01*
X63734380Y-90562380D01*
X63686761Y-90467142D01*
X63639142Y-90419523D01*
X63543904Y-90371904D01*
X63448666Y-90371904D01*
X63353428Y-90419523D01*
X63305809Y-90467142D01*
X63258190Y-90562380D01*
X63210571Y-90752857D01*
X63162952Y-90848095D01*
X63115333Y-90895714D01*
X63020095Y-90943333D01*
X62924857Y-90943333D01*
X62829619Y-90895714D01*
X62782000Y-90848095D01*
X62734380Y-90752857D01*
X62734380Y-90514761D01*
X62782000Y-90371904D01*
X62734380Y-90038571D02*
X63734380Y-89800476D01*
X63020095Y-89610000D01*
X63734380Y-89419523D01*
X62734380Y-89181428D01*
X63067714Y-88371904D02*
X63734380Y-88371904D01*
X62686761Y-88610000D02*
X63401047Y-88848095D01*
X63401047Y-88229047D01*
%TO.C,SW3*%
X55486761Y-90943333D02*
X55534380Y-90800476D01*
X55534380Y-90562380D01*
X55486761Y-90467142D01*
X55439142Y-90419523D01*
X55343904Y-90371904D01*
X55248666Y-90371904D01*
X55153428Y-90419523D01*
X55105809Y-90467142D01*
X55058190Y-90562380D01*
X55010571Y-90752857D01*
X54962952Y-90848095D01*
X54915333Y-90895714D01*
X54820095Y-90943333D01*
X54724857Y-90943333D01*
X54629619Y-90895714D01*
X54582000Y-90848095D01*
X54534380Y-90752857D01*
X54534380Y-90514761D01*
X54582000Y-90371904D01*
X54534380Y-90038571D02*
X55534380Y-89800476D01*
X54820095Y-89610000D01*
X55534380Y-89419523D01*
X54534380Y-89181428D01*
X54534380Y-88895714D02*
X54534380Y-88276666D01*
X54915333Y-88610000D01*
X54915333Y-88467142D01*
X54962952Y-88371904D01*
X55010571Y-88324285D01*
X55105809Y-88276666D01*
X55343904Y-88276666D01*
X55439142Y-88324285D01*
X55486761Y-88371904D01*
X55534380Y-88467142D01*
X55534380Y-88752857D01*
X55486761Y-88848095D01*
X55439142Y-88895714D01*
%TO.C,SW2*%
X55486761Y-80148333D02*
X55534380Y-80005476D01*
X55534380Y-79767380D01*
X55486761Y-79672142D01*
X55439142Y-79624523D01*
X55343904Y-79576904D01*
X55248666Y-79576904D01*
X55153428Y-79624523D01*
X55105809Y-79672142D01*
X55058190Y-79767380D01*
X55010571Y-79957857D01*
X54962952Y-80053095D01*
X54915333Y-80100714D01*
X54820095Y-80148333D01*
X54724857Y-80148333D01*
X54629619Y-80100714D01*
X54582000Y-80053095D01*
X54534380Y-79957857D01*
X54534380Y-79719761D01*
X54582000Y-79576904D01*
X54534380Y-79243571D02*
X55534380Y-79005476D01*
X54820095Y-78815000D01*
X55534380Y-78624523D01*
X54534380Y-78386428D01*
X54629619Y-78053095D02*
X54582000Y-78005476D01*
X54534380Y-77910238D01*
X54534380Y-77672142D01*
X54582000Y-77576904D01*
X54629619Y-77529285D01*
X54724857Y-77481666D01*
X54820095Y-77481666D01*
X54962952Y-77529285D01*
X55534380Y-78100714D01*
X55534380Y-77481666D01*
%TO.C,SW1*%
X63741761Y-80148333D02*
X63789380Y-80005476D01*
X63789380Y-79767380D01*
X63741761Y-79672142D01*
X63694142Y-79624523D01*
X63598904Y-79576904D01*
X63503666Y-79576904D01*
X63408428Y-79624523D01*
X63360809Y-79672142D01*
X63313190Y-79767380D01*
X63265571Y-79957857D01*
X63217952Y-80053095D01*
X63170333Y-80100714D01*
X63075095Y-80148333D01*
X62979857Y-80148333D01*
X62884619Y-80100714D01*
X62837000Y-80053095D01*
X62789380Y-79957857D01*
X62789380Y-79719761D01*
X62837000Y-79576904D01*
X62789380Y-79243571D02*
X63789380Y-79005476D01*
X63075095Y-78815000D01*
X63789380Y-78624523D01*
X62789380Y-78386428D01*
X63789380Y-77481666D02*
X63789380Y-78053095D01*
X63789380Y-77767380D02*
X62789380Y-77767380D01*
X62932238Y-77862619D01*
X63027476Y-77957857D01*
X63075095Y-78053095D01*
%TO.C,RV1*%
X64936761Y-44567380D02*
X64365333Y-44567380D01*
X64651047Y-44567380D02*
X64651047Y-43567380D01*
X64555809Y-43710238D01*
X64460571Y-43805476D01*
X64365333Y-43853095D01*
X65555809Y-43567380D02*
X65651047Y-43567380D01*
X65746285Y-43615000D01*
X65793904Y-43662619D01*
X65841523Y-43757857D01*
X65889142Y-43948333D01*
X65889142Y-44186428D01*
X65841523Y-44376904D01*
X65793904Y-44472142D01*
X65746285Y-44519761D01*
X65651047Y-44567380D01*
X65555809Y-44567380D01*
X65460571Y-44519761D01*
X65412952Y-44472142D01*
X65365333Y-44376904D01*
X65317714Y-44186428D01*
X65317714Y-43948333D01*
X65365333Y-43757857D01*
X65412952Y-43662619D01*
X65460571Y-43615000D01*
X65555809Y-43567380D01*
X66317714Y-44567380D02*
X66317714Y-43567380D01*
X66412952Y-44186428D02*
X66698666Y-44567380D01*
X66698666Y-43900714D02*
X66317714Y-44281666D01*
X64936761Y-38552380D02*
X64603428Y-38076190D01*
X64365333Y-38552380D02*
X64365333Y-37552380D01*
X64746285Y-37552380D01*
X64841523Y-37600000D01*
X64889142Y-37647619D01*
X64936761Y-37742857D01*
X64936761Y-37885714D01*
X64889142Y-37980952D01*
X64841523Y-38028571D01*
X64746285Y-38076190D01*
X64365333Y-38076190D01*
X65222476Y-37552380D02*
X65555809Y-38552380D01*
X65889142Y-37552380D01*
X66746285Y-38552380D02*
X66174857Y-38552380D01*
X66460571Y-38552380D02*
X66460571Y-37552380D01*
X66365333Y-37695238D01*
X66270095Y-37790476D01*
X66174857Y-37838095D01*
%TO.C,R6*%
X65984380Y-49696666D02*
X65508190Y-50030000D01*
X65984380Y-50268095D02*
X64984380Y-50268095D01*
X64984380Y-49887142D01*
X65032000Y-49791904D01*
X65079619Y-49744285D01*
X65174857Y-49696666D01*
X65317714Y-49696666D01*
X65412952Y-49744285D01*
X65460571Y-49791904D01*
X65508190Y-49887142D01*
X65508190Y-50268095D01*
X64984380Y-48839523D02*
X64984380Y-49030000D01*
X65032000Y-49125238D01*
X65079619Y-49172857D01*
X65222476Y-49268095D01*
X65412952Y-49315714D01*
X65793904Y-49315714D01*
X65889142Y-49268095D01*
X65936761Y-49220476D01*
X65984380Y-49125238D01*
X65984380Y-48934761D01*
X65936761Y-48839523D01*
X65889142Y-48791904D01*
X65793904Y-48744285D01*
X65555809Y-48744285D01*
X65460571Y-48791904D01*
X65412952Y-48839523D01*
X65365333Y-48934761D01*
X65365333Y-49125238D01*
X65412952Y-49220476D01*
X65460571Y-49268095D01*
X65555809Y-49315714D01*
%TO.C,R5*%
X46299380Y-90336666D02*
X45823190Y-90670000D01*
X46299380Y-90908095D02*
X45299380Y-90908095D01*
X45299380Y-90527142D01*
X45347000Y-90431904D01*
X45394619Y-90384285D01*
X45489857Y-90336666D01*
X45632714Y-90336666D01*
X45727952Y-90384285D01*
X45775571Y-90431904D01*
X45823190Y-90527142D01*
X45823190Y-90908095D01*
X45299380Y-89431904D02*
X45299380Y-89908095D01*
X45775571Y-89955714D01*
X45727952Y-89908095D01*
X45680333Y-89812857D01*
X45680333Y-89574761D01*
X45727952Y-89479523D01*
X45775571Y-89431904D01*
X45870809Y-89384285D01*
X46108904Y-89384285D01*
X46204142Y-89431904D01*
X46251761Y-89479523D01*
X46299380Y-89574761D01*
X46299380Y-89812857D01*
X46251761Y-89908095D01*
X46204142Y-89955714D01*
%TO.C,R4*%
X46299380Y-78271666D02*
X45823190Y-78605000D01*
X46299380Y-78843095D02*
X45299380Y-78843095D01*
X45299380Y-78462142D01*
X45347000Y-78366904D01*
X45394619Y-78319285D01*
X45489857Y-78271666D01*
X45632714Y-78271666D01*
X45727952Y-78319285D01*
X45775571Y-78366904D01*
X45823190Y-78462142D01*
X45823190Y-78843095D01*
X45632714Y-77414523D02*
X46299380Y-77414523D01*
X45251761Y-77652619D02*
X45966047Y-77890714D01*
X45966047Y-77271666D01*
%TO.C,R3*%
X50109380Y-90336666D02*
X49633190Y-90670000D01*
X50109380Y-90908095D02*
X49109380Y-90908095D01*
X49109380Y-90527142D01*
X49157000Y-90431904D01*
X49204619Y-90384285D01*
X49299857Y-90336666D01*
X49442714Y-90336666D01*
X49537952Y-90384285D01*
X49585571Y-90431904D01*
X49633190Y-90527142D01*
X49633190Y-90908095D01*
X49109380Y-90003333D02*
X49109380Y-89384285D01*
X49490333Y-89717619D01*
X49490333Y-89574761D01*
X49537952Y-89479523D01*
X49585571Y-89431904D01*
X49680809Y-89384285D01*
X49918904Y-89384285D01*
X50014142Y-89431904D01*
X50061761Y-89479523D01*
X50109380Y-89574761D01*
X50109380Y-89860476D01*
X50061761Y-89955714D01*
X50014142Y-90003333D01*
%TO.C,R2*%
X50109380Y-78271666D02*
X49633190Y-78605000D01*
X50109380Y-78843095D02*
X49109380Y-78843095D01*
X49109380Y-78462142D01*
X49157000Y-78366904D01*
X49204619Y-78319285D01*
X49299857Y-78271666D01*
X49442714Y-78271666D01*
X49537952Y-78319285D01*
X49585571Y-78366904D01*
X49633190Y-78462142D01*
X49633190Y-78843095D01*
X49204619Y-77890714D02*
X49157000Y-77843095D01*
X49109380Y-77747857D01*
X49109380Y-77509761D01*
X49157000Y-77414523D01*
X49204619Y-77366904D01*
X49299857Y-77319285D01*
X49395095Y-77319285D01*
X49537952Y-77366904D01*
X50109380Y-77938333D01*
X50109380Y-77319285D01*
%TO.C,R1*%
X19645333Y-4262380D02*
X19312000Y-3786190D01*
X19073904Y-4262380D02*
X19073904Y-3262380D01*
X19454857Y-3262380D01*
X19550095Y-3310000D01*
X19597714Y-3357619D01*
X19645333Y-3452857D01*
X19645333Y-3595714D01*
X19597714Y-3690952D01*
X19550095Y-3738571D01*
X19454857Y-3786190D01*
X19073904Y-3786190D01*
X20597714Y-4262380D02*
X20026285Y-4262380D01*
X20312000Y-4262380D02*
X20312000Y-3262380D01*
X20216761Y-3405238D01*
X20121523Y-3500476D01*
X20026285Y-3548095D01*
%TO.C,J8*%
X8429666Y-75017380D02*
X8429666Y-75731666D01*
X8382047Y-75874523D01*
X8286809Y-75969761D01*
X8143952Y-76017380D01*
X8048714Y-76017380D01*
X9048714Y-75445952D02*
X8953476Y-75398333D01*
X8905857Y-75350714D01*
X8858238Y-75255476D01*
X8858238Y-75207857D01*
X8905857Y-75112619D01*
X8953476Y-75065000D01*
X9048714Y-75017380D01*
X9239190Y-75017380D01*
X9334428Y-75065000D01*
X9382047Y-75112619D01*
X9429666Y-75207857D01*
X9429666Y-75255476D01*
X9382047Y-75350714D01*
X9334428Y-75398333D01*
X9239190Y-75445952D01*
X9048714Y-75445952D01*
X8953476Y-75493571D01*
X8905857Y-75541190D01*
X8858238Y-75636428D01*
X8858238Y-75826904D01*
X8905857Y-75922142D01*
X8953476Y-75969761D01*
X9048714Y-76017380D01*
X9239190Y-76017380D01*
X9334428Y-75969761D01*
X9382047Y-75922142D01*
X9429666Y-75826904D01*
X9429666Y-75636428D01*
X9382047Y-75541190D01*
X9334428Y-75493571D01*
X9239190Y-75445952D01*
%TO.C,J3*%
D12*
X65900333Y-8451904D02*
X65900333Y-9023333D01*
X65862238Y-9137619D01*
X65786047Y-9213809D01*
X65671761Y-9251904D01*
X65595571Y-9251904D01*
X66205095Y-8451904D02*
X66700333Y-8451904D01*
X66433666Y-8756666D01*
X66547952Y-8756666D01*
X66624142Y-8794761D01*
X66662238Y-8832857D01*
X66700333Y-8909047D01*
X66700333Y-9099523D01*
X66662238Y-9175714D01*
X66624142Y-9213809D01*
X66547952Y-9251904D01*
X66319380Y-9251904D01*
X66243190Y-9213809D01*
X66205095Y-9175714D01*
%TO.C,J2*%
X51930333Y-8451904D02*
X51930333Y-9023333D01*
X51892238Y-9137619D01*
X51816047Y-9213809D01*
X51701761Y-9251904D01*
X51625571Y-9251904D01*
X52273190Y-8528095D02*
X52311285Y-8490000D01*
X52387476Y-8451904D01*
X52577952Y-8451904D01*
X52654142Y-8490000D01*
X52692238Y-8528095D01*
X52730333Y-8604285D01*
X52730333Y-8680476D01*
X52692238Y-8794761D01*
X52235095Y-9251904D01*
X52730333Y-9251904D01*
%TO.C,J1*%
X37960333Y-8451904D02*
X37960333Y-9023333D01*
X37922238Y-9137619D01*
X37846047Y-9213809D01*
X37731761Y-9251904D01*
X37655571Y-9251904D01*
X38760333Y-9251904D02*
X38303190Y-9251904D01*
X38531761Y-9251904D02*
X38531761Y-8451904D01*
X38455571Y-8566190D01*
X38379380Y-8642380D01*
X38303190Y-8680476D01*
%TO.C,D1*%
D11*
X8414142Y-7222380D02*
X7937952Y-7222380D01*
X7937952Y-6222380D01*
X8747476Y-6698571D02*
X9080809Y-6698571D01*
X9223666Y-7222380D02*
X8747476Y-7222380D01*
X8747476Y-6222380D01*
X9223666Y-6222380D01*
X9652238Y-7222380D02*
X9652238Y-6222380D01*
X9890333Y-6222380D01*
X10033190Y-6270000D01*
X10128428Y-6365238D01*
X10176047Y-6460476D01*
X10223666Y-6650952D01*
X10223666Y-6793809D01*
X10176047Y-6984285D01*
X10128428Y-7079523D01*
X10033190Y-7174761D01*
X9890333Y-7222380D01*
X9652238Y-7222380D01*
X10414142Y-7317619D02*
X11176047Y-7317619D01*
X11366523Y-7174761D02*
X11509380Y-7222380D01*
X11747476Y-7222380D01*
X11842714Y-7174761D01*
X11890333Y-7127142D01*
X11937952Y-7031904D01*
X11937952Y-6936666D01*
X11890333Y-6841428D01*
X11842714Y-6793809D01*
X11747476Y-6746190D01*
X11557000Y-6698571D01*
X11461761Y-6650952D01*
X11414142Y-6603333D01*
X11366523Y-6508095D01*
X11366523Y-6412857D01*
X11414142Y-6317619D01*
X11461761Y-6270000D01*
X11557000Y-6222380D01*
X11795095Y-6222380D01*
X11937952Y-6270000D01*
X12366523Y-7222380D02*
X12366523Y-6555714D01*
X12366523Y-6650952D02*
X12414142Y-6603333D01*
X12509380Y-6555714D01*
X12652238Y-6555714D01*
X12747476Y-6603333D01*
X12795095Y-6698571D01*
X12795095Y-7222380D01*
X12795095Y-6698571D02*
X12842714Y-6603333D01*
X12937952Y-6555714D01*
X13080809Y-6555714D01*
X13176047Y-6603333D01*
X13223666Y-6698571D01*
X13223666Y-7222380D01*
X14128428Y-7222380D02*
X14128428Y-6698571D01*
X14080809Y-6603333D01*
X13985571Y-6555714D01*
X13795095Y-6555714D01*
X13699857Y-6603333D01*
X14128428Y-7174761D02*
X14033190Y-7222380D01*
X13795095Y-7222380D01*
X13699857Y-7174761D01*
X13652238Y-7079523D01*
X13652238Y-6984285D01*
X13699857Y-6889047D01*
X13795095Y-6841428D01*
X14033190Y-6841428D01*
X14128428Y-6793809D01*
X14747476Y-7222380D02*
X14652238Y-7174761D01*
X14604619Y-7079523D01*
X14604619Y-6222380D01*
X15271285Y-7222380D02*
X15176047Y-7174761D01*
X15128428Y-7079523D01*
X15128428Y-6222380D01*
%TO.C,C2*%
X27039142Y-5312380D02*
X27134380Y-5312380D01*
X27229619Y-5360000D01*
X27277238Y-5407619D01*
X27324857Y-5502857D01*
X27372476Y-5693333D01*
X27372476Y-5931428D01*
X27324857Y-6121904D01*
X27277238Y-6217142D01*
X27229619Y-6264761D01*
X27134380Y-6312380D01*
X27039142Y-6312380D01*
X26943904Y-6264761D01*
X26896285Y-6217142D01*
X26848666Y-6121904D01*
X26801047Y-5931428D01*
X26801047Y-5693333D01*
X26848666Y-5502857D01*
X26896285Y-5407619D01*
X26943904Y-5360000D01*
X27039142Y-5312380D01*
X27801047Y-6217142D02*
X27848666Y-6264761D01*
X27801047Y-6312380D01*
X27753428Y-6264761D01*
X27801047Y-6217142D01*
X27801047Y-6312380D01*
X28801047Y-6312380D02*
X28229619Y-6312380D01*
X28515333Y-6312380D02*
X28515333Y-5312380D01*
X28420095Y-5455238D01*
X28324857Y-5550476D01*
X28229619Y-5598095D01*
X29658190Y-5645714D02*
X29658190Y-6312380D01*
X29229619Y-5645714D02*
X29229619Y-6169523D01*
X29277238Y-6264761D01*
X29372476Y-6312380D01*
X29515333Y-6312380D01*
X29610571Y-6264761D01*
X29658190Y-6217142D01*
X30467714Y-5788571D02*
X30134380Y-5788571D01*
X30134380Y-6312380D02*
X30134380Y-5312380D01*
X30610571Y-5312380D01*
D13*
X28582000Y-4024285D02*
X28553428Y-4052857D01*
X28467714Y-4081428D01*
X28410571Y-4081428D01*
X28324857Y-4052857D01*
X28267714Y-3995714D01*
X28239142Y-3938571D01*
X28210571Y-3824285D01*
X28210571Y-3738571D01*
X28239142Y-3624285D01*
X28267714Y-3567142D01*
X28324857Y-3510000D01*
X28410571Y-3481428D01*
X28467714Y-3481428D01*
X28553428Y-3510000D01*
X28582000Y-3538571D01*
X28810571Y-3538571D02*
X28839142Y-3510000D01*
X28896285Y-3481428D01*
X29039142Y-3481428D01*
X29096285Y-3510000D01*
X29124857Y-3538571D01*
X29153428Y-3595714D01*
X29153428Y-3652857D01*
X29124857Y-3738571D01*
X28782000Y-4081428D01*
X29153428Y-4081428D01*
%TO.C,C1*%
D11*
X32109380Y-16109047D02*
X32109380Y-16013809D01*
X32157000Y-15918571D01*
X32204619Y-15870952D01*
X32299857Y-15823333D01*
X32490333Y-15775714D01*
X32728428Y-15775714D01*
X32918904Y-15823333D01*
X33014142Y-15870952D01*
X33061761Y-15918571D01*
X33109380Y-16013809D01*
X33109380Y-16109047D01*
X33061761Y-16204285D01*
X33014142Y-16251904D01*
X32918904Y-16299523D01*
X32728428Y-16347142D01*
X32490333Y-16347142D01*
X32299857Y-16299523D01*
X32204619Y-16251904D01*
X32157000Y-16204285D01*
X32109380Y-16109047D01*
X33014142Y-15347142D02*
X33061761Y-15299523D01*
X33109380Y-15347142D01*
X33061761Y-15394761D01*
X33014142Y-15347142D01*
X33109380Y-15347142D01*
X32109380Y-14966190D02*
X32109380Y-14347142D01*
X32490333Y-14680476D01*
X32490333Y-14537619D01*
X32537952Y-14442380D01*
X32585571Y-14394761D01*
X32680809Y-14347142D01*
X32918904Y-14347142D01*
X33014142Y-14394761D01*
X33061761Y-14442380D01*
X33109380Y-14537619D01*
X33109380Y-14823333D01*
X33061761Y-14918571D01*
X33014142Y-14966190D01*
X32109380Y-14013809D02*
X32109380Y-13394761D01*
X32490333Y-13728095D01*
X32490333Y-13585238D01*
X32537952Y-13490000D01*
X32585571Y-13442380D01*
X32680809Y-13394761D01*
X32918904Y-13394761D01*
X33014142Y-13442380D01*
X33061761Y-13490000D01*
X33109380Y-13585238D01*
X33109380Y-13870952D01*
X33061761Y-13966190D01*
X33014142Y-14013809D01*
X32442714Y-12537619D02*
X33109380Y-12537619D01*
X32442714Y-12966190D02*
X32966523Y-12966190D01*
X33061761Y-12918571D01*
X33109380Y-12823333D01*
X33109380Y-12680476D01*
X33061761Y-12585238D01*
X33014142Y-12537619D01*
X32585571Y-11728095D02*
X32585571Y-12061428D01*
X33109380Y-12061428D02*
X32109380Y-12061428D01*
X32109380Y-11585238D01*
D13*
X30821285Y-14090000D02*
X30849857Y-14118571D01*
X30878428Y-14204285D01*
X30878428Y-14261428D01*
X30849857Y-14347142D01*
X30792714Y-14404285D01*
X30735571Y-14432857D01*
X30621285Y-14461428D01*
X30535571Y-14461428D01*
X30421285Y-14432857D01*
X30364142Y-14404285D01*
X30307000Y-14347142D01*
X30278428Y-14261428D01*
X30278428Y-14204285D01*
X30307000Y-14118571D01*
X30335571Y-14090000D01*
X30878428Y-13518571D02*
X30878428Y-13861428D01*
X30878428Y-13690000D02*
X30278428Y-13690000D01*
X30364142Y-13747142D01*
X30421285Y-13804285D01*
X30449857Y-13861428D01*
%TD*%
M02*
