%TF.GenerationSoftware,KiCad,Pcbnew,(5.1.9)-1*%
%TF.CreationDate,2021-06-23T18:15:50-03:00*%
%TF.ProjectId,assert,61737365-7274-42e6-9b69-6361645f7063,rev?*%
%TF.SameCoordinates,Original*%
%TF.FileFunction,Other,User*%
%FSLAX46Y46*%
G04 Gerber Fmt 4.6, Leading zero omitted, Abs format (unit mm)*
G04 Created by KiCad (PCBNEW (5.1.9)-1) date 2021-06-23 18:15:50*
%MOMM*%
%LPD*%
G01*
G04 APERTURE LIST*
%ADD10C,0.050000*%
G04 APERTURE END LIST*
D10*
%TO.C,U2*%
X68727000Y-99020000D02*
X105227000Y-99020000D01*
X105227000Y-99020000D02*
X105227000Y-18520000D01*
X68727000Y-18520000D02*
X105227000Y-18520000D01*
X68727000Y-99020000D02*
X68727000Y-18520000D01*
%TO.C,A1*%
X-6473000Y-18165000D02*
X60067000Y-18165000D01*
X-6473000Y-21335000D02*
X-6473000Y-18165000D01*
X-8383000Y-21335000D02*
X-6473000Y-21335000D01*
X-8383000Y-30735000D02*
X-8383000Y-21335000D01*
X-6473000Y-30735000D02*
X-8383000Y-30735000D01*
X-6473000Y-50545000D02*
X-6473000Y-30735000D01*
X-12823000Y-50545000D02*
X-6473000Y-50545000D01*
X-12823000Y-62485000D02*
X-12823000Y-50545000D01*
X-6473000Y-62485000D02*
X-12823000Y-62485000D01*
X-6473000Y-72005000D02*
X-6473000Y-62485000D01*
X58297000Y-72005000D02*
X-6473000Y-72005000D01*
X60067000Y-70235000D02*
X58297000Y-72005000D01*
X60067000Y-58805000D02*
X60067000Y-70235000D01*
X62607000Y-56265000D02*
X60067000Y-58805000D01*
X62607000Y-23495000D02*
X62607000Y-56265000D01*
X60067000Y-20955000D02*
X62607000Y-23495000D01*
X60067000Y-18165000D02*
X60067000Y-20955000D01*
%TO.C,J5*%
X99222000Y-8890000D02*
G75*
G03*
X99222000Y-8890000I-5750000J0D01*
G01*
%TO.C,J4*%
X85887000Y-8890000D02*
G75*
G03*
X85887000Y-8890000I-5750000J0D01*
G01*
%TO.C,J9*%
X25037000Y-73765000D02*
X43837000Y-73765000D01*
X25037000Y-77315000D02*
X25037000Y-73765000D01*
X43837000Y-77315000D02*
X25037000Y-77315000D01*
X43837000Y-73765000D02*
X43837000Y-77315000D01*
%TO.C,U1*%
X7237000Y-16680000D02*
X28197000Y-16680000D01*
X28197000Y-16680000D02*
X28197000Y-6180000D01*
X28197000Y-6180000D02*
X7237000Y-6180000D01*
X7237000Y-6180000D02*
X7237000Y-16680000D01*
%TO.C,SW4*%
X59782000Y-84860000D02*
X66782000Y-84860000D01*
X67032000Y-85110000D02*
X67032000Y-94110000D01*
X66782000Y-94360000D02*
X59782000Y-94360000D01*
X59532000Y-94110000D02*
X59532000Y-85110000D01*
X67032000Y-94360000D02*
X67032000Y-94110000D01*
X66782000Y-94360000D02*
X67032000Y-94360000D01*
X59532000Y-94360000D02*
X59532000Y-94110000D01*
X59782000Y-94360000D02*
X59532000Y-94360000D01*
X59532000Y-84860000D02*
X59782000Y-84860000D01*
X59532000Y-85110000D02*
X59532000Y-84860000D01*
X67032000Y-84860000D02*
X66782000Y-84860000D01*
X67032000Y-85110000D02*
X67032000Y-84860000D01*
%TO.C,SW3*%
X51582000Y-84860000D02*
X58582000Y-84860000D01*
X58832000Y-85110000D02*
X58832000Y-94110000D01*
X58582000Y-94360000D02*
X51582000Y-94360000D01*
X51332000Y-94110000D02*
X51332000Y-85110000D01*
X58832000Y-94360000D02*
X58832000Y-94110000D01*
X58582000Y-94360000D02*
X58832000Y-94360000D01*
X51332000Y-94360000D02*
X51332000Y-94110000D01*
X51582000Y-94360000D02*
X51332000Y-94360000D01*
X51332000Y-84860000D02*
X51582000Y-84860000D01*
X51332000Y-85110000D02*
X51332000Y-84860000D01*
X58832000Y-84860000D02*
X58582000Y-84860000D01*
X58832000Y-85110000D02*
X58832000Y-84860000D01*
%TO.C,SW2*%
X51582000Y-74065000D02*
X58582000Y-74065000D01*
X58832000Y-74315000D02*
X58832000Y-83315000D01*
X58582000Y-83565000D02*
X51582000Y-83565000D01*
X51332000Y-83315000D02*
X51332000Y-74315000D01*
X58832000Y-83565000D02*
X58832000Y-83315000D01*
X58582000Y-83565000D02*
X58832000Y-83565000D01*
X51332000Y-83565000D02*
X51332000Y-83315000D01*
X51582000Y-83565000D02*
X51332000Y-83565000D01*
X51332000Y-74065000D02*
X51582000Y-74065000D01*
X51332000Y-74315000D02*
X51332000Y-74065000D01*
X58832000Y-74065000D02*
X58582000Y-74065000D01*
X58832000Y-74315000D02*
X58832000Y-74065000D01*
%TO.C,SW1*%
X66837000Y-83565000D02*
X59837000Y-83565000D01*
X59587000Y-83315000D02*
X59587000Y-74315000D01*
X59837000Y-74065000D02*
X66837000Y-74065000D01*
X67087000Y-74315000D02*
X67087000Y-83315000D01*
X59587000Y-74065000D02*
X59587000Y-74315000D01*
X59837000Y-74065000D02*
X59587000Y-74065000D01*
X67087000Y-74065000D02*
X67087000Y-74315000D01*
X66837000Y-74065000D02*
X67087000Y-74065000D01*
X67087000Y-83565000D02*
X66837000Y-83565000D01*
X67087000Y-83315000D02*
X67087000Y-83565000D01*
X59587000Y-83565000D02*
X59837000Y-83565000D01*
X59587000Y-83315000D02*
X59587000Y-83565000D01*
%TO.C,RV1*%
X68202000Y-33080000D02*
X62862000Y-33080000D01*
X68202000Y-43120000D02*
X68202000Y-33080000D01*
X62862000Y-43120000D02*
X68202000Y-43120000D01*
X62862000Y-33080000D02*
X62862000Y-43120000D01*
%TO.C,R6*%
X67032000Y-54390000D02*
X67032000Y-44670000D01*
X64032000Y-54390000D02*
X67032000Y-54390000D01*
X64032000Y-44670000D02*
X64032000Y-54390000D01*
X67032000Y-44670000D02*
X64032000Y-44670000D01*
%TO.C,R5*%
X47347000Y-95030000D02*
X47347000Y-85310000D01*
X44347000Y-95030000D02*
X47347000Y-95030000D01*
X44347000Y-85310000D02*
X44347000Y-95030000D01*
X47347000Y-85310000D02*
X44347000Y-85310000D01*
%TO.C,R4*%
X44347000Y-73245000D02*
X44347000Y-82965000D01*
X47347000Y-73245000D02*
X44347000Y-73245000D01*
X47347000Y-82965000D02*
X47347000Y-73245000D01*
X44347000Y-82965000D02*
X47347000Y-82965000D01*
%TO.C,R3*%
X48157000Y-85310000D02*
X48157000Y-95030000D01*
X51157000Y-85310000D02*
X48157000Y-85310000D01*
X51157000Y-95030000D02*
X51157000Y-85310000D01*
X48157000Y-95030000D02*
X51157000Y-95030000D01*
%TO.C,R2*%
X48157000Y-73245000D02*
X48157000Y-82965000D01*
X51157000Y-73245000D02*
X48157000Y-73245000D01*
X51157000Y-82965000D02*
X51157000Y-73245000D01*
X48157000Y-82965000D02*
X51157000Y-82965000D01*
%TO.C,R1*%
X14952000Y-5310000D02*
X24672000Y-5310000D01*
X14952000Y-2310000D02*
X14952000Y-5310000D01*
X24672000Y-2310000D02*
X14952000Y-2310000D01*
X24672000Y-5310000D02*
X24672000Y-2310000D01*
%TO.C,J8*%
X663000Y-73765000D02*
X16913000Y-73765000D01*
X663000Y-77315000D02*
X663000Y-73765000D01*
X16913000Y-77315000D02*
X663000Y-77315000D01*
X16913000Y-73765000D02*
X16913000Y-77315000D01*
%TO.C,J3*%
X71917000Y-8890000D02*
G75*
G03*
X71917000Y-8890000I-5750000J0D01*
G01*
%TO.C,J2*%
X57947000Y-8890000D02*
G75*
G03*
X57947000Y-8890000I-5750000J0D01*
G01*
%TO.C,J1*%
X43977000Y-8890000D02*
G75*
G03*
X43977000Y-8890000I-5750000J0D01*
G01*
%TO.C,D1*%
X13987000Y-1560000D02*
X9137000Y-1560000D01*
X13987000Y-6060000D02*
X13987000Y-1560000D01*
X9137000Y-6060000D02*
X13987000Y-6060000D01*
X9137000Y-1560000D02*
X9137000Y-6060000D01*
%TO.C,C2*%
X30982000Y-2760000D02*
X26382000Y-2760000D01*
X30982000Y-4860000D02*
X30982000Y-2760000D01*
X26382000Y-4860000D02*
X30982000Y-4860000D01*
X26382000Y-2760000D02*
X26382000Y-4860000D01*
%TO.C,C1*%
X29557000Y-11690000D02*
X29557000Y-16290000D01*
X31657000Y-11690000D02*
X29557000Y-11690000D01*
X31657000Y-16290000D02*
X31657000Y-11690000D01*
X29557000Y-16290000D02*
X31657000Y-16290000D01*
%TD*%
M02*
