G04 #@! TF.GenerationSoftware,KiCad,Pcbnew,(5.1.6)-1*
G04 #@! TF.CreationDate,2020-08-29T10:58:44-03:00*
G04 #@! TF.ProjectId,fontes2,666f6e74-6573-4322-9e6b-696361645f70,rev?*
G04 #@! TF.SameCoordinates,Original*
G04 #@! TF.FileFunction,Soldermask,Bot*
G04 #@! TF.FilePolarity,Negative*
%FSLAX46Y46*%
G04 Gerber Fmt 4.6, Leading zero omitted, Abs format (unit mm)*
G04 Created by KiCad (PCBNEW (5.1.6)-1) date 2020-08-29 10:58:44*
%MOMM*%
%LPD*%
G01*
G04 APERTURE LIST*
%ADD10C,0.100000*%
G04 APERTURE END LIST*
D10*
G36*
X160551060Y-109116060D02*
G01*
X156948940Y-109116060D01*
X156948940Y-105513940D01*
X160551060Y-105513940D01*
X160551060Y-109116060D01*
G37*
G36*
X141196905Y-105523789D02*
G01*
X141495350Y-105583153D01*
X141823122Y-105718921D01*
X142118109Y-105916025D01*
X142368975Y-106166891D01*
X142566079Y-106461878D01*
X142701847Y-106789650D01*
X142771060Y-107137611D01*
X142771060Y-107492389D01*
X142701847Y-107840350D01*
X142566079Y-108168122D01*
X142368975Y-108463109D01*
X142118109Y-108713975D01*
X141823122Y-108911079D01*
X141495350Y-109046847D01*
X141196905Y-109106211D01*
X141147390Y-109116060D01*
X140792610Y-109116060D01*
X140743095Y-109106211D01*
X140444650Y-109046847D01*
X140116878Y-108911079D01*
X139821891Y-108713975D01*
X139571025Y-108463109D01*
X139373921Y-108168122D01*
X139238153Y-107840350D01*
X139168940Y-107492389D01*
X139168940Y-107137611D01*
X139238153Y-106789650D01*
X139373921Y-106461878D01*
X139571025Y-106166891D01*
X139821891Y-105916025D01*
X140116878Y-105718921D01*
X140444650Y-105583153D01*
X140743095Y-105523789D01*
X140792610Y-105513940D01*
X141147390Y-105513940D01*
X141196905Y-105523789D01*
G37*
G36*
X147851060Y-109116060D02*
G01*
X144248940Y-109116060D01*
X144248940Y-105513940D01*
X147851060Y-105513940D01*
X147851060Y-109116060D01*
G37*
G36*
X153896905Y-105523789D02*
G01*
X154195350Y-105583153D01*
X154523122Y-105718921D01*
X154818109Y-105916025D01*
X155068975Y-106166891D01*
X155266079Y-106461878D01*
X155401847Y-106789650D01*
X155471060Y-107137611D01*
X155471060Y-107492389D01*
X155401847Y-107840350D01*
X155266079Y-108168122D01*
X155068975Y-108463109D01*
X154818109Y-108713975D01*
X154523122Y-108911079D01*
X154195350Y-109046847D01*
X153896905Y-109106211D01*
X153847390Y-109116060D01*
X153492610Y-109116060D01*
X153443095Y-109106211D01*
X153144650Y-109046847D01*
X152816878Y-108911079D01*
X152521891Y-108713975D01*
X152271025Y-108463109D01*
X152073921Y-108168122D01*
X151938153Y-107840350D01*
X151868940Y-107492389D01*
X151868940Y-107137611D01*
X151938153Y-106789650D01*
X152073921Y-106461878D01*
X152271025Y-106166891D01*
X152521891Y-105916025D01*
X152816878Y-105718921D01*
X153144650Y-105583153D01*
X153443095Y-105523789D01*
X153492610Y-105513940D01*
X153847390Y-105513940D01*
X153896905Y-105523789D01*
G37*
G36*
X103096905Y-105523789D02*
G01*
X103395350Y-105583153D01*
X103723122Y-105718921D01*
X104018109Y-105916025D01*
X104268975Y-106166891D01*
X104466079Y-106461878D01*
X104601847Y-106789650D01*
X104671060Y-107137611D01*
X104671060Y-107492389D01*
X104601847Y-107840350D01*
X104466079Y-108168122D01*
X104268975Y-108463109D01*
X104018109Y-108713975D01*
X103723122Y-108911079D01*
X103395350Y-109046847D01*
X103096905Y-109106211D01*
X103047390Y-109116060D01*
X102692610Y-109116060D01*
X102643095Y-109106211D01*
X102344650Y-109046847D01*
X102016878Y-108911079D01*
X101721891Y-108713975D01*
X101471025Y-108463109D01*
X101273921Y-108168122D01*
X101138153Y-107840350D01*
X101068940Y-107492389D01*
X101068940Y-107137611D01*
X101138153Y-106789650D01*
X101273921Y-106461878D01*
X101471025Y-106166891D01*
X101721891Y-105916025D01*
X102016878Y-105718921D01*
X102344650Y-105583153D01*
X102643095Y-105523789D01*
X102692610Y-105513940D01*
X103047390Y-105513940D01*
X103096905Y-105523789D01*
G37*
G36*
X109751060Y-109116060D02*
G01*
X106148940Y-109116060D01*
X106148940Y-105513940D01*
X109751060Y-105513940D01*
X109751060Y-109116060D01*
G37*
G36*
X128496905Y-105523789D02*
G01*
X128795350Y-105583153D01*
X129123122Y-105718921D01*
X129418109Y-105916025D01*
X129668975Y-106166891D01*
X129866079Y-106461878D01*
X130001847Y-106789650D01*
X130071060Y-107137611D01*
X130071060Y-107492389D01*
X130001847Y-107840350D01*
X129866079Y-108168122D01*
X129668975Y-108463109D01*
X129418109Y-108713975D01*
X129123122Y-108911079D01*
X128795350Y-109046847D01*
X128496905Y-109106211D01*
X128447390Y-109116060D01*
X128092610Y-109116060D01*
X128043095Y-109106211D01*
X127744650Y-109046847D01*
X127416878Y-108911079D01*
X127121891Y-108713975D01*
X126871025Y-108463109D01*
X126673921Y-108168122D01*
X126538153Y-107840350D01*
X126468940Y-107492389D01*
X126468940Y-107137611D01*
X126538153Y-106789650D01*
X126673921Y-106461878D01*
X126871025Y-106166891D01*
X127121891Y-105916025D01*
X127416878Y-105718921D01*
X127744650Y-105583153D01*
X128043095Y-105523789D01*
X128092610Y-105513940D01*
X128447390Y-105513940D01*
X128496905Y-105523789D01*
G37*
G36*
X135151060Y-109116060D02*
G01*
X131548940Y-109116060D01*
X131548940Y-105513940D01*
X135151060Y-105513940D01*
X135151060Y-109116060D01*
G37*
G36*
X115796905Y-105523789D02*
G01*
X116095350Y-105583153D01*
X116423122Y-105718921D01*
X116718109Y-105916025D01*
X116968975Y-106166891D01*
X117166079Y-106461878D01*
X117301847Y-106789650D01*
X117371060Y-107137611D01*
X117371060Y-107492389D01*
X117301847Y-107840350D01*
X117166079Y-108168122D01*
X116968975Y-108463109D01*
X116718109Y-108713975D01*
X116423122Y-108911079D01*
X116095350Y-109046847D01*
X115796905Y-109106211D01*
X115747390Y-109116060D01*
X115392610Y-109116060D01*
X115343095Y-109106211D01*
X115044650Y-109046847D01*
X114716878Y-108911079D01*
X114421891Y-108713975D01*
X114171025Y-108463109D01*
X113973921Y-108168122D01*
X113838153Y-107840350D01*
X113768940Y-107492389D01*
X113768940Y-107137611D01*
X113838153Y-106789650D01*
X113973921Y-106461878D01*
X114171025Y-106166891D01*
X114421891Y-105916025D01*
X114716878Y-105718921D01*
X115044650Y-105583153D01*
X115343095Y-105523789D01*
X115392610Y-105513940D01*
X115747390Y-105513940D01*
X115796905Y-105523789D01*
G37*
G36*
X122451060Y-109116060D02*
G01*
X118848940Y-109116060D01*
X118848940Y-105513940D01*
X122451060Y-105513940D01*
X122451060Y-109116060D01*
G37*
G36*
X166596905Y-104888789D02*
G01*
X166895350Y-104948153D01*
X167223122Y-105083921D01*
X167518109Y-105281025D01*
X167768975Y-105531891D01*
X167966079Y-105826878D01*
X168101847Y-106154650D01*
X168171060Y-106502611D01*
X168171060Y-106857389D01*
X168101847Y-107205350D01*
X167966079Y-107533122D01*
X167768975Y-107828109D01*
X167518109Y-108078975D01*
X167223122Y-108276079D01*
X166895350Y-108411847D01*
X166596905Y-108471211D01*
X166547390Y-108481060D01*
X166192610Y-108481060D01*
X166143095Y-108471211D01*
X165844650Y-108411847D01*
X165516878Y-108276079D01*
X165221891Y-108078975D01*
X164971025Y-107828109D01*
X164773921Y-107533122D01*
X164638153Y-107205350D01*
X164568940Y-106857389D01*
X164568940Y-106502611D01*
X164638153Y-106154650D01*
X164773921Y-105826878D01*
X164971025Y-105531891D01*
X165221891Y-105281025D01*
X165516878Y-105083921D01*
X165844650Y-104948153D01*
X166143095Y-104888789D01*
X166192610Y-104878940D01*
X166547390Y-104878940D01*
X166596905Y-104888789D01*
G37*
G36*
X173251060Y-108481060D02*
G01*
X169648940Y-108481060D01*
X169648940Y-104878940D01*
X173251060Y-104878940D01*
X173251060Y-108481060D01*
G37*
G36*
X172944549Y-97691116D02*
G01*
X173055734Y-97713232D01*
X173265203Y-97799997D01*
X173453720Y-97925960D01*
X173614040Y-98086280D01*
X173740003Y-98274797D01*
X173826768Y-98484266D01*
X173871000Y-98706636D01*
X173871000Y-98933364D01*
X173826768Y-99155734D01*
X173740003Y-99365203D01*
X173614040Y-99553720D01*
X173453720Y-99714040D01*
X173265203Y-99840003D01*
X173055734Y-99926768D01*
X172944549Y-99948884D01*
X172833365Y-99971000D01*
X172606635Y-99971000D01*
X172495451Y-99948884D01*
X172384266Y-99926768D01*
X172174797Y-99840003D01*
X171986280Y-99714040D01*
X171825960Y-99553720D01*
X171699997Y-99365203D01*
X171613232Y-99155734D01*
X171569000Y-98933364D01*
X171569000Y-98706636D01*
X171613232Y-98484266D01*
X171699997Y-98274797D01*
X171825960Y-98086280D01*
X171986280Y-97925960D01*
X172174797Y-97799997D01*
X172384266Y-97713232D01*
X172495451Y-97691116D01*
X172606635Y-97669000D01*
X172833365Y-97669000D01*
X172944549Y-97691116D01*
G37*
G36*
X137815187Y-95616123D02*
G01*
X137986255Y-95686982D01*
X137986257Y-95686983D01*
X138063758Y-95738768D01*
X138140214Y-95789854D01*
X138271146Y-95920786D01*
X138374018Y-96074745D01*
X138444877Y-96245813D01*
X138481000Y-96427417D01*
X138481000Y-96612583D01*
X138444877Y-96794187D01*
X138374018Y-96965255D01*
X138374017Y-96965257D01*
X138271145Y-97119215D01*
X138140215Y-97250145D01*
X137986257Y-97353017D01*
X137986256Y-97353018D01*
X137986255Y-97353018D01*
X137815187Y-97423877D01*
X137633583Y-97460000D01*
X137448417Y-97460000D01*
X137266813Y-97423877D01*
X137095745Y-97353018D01*
X137095744Y-97353018D01*
X137095743Y-97353017D01*
X136941785Y-97250145D01*
X136810855Y-97119215D01*
X136707983Y-96965257D01*
X136707982Y-96965255D01*
X136637123Y-96794187D01*
X136601000Y-96612583D01*
X136601000Y-96427417D01*
X136637123Y-96245813D01*
X136707982Y-96074745D01*
X136810854Y-95920786D01*
X136941786Y-95789854D01*
X137018242Y-95738768D01*
X137095743Y-95686983D01*
X137095745Y-95686982D01*
X137266813Y-95616123D01*
X137448417Y-95580000D01*
X137633583Y-95580000D01*
X137815187Y-95616123D01*
G37*
G36*
X122829187Y-95616123D02*
G01*
X123000255Y-95686982D01*
X123000257Y-95686983D01*
X123077758Y-95738768D01*
X123154214Y-95789854D01*
X123285146Y-95920786D01*
X123388018Y-96074745D01*
X123458877Y-96245813D01*
X123495000Y-96427417D01*
X123495000Y-96612583D01*
X123458877Y-96794187D01*
X123388018Y-96965255D01*
X123388017Y-96965257D01*
X123285145Y-97119215D01*
X123154215Y-97250145D01*
X123000257Y-97353017D01*
X123000256Y-97353018D01*
X123000255Y-97353018D01*
X122829187Y-97423877D01*
X122647583Y-97460000D01*
X122462417Y-97460000D01*
X122280813Y-97423877D01*
X122109745Y-97353018D01*
X122109744Y-97353018D01*
X122109743Y-97353017D01*
X121955785Y-97250145D01*
X121824855Y-97119215D01*
X121721983Y-96965257D01*
X121721982Y-96965255D01*
X121651123Y-96794187D01*
X121615000Y-96612583D01*
X121615000Y-96427417D01*
X121651123Y-96245813D01*
X121721982Y-96074745D01*
X121824854Y-95920786D01*
X121955786Y-95789854D01*
X122032242Y-95738768D01*
X122109743Y-95686983D01*
X122109745Y-95686982D01*
X122280813Y-95616123D01*
X122462417Y-95580000D01*
X122647583Y-95580000D01*
X122829187Y-95616123D01*
G37*
G36*
X130322187Y-95616123D02*
G01*
X130493255Y-95686982D01*
X130493257Y-95686983D01*
X130570758Y-95738768D01*
X130647214Y-95789854D01*
X130778146Y-95920786D01*
X130881018Y-96074745D01*
X130951877Y-96245813D01*
X130988000Y-96427417D01*
X130988000Y-96612583D01*
X130951877Y-96794187D01*
X130881018Y-96965255D01*
X130881017Y-96965257D01*
X130778145Y-97119215D01*
X130647215Y-97250145D01*
X130493257Y-97353017D01*
X130493256Y-97353018D01*
X130493255Y-97353018D01*
X130322187Y-97423877D01*
X130140583Y-97460000D01*
X129955417Y-97460000D01*
X129773813Y-97423877D01*
X129602745Y-97353018D01*
X129602744Y-97353018D01*
X129602743Y-97353017D01*
X129448785Y-97250145D01*
X129317855Y-97119215D01*
X129214983Y-96965257D01*
X129214982Y-96965255D01*
X129144123Y-96794187D01*
X129108000Y-96612583D01*
X129108000Y-96427417D01*
X129144123Y-96245813D01*
X129214982Y-96074745D01*
X129317854Y-95920786D01*
X129448786Y-95789854D01*
X129525242Y-95738768D01*
X129602743Y-95686983D01*
X129602745Y-95686982D01*
X129773813Y-95616123D01*
X129955417Y-95580000D01*
X130140583Y-95580000D01*
X130322187Y-95616123D01*
G37*
G36*
X147848187Y-95616123D02*
G01*
X148019255Y-95686982D01*
X148019257Y-95686983D01*
X148096758Y-95738768D01*
X148173214Y-95789854D01*
X148304146Y-95920786D01*
X148407018Y-96074745D01*
X148477877Y-96245813D01*
X148514000Y-96427417D01*
X148514000Y-96612583D01*
X148477877Y-96794187D01*
X148407018Y-96965255D01*
X148407017Y-96965257D01*
X148304145Y-97119215D01*
X148173215Y-97250145D01*
X148019257Y-97353017D01*
X148019256Y-97353018D01*
X148019255Y-97353018D01*
X147848187Y-97423877D01*
X147666583Y-97460000D01*
X147481417Y-97460000D01*
X147299813Y-97423877D01*
X147128745Y-97353018D01*
X147128744Y-97353018D01*
X147128743Y-97353017D01*
X146974785Y-97250145D01*
X146843855Y-97119215D01*
X146740983Y-96965257D01*
X146740982Y-96965255D01*
X146670123Y-96794187D01*
X146634000Y-96612583D01*
X146634000Y-96427417D01*
X146670123Y-96245813D01*
X146740982Y-96074745D01*
X146843854Y-95920786D01*
X146974786Y-95789854D01*
X147051242Y-95738768D01*
X147128743Y-95686983D01*
X147128745Y-95686982D01*
X147299813Y-95616123D01*
X147481417Y-95580000D01*
X147666583Y-95580000D01*
X147848187Y-95616123D01*
G37*
G36*
X172944549Y-82691116D02*
G01*
X173055734Y-82713232D01*
X173265203Y-82799997D01*
X173453720Y-82925960D01*
X173614040Y-83086280D01*
X173740003Y-83274797D01*
X173826768Y-83484266D01*
X173871000Y-83706636D01*
X173871000Y-83933364D01*
X173826768Y-84155734D01*
X173740003Y-84365203D01*
X173614040Y-84553720D01*
X173453720Y-84714040D01*
X173265203Y-84840003D01*
X173055734Y-84926768D01*
X172944549Y-84948884D01*
X172833365Y-84971000D01*
X172606635Y-84971000D01*
X172495451Y-84948884D01*
X172384266Y-84926768D01*
X172174797Y-84840003D01*
X171986280Y-84714040D01*
X171825960Y-84553720D01*
X171699997Y-84365203D01*
X171613232Y-84155734D01*
X171569000Y-83933364D01*
X171569000Y-83706636D01*
X171613232Y-83484266D01*
X171699997Y-83274797D01*
X171825960Y-83086280D01*
X171986280Y-82925960D01*
X172174797Y-82799997D01*
X172384266Y-82713232D01*
X172495451Y-82691116D01*
X172606635Y-82669000D01*
X172833365Y-82669000D01*
X172944549Y-82691116D01*
G37*
G36*
X112598254Y-78027818D02*
G01*
X112971511Y-78182426D01*
X112971513Y-78182427D01*
X113307436Y-78406884D01*
X113593116Y-78692564D01*
X113817574Y-79028489D01*
X113972182Y-79401746D01*
X114051000Y-79797993D01*
X114051000Y-80202007D01*
X113972182Y-80598254D01*
X113817574Y-80971511D01*
X113817573Y-80971513D01*
X113593116Y-81307436D01*
X113307436Y-81593116D01*
X112971513Y-81817573D01*
X112971512Y-81817574D01*
X112971511Y-81817574D01*
X112598254Y-81972182D01*
X112202007Y-82051000D01*
X111797993Y-82051000D01*
X111401746Y-81972182D01*
X111028489Y-81817574D01*
X111028488Y-81817574D01*
X111028487Y-81817573D01*
X110692564Y-81593116D01*
X110406884Y-81307436D01*
X110182427Y-80971513D01*
X110182426Y-80971511D01*
X110027818Y-80598254D01*
X109949000Y-80202007D01*
X109949000Y-79797993D01*
X110027818Y-79401746D01*
X110182426Y-79028489D01*
X110406884Y-78692564D01*
X110692564Y-78406884D01*
X111028487Y-78182427D01*
X111028489Y-78182426D01*
X111401746Y-78027818D01*
X111797993Y-77949000D01*
X112202007Y-77949000D01*
X112598254Y-78027818D01*
G37*
G36*
X151728254Y-78027818D02*
G01*
X152101511Y-78182426D01*
X152101513Y-78182427D01*
X152437436Y-78406884D01*
X152723116Y-78692564D01*
X152947574Y-79028489D01*
X153102182Y-79401746D01*
X153181000Y-79797993D01*
X153181000Y-80202007D01*
X153102182Y-80598254D01*
X152947574Y-80971511D01*
X152947573Y-80971513D01*
X152723116Y-81307436D01*
X152437436Y-81593116D01*
X152101513Y-81817573D01*
X152101512Y-81817574D01*
X152101511Y-81817574D01*
X151728254Y-81972182D01*
X151332007Y-82051000D01*
X150927993Y-82051000D01*
X150531746Y-81972182D01*
X150158489Y-81817574D01*
X150158488Y-81817574D01*
X150158487Y-81817573D01*
X149822564Y-81593116D01*
X149536884Y-81307436D01*
X149312427Y-80971513D01*
X149312426Y-80971511D01*
X149157818Y-80598254D01*
X149079000Y-80202007D01*
X149079000Y-79797993D01*
X149157818Y-79401746D01*
X149312426Y-79028489D01*
X149536884Y-78692564D01*
X149822564Y-78406884D01*
X150158487Y-78182427D01*
X150158489Y-78182426D01*
X150531746Y-78027818D01*
X150927993Y-77949000D01*
X151332007Y-77949000D01*
X151728254Y-78027818D01*
G37*
G36*
X153181000Y-72051000D02*
G01*
X149079000Y-72051000D01*
X149079000Y-67949000D01*
X153181000Y-67949000D01*
X153181000Y-72051000D01*
G37*
G36*
X114051000Y-72051000D02*
G01*
X109949000Y-72051000D01*
X109949000Y-67949000D01*
X114051000Y-67949000D01*
X114051000Y-72051000D01*
G37*
G36*
X172944549Y-56021116D02*
G01*
X173055734Y-56043232D01*
X173265203Y-56129997D01*
X173453720Y-56255960D01*
X173614040Y-56416280D01*
X173740003Y-56604797D01*
X173826768Y-56814266D01*
X173871000Y-57036636D01*
X173871000Y-57263364D01*
X173826768Y-57485734D01*
X173740003Y-57695203D01*
X173614040Y-57883720D01*
X173453720Y-58044040D01*
X173265203Y-58170003D01*
X173055734Y-58256768D01*
X172944549Y-58278884D01*
X172833365Y-58301000D01*
X172606635Y-58301000D01*
X172495451Y-58278884D01*
X172384266Y-58256768D01*
X172174797Y-58170003D01*
X171986280Y-58044040D01*
X171825960Y-57883720D01*
X171699997Y-57695203D01*
X171613232Y-57485734D01*
X171569000Y-57263364D01*
X171569000Y-57036636D01*
X171613232Y-56814266D01*
X171699997Y-56604797D01*
X171825960Y-56416280D01*
X171986280Y-56255960D01*
X172174797Y-56129997D01*
X172384266Y-56043232D01*
X172495451Y-56021116D01*
X172606635Y-55999000D01*
X172833365Y-55999000D01*
X172944549Y-56021116D01*
G37*
G36*
X172944549Y-41021116D02*
G01*
X173055734Y-41043232D01*
X173265203Y-41129997D01*
X173453720Y-41255960D01*
X173614040Y-41416280D01*
X173740003Y-41604797D01*
X173826768Y-41814266D01*
X173871000Y-42036636D01*
X173871000Y-42263364D01*
X173826768Y-42485734D01*
X173740003Y-42695203D01*
X173614040Y-42883720D01*
X173453720Y-43044040D01*
X173265203Y-43170003D01*
X173055734Y-43256768D01*
X172944549Y-43278884D01*
X172833365Y-43301000D01*
X172606635Y-43301000D01*
X172495451Y-43278884D01*
X172384266Y-43256768D01*
X172174797Y-43170003D01*
X171986280Y-43044040D01*
X171825960Y-42883720D01*
X171699997Y-42695203D01*
X171613232Y-42485734D01*
X171569000Y-42263364D01*
X171569000Y-42036636D01*
X171613232Y-41814266D01*
X171699997Y-41604797D01*
X171825960Y-41416280D01*
X171986280Y-41255960D01*
X172174797Y-41129997D01*
X172384266Y-41043232D01*
X172495451Y-41021116D01*
X172606635Y-40999000D01*
X172833365Y-40999000D01*
X172944549Y-41021116D01*
G37*
G36*
X151728254Y-37027818D02*
G01*
X152101511Y-37182426D01*
X152101513Y-37182427D01*
X152437436Y-37406884D01*
X152723116Y-37692564D01*
X152947574Y-38028489D01*
X153102182Y-38401746D01*
X153181000Y-38797993D01*
X153181000Y-39202007D01*
X153102182Y-39598254D01*
X152947574Y-39971511D01*
X152947573Y-39971513D01*
X152723116Y-40307436D01*
X152437436Y-40593116D01*
X152101513Y-40817573D01*
X152101512Y-40817574D01*
X152101511Y-40817574D01*
X151728254Y-40972182D01*
X151332007Y-41051000D01*
X150927993Y-41051000D01*
X150531746Y-40972182D01*
X150158489Y-40817574D01*
X150158488Y-40817574D01*
X150158487Y-40817573D01*
X149822564Y-40593116D01*
X149536884Y-40307436D01*
X149312427Y-39971513D01*
X149312426Y-39971511D01*
X149157818Y-39598254D01*
X149079000Y-39202007D01*
X149079000Y-38797993D01*
X149157818Y-38401746D01*
X149312426Y-38028489D01*
X149536884Y-37692564D01*
X149822564Y-37406884D01*
X150158487Y-37182427D01*
X150158489Y-37182426D01*
X150531746Y-37027818D01*
X150927993Y-36949000D01*
X151332007Y-36949000D01*
X151728254Y-37027818D01*
G37*
G36*
X112598254Y-37027818D02*
G01*
X112971511Y-37182426D01*
X112971513Y-37182427D01*
X113307436Y-37406884D01*
X113593116Y-37692564D01*
X113817574Y-38028489D01*
X113972182Y-38401746D01*
X114051000Y-38797993D01*
X114051000Y-39202007D01*
X113972182Y-39598254D01*
X113817574Y-39971511D01*
X113817573Y-39971513D01*
X113593116Y-40307436D01*
X113307436Y-40593116D01*
X112971513Y-40817573D01*
X112971512Y-40817574D01*
X112971511Y-40817574D01*
X112598254Y-40972182D01*
X112202007Y-41051000D01*
X111797993Y-41051000D01*
X111401746Y-40972182D01*
X111028489Y-40817574D01*
X111028488Y-40817574D01*
X111028487Y-40817573D01*
X110692564Y-40593116D01*
X110406884Y-40307436D01*
X110182427Y-39971513D01*
X110182426Y-39971511D01*
X110027818Y-39598254D01*
X109949000Y-39202007D01*
X109949000Y-38797993D01*
X110027818Y-38401746D01*
X110182426Y-38028489D01*
X110406884Y-37692564D01*
X110692564Y-37406884D01*
X111028487Y-37182427D01*
X111028489Y-37182426D01*
X111401746Y-37027818D01*
X111797993Y-36949000D01*
X112202007Y-36949000D01*
X112598254Y-37027818D01*
G37*
G36*
X114051000Y-31051000D02*
G01*
X109949000Y-31051000D01*
X109949000Y-26949000D01*
X114051000Y-26949000D01*
X114051000Y-31051000D01*
G37*
G36*
X153181000Y-31051000D02*
G01*
X149079000Y-31051000D01*
X149079000Y-26949000D01*
X153181000Y-26949000D01*
X153181000Y-31051000D01*
G37*
M02*
