M48
INCH,TZ
T1C0.0433
T2C0.0500
T3C0.0591
T4C0.0787
T5C0.1181
%
G90
G05
T1
X68000Y-33000
X68000Y-38906
X68000Y-16594
X68000Y-22500
T2
X48250Y-38000
X51200Y-38000
X54150Y-38000
X58100Y-38000
T3
X40500Y-42250
X42500Y-42250
X50500Y-42250
X52500Y-42250
X55500Y-42250
X57500Y-42250
X65500Y-42000
X67500Y-42000
X60500Y-42250
X62500Y-42250
X45500Y-42250
X47500Y-42250
T4
X44094Y-27559
X44094Y-31496
X59500Y-27559
X59500Y-31496
X44094Y-11417
X44094Y-15354
X59500Y-11417
X59500Y-15354
T5
X37750Y-6750
X37750Y-42250
X70250Y-6750
X70250Y-42250
T0
M30
