G04 #@! TF.GenerationSoftware,KiCad,Pcbnew,(5.1.6)-1*
G04 #@! TF.CreationDate,2020-08-29T10:58:44-03:00*
G04 #@! TF.ProjectId,fontes2,666f6e74-6573-4322-9e6b-696361645f70,rev?*
G04 #@! TF.SameCoordinates,Original*
G04 #@! TF.FileFunction,Legend,Bot*
G04 #@! TF.FilePolarity,Positive*
%FSLAX46Y46*%
G04 Gerber Fmt 4.6, Leading zero omitted, Abs format (unit mm)*
G04 Created by KiCad (PCBNEW (5.1.6)-1) date 2020-08-29 10:58:44*
%MOMM*%
%LPD*%
G01*
G04 APERTURE LIST*
%ADD10C,0.300000*%
G04 APERTURE END LIST*
D10*
X160461333Y-43771047D02*
X157794666Y-51771047D01*
X155128000Y-43771047D01*
X152461333Y-48723428D02*
X146366095Y-48723428D01*
X142937523Y-49485333D02*
X139128000Y-49485333D01*
X143699428Y-51771047D02*
X141032761Y-43771047D01*
X138366095Y-51771047D01*
X140270857Y-40723428D02*
X141413714Y-41866285D01*
X135699428Y-43771047D02*
X135699428Y-50247238D01*
X135318476Y-51009142D01*
X134937523Y-51390095D01*
X134175619Y-51771047D01*
X132651809Y-51771047D01*
X131889904Y-51390095D01*
X131508952Y-51009142D01*
X131128000Y-50247238D01*
X131128000Y-43771047D01*
X127318476Y-51771047D02*
X127318476Y-43771047D01*
X125413714Y-43771047D01*
X124270857Y-44152000D01*
X123508952Y-44913904D01*
X123128000Y-45675809D01*
X122747047Y-47199619D01*
X122747047Y-48342476D01*
X123128000Y-49866285D01*
X123508952Y-50628190D01*
X124270857Y-51390095D01*
X125413714Y-51771047D01*
X127318476Y-51771047D01*
X119318476Y-51771047D02*
X119318476Y-43771047D01*
X113985142Y-43771047D02*
X112461333Y-43771047D01*
X111699428Y-44152000D01*
X110937523Y-44913904D01*
X110556571Y-46437714D01*
X110556571Y-49104380D01*
X110937523Y-50628190D01*
X111699428Y-51390095D01*
X112461333Y-51771047D01*
X113985142Y-51771047D01*
X114747047Y-51390095D01*
X115508952Y-50628190D01*
X115889904Y-49104380D01*
X115889904Y-46437714D01*
X115508952Y-44913904D01*
X114747047Y-44152000D01*
X113985142Y-43771047D01*
X164270857Y-76371047D02*
X164270857Y-68371047D01*
X161223238Y-68371047D01*
X160461333Y-68752000D01*
X160080380Y-69132952D01*
X159699428Y-69894857D01*
X159699428Y-71037714D01*
X160080380Y-71799619D01*
X160461333Y-72180571D01*
X161223238Y-72561523D01*
X164270857Y-72561523D01*
X154747047Y-68371047D02*
X153223238Y-68371047D01*
X152461333Y-68752000D01*
X151699428Y-69513904D01*
X151318476Y-71037714D01*
X151318476Y-73704380D01*
X151699428Y-75228190D01*
X152461333Y-75990095D01*
X153223238Y-76371047D01*
X154747047Y-76371047D01*
X155508952Y-75990095D01*
X156270857Y-75228190D01*
X156651809Y-73704380D01*
X156651809Y-71037714D01*
X156270857Y-69513904D01*
X155508952Y-68752000D01*
X154747047Y-68371047D01*
X148651809Y-68371047D02*
X146747047Y-76371047D01*
X145223238Y-70656761D01*
X143699428Y-76371047D01*
X141794666Y-68371047D01*
X138747047Y-72180571D02*
X136080380Y-72180571D01*
X134937523Y-76371047D02*
X138747047Y-76371047D01*
X138747047Y-68371047D01*
X134937523Y-68371047D01*
X126937523Y-76371047D02*
X129604190Y-72561523D01*
X131508952Y-76371047D02*
X131508952Y-68371047D01*
X128461333Y-68371047D01*
X127699428Y-68752000D01*
X127318476Y-69132952D01*
X126937523Y-69894857D01*
X126937523Y-71037714D01*
X127318476Y-71799619D01*
X127699428Y-72180571D01*
X128461333Y-72561523D01*
X131508952Y-72561523D01*
X115889904Y-68371047D02*
X115128000Y-68371047D01*
X114366095Y-68752000D01*
X113985142Y-69132952D01*
X113604190Y-69894857D01*
X113223238Y-71418666D01*
X113223238Y-73323428D01*
X113604190Y-74847238D01*
X113985142Y-75609142D01*
X114366095Y-75990095D01*
X115128000Y-76371047D01*
X115889904Y-76371047D01*
X116651809Y-75990095D01*
X117032761Y-75609142D01*
X117413714Y-74847238D01*
X117794666Y-73323428D01*
X117794666Y-71418666D01*
X117413714Y-69894857D01*
X117032761Y-69132952D01*
X116651809Y-68752000D01*
X115889904Y-68371047D01*
X110175619Y-69132952D02*
X109794666Y-68752000D01*
X109032761Y-68371047D01*
X107128000Y-68371047D01*
X106366095Y-68752000D01*
X105985142Y-69132952D01*
X105604190Y-69894857D01*
X105604190Y-70656761D01*
X105985142Y-71799619D01*
X110556571Y-76371047D01*
X105604190Y-76371047D01*
M02*
