%TF.GenerationSoftware,KiCad,Pcbnew,(5.1.9)-1*%
%TF.CreationDate,2021-06-23T17:41:11-03:00*%
%TF.ProjectId,assert,61737365-7274-42e6-9b69-6361645f7063,rev?*%
%TF.SameCoordinates,Original*%
%TF.FileFunction,Copper,L2,Bot*%
%TF.FilePolarity,Positive*%
%FSLAX46Y46*%
G04 Gerber Fmt 4.6, Leading zero omitted, Abs format (unit mm)*
G04 Created by KiCad (PCBNEW (5.1.9)-1) date 2021-06-23 17:41:11*
%MOMM*%
%LPD*%
G01*
G04 APERTURE LIST*
%TA.AperFunction,NonConductor*%
%ADD10C,0.500000*%
%TD*%
%TA.AperFunction,ComponentPad*%
%ADD11C,2.000000*%
%TD*%
%TA.AperFunction,ComponentPad*%
%ADD12O,2.600000X1.800000*%
%TD*%
%TA.AperFunction,ComponentPad*%
%ADD13R,2.600000X1.800000*%
%TD*%
%TA.AperFunction,ComponentPad*%
%ADD14O,1.600000X1.600000*%
%TD*%
%TA.AperFunction,ComponentPad*%
%ADD15R,1.600000X1.600000*%
%TD*%
%TA.AperFunction,ComponentPad*%
%ADD16C,10.160000*%
%TD*%
%TA.AperFunction,ComponentPad*%
%ADD17O,1.700000X1.700000*%
%TD*%
%TA.AperFunction,ComponentPad*%
%ADD18R,1.700000X1.700000*%
%TD*%
%TA.AperFunction,ComponentPad*%
%ADD19O,2.000000X1.905000*%
%TD*%
%TA.AperFunction,ComponentPad*%
%ADD20R,2.000000X1.905000*%
%TD*%
%TA.AperFunction,WasherPad*%
%ADD21O,3.500000X3.500000*%
%TD*%
%TA.AperFunction,ComponentPad*%
%ADD22C,1.440000*%
%TD*%
%TA.AperFunction,ComponentPad*%
%ADD23C,1.600000*%
%TD*%
%TA.AperFunction,ComponentPad*%
%ADD24C,1.800000*%
%TD*%
%TA.AperFunction,ComponentPad*%
%ADD25R,1.800000X1.800000*%
%TD*%
%TA.AperFunction,ViaPad*%
%ADD26C,3.200000*%
%TD*%
%TA.AperFunction,ViaPad*%
%ADD27C,0.800000*%
%TD*%
%TA.AperFunction,Conductor*%
%ADD28C,1.000000*%
%TD*%
%TA.AperFunction,Conductor*%
%ADD29C,0.500000*%
%TD*%
%TA.AperFunction,Conductor*%
%ADD30C,0.800000*%
%TD*%
%TA.AperFunction,Conductor*%
%ADD31C,0.254000*%
%TD*%
%TA.AperFunction,Conductor*%
%ADD32C,0.100000*%
%TD*%
G04 APERTURE END LIST*
D10*
X91472000Y-38665714D02*
X91472000Y-40094285D01*
X92329142Y-38380000D02*
X89329142Y-39380000D01*
X92329142Y-40380000D01*
X92186285Y-41237142D02*
X92329142Y-41665714D01*
X92329142Y-42380000D01*
X92186285Y-42665714D01*
X92043428Y-42808571D01*
X91757714Y-42951428D01*
X91472000Y-42951428D01*
X91186285Y-42808571D01*
X91043428Y-42665714D01*
X90900571Y-42380000D01*
X90757714Y-41808571D01*
X90614857Y-41522857D01*
X90472000Y-41380000D01*
X90186285Y-41237142D01*
X89900571Y-41237142D01*
X89614857Y-41380000D01*
X89472000Y-41522857D01*
X89329142Y-41808571D01*
X89329142Y-42522857D01*
X89472000Y-42951428D01*
X92186285Y-44094285D02*
X92329142Y-44522857D01*
X92329142Y-45237142D01*
X92186285Y-45522857D01*
X92043428Y-45665714D01*
X91757714Y-45808571D01*
X91472000Y-45808571D01*
X91186285Y-45665714D01*
X91043428Y-45522857D01*
X90900571Y-45237142D01*
X90757714Y-44665714D01*
X90614857Y-44380000D01*
X90472000Y-44237142D01*
X90186285Y-44094285D01*
X89900571Y-44094285D01*
X89614857Y-44237142D01*
X89472000Y-44380000D01*
X89329142Y-44665714D01*
X89329142Y-45380000D01*
X89472000Y-45808571D01*
X90757714Y-47094285D02*
X90757714Y-48094285D01*
X92329142Y-48522857D02*
X92329142Y-47094285D01*
X89329142Y-47094285D01*
X89329142Y-48522857D01*
X92329142Y-51522857D02*
X90900571Y-50522857D01*
X92329142Y-49808571D02*
X89329142Y-49808571D01*
X89329142Y-50951428D01*
X89472000Y-51237142D01*
X89614857Y-51380000D01*
X89900571Y-51522857D01*
X90329142Y-51522857D01*
X90614857Y-51380000D01*
X90757714Y-51237142D01*
X90900571Y-50951428D01*
X90900571Y-49808571D01*
X89329142Y-52380000D02*
X89329142Y-54094285D01*
X92329142Y-53237142D02*
X89329142Y-53237142D01*
X91186285Y-57379999D02*
X91186285Y-59665714D01*
X92329142Y-64808571D02*
X92329142Y-63379999D01*
X89329142Y-63379999D01*
X90757714Y-65808571D02*
X90757714Y-66808571D01*
X92329142Y-67237142D02*
X92329142Y-65808571D01*
X89329142Y-65808571D01*
X89329142Y-67237142D01*
X90757714Y-68522857D02*
X90757714Y-69522857D01*
X92329142Y-69951428D02*
X92329142Y-68522857D01*
X89329142Y-68522857D01*
X89329142Y-69951428D01*
X92614857Y-73237142D02*
X92472000Y-72951428D01*
X92186285Y-72665714D01*
X91757714Y-72237142D01*
X91614857Y-71951428D01*
X91614857Y-71665714D01*
X92329142Y-71808571D02*
X92186285Y-71522857D01*
X91900571Y-71237142D01*
X91329142Y-71094285D01*
X90329142Y-71094285D01*
X89757714Y-71237142D01*
X89472000Y-71522857D01*
X89329142Y-71808571D01*
X89329142Y-72379999D01*
X89472000Y-72665714D01*
X89757714Y-72951428D01*
X90329142Y-73094285D01*
X91329142Y-73094285D01*
X91900571Y-72951428D01*
X92186285Y-72665714D01*
X92329142Y-72379999D01*
X92329142Y-71808571D01*
X94329142Y-35594285D02*
X97329142Y-36594285D01*
X94329142Y-37594285D01*
X94329142Y-41451428D02*
X94329142Y-41737142D01*
X94472000Y-42022857D01*
X94614857Y-42165714D01*
X94900571Y-42308571D01*
X95472000Y-42451428D01*
X96186285Y-42451428D01*
X96757714Y-42308571D01*
X97043428Y-42165714D01*
X97186285Y-42022857D01*
X97329142Y-41737142D01*
X97329142Y-41451428D01*
X97186285Y-41165714D01*
X97043428Y-41022857D01*
X96757714Y-40880000D01*
X96186285Y-40737142D01*
X95472000Y-40737142D01*
X94900571Y-40880000D01*
X94614857Y-41022857D01*
X94472000Y-41165714D01*
X94329142Y-41451428D01*
X97043428Y-43737142D02*
X97186285Y-43880000D01*
X97329142Y-43737142D01*
X97186285Y-43594285D01*
X97043428Y-43737142D01*
X97329142Y-43737142D01*
X97329142Y-46737142D02*
X97329142Y-45022857D01*
X97329142Y-45880000D02*
X94329142Y-45880000D01*
X94757714Y-45594285D01*
X95043428Y-45308571D01*
X95186285Y-45022857D01*
X97329142Y-54165714D02*
X97329142Y-52451428D01*
X97329142Y-53308571D02*
X94329142Y-53308571D01*
X94757714Y-53022857D01*
X95043428Y-52737142D01*
X95186285Y-52451428D01*
X95329142Y-56737142D02*
X97329142Y-56737142D01*
X94186285Y-56022857D02*
X96329142Y-55308571D01*
X96329142Y-57165714D01*
X96186285Y-58308571D02*
X96186285Y-60594285D01*
X94329142Y-62594285D02*
X94329142Y-62880000D01*
X94472000Y-63165714D01*
X94614857Y-63308571D01*
X94900571Y-63451428D01*
X95472000Y-63594285D01*
X96186285Y-63594285D01*
X96757714Y-63451428D01*
X97043428Y-63308571D01*
X97186285Y-63165714D01*
X97329142Y-62880000D01*
X97329142Y-62594285D01*
X97186285Y-62308571D01*
X97043428Y-62165714D01*
X96757714Y-62022857D01*
X96186285Y-61880000D01*
X95472000Y-61880000D01*
X94900571Y-62022857D01*
X94614857Y-62165714D01*
X94472000Y-62308571D01*
X94329142Y-62594285D01*
X94329142Y-66165714D02*
X94329142Y-65594285D01*
X94472000Y-65308571D01*
X94614857Y-65165714D01*
X95043428Y-64880000D01*
X95614857Y-64737142D01*
X96757714Y-64737142D01*
X97043428Y-64880000D01*
X97186285Y-65022857D01*
X97329142Y-65308571D01*
X97329142Y-65880000D01*
X97186285Y-66165714D01*
X97043428Y-66308571D01*
X96757714Y-66451428D01*
X96043428Y-66451428D01*
X95757714Y-66308571D01*
X95614857Y-66165714D01*
X95472000Y-65880000D01*
X95472000Y-65308571D01*
X95614857Y-65022857D01*
X95757714Y-64880000D01*
X96043428Y-64737142D01*
X96186285Y-67737142D02*
X96186285Y-70022857D01*
X94614857Y-71308571D02*
X94472000Y-71451428D01*
X94329142Y-71737142D01*
X94329142Y-72451428D01*
X94472000Y-72737142D01*
X94614857Y-72880000D01*
X94900571Y-73022857D01*
X95186285Y-73022857D01*
X95614857Y-72880000D01*
X97329142Y-71165714D01*
X97329142Y-73022857D01*
X97329142Y-75880000D02*
X97329142Y-74165714D01*
X97329142Y-75022857D02*
X94329142Y-75022857D01*
X94757714Y-74737142D01*
X95043428Y-74451428D01*
X95186285Y-74165714D01*
D11*
%TO.P,U2,*%
%TO.N,*%
X71477000Y-21270000D03*
X71477000Y-96269100D03*
D12*
%TO.P,U2,16*%
%TO.N,GNDREF*%
X71477000Y-52670000D03*
%TO.P,U2,15*%
%TO.N,Net-(R6-Pad2)*%
X71477000Y-55210000D03*
%TO.P,U2,14*%
%TO.N,/db7*%
X71477000Y-57750000D03*
%TO.P,U2,13*%
%TO.N,/db6*%
X71477000Y-60290000D03*
%TO.P,U2,12*%
%TO.N,/db5*%
X71477000Y-62830000D03*
%TO.P,U2,11*%
%TO.N,/db4*%
X71477000Y-65370000D03*
%TO.P,U2,10*%
%TO.N,Net-(U2-Pad10)*%
X71477000Y-67910000D03*
%TO.P,U2,9*%
%TO.N,Net-(U2-Pad9)*%
X71477000Y-70450000D03*
%TO.P,U2,8*%
%TO.N,Net-(U2-Pad8)*%
X71477000Y-72990000D03*
%TO.P,U2,7*%
%TO.N,Net-(U2-Pad7)*%
X71477000Y-75530000D03*
%TO.P,U2,6*%
%TO.N,/e*%
X71477000Y-78070000D03*
%TO.P,U2,5*%
%TO.N,GNDREF*%
X71477000Y-80610000D03*
%TO.P,U2,4*%
%TO.N,/rs*%
X71477000Y-83150000D03*
%TO.P,U2,3*%
%TO.N,Net-(RV1-Pad2)*%
X71477000Y-85690000D03*
%TO.P,U2,2*%
%TO.N,/5v*%
X71477000Y-88230000D03*
D13*
%TO.P,U2,1*%
%TO.N,GNDREF*%
X71477000Y-90770000D03*
%TD*%
D14*
%TO.P,A1,16*%
%TO.N,/menos*%
X54737000Y-69215000D03*
%TO.P,A1,15*%
%TO.N,/mais*%
X57277000Y-69215000D03*
%TO.P,A1,30*%
%TO.N,Net-(A1-Pad30)*%
X17657000Y-69215000D03*
%TO.P,A1,14*%
%TO.N,/scl*%
X57277000Y-20955000D03*
%TO.P,A1,29*%
%TO.N,GNDREF*%
X20197000Y-69215000D03*
%TO.P,A1,13*%
%TO.N,/sda*%
X54737000Y-20955000D03*
%TO.P,A1,28*%
%TO.N,/sck*%
X22737000Y-69215000D03*
%TO.P,A1,12*%
%TO.N,/s4*%
X52197000Y-20955000D03*
%TO.P,A1,27*%
%TO.N,/miso*%
X25277000Y-69215000D03*
%TO.P,A1,11*%
%TO.N,/s3*%
X49657000Y-20955000D03*
%TO.P,A1,26*%
%TO.N,/mosi*%
X27817000Y-69215000D03*
%TO.P,A1,10*%
%TO.N,/s2*%
X47117000Y-20955000D03*
%TO.P,A1,25*%
%TO.N,/cs*%
X30357000Y-69215000D03*
%TO.P,A1,9*%
%TO.N,/s1*%
X44577000Y-20955000D03*
%TO.P,A1,24*%
%TO.N,/selecionar*%
X32897000Y-69215000D03*
%TO.P,A1,8*%
%TO.N,/vin*%
X39497000Y-20955000D03*
%TO.P,A1,23*%
%TO.N,/cancelar*%
X35437000Y-69215000D03*
%TO.P,A1,7*%
%TO.N,GNDREF*%
X36957000Y-20955000D03*
%TO.P,A1,22*%
%TO.N,/db7*%
X39497000Y-69215000D03*
%TO.P,A1,6*%
%TO.N,GNDREF*%
X34417000Y-20955000D03*
%TO.P,A1,21*%
%TO.N,/db6*%
X42037000Y-69215000D03*
%TO.P,A1,5*%
%TO.N,/5v*%
X31877000Y-20955000D03*
%TO.P,A1,20*%
%TO.N,/db5*%
X44577000Y-69215000D03*
%TO.P,A1,4*%
%TO.N,Net-(A1-Pad4)*%
X29337000Y-20955000D03*
%TO.P,A1,19*%
%TO.N,/db4*%
X47117000Y-69215000D03*
%TO.P,A1,3*%
%TO.N,Net-(A1-Pad3)*%
X26797000Y-20955000D03*
%TO.P,A1,18*%
%TO.N,/e*%
X49657000Y-69215000D03*
%TO.P,A1,2*%
%TO.N,Net-(A1-Pad2)*%
X24257000Y-20955000D03*
%TO.P,A1,17*%
%TO.N,/rs*%
X52197000Y-69215000D03*
D15*
%TO.P,A1,1*%
%TO.N,Net-(A1-Pad1)*%
X21717000Y-20955000D03*
D14*
%TO.P,A1,31*%
%TO.N,Net-(A1-Pad31)*%
X15117000Y-69215000D03*
%TO.P,A1,32*%
%TO.N,Net-(A1-Pad32)*%
X12577000Y-69215000D03*
%TD*%
D16*
%TO.P,J5,1*%
%TO.N,GNDREF*%
X93472000Y-8890000D03*
%TD*%
%TO.P,J4,1*%
%TO.N,/s4*%
X80137000Y-8890000D03*
%TD*%
D17*
%TO.P,J9,7*%
%TO.N,/bat*%
X26797000Y-75565000D03*
%TO.P,J9,6*%
%TO.N,GNDREF*%
X29337000Y-75565000D03*
%TO.P,J9,5*%
%TO.N,/5v*%
X31877000Y-75565000D03*
%TO.P,J9,4*%
%TO.N,/sda*%
X34417000Y-75565000D03*
%TO.P,J9,3*%
%TO.N,/scl*%
X36957000Y-75565000D03*
%TO.P,J9,2*%
%TO.N,/ds*%
X39497000Y-75565000D03*
D18*
%TO.P,J9,1*%
%TO.N,/sq*%
X42037000Y-75565000D03*
%TD*%
D19*
%TO.P,U1,3*%
%TO.N,/5v*%
X26947000Y-8890000D03*
%TO.P,U1,2*%
%TO.N,GNDREF*%
X26947000Y-11430000D03*
D20*
%TO.P,U1,1*%
%TO.N,/vin*%
X26947000Y-13970000D03*
D21*
%TO.P,U1,*%
%TO.N,*%
X10287000Y-11430000D03*
%TD*%
D11*
%TO.P,SW4,1*%
%TO.N,/cancelar*%
X61032000Y-86360000D03*
%TO.P,SW4,2*%
%TO.N,GNDREF*%
X65532000Y-86360000D03*
%TO.P,SW4,1*%
%TO.N,/cancelar*%
X61032000Y-92860000D03*
%TO.P,SW4,2*%
%TO.N,GNDREF*%
X65532000Y-92860000D03*
%TD*%
%TO.P,SW3,1*%
%TO.N,/selecionar*%
X52832000Y-86360000D03*
%TO.P,SW3,2*%
%TO.N,GNDREF*%
X57332000Y-86360000D03*
%TO.P,SW3,1*%
%TO.N,/selecionar*%
X52832000Y-92860000D03*
%TO.P,SW3,2*%
%TO.N,GNDREF*%
X57332000Y-92860000D03*
%TD*%
%TO.P,SW2,1*%
%TO.N,/menos*%
X52832000Y-75565000D03*
%TO.P,SW2,2*%
%TO.N,GNDREF*%
X57332000Y-75565000D03*
%TO.P,SW2,1*%
%TO.N,/menos*%
X52832000Y-82065000D03*
%TO.P,SW2,2*%
%TO.N,GNDREF*%
X57332000Y-82065000D03*
%TD*%
%TO.P,SW1,1*%
%TO.N,/mais*%
X65587000Y-82065000D03*
%TO.P,SW1,2*%
%TO.N,GNDREF*%
X61087000Y-82065000D03*
%TO.P,SW1,1*%
%TO.N,/mais*%
X65587000Y-75565000D03*
%TO.P,SW1,2*%
%TO.N,GNDREF*%
X61087000Y-75565000D03*
%TD*%
D22*
%TO.P,RV1,1*%
%TO.N,GNDREF*%
X65532000Y-35560000D03*
%TO.P,RV1,2*%
%TO.N,Net-(RV1-Pad2)*%
X65532000Y-38100000D03*
%TO.P,RV1,3*%
%TO.N,/5v*%
X65532000Y-40640000D03*
%TD*%
D14*
%TO.P,R6,2*%
%TO.N,Net-(R6-Pad2)*%
X65532000Y-53340000D03*
D23*
%TO.P,R6,1*%
%TO.N,/5v*%
X65532000Y-45720000D03*
%TD*%
D14*
%TO.P,R5,2*%
%TO.N,/cancelar*%
X45847000Y-93980000D03*
D23*
%TO.P,R5,1*%
%TO.N,/5v*%
X45847000Y-86360000D03*
%TD*%
D14*
%TO.P,R4,2*%
%TO.N,/selecionar*%
X45847000Y-74295000D03*
D23*
%TO.P,R4,1*%
%TO.N,/5v*%
X45847000Y-81915000D03*
%TD*%
D14*
%TO.P,R3,2*%
%TO.N,/menos*%
X49657000Y-86360000D03*
D23*
%TO.P,R3,1*%
%TO.N,/5v*%
X49657000Y-93980000D03*
%TD*%
D14*
%TO.P,R2,2*%
%TO.N,/mais*%
X49657000Y-74295000D03*
D23*
%TO.P,R2,1*%
%TO.N,/5v*%
X49657000Y-81915000D03*
%TD*%
D14*
%TO.P,R1,2*%
%TO.N,Net-(D1-Pad2)*%
X16002000Y-3810000D03*
D23*
%TO.P,R1,1*%
%TO.N,/5v*%
X23622000Y-3810000D03*
%TD*%
D17*
%TO.P,J8,6*%
%TO.N,/cs*%
X2413000Y-75565000D03*
%TO.P,J8,5*%
%TO.N,/sck*%
X4953000Y-75565000D03*
%TO.P,J8,4*%
%TO.N,/mosi*%
X7493000Y-75565000D03*
%TO.P,J8,3*%
%TO.N,/miso*%
X10033000Y-75565000D03*
%TO.P,J8,2*%
%TO.N,/5v*%
X12573000Y-75565000D03*
D18*
%TO.P,J8,1*%
%TO.N,GNDREF*%
X15113000Y-75565000D03*
%TD*%
D16*
%TO.P,J3,1*%
%TO.N,/s3*%
X66167000Y-8890000D03*
%TD*%
%TO.P,J2,1*%
%TO.N,/s2*%
X52197000Y-8890000D03*
%TD*%
%TO.P,J1,1*%
%TO.N,/s1*%
X38227000Y-8890000D03*
%TD*%
D24*
%TO.P,D1,2*%
%TO.N,Net-(D1-Pad2)*%
X12827000Y-3810000D03*
D25*
%TO.P,D1,1*%
%TO.N,GNDREF*%
X10287000Y-3810000D03*
%TD*%
D23*
%TO.P,C2,2*%
%TO.N,GNDREF*%
X29932000Y-3810000D03*
%TO.P,C2,1*%
%TO.N,/5v*%
X27432000Y-3810000D03*
%TD*%
%TO.P,C1,2*%
%TO.N,GNDREF*%
X30607000Y-12740000D03*
%TO.P,C1,1*%
%TO.N,/vin*%
X30607000Y-15240000D03*
%TD*%
D26*
%TO.N,*%
X2540000Y-97155000D03*
X97460000Y-97155000D03*
X2540000Y-2235000D03*
D27*
%TO.N,/mosi*%
X23876000Y-71602600D03*
X26670000Y-71628000D03*
%TD*%
D28*
%TO.N,/menos*%
X54737000Y-70346370D02*
X54737000Y-69215000D01*
X52832000Y-75565000D02*
X52832000Y-72251370D01*
X52832000Y-72251370D02*
X54737000Y-70346370D01*
X49657000Y-85240000D02*
X52832000Y-82065000D01*
X49657000Y-86360000D02*
X49657000Y-85240000D01*
%TO.N,/mais*%
X59237000Y-69215000D02*
X57277000Y-69215000D01*
X65587000Y-75565000D02*
X59237000Y-69215000D01*
X63586999Y-77565001D02*
X65587000Y-75565000D01*
X51873335Y-77565001D02*
X63586999Y-77565001D01*
X49657000Y-74295000D02*
X49657000Y-75348666D01*
X49657000Y-75348666D02*
X51873335Y-77565001D01*
D29*
%TO.N,/scl*%
X57512653Y-20955000D02*
X57277000Y-20955000D01*
D28*
X80137000Y-43579347D02*
X57512653Y-20955000D01*
X74711999Y-92420001D02*
X80137000Y-86995000D01*
X80137000Y-86995000D02*
X80137000Y-43579347D01*
D29*
X45972760Y-96789989D02*
X64192013Y-96789989D01*
X64192013Y-96789989D02*
X68562001Y-92420001D01*
X68562001Y-92420001D02*
X74711999Y-92420001D01*
X45972760Y-96789989D02*
X41402000Y-92219229D01*
D28*
X37646999Y-76254999D02*
X36957000Y-75565000D01*
X37646999Y-88464228D02*
X37646999Y-76254999D01*
X41402000Y-92219229D02*
X37646999Y-88464228D01*
D29*
%TO.N,GNDREF*%
X73527010Y-80359990D02*
X73277000Y-80610000D01*
X73527010Y-54320010D02*
X73527010Y-80359990D01*
X71877000Y-52670000D02*
X73527010Y-54320010D01*
X71477000Y-52670000D02*
X71877000Y-52670000D01*
D28*
%TO.N,/sda*%
X34417000Y-87630000D02*
X34417000Y-75565000D01*
X43307000Y-96520000D02*
X34417000Y-87630000D01*
D29*
X44577000Y-97790000D02*
X43307000Y-96520000D01*
X64897000Y-97790000D02*
X44577000Y-97790000D01*
D30*
X56642000Y-18415000D02*
X54737000Y-20955000D01*
X59182000Y-18415000D02*
X56642000Y-18415000D01*
X81537010Y-40770010D02*
X59182000Y-18415000D01*
X81537010Y-87574903D02*
X81537010Y-40770010D01*
X75920600Y-93218000D02*
X81537010Y-87574903D01*
D29*
X75184000Y-93954600D02*
X68732400Y-93954600D01*
X75920600Y-93218000D02*
X75184000Y-93954600D01*
X68732400Y-93954600D02*
X64897000Y-97790000D01*
D28*
%TO.N,/sck*%
X4953000Y-74174998D02*
X11817998Y-67310000D01*
X4953000Y-75565000D02*
X4953000Y-74174998D01*
X11817998Y-67310000D02*
X21963370Y-67310000D01*
X21963370Y-67310000D02*
X22737000Y-68083630D01*
X22737000Y-68083630D02*
X22737000Y-69215000D01*
%TO.N,/s4*%
X72517000Y-16510000D02*
X80137000Y-8890000D01*
X56184482Y-16510000D02*
X72517000Y-16510000D01*
X52197000Y-20497482D02*
X56184482Y-16510000D01*
X52197000Y-20955000D02*
X52197000Y-20497482D01*
%TO.N,/miso*%
X10033000Y-75565000D02*
X10033000Y-75184000D01*
D30*
X10033000Y-75565000D02*
X10882999Y-74715001D01*
X10882999Y-74715001D02*
X10882999Y-74636506D01*
X25277000Y-72040093D02*
X25277000Y-69215000D01*
X24393693Y-72923400D02*
X25277000Y-72040093D01*
X17629895Y-72923400D02*
X24393693Y-72923400D01*
X13004517Y-72514988D02*
X17221483Y-72514988D01*
X10882999Y-74636506D02*
X13004517Y-72514988D01*
X17221483Y-72514988D02*
X17629895Y-72923400D01*
D28*
%TO.N,/s3*%
X49657000Y-20916148D02*
X49657000Y-20955000D01*
X61683148Y-8890000D02*
X49657000Y-20916148D01*
X66167000Y-8890000D02*
X61683148Y-8890000D01*
D30*
%TO.N,/mosi*%
X27813000Y-69219000D02*
X27817000Y-69215000D01*
X26670000Y-71628000D02*
X27990800Y-70307200D01*
X27990800Y-69388800D02*
X27817000Y-69215000D01*
X27990800Y-70307200D02*
X27990800Y-69388800D01*
X7493000Y-75565000D02*
X8282999Y-75565000D01*
X21030120Y-71623390D02*
X21050910Y-71602600D01*
X8282999Y-75565000D02*
X8282999Y-74724999D01*
X21050910Y-71602600D02*
X23876000Y-71602600D01*
X8282999Y-74724999D02*
X8732990Y-74275008D01*
X8732990Y-74275008D02*
X8732990Y-73824438D01*
X10934038Y-71623390D02*
X12057624Y-71623390D01*
X8732990Y-73824438D02*
X10934038Y-71623390D01*
X12057624Y-71623390D02*
X12466036Y-71214978D01*
X12466036Y-71214978D02*
X17759964Y-71214978D01*
X17759964Y-71214978D02*
X18168376Y-71623390D01*
X18168376Y-71623390D02*
X21030120Y-71623390D01*
D28*
%TO.N,/s2*%
X47117000Y-13970000D02*
X47117000Y-20955000D01*
X52197000Y-8890000D02*
X47117000Y-13970000D01*
%TO.N,/cs*%
X2413000Y-74362919D02*
X10965930Y-65809989D01*
X2413000Y-75565000D02*
X2413000Y-74362919D01*
X10965930Y-65809989D02*
X28083359Y-65809989D01*
X28083359Y-65809989D02*
X30357000Y-68083630D01*
X30357000Y-68083630D02*
X30357000Y-69215000D01*
%TO.N,/s1*%
X44577000Y-15240000D02*
X44577000Y-20955000D01*
X38227000Y-8890000D02*
X44577000Y-15240000D01*
D29*
%TO.N,/selecionar*%
X54582001Y-84609999D02*
X54582001Y-81125001D01*
X52832000Y-86360000D02*
X54582001Y-84609999D01*
X45847000Y-74722011D02*
X45847000Y-74295000D01*
X50940010Y-79815021D02*
X45847000Y-74722011D01*
X53272022Y-79815022D02*
X50940010Y-79815021D01*
X54582001Y-81125001D02*
X53272022Y-79815022D01*
D28*
X44308325Y-72214988D02*
X34765618Y-72214988D01*
X45847000Y-73753663D02*
X44308325Y-72214988D01*
X32897000Y-70346370D02*
X32897000Y-69215000D01*
X34765618Y-72214988D02*
X32897000Y-70346370D01*
X45847000Y-74295000D02*
X45847000Y-73753663D01*
%TO.N,/vin*%
X28217000Y-15240000D02*
X30607000Y-15240000D01*
X26947000Y-13970000D02*
X28217000Y-15240000D01*
X39497000Y-20706815D02*
X39497000Y-20955000D01*
X34030185Y-15240000D02*
X39497000Y-20706815D01*
X30607000Y-15240000D02*
X34030185Y-15240000D01*
D29*
%TO.N,/cancelar*%
X63087001Y-84304999D02*
X63087001Y-80740001D01*
X61412012Y-79065012D02*
X53936241Y-79065012D01*
X53936241Y-79065012D02*
X53686239Y-78815012D01*
X63087001Y-80740001D02*
X61412012Y-79065012D01*
X61032000Y-86360000D02*
X63087001Y-84304999D01*
X51354228Y-78815011D02*
X47647001Y-75107784D01*
X45180979Y-70964977D02*
X37186977Y-70964977D01*
X37186977Y-70964977D02*
X35437000Y-69215000D01*
X47647001Y-75107784D02*
X47647001Y-73430999D01*
X53686239Y-78815012D02*
X51354228Y-78815011D01*
X47647001Y-73430999D02*
X45180979Y-70964977D01*
X61032000Y-93273000D02*
X61032000Y-92860000D01*
X58515022Y-95789978D02*
X61032000Y-93273000D01*
X47656978Y-95789978D02*
X58515022Y-95789978D01*
X45847000Y-93980000D02*
X47656978Y-95789978D01*
D28*
%TO.N,/db7*%
X39497000Y-69090998D02*
X39497000Y-69215000D01*
X50837998Y-57750000D02*
X39497000Y-69090998D01*
X71477000Y-57750000D02*
X50837998Y-57750000D01*
%TO.N,/db6*%
X50837998Y-60290000D02*
X42037000Y-69090998D01*
X42037000Y-69090998D02*
X42037000Y-69215000D01*
X71477000Y-60290000D02*
X50837998Y-60290000D01*
%TO.N,/db5*%
X71477000Y-62830000D02*
X71051980Y-62404980D01*
X50844352Y-62404980D02*
X44577000Y-68672332D01*
X44577000Y-68672332D02*
X44577000Y-69215000D01*
X71051980Y-62404980D02*
X50844352Y-62404980D01*
%TO.N,/db4*%
X47117000Y-68253666D02*
X47117000Y-69215000D01*
X64443334Y-65370000D02*
X62978325Y-63904991D01*
X51465675Y-63904991D02*
X47117000Y-68253666D01*
X71477000Y-65370000D02*
X64443334Y-65370000D01*
X62978325Y-63904991D02*
X51465675Y-63904991D01*
%TO.N,/rs*%
X52197000Y-69090998D02*
X52197000Y-69215000D01*
X53872999Y-67414999D02*
X52197000Y-69090998D01*
X60397001Y-67414999D02*
X53872999Y-67414999D01*
X71477000Y-83150000D02*
X70929981Y-83150000D01*
X67587001Y-74604999D02*
X60397001Y-67414999D01*
X70929981Y-83150000D02*
X67587001Y-79807020D01*
X67587001Y-79807020D02*
X67587001Y-74604999D01*
%TO.N,/e*%
X69177000Y-78070000D02*
X69177000Y-74073663D01*
X71477000Y-78070000D02*
X69177000Y-78070000D01*
X69177000Y-74073663D02*
X61018325Y-65914988D01*
X61018325Y-65914988D02*
X52833010Y-65914988D01*
X52833010Y-65914988D02*
X49657000Y-69090998D01*
X49657000Y-69090998D02*
X49657000Y-69215000D01*
%TO.N,/5v*%
X23622000Y-3810000D02*
X27432000Y-3810000D01*
D29*
X27432000Y-8405000D02*
X26947000Y-8890000D01*
D28*
X27432000Y-3810000D02*
X27432000Y-8405000D01*
X31877000Y-19823630D02*
X31877000Y-20955000D01*
X26947000Y-8890000D02*
X26678234Y-8890000D01*
X26678234Y-8890000D02*
X24946999Y-10621235D01*
X31208369Y-19154999D02*
X31877000Y-19823630D01*
X24946999Y-10621235D02*
X24946999Y-15722501D01*
X24946999Y-15722501D02*
X28379497Y-19154999D01*
X28379497Y-19154999D02*
X31208369Y-19154999D01*
X49657000Y-90170000D02*
X45847000Y-86360000D01*
X49657000Y-93980000D02*
X49657000Y-90170000D01*
X45847000Y-86360000D02*
X45847000Y-81915000D01*
X45847000Y-81915000D02*
X49657000Y-81915000D01*
X47847001Y-88360001D02*
X45847000Y-86360000D01*
X71477000Y-88230000D02*
X66622002Y-88230000D01*
X66622002Y-88230000D02*
X66492001Y-88360001D01*
X66492001Y-88360001D02*
X47847001Y-88360001D01*
X65532000Y-40640000D02*
X65532000Y-45720000D01*
X67252001Y-38919999D02*
X65532000Y-40640000D01*
X67252001Y-34734399D02*
X67252001Y-38919999D01*
X66357601Y-33839999D02*
X67252001Y-34734399D01*
X43630629Y-33839999D02*
X66357601Y-33839999D01*
X31877000Y-22086370D02*
X43630629Y-33839999D01*
X31877000Y-20955000D02*
X31877000Y-22086370D01*
X73777000Y-88230000D02*
X71477000Y-88230000D01*
X76277029Y-51385029D02*
X76277029Y-85729971D01*
X76277029Y-85729971D02*
X73777000Y-88230000D01*
X65532000Y-40640000D02*
X76277029Y-51385029D01*
X44046999Y-80114999D02*
X45847000Y-81915000D01*
X31877000Y-74362919D02*
X32524920Y-73714999D01*
X43687001Y-73714999D02*
X44046999Y-74074997D01*
X44046999Y-74074997D02*
X44046999Y-80114999D01*
X31877000Y-74362919D02*
X31877000Y-75565000D01*
X33346001Y-73714999D02*
X43687001Y-73714999D01*
X32524920Y-73714999D02*
X33346001Y-73714999D01*
D30*
X25017686Y-74223411D02*
X25526098Y-73714999D01*
X16863001Y-74223411D02*
X25017686Y-74223411D01*
X25526098Y-73714999D02*
X33346001Y-73714999D01*
X13542999Y-73814999D02*
X16454589Y-73814999D01*
X16454589Y-73814999D02*
X16863001Y-74223411D01*
X12573000Y-74784998D02*
X13542999Y-73814999D01*
X12573000Y-75565000D02*
X12573000Y-74784998D01*
D28*
%TO.N,Net-(D1-Pad2)*%
X12827000Y-3810000D02*
X16002000Y-3810000D01*
%TO.N,Net-(R6-Pad2)*%
X67402000Y-55210000D02*
X65532000Y-53340000D01*
X71477000Y-55210000D02*
X67402000Y-55210000D01*
%TO.N,Net-(RV1-Pad2)*%
X73777000Y-85690000D02*
X71477000Y-85690000D01*
X65532000Y-38100000D02*
X63731999Y-39900001D01*
X63731999Y-46584001D02*
X67917988Y-50769990D01*
X74777020Y-84689980D02*
X73777000Y-85690000D01*
X74777020Y-52883001D02*
X74777020Y-84689980D01*
X72664009Y-50769990D02*
X74777020Y-52883001D01*
X67917988Y-50769990D02*
X72664009Y-50769990D01*
X63731999Y-39900001D02*
X63731999Y-46584001D01*
%TD*%
D31*
%TO.N,GNDREF*%
X99172001Y-8473630D02*
X99122697Y-7866435D01*
X98814433Y-6783706D01*
X98300863Y-5781921D01*
X98191416Y-5618124D01*
X97509196Y-5032409D01*
X93651605Y-8890000D01*
X97509196Y-12747591D01*
X98191416Y-12161876D01*
X98739045Y-11178296D01*
X99084265Y-10106777D01*
X99172001Y-9349398D01*
X99172001Y-34331571D01*
X87960000Y-34331571D01*
X87960000Y-77428428D01*
X99172000Y-77428428D01*
X99172000Y-95576125D01*
X98943376Y-95347501D01*
X98562248Y-95092840D01*
X98138761Y-94917426D01*
X97689189Y-94828000D01*
X97230811Y-94828000D01*
X96781239Y-94917426D01*
X96357752Y-95092840D01*
X95976624Y-95347501D01*
X95652501Y-95671624D01*
X95397840Y-96052752D01*
X95222426Y-96476239D01*
X95133000Y-96925811D01*
X95133000Y-97384189D01*
X95222426Y-97833761D01*
X95397840Y-98257248D01*
X95652501Y-98638376D01*
X95932125Y-98918000D01*
X4067875Y-98918000D01*
X4347499Y-98638376D01*
X4602160Y-98257248D01*
X4777574Y-97833761D01*
X4867000Y-97384189D01*
X4867000Y-96925811D01*
X4777574Y-96476239D01*
X4602160Y-96052752D01*
X4347499Y-95671624D01*
X4023376Y-95347501D01*
X3642248Y-95092840D01*
X3218761Y-94917426D01*
X2769189Y-94828000D01*
X2310811Y-94828000D01*
X1861239Y-94917426D01*
X1437752Y-95092840D01*
X1056624Y-95347501D01*
X777000Y-95627125D01*
X777000Y-75409679D01*
X836000Y-75409679D01*
X836000Y-75720321D01*
X896604Y-76024994D01*
X1015481Y-76311989D01*
X1188064Y-76570279D01*
X1407721Y-76789936D01*
X1666011Y-76962519D01*
X1953006Y-77081396D01*
X2257679Y-77142000D01*
X2568321Y-77142000D01*
X2872994Y-77081396D01*
X3159989Y-76962519D01*
X3418279Y-76789936D01*
X3637936Y-76570279D01*
X3683000Y-76502836D01*
X3728064Y-76570279D01*
X3947721Y-76789936D01*
X4206011Y-76962519D01*
X4493006Y-77081396D01*
X4797679Y-77142000D01*
X5108321Y-77142000D01*
X5412994Y-77081396D01*
X5699989Y-76962519D01*
X5958279Y-76789936D01*
X6177936Y-76570279D01*
X6223000Y-76502836D01*
X6268064Y-76570279D01*
X6487721Y-76789936D01*
X6746011Y-76962519D01*
X7033006Y-77081396D01*
X7337679Y-77142000D01*
X7648321Y-77142000D01*
X7952994Y-77081396D01*
X8239989Y-76962519D01*
X8498279Y-76789936D01*
X8659807Y-76628408D01*
X8716370Y-76611250D01*
X8804105Y-76564354D01*
X8808064Y-76570279D01*
X9027721Y-76789936D01*
X9286011Y-76962519D01*
X9573006Y-77081396D01*
X9877679Y-77142000D01*
X10188321Y-77142000D01*
X10492994Y-77081396D01*
X10779989Y-76962519D01*
X11038279Y-76789936D01*
X11257936Y-76570279D01*
X11303000Y-76502836D01*
X11348064Y-76570279D01*
X11567721Y-76789936D01*
X11826011Y-76962519D01*
X12113006Y-77081396D01*
X12417679Y-77142000D01*
X12728321Y-77142000D01*
X13032994Y-77081396D01*
X13319989Y-76962519D01*
X13578279Y-76789936D01*
X13685877Y-76682338D01*
X13732463Y-76769494D01*
X13811815Y-76866185D01*
X13908506Y-76945537D01*
X14018820Y-77004502D01*
X14138518Y-77040812D01*
X14263000Y-77053072D01*
X14827250Y-77050000D01*
X14986000Y-76891250D01*
X14986000Y-75692000D01*
X15240000Y-75692000D01*
X15240000Y-76891250D01*
X15398750Y-77050000D01*
X15963000Y-77053072D01*
X16087482Y-77040812D01*
X16207180Y-77004502D01*
X16317494Y-76945537D01*
X16414185Y-76866185D01*
X16493537Y-76769494D01*
X16552502Y-76659180D01*
X16588812Y-76539482D01*
X16601072Y-76415000D01*
X16598000Y-75850750D01*
X16439250Y-75692000D01*
X15240000Y-75692000D01*
X14986000Y-75692000D01*
X14966000Y-75692000D01*
X14966000Y-75438000D01*
X14986000Y-75438000D01*
X14986000Y-75418000D01*
X15240000Y-75418000D01*
X15240000Y-75438000D01*
X16439250Y-75438000D01*
X16566170Y-75311080D01*
X16642070Y-75334104D01*
X16807636Y-75350411D01*
X16807644Y-75350411D01*
X16863001Y-75355863D01*
X16918358Y-75350411D01*
X24962332Y-75350411D01*
X25017686Y-75355863D01*
X25073040Y-75350411D01*
X25073051Y-75350411D01*
X25234961Y-75334464D01*
X25220000Y-75409679D01*
X25220000Y-75720321D01*
X25280604Y-76024994D01*
X25399481Y-76311989D01*
X25572064Y-76570279D01*
X25791721Y-76789936D01*
X26050011Y-76962519D01*
X26337006Y-77081396D01*
X26641679Y-77142000D01*
X26952321Y-77142000D01*
X27256994Y-77081396D01*
X27543989Y-76962519D01*
X27802279Y-76789936D01*
X28021936Y-76570279D01*
X28124344Y-76417014D01*
X28141822Y-76446355D01*
X28336731Y-76662588D01*
X28570080Y-76836641D01*
X28832901Y-76961825D01*
X28980110Y-77006476D01*
X29210000Y-76885155D01*
X29210000Y-75692000D01*
X29190000Y-75692000D01*
X29190000Y-75438000D01*
X29210000Y-75438000D01*
X29210000Y-75418000D01*
X29464000Y-75418000D01*
X29464000Y-75438000D01*
X29484000Y-75438000D01*
X29484000Y-75692000D01*
X29464000Y-75692000D01*
X29464000Y-76885155D01*
X29693890Y-77006476D01*
X29841099Y-76961825D01*
X30103920Y-76836641D01*
X30337269Y-76662588D01*
X30532178Y-76446355D01*
X30549656Y-76417014D01*
X30652064Y-76570279D01*
X30871721Y-76789936D01*
X31130011Y-76962519D01*
X31417006Y-77081396D01*
X31721679Y-77142000D01*
X32032321Y-77142000D01*
X32336994Y-77081396D01*
X32623989Y-76962519D01*
X32882279Y-76789936D01*
X33101936Y-76570279D01*
X33147000Y-76502836D01*
X33190001Y-76567191D01*
X33190000Y-87569740D01*
X33184065Y-87630000D01*
X33190000Y-87690260D01*
X33190000Y-87690267D01*
X33207755Y-87870533D01*
X33277916Y-88101823D01*
X33391851Y-88314982D01*
X33545183Y-88501817D01*
X33592000Y-88540239D01*
X42481996Y-97430236D01*
X42622018Y-97545148D01*
X42835176Y-97659084D01*
X43066466Y-97729246D01*
X43141998Y-97736685D01*
X43852220Y-98446907D01*
X43882814Y-98484186D01*
X44031582Y-98606276D01*
X44201309Y-98696997D01*
X44385475Y-98752863D01*
X44529007Y-98767000D01*
X44529009Y-98767000D01*
X44576999Y-98771727D01*
X44624990Y-98767000D01*
X64849007Y-98767000D01*
X64897000Y-98771727D01*
X65088525Y-98752863D01*
X65088528Y-98752862D01*
X65272691Y-98696997D01*
X65442418Y-98606276D01*
X65591186Y-98484186D01*
X65621784Y-98446902D01*
X69137086Y-94931600D01*
X70372154Y-94931600D01*
X70135552Y-95168202D01*
X69946553Y-95451059D01*
X69816368Y-95765353D01*
X69750000Y-96099005D01*
X69750000Y-96439195D01*
X69816368Y-96772847D01*
X69946553Y-97087141D01*
X70135552Y-97369998D01*
X70376102Y-97610548D01*
X70658959Y-97799547D01*
X70973253Y-97929732D01*
X71306905Y-97996100D01*
X71647095Y-97996100D01*
X71980747Y-97929732D01*
X72295041Y-97799547D01*
X72577898Y-97610548D01*
X72818448Y-97369998D01*
X73007447Y-97087141D01*
X73137632Y-96772847D01*
X73204000Y-96439195D01*
X73204000Y-96099005D01*
X73137632Y-95765353D01*
X73007447Y-95451059D01*
X72818448Y-95168202D01*
X72581846Y-94931600D01*
X75136007Y-94931600D01*
X75184000Y-94936327D01*
X75375525Y-94917463D01*
X75489197Y-94882981D01*
X75559691Y-94861597D01*
X75729418Y-94770876D01*
X75878186Y-94648786D01*
X75908784Y-94611502D01*
X76213260Y-94307026D01*
X76356449Y-94263219D01*
X76551986Y-94158106D01*
X76680339Y-94052259D01*
X82295804Y-88410113D01*
X82337775Y-88375668D01*
X82373919Y-88331627D01*
X82374861Y-88330680D01*
X82408981Y-88288904D01*
X82478610Y-88204060D01*
X82479246Y-88202870D01*
X82480098Y-88201827D01*
X82531519Y-88105074D01*
X82583260Y-88008274D01*
X82583652Y-88006983D01*
X82584284Y-88005793D01*
X82615828Y-87900911D01*
X82647703Y-87795834D01*
X82647835Y-87794490D01*
X82648223Y-87793201D01*
X82658686Y-87684322D01*
X82664010Y-87630268D01*
X82664010Y-87628921D01*
X82669459Y-87572219D01*
X82664010Y-87518206D01*
X82664010Y-40825364D01*
X82669462Y-40770009D01*
X82664010Y-40714655D01*
X82664010Y-40714645D01*
X82647703Y-40549079D01*
X82583260Y-40336639D01*
X82478610Y-40140853D01*
X82411503Y-40059083D01*
X82373068Y-40012249D01*
X82373065Y-40012246D01*
X82337775Y-39969245D01*
X82294774Y-39933955D01*
X63460724Y-21099905D01*
X69750000Y-21099905D01*
X69750000Y-21440095D01*
X69816368Y-21773747D01*
X69946553Y-22088041D01*
X70135552Y-22370898D01*
X70376102Y-22611448D01*
X70658959Y-22800447D01*
X70973253Y-22930632D01*
X71306905Y-22997000D01*
X71647095Y-22997000D01*
X71980747Y-22930632D01*
X72295041Y-22800447D01*
X72577898Y-22611448D01*
X72818448Y-22370898D01*
X73007447Y-22088041D01*
X73137632Y-21773747D01*
X73204000Y-21440095D01*
X73204000Y-21099905D01*
X73137632Y-20766253D01*
X73007447Y-20451959D01*
X72818448Y-20169102D01*
X72577898Y-19928552D01*
X72295041Y-19739553D01*
X71980747Y-19609368D01*
X71647095Y-19543000D01*
X71306905Y-19543000D01*
X70973253Y-19609368D01*
X70658959Y-19739553D01*
X70376102Y-19928552D01*
X70135552Y-20169102D01*
X69946553Y-20451959D01*
X69816368Y-20766253D01*
X69750000Y-21099905D01*
X63460724Y-21099905D01*
X60097818Y-17737000D01*
X72456740Y-17737000D01*
X72517000Y-17742935D01*
X72577260Y-17737000D01*
X72577268Y-17737000D01*
X72757534Y-17719245D01*
X72988824Y-17649084D01*
X73201983Y-17535149D01*
X73388817Y-17381817D01*
X73427239Y-17335000D01*
X76990586Y-13771653D01*
X77386354Y-14036097D01*
X78443160Y-14473841D01*
X79565060Y-14697000D01*
X80708940Y-14697000D01*
X81830840Y-14473841D01*
X82887646Y-14036097D01*
X83838747Y-13400592D01*
X84312143Y-12927196D01*
X89614409Y-12927196D01*
X90200124Y-13609416D01*
X91183704Y-14157045D01*
X92255223Y-14502265D01*
X93373501Y-14631808D01*
X94495565Y-14540697D01*
X95578294Y-14232433D01*
X96580079Y-13718863D01*
X96743876Y-13609416D01*
X97329591Y-12927196D01*
X93472000Y-9069605D01*
X89614409Y-12927196D01*
X84312143Y-12927196D01*
X84647592Y-12591747D01*
X85283097Y-11640646D01*
X85720841Y-10583840D01*
X85944000Y-9461940D01*
X85944000Y-8791501D01*
X87730192Y-8791501D01*
X87821303Y-9913565D01*
X88129567Y-10996294D01*
X88643137Y-11998079D01*
X88752584Y-12161876D01*
X89434804Y-12747591D01*
X93292395Y-8890000D01*
X89434804Y-5032409D01*
X88752584Y-5618124D01*
X88204955Y-6601704D01*
X87859735Y-7673223D01*
X87730192Y-8791501D01*
X85944000Y-8791501D01*
X85944000Y-8318060D01*
X85720841Y-7196160D01*
X85283097Y-6139354D01*
X84647592Y-5188253D01*
X84312143Y-4852804D01*
X89614409Y-4852804D01*
X93472000Y-8710395D01*
X97329591Y-4852804D01*
X96743876Y-4170584D01*
X95760296Y-3622955D01*
X94688777Y-3277735D01*
X93570499Y-3148192D01*
X92448435Y-3239303D01*
X91365706Y-3547567D01*
X90363921Y-4061137D01*
X90200124Y-4170584D01*
X89614409Y-4852804D01*
X84312143Y-4852804D01*
X83838747Y-4379408D01*
X82887646Y-3743903D01*
X81830840Y-3306159D01*
X80708940Y-3083000D01*
X79565060Y-3083000D01*
X78443160Y-3306159D01*
X77386354Y-3743903D01*
X76435253Y-4379408D01*
X75626408Y-5188253D01*
X74990903Y-6139354D01*
X74553159Y-7196160D01*
X74330000Y-8318060D01*
X74330000Y-9461940D01*
X74553159Y-10583840D01*
X74990903Y-11640646D01*
X75255347Y-12036414D01*
X72008761Y-15283000D01*
X57025388Y-15283000D01*
X60917464Y-11390923D01*
X61020903Y-11640646D01*
X61656408Y-12591747D01*
X62465253Y-13400592D01*
X63416354Y-14036097D01*
X64473160Y-14473841D01*
X65595060Y-14697000D01*
X66738940Y-14697000D01*
X67860840Y-14473841D01*
X68917646Y-14036097D01*
X69868747Y-13400592D01*
X70677592Y-12591747D01*
X71313097Y-11640646D01*
X71750841Y-10583840D01*
X71974000Y-9461940D01*
X71974000Y-8318060D01*
X71750841Y-7196160D01*
X71313097Y-6139354D01*
X70677592Y-5188253D01*
X69868747Y-4379408D01*
X68917646Y-3743903D01*
X67860840Y-3306159D01*
X66738940Y-3083000D01*
X65595060Y-3083000D01*
X64473160Y-3306159D01*
X63416354Y-3743903D01*
X62465253Y-4379408D01*
X61656408Y-5188253D01*
X61020903Y-6139354D01*
X60583159Y-7196160D01*
X60360000Y-8318060D01*
X60360000Y-8477908D01*
X57446218Y-11391690D01*
X57780841Y-10583840D01*
X58004000Y-9461940D01*
X58004000Y-8318060D01*
X57780841Y-7196160D01*
X57343097Y-6139354D01*
X56707592Y-5188253D01*
X55898747Y-4379408D01*
X54947646Y-3743903D01*
X53890840Y-3306159D01*
X52768940Y-3083000D01*
X51625060Y-3083000D01*
X50503160Y-3306159D01*
X49446354Y-3743903D01*
X48495253Y-4379408D01*
X47686408Y-5188253D01*
X47050903Y-6139354D01*
X46613159Y-7196160D01*
X46390000Y-8318060D01*
X46390000Y-9461940D01*
X46613159Y-10583840D01*
X47050903Y-11640646D01*
X47315347Y-12036414D01*
X46292000Y-13059761D01*
X46245183Y-13098183D01*
X46091851Y-13285018D01*
X45977916Y-13498177D01*
X45907755Y-13729467D01*
X45890000Y-13909733D01*
X45890000Y-13909740D01*
X45884065Y-13970000D01*
X45890000Y-14030260D01*
X45890001Y-20042806D01*
X45847000Y-20107161D01*
X45804000Y-20042807D01*
X45804000Y-15300259D01*
X45809935Y-15239999D01*
X45804000Y-15179739D01*
X45804000Y-15179732D01*
X45786245Y-14999466D01*
X45716084Y-14768176D01*
X45602149Y-14555017D01*
X45448817Y-14368183D01*
X45402005Y-14329765D01*
X43108654Y-12036414D01*
X43373097Y-11640646D01*
X43810841Y-10583840D01*
X44034000Y-9461940D01*
X44034000Y-8318060D01*
X43810841Y-7196160D01*
X43373097Y-6139354D01*
X42737592Y-5188253D01*
X41928747Y-4379408D01*
X40977646Y-3743903D01*
X39920840Y-3306159D01*
X38798940Y-3083000D01*
X37655060Y-3083000D01*
X36533160Y-3306159D01*
X35476354Y-3743903D01*
X34525253Y-4379408D01*
X33716408Y-5188253D01*
X33080903Y-6139354D01*
X32643159Y-7196160D01*
X32420000Y-8318060D01*
X32420000Y-9461940D01*
X32643159Y-10583840D01*
X33080903Y-11640646D01*
X33716408Y-12591747D01*
X34525253Y-13400592D01*
X35476354Y-14036097D01*
X36533160Y-14473841D01*
X37655060Y-14697000D01*
X38798940Y-14697000D01*
X39920840Y-14473841D01*
X40977646Y-14036097D01*
X41373414Y-13771654D01*
X43350000Y-15748240D01*
X43350001Y-20042806D01*
X43223790Y-20231694D01*
X43108681Y-20509590D01*
X43050000Y-20804604D01*
X43050000Y-21105396D01*
X43108681Y-21400410D01*
X43223790Y-21678306D01*
X43390901Y-21928406D01*
X43603594Y-22141099D01*
X43853694Y-22308210D01*
X44131590Y-22423319D01*
X44426604Y-22482000D01*
X44727396Y-22482000D01*
X45022410Y-22423319D01*
X45300306Y-22308210D01*
X45550406Y-22141099D01*
X45763099Y-21928406D01*
X45847000Y-21802839D01*
X45930901Y-21928406D01*
X46143594Y-22141099D01*
X46393694Y-22308210D01*
X46671590Y-22423319D01*
X46966604Y-22482000D01*
X47267396Y-22482000D01*
X47562410Y-22423319D01*
X47840306Y-22308210D01*
X48090406Y-22141099D01*
X48303099Y-21928406D01*
X48387000Y-21802839D01*
X48470901Y-21928406D01*
X48683594Y-22141099D01*
X48933694Y-22308210D01*
X49211590Y-22423319D01*
X49506604Y-22482000D01*
X49807396Y-22482000D01*
X50102410Y-22423319D01*
X50380306Y-22308210D01*
X50630406Y-22141099D01*
X50843099Y-21928406D01*
X50927000Y-21802839D01*
X51010901Y-21928406D01*
X51223594Y-22141099D01*
X51473694Y-22308210D01*
X51751590Y-22423319D01*
X52046604Y-22482000D01*
X52347396Y-22482000D01*
X52642410Y-22423319D01*
X52920306Y-22308210D01*
X53170406Y-22141099D01*
X53383099Y-21928406D01*
X53467000Y-21802839D01*
X53550901Y-21928406D01*
X53763594Y-22141099D01*
X54013694Y-22308210D01*
X54291590Y-22423319D01*
X54586604Y-22482000D01*
X54887396Y-22482000D01*
X55182410Y-22423319D01*
X55460306Y-22308210D01*
X55710406Y-22141099D01*
X55923099Y-21928406D01*
X56007000Y-21802839D01*
X56090901Y-21928406D01*
X56303594Y-22141099D01*
X56553694Y-22308210D01*
X56831590Y-22423319D01*
X57126604Y-22482000D01*
X57304414Y-22482000D01*
X78910001Y-44087588D01*
X78910000Y-86486760D01*
X73953760Y-91443001D01*
X73413937Y-91443001D01*
X73412000Y-91055750D01*
X73253250Y-90897000D01*
X71604000Y-90897000D01*
X71604000Y-90917000D01*
X71350000Y-90917000D01*
X71350000Y-90897000D01*
X69700750Y-90897000D01*
X69542000Y-91055750D01*
X69540063Y-91443001D01*
X68609991Y-91443001D01*
X68562000Y-91438274D01*
X68514010Y-91443001D01*
X68514008Y-91443001D01*
X68370476Y-91457138D01*
X68186310Y-91513004D01*
X68016583Y-91603725D01*
X67867815Y-91725815D01*
X67837221Y-91763094D01*
X67127914Y-92472401D01*
X67024795Y-92173912D01*
X66931814Y-91999956D01*
X66667413Y-91904192D01*
X65711605Y-92860000D01*
X65725748Y-92874143D01*
X65546143Y-93053748D01*
X65532000Y-93039605D01*
X64576192Y-93995413D01*
X64671956Y-94259814D01*
X64961571Y-94400704D01*
X65150165Y-94450150D01*
X63787327Y-95812989D01*
X59873697Y-95812989D01*
X61099687Y-94587000D01*
X61202095Y-94587000D01*
X61535747Y-94520632D01*
X61850041Y-94390447D01*
X62132898Y-94201448D01*
X62373448Y-93960898D01*
X62562447Y-93678041D01*
X62692632Y-93363747D01*
X62759000Y-93030095D01*
X62759000Y-92922595D01*
X63890282Y-92922595D01*
X63934039Y-93241675D01*
X64039205Y-93546088D01*
X64132186Y-93720044D01*
X64396587Y-93815808D01*
X65352395Y-92860000D01*
X64396587Y-91904192D01*
X64132186Y-91999956D01*
X63991296Y-92289571D01*
X63909616Y-92601108D01*
X63890282Y-92922595D01*
X62759000Y-92922595D01*
X62759000Y-92689905D01*
X62692632Y-92356253D01*
X62562447Y-92041959D01*
X62373448Y-91759102D01*
X62338933Y-91724587D01*
X64576192Y-91724587D01*
X65532000Y-92680395D01*
X66487808Y-91724587D01*
X66392044Y-91460186D01*
X66102429Y-91319296D01*
X65790892Y-91237616D01*
X65469405Y-91218282D01*
X65150325Y-91262039D01*
X64845912Y-91367205D01*
X64671956Y-91460186D01*
X64576192Y-91724587D01*
X62338933Y-91724587D01*
X62132898Y-91518552D01*
X61850041Y-91329553D01*
X61535747Y-91199368D01*
X61202095Y-91133000D01*
X60861905Y-91133000D01*
X60528253Y-91199368D01*
X60213959Y-91329553D01*
X59931102Y-91518552D01*
X59690552Y-91759102D01*
X59501553Y-92041959D01*
X59371368Y-92356253D01*
X59305000Y-92689905D01*
X59305000Y-93030095D01*
X59371368Y-93363747D01*
X59426490Y-93496823D01*
X58110336Y-94812978D01*
X50936930Y-94812978D01*
X51010210Y-94703306D01*
X51125319Y-94425410D01*
X51184000Y-94130396D01*
X51184000Y-93829604D01*
X51125319Y-93534590D01*
X51010210Y-93256694D01*
X50884000Y-93067807D01*
X50884000Y-92689905D01*
X51105000Y-92689905D01*
X51105000Y-93030095D01*
X51171368Y-93363747D01*
X51301553Y-93678041D01*
X51490552Y-93960898D01*
X51731102Y-94201448D01*
X52013959Y-94390447D01*
X52328253Y-94520632D01*
X52661905Y-94587000D01*
X53002095Y-94587000D01*
X53335747Y-94520632D01*
X53650041Y-94390447D01*
X53932898Y-94201448D01*
X54138933Y-93995413D01*
X56376192Y-93995413D01*
X56471956Y-94259814D01*
X56761571Y-94400704D01*
X57073108Y-94482384D01*
X57394595Y-94501718D01*
X57713675Y-94457961D01*
X58018088Y-94352795D01*
X58192044Y-94259814D01*
X58287808Y-93995413D01*
X57332000Y-93039605D01*
X56376192Y-93995413D01*
X54138933Y-93995413D01*
X54173448Y-93960898D01*
X54362447Y-93678041D01*
X54492632Y-93363747D01*
X54559000Y-93030095D01*
X54559000Y-92922595D01*
X55690282Y-92922595D01*
X55734039Y-93241675D01*
X55839205Y-93546088D01*
X55932186Y-93720044D01*
X56196587Y-93815808D01*
X57152395Y-92860000D01*
X57511605Y-92860000D01*
X58467413Y-93815808D01*
X58731814Y-93720044D01*
X58872704Y-93430429D01*
X58954384Y-93118892D01*
X58973718Y-92797405D01*
X58929961Y-92478325D01*
X58824795Y-92173912D01*
X58731814Y-91999956D01*
X58467413Y-91904192D01*
X57511605Y-92860000D01*
X57152395Y-92860000D01*
X56196587Y-91904192D01*
X55932186Y-91999956D01*
X55791296Y-92289571D01*
X55709616Y-92601108D01*
X55690282Y-92922595D01*
X54559000Y-92922595D01*
X54559000Y-92689905D01*
X54492632Y-92356253D01*
X54362447Y-92041959D01*
X54173448Y-91759102D01*
X54138933Y-91724587D01*
X56376192Y-91724587D01*
X57332000Y-92680395D01*
X58287808Y-91724587D01*
X58192044Y-91460186D01*
X57902429Y-91319296D01*
X57590892Y-91237616D01*
X57269405Y-91218282D01*
X56950325Y-91262039D01*
X56645912Y-91367205D01*
X56471956Y-91460186D01*
X56376192Y-91724587D01*
X54138933Y-91724587D01*
X53932898Y-91518552D01*
X53650041Y-91329553D01*
X53335747Y-91199368D01*
X53002095Y-91133000D01*
X52661905Y-91133000D01*
X52328253Y-91199368D01*
X52013959Y-91329553D01*
X51731102Y-91518552D01*
X51490552Y-91759102D01*
X51301553Y-92041959D01*
X51171368Y-92356253D01*
X51105000Y-92689905D01*
X50884000Y-92689905D01*
X50884000Y-90230263D01*
X50889935Y-90170000D01*
X50866246Y-89929466D01*
X50796084Y-89698176D01*
X50757409Y-89625820D01*
X50736660Y-89587001D01*
X66431741Y-89587001D01*
X66492001Y-89592936D01*
X66552261Y-89587001D01*
X66552269Y-89587001D01*
X66732535Y-89569246D01*
X66963825Y-89499085D01*
X67042561Y-89457000D01*
X69694477Y-89457000D01*
X69646463Y-89515506D01*
X69587498Y-89625820D01*
X69551188Y-89745518D01*
X69538928Y-89870000D01*
X69542000Y-90484250D01*
X69700750Y-90643000D01*
X71350000Y-90643000D01*
X71350000Y-90623000D01*
X71604000Y-90623000D01*
X71604000Y-90643000D01*
X73253250Y-90643000D01*
X73412000Y-90484250D01*
X73415072Y-89870000D01*
X73402812Y-89745518D01*
X73366502Y-89625820D01*
X73307537Y-89515506D01*
X73259523Y-89457000D01*
X73716740Y-89457000D01*
X73777000Y-89462935D01*
X73837260Y-89457000D01*
X73837268Y-89457000D01*
X74017534Y-89439245D01*
X74248824Y-89369084D01*
X74461983Y-89255149D01*
X74648817Y-89101817D01*
X74687239Y-89055000D01*
X77102034Y-86640206D01*
X77148846Y-86601788D01*
X77302178Y-86414954D01*
X77382250Y-86265148D01*
X77416113Y-86201796D01*
X77486274Y-85970505D01*
X77491781Y-85914590D01*
X77504029Y-85790239D01*
X77504029Y-85790231D01*
X77509964Y-85729971D01*
X77504029Y-85669711D01*
X77504029Y-51445292D01*
X77509964Y-51385029D01*
X77486275Y-51144495D01*
X77416113Y-50913205D01*
X77302178Y-50700046D01*
X77148846Y-50513212D01*
X77102035Y-50474795D01*
X67267239Y-40640000D01*
X68077006Y-39830234D01*
X68123818Y-39791816D01*
X68277150Y-39604982D01*
X68391085Y-39391823D01*
X68434529Y-39248608D01*
X68461247Y-39160533D01*
X68484936Y-38919999D01*
X68479001Y-38859736D01*
X68479001Y-34794662D01*
X68484936Y-34734399D01*
X68461247Y-34493865D01*
X68391085Y-34262575D01*
X68364153Y-34212189D01*
X68277150Y-34049416D01*
X68123818Y-33862582D01*
X68077007Y-33824165D01*
X67267840Y-33014999D01*
X67229418Y-32968182D01*
X67042584Y-32814850D01*
X66829425Y-32700915D01*
X66598135Y-32630754D01*
X66417869Y-32612999D01*
X66417861Y-32612999D01*
X66357601Y-32607064D01*
X66297341Y-32612999D01*
X44138869Y-32612999D01*
X33740878Y-22215009D01*
X33933913Y-22306246D01*
X34067961Y-22346904D01*
X34290000Y-22224915D01*
X34290000Y-21082000D01*
X34544000Y-21082000D01*
X34544000Y-22224915D01*
X34766039Y-22346904D01*
X34900087Y-22306246D01*
X35154420Y-22186037D01*
X35380414Y-22018519D01*
X35569385Y-21810131D01*
X35687000Y-21614018D01*
X35804615Y-21810131D01*
X35993586Y-22018519D01*
X36219580Y-22186037D01*
X36473913Y-22306246D01*
X36607961Y-22346904D01*
X36830000Y-22224915D01*
X36830000Y-21082000D01*
X34544000Y-21082000D01*
X34290000Y-21082000D01*
X34270000Y-21082000D01*
X34270000Y-20828000D01*
X34290000Y-20828000D01*
X34290000Y-20808000D01*
X34544000Y-20808000D01*
X34544000Y-20828000D01*
X36830000Y-20828000D01*
X36830000Y-20808000D01*
X37084000Y-20808000D01*
X37084000Y-20828000D01*
X37104000Y-20828000D01*
X37104000Y-21082000D01*
X37084000Y-21082000D01*
X37084000Y-22224915D01*
X37306039Y-22346904D01*
X37440087Y-22306246D01*
X37694420Y-22186037D01*
X37920414Y-22018519D01*
X38109385Y-21810131D01*
X38167323Y-21713525D01*
X38310901Y-21928406D01*
X38523594Y-22141099D01*
X38773694Y-22308210D01*
X39051590Y-22423319D01*
X39346604Y-22482000D01*
X39647396Y-22482000D01*
X39942410Y-22423319D01*
X40220306Y-22308210D01*
X40470406Y-22141099D01*
X40683099Y-21928406D01*
X40850210Y-21678306D01*
X40965319Y-21400410D01*
X41024000Y-21105396D01*
X41024000Y-20804604D01*
X40965319Y-20509590D01*
X40850210Y-20231694D01*
X40683099Y-19981594D01*
X40470406Y-19768901D01*
X40220306Y-19601790D01*
X40061389Y-19535964D01*
X34940424Y-14415000D01*
X34902002Y-14368183D01*
X34715168Y-14214851D01*
X34502009Y-14100916D01*
X34270719Y-14030755D01*
X34090453Y-14013000D01*
X34090445Y-14013000D01*
X34030185Y-14007065D01*
X33969925Y-14013000D01*
X31519193Y-14013000D01*
X31367579Y-13911695D01*
X31420097Y-13732702D01*
X30607000Y-12919605D01*
X29793903Y-13732702D01*
X29846421Y-13911695D01*
X29694807Y-14013000D01*
X28725240Y-14013000D01*
X28677517Y-13965277D01*
X28677517Y-13017500D01*
X28663480Y-12874983D01*
X28643924Y-12810512D01*
X29166783Y-12810512D01*
X29208213Y-13090130D01*
X29303397Y-13356292D01*
X29370329Y-13481514D01*
X29614298Y-13553097D01*
X30427395Y-12740000D01*
X30786605Y-12740000D01*
X31599702Y-13553097D01*
X31843671Y-13481514D01*
X31964571Y-13226004D01*
X32033300Y-12951816D01*
X32047217Y-12669488D01*
X32005787Y-12389870D01*
X31910603Y-12123708D01*
X31843671Y-11998486D01*
X31599702Y-11926903D01*
X30786605Y-12740000D01*
X30427395Y-12740000D01*
X29614298Y-11926903D01*
X29370329Y-11998486D01*
X29249429Y-12253996D01*
X29180700Y-12528184D01*
X29166783Y-12810512D01*
X28643924Y-12810512D01*
X28621910Y-12737943D01*
X28554403Y-12611647D01*
X28463554Y-12500946D01*
X28352853Y-12410097D01*
X28268374Y-12364942D01*
X28322969Y-12296923D01*
X28466571Y-12021094D01*
X28537563Y-11802980D01*
X28510406Y-11747298D01*
X29793903Y-11747298D01*
X30607000Y-12560395D01*
X31420097Y-11747298D01*
X31348514Y-11503329D01*
X31093004Y-11382429D01*
X30818816Y-11313700D01*
X30536488Y-11299783D01*
X30256870Y-11341213D01*
X29990708Y-11436397D01*
X29865486Y-11503329D01*
X29793903Y-11747298D01*
X28510406Y-11747298D01*
X28417594Y-11557000D01*
X27074000Y-11557000D01*
X27074000Y-11577000D01*
X26820000Y-11577000D01*
X26820000Y-11557000D01*
X26800000Y-11557000D01*
X26800000Y-11303000D01*
X26820000Y-11303000D01*
X26820000Y-11283000D01*
X27074000Y-11283000D01*
X27074000Y-11303000D01*
X28417594Y-11303000D01*
X28537563Y-11057020D01*
X28466571Y-10838906D01*
X28322969Y-10563077D01*
X28128315Y-10320563D01*
X28014809Y-10225328D01*
X28187832Y-10083332D01*
X28397710Y-9827595D01*
X28553663Y-9535827D01*
X28649699Y-9219239D01*
X28682126Y-8890000D01*
X28649699Y-8560761D01*
X28649620Y-8560501D01*
X28659000Y-8465268D01*
X28659000Y-4802702D01*
X29118903Y-4802702D01*
X29190486Y-5046671D01*
X29445996Y-5167571D01*
X29720184Y-5236300D01*
X30002512Y-5250217D01*
X30282130Y-5208787D01*
X30548292Y-5113603D01*
X30673514Y-5046671D01*
X30745097Y-4802702D01*
X29932000Y-3989605D01*
X29118903Y-4802702D01*
X28659000Y-4802702D01*
X28659000Y-4722193D01*
X28760305Y-4570579D01*
X28939298Y-4623097D01*
X29752395Y-3810000D01*
X30111605Y-3810000D01*
X30924702Y-4623097D01*
X31168671Y-4551514D01*
X31289571Y-4296004D01*
X31358300Y-4021816D01*
X31372217Y-3739488D01*
X31330787Y-3459870D01*
X31235603Y-3193708D01*
X31168671Y-3068486D01*
X30924702Y-2996903D01*
X30111605Y-3810000D01*
X29752395Y-3810000D01*
X28939298Y-2996903D01*
X28760305Y-3049421D01*
X28618099Y-2836594D01*
X28598803Y-2817298D01*
X29118903Y-2817298D01*
X29932000Y-3630395D01*
X30745097Y-2817298D01*
X30673514Y-2573329D01*
X30418004Y-2452429D01*
X30143816Y-2383700D01*
X29861488Y-2369783D01*
X29581870Y-2411213D01*
X29315708Y-2506397D01*
X29190486Y-2573329D01*
X29118903Y-2817298D01*
X28598803Y-2817298D01*
X28405406Y-2623901D01*
X28155306Y-2456790D01*
X27877410Y-2341681D01*
X27582396Y-2283000D01*
X27281604Y-2283000D01*
X26986590Y-2341681D01*
X26708694Y-2456790D01*
X26519807Y-2583000D01*
X24534193Y-2583000D01*
X24345306Y-2456790D01*
X24067410Y-2341681D01*
X23772396Y-2283000D01*
X23471604Y-2283000D01*
X23176590Y-2341681D01*
X22898694Y-2456790D01*
X22648594Y-2623901D01*
X22435901Y-2836594D01*
X22268790Y-3086694D01*
X22153681Y-3364590D01*
X22095000Y-3659604D01*
X22095000Y-3960396D01*
X22153681Y-4255410D01*
X22268790Y-4533306D01*
X22435901Y-4783406D01*
X22648594Y-4996099D01*
X22898694Y-5163210D01*
X23176590Y-5278319D01*
X23471604Y-5337000D01*
X23772396Y-5337000D01*
X24067410Y-5278319D01*
X24345306Y-5163210D01*
X24534193Y-5037000D01*
X26205000Y-5037000D01*
X26205001Y-7356853D01*
X25961905Y-7486790D01*
X25706168Y-7696668D01*
X25496290Y-7952405D01*
X25340337Y-8244173D01*
X25244301Y-8560761D01*
X25241249Y-8591745D01*
X24121999Y-9710996D01*
X24075182Y-9749418D01*
X23921850Y-9936253D01*
X23807915Y-10149412D01*
X23737754Y-10380702D01*
X23719999Y-10560968D01*
X23719999Y-10560975D01*
X23714064Y-10621235D01*
X23719999Y-10681495D01*
X23720000Y-15662231D01*
X23714064Y-15722501D01*
X23737754Y-15963034D01*
X23760549Y-16038177D01*
X23807916Y-16194325D01*
X23921851Y-16407484D01*
X24075183Y-16594318D01*
X24121995Y-16632736D01*
X26917258Y-19428000D01*
X26646604Y-19428000D01*
X26351590Y-19486681D01*
X26073694Y-19601790D01*
X25823594Y-19768901D01*
X25610901Y-19981594D01*
X25527000Y-20107161D01*
X25443099Y-19981594D01*
X25230406Y-19768901D01*
X24980306Y-19601790D01*
X24702410Y-19486681D01*
X24407396Y-19428000D01*
X24106604Y-19428000D01*
X23811590Y-19486681D01*
X23533694Y-19601790D01*
X23283594Y-19768901D01*
X23186735Y-19865760D01*
X23124403Y-19749147D01*
X23033554Y-19638446D01*
X22922853Y-19547597D01*
X22796557Y-19480090D01*
X22659517Y-19438520D01*
X22517000Y-19424483D01*
X20917000Y-19424483D01*
X20774483Y-19438520D01*
X20637443Y-19480090D01*
X20511147Y-19547597D01*
X20400446Y-19638446D01*
X20309597Y-19749147D01*
X20242090Y-19875443D01*
X20200520Y-20012483D01*
X20186483Y-20155000D01*
X20186483Y-21755000D01*
X20200520Y-21897517D01*
X20242090Y-22034557D01*
X20309597Y-22160853D01*
X20400446Y-22271554D01*
X20511147Y-22362403D01*
X20637443Y-22429910D01*
X20774483Y-22471480D01*
X20917000Y-22485517D01*
X22517000Y-22485517D01*
X22659517Y-22471480D01*
X22796557Y-22429910D01*
X22922853Y-22362403D01*
X23033554Y-22271554D01*
X23124403Y-22160853D01*
X23186735Y-22044240D01*
X23283594Y-22141099D01*
X23533694Y-22308210D01*
X23811590Y-22423319D01*
X24106604Y-22482000D01*
X24407396Y-22482000D01*
X24702410Y-22423319D01*
X24980306Y-22308210D01*
X25230406Y-22141099D01*
X25443099Y-21928406D01*
X25527000Y-21802839D01*
X25610901Y-21928406D01*
X25823594Y-22141099D01*
X26073694Y-22308210D01*
X26351590Y-22423319D01*
X26646604Y-22482000D01*
X26947396Y-22482000D01*
X27242410Y-22423319D01*
X27520306Y-22308210D01*
X27770406Y-22141099D01*
X27983099Y-21928406D01*
X28067000Y-21802839D01*
X28150901Y-21928406D01*
X28363594Y-22141099D01*
X28613694Y-22308210D01*
X28891590Y-22423319D01*
X29186604Y-22482000D01*
X29487396Y-22482000D01*
X29782410Y-22423319D01*
X30060306Y-22308210D01*
X30310406Y-22141099D01*
X30523099Y-21928406D01*
X30607000Y-21802839D01*
X30650000Y-21867193D01*
X30650000Y-22026110D01*
X30644065Y-22086370D01*
X30650000Y-22146630D01*
X30650000Y-22146638D01*
X30667755Y-22326904D01*
X30737916Y-22558194D01*
X30851852Y-22771353D01*
X31005184Y-22958187D01*
X31051996Y-22996605D01*
X42720393Y-34665003D01*
X42758812Y-34711816D01*
X42945646Y-34865148D01*
X43144893Y-34971647D01*
X43158805Y-34979083D01*
X43390095Y-35049245D01*
X43510575Y-35061110D01*
X43570361Y-35066999D01*
X43570366Y-35066999D01*
X43630629Y-35072934D01*
X43690892Y-35066999D01*
X64266775Y-35066999D01*
X64247734Y-35107790D01*
X64184189Y-35367027D01*
X64172439Y-35633680D01*
X64212937Y-35897501D01*
X64304125Y-36148353D01*
X64360632Y-36254068D01*
X64596440Y-36315955D01*
X65352395Y-35560000D01*
X65338253Y-35545858D01*
X65517858Y-35366253D01*
X65532000Y-35380395D01*
X65546143Y-35366253D01*
X65725748Y-35545858D01*
X65711605Y-35560000D01*
X65725748Y-35574143D01*
X65546143Y-35753748D01*
X65532000Y-35739605D01*
X64776045Y-36495560D01*
X64837932Y-36731368D01*
X64939978Y-36779003D01*
X64846589Y-36817686D01*
X64609592Y-36976042D01*
X64408042Y-37177592D01*
X64249686Y-37414589D01*
X64140608Y-37677926D01*
X64121184Y-37775576D01*
X62906999Y-38989762D01*
X62860182Y-39028184D01*
X62706850Y-39215019D01*
X62592915Y-39428178D01*
X62522754Y-39659468D01*
X62504999Y-39839734D01*
X62504999Y-39839741D01*
X62499064Y-39900001D01*
X62504999Y-39960261D01*
X62505000Y-46523731D01*
X62499064Y-46584001D01*
X62522754Y-46824534D01*
X62533235Y-46859084D01*
X62592916Y-47055825D01*
X62706851Y-47268984D01*
X62860183Y-47455818D01*
X62906995Y-47494236D01*
X67007752Y-51594994D01*
X67046171Y-51641807D01*
X67233005Y-51795139D01*
X67446164Y-51909074D01*
X67677454Y-51979235D01*
X67857720Y-51996990D01*
X67857727Y-51996990D01*
X67917987Y-52002925D01*
X67978247Y-51996990D01*
X69698038Y-51996990D01*
X69610245Y-52199913D01*
X69585964Y-52305260D01*
X69706622Y-52543000D01*
X71350000Y-52543000D01*
X71350000Y-52523000D01*
X71604000Y-52523000D01*
X71604000Y-52543000D01*
X71624000Y-52543000D01*
X71624000Y-52797000D01*
X71604000Y-52797000D01*
X71604000Y-52817000D01*
X71350000Y-52817000D01*
X71350000Y-52797000D01*
X69706622Y-52797000D01*
X69585964Y-53034740D01*
X69610245Y-53140087D01*
X69730138Y-53417204D01*
X69901790Y-53665606D01*
X70118604Y-53875748D01*
X70129535Y-53882807D01*
X70007450Y-53983000D01*
X67910240Y-53983000D01*
X67044638Y-53117398D01*
X67000319Y-52894590D01*
X66885210Y-52616694D01*
X66718099Y-52366594D01*
X66505406Y-52153901D01*
X66255306Y-51986790D01*
X65977410Y-51871681D01*
X65682396Y-51813000D01*
X65381604Y-51813000D01*
X65086590Y-51871681D01*
X64808694Y-51986790D01*
X64558594Y-52153901D01*
X64345901Y-52366594D01*
X64178790Y-52616694D01*
X64063681Y-52894590D01*
X64005000Y-53189604D01*
X64005000Y-53490396D01*
X64063681Y-53785410D01*
X64178790Y-54063306D01*
X64345901Y-54313406D01*
X64558594Y-54526099D01*
X64808694Y-54693210D01*
X65086590Y-54808319D01*
X65309398Y-54852638D01*
X66491765Y-56035005D01*
X66530183Y-56081817D01*
X66717017Y-56235149D01*
X66930176Y-56349084D01*
X67161466Y-56419245D01*
X67341732Y-56437000D01*
X67341739Y-56437000D01*
X67401999Y-56442935D01*
X67462259Y-56437000D01*
X70007450Y-56437000D01*
X70059845Y-56480000D01*
X70007450Y-56523000D01*
X50898257Y-56523000D01*
X50837997Y-56517065D01*
X50777737Y-56523000D01*
X50777730Y-56523000D01*
X50597464Y-56540755D01*
X50366174Y-56610916D01*
X50153015Y-56724851D01*
X49966181Y-56878183D01*
X49927763Y-56924995D01*
X39119607Y-67733152D01*
X39051590Y-67746681D01*
X38773694Y-67861790D01*
X38523594Y-68028901D01*
X38310901Y-68241594D01*
X38143790Y-68491694D01*
X38028681Y-68769590D01*
X37970000Y-69064604D01*
X37970000Y-69365396D01*
X38028681Y-69660410D01*
X38143790Y-69938306D01*
X38176979Y-69987977D01*
X37591664Y-69987977D01*
X36964000Y-69360314D01*
X36964000Y-69064604D01*
X36905319Y-68769590D01*
X36790210Y-68491694D01*
X36623099Y-68241594D01*
X36410406Y-68028901D01*
X36160306Y-67861790D01*
X35882410Y-67746681D01*
X35587396Y-67688000D01*
X35286604Y-67688000D01*
X34991590Y-67746681D01*
X34713694Y-67861790D01*
X34463594Y-68028901D01*
X34250901Y-68241594D01*
X34167000Y-68367161D01*
X34083099Y-68241594D01*
X33870406Y-68028901D01*
X33620306Y-67861790D01*
X33342410Y-67746681D01*
X33047396Y-67688000D01*
X32746604Y-67688000D01*
X32451590Y-67746681D01*
X32173694Y-67861790D01*
X31923594Y-68028901D01*
X31710901Y-68241594D01*
X31627000Y-68367161D01*
X31584000Y-68302807D01*
X31584000Y-68143890D01*
X31589935Y-68083630D01*
X31584000Y-68023370D01*
X31584000Y-68023362D01*
X31566245Y-67843096D01*
X31519197Y-67688000D01*
X31496084Y-67611805D01*
X31454094Y-67533248D01*
X31382149Y-67398647D01*
X31228817Y-67211813D01*
X31182006Y-67173396D01*
X28993598Y-64984989D01*
X28955176Y-64938172D01*
X28768342Y-64784840D01*
X28555183Y-64670905D01*
X28323893Y-64600744D01*
X28143627Y-64582989D01*
X28143619Y-64582989D01*
X28083359Y-64577054D01*
X28023099Y-64582989D01*
X11026193Y-64582989D01*
X10965930Y-64577054D01*
X10905667Y-64582989D01*
X10905662Y-64582989D01*
X10845876Y-64588878D01*
X10725396Y-64600743D01*
X10494106Y-64670905D01*
X10280947Y-64784840D01*
X10094113Y-64938172D01*
X10055695Y-64984984D01*
X1587996Y-73452684D01*
X1541184Y-73491102D01*
X1502766Y-73537914D01*
X1502765Y-73537915D01*
X1490749Y-73552557D01*
X1387852Y-73677936D01*
X1273916Y-73891095D01*
X1203755Y-74122385D01*
X1186000Y-74302651D01*
X1186000Y-74302659D01*
X1180065Y-74362919D01*
X1186000Y-74423179D01*
X1186000Y-74562810D01*
X1015481Y-74818011D01*
X896604Y-75105006D01*
X836000Y-75409679D01*
X777000Y-75409679D01*
X777000Y-11186037D01*
X7810000Y-11186037D01*
X7810000Y-11673963D01*
X7905190Y-12152514D01*
X8091911Y-12603299D01*
X8362989Y-13008995D01*
X8708005Y-13354011D01*
X9113701Y-13625089D01*
X9564486Y-13811810D01*
X10043037Y-13907000D01*
X10530963Y-13907000D01*
X11009514Y-13811810D01*
X11460299Y-13625089D01*
X11865995Y-13354011D01*
X12211011Y-13008995D01*
X12482089Y-12603299D01*
X12668810Y-12152514D01*
X12764000Y-11673963D01*
X12764000Y-11186037D01*
X12668810Y-10707486D01*
X12482089Y-10256701D01*
X12211011Y-9851005D01*
X11865995Y-9505989D01*
X11460299Y-9234911D01*
X11009514Y-9048190D01*
X10530963Y-8953000D01*
X10043037Y-8953000D01*
X9564486Y-9048190D01*
X9113701Y-9234911D01*
X8708005Y-9505989D01*
X8362989Y-9851005D01*
X8091911Y-10256701D01*
X7905190Y-10707486D01*
X7810000Y-11186037D01*
X777000Y-11186037D01*
X777000Y-4710000D01*
X8748928Y-4710000D01*
X8761188Y-4834482D01*
X8797498Y-4954180D01*
X8856463Y-5064494D01*
X8935815Y-5161185D01*
X9032506Y-5240537D01*
X9142820Y-5299502D01*
X9262518Y-5335812D01*
X9387000Y-5348072D01*
X10001250Y-5345000D01*
X10160000Y-5186250D01*
X10160000Y-3937000D01*
X8910750Y-3937000D01*
X8752000Y-4095750D01*
X8748928Y-4710000D01*
X777000Y-4710000D01*
X777000Y-3762875D01*
X1056624Y-4042499D01*
X1437752Y-4297160D01*
X1861239Y-4472574D01*
X2310811Y-4562000D01*
X2769189Y-4562000D01*
X3218761Y-4472574D01*
X3642248Y-4297160D01*
X4023376Y-4042499D01*
X4347499Y-3718376D01*
X4602160Y-3337248D01*
X4777574Y-2913761D01*
X4778322Y-2910000D01*
X8748928Y-2910000D01*
X8752000Y-3524250D01*
X8910750Y-3683000D01*
X10160000Y-3683000D01*
X10160000Y-2433750D01*
X10414000Y-2433750D01*
X10414000Y-3683000D01*
X10434000Y-3683000D01*
X10434000Y-3937000D01*
X10414000Y-3937000D01*
X10414000Y-5186250D01*
X10572750Y-5345000D01*
X11187000Y-5348072D01*
X11311482Y-5335812D01*
X11431180Y-5299502D01*
X11541494Y-5240537D01*
X11638185Y-5161185D01*
X11717537Y-5064494D01*
X11739493Y-5023418D01*
X11789848Y-5073773D01*
X12056327Y-5251828D01*
X12352422Y-5374475D01*
X12666755Y-5437000D01*
X12987245Y-5437000D01*
X13301578Y-5374475D01*
X13597673Y-5251828D01*
X13864152Y-5073773D01*
X13900925Y-5037000D01*
X15089807Y-5037000D01*
X15278694Y-5163210D01*
X15556590Y-5278319D01*
X15851604Y-5337000D01*
X16152396Y-5337000D01*
X16447410Y-5278319D01*
X16725306Y-5163210D01*
X16975406Y-4996099D01*
X17188099Y-4783406D01*
X17355210Y-4533306D01*
X17470319Y-4255410D01*
X17529000Y-3960396D01*
X17529000Y-3659604D01*
X17470319Y-3364590D01*
X17355210Y-3086694D01*
X17188099Y-2836594D01*
X16975406Y-2623901D01*
X16725306Y-2456790D01*
X16447410Y-2341681D01*
X16152396Y-2283000D01*
X15851604Y-2283000D01*
X15556590Y-2341681D01*
X15278694Y-2456790D01*
X15089807Y-2583000D01*
X13900925Y-2583000D01*
X13864152Y-2546227D01*
X13597673Y-2368172D01*
X13301578Y-2245525D01*
X12987245Y-2183000D01*
X12666755Y-2183000D01*
X12352422Y-2245525D01*
X12056327Y-2368172D01*
X11789848Y-2546227D01*
X11739493Y-2596582D01*
X11717537Y-2555506D01*
X11638185Y-2458815D01*
X11541494Y-2379463D01*
X11431180Y-2320498D01*
X11311482Y-2284188D01*
X11187000Y-2271928D01*
X10572750Y-2275000D01*
X10414000Y-2433750D01*
X10160000Y-2433750D01*
X10001250Y-2275000D01*
X9387000Y-2271928D01*
X9262518Y-2284188D01*
X9142820Y-2320498D01*
X9032506Y-2379463D01*
X8935815Y-2458815D01*
X8856463Y-2555506D01*
X8797498Y-2665820D01*
X8761188Y-2785518D01*
X8748928Y-2910000D01*
X4778322Y-2910000D01*
X4867000Y-2464189D01*
X4867000Y-2005811D01*
X4777574Y-1556239D01*
X4602160Y-1132752D01*
X4364455Y-777000D01*
X99172001Y-777000D01*
X99172001Y-8473630D01*
%TA.AperFunction,Conductor*%
D32*
G36*
X99172001Y-8473630D02*
G01*
X99122697Y-7866435D01*
X98814433Y-6783706D01*
X98300863Y-5781921D01*
X98191416Y-5618124D01*
X97509196Y-5032409D01*
X93651605Y-8890000D01*
X97509196Y-12747591D01*
X98191416Y-12161876D01*
X98739045Y-11178296D01*
X99084265Y-10106777D01*
X99172001Y-9349398D01*
X99172001Y-34331571D01*
X87960000Y-34331571D01*
X87960000Y-77428428D01*
X99172000Y-77428428D01*
X99172000Y-95576125D01*
X98943376Y-95347501D01*
X98562248Y-95092840D01*
X98138761Y-94917426D01*
X97689189Y-94828000D01*
X97230811Y-94828000D01*
X96781239Y-94917426D01*
X96357752Y-95092840D01*
X95976624Y-95347501D01*
X95652501Y-95671624D01*
X95397840Y-96052752D01*
X95222426Y-96476239D01*
X95133000Y-96925811D01*
X95133000Y-97384189D01*
X95222426Y-97833761D01*
X95397840Y-98257248D01*
X95652501Y-98638376D01*
X95932125Y-98918000D01*
X4067875Y-98918000D01*
X4347499Y-98638376D01*
X4602160Y-98257248D01*
X4777574Y-97833761D01*
X4867000Y-97384189D01*
X4867000Y-96925811D01*
X4777574Y-96476239D01*
X4602160Y-96052752D01*
X4347499Y-95671624D01*
X4023376Y-95347501D01*
X3642248Y-95092840D01*
X3218761Y-94917426D01*
X2769189Y-94828000D01*
X2310811Y-94828000D01*
X1861239Y-94917426D01*
X1437752Y-95092840D01*
X1056624Y-95347501D01*
X777000Y-95627125D01*
X777000Y-75409679D01*
X836000Y-75409679D01*
X836000Y-75720321D01*
X896604Y-76024994D01*
X1015481Y-76311989D01*
X1188064Y-76570279D01*
X1407721Y-76789936D01*
X1666011Y-76962519D01*
X1953006Y-77081396D01*
X2257679Y-77142000D01*
X2568321Y-77142000D01*
X2872994Y-77081396D01*
X3159989Y-76962519D01*
X3418279Y-76789936D01*
X3637936Y-76570279D01*
X3683000Y-76502836D01*
X3728064Y-76570279D01*
X3947721Y-76789936D01*
X4206011Y-76962519D01*
X4493006Y-77081396D01*
X4797679Y-77142000D01*
X5108321Y-77142000D01*
X5412994Y-77081396D01*
X5699989Y-76962519D01*
X5958279Y-76789936D01*
X6177936Y-76570279D01*
X6223000Y-76502836D01*
X6268064Y-76570279D01*
X6487721Y-76789936D01*
X6746011Y-76962519D01*
X7033006Y-77081396D01*
X7337679Y-77142000D01*
X7648321Y-77142000D01*
X7952994Y-77081396D01*
X8239989Y-76962519D01*
X8498279Y-76789936D01*
X8659807Y-76628408D01*
X8716370Y-76611250D01*
X8804105Y-76564354D01*
X8808064Y-76570279D01*
X9027721Y-76789936D01*
X9286011Y-76962519D01*
X9573006Y-77081396D01*
X9877679Y-77142000D01*
X10188321Y-77142000D01*
X10492994Y-77081396D01*
X10779989Y-76962519D01*
X11038279Y-76789936D01*
X11257936Y-76570279D01*
X11303000Y-76502836D01*
X11348064Y-76570279D01*
X11567721Y-76789936D01*
X11826011Y-76962519D01*
X12113006Y-77081396D01*
X12417679Y-77142000D01*
X12728321Y-77142000D01*
X13032994Y-77081396D01*
X13319989Y-76962519D01*
X13578279Y-76789936D01*
X13685877Y-76682338D01*
X13732463Y-76769494D01*
X13811815Y-76866185D01*
X13908506Y-76945537D01*
X14018820Y-77004502D01*
X14138518Y-77040812D01*
X14263000Y-77053072D01*
X14827250Y-77050000D01*
X14986000Y-76891250D01*
X14986000Y-75692000D01*
X15240000Y-75692000D01*
X15240000Y-76891250D01*
X15398750Y-77050000D01*
X15963000Y-77053072D01*
X16087482Y-77040812D01*
X16207180Y-77004502D01*
X16317494Y-76945537D01*
X16414185Y-76866185D01*
X16493537Y-76769494D01*
X16552502Y-76659180D01*
X16588812Y-76539482D01*
X16601072Y-76415000D01*
X16598000Y-75850750D01*
X16439250Y-75692000D01*
X15240000Y-75692000D01*
X14986000Y-75692000D01*
X14966000Y-75692000D01*
X14966000Y-75438000D01*
X14986000Y-75438000D01*
X14986000Y-75418000D01*
X15240000Y-75418000D01*
X15240000Y-75438000D01*
X16439250Y-75438000D01*
X16566170Y-75311080D01*
X16642070Y-75334104D01*
X16807636Y-75350411D01*
X16807644Y-75350411D01*
X16863001Y-75355863D01*
X16918358Y-75350411D01*
X24962332Y-75350411D01*
X25017686Y-75355863D01*
X25073040Y-75350411D01*
X25073051Y-75350411D01*
X25234961Y-75334464D01*
X25220000Y-75409679D01*
X25220000Y-75720321D01*
X25280604Y-76024994D01*
X25399481Y-76311989D01*
X25572064Y-76570279D01*
X25791721Y-76789936D01*
X26050011Y-76962519D01*
X26337006Y-77081396D01*
X26641679Y-77142000D01*
X26952321Y-77142000D01*
X27256994Y-77081396D01*
X27543989Y-76962519D01*
X27802279Y-76789936D01*
X28021936Y-76570279D01*
X28124344Y-76417014D01*
X28141822Y-76446355D01*
X28336731Y-76662588D01*
X28570080Y-76836641D01*
X28832901Y-76961825D01*
X28980110Y-77006476D01*
X29210000Y-76885155D01*
X29210000Y-75692000D01*
X29190000Y-75692000D01*
X29190000Y-75438000D01*
X29210000Y-75438000D01*
X29210000Y-75418000D01*
X29464000Y-75418000D01*
X29464000Y-75438000D01*
X29484000Y-75438000D01*
X29484000Y-75692000D01*
X29464000Y-75692000D01*
X29464000Y-76885155D01*
X29693890Y-77006476D01*
X29841099Y-76961825D01*
X30103920Y-76836641D01*
X30337269Y-76662588D01*
X30532178Y-76446355D01*
X30549656Y-76417014D01*
X30652064Y-76570279D01*
X30871721Y-76789936D01*
X31130011Y-76962519D01*
X31417006Y-77081396D01*
X31721679Y-77142000D01*
X32032321Y-77142000D01*
X32336994Y-77081396D01*
X32623989Y-76962519D01*
X32882279Y-76789936D01*
X33101936Y-76570279D01*
X33147000Y-76502836D01*
X33190001Y-76567191D01*
X33190000Y-87569740D01*
X33184065Y-87630000D01*
X33190000Y-87690260D01*
X33190000Y-87690267D01*
X33207755Y-87870533D01*
X33277916Y-88101823D01*
X33391851Y-88314982D01*
X33545183Y-88501817D01*
X33592000Y-88540239D01*
X42481996Y-97430236D01*
X42622018Y-97545148D01*
X42835176Y-97659084D01*
X43066466Y-97729246D01*
X43141998Y-97736685D01*
X43852220Y-98446907D01*
X43882814Y-98484186D01*
X44031582Y-98606276D01*
X44201309Y-98696997D01*
X44385475Y-98752863D01*
X44529007Y-98767000D01*
X44529009Y-98767000D01*
X44576999Y-98771727D01*
X44624990Y-98767000D01*
X64849007Y-98767000D01*
X64897000Y-98771727D01*
X65088525Y-98752863D01*
X65088528Y-98752862D01*
X65272691Y-98696997D01*
X65442418Y-98606276D01*
X65591186Y-98484186D01*
X65621784Y-98446902D01*
X69137086Y-94931600D01*
X70372154Y-94931600D01*
X70135552Y-95168202D01*
X69946553Y-95451059D01*
X69816368Y-95765353D01*
X69750000Y-96099005D01*
X69750000Y-96439195D01*
X69816368Y-96772847D01*
X69946553Y-97087141D01*
X70135552Y-97369998D01*
X70376102Y-97610548D01*
X70658959Y-97799547D01*
X70973253Y-97929732D01*
X71306905Y-97996100D01*
X71647095Y-97996100D01*
X71980747Y-97929732D01*
X72295041Y-97799547D01*
X72577898Y-97610548D01*
X72818448Y-97369998D01*
X73007447Y-97087141D01*
X73137632Y-96772847D01*
X73204000Y-96439195D01*
X73204000Y-96099005D01*
X73137632Y-95765353D01*
X73007447Y-95451059D01*
X72818448Y-95168202D01*
X72581846Y-94931600D01*
X75136007Y-94931600D01*
X75184000Y-94936327D01*
X75375525Y-94917463D01*
X75489197Y-94882981D01*
X75559691Y-94861597D01*
X75729418Y-94770876D01*
X75878186Y-94648786D01*
X75908784Y-94611502D01*
X76213260Y-94307026D01*
X76356449Y-94263219D01*
X76551986Y-94158106D01*
X76680339Y-94052259D01*
X82295804Y-88410113D01*
X82337775Y-88375668D01*
X82373919Y-88331627D01*
X82374861Y-88330680D01*
X82408981Y-88288904D01*
X82478610Y-88204060D01*
X82479246Y-88202870D01*
X82480098Y-88201827D01*
X82531519Y-88105074D01*
X82583260Y-88008274D01*
X82583652Y-88006983D01*
X82584284Y-88005793D01*
X82615828Y-87900911D01*
X82647703Y-87795834D01*
X82647835Y-87794490D01*
X82648223Y-87793201D01*
X82658686Y-87684322D01*
X82664010Y-87630268D01*
X82664010Y-87628921D01*
X82669459Y-87572219D01*
X82664010Y-87518206D01*
X82664010Y-40825364D01*
X82669462Y-40770009D01*
X82664010Y-40714655D01*
X82664010Y-40714645D01*
X82647703Y-40549079D01*
X82583260Y-40336639D01*
X82478610Y-40140853D01*
X82411503Y-40059083D01*
X82373068Y-40012249D01*
X82373065Y-40012246D01*
X82337775Y-39969245D01*
X82294774Y-39933955D01*
X63460724Y-21099905D01*
X69750000Y-21099905D01*
X69750000Y-21440095D01*
X69816368Y-21773747D01*
X69946553Y-22088041D01*
X70135552Y-22370898D01*
X70376102Y-22611448D01*
X70658959Y-22800447D01*
X70973253Y-22930632D01*
X71306905Y-22997000D01*
X71647095Y-22997000D01*
X71980747Y-22930632D01*
X72295041Y-22800447D01*
X72577898Y-22611448D01*
X72818448Y-22370898D01*
X73007447Y-22088041D01*
X73137632Y-21773747D01*
X73204000Y-21440095D01*
X73204000Y-21099905D01*
X73137632Y-20766253D01*
X73007447Y-20451959D01*
X72818448Y-20169102D01*
X72577898Y-19928552D01*
X72295041Y-19739553D01*
X71980747Y-19609368D01*
X71647095Y-19543000D01*
X71306905Y-19543000D01*
X70973253Y-19609368D01*
X70658959Y-19739553D01*
X70376102Y-19928552D01*
X70135552Y-20169102D01*
X69946553Y-20451959D01*
X69816368Y-20766253D01*
X69750000Y-21099905D01*
X63460724Y-21099905D01*
X60097818Y-17737000D01*
X72456740Y-17737000D01*
X72517000Y-17742935D01*
X72577260Y-17737000D01*
X72577268Y-17737000D01*
X72757534Y-17719245D01*
X72988824Y-17649084D01*
X73201983Y-17535149D01*
X73388817Y-17381817D01*
X73427239Y-17335000D01*
X76990586Y-13771653D01*
X77386354Y-14036097D01*
X78443160Y-14473841D01*
X79565060Y-14697000D01*
X80708940Y-14697000D01*
X81830840Y-14473841D01*
X82887646Y-14036097D01*
X83838747Y-13400592D01*
X84312143Y-12927196D01*
X89614409Y-12927196D01*
X90200124Y-13609416D01*
X91183704Y-14157045D01*
X92255223Y-14502265D01*
X93373501Y-14631808D01*
X94495565Y-14540697D01*
X95578294Y-14232433D01*
X96580079Y-13718863D01*
X96743876Y-13609416D01*
X97329591Y-12927196D01*
X93472000Y-9069605D01*
X89614409Y-12927196D01*
X84312143Y-12927196D01*
X84647592Y-12591747D01*
X85283097Y-11640646D01*
X85720841Y-10583840D01*
X85944000Y-9461940D01*
X85944000Y-8791501D01*
X87730192Y-8791501D01*
X87821303Y-9913565D01*
X88129567Y-10996294D01*
X88643137Y-11998079D01*
X88752584Y-12161876D01*
X89434804Y-12747591D01*
X93292395Y-8890000D01*
X89434804Y-5032409D01*
X88752584Y-5618124D01*
X88204955Y-6601704D01*
X87859735Y-7673223D01*
X87730192Y-8791501D01*
X85944000Y-8791501D01*
X85944000Y-8318060D01*
X85720841Y-7196160D01*
X85283097Y-6139354D01*
X84647592Y-5188253D01*
X84312143Y-4852804D01*
X89614409Y-4852804D01*
X93472000Y-8710395D01*
X97329591Y-4852804D01*
X96743876Y-4170584D01*
X95760296Y-3622955D01*
X94688777Y-3277735D01*
X93570499Y-3148192D01*
X92448435Y-3239303D01*
X91365706Y-3547567D01*
X90363921Y-4061137D01*
X90200124Y-4170584D01*
X89614409Y-4852804D01*
X84312143Y-4852804D01*
X83838747Y-4379408D01*
X82887646Y-3743903D01*
X81830840Y-3306159D01*
X80708940Y-3083000D01*
X79565060Y-3083000D01*
X78443160Y-3306159D01*
X77386354Y-3743903D01*
X76435253Y-4379408D01*
X75626408Y-5188253D01*
X74990903Y-6139354D01*
X74553159Y-7196160D01*
X74330000Y-8318060D01*
X74330000Y-9461940D01*
X74553159Y-10583840D01*
X74990903Y-11640646D01*
X75255347Y-12036414D01*
X72008761Y-15283000D01*
X57025388Y-15283000D01*
X60917464Y-11390923D01*
X61020903Y-11640646D01*
X61656408Y-12591747D01*
X62465253Y-13400592D01*
X63416354Y-14036097D01*
X64473160Y-14473841D01*
X65595060Y-14697000D01*
X66738940Y-14697000D01*
X67860840Y-14473841D01*
X68917646Y-14036097D01*
X69868747Y-13400592D01*
X70677592Y-12591747D01*
X71313097Y-11640646D01*
X71750841Y-10583840D01*
X71974000Y-9461940D01*
X71974000Y-8318060D01*
X71750841Y-7196160D01*
X71313097Y-6139354D01*
X70677592Y-5188253D01*
X69868747Y-4379408D01*
X68917646Y-3743903D01*
X67860840Y-3306159D01*
X66738940Y-3083000D01*
X65595060Y-3083000D01*
X64473160Y-3306159D01*
X63416354Y-3743903D01*
X62465253Y-4379408D01*
X61656408Y-5188253D01*
X61020903Y-6139354D01*
X60583159Y-7196160D01*
X60360000Y-8318060D01*
X60360000Y-8477908D01*
X57446218Y-11391690D01*
X57780841Y-10583840D01*
X58004000Y-9461940D01*
X58004000Y-8318060D01*
X57780841Y-7196160D01*
X57343097Y-6139354D01*
X56707592Y-5188253D01*
X55898747Y-4379408D01*
X54947646Y-3743903D01*
X53890840Y-3306159D01*
X52768940Y-3083000D01*
X51625060Y-3083000D01*
X50503160Y-3306159D01*
X49446354Y-3743903D01*
X48495253Y-4379408D01*
X47686408Y-5188253D01*
X47050903Y-6139354D01*
X46613159Y-7196160D01*
X46390000Y-8318060D01*
X46390000Y-9461940D01*
X46613159Y-10583840D01*
X47050903Y-11640646D01*
X47315347Y-12036414D01*
X46292000Y-13059761D01*
X46245183Y-13098183D01*
X46091851Y-13285018D01*
X45977916Y-13498177D01*
X45907755Y-13729467D01*
X45890000Y-13909733D01*
X45890000Y-13909740D01*
X45884065Y-13970000D01*
X45890000Y-14030260D01*
X45890001Y-20042806D01*
X45847000Y-20107161D01*
X45804000Y-20042807D01*
X45804000Y-15300259D01*
X45809935Y-15239999D01*
X45804000Y-15179739D01*
X45804000Y-15179732D01*
X45786245Y-14999466D01*
X45716084Y-14768176D01*
X45602149Y-14555017D01*
X45448817Y-14368183D01*
X45402005Y-14329765D01*
X43108654Y-12036414D01*
X43373097Y-11640646D01*
X43810841Y-10583840D01*
X44034000Y-9461940D01*
X44034000Y-8318060D01*
X43810841Y-7196160D01*
X43373097Y-6139354D01*
X42737592Y-5188253D01*
X41928747Y-4379408D01*
X40977646Y-3743903D01*
X39920840Y-3306159D01*
X38798940Y-3083000D01*
X37655060Y-3083000D01*
X36533160Y-3306159D01*
X35476354Y-3743903D01*
X34525253Y-4379408D01*
X33716408Y-5188253D01*
X33080903Y-6139354D01*
X32643159Y-7196160D01*
X32420000Y-8318060D01*
X32420000Y-9461940D01*
X32643159Y-10583840D01*
X33080903Y-11640646D01*
X33716408Y-12591747D01*
X34525253Y-13400592D01*
X35476354Y-14036097D01*
X36533160Y-14473841D01*
X37655060Y-14697000D01*
X38798940Y-14697000D01*
X39920840Y-14473841D01*
X40977646Y-14036097D01*
X41373414Y-13771654D01*
X43350000Y-15748240D01*
X43350001Y-20042806D01*
X43223790Y-20231694D01*
X43108681Y-20509590D01*
X43050000Y-20804604D01*
X43050000Y-21105396D01*
X43108681Y-21400410D01*
X43223790Y-21678306D01*
X43390901Y-21928406D01*
X43603594Y-22141099D01*
X43853694Y-22308210D01*
X44131590Y-22423319D01*
X44426604Y-22482000D01*
X44727396Y-22482000D01*
X45022410Y-22423319D01*
X45300306Y-22308210D01*
X45550406Y-22141099D01*
X45763099Y-21928406D01*
X45847000Y-21802839D01*
X45930901Y-21928406D01*
X46143594Y-22141099D01*
X46393694Y-22308210D01*
X46671590Y-22423319D01*
X46966604Y-22482000D01*
X47267396Y-22482000D01*
X47562410Y-22423319D01*
X47840306Y-22308210D01*
X48090406Y-22141099D01*
X48303099Y-21928406D01*
X48387000Y-21802839D01*
X48470901Y-21928406D01*
X48683594Y-22141099D01*
X48933694Y-22308210D01*
X49211590Y-22423319D01*
X49506604Y-22482000D01*
X49807396Y-22482000D01*
X50102410Y-22423319D01*
X50380306Y-22308210D01*
X50630406Y-22141099D01*
X50843099Y-21928406D01*
X50927000Y-21802839D01*
X51010901Y-21928406D01*
X51223594Y-22141099D01*
X51473694Y-22308210D01*
X51751590Y-22423319D01*
X52046604Y-22482000D01*
X52347396Y-22482000D01*
X52642410Y-22423319D01*
X52920306Y-22308210D01*
X53170406Y-22141099D01*
X53383099Y-21928406D01*
X53467000Y-21802839D01*
X53550901Y-21928406D01*
X53763594Y-22141099D01*
X54013694Y-22308210D01*
X54291590Y-22423319D01*
X54586604Y-22482000D01*
X54887396Y-22482000D01*
X55182410Y-22423319D01*
X55460306Y-22308210D01*
X55710406Y-22141099D01*
X55923099Y-21928406D01*
X56007000Y-21802839D01*
X56090901Y-21928406D01*
X56303594Y-22141099D01*
X56553694Y-22308210D01*
X56831590Y-22423319D01*
X57126604Y-22482000D01*
X57304414Y-22482000D01*
X78910001Y-44087588D01*
X78910000Y-86486760D01*
X73953760Y-91443001D01*
X73413937Y-91443001D01*
X73412000Y-91055750D01*
X73253250Y-90897000D01*
X71604000Y-90897000D01*
X71604000Y-90917000D01*
X71350000Y-90917000D01*
X71350000Y-90897000D01*
X69700750Y-90897000D01*
X69542000Y-91055750D01*
X69540063Y-91443001D01*
X68609991Y-91443001D01*
X68562000Y-91438274D01*
X68514010Y-91443001D01*
X68514008Y-91443001D01*
X68370476Y-91457138D01*
X68186310Y-91513004D01*
X68016583Y-91603725D01*
X67867815Y-91725815D01*
X67837221Y-91763094D01*
X67127914Y-92472401D01*
X67024795Y-92173912D01*
X66931814Y-91999956D01*
X66667413Y-91904192D01*
X65711605Y-92860000D01*
X65725748Y-92874143D01*
X65546143Y-93053748D01*
X65532000Y-93039605D01*
X64576192Y-93995413D01*
X64671956Y-94259814D01*
X64961571Y-94400704D01*
X65150165Y-94450150D01*
X63787327Y-95812989D01*
X59873697Y-95812989D01*
X61099687Y-94587000D01*
X61202095Y-94587000D01*
X61535747Y-94520632D01*
X61850041Y-94390447D01*
X62132898Y-94201448D01*
X62373448Y-93960898D01*
X62562447Y-93678041D01*
X62692632Y-93363747D01*
X62759000Y-93030095D01*
X62759000Y-92922595D01*
X63890282Y-92922595D01*
X63934039Y-93241675D01*
X64039205Y-93546088D01*
X64132186Y-93720044D01*
X64396587Y-93815808D01*
X65352395Y-92860000D01*
X64396587Y-91904192D01*
X64132186Y-91999956D01*
X63991296Y-92289571D01*
X63909616Y-92601108D01*
X63890282Y-92922595D01*
X62759000Y-92922595D01*
X62759000Y-92689905D01*
X62692632Y-92356253D01*
X62562447Y-92041959D01*
X62373448Y-91759102D01*
X62338933Y-91724587D01*
X64576192Y-91724587D01*
X65532000Y-92680395D01*
X66487808Y-91724587D01*
X66392044Y-91460186D01*
X66102429Y-91319296D01*
X65790892Y-91237616D01*
X65469405Y-91218282D01*
X65150325Y-91262039D01*
X64845912Y-91367205D01*
X64671956Y-91460186D01*
X64576192Y-91724587D01*
X62338933Y-91724587D01*
X62132898Y-91518552D01*
X61850041Y-91329553D01*
X61535747Y-91199368D01*
X61202095Y-91133000D01*
X60861905Y-91133000D01*
X60528253Y-91199368D01*
X60213959Y-91329553D01*
X59931102Y-91518552D01*
X59690552Y-91759102D01*
X59501553Y-92041959D01*
X59371368Y-92356253D01*
X59305000Y-92689905D01*
X59305000Y-93030095D01*
X59371368Y-93363747D01*
X59426490Y-93496823D01*
X58110336Y-94812978D01*
X50936930Y-94812978D01*
X51010210Y-94703306D01*
X51125319Y-94425410D01*
X51184000Y-94130396D01*
X51184000Y-93829604D01*
X51125319Y-93534590D01*
X51010210Y-93256694D01*
X50884000Y-93067807D01*
X50884000Y-92689905D01*
X51105000Y-92689905D01*
X51105000Y-93030095D01*
X51171368Y-93363747D01*
X51301553Y-93678041D01*
X51490552Y-93960898D01*
X51731102Y-94201448D01*
X52013959Y-94390447D01*
X52328253Y-94520632D01*
X52661905Y-94587000D01*
X53002095Y-94587000D01*
X53335747Y-94520632D01*
X53650041Y-94390447D01*
X53932898Y-94201448D01*
X54138933Y-93995413D01*
X56376192Y-93995413D01*
X56471956Y-94259814D01*
X56761571Y-94400704D01*
X57073108Y-94482384D01*
X57394595Y-94501718D01*
X57713675Y-94457961D01*
X58018088Y-94352795D01*
X58192044Y-94259814D01*
X58287808Y-93995413D01*
X57332000Y-93039605D01*
X56376192Y-93995413D01*
X54138933Y-93995413D01*
X54173448Y-93960898D01*
X54362447Y-93678041D01*
X54492632Y-93363747D01*
X54559000Y-93030095D01*
X54559000Y-92922595D01*
X55690282Y-92922595D01*
X55734039Y-93241675D01*
X55839205Y-93546088D01*
X55932186Y-93720044D01*
X56196587Y-93815808D01*
X57152395Y-92860000D01*
X57511605Y-92860000D01*
X58467413Y-93815808D01*
X58731814Y-93720044D01*
X58872704Y-93430429D01*
X58954384Y-93118892D01*
X58973718Y-92797405D01*
X58929961Y-92478325D01*
X58824795Y-92173912D01*
X58731814Y-91999956D01*
X58467413Y-91904192D01*
X57511605Y-92860000D01*
X57152395Y-92860000D01*
X56196587Y-91904192D01*
X55932186Y-91999956D01*
X55791296Y-92289571D01*
X55709616Y-92601108D01*
X55690282Y-92922595D01*
X54559000Y-92922595D01*
X54559000Y-92689905D01*
X54492632Y-92356253D01*
X54362447Y-92041959D01*
X54173448Y-91759102D01*
X54138933Y-91724587D01*
X56376192Y-91724587D01*
X57332000Y-92680395D01*
X58287808Y-91724587D01*
X58192044Y-91460186D01*
X57902429Y-91319296D01*
X57590892Y-91237616D01*
X57269405Y-91218282D01*
X56950325Y-91262039D01*
X56645912Y-91367205D01*
X56471956Y-91460186D01*
X56376192Y-91724587D01*
X54138933Y-91724587D01*
X53932898Y-91518552D01*
X53650041Y-91329553D01*
X53335747Y-91199368D01*
X53002095Y-91133000D01*
X52661905Y-91133000D01*
X52328253Y-91199368D01*
X52013959Y-91329553D01*
X51731102Y-91518552D01*
X51490552Y-91759102D01*
X51301553Y-92041959D01*
X51171368Y-92356253D01*
X51105000Y-92689905D01*
X50884000Y-92689905D01*
X50884000Y-90230263D01*
X50889935Y-90170000D01*
X50866246Y-89929466D01*
X50796084Y-89698176D01*
X50757409Y-89625820D01*
X50736660Y-89587001D01*
X66431741Y-89587001D01*
X66492001Y-89592936D01*
X66552261Y-89587001D01*
X66552269Y-89587001D01*
X66732535Y-89569246D01*
X66963825Y-89499085D01*
X67042561Y-89457000D01*
X69694477Y-89457000D01*
X69646463Y-89515506D01*
X69587498Y-89625820D01*
X69551188Y-89745518D01*
X69538928Y-89870000D01*
X69542000Y-90484250D01*
X69700750Y-90643000D01*
X71350000Y-90643000D01*
X71350000Y-90623000D01*
X71604000Y-90623000D01*
X71604000Y-90643000D01*
X73253250Y-90643000D01*
X73412000Y-90484250D01*
X73415072Y-89870000D01*
X73402812Y-89745518D01*
X73366502Y-89625820D01*
X73307537Y-89515506D01*
X73259523Y-89457000D01*
X73716740Y-89457000D01*
X73777000Y-89462935D01*
X73837260Y-89457000D01*
X73837268Y-89457000D01*
X74017534Y-89439245D01*
X74248824Y-89369084D01*
X74461983Y-89255149D01*
X74648817Y-89101817D01*
X74687239Y-89055000D01*
X77102034Y-86640206D01*
X77148846Y-86601788D01*
X77302178Y-86414954D01*
X77382250Y-86265148D01*
X77416113Y-86201796D01*
X77486274Y-85970505D01*
X77491781Y-85914590D01*
X77504029Y-85790239D01*
X77504029Y-85790231D01*
X77509964Y-85729971D01*
X77504029Y-85669711D01*
X77504029Y-51445292D01*
X77509964Y-51385029D01*
X77486275Y-51144495D01*
X77416113Y-50913205D01*
X77302178Y-50700046D01*
X77148846Y-50513212D01*
X77102035Y-50474795D01*
X67267239Y-40640000D01*
X68077006Y-39830234D01*
X68123818Y-39791816D01*
X68277150Y-39604982D01*
X68391085Y-39391823D01*
X68434529Y-39248608D01*
X68461247Y-39160533D01*
X68484936Y-38919999D01*
X68479001Y-38859736D01*
X68479001Y-34794662D01*
X68484936Y-34734399D01*
X68461247Y-34493865D01*
X68391085Y-34262575D01*
X68364153Y-34212189D01*
X68277150Y-34049416D01*
X68123818Y-33862582D01*
X68077007Y-33824165D01*
X67267840Y-33014999D01*
X67229418Y-32968182D01*
X67042584Y-32814850D01*
X66829425Y-32700915D01*
X66598135Y-32630754D01*
X66417869Y-32612999D01*
X66417861Y-32612999D01*
X66357601Y-32607064D01*
X66297341Y-32612999D01*
X44138869Y-32612999D01*
X33740878Y-22215009D01*
X33933913Y-22306246D01*
X34067961Y-22346904D01*
X34290000Y-22224915D01*
X34290000Y-21082000D01*
X34544000Y-21082000D01*
X34544000Y-22224915D01*
X34766039Y-22346904D01*
X34900087Y-22306246D01*
X35154420Y-22186037D01*
X35380414Y-22018519D01*
X35569385Y-21810131D01*
X35687000Y-21614018D01*
X35804615Y-21810131D01*
X35993586Y-22018519D01*
X36219580Y-22186037D01*
X36473913Y-22306246D01*
X36607961Y-22346904D01*
X36830000Y-22224915D01*
X36830000Y-21082000D01*
X34544000Y-21082000D01*
X34290000Y-21082000D01*
X34270000Y-21082000D01*
X34270000Y-20828000D01*
X34290000Y-20828000D01*
X34290000Y-20808000D01*
X34544000Y-20808000D01*
X34544000Y-20828000D01*
X36830000Y-20828000D01*
X36830000Y-20808000D01*
X37084000Y-20808000D01*
X37084000Y-20828000D01*
X37104000Y-20828000D01*
X37104000Y-21082000D01*
X37084000Y-21082000D01*
X37084000Y-22224915D01*
X37306039Y-22346904D01*
X37440087Y-22306246D01*
X37694420Y-22186037D01*
X37920414Y-22018519D01*
X38109385Y-21810131D01*
X38167323Y-21713525D01*
X38310901Y-21928406D01*
X38523594Y-22141099D01*
X38773694Y-22308210D01*
X39051590Y-22423319D01*
X39346604Y-22482000D01*
X39647396Y-22482000D01*
X39942410Y-22423319D01*
X40220306Y-22308210D01*
X40470406Y-22141099D01*
X40683099Y-21928406D01*
X40850210Y-21678306D01*
X40965319Y-21400410D01*
X41024000Y-21105396D01*
X41024000Y-20804604D01*
X40965319Y-20509590D01*
X40850210Y-20231694D01*
X40683099Y-19981594D01*
X40470406Y-19768901D01*
X40220306Y-19601790D01*
X40061389Y-19535964D01*
X34940424Y-14415000D01*
X34902002Y-14368183D01*
X34715168Y-14214851D01*
X34502009Y-14100916D01*
X34270719Y-14030755D01*
X34090453Y-14013000D01*
X34090445Y-14013000D01*
X34030185Y-14007065D01*
X33969925Y-14013000D01*
X31519193Y-14013000D01*
X31367579Y-13911695D01*
X31420097Y-13732702D01*
X30607000Y-12919605D01*
X29793903Y-13732702D01*
X29846421Y-13911695D01*
X29694807Y-14013000D01*
X28725240Y-14013000D01*
X28677517Y-13965277D01*
X28677517Y-13017500D01*
X28663480Y-12874983D01*
X28643924Y-12810512D01*
X29166783Y-12810512D01*
X29208213Y-13090130D01*
X29303397Y-13356292D01*
X29370329Y-13481514D01*
X29614298Y-13553097D01*
X30427395Y-12740000D01*
X30786605Y-12740000D01*
X31599702Y-13553097D01*
X31843671Y-13481514D01*
X31964571Y-13226004D01*
X32033300Y-12951816D01*
X32047217Y-12669488D01*
X32005787Y-12389870D01*
X31910603Y-12123708D01*
X31843671Y-11998486D01*
X31599702Y-11926903D01*
X30786605Y-12740000D01*
X30427395Y-12740000D01*
X29614298Y-11926903D01*
X29370329Y-11998486D01*
X29249429Y-12253996D01*
X29180700Y-12528184D01*
X29166783Y-12810512D01*
X28643924Y-12810512D01*
X28621910Y-12737943D01*
X28554403Y-12611647D01*
X28463554Y-12500946D01*
X28352853Y-12410097D01*
X28268374Y-12364942D01*
X28322969Y-12296923D01*
X28466571Y-12021094D01*
X28537563Y-11802980D01*
X28510406Y-11747298D01*
X29793903Y-11747298D01*
X30607000Y-12560395D01*
X31420097Y-11747298D01*
X31348514Y-11503329D01*
X31093004Y-11382429D01*
X30818816Y-11313700D01*
X30536488Y-11299783D01*
X30256870Y-11341213D01*
X29990708Y-11436397D01*
X29865486Y-11503329D01*
X29793903Y-11747298D01*
X28510406Y-11747298D01*
X28417594Y-11557000D01*
X27074000Y-11557000D01*
X27074000Y-11577000D01*
X26820000Y-11577000D01*
X26820000Y-11557000D01*
X26800000Y-11557000D01*
X26800000Y-11303000D01*
X26820000Y-11303000D01*
X26820000Y-11283000D01*
X27074000Y-11283000D01*
X27074000Y-11303000D01*
X28417594Y-11303000D01*
X28537563Y-11057020D01*
X28466571Y-10838906D01*
X28322969Y-10563077D01*
X28128315Y-10320563D01*
X28014809Y-10225328D01*
X28187832Y-10083332D01*
X28397710Y-9827595D01*
X28553663Y-9535827D01*
X28649699Y-9219239D01*
X28682126Y-8890000D01*
X28649699Y-8560761D01*
X28649620Y-8560501D01*
X28659000Y-8465268D01*
X28659000Y-4802702D01*
X29118903Y-4802702D01*
X29190486Y-5046671D01*
X29445996Y-5167571D01*
X29720184Y-5236300D01*
X30002512Y-5250217D01*
X30282130Y-5208787D01*
X30548292Y-5113603D01*
X30673514Y-5046671D01*
X30745097Y-4802702D01*
X29932000Y-3989605D01*
X29118903Y-4802702D01*
X28659000Y-4802702D01*
X28659000Y-4722193D01*
X28760305Y-4570579D01*
X28939298Y-4623097D01*
X29752395Y-3810000D01*
X30111605Y-3810000D01*
X30924702Y-4623097D01*
X31168671Y-4551514D01*
X31289571Y-4296004D01*
X31358300Y-4021816D01*
X31372217Y-3739488D01*
X31330787Y-3459870D01*
X31235603Y-3193708D01*
X31168671Y-3068486D01*
X30924702Y-2996903D01*
X30111605Y-3810000D01*
X29752395Y-3810000D01*
X28939298Y-2996903D01*
X28760305Y-3049421D01*
X28618099Y-2836594D01*
X28598803Y-2817298D01*
X29118903Y-2817298D01*
X29932000Y-3630395D01*
X30745097Y-2817298D01*
X30673514Y-2573329D01*
X30418004Y-2452429D01*
X30143816Y-2383700D01*
X29861488Y-2369783D01*
X29581870Y-2411213D01*
X29315708Y-2506397D01*
X29190486Y-2573329D01*
X29118903Y-2817298D01*
X28598803Y-2817298D01*
X28405406Y-2623901D01*
X28155306Y-2456790D01*
X27877410Y-2341681D01*
X27582396Y-2283000D01*
X27281604Y-2283000D01*
X26986590Y-2341681D01*
X26708694Y-2456790D01*
X26519807Y-2583000D01*
X24534193Y-2583000D01*
X24345306Y-2456790D01*
X24067410Y-2341681D01*
X23772396Y-2283000D01*
X23471604Y-2283000D01*
X23176590Y-2341681D01*
X22898694Y-2456790D01*
X22648594Y-2623901D01*
X22435901Y-2836594D01*
X22268790Y-3086694D01*
X22153681Y-3364590D01*
X22095000Y-3659604D01*
X22095000Y-3960396D01*
X22153681Y-4255410D01*
X22268790Y-4533306D01*
X22435901Y-4783406D01*
X22648594Y-4996099D01*
X22898694Y-5163210D01*
X23176590Y-5278319D01*
X23471604Y-5337000D01*
X23772396Y-5337000D01*
X24067410Y-5278319D01*
X24345306Y-5163210D01*
X24534193Y-5037000D01*
X26205000Y-5037000D01*
X26205001Y-7356853D01*
X25961905Y-7486790D01*
X25706168Y-7696668D01*
X25496290Y-7952405D01*
X25340337Y-8244173D01*
X25244301Y-8560761D01*
X25241249Y-8591745D01*
X24121999Y-9710996D01*
X24075182Y-9749418D01*
X23921850Y-9936253D01*
X23807915Y-10149412D01*
X23737754Y-10380702D01*
X23719999Y-10560968D01*
X23719999Y-10560975D01*
X23714064Y-10621235D01*
X23719999Y-10681495D01*
X23720000Y-15662231D01*
X23714064Y-15722501D01*
X23737754Y-15963034D01*
X23760549Y-16038177D01*
X23807916Y-16194325D01*
X23921851Y-16407484D01*
X24075183Y-16594318D01*
X24121995Y-16632736D01*
X26917258Y-19428000D01*
X26646604Y-19428000D01*
X26351590Y-19486681D01*
X26073694Y-19601790D01*
X25823594Y-19768901D01*
X25610901Y-19981594D01*
X25527000Y-20107161D01*
X25443099Y-19981594D01*
X25230406Y-19768901D01*
X24980306Y-19601790D01*
X24702410Y-19486681D01*
X24407396Y-19428000D01*
X24106604Y-19428000D01*
X23811590Y-19486681D01*
X23533694Y-19601790D01*
X23283594Y-19768901D01*
X23186735Y-19865760D01*
X23124403Y-19749147D01*
X23033554Y-19638446D01*
X22922853Y-19547597D01*
X22796557Y-19480090D01*
X22659517Y-19438520D01*
X22517000Y-19424483D01*
X20917000Y-19424483D01*
X20774483Y-19438520D01*
X20637443Y-19480090D01*
X20511147Y-19547597D01*
X20400446Y-19638446D01*
X20309597Y-19749147D01*
X20242090Y-19875443D01*
X20200520Y-20012483D01*
X20186483Y-20155000D01*
X20186483Y-21755000D01*
X20200520Y-21897517D01*
X20242090Y-22034557D01*
X20309597Y-22160853D01*
X20400446Y-22271554D01*
X20511147Y-22362403D01*
X20637443Y-22429910D01*
X20774483Y-22471480D01*
X20917000Y-22485517D01*
X22517000Y-22485517D01*
X22659517Y-22471480D01*
X22796557Y-22429910D01*
X22922853Y-22362403D01*
X23033554Y-22271554D01*
X23124403Y-22160853D01*
X23186735Y-22044240D01*
X23283594Y-22141099D01*
X23533694Y-22308210D01*
X23811590Y-22423319D01*
X24106604Y-22482000D01*
X24407396Y-22482000D01*
X24702410Y-22423319D01*
X24980306Y-22308210D01*
X25230406Y-22141099D01*
X25443099Y-21928406D01*
X25527000Y-21802839D01*
X25610901Y-21928406D01*
X25823594Y-22141099D01*
X26073694Y-22308210D01*
X26351590Y-22423319D01*
X26646604Y-22482000D01*
X26947396Y-22482000D01*
X27242410Y-22423319D01*
X27520306Y-22308210D01*
X27770406Y-22141099D01*
X27983099Y-21928406D01*
X28067000Y-21802839D01*
X28150901Y-21928406D01*
X28363594Y-22141099D01*
X28613694Y-22308210D01*
X28891590Y-22423319D01*
X29186604Y-22482000D01*
X29487396Y-22482000D01*
X29782410Y-22423319D01*
X30060306Y-22308210D01*
X30310406Y-22141099D01*
X30523099Y-21928406D01*
X30607000Y-21802839D01*
X30650000Y-21867193D01*
X30650000Y-22026110D01*
X30644065Y-22086370D01*
X30650000Y-22146630D01*
X30650000Y-22146638D01*
X30667755Y-22326904D01*
X30737916Y-22558194D01*
X30851852Y-22771353D01*
X31005184Y-22958187D01*
X31051996Y-22996605D01*
X42720393Y-34665003D01*
X42758812Y-34711816D01*
X42945646Y-34865148D01*
X43144893Y-34971647D01*
X43158805Y-34979083D01*
X43390095Y-35049245D01*
X43510575Y-35061110D01*
X43570361Y-35066999D01*
X43570366Y-35066999D01*
X43630629Y-35072934D01*
X43690892Y-35066999D01*
X64266775Y-35066999D01*
X64247734Y-35107790D01*
X64184189Y-35367027D01*
X64172439Y-35633680D01*
X64212937Y-35897501D01*
X64304125Y-36148353D01*
X64360632Y-36254068D01*
X64596440Y-36315955D01*
X65352395Y-35560000D01*
X65338253Y-35545858D01*
X65517858Y-35366253D01*
X65532000Y-35380395D01*
X65546143Y-35366253D01*
X65725748Y-35545858D01*
X65711605Y-35560000D01*
X65725748Y-35574143D01*
X65546143Y-35753748D01*
X65532000Y-35739605D01*
X64776045Y-36495560D01*
X64837932Y-36731368D01*
X64939978Y-36779003D01*
X64846589Y-36817686D01*
X64609592Y-36976042D01*
X64408042Y-37177592D01*
X64249686Y-37414589D01*
X64140608Y-37677926D01*
X64121184Y-37775576D01*
X62906999Y-38989762D01*
X62860182Y-39028184D01*
X62706850Y-39215019D01*
X62592915Y-39428178D01*
X62522754Y-39659468D01*
X62504999Y-39839734D01*
X62504999Y-39839741D01*
X62499064Y-39900001D01*
X62504999Y-39960261D01*
X62505000Y-46523731D01*
X62499064Y-46584001D01*
X62522754Y-46824534D01*
X62533235Y-46859084D01*
X62592916Y-47055825D01*
X62706851Y-47268984D01*
X62860183Y-47455818D01*
X62906995Y-47494236D01*
X67007752Y-51594994D01*
X67046171Y-51641807D01*
X67233005Y-51795139D01*
X67446164Y-51909074D01*
X67677454Y-51979235D01*
X67857720Y-51996990D01*
X67857727Y-51996990D01*
X67917987Y-52002925D01*
X67978247Y-51996990D01*
X69698038Y-51996990D01*
X69610245Y-52199913D01*
X69585964Y-52305260D01*
X69706622Y-52543000D01*
X71350000Y-52543000D01*
X71350000Y-52523000D01*
X71604000Y-52523000D01*
X71604000Y-52543000D01*
X71624000Y-52543000D01*
X71624000Y-52797000D01*
X71604000Y-52797000D01*
X71604000Y-52817000D01*
X71350000Y-52817000D01*
X71350000Y-52797000D01*
X69706622Y-52797000D01*
X69585964Y-53034740D01*
X69610245Y-53140087D01*
X69730138Y-53417204D01*
X69901790Y-53665606D01*
X70118604Y-53875748D01*
X70129535Y-53882807D01*
X70007450Y-53983000D01*
X67910240Y-53983000D01*
X67044638Y-53117398D01*
X67000319Y-52894590D01*
X66885210Y-52616694D01*
X66718099Y-52366594D01*
X66505406Y-52153901D01*
X66255306Y-51986790D01*
X65977410Y-51871681D01*
X65682396Y-51813000D01*
X65381604Y-51813000D01*
X65086590Y-51871681D01*
X64808694Y-51986790D01*
X64558594Y-52153901D01*
X64345901Y-52366594D01*
X64178790Y-52616694D01*
X64063681Y-52894590D01*
X64005000Y-53189604D01*
X64005000Y-53490396D01*
X64063681Y-53785410D01*
X64178790Y-54063306D01*
X64345901Y-54313406D01*
X64558594Y-54526099D01*
X64808694Y-54693210D01*
X65086590Y-54808319D01*
X65309398Y-54852638D01*
X66491765Y-56035005D01*
X66530183Y-56081817D01*
X66717017Y-56235149D01*
X66930176Y-56349084D01*
X67161466Y-56419245D01*
X67341732Y-56437000D01*
X67341739Y-56437000D01*
X67401999Y-56442935D01*
X67462259Y-56437000D01*
X70007450Y-56437000D01*
X70059845Y-56480000D01*
X70007450Y-56523000D01*
X50898257Y-56523000D01*
X50837997Y-56517065D01*
X50777737Y-56523000D01*
X50777730Y-56523000D01*
X50597464Y-56540755D01*
X50366174Y-56610916D01*
X50153015Y-56724851D01*
X49966181Y-56878183D01*
X49927763Y-56924995D01*
X39119607Y-67733152D01*
X39051590Y-67746681D01*
X38773694Y-67861790D01*
X38523594Y-68028901D01*
X38310901Y-68241594D01*
X38143790Y-68491694D01*
X38028681Y-68769590D01*
X37970000Y-69064604D01*
X37970000Y-69365396D01*
X38028681Y-69660410D01*
X38143790Y-69938306D01*
X38176979Y-69987977D01*
X37591664Y-69987977D01*
X36964000Y-69360314D01*
X36964000Y-69064604D01*
X36905319Y-68769590D01*
X36790210Y-68491694D01*
X36623099Y-68241594D01*
X36410406Y-68028901D01*
X36160306Y-67861790D01*
X35882410Y-67746681D01*
X35587396Y-67688000D01*
X35286604Y-67688000D01*
X34991590Y-67746681D01*
X34713694Y-67861790D01*
X34463594Y-68028901D01*
X34250901Y-68241594D01*
X34167000Y-68367161D01*
X34083099Y-68241594D01*
X33870406Y-68028901D01*
X33620306Y-67861790D01*
X33342410Y-67746681D01*
X33047396Y-67688000D01*
X32746604Y-67688000D01*
X32451590Y-67746681D01*
X32173694Y-67861790D01*
X31923594Y-68028901D01*
X31710901Y-68241594D01*
X31627000Y-68367161D01*
X31584000Y-68302807D01*
X31584000Y-68143890D01*
X31589935Y-68083630D01*
X31584000Y-68023370D01*
X31584000Y-68023362D01*
X31566245Y-67843096D01*
X31519197Y-67688000D01*
X31496084Y-67611805D01*
X31454094Y-67533248D01*
X31382149Y-67398647D01*
X31228817Y-67211813D01*
X31182006Y-67173396D01*
X28993598Y-64984989D01*
X28955176Y-64938172D01*
X28768342Y-64784840D01*
X28555183Y-64670905D01*
X28323893Y-64600744D01*
X28143627Y-64582989D01*
X28143619Y-64582989D01*
X28083359Y-64577054D01*
X28023099Y-64582989D01*
X11026193Y-64582989D01*
X10965930Y-64577054D01*
X10905667Y-64582989D01*
X10905662Y-64582989D01*
X10845876Y-64588878D01*
X10725396Y-64600743D01*
X10494106Y-64670905D01*
X10280947Y-64784840D01*
X10094113Y-64938172D01*
X10055695Y-64984984D01*
X1587996Y-73452684D01*
X1541184Y-73491102D01*
X1502766Y-73537914D01*
X1502765Y-73537915D01*
X1490749Y-73552557D01*
X1387852Y-73677936D01*
X1273916Y-73891095D01*
X1203755Y-74122385D01*
X1186000Y-74302651D01*
X1186000Y-74302659D01*
X1180065Y-74362919D01*
X1186000Y-74423179D01*
X1186000Y-74562810D01*
X1015481Y-74818011D01*
X896604Y-75105006D01*
X836000Y-75409679D01*
X777000Y-75409679D01*
X777000Y-11186037D01*
X7810000Y-11186037D01*
X7810000Y-11673963D01*
X7905190Y-12152514D01*
X8091911Y-12603299D01*
X8362989Y-13008995D01*
X8708005Y-13354011D01*
X9113701Y-13625089D01*
X9564486Y-13811810D01*
X10043037Y-13907000D01*
X10530963Y-13907000D01*
X11009514Y-13811810D01*
X11460299Y-13625089D01*
X11865995Y-13354011D01*
X12211011Y-13008995D01*
X12482089Y-12603299D01*
X12668810Y-12152514D01*
X12764000Y-11673963D01*
X12764000Y-11186037D01*
X12668810Y-10707486D01*
X12482089Y-10256701D01*
X12211011Y-9851005D01*
X11865995Y-9505989D01*
X11460299Y-9234911D01*
X11009514Y-9048190D01*
X10530963Y-8953000D01*
X10043037Y-8953000D01*
X9564486Y-9048190D01*
X9113701Y-9234911D01*
X8708005Y-9505989D01*
X8362989Y-9851005D01*
X8091911Y-10256701D01*
X7905190Y-10707486D01*
X7810000Y-11186037D01*
X777000Y-11186037D01*
X777000Y-4710000D01*
X8748928Y-4710000D01*
X8761188Y-4834482D01*
X8797498Y-4954180D01*
X8856463Y-5064494D01*
X8935815Y-5161185D01*
X9032506Y-5240537D01*
X9142820Y-5299502D01*
X9262518Y-5335812D01*
X9387000Y-5348072D01*
X10001250Y-5345000D01*
X10160000Y-5186250D01*
X10160000Y-3937000D01*
X8910750Y-3937000D01*
X8752000Y-4095750D01*
X8748928Y-4710000D01*
X777000Y-4710000D01*
X777000Y-3762875D01*
X1056624Y-4042499D01*
X1437752Y-4297160D01*
X1861239Y-4472574D01*
X2310811Y-4562000D01*
X2769189Y-4562000D01*
X3218761Y-4472574D01*
X3642248Y-4297160D01*
X4023376Y-4042499D01*
X4347499Y-3718376D01*
X4602160Y-3337248D01*
X4777574Y-2913761D01*
X4778322Y-2910000D01*
X8748928Y-2910000D01*
X8752000Y-3524250D01*
X8910750Y-3683000D01*
X10160000Y-3683000D01*
X10160000Y-2433750D01*
X10414000Y-2433750D01*
X10414000Y-3683000D01*
X10434000Y-3683000D01*
X10434000Y-3937000D01*
X10414000Y-3937000D01*
X10414000Y-5186250D01*
X10572750Y-5345000D01*
X11187000Y-5348072D01*
X11311482Y-5335812D01*
X11431180Y-5299502D01*
X11541494Y-5240537D01*
X11638185Y-5161185D01*
X11717537Y-5064494D01*
X11739493Y-5023418D01*
X11789848Y-5073773D01*
X12056327Y-5251828D01*
X12352422Y-5374475D01*
X12666755Y-5437000D01*
X12987245Y-5437000D01*
X13301578Y-5374475D01*
X13597673Y-5251828D01*
X13864152Y-5073773D01*
X13900925Y-5037000D01*
X15089807Y-5037000D01*
X15278694Y-5163210D01*
X15556590Y-5278319D01*
X15851604Y-5337000D01*
X16152396Y-5337000D01*
X16447410Y-5278319D01*
X16725306Y-5163210D01*
X16975406Y-4996099D01*
X17188099Y-4783406D01*
X17355210Y-4533306D01*
X17470319Y-4255410D01*
X17529000Y-3960396D01*
X17529000Y-3659604D01*
X17470319Y-3364590D01*
X17355210Y-3086694D01*
X17188099Y-2836594D01*
X16975406Y-2623901D01*
X16725306Y-2456790D01*
X16447410Y-2341681D01*
X16152396Y-2283000D01*
X15851604Y-2283000D01*
X15556590Y-2341681D01*
X15278694Y-2456790D01*
X15089807Y-2583000D01*
X13900925Y-2583000D01*
X13864152Y-2546227D01*
X13597673Y-2368172D01*
X13301578Y-2245525D01*
X12987245Y-2183000D01*
X12666755Y-2183000D01*
X12352422Y-2245525D01*
X12056327Y-2368172D01*
X11789848Y-2546227D01*
X11739493Y-2596582D01*
X11717537Y-2555506D01*
X11638185Y-2458815D01*
X11541494Y-2379463D01*
X11431180Y-2320498D01*
X11311482Y-2284188D01*
X11187000Y-2271928D01*
X10572750Y-2275000D01*
X10414000Y-2433750D01*
X10160000Y-2433750D01*
X10001250Y-2275000D01*
X9387000Y-2271928D01*
X9262518Y-2284188D01*
X9142820Y-2320498D01*
X9032506Y-2379463D01*
X8935815Y-2458815D01*
X8856463Y-2555506D01*
X8797498Y-2665820D01*
X8761188Y-2785518D01*
X8748928Y-2910000D01*
X4778322Y-2910000D01*
X4867000Y-2464189D01*
X4867000Y-2005811D01*
X4777574Y-1556239D01*
X4602160Y-1132752D01*
X4364455Y-777000D01*
X99172001Y-777000D01*
X99172001Y-8473630D01*
G37*
%TD.AperFunction*%
D31*
X61429975Y-80464661D02*
X61345892Y-80442616D01*
X61024405Y-80423282D01*
X60705325Y-80467039D01*
X60400912Y-80572205D01*
X60226956Y-80665186D01*
X60131192Y-80929587D01*
X61087000Y-81885395D01*
X61101143Y-81871253D01*
X61280748Y-82050858D01*
X61266605Y-82065000D01*
X61280748Y-82079143D01*
X61101143Y-82258748D01*
X61087000Y-82244605D01*
X60131192Y-83200413D01*
X60226956Y-83464814D01*
X60516571Y-83605704D01*
X60828108Y-83687384D01*
X61149595Y-83706718D01*
X61468675Y-83662961D01*
X61773088Y-83557795D01*
X61947044Y-83464814D01*
X62042807Y-83200415D01*
X62110001Y-83267609D01*
X62110001Y-83900312D01*
X61348243Y-84662071D01*
X61202095Y-84633000D01*
X60861905Y-84633000D01*
X60528253Y-84699368D01*
X60213959Y-84829553D01*
X59931102Y-85018552D01*
X59690552Y-85259102D01*
X59501553Y-85541959D01*
X59371368Y-85856253D01*
X59305000Y-86189905D01*
X59305000Y-86530095D01*
X59371368Y-86863747D01*
X59482897Y-87133001D01*
X58774158Y-87133001D01*
X58872704Y-86930429D01*
X58954384Y-86618892D01*
X58973718Y-86297405D01*
X58929961Y-85978325D01*
X58824795Y-85673912D01*
X58731814Y-85499956D01*
X58467413Y-85404192D01*
X57511605Y-86360000D01*
X57525748Y-86374143D01*
X57346143Y-86553748D01*
X57332000Y-86539605D01*
X57317858Y-86553748D01*
X57138253Y-86374143D01*
X57152395Y-86360000D01*
X56196587Y-85404192D01*
X55932186Y-85499956D01*
X55791296Y-85789571D01*
X55709616Y-86101108D01*
X55690282Y-86422595D01*
X55734039Y-86741675D01*
X55839205Y-87046088D01*
X55885661Y-87133001D01*
X54381103Y-87133001D01*
X54492632Y-86863747D01*
X54559000Y-86530095D01*
X54559000Y-86189905D01*
X54529929Y-86043757D01*
X55238908Y-85334779D01*
X55276187Y-85304185D01*
X55341510Y-85224587D01*
X56376192Y-85224587D01*
X57332000Y-86180395D01*
X58287808Y-85224587D01*
X58192044Y-84960186D01*
X57902429Y-84819296D01*
X57590892Y-84737616D01*
X57269405Y-84718282D01*
X56950325Y-84762039D01*
X56645912Y-84867205D01*
X56471956Y-84960186D01*
X56376192Y-85224587D01*
X55341510Y-85224587D01*
X55398277Y-85155417D01*
X55488998Y-84985690D01*
X55544864Y-84801524D01*
X55559001Y-84657992D01*
X55559001Y-84657990D01*
X55563728Y-84610000D01*
X55559001Y-84562009D01*
X55559001Y-83200413D01*
X56376192Y-83200413D01*
X56471956Y-83464814D01*
X56761571Y-83605704D01*
X57073108Y-83687384D01*
X57394595Y-83706718D01*
X57713675Y-83662961D01*
X58018088Y-83557795D01*
X58192044Y-83464814D01*
X58287808Y-83200413D01*
X57332000Y-82244605D01*
X56376192Y-83200413D01*
X55559001Y-83200413D01*
X55559001Y-82127595D01*
X55690282Y-82127595D01*
X55734039Y-82446675D01*
X55839205Y-82751088D01*
X55932186Y-82925044D01*
X56196587Y-83020808D01*
X57152395Y-82065000D01*
X57511605Y-82065000D01*
X58467413Y-83020808D01*
X58731814Y-82925044D01*
X58872704Y-82635429D01*
X58954384Y-82323892D01*
X58966189Y-82127595D01*
X59445282Y-82127595D01*
X59489039Y-82446675D01*
X59594205Y-82751088D01*
X59687186Y-82925044D01*
X59951587Y-83020808D01*
X60907395Y-82065000D01*
X59951587Y-81109192D01*
X59687186Y-81204956D01*
X59546296Y-81494571D01*
X59464616Y-81806108D01*
X59445282Y-82127595D01*
X58966189Y-82127595D01*
X58973718Y-82002405D01*
X58929961Y-81683325D01*
X58824795Y-81378912D01*
X58731814Y-81204956D01*
X58467413Y-81109192D01*
X57511605Y-82065000D01*
X57152395Y-82065000D01*
X56196587Y-81109192D01*
X55932186Y-81204956D01*
X55791296Y-81494571D01*
X55709616Y-81806108D01*
X55690282Y-82127595D01*
X55559001Y-82127595D01*
X55559001Y-81172993D01*
X55563728Y-81125000D01*
X55544864Y-80933475D01*
X55543685Y-80929587D01*
X56376192Y-80929587D01*
X57332000Y-81885395D01*
X58287808Y-80929587D01*
X58192044Y-80665186D01*
X57902429Y-80524296D01*
X57590892Y-80442616D01*
X57269405Y-80423282D01*
X56950325Y-80467039D01*
X56645912Y-80572205D01*
X56471956Y-80665186D01*
X56376192Y-80929587D01*
X55543685Y-80929587D01*
X55488998Y-80749310D01*
X55425918Y-80631296D01*
X55398277Y-80579583D01*
X55276187Y-80430815D01*
X55238908Y-80400221D01*
X54880699Y-80042012D01*
X61007326Y-80042012D01*
X61429975Y-80464661D01*
%TA.AperFunction,Conductor*%
D32*
G36*
X61429975Y-80464661D02*
G01*
X61345892Y-80442616D01*
X61024405Y-80423282D01*
X60705325Y-80467039D01*
X60400912Y-80572205D01*
X60226956Y-80665186D01*
X60131192Y-80929587D01*
X61087000Y-81885395D01*
X61101143Y-81871253D01*
X61280748Y-82050858D01*
X61266605Y-82065000D01*
X61280748Y-82079143D01*
X61101143Y-82258748D01*
X61087000Y-82244605D01*
X60131192Y-83200413D01*
X60226956Y-83464814D01*
X60516571Y-83605704D01*
X60828108Y-83687384D01*
X61149595Y-83706718D01*
X61468675Y-83662961D01*
X61773088Y-83557795D01*
X61947044Y-83464814D01*
X62042807Y-83200415D01*
X62110001Y-83267609D01*
X62110001Y-83900312D01*
X61348243Y-84662071D01*
X61202095Y-84633000D01*
X60861905Y-84633000D01*
X60528253Y-84699368D01*
X60213959Y-84829553D01*
X59931102Y-85018552D01*
X59690552Y-85259102D01*
X59501553Y-85541959D01*
X59371368Y-85856253D01*
X59305000Y-86189905D01*
X59305000Y-86530095D01*
X59371368Y-86863747D01*
X59482897Y-87133001D01*
X58774158Y-87133001D01*
X58872704Y-86930429D01*
X58954384Y-86618892D01*
X58973718Y-86297405D01*
X58929961Y-85978325D01*
X58824795Y-85673912D01*
X58731814Y-85499956D01*
X58467413Y-85404192D01*
X57511605Y-86360000D01*
X57525748Y-86374143D01*
X57346143Y-86553748D01*
X57332000Y-86539605D01*
X57317858Y-86553748D01*
X57138253Y-86374143D01*
X57152395Y-86360000D01*
X56196587Y-85404192D01*
X55932186Y-85499956D01*
X55791296Y-85789571D01*
X55709616Y-86101108D01*
X55690282Y-86422595D01*
X55734039Y-86741675D01*
X55839205Y-87046088D01*
X55885661Y-87133001D01*
X54381103Y-87133001D01*
X54492632Y-86863747D01*
X54559000Y-86530095D01*
X54559000Y-86189905D01*
X54529929Y-86043757D01*
X55238908Y-85334779D01*
X55276187Y-85304185D01*
X55341510Y-85224587D01*
X56376192Y-85224587D01*
X57332000Y-86180395D01*
X58287808Y-85224587D01*
X58192044Y-84960186D01*
X57902429Y-84819296D01*
X57590892Y-84737616D01*
X57269405Y-84718282D01*
X56950325Y-84762039D01*
X56645912Y-84867205D01*
X56471956Y-84960186D01*
X56376192Y-85224587D01*
X55341510Y-85224587D01*
X55398277Y-85155417D01*
X55488998Y-84985690D01*
X55544864Y-84801524D01*
X55559001Y-84657992D01*
X55559001Y-84657990D01*
X55563728Y-84610000D01*
X55559001Y-84562009D01*
X55559001Y-83200413D01*
X56376192Y-83200413D01*
X56471956Y-83464814D01*
X56761571Y-83605704D01*
X57073108Y-83687384D01*
X57394595Y-83706718D01*
X57713675Y-83662961D01*
X58018088Y-83557795D01*
X58192044Y-83464814D01*
X58287808Y-83200413D01*
X57332000Y-82244605D01*
X56376192Y-83200413D01*
X55559001Y-83200413D01*
X55559001Y-82127595D01*
X55690282Y-82127595D01*
X55734039Y-82446675D01*
X55839205Y-82751088D01*
X55932186Y-82925044D01*
X56196587Y-83020808D01*
X57152395Y-82065000D01*
X57511605Y-82065000D01*
X58467413Y-83020808D01*
X58731814Y-82925044D01*
X58872704Y-82635429D01*
X58954384Y-82323892D01*
X58966189Y-82127595D01*
X59445282Y-82127595D01*
X59489039Y-82446675D01*
X59594205Y-82751088D01*
X59687186Y-82925044D01*
X59951587Y-83020808D01*
X60907395Y-82065000D01*
X59951587Y-81109192D01*
X59687186Y-81204956D01*
X59546296Y-81494571D01*
X59464616Y-81806108D01*
X59445282Y-82127595D01*
X58966189Y-82127595D01*
X58973718Y-82002405D01*
X58929961Y-81683325D01*
X58824795Y-81378912D01*
X58731814Y-81204956D01*
X58467413Y-81109192D01*
X57511605Y-82065000D01*
X57152395Y-82065000D01*
X56196587Y-81109192D01*
X55932186Y-81204956D01*
X55791296Y-81494571D01*
X55709616Y-81806108D01*
X55690282Y-82127595D01*
X55559001Y-82127595D01*
X55559001Y-81172993D01*
X55563728Y-81125000D01*
X55544864Y-80933475D01*
X55543685Y-80929587D01*
X56376192Y-80929587D01*
X57332000Y-81885395D01*
X58287808Y-80929587D01*
X58192044Y-80665186D01*
X57902429Y-80524296D01*
X57590892Y-80442616D01*
X57269405Y-80423282D01*
X56950325Y-80467039D01*
X56645912Y-80572205D01*
X56471956Y-80665186D01*
X56376192Y-80929587D01*
X55543685Y-80929587D01*
X55488998Y-80749310D01*
X55425918Y-80631296D01*
X55398277Y-80579583D01*
X55276187Y-80430815D01*
X55238908Y-80400221D01*
X54880699Y-80042012D01*
X61007326Y-80042012D01*
X61429975Y-80464661D01*
G37*
%TD.AperFunction*%
D31*
X66360001Y-79746760D02*
X66354066Y-79807020D01*
X66360001Y-79867280D01*
X66360001Y-79867287D01*
X66377756Y-80047553D01*
X66447917Y-80278843D01*
X66561852Y-80492002D01*
X66715184Y-80678837D01*
X66762001Y-80717259D01*
X69469156Y-83424415D01*
X69473542Y-83468948D01*
X69566575Y-83775638D01*
X69717654Y-84058286D01*
X69920971Y-84306029D01*
X70059845Y-84420000D01*
X69920971Y-84533971D01*
X69717654Y-84781714D01*
X69566575Y-85064362D01*
X69473542Y-85371052D01*
X69442128Y-85690000D01*
X69473542Y-86008948D01*
X69566575Y-86315638D01*
X69717654Y-86598286D01*
X69920971Y-86846029D01*
X70059845Y-86960000D01*
X70007450Y-87003000D01*
X67037400Y-87003000D01*
X67072704Y-86930429D01*
X67154384Y-86618892D01*
X67173718Y-86297405D01*
X67129961Y-85978325D01*
X67024795Y-85673912D01*
X66931814Y-85499956D01*
X66667413Y-85404192D01*
X65711605Y-86360000D01*
X65725748Y-86374143D01*
X65546143Y-86553748D01*
X65532000Y-86539605D01*
X65517858Y-86553748D01*
X65338253Y-86374143D01*
X65352395Y-86360000D01*
X64396587Y-85404192D01*
X64132186Y-85499956D01*
X63991296Y-85789571D01*
X63909616Y-86101108D01*
X63890282Y-86422595D01*
X63934039Y-86741675D01*
X64039205Y-87046088D01*
X64085661Y-87133001D01*
X62581103Y-87133001D01*
X62692632Y-86863747D01*
X62759000Y-86530095D01*
X62759000Y-86189905D01*
X62729929Y-86043757D01*
X63549099Y-85224587D01*
X64576192Y-85224587D01*
X65532000Y-86180395D01*
X66487808Y-85224587D01*
X66392044Y-84960186D01*
X66102429Y-84819296D01*
X65790892Y-84737616D01*
X65469405Y-84718282D01*
X65150325Y-84762039D01*
X64845912Y-84867205D01*
X64671956Y-84960186D01*
X64576192Y-85224587D01*
X63549099Y-85224587D01*
X63743908Y-85029779D01*
X63781187Y-84999185D01*
X63903277Y-84850417D01*
X63993998Y-84680690D01*
X64049864Y-84496524D01*
X64064001Y-84352992D01*
X64064001Y-84352990D01*
X64068728Y-84305000D01*
X64064001Y-84257009D01*
X64064001Y-82894188D01*
X64245552Y-83165898D01*
X64486102Y-83406448D01*
X64768959Y-83595447D01*
X65083253Y-83725632D01*
X65416905Y-83792000D01*
X65757095Y-83792000D01*
X66090747Y-83725632D01*
X66405041Y-83595447D01*
X66687898Y-83406448D01*
X66928448Y-83165898D01*
X67117447Y-82883041D01*
X67247632Y-82568747D01*
X67314000Y-82235095D01*
X67314000Y-81894905D01*
X67247632Y-81561253D01*
X67117447Y-81246959D01*
X66928448Y-80964102D01*
X66687898Y-80723552D01*
X66405041Y-80534553D01*
X66090747Y-80404368D01*
X65757095Y-80338000D01*
X65416905Y-80338000D01*
X65083253Y-80404368D01*
X64768959Y-80534553D01*
X64486102Y-80723552D01*
X64245552Y-80964102D01*
X64064001Y-81235812D01*
X64064001Y-80787991D01*
X64068728Y-80740000D01*
X64063606Y-80688000D01*
X64049864Y-80548476D01*
X63993998Y-80364310D01*
X63903277Y-80194583D01*
X63781187Y-80045815D01*
X63743908Y-80015221D01*
X62520687Y-78792001D01*
X63526739Y-78792001D01*
X63586999Y-78797936D01*
X63647259Y-78792001D01*
X63647267Y-78792001D01*
X63827533Y-78774246D01*
X64058823Y-78704085D01*
X64271982Y-78590150D01*
X64458816Y-78436818D01*
X64497238Y-78390001D01*
X65595240Y-77292000D01*
X65757095Y-77292000D01*
X66090747Y-77225632D01*
X66360002Y-77114103D01*
X66360001Y-79746760D01*
%TA.AperFunction,Conductor*%
D32*
G36*
X66360001Y-79746760D02*
G01*
X66354066Y-79807020D01*
X66360001Y-79867280D01*
X66360001Y-79867287D01*
X66377756Y-80047553D01*
X66447917Y-80278843D01*
X66561852Y-80492002D01*
X66715184Y-80678837D01*
X66762001Y-80717259D01*
X69469156Y-83424415D01*
X69473542Y-83468948D01*
X69566575Y-83775638D01*
X69717654Y-84058286D01*
X69920971Y-84306029D01*
X70059845Y-84420000D01*
X69920971Y-84533971D01*
X69717654Y-84781714D01*
X69566575Y-85064362D01*
X69473542Y-85371052D01*
X69442128Y-85690000D01*
X69473542Y-86008948D01*
X69566575Y-86315638D01*
X69717654Y-86598286D01*
X69920971Y-86846029D01*
X70059845Y-86960000D01*
X70007450Y-87003000D01*
X67037400Y-87003000D01*
X67072704Y-86930429D01*
X67154384Y-86618892D01*
X67173718Y-86297405D01*
X67129961Y-85978325D01*
X67024795Y-85673912D01*
X66931814Y-85499956D01*
X66667413Y-85404192D01*
X65711605Y-86360000D01*
X65725748Y-86374143D01*
X65546143Y-86553748D01*
X65532000Y-86539605D01*
X65517858Y-86553748D01*
X65338253Y-86374143D01*
X65352395Y-86360000D01*
X64396587Y-85404192D01*
X64132186Y-85499956D01*
X63991296Y-85789571D01*
X63909616Y-86101108D01*
X63890282Y-86422595D01*
X63934039Y-86741675D01*
X64039205Y-87046088D01*
X64085661Y-87133001D01*
X62581103Y-87133001D01*
X62692632Y-86863747D01*
X62759000Y-86530095D01*
X62759000Y-86189905D01*
X62729929Y-86043757D01*
X63549099Y-85224587D01*
X64576192Y-85224587D01*
X65532000Y-86180395D01*
X66487808Y-85224587D01*
X66392044Y-84960186D01*
X66102429Y-84819296D01*
X65790892Y-84737616D01*
X65469405Y-84718282D01*
X65150325Y-84762039D01*
X64845912Y-84867205D01*
X64671956Y-84960186D01*
X64576192Y-85224587D01*
X63549099Y-85224587D01*
X63743908Y-85029779D01*
X63781187Y-84999185D01*
X63903277Y-84850417D01*
X63993998Y-84680690D01*
X64049864Y-84496524D01*
X64064001Y-84352992D01*
X64064001Y-84352990D01*
X64068728Y-84305000D01*
X64064001Y-84257009D01*
X64064001Y-82894188D01*
X64245552Y-83165898D01*
X64486102Y-83406448D01*
X64768959Y-83595447D01*
X65083253Y-83725632D01*
X65416905Y-83792000D01*
X65757095Y-83792000D01*
X66090747Y-83725632D01*
X66405041Y-83595447D01*
X66687898Y-83406448D01*
X66928448Y-83165898D01*
X67117447Y-82883041D01*
X67247632Y-82568747D01*
X67314000Y-82235095D01*
X67314000Y-81894905D01*
X67247632Y-81561253D01*
X67117447Y-81246959D01*
X66928448Y-80964102D01*
X66687898Y-80723552D01*
X66405041Y-80534553D01*
X66090747Y-80404368D01*
X65757095Y-80338000D01*
X65416905Y-80338000D01*
X65083253Y-80404368D01*
X64768959Y-80534553D01*
X64486102Y-80723552D01*
X64245552Y-80964102D01*
X64064001Y-81235812D01*
X64064001Y-80787991D01*
X64068728Y-80740000D01*
X64063606Y-80688000D01*
X64049864Y-80548476D01*
X63993998Y-80364310D01*
X63903277Y-80194583D01*
X63781187Y-80045815D01*
X63743908Y-80015221D01*
X62520687Y-78792001D01*
X63526739Y-78792001D01*
X63586999Y-78797936D01*
X63647259Y-78792001D01*
X63647267Y-78792001D01*
X63827533Y-78774246D01*
X64058823Y-78704085D01*
X64271982Y-78590150D01*
X64458816Y-78436818D01*
X64497238Y-78390001D01*
X65595240Y-77292000D01*
X65757095Y-77292000D01*
X66090747Y-77225632D01*
X66360002Y-77114103D01*
X66360001Y-79746760D01*
G37*
%TD.AperFunction*%
D31*
X73550020Y-53391241D02*
X73550021Y-84181739D01*
X73268760Y-84463000D01*
X72946550Y-84463000D01*
X72894155Y-84420000D01*
X73033029Y-84306029D01*
X73236346Y-84058286D01*
X73387425Y-83775638D01*
X73480458Y-83468948D01*
X73511872Y-83150000D01*
X73480458Y-82831052D01*
X73387425Y-82524362D01*
X73236346Y-82241714D01*
X73033029Y-81993971D01*
X72824465Y-81822807D01*
X72835396Y-81815748D01*
X73052210Y-81605606D01*
X73223862Y-81357204D01*
X73343755Y-81080087D01*
X73368036Y-80974740D01*
X73247378Y-80737000D01*
X71604000Y-80737000D01*
X71604000Y-80757000D01*
X71350000Y-80757000D01*
X71350000Y-80737000D01*
X71330000Y-80737000D01*
X71330000Y-80483000D01*
X71350000Y-80483000D01*
X71350000Y-80463000D01*
X71604000Y-80463000D01*
X71604000Y-80483000D01*
X73247378Y-80483000D01*
X73368036Y-80245260D01*
X73343755Y-80139913D01*
X73223862Y-79862796D01*
X73052210Y-79614394D01*
X72835396Y-79404252D01*
X72824465Y-79397193D01*
X73033029Y-79226029D01*
X73236346Y-78978286D01*
X73387425Y-78695638D01*
X73480458Y-78388948D01*
X73511872Y-78070000D01*
X73480458Y-77751052D01*
X73387425Y-77444362D01*
X73236346Y-77161714D01*
X73033029Y-76913971D01*
X72894155Y-76800000D01*
X73033029Y-76686029D01*
X73236346Y-76438286D01*
X73387425Y-76155638D01*
X73480458Y-75848948D01*
X73511872Y-75530000D01*
X73480458Y-75211052D01*
X73387425Y-74904362D01*
X73236346Y-74621714D01*
X73033029Y-74373971D01*
X72894155Y-74260000D01*
X73033029Y-74146029D01*
X73236346Y-73898286D01*
X73387425Y-73615638D01*
X73480458Y-73308948D01*
X73511872Y-72990000D01*
X73480458Y-72671052D01*
X73387425Y-72364362D01*
X73236346Y-72081714D01*
X73033029Y-71833971D01*
X72894155Y-71720000D01*
X73033029Y-71606029D01*
X73236346Y-71358286D01*
X73387425Y-71075638D01*
X73480458Y-70768948D01*
X73511872Y-70450000D01*
X73480458Y-70131052D01*
X73387425Y-69824362D01*
X73236346Y-69541714D01*
X73033029Y-69293971D01*
X72894155Y-69180000D01*
X73033029Y-69066029D01*
X73236346Y-68818286D01*
X73387425Y-68535638D01*
X73480458Y-68228948D01*
X73511872Y-67910000D01*
X73480458Y-67591052D01*
X73387425Y-67284362D01*
X73236346Y-67001714D01*
X73033029Y-66753971D01*
X72894155Y-66640000D01*
X73033029Y-66526029D01*
X73236346Y-66278286D01*
X73387425Y-65995638D01*
X73480458Y-65688948D01*
X73511872Y-65370000D01*
X73480458Y-65051052D01*
X73387425Y-64744362D01*
X73236346Y-64461714D01*
X73033029Y-64213971D01*
X72894155Y-64100000D01*
X73033029Y-63986029D01*
X73236346Y-63738286D01*
X73387425Y-63455638D01*
X73480458Y-63148948D01*
X73511872Y-62830000D01*
X73480458Y-62511052D01*
X73387425Y-62204362D01*
X73236346Y-61921714D01*
X73033029Y-61673971D01*
X72894155Y-61560000D01*
X73033029Y-61446029D01*
X73236346Y-61198286D01*
X73387425Y-60915638D01*
X73480458Y-60608948D01*
X73511872Y-60290000D01*
X73480458Y-59971052D01*
X73387425Y-59664362D01*
X73236346Y-59381714D01*
X73033029Y-59133971D01*
X72894155Y-59020000D01*
X73033029Y-58906029D01*
X73236346Y-58658286D01*
X73387425Y-58375638D01*
X73480458Y-58068948D01*
X73511872Y-57750000D01*
X73480458Y-57431052D01*
X73387425Y-57124362D01*
X73236346Y-56841714D01*
X73033029Y-56593971D01*
X72894155Y-56480000D01*
X73033029Y-56366029D01*
X73236346Y-56118286D01*
X73387425Y-55835638D01*
X73480458Y-55528948D01*
X73511872Y-55210000D01*
X73480458Y-54891052D01*
X73387425Y-54584362D01*
X73236346Y-54301714D01*
X73033029Y-54053971D01*
X72824465Y-53882807D01*
X72835396Y-53875748D01*
X73052210Y-53665606D01*
X73223862Y-53417204D01*
X73330199Y-53171420D01*
X73550020Y-53391241D01*
%TA.AperFunction,Conductor*%
D32*
G36*
X73550020Y-53391241D02*
G01*
X73550021Y-84181739D01*
X73268760Y-84463000D01*
X72946550Y-84463000D01*
X72894155Y-84420000D01*
X73033029Y-84306029D01*
X73236346Y-84058286D01*
X73387425Y-83775638D01*
X73480458Y-83468948D01*
X73511872Y-83150000D01*
X73480458Y-82831052D01*
X73387425Y-82524362D01*
X73236346Y-82241714D01*
X73033029Y-81993971D01*
X72824465Y-81822807D01*
X72835396Y-81815748D01*
X73052210Y-81605606D01*
X73223862Y-81357204D01*
X73343755Y-81080087D01*
X73368036Y-80974740D01*
X73247378Y-80737000D01*
X71604000Y-80737000D01*
X71604000Y-80757000D01*
X71350000Y-80757000D01*
X71350000Y-80737000D01*
X71330000Y-80737000D01*
X71330000Y-80483000D01*
X71350000Y-80483000D01*
X71350000Y-80463000D01*
X71604000Y-80463000D01*
X71604000Y-80483000D01*
X73247378Y-80483000D01*
X73368036Y-80245260D01*
X73343755Y-80139913D01*
X73223862Y-79862796D01*
X73052210Y-79614394D01*
X72835396Y-79404252D01*
X72824465Y-79397193D01*
X73033029Y-79226029D01*
X73236346Y-78978286D01*
X73387425Y-78695638D01*
X73480458Y-78388948D01*
X73511872Y-78070000D01*
X73480458Y-77751052D01*
X73387425Y-77444362D01*
X73236346Y-77161714D01*
X73033029Y-76913971D01*
X72894155Y-76800000D01*
X73033029Y-76686029D01*
X73236346Y-76438286D01*
X73387425Y-76155638D01*
X73480458Y-75848948D01*
X73511872Y-75530000D01*
X73480458Y-75211052D01*
X73387425Y-74904362D01*
X73236346Y-74621714D01*
X73033029Y-74373971D01*
X72894155Y-74260000D01*
X73033029Y-74146029D01*
X73236346Y-73898286D01*
X73387425Y-73615638D01*
X73480458Y-73308948D01*
X73511872Y-72990000D01*
X73480458Y-72671052D01*
X73387425Y-72364362D01*
X73236346Y-72081714D01*
X73033029Y-71833971D01*
X72894155Y-71720000D01*
X73033029Y-71606029D01*
X73236346Y-71358286D01*
X73387425Y-71075638D01*
X73480458Y-70768948D01*
X73511872Y-70450000D01*
X73480458Y-70131052D01*
X73387425Y-69824362D01*
X73236346Y-69541714D01*
X73033029Y-69293971D01*
X72894155Y-69180000D01*
X73033029Y-69066029D01*
X73236346Y-68818286D01*
X73387425Y-68535638D01*
X73480458Y-68228948D01*
X73511872Y-67910000D01*
X73480458Y-67591052D01*
X73387425Y-67284362D01*
X73236346Y-67001714D01*
X73033029Y-66753971D01*
X72894155Y-66640000D01*
X73033029Y-66526029D01*
X73236346Y-66278286D01*
X73387425Y-65995638D01*
X73480458Y-65688948D01*
X73511872Y-65370000D01*
X73480458Y-65051052D01*
X73387425Y-64744362D01*
X73236346Y-64461714D01*
X73033029Y-64213971D01*
X72894155Y-64100000D01*
X73033029Y-63986029D01*
X73236346Y-63738286D01*
X73387425Y-63455638D01*
X73480458Y-63148948D01*
X73511872Y-62830000D01*
X73480458Y-62511052D01*
X73387425Y-62204362D01*
X73236346Y-61921714D01*
X73033029Y-61673971D01*
X72894155Y-61560000D01*
X73033029Y-61446029D01*
X73236346Y-61198286D01*
X73387425Y-60915638D01*
X73480458Y-60608948D01*
X73511872Y-60290000D01*
X73480458Y-59971052D01*
X73387425Y-59664362D01*
X73236346Y-59381714D01*
X73033029Y-59133971D01*
X72894155Y-59020000D01*
X73033029Y-58906029D01*
X73236346Y-58658286D01*
X73387425Y-58375638D01*
X73480458Y-58068948D01*
X73511872Y-57750000D01*
X73480458Y-57431052D01*
X73387425Y-57124362D01*
X73236346Y-56841714D01*
X73033029Y-56593971D01*
X72894155Y-56480000D01*
X73033029Y-56366029D01*
X73236346Y-56118286D01*
X73387425Y-55835638D01*
X73480458Y-55528948D01*
X73511872Y-55210000D01*
X73480458Y-54891052D01*
X73387425Y-54584362D01*
X73236346Y-54301714D01*
X73033029Y-54053971D01*
X72824465Y-53882807D01*
X72835396Y-53875748D01*
X73052210Y-53665606D01*
X73223862Y-53417204D01*
X73330199Y-53171420D01*
X73550020Y-53391241D01*
G37*
%TD.AperFunction*%
D31*
X56090901Y-70188406D02*
X56303594Y-70401099D01*
X56553694Y-70568210D01*
X56831590Y-70683319D01*
X57126604Y-70742000D01*
X57427396Y-70742000D01*
X57722410Y-70683319D01*
X58000306Y-70568210D01*
X58189193Y-70442000D01*
X58728761Y-70442000D01*
X63851760Y-75565000D01*
X63078760Y-76338001D01*
X62529158Y-76338001D01*
X62627704Y-76135429D01*
X62709384Y-75823892D01*
X62728718Y-75502405D01*
X62684961Y-75183325D01*
X62579795Y-74878912D01*
X62486814Y-74704956D01*
X62222413Y-74609192D01*
X61266605Y-75565000D01*
X61280748Y-75579143D01*
X61101143Y-75758748D01*
X61087000Y-75744605D01*
X61072858Y-75758748D01*
X60893253Y-75579143D01*
X60907395Y-75565000D01*
X59951587Y-74609192D01*
X59687186Y-74704956D01*
X59546296Y-74994571D01*
X59464616Y-75306108D01*
X59445282Y-75627595D01*
X59489039Y-75946675D01*
X59594205Y-76251088D01*
X59640661Y-76338001D01*
X58774158Y-76338001D01*
X58872704Y-76135429D01*
X58954384Y-75823892D01*
X58973718Y-75502405D01*
X58929961Y-75183325D01*
X58824795Y-74878912D01*
X58731814Y-74704956D01*
X58467413Y-74609192D01*
X57511605Y-75565000D01*
X57525748Y-75579143D01*
X57346143Y-75758748D01*
X57332000Y-75744605D01*
X57317858Y-75758748D01*
X57138253Y-75579143D01*
X57152395Y-75565000D01*
X56196587Y-74609192D01*
X55932186Y-74704956D01*
X55791296Y-74994571D01*
X55709616Y-75306108D01*
X55690282Y-75627595D01*
X55734039Y-75946675D01*
X55839205Y-76251088D01*
X55885661Y-76338001D01*
X54381103Y-76338001D01*
X54492632Y-76068747D01*
X54559000Y-75735095D01*
X54559000Y-75394905D01*
X54492632Y-75061253D01*
X54362447Y-74746959D01*
X54173448Y-74464102D01*
X54138933Y-74429587D01*
X56376192Y-74429587D01*
X57332000Y-75385395D01*
X58287808Y-74429587D01*
X60131192Y-74429587D01*
X61087000Y-75385395D01*
X62042808Y-74429587D01*
X61947044Y-74165186D01*
X61657429Y-74024296D01*
X61345892Y-73942616D01*
X61024405Y-73923282D01*
X60705325Y-73967039D01*
X60400912Y-74072205D01*
X60226956Y-74165186D01*
X60131192Y-74429587D01*
X58287808Y-74429587D01*
X58192044Y-74165186D01*
X57902429Y-74024296D01*
X57590892Y-73942616D01*
X57269405Y-73923282D01*
X56950325Y-73967039D01*
X56645912Y-74072205D01*
X56471956Y-74165186D01*
X56376192Y-74429587D01*
X54138933Y-74429587D01*
X54059000Y-74349654D01*
X54059000Y-72759609D01*
X55562006Y-71256604D01*
X55608817Y-71218187D01*
X55648996Y-71169230D01*
X55695728Y-71112286D01*
X55762149Y-71031353D01*
X55876084Y-70818194D01*
X55881046Y-70801836D01*
X55946246Y-70586904D01*
X55960517Y-70442000D01*
X55964000Y-70406638D01*
X55964000Y-70406633D01*
X55969935Y-70346370D01*
X55964000Y-70286107D01*
X55964000Y-70127193D01*
X56007000Y-70062839D01*
X56090901Y-70188406D01*
%TA.AperFunction,Conductor*%
D32*
G36*
X56090901Y-70188406D02*
G01*
X56303594Y-70401099D01*
X56553694Y-70568210D01*
X56831590Y-70683319D01*
X57126604Y-70742000D01*
X57427396Y-70742000D01*
X57722410Y-70683319D01*
X58000306Y-70568210D01*
X58189193Y-70442000D01*
X58728761Y-70442000D01*
X63851760Y-75565000D01*
X63078760Y-76338001D01*
X62529158Y-76338001D01*
X62627704Y-76135429D01*
X62709384Y-75823892D01*
X62728718Y-75502405D01*
X62684961Y-75183325D01*
X62579795Y-74878912D01*
X62486814Y-74704956D01*
X62222413Y-74609192D01*
X61266605Y-75565000D01*
X61280748Y-75579143D01*
X61101143Y-75758748D01*
X61087000Y-75744605D01*
X61072858Y-75758748D01*
X60893253Y-75579143D01*
X60907395Y-75565000D01*
X59951587Y-74609192D01*
X59687186Y-74704956D01*
X59546296Y-74994571D01*
X59464616Y-75306108D01*
X59445282Y-75627595D01*
X59489039Y-75946675D01*
X59594205Y-76251088D01*
X59640661Y-76338001D01*
X58774158Y-76338001D01*
X58872704Y-76135429D01*
X58954384Y-75823892D01*
X58973718Y-75502405D01*
X58929961Y-75183325D01*
X58824795Y-74878912D01*
X58731814Y-74704956D01*
X58467413Y-74609192D01*
X57511605Y-75565000D01*
X57525748Y-75579143D01*
X57346143Y-75758748D01*
X57332000Y-75744605D01*
X57317858Y-75758748D01*
X57138253Y-75579143D01*
X57152395Y-75565000D01*
X56196587Y-74609192D01*
X55932186Y-74704956D01*
X55791296Y-74994571D01*
X55709616Y-75306108D01*
X55690282Y-75627595D01*
X55734039Y-75946675D01*
X55839205Y-76251088D01*
X55885661Y-76338001D01*
X54381103Y-76338001D01*
X54492632Y-76068747D01*
X54559000Y-75735095D01*
X54559000Y-75394905D01*
X54492632Y-75061253D01*
X54362447Y-74746959D01*
X54173448Y-74464102D01*
X54138933Y-74429587D01*
X56376192Y-74429587D01*
X57332000Y-75385395D01*
X58287808Y-74429587D01*
X60131192Y-74429587D01*
X61087000Y-75385395D01*
X62042808Y-74429587D01*
X61947044Y-74165186D01*
X61657429Y-74024296D01*
X61345892Y-73942616D01*
X61024405Y-73923282D01*
X60705325Y-73967039D01*
X60400912Y-74072205D01*
X60226956Y-74165186D01*
X60131192Y-74429587D01*
X58287808Y-74429587D01*
X58192044Y-74165186D01*
X57902429Y-74024296D01*
X57590892Y-73942616D01*
X57269405Y-73923282D01*
X56950325Y-73967039D01*
X56645912Y-74072205D01*
X56471956Y-74165186D01*
X56376192Y-74429587D01*
X54138933Y-74429587D01*
X54059000Y-74349654D01*
X54059000Y-72759609D01*
X55562006Y-71256604D01*
X55608817Y-71218187D01*
X55648996Y-71169230D01*
X55695728Y-71112286D01*
X55762149Y-71031353D01*
X55876084Y-70818194D01*
X55881046Y-70801836D01*
X55946246Y-70586904D01*
X55960517Y-70442000D01*
X55964000Y-70406638D01*
X55964000Y-70406633D01*
X55969935Y-70346370D01*
X55964000Y-70286107D01*
X55964000Y-70127193D01*
X56007000Y-70062839D01*
X56090901Y-70188406D01*
G37*
%TD.AperFunction*%
D31*
X20324000Y-69088000D02*
X20344000Y-69088000D01*
X20344000Y-69342000D01*
X20324000Y-69342000D01*
X20324000Y-69362000D01*
X20070000Y-69362000D01*
X20070000Y-69342000D01*
X20050000Y-69342000D01*
X20050000Y-69088000D01*
X20070000Y-69088000D01*
X20070000Y-69068000D01*
X20324000Y-69068000D01*
X20324000Y-69088000D01*
%TA.AperFunction,Conductor*%
D32*
G36*
X20324000Y-69088000D02*
G01*
X20344000Y-69088000D01*
X20344000Y-69342000D01*
X20324000Y-69342000D01*
X20324000Y-69362000D01*
X20070000Y-69362000D01*
X20070000Y-69342000D01*
X20050000Y-69342000D01*
X20050000Y-69088000D01*
X20070000Y-69088000D01*
X20070000Y-69068000D01*
X20324000Y-69068000D01*
X20324000Y-69088000D01*
G37*
%TD.AperFunction*%
%TD*%
M02*
