G04 EAGLE Gerber RS-274X export*
G75*
%MOMM*%
%FSLAX34Y34*%
%LPD*%
%INBottom Copper*%
%IPPOS*%
%AMOC8*
5,1,8,0,0,1.08239X$1,22.5*%
G01*
%ADD10P,1.429621X8X112.500000*%
%ADD11C,1.320800*%
%ADD12P,1.429621X8X22.500000*%
%ADD13C,1.930400*%
%ADD14C,3.556000*%
%ADD15P,1.415766X8X292.500000*%
%ADD16P,1.429621X8X202.500000*%
%ADD17C,1.524000*%
%ADD18P,1.429621X8X292.500000*%
%ADD19P,1.649562X8X292.500000*%
%ADD20P,1.649562X8X112.500000*%
%ADD21C,4.000000*%
%ADD22C,1.981200*%
%ADD23C,0.889000*%
%ADD24C,3.810000*%
%ADD25C,0.756400*%
%ADD26C,0.914400*%
%ADD27C,2.540000*%
%ADD28C,3.302000*%

G36*
X652245Y-6346D02*
X652245Y-6346D01*
X652279Y-6348D01*
X652468Y-6326D01*
X652659Y-6309D01*
X652692Y-6300D01*
X652726Y-6296D01*
X652909Y-6241D01*
X653093Y-6191D01*
X653124Y-6176D01*
X653157Y-6166D01*
X653328Y-6079D01*
X653500Y-5997D01*
X653528Y-5977D01*
X653559Y-5962D01*
X653711Y-5846D01*
X653866Y-5735D01*
X653890Y-5710D01*
X653917Y-5690D01*
X654046Y-5550D01*
X654180Y-5413D01*
X654199Y-5384D01*
X654223Y-5358D01*
X654325Y-5197D01*
X654432Y-5040D01*
X654446Y-5008D01*
X654464Y-4979D01*
X654537Y-4802D01*
X654614Y-4628D01*
X654622Y-4594D01*
X654635Y-4562D01*
X654675Y-4375D01*
X654721Y-4190D01*
X654723Y-4156D01*
X654730Y-4122D01*
X654749Y-3810D01*
X654749Y853810D01*
X654746Y853845D01*
X654748Y853879D01*
X654726Y854068D01*
X654709Y854259D01*
X654700Y854292D01*
X654696Y854326D01*
X654641Y854509D01*
X654591Y854693D01*
X654576Y854724D01*
X654566Y854757D01*
X654479Y854928D01*
X654397Y855100D01*
X654377Y855128D01*
X654362Y855159D01*
X654246Y855311D01*
X654135Y855466D01*
X654110Y855490D01*
X654090Y855517D01*
X653950Y855646D01*
X653813Y855780D01*
X653784Y855799D01*
X653758Y855823D01*
X653597Y855925D01*
X653440Y856032D01*
X653408Y856046D01*
X653379Y856064D01*
X653202Y856137D01*
X653028Y856214D01*
X652994Y856222D01*
X652962Y856235D01*
X652775Y856275D01*
X652590Y856321D01*
X652556Y856323D01*
X652522Y856330D01*
X652210Y856349D01*
X525615Y856349D01*
X525486Y856338D01*
X525355Y856336D01*
X525262Y856318D01*
X525166Y856309D01*
X525041Y856275D01*
X524913Y856250D01*
X524824Y856216D01*
X524732Y856191D01*
X524615Y856135D01*
X524493Y856088D01*
X524412Y856038D01*
X524325Y855997D01*
X524220Y855922D01*
X524109Y855854D01*
X524037Y855791D01*
X523959Y855735D01*
X523868Y855642D01*
X523771Y855556D01*
X523712Y855481D01*
X523645Y855413D01*
X523572Y855305D01*
X523492Y855203D01*
X523447Y855119D01*
X523393Y855040D01*
X523341Y854921D01*
X523279Y854806D01*
X523250Y854715D01*
X523211Y854628D01*
X523180Y854501D01*
X523140Y854378D01*
X523127Y854283D01*
X523104Y854190D01*
X523096Y854061D01*
X523079Y853932D01*
X523082Y853836D01*
X523077Y853741D01*
X523092Y853612D01*
X523097Y853482D01*
X523118Y853389D01*
X523129Y853294D01*
X523166Y853169D01*
X523195Y853042D01*
X523231Y852954D01*
X523259Y852863D01*
X523318Y852747D01*
X523368Y852627D01*
X523420Y852547D01*
X523463Y852461D01*
X523542Y852358D01*
X523612Y852249D01*
X523699Y852151D01*
X523735Y852103D01*
X523768Y852072D01*
X523819Y852014D01*
X532573Y843261D01*
X539004Y836830D01*
X542291Y828895D01*
X542291Y792142D01*
X542301Y792026D01*
X542301Y791909D01*
X542321Y791802D01*
X542331Y791694D01*
X542361Y791581D01*
X542382Y791466D01*
X542433Y791320D01*
X542449Y791259D01*
X542465Y791227D01*
X542484Y791171D01*
X543241Y789344D01*
X543241Y780376D01*
X539809Y772092D01*
X533468Y765751D01*
X525184Y762319D01*
X516216Y762319D01*
X507932Y765751D01*
X501591Y772092D01*
X498159Y780376D01*
X498159Y789344D01*
X498916Y791171D01*
X498951Y791282D01*
X498995Y791390D01*
X499018Y791496D01*
X499051Y791600D01*
X499065Y791716D01*
X499090Y791830D01*
X499100Y791984D01*
X499107Y792047D01*
X499106Y792083D01*
X499109Y792142D01*
X499109Y813170D01*
X499106Y813205D01*
X499108Y813239D01*
X499086Y813428D01*
X499069Y813619D01*
X499060Y813652D01*
X499056Y813686D01*
X499001Y813869D01*
X498951Y814053D01*
X498936Y814084D01*
X498926Y814117D01*
X498839Y814288D01*
X498757Y814460D01*
X498737Y814488D01*
X498722Y814519D01*
X498606Y814671D01*
X498495Y814826D01*
X498470Y814850D01*
X498450Y814877D01*
X498310Y815006D01*
X498173Y815140D01*
X498144Y815159D01*
X498118Y815183D01*
X497957Y815285D01*
X497800Y815392D01*
X497768Y815406D01*
X497739Y815424D01*
X497562Y815497D01*
X497388Y815574D01*
X497354Y815582D01*
X497322Y815595D01*
X497135Y815635D01*
X496950Y815681D01*
X496916Y815683D01*
X496882Y815690D01*
X496570Y815709D01*
X339725Y815709D01*
X339690Y815706D01*
X339656Y815708D01*
X339467Y815686D01*
X339276Y815669D01*
X339243Y815660D01*
X339209Y815656D01*
X339026Y815601D01*
X338842Y815551D01*
X338811Y815536D01*
X338778Y815526D01*
X338607Y815439D01*
X338435Y815357D01*
X338407Y815337D01*
X338376Y815322D01*
X338224Y815206D01*
X338069Y815095D01*
X338045Y815070D01*
X338018Y815050D01*
X337889Y814910D01*
X337755Y814773D01*
X337736Y814744D01*
X337712Y814718D01*
X337610Y814557D01*
X337503Y814400D01*
X337489Y814368D01*
X337471Y814339D01*
X337398Y814162D01*
X337321Y813988D01*
X337313Y813954D01*
X337300Y813922D01*
X337260Y813735D01*
X337214Y813550D01*
X337212Y813516D01*
X337205Y813482D01*
X337186Y813170D01*
X337186Y803456D01*
X337200Y803292D01*
X337207Y803127D01*
X337220Y803068D01*
X337226Y803007D01*
X337269Y802848D01*
X337305Y802688D01*
X337328Y802631D01*
X337344Y802573D01*
X337415Y802425D01*
X337478Y802272D01*
X337511Y802221D01*
X337538Y802166D01*
X337633Y802033D01*
X337723Y801894D01*
X337774Y801836D01*
X337800Y801800D01*
X337843Y801757D01*
X337929Y801660D01*
X338814Y800776D01*
X340361Y797041D01*
X340361Y777759D01*
X338814Y774024D01*
X335956Y771166D01*
X332221Y769619D01*
X328179Y769619D01*
X324444Y771166D01*
X321586Y774024D01*
X320039Y777759D01*
X320039Y797041D01*
X321586Y800776D01*
X322471Y801660D01*
X322576Y801786D01*
X322688Y801907D01*
X322720Y801959D01*
X322759Y802005D01*
X322841Y802148D01*
X322929Y802287D01*
X322953Y802343D01*
X322983Y802396D01*
X323038Y802551D01*
X323100Y802703D01*
X323113Y802763D01*
X323134Y802821D01*
X323160Y802983D01*
X323195Y803144D01*
X323200Y803221D01*
X323207Y803265D01*
X323206Y803326D01*
X323214Y803456D01*
X323214Y813170D01*
X323211Y813205D01*
X323213Y813239D01*
X323191Y813428D01*
X323174Y813619D01*
X323165Y813652D01*
X323161Y813686D01*
X323106Y813869D01*
X323056Y814053D01*
X323041Y814084D01*
X323031Y814117D01*
X322944Y814288D01*
X322862Y814460D01*
X322842Y814488D01*
X322827Y814519D01*
X322711Y814671D01*
X322600Y814826D01*
X322575Y814850D01*
X322555Y814877D01*
X322415Y815006D01*
X322278Y815140D01*
X322249Y815159D01*
X322223Y815183D01*
X322062Y815285D01*
X321905Y815392D01*
X321873Y815406D01*
X321844Y815424D01*
X321667Y815497D01*
X321493Y815574D01*
X321459Y815582D01*
X321427Y815595D01*
X321240Y815635D01*
X321055Y815681D01*
X321021Y815683D01*
X320987Y815690D01*
X320675Y815709D01*
X163830Y815709D01*
X163795Y815706D01*
X163761Y815708D01*
X163572Y815686D01*
X163381Y815669D01*
X163348Y815660D01*
X163314Y815656D01*
X163131Y815601D01*
X162947Y815551D01*
X162916Y815536D01*
X162883Y815526D01*
X162712Y815439D01*
X162540Y815357D01*
X162512Y815337D01*
X162481Y815322D01*
X162329Y815206D01*
X162174Y815095D01*
X162150Y815070D01*
X162123Y815050D01*
X161994Y814910D01*
X161860Y814773D01*
X161841Y814744D01*
X161817Y814718D01*
X161715Y814557D01*
X161608Y814400D01*
X161594Y814368D01*
X161576Y814339D01*
X161503Y814162D01*
X161426Y813988D01*
X161418Y813954D01*
X161405Y813922D01*
X161365Y813735D01*
X161319Y813550D01*
X161317Y813516D01*
X161310Y813482D01*
X161291Y813170D01*
X161291Y792142D01*
X161301Y792026D01*
X161301Y791909D01*
X161321Y791802D01*
X161331Y791694D01*
X161361Y791581D01*
X161382Y791466D01*
X161433Y791320D01*
X161449Y791259D01*
X161465Y791227D01*
X161484Y791171D01*
X162241Y789344D01*
X162241Y780376D01*
X158809Y772092D01*
X152468Y765751D01*
X144184Y762319D01*
X135216Y762319D01*
X126932Y765751D01*
X120591Y772092D01*
X117159Y780376D01*
X117159Y789344D01*
X117916Y791171D01*
X117951Y791282D01*
X117995Y791390D01*
X118018Y791496D01*
X118051Y791600D01*
X118065Y791716D01*
X118090Y791830D01*
X118100Y791984D01*
X118107Y792047D01*
X118106Y792083D01*
X118109Y792142D01*
X118109Y813170D01*
X118106Y813205D01*
X118108Y813239D01*
X118086Y813428D01*
X118069Y813619D01*
X118060Y813652D01*
X118056Y813686D01*
X118001Y813869D01*
X117951Y814053D01*
X117936Y814084D01*
X117926Y814117D01*
X117839Y814288D01*
X117757Y814460D01*
X117737Y814488D01*
X117722Y814519D01*
X117606Y814671D01*
X117495Y814826D01*
X117470Y814850D01*
X117450Y814877D01*
X117310Y815006D01*
X117173Y815140D01*
X117144Y815159D01*
X117118Y815183D01*
X116957Y815285D01*
X116800Y815392D01*
X116768Y815406D01*
X116739Y815424D01*
X116562Y815497D01*
X116388Y815574D01*
X116354Y815582D01*
X116322Y815595D01*
X116135Y815635D01*
X115950Y815681D01*
X115916Y815683D01*
X115882Y815690D01*
X115570Y815709D01*
X49530Y815709D01*
X49495Y815706D01*
X49461Y815708D01*
X49272Y815686D01*
X49081Y815669D01*
X49048Y815660D01*
X49014Y815656D01*
X48831Y815601D01*
X48647Y815551D01*
X48616Y815536D01*
X48583Y815526D01*
X48412Y815439D01*
X48240Y815357D01*
X48212Y815337D01*
X48181Y815322D01*
X48029Y815206D01*
X47874Y815095D01*
X47850Y815070D01*
X47823Y815050D01*
X47694Y814910D01*
X47560Y814773D01*
X47541Y814744D01*
X47517Y814718D01*
X47415Y814557D01*
X47308Y814400D01*
X47294Y814368D01*
X47276Y814339D01*
X47203Y814162D01*
X47126Y813988D01*
X47118Y813954D01*
X47105Y813922D01*
X47065Y813735D01*
X47019Y813550D01*
X47017Y813516D01*
X47010Y813482D01*
X46991Y813170D01*
X46991Y733895D01*
X47005Y733731D01*
X47012Y733567D01*
X47025Y733507D01*
X47031Y733446D01*
X47074Y733288D01*
X47110Y733127D01*
X47133Y733071D01*
X47149Y733012D01*
X47220Y732864D01*
X47283Y732712D01*
X47316Y732660D01*
X47343Y732605D01*
X47438Y732472D01*
X47528Y732334D01*
X47579Y732276D01*
X47605Y732239D01*
X47648Y732197D01*
X47734Y732099D01*
X49973Y729861D01*
X56404Y723430D01*
X59691Y715495D01*
X59691Y656105D01*
X56404Y648170D01*
X50330Y642096D01*
X42395Y638809D01*
X33805Y638809D01*
X25870Y642096D01*
X19796Y648170D01*
X16509Y656105D01*
X16509Y701205D01*
X16495Y701369D01*
X16488Y701533D01*
X16475Y701593D01*
X16469Y701654D01*
X16426Y701812D01*
X16390Y701973D01*
X16367Y702029D01*
X16351Y702088D01*
X16280Y702236D01*
X16217Y702388D01*
X16184Y702440D01*
X16157Y702495D01*
X16062Y702628D01*
X15972Y702766D01*
X15921Y702824D01*
X15895Y702861D01*
X15852Y702903D01*
X15766Y703001D01*
X13527Y705239D01*
X10686Y708081D01*
X10586Y708164D01*
X10493Y708255D01*
X10413Y708308D01*
X10340Y708369D01*
X10227Y708434D01*
X10120Y708507D01*
X10032Y708545D01*
X9949Y708593D01*
X9827Y708636D01*
X9708Y708689D01*
X9615Y708712D01*
X9525Y708744D01*
X9397Y708765D01*
X9270Y708796D01*
X9175Y708802D01*
X9081Y708817D01*
X8951Y708815D01*
X8821Y708823D01*
X8726Y708812D01*
X8630Y708811D01*
X8503Y708786D01*
X8374Y708771D01*
X8282Y708744D01*
X8188Y708725D01*
X8067Y708679D01*
X7943Y708641D01*
X7857Y708598D01*
X7768Y708563D01*
X7657Y708496D01*
X7541Y708437D01*
X7465Y708379D01*
X7384Y708329D01*
X7286Y708243D01*
X7183Y708165D01*
X7118Y708094D01*
X7046Y708031D01*
X6966Y707929D01*
X6877Y707834D01*
X6826Y707753D01*
X6767Y707678D01*
X6706Y707563D01*
X6636Y707454D01*
X6599Y707365D01*
X6554Y707281D01*
X6514Y707157D01*
X6465Y707037D01*
X6445Y706944D01*
X6415Y706853D01*
X6397Y706724D01*
X6370Y706597D01*
X6362Y706467D01*
X6354Y706407D01*
X6355Y706362D01*
X6351Y706285D01*
X6351Y106515D01*
X6362Y106385D01*
X6364Y106255D01*
X6382Y106162D01*
X6391Y106066D01*
X6425Y105941D01*
X6450Y105813D01*
X6484Y105724D01*
X6509Y105632D01*
X6565Y105515D01*
X6612Y105393D01*
X6662Y105312D01*
X6703Y105225D01*
X6778Y105120D01*
X6846Y105009D01*
X6909Y104937D01*
X6965Y104859D01*
X7058Y104769D01*
X7144Y104671D01*
X7219Y104612D01*
X7287Y104545D01*
X7395Y104473D01*
X7497Y104392D01*
X7581Y104347D01*
X7660Y104293D01*
X7779Y104241D01*
X7894Y104179D01*
X7985Y104150D01*
X8072Y104111D01*
X8199Y104080D01*
X8322Y104040D01*
X8417Y104027D01*
X8510Y104004D01*
X8639Y103996D01*
X8768Y103979D01*
X8864Y103982D01*
X8959Y103977D01*
X9088Y103992D01*
X9218Y103997D01*
X9311Y104018D01*
X9406Y104029D01*
X9531Y104066D01*
X9658Y104095D01*
X9746Y104131D01*
X9837Y104159D01*
X9953Y104218D01*
X10073Y104268D01*
X10153Y104320D01*
X10239Y104363D01*
X10342Y104442D01*
X10451Y104512D01*
X10549Y104599D01*
X10597Y104635D01*
X10628Y104668D01*
X10686Y104719D01*
X13527Y107561D01*
X15766Y109799D01*
X15871Y109926D01*
X15983Y110047D01*
X16015Y110098D01*
X16054Y110145D01*
X16136Y110288D01*
X16224Y110426D01*
X16248Y110483D01*
X16278Y110536D01*
X16333Y110691D01*
X16395Y110843D01*
X16408Y110903D01*
X16429Y110960D01*
X16455Y111122D01*
X16490Y111283D01*
X16495Y111360D01*
X16502Y111404D01*
X16501Y111465D01*
X16509Y111595D01*
X16509Y194795D01*
X19796Y202730D01*
X25870Y208804D01*
X33805Y212091D01*
X42395Y212091D01*
X50330Y208804D01*
X56404Y202730D01*
X59691Y194795D01*
X59691Y187325D01*
X59694Y187290D01*
X59692Y187256D01*
X59714Y187067D01*
X59731Y186876D01*
X59740Y186843D01*
X59744Y186809D01*
X59799Y186626D01*
X59849Y186442D01*
X59864Y186411D01*
X59874Y186378D01*
X59961Y186207D01*
X60043Y186035D01*
X60063Y186007D01*
X60078Y185976D01*
X60194Y185824D01*
X60305Y185669D01*
X60330Y185645D01*
X60350Y185618D01*
X60490Y185489D01*
X60627Y185355D01*
X60656Y185336D01*
X60682Y185312D01*
X60843Y185210D01*
X61000Y185103D01*
X61032Y185089D01*
X61061Y185071D01*
X61238Y184998D01*
X61412Y184921D01*
X61446Y184913D01*
X61478Y184900D01*
X61665Y184860D01*
X61850Y184814D01*
X61884Y184812D01*
X61918Y184805D01*
X62230Y184786D01*
X145915Y184786D01*
X146078Y184800D01*
X146243Y184807D01*
X146302Y184820D01*
X146363Y184826D01*
X146522Y184869D01*
X146682Y184905D01*
X146739Y184928D01*
X146797Y184944D01*
X146946Y185015D01*
X147098Y185078D01*
X147149Y185111D01*
X147204Y185138D01*
X147338Y185233D01*
X147476Y185323D01*
X147534Y185374D01*
X147570Y185400D01*
X147613Y185443D01*
X147710Y185529D01*
X153523Y191342D01*
X156090Y192406D01*
X161410Y192406D01*
X163977Y191342D01*
X166299Y189020D01*
X166300Y189020D01*
X169398Y185921D01*
X169424Y185899D01*
X169447Y185873D01*
X169598Y185754D01*
X169743Y185633D01*
X169773Y185615D01*
X169800Y185594D01*
X169969Y185504D01*
X170134Y185409D01*
X170167Y185398D01*
X170197Y185381D01*
X170379Y185322D01*
X170558Y185258D01*
X170593Y185253D01*
X170626Y185242D01*
X170815Y185216D01*
X171003Y185185D01*
X171037Y185185D01*
X171072Y185181D01*
X171263Y185188D01*
X171453Y185191D01*
X171487Y185198D01*
X171522Y185199D01*
X171708Y185240D01*
X171895Y185277D01*
X171927Y185289D01*
X171961Y185297D01*
X172137Y185370D01*
X172315Y185439D01*
X172345Y185457D01*
X172377Y185470D01*
X172537Y185574D01*
X172700Y185673D01*
X172726Y185696D01*
X172755Y185715D01*
X172989Y185921D01*
X174012Y186945D01*
X176014Y186945D01*
X176177Y186959D01*
X176342Y186966D01*
X176401Y186979D01*
X176462Y186985D01*
X176621Y187028D01*
X176781Y187064D01*
X176838Y187087D01*
X176896Y187103D01*
X177045Y187174D01*
X177197Y187237D01*
X177248Y187270D01*
X177303Y187297D01*
X177437Y187392D01*
X177575Y187482D01*
X177633Y187533D01*
X177669Y187559D01*
X177712Y187602D01*
X177809Y187688D01*
X204323Y214202D01*
X206890Y215266D01*
X247770Y215266D01*
X250337Y214202D01*
X276851Y187688D01*
X276977Y187583D01*
X277098Y187471D01*
X277149Y187439D01*
X277196Y187400D01*
X277339Y187318D01*
X277478Y187230D01*
X277534Y187206D01*
X277587Y187176D01*
X277742Y187121D01*
X277894Y187059D01*
X277954Y187046D01*
X278011Y187025D01*
X278174Y186999D01*
X278334Y186964D01*
X278411Y186959D01*
X278456Y186952D01*
X278517Y186953D01*
X278646Y186945D01*
X283188Y186945D01*
X288545Y181588D01*
X288545Y174012D01*
X283188Y168655D01*
X275612Y168655D01*
X270168Y174100D01*
X270136Y174241D01*
X270113Y174298D01*
X270097Y174356D01*
X270026Y174505D01*
X269963Y174657D01*
X269930Y174708D01*
X269903Y174763D01*
X269808Y174897D01*
X269718Y175035D01*
X269667Y175093D01*
X269641Y175129D01*
X269598Y175172D01*
X269512Y175269D01*
X244230Y200551D01*
X244104Y200656D01*
X243983Y200768D01*
X243932Y200800D01*
X243885Y200839D01*
X243742Y200921D01*
X243603Y201009D01*
X243547Y201033D01*
X243494Y201063D01*
X243339Y201118D01*
X243187Y201180D01*
X243127Y201193D01*
X243070Y201214D01*
X242907Y201240D01*
X242747Y201275D01*
X242670Y201280D01*
X242625Y201287D01*
X242564Y201286D01*
X242435Y201294D01*
X212225Y201294D01*
X212062Y201280D01*
X211897Y201273D01*
X211838Y201260D01*
X211777Y201254D01*
X211618Y201211D01*
X211458Y201175D01*
X211401Y201152D01*
X211343Y201136D01*
X211194Y201065D01*
X211042Y201002D01*
X210991Y200969D01*
X210936Y200942D01*
X210802Y200847D01*
X210664Y200757D01*
X210606Y200706D01*
X210570Y200680D01*
X210527Y200637D01*
X210430Y200551D01*
X187688Y177809D01*
X187583Y177683D01*
X187471Y177562D01*
X187439Y177511D01*
X187400Y177464D01*
X187318Y177321D01*
X187230Y177182D01*
X187206Y177126D01*
X187176Y177073D01*
X187121Y176918D01*
X187059Y176766D01*
X187046Y176706D01*
X187025Y176649D01*
X186999Y176486D01*
X186964Y176326D01*
X186959Y176249D01*
X186952Y176204D01*
X186953Y176143D01*
X186945Y176014D01*
X186945Y174012D01*
X181588Y168655D01*
X174012Y168655D01*
X172597Y170071D01*
X172471Y170176D01*
X172350Y170288D01*
X172298Y170320D01*
X172251Y170359D01*
X172109Y170441D01*
X171970Y170529D01*
X171913Y170553D01*
X171861Y170583D01*
X171706Y170638D01*
X171553Y170700D01*
X171494Y170713D01*
X171436Y170734D01*
X171274Y170760D01*
X171113Y170795D01*
X171036Y170800D01*
X170992Y170807D01*
X170931Y170806D01*
X170801Y170814D01*
X166250Y170814D01*
X163683Y171878D01*
X160546Y175015D01*
X160519Y175037D01*
X160496Y175063D01*
X160347Y175182D01*
X160200Y175304D01*
X160170Y175321D01*
X160143Y175343D01*
X159975Y175433D01*
X159809Y175527D01*
X159777Y175539D01*
X159746Y175555D01*
X159565Y175614D01*
X159385Y175678D01*
X159351Y175684D01*
X159318Y175695D01*
X159129Y175721D01*
X158941Y175752D01*
X158906Y175751D01*
X158872Y175756D01*
X158681Y175748D01*
X158491Y175746D01*
X158456Y175739D01*
X158422Y175738D01*
X158236Y175696D01*
X158048Y175660D01*
X158016Y175648D01*
X157982Y175640D01*
X157806Y175566D01*
X157628Y175498D01*
X157599Y175480D01*
X157567Y175466D01*
X157406Y175363D01*
X157244Y175264D01*
X157218Y175241D01*
X157189Y175222D01*
X156954Y175015D01*
X153817Y171878D01*
X151250Y170814D01*
X62230Y170814D01*
X62195Y170811D01*
X62161Y170813D01*
X61972Y170791D01*
X61781Y170774D01*
X61748Y170765D01*
X61714Y170761D01*
X61531Y170706D01*
X61347Y170656D01*
X61316Y170641D01*
X61283Y170631D01*
X61112Y170544D01*
X60940Y170462D01*
X60912Y170442D01*
X60881Y170427D01*
X60729Y170311D01*
X60574Y170200D01*
X60550Y170175D01*
X60523Y170155D01*
X60394Y170015D01*
X60260Y169878D01*
X60241Y169849D01*
X60217Y169823D01*
X60115Y169662D01*
X60008Y169505D01*
X59994Y169473D01*
X59976Y169444D01*
X59903Y169267D01*
X59826Y169093D01*
X59818Y169059D01*
X59805Y169027D01*
X59764Y168840D01*
X59719Y168655D01*
X59717Y168621D01*
X59710Y168587D01*
X59691Y168275D01*
X59691Y97305D01*
X56404Y89370D01*
X47734Y80701D01*
X47629Y80574D01*
X47517Y80453D01*
X47485Y80402D01*
X47446Y80355D01*
X47364Y80212D01*
X47276Y80074D01*
X47252Y80017D01*
X47222Y79964D01*
X47167Y79809D01*
X47105Y79657D01*
X47092Y79597D01*
X47071Y79540D01*
X47045Y79378D01*
X47010Y79217D01*
X47005Y79140D01*
X46998Y79096D01*
X46999Y79035D01*
X46991Y78905D01*
X46991Y36830D01*
X46994Y36795D01*
X46992Y36761D01*
X47014Y36572D01*
X47031Y36381D01*
X47040Y36348D01*
X47044Y36314D01*
X47099Y36131D01*
X47149Y35947D01*
X47164Y35916D01*
X47174Y35883D01*
X47261Y35712D01*
X47343Y35540D01*
X47363Y35512D01*
X47378Y35481D01*
X47494Y35329D01*
X47605Y35174D01*
X47630Y35150D01*
X47650Y35123D01*
X47790Y34994D01*
X47927Y34860D01*
X47956Y34841D01*
X47982Y34817D01*
X48143Y34715D01*
X48300Y34608D01*
X48332Y34594D01*
X48361Y34576D01*
X48538Y34503D01*
X48712Y34426D01*
X48746Y34418D01*
X48778Y34405D01*
X48965Y34365D01*
X49150Y34319D01*
X49184Y34317D01*
X49218Y34310D01*
X49530Y34291D01*
X115570Y34291D01*
X115605Y34294D01*
X115639Y34292D01*
X115828Y34314D01*
X116019Y34331D01*
X116052Y34340D01*
X116086Y34344D01*
X116269Y34399D01*
X116453Y34449D01*
X116484Y34464D01*
X116517Y34474D01*
X116688Y34561D01*
X116860Y34643D01*
X116888Y34663D01*
X116919Y34678D01*
X117071Y34794D01*
X117226Y34905D01*
X117250Y34930D01*
X117277Y34950D01*
X117406Y35090D01*
X117540Y35227D01*
X117559Y35256D01*
X117583Y35282D01*
X117685Y35443D01*
X117792Y35600D01*
X117806Y35632D01*
X117824Y35661D01*
X117897Y35838D01*
X117974Y36012D01*
X117982Y36046D01*
X117995Y36078D01*
X118035Y36265D01*
X118081Y36450D01*
X118083Y36484D01*
X118090Y36518D01*
X118109Y36830D01*
X118109Y58758D01*
X118099Y58874D01*
X118099Y58991D01*
X118079Y59098D01*
X118069Y59206D01*
X118039Y59319D01*
X118018Y59434D01*
X117967Y59580D01*
X117951Y59641D01*
X117935Y59673D01*
X117916Y59729D01*
X117159Y61556D01*
X117159Y70524D01*
X120591Y78808D01*
X126932Y85149D01*
X135216Y88581D01*
X144184Y88581D01*
X152468Y85149D01*
X158809Y78808D01*
X162241Y70524D01*
X162241Y61556D01*
X161484Y59729D01*
X161449Y59618D01*
X161405Y59510D01*
X161382Y59404D01*
X161349Y59300D01*
X161335Y59184D01*
X161310Y59070D01*
X161300Y58916D01*
X161293Y58853D01*
X161294Y58817D01*
X161291Y58758D01*
X161291Y36830D01*
X161294Y36795D01*
X161292Y36761D01*
X161314Y36572D01*
X161331Y36381D01*
X161340Y36348D01*
X161344Y36314D01*
X161399Y36131D01*
X161449Y35947D01*
X161464Y35916D01*
X161474Y35883D01*
X161561Y35712D01*
X161643Y35540D01*
X161663Y35512D01*
X161678Y35481D01*
X161794Y35329D01*
X161905Y35174D01*
X161930Y35150D01*
X161950Y35123D01*
X162090Y34994D01*
X162227Y34860D01*
X162256Y34841D01*
X162282Y34817D01*
X162443Y34715D01*
X162600Y34608D01*
X162632Y34594D01*
X162661Y34576D01*
X162838Y34503D01*
X163012Y34426D01*
X163046Y34418D01*
X163078Y34405D01*
X163265Y34365D01*
X163450Y34319D01*
X163484Y34317D01*
X163518Y34310D01*
X163830Y34291D01*
X320675Y34291D01*
X320710Y34294D01*
X320744Y34292D01*
X320933Y34314D01*
X321124Y34331D01*
X321157Y34340D01*
X321191Y34344D01*
X321374Y34399D01*
X321558Y34449D01*
X321589Y34464D01*
X321622Y34474D01*
X321793Y34561D01*
X321965Y34643D01*
X321993Y34663D01*
X322024Y34678D01*
X322176Y34794D01*
X322331Y34905D01*
X322355Y34930D01*
X322382Y34950D01*
X322511Y35090D01*
X322645Y35227D01*
X322664Y35256D01*
X322688Y35282D01*
X322790Y35443D01*
X322897Y35600D01*
X322911Y35632D01*
X322929Y35661D01*
X323002Y35838D01*
X323079Y36012D01*
X323087Y36046D01*
X323100Y36078D01*
X323140Y36265D01*
X323186Y36450D01*
X323188Y36484D01*
X323195Y36518D01*
X323214Y36830D01*
X323214Y47444D01*
X323200Y47608D01*
X323193Y47773D01*
X323180Y47832D01*
X323174Y47893D01*
X323131Y48052D01*
X323095Y48212D01*
X323072Y48269D01*
X323056Y48327D01*
X322985Y48475D01*
X322922Y48628D01*
X322889Y48679D01*
X322862Y48734D01*
X322767Y48867D01*
X322677Y49006D01*
X322626Y49064D01*
X322600Y49100D01*
X322557Y49143D01*
X322471Y49240D01*
X321586Y50124D01*
X320039Y53859D01*
X320039Y73141D01*
X321586Y76876D01*
X324444Y79734D01*
X328179Y81281D01*
X332221Y81281D01*
X335956Y79734D01*
X338814Y76876D01*
X340361Y73141D01*
X340361Y53859D01*
X338814Y50124D01*
X337929Y49240D01*
X337824Y49114D01*
X337712Y48993D01*
X337680Y48941D01*
X337641Y48895D01*
X337559Y48752D01*
X337471Y48613D01*
X337447Y48557D01*
X337417Y48504D01*
X337362Y48349D01*
X337300Y48197D01*
X337287Y48137D01*
X337266Y48079D01*
X337240Y47917D01*
X337205Y47756D01*
X337200Y47679D01*
X337193Y47635D01*
X337194Y47574D01*
X337186Y47444D01*
X337186Y36830D01*
X337189Y36795D01*
X337187Y36761D01*
X337209Y36572D01*
X337226Y36381D01*
X337235Y36348D01*
X337239Y36314D01*
X337294Y36131D01*
X337344Y35947D01*
X337359Y35916D01*
X337369Y35883D01*
X337456Y35712D01*
X337538Y35540D01*
X337558Y35512D01*
X337573Y35481D01*
X337689Y35329D01*
X337800Y35174D01*
X337825Y35150D01*
X337845Y35123D01*
X337985Y34994D01*
X338122Y34860D01*
X338151Y34841D01*
X338177Y34817D01*
X338338Y34715D01*
X338495Y34608D01*
X338527Y34594D01*
X338556Y34576D01*
X338733Y34503D01*
X338907Y34426D01*
X338941Y34418D01*
X338973Y34405D01*
X339160Y34365D01*
X339345Y34319D01*
X339379Y34317D01*
X339413Y34310D01*
X339725Y34291D01*
X496570Y34291D01*
X496605Y34294D01*
X496639Y34292D01*
X496828Y34314D01*
X497019Y34331D01*
X497052Y34340D01*
X497086Y34344D01*
X497269Y34399D01*
X497453Y34449D01*
X497484Y34464D01*
X497517Y34474D01*
X497688Y34561D01*
X497860Y34643D01*
X497888Y34663D01*
X497919Y34678D01*
X498071Y34794D01*
X498226Y34905D01*
X498250Y34930D01*
X498277Y34950D01*
X498406Y35090D01*
X498540Y35227D01*
X498559Y35256D01*
X498583Y35282D01*
X498685Y35443D01*
X498792Y35600D01*
X498806Y35632D01*
X498824Y35661D01*
X498897Y35838D01*
X498974Y36012D01*
X498982Y36046D01*
X498995Y36078D01*
X499035Y36265D01*
X499081Y36450D01*
X499083Y36484D01*
X499090Y36518D01*
X499109Y36830D01*
X499109Y58758D01*
X499099Y58874D01*
X499099Y58991D01*
X499079Y59098D01*
X499069Y59206D01*
X499039Y59319D01*
X499018Y59434D01*
X498967Y59580D01*
X498951Y59641D01*
X498935Y59673D01*
X498916Y59729D01*
X498159Y61556D01*
X498159Y70524D01*
X501591Y78808D01*
X507932Y85149D01*
X516216Y88581D01*
X525184Y88581D01*
X533468Y85149D01*
X539809Y78808D01*
X543241Y70524D01*
X543241Y61556D01*
X542484Y59729D01*
X542449Y59618D01*
X542405Y59510D01*
X542382Y59404D01*
X542349Y59300D01*
X542335Y59184D01*
X542310Y59070D01*
X542300Y58916D01*
X542293Y58853D01*
X542294Y58817D01*
X542291Y58758D01*
X542291Y21105D01*
X539004Y13170D01*
X532573Y6739D01*
X523819Y-2014D01*
X523736Y-2114D01*
X523645Y-2207D01*
X523592Y-2287D01*
X523531Y-2360D01*
X523466Y-2473D01*
X523393Y-2580D01*
X523355Y-2668D01*
X523307Y-2751D01*
X523264Y-2873D01*
X523211Y-2992D01*
X523188Y-3085D01*
X523156Y-3175D01*
X523135Y-3303D01*
X523104Y-3430D01*
X523098Y-3525D01*
X523083Y-3619D01*
X523085Y-3749D01*
X523077Y-3879D01*
X523088Y-3974D01*
X523089Y-4070D01*
X523114Y-4197D01*
X523129Y-4326D01*
X523156Y-4418D01*
X523175Y-4512D01*
X523221Y-4633D01*
X523259Y-4757D01*
X523302Y-4842D01*
X523337Y-4932D01*
X523404Y-5043D01*
X523463Y-5159D01*
X523521Y-5235D01*
X523571Y-5316D01*
X523657Y-5414D01*
X523735Y-5517D01*
X523806Y-5582D01*
X523869Y-5654D01*
X523971Y-5734D01*
X524066Y-5823D01*
X524147Y-5874D01*
X524222Y-5933D01*
X524337Y-5994D01*
X524446Y-6064D01*
X524535Y-6101D01*
X524619Y-6146D01*
X524743Y-6186D01*
X524863Y-6235D01*
X524956Y-6255D01*
X525047Y-6285D01*
X525176Y-6303D01*
X525303Y-6330D01*
X525433Y-6338D01*
X525493Y-6346D01*
X525538Y-6345D01*
X525615Y-6349D01*
X652210Y-6349D01*
X652245Y-6346D01*
G37*
%LPC*%
G36*
X189716Y43499D02*
X189716Y43499D01*
X181432Y46931D01*
X175091Y53272D01*
X171659Y61556D01*
X171659Y70524D01*
X175091Y78808D01*
X181432Y85149D01*
X189716Y88581D01*
X198684Y88581D01*
X206968Y85149D01*
X210444Y81674D01*
X210470Y81652D01*
X210493Y81626D01*
X210643Y81507D01*
X210789Y81385D01*
X210819Y81368D01*
X210846Y81346D01*
X211014Y81256D01*
X211180Y81162D01*
X211212Y81150D01*
X211243Y81134D01*
X211424Y81075D01*
X211604Y81011D01*
X211638Y81005D01*
X211671Y80994D01*
X211860Y80968D01*
X212048Y80937D01*
X212083Y80938D01*
X212117Y80933D01*
X212308Y80941D01*
X212499Y80943D01*
X212533Y80950D01*
X212567Y80951D01*
X212753Y80993D01*
X212941Y81029D01*
X212973Y81041D01*
X213007Y81049D01*
X213183Y81123D01*
X213361Y81191D01*
X213390Y81209D01*
X213422Y81223D01*
X213583Y81326D01*
X213745Y81425D01*
X213771Y81448D01*
X213800Y81467D01*
X214035Y81674D01*
X227183Y94822D01*
X229750Y95886D01*
X275455Y95886D01*
X275618Y95900D01*
X275783Y95907D01*
X275842Y95920D01*
X275903Y95926D01*
X276062Y95969D01*
X276222Y96005D01*
X276279Y96028D01*
X276337Y96044D01*
X276486Y96115D01*
X276638Y96178D01*
X276689Y96211D01*
X276744Y96238D01*
X276878Y96333D01*
X277016Y96423D01*
X277074Y96474D01*
X277110Y96500D01*
X277153Y96543D01*
X277250Y96629D01*
X285603Y104982D01*
X287292Y105682D01*
X287407Y105742D01*
X287527Y105793D01*
X287606Y105846D01*
X287691Y105890D01*
X287794Y105970D01*
X287902Y106042D01*
X287971Y106107D01*
X288047Y106166D01*
X288134Y106263D01*
X288228Y106352D01*
X288285Y106429D01*
X288349Y106500D01*
X288417Y106611D01*
X288494Y106716D01*
X288536Y106802D01*
X288586Y106883D01*
X288635Y107003D01*
X288692Y107120D01*
X288718Y107212D01*
X288753Y107301D01*
X288779Y107429D01*
X288815Y107553D01*
X288824Y107648D01*
X288843Y107742D01*
X288846Y107872D01*
X288859Y108001D01*
X288852Y108097D01*
X288854Y108192D01*
X288834Y108320D01*
X288824Y108450D01*
X288800Y108543D01*
X288785Y108637D01*
X288743Y108760D01*
X288710Y108886D01*
X288670Y108973D01*
X288639Y109063D01*
X288575Y109176D01*
X288521Y109295D01*
X288466Y109373D01*
X288419Y109456D01*
X288337Y109557D01*
X288262Y109663D01*
X288195Y109731D01*
X288134Y109805D01*
X288035Y109889D01*
X287943Y109981D01*
X287864Y110035D01*
X287792Y110097D01*
X287680Y110163D01*
X287573Y110237D01*
X287456Y110294D01*
X287403Y110324D01*
X287361Y110340D01*
X287292Y110374D01*
X286344Y110766D01*
X283486Y113624D01*
X281939Y117359D01*
X281939Y136641D01*
X283486Y140376D01*
X285404Y142293D01*
X285479Y142383D01*
X285561Y142466D01*
X285623Y142555D01*
X285692Y142638D01*
X285750Y142740D01*
X285817Y142836D01*
X285884Y142974D01*
X285916Y143029D01*
X285928Y143064D01*
X285954Y143117D01*
X286178Y143657D01*
X302151Y159630D01*
X302256Y159756D01*
X302368Y159877D01*
X302400Y159928D01*
X302439Y159975D01*
X302521Y160118D01*
X302609Y160257D01*
X302633Y160313D01*
X302663Y160366D01*
X302718Y160521D01*
X302780Y160673D01*
X302793Y160733D01*
X302814Y160790D01*
X302840Y160953D01*
X302875Y161113D01*
X302880Y161190D01*
X302887Y161235D01*
X302886Y161296D01*
X302894Y161425D01*
X302894Y169030D01*
X303958Y171597D01*
X307231Y174870D01*
X307336Y174996D01*
X307448Y175117D01*
X307480Y175168D01*
X307519Y175215D01*
X307601Y175358D01*
X307689Y175497D01*
X307713Y175553D01*
X307743Y175606D01*
X307798Y175761D01*
X307860Y175913D01*
X307873Y175973D01*
X307894Y176030D01*
X307920Y176193D01*
X307955Y176353D01*
X307960Y176430D01*
X307967Y176475D01*
X307966Y176536D01*
X307974Y176665D01*
X307974Y178935D01*
X307960Y179098D01*
X307953Y179263D01*
X307940Y179322D01*
X307934Y179383D01*
X307891Y179542D01*
X307855Y179702D01*
X307832Y179759D01*
X307816Y179817D01*
X307745Y179966D01*
X307682Y180118D01*
X307649Y180169D01*
X307622Y180224D01*
X307527Y180358D01*
X307437Y180496D01*
X307386Y180554D01*
X307360Y180590D01*
X307317Y180633D01*
X307231Y180730D01*
X301418Y186543D01*
X300352Y189115D01*
X300340Y189258D01*
X300333Y189423D01*
X300320Y189482D01*
X300314Y189543D01*
X300271Y189702D01*
X300235Y189862D01*
X300212Y189919D01*
X300196Y189977D01*
X300125Y190126D01*
X300062Y190278D01*
X300029Y190329D01*
X300002Y190384D01*
X299907Y190518D01*
X299817Y190656D01*
X299766Y190714D01*
X299740Y190750D01*
X299697Y190793D01*
X299611Y190890D01*
X259470Y231031D01*
X259344Y231136D01*
X259223Y231248D01*
X259172Y231280D01*
X259125Y231319D01*
X258982Y231401D01*
X258843Y231489D01*
X258787Y231513D01*
X258734Y231543D01*
X258579Y231598D01*
X258427Y231660D01*
X258367Y231673D01*
X258310Y231694D01*
X258147Y231720D01*
X257987Y231755D01*
X257910Y231760D01*
X257865Y231767D01*
X257804Y231766D01*
X257675Y231774D01*
X217050Y231774D01*
X214483Y232838D01*
X177809Y269512D01*
X177683Y269617D01*
X177562Y269729D01*
X177511Y269761D01*
X177464Y269800D01*
X177321Y269882D01*
X177182Y269970D01*
X177126Y269994D01*
X177073Y270024D01*
X176918Y270079D01*
X176766Y270141D01*
X176706Y270154D01*
X176649Y270175D01*
X176486Y270201D01*
X176326Y270236D01*
X176249Y270241D01*
X176204Y270248D01*
X176143Y270247D01*
X176014Y270255D01*
X174012Y270255D01*
X168655Y275612D01*
X168655Y283188D01*
X174100Y288632D01*
X174241Y288664D01*
X174298Y288687D01*
X174357Y288703D01*
X174505Y288774D01*
X174657Y288837D01*
X174708Y288870D01*
X174763Y288897D01*
X174897Y288992D01*
X175035Y289082D01*
X175093Y289133D01*
X175129Y289159D01*
X175172Y289202D01*
X175269Y289288D01*
X202001Y316020D01*
X204323Y318342D01*
X206890Y319406D01*
X285615Y319406D01*
X285778Y319420D01*
X285943Y319427D01*
X286002Y319440D01*
X286063Y319446D01*
X286222Y319489D01*
X286382Y319525D01*
X286439Y319548D01*
X286497Y319564D01*
X286646Y319635D01*
X286798Y319698D01*
X286849Y319731D01*
X286904Y319758D01*
X287038Y319853D01*
X287176Y319943D01*
X287234Y319994D01*
X287270Y320020D01*
X287313Y320063D01*
X287410Y320149D01*
X295763Y328502D01*
X296247Y328703D01*
X296434Y328800D01*
X296624Y328897D01*
X296634Y328905D01*
X296646Y328911D01*
X296813Y329041D01*
X296982Y329169D01*
X296991Y329179D01*
X297002Y329187D01*
X297144Y329344D01*
X297288Y329500D01*
X297295Y329511D01*
X297303Y329521D01*
X297416Y329701D01*
X297529Y329880D01*
X297534Y329892D01*
X297541Y329903D01*
X297620Y330101D01*
X297700Y330296D01*
X297703Y330309D01*
X297708Y330322D01*
X297750Y330529D01*
X297795Y330737D01*
X297796Y330752D01*
X297798Y330763D01*
X297799Y330802D01*
X297814Y331049D01*
X297814Y331216D01*
X297811Y331251D01*
X297813Y331285D01*
X297791Y331474D01*
X297774Y331665D01*
X297765Y331698D01*
X297761Y331732D01*
X297706Y331915D01*
X297656Y332099D01*
X297641Y332130D01*
X297631Y332163D01*
X297544Y332334D01*
X297462Y332506D01*
X297442Y332534D01*
X297427Y332565D01*
X297311Y332717D01*
X297200Y332872D01*
X297175Y332896D01*
X297155Y332923D01*
X297015Y333052D01*
X296878Y333186D01*
X296849Y333205D01*
X296823Y333229D01*
X296662Y333331D01*
X296505Y333438D01*
X296473Y333452D01*
X296444Y333470D01*
X296267Y333543D01*
X296093Y333620D01*
X296059Y333628D01*
X296027Y333641D01*
X295840Y333681D01*
X295655Y333727D01*
X295621Y333729D01*
X295587Y333736D01*
X295275Y333755D01*
X288312Y333755D01*
X282955Y339112D01*
X282955Y346688D01*
X288445Y352178D01*
X288538Y352203D01*
X288569Y352218D01*
X288602Y352228D01*
X288773Y352315D01*
X288945Y352397D01*
X288973Y352417D01*
X289004Y352432D01*
X289156Y352548D01*
X289311Y352659D01*
X289335Y352684D01*
X289362Y352704D01*
X289491Y352844D01*
X289625Y352981D01*
X289644Y353010D01*
X289668Y353036D01*
X289770Y353196D01*
X289877Y353354D01*
X289891Y353386D01*
X289909Y353415D01*
X289982Y353592D01*
X290059Y353766D01*
X290067Y353800D01*
X290080Y353832D01*
X290120Y354019D01*
X290166Y354204D01*
X290168Y354238D01*
X290175Y354272D01*
X290194Y354584D01*
X290194Y372230D01*
X291258Y374797D01*
X294912Y378451D01*
X295017Y378577D01*
X295129Y378698D01*
X295161Y378749D01*
X295200Y378796D01*
X295282Y378939D01*
X295370Y379078D01*
X295394Y379134D01*
X295424Y379187D01*
X295479Y379342D01*
X295541Y379494D01*
X295554Y379554D01*
X295575Y379611D01*
X295601Y379774D01*
X295636Y379934D01*
X295641Y380011D01*
X295648Y380056D01*
X295647Y380117D01*
X295655Y380246D01*
X295655Y384836D01*
X295697Y384886D01*
X295715Y384917D01*
X295736Y384944D01*
X295826Y385112D01*
X295921Y385277D01*
X295932Y385310D01*
X295949Y385341D01*
X296008Y385522D01*
X296072Y385702D01*
X296077Y385736D01*
X296088Y385769D01*
X296114Y385958D01*
X296145Y386146D01*
X296145Y386180D01*
X296149Y386215D01*
X296142Y386406D01*
X296139Y386596D01*
X296132Y386630D01*
X296131Y386665D01*
X296090Y386851D01*
X296053Y387038D01*
X296041Y387071D01*
X296033Y387104D01*
X295960Y387280D01*
X295891Y387458D01*
X295873Y387488D01*
X295860Y387520D01*
X295756Y387680D01*
X295657Y387843D01*
X295634Y387869D01*
X295615Y387898D01*
X295409Y388132D01*
X279790Y403751D01*
X279664Y403856D01*
X279543Y403968D01*
X279492Y404000D01*
X279445Y404039D01*
X279302Y404121D01*
X279163Y404209D01*
X279107Y404233D01*
X279054Y404263D01*
X278899Y404318D01*
X278747Y404380D01*
X278687Y404393D01*
X278630Y404414D01*
X278467Y404440D01*
X278307Y404475D01*
X278230Y404480D01*
X278185Y404487D01*
X278124Y404486D01*
X277995Y404494D01*
X275470Y404494D01*
X272903Y405558D01*
X246642Y431819D01*
X246480Y431954D01*
X246318Y432092D01*
X246307Y432099D01*
X246297Y432108D01*
X246114Y432212D01*
X245930Y432320D01*
X245917Y432325D01*
X245906Y432331D01*
X245707Y432402D01*
X245507Y432475D01*
X245494Y432477D01*
X245481Y432482D01*
X245272Y432516D01*
X245063Y432553D01*
X245050Y432553D01*
X245037Y432555D01*
X244823Y432552D01*
X244613Y432552D01*
X244600Y432549D01*
X244587Y432549D01*
X244378Y432509D01*
X244170Y432471D01*
X244155Y432466D01*
X244145Y432464D01*
X244108Y432449D01*
X243875Y432369D01*
X243725Y432307D01*
X238875Y432307D01*
X234393Y434163D01*
X230963Y437593D01*
X229107Y442075D01*
X229107Y446925D01*
X229556Y448009D01*
X229606Y448166D01*
X229662Y448321D01*
X229673Y448381D01*
X229691Y448439D01*
X229712Y448602D01*
X229740Y448764D01*
X229740Y448825D01*
X229748Y448886D01*
X229739Y449050D01*
X229739Y449214D01*
X229728Y449275D01*
X229725Y449335D01*
X229688Y449495D01*
X229658Y449657D01*
X229633Y449731D01*
X229623Y449774D01*
X229599Y449830D01*
X229556Y449953D01*
X229232Y450735D01*
X229230Y450757D01*
X229232Y450785D01*
X229219Y450899D01*
X229213Y451043D01*
X229200Y451102D01*
X229194Y451163D01*
X229183Y451203D01*
X229180Y451232D01*
X229146Y451346D01*
X229115Y451482D01*
X229092Y451539D01*
X229076Y451597D01*
X229059Y451633D01*
X229050Y451663D01*
X228995Y451772D01*
X228942Y451898D01*
X228909Y451949D01*
X228882Y452004D01*
X228860Y452035D01*
X228845Y452064D01*
X228770Y452164D01*
X228697Y452276D01*
X228646Y452334D01*
X228620Y452370D01*
X228594Y452395D01*
X228573Y452423D01*
X228541Y452453D01*
X228491Y452510D01*
X215058Y465943D01*
X213994Y468510D01*
X213994Y575430D01*
X215058Y577997D01*
X218712Y581651D01*
X218817Y581777D01*
X218929Y581898D01*
X218961Y581949D01*
X219000Y581996D01*
X219082Y582139D01*
X219170Y582278D01*
X219194Y582334D01*
X219224Y582387D01*
X219279Y582542D01*
X219341Y582694D01*
X219354Y582754D01*
X219375Y582811D01*
X219401Y582974D01*
X219436Y583134D01*
X219441Y583211D01*
X219448Y583256D01*
X219447Y583317D01*
X219455Y583446D01*
X219455Y587988D01*
X224812Y593345D01*
X232388Y593345D01*
X237745Y587988D01*
X237745Y580412D01*
X232300Y574968D01*
X232159Y574936D01*
X232102Y574913D01*
X232044Y574897D01*
X231895Y574826D01*
X231743Y574763D01*
X231692Y574730D01*
X231637Y574703D01*
X231503Y574608D01*
X231365Y574518D01*
X231307Y574467D01*
X231271Y574441D01*
X231228Y574398D01*
X231131Y574312D01*
X228709Y571890D01*
X228604Y571764D01*
X228492Y571643D01*
X228460Y571592D01*
X228421Y571545D01*
X228339Y571402D01*
X228251Y571263D01*
X228227Y571207D01*
X228197Y571154D01*
X228142Y570999D01*
X228080Y570847D01*
X228067Y570787D01*
X228046Y570730D01*
X228020Y570567D01*
X227985Y570407D01*
X227980Y570330D01*
X227973Y570285D01*
X227974Y570224D01*
X227966Y570095D01*
X227966Y556139D01*
X227977Y556009D01*
X227979Y555880D01*
X227997Y555786D01*
X228006Y555691D01*
X228040Y555565D01*
X228065Y555438D01*
X228099Y555348D01*
X228124Y555256D01*
X228180Y555139D01*
X228227Y555018D01*
X228277Y554936D01*
X228318Y554850D01*
X228393Y554744D01*
X228461Y554633D01*
X228524Y554561D01*
X228580Y554484D01*
X228673Y554393D01*
X228759Y554295D01*
X228834Y554236D01*
X228902Y554170D01*
X229010Y554097D01*
X229112Y554016D01*
X229196Y553971D01*
X229275Y553917D01*
X229394Y553865D01*
X229509Y553803D01*
X229600Y553774D01*
X229687Y553735D01*
X229814Y553704D01*
X229937Y553664D01*
X230032Y553651D01*
X230125Y553629D01*
X230254Y553621D01*
X230383Y553603D01*
X230479Y553607D01*
X230574Y553601D01*
X230703Y553616D01*
X230833Y553621D01*
X230926Y553642D01*
X231021Y553653D01*
X231146Y553691D01*
X231273Y553719D01*
X231361Y553756D01*
X231452Y553783D01*
X231568Y553842D01*
X231688Y553892D01*
X231768Y553944D01*
X231854Y553988D01*
X231957Y554066D01*
X232066Y554137D01*
X232164Y554223D01*
X232212Y554260D01*
X232243Y554293D01*
X232301Y554344D01*
X234393Y556436D01*
X238875Y558293D01*
X243725Y558293D01*
X248207Y556437D01*
X251637Y553007D01*
X253483Y548548D01*
X253559Y548402D01*
X253628Y548253D01*
X253663Y548203D01*
X253692Y548149D01*
X253792Y548019D01*
X253887Y547884D01*
X253930Y547841D01*
X253967Y547793D01*
X254090Y547683D01*
X254206Y547567D01*
X254256Y547532D01*
X254302Y547492D01*
X254442Y547404D01*
X254577Y547311D01*
X254646Y547277D01*
X254684Y547254D01*
X254741Y547231D01*
X254857Y547174D01*
X255417Y546942D01*
X257739Y544620D01*
X291710Y510649D01*
X291836Y510544D01*
X291957Y510432D01*
X292008Y510400D01*
X292055Y510361D01*
X292198Y510279D01*
X292337Y510191D01*
X292393Y510167D01*
X292446Y510137D01*
X292601Y510082D01*
X292753Y510020D01*
X292813Y510007D01*
X292870Y509986D01*
X293033Y509960D01*
X293193Y509925D01*
X293270Y509920D01*
X293315Y509913D01*
X293376Y509914D01*
X293505Y509906D01*
X305435Y509906D01*
X305470Y509909D01*
X305504Y509907D01*
X305693Y509929D01*
X305884Y509946D01*
X305917Y509955D01*
X305951Y509959D01*
X306134Y510014D01*
X306318Y510064D01*
X306349Y510079D01*
X306382Y510089D01*
X306553Y510176D01*
X306725Y510258D01*
X306753Y510278D01*
X306784Y510293D01*
X306936Y510409D01*
X307091Y510520D01*
X307115Y510545D01*
X307142Y510565D01*
X307271Y510705D01*
X307405Y510842D01*
X307424Y510871D01*
X307448Y510897D01*
X307550Y511058D01*
X307657Y511215D01*
X307671Y511247D01*
X307689Y511276D01*
X307762Y511453D01*
X307839Y511627D01*
X307847Y511661D01*
X307860Y511693D01*
X307900Y511880D01*
X307946Y512065D01*
X307948Y512099D01*
X307955Y512133D01*
X307974Y512445D01*
X307974Y514470D01*
X309038Y517037D01*
X330091Y538090D01*
X330196Y538216D01*
X330308Y538337D01*
X330340Y538388D01*
X330379Y538435D01*
X330461Y538578D01*
X330549Y538717D01*
X330573Y538773D01*
X330603Y538826D01*
X330658Y538981D01*
X330720Y539133D01*
X330733Y539193D01*
X330754Y539250D01*
X330780Y539413D01*
X330815Y539573D01*
X330820Y539650D01*
X330827Y539695D01*
X330826Y539756D01*
X330833Y539867D01*
X331156Y540647D01*
X331206Y540804D01*
X331262Y540958D01*
X331273Y541018D01*
X331291Y541077D01*
X331312Y541240D01*
X331340Y541402D01*
X331340Y541463D01*
X331348Y541523D01*
X331339Y541688D01*
X331339Y541852D01*
X331328Y541912D01*
X331325Y541973D01*
X331288Y542133D01*
X331258Y542295D01*
X331233Y542368D01*
X331223Y542412D01*
X331199Y542468D01*
X331156Y542591D01*
X330707Y543675D01*
X330707Y548525D01*
X332563Y553007D01*
X335993Y556437D01*
X340475Y558293D01*
X345325Y558293D01*
X349807Y556437D01*
X353237Y553007D01*
X355093Y548525D01*
X355093Y543675D01*
X353237Y539193D01*
X349807Y535763D01*
X345348Y533917D01*
X345202Y533841D01*
X345053Y533772D01*
X345003Y533737D01*
X344949Y533708D01*
X344819Y533608D01*
X344684Y533513D01*
X344641Y533470D01*
X344593Y533433D01*
X344483Y533310D01*
X344367Y533194D01*
X344332Y533144D01*
X344292Y533098D01*
X344204Y532958D01*
X344111Y532823D01*
X344077Y532754D01*
X344054Y532716D01*
X344031Y532659D01*
X343974Y532543D01*
X343742Y531983D01*
X341420Y529661D01*
X326000Y514241D01*
X325916Y514141D01*
X325826Y514048D01*
X325772Y513968D01*
X325711Y513895D01*
X325646Y513782D01*
X325574Y513675D01*
X325535Y513587D01*
X325488Y513504D01*
X325444Y513382D01*
X325391Y513263D01*
X325369Y513170D01*
X325337Y513080D01*
X325315Y512951D01*
X325285Y512825D01*
X325279Y512730D01*
X325263Y512636D01*
X325265Y512505D01*
X325257Y512376D01*
X325268Y512281D01*
X325269Y512185D01*
X325294Y512058D01*
X325309Y511929D01*
X325337Y511837D01*
X325355Y511743D01*
X325402Y511622D01*
X325439Y511498D01*
X325483Y511413D01*
X325517Y511323D01*
X325585Y511212D01*
X325644Y511096D01*
X325701Y511020D01*
X325751Y510939D01*
X325837Y510841D01*
X325916Y510738D01*
X325986Y510673D01*
X326049Y510601D01*
X326151Y510521D01*
X326247Y510432D01*
X326328Y510381D01*
X326402Y510322D01*
X326517Y510261D01*
X326627Y510191D01*
X326715Y510154D01*
X326799Y510109D01*
X326923Y510069D01*
X327043Y510020D01*
X327137Y510000D01*
X327228Y509970D01*
X327356Y509952D01*
X327483Y509925D01*
X327613Y509917D01*
X327674Y509909D01*
X327718Y509910D01*
X327795Y509906D01*
X336670Y509906D01*
X339237Y508842D01*
X390643Y457436D01*
X390769Y457331D01*
X390890Y457219D01*
X390941Y457187D01*
X390988Y457148D01*
X391131Y457066D01*
X391270Y456978D01*
X391326Y456954D01*
X391379Y456924D01*
X391534Y456869D01*
X391686Y456807D01*
X391746Y456794D01*
X391803Y456773D01*
X391966Y456747D01*
X392126Y456712D01*
X392203Y456707D01*
X392248Y456700D01*
X392309Y456701D01*
X392438Y456693D01*
X396125Y456693D01*
X400607Y454837D01*
X404037Y451407D01*
X405893Y446925D01*
X405893Y442075D01*
X404037Y437593D01*
X400607Y434163D01*
X396125Y432307D01*
X391275Y432307D01*
X386793Y434163D01*
X383363Y437593D01*
X381507Y442075D01*
X381507Y445762D01*
X381493Y445925D01*
X381486Y446090D01*
X381473Y446149D01*
X381467Y446210D01*
X381424Y446369D01*
X381388Y446529D01*
X381365Y446586D01*
X381349Y446644D01*
X381278Y446793D01*
X381215Y446945D01*
X381182Y446996D01*
X381155Y447051D01*
X381060Y447185D01*
X380970Y447323D01*
X380919Y447381D01*
X380893Y447417D01*
X380850Y447460D01*
X380764Y447557D01*
X333130Y495191D01*
X333004Y495296D01*
X332883Y495408D01*
X332832Y495440D01*
X332785Y495479D01*
X332642Y495561D01*
X332503Y495649D01*
X332447Y495673D01*
X332394Y495703D01*
X332239Y495758D01*
X332087Y495820D01*
X332027Y495833D01*
X331970Y495854D01*
X331807Y495880D01*
X331647Y495915D01*
X331570Y495920D01*
X331525Y495927D01*
X331464Y495926D01*
X331335Y495934D01*
X288170Y495934D01*
X285603Y496998D01*
X283281Y499320D01*
X249310Y533291D01*
X249184Y533396D01*
X249063Y533508D01*
X249012Y533540D01*
X248965Y533579D01*
X248822Y533661D01*
X248683Y533749D01*
X248627Y533773D01*
X248574Y533803D01*
X248419Y533858D01*
X248267Y533920D01*
X248207Y533933D01*
X248150Y533954D01*
X247987Y533980D01*
X247827Y534015D01*
X247750Y534020D01*
X247705Y534027D01*
X247644Y534026D01*
X247533Y534033D01*
X246753Y534356D01*
X246638Y534392D01*
X246626Y534397D01*
X246615Y534399D01*
X246596Y534406D01*
X246442Y534462D01*
X246382Y534473D01*
X246323Y534491D01*
X246160Y534512D01*
X245998Y534540D01*
X245937Y534540D01*
X245877Y534548D01*
X245712Y534539D01*
X245548Y534539D01*
X245488Y534528D01*
X245427Y534525D01*
X245267Y534488D01*
X245105Y534458D01*
X245032Y534433D01*
X244988Y534423D01*
X244932Y534399D01*
X244809Y534356D01*
X243725Y533907D01*
X238875Y533907D01*
X234393Y535764D01*
X232301Y537856D01*
X232201Y537940D01*
X232108Y538030D01*
X232028Y538084D01*
X231955Y538145D01*
X231842Y538210D01*
X231735Y538283D01*
X231647Y538321D01*
X231564Y538369D01*
X231442Y538412D01*
X231323Y538465D01*
X231230Y538487D01*
X231140Y538519D01*
X231012Y538541D01*
X230885Y538571D01*
X230790Y538577D01*
X230696Y538593D01*
X230566Y538591D01*
X230436Y538599D01*
X230341Y538588D01*
X230245Y538587D01*
X230118Y538562D01*
X229989Y538547D01*
X229897Y538519D01*
X229803Y538501D01*
X229682Y538454D01*
X229558Y538417D01*
X229472Y538373D01*
X229383Y538339D01*
X229272Y538271D01*
X229156Y538212D01*
X229080Y538155D01*
X228999Y538105D01*
X228901Y538019D01*
X228798Y537940D01*
X228733Y537870D01*
X228661Y537807D01*
X228581Y537705D01*
X228492Y537609D01*
X228441Y537529D01*
X228382Y537454D01*
X228321Y537339D01*
X228251Y537230D01*
X228214Y537141D01*
X228169Y537057D01*
X228129Y536933D01*
X228080Y536813D01*
X228060Y536720D01*
X228030Y536629D01*
X228012Y536500D01*
X227985Y536373D01*
X227977Y536243D01*
X227969Y536183D01*
X227970Y536138D01*
X227966Y536061D01*
X227966Y473845D01*
X227980Y473682D01*
X227987Y473517D01*
X228000Y473458D01*
X228006Y473397D01*
X228049Y473238D01*
X228085Y473078D01*
X228108Y473021D01*
X228124Y472963D01*
X228195Y472814D01*
X228258Y472662D01*
X228291Y472611D01*
X228318Y472556D01*
X228413Y472422D01*
X228503Y472284D01*
X228554Y472226D01*
X228580Y472190D01*
X228623Y472147D01*
X228709Y472050D01*
X242142Y458617D01*
X242374Y458057D01*
X242450Y457912D01*
X242519Y457762D01*
X242554Y457712D01*
X242583Y457658D01*
X242683Y457528D01*
X242778Y457394D01*
X242821Y457351D01*
X242858Y457302D01*
X242980Y457192D01*
X243097Y457076D01*
X243147Y457042D01*
X243192Y457001D01*
X243332Y456914D01*
X243467Y456820D01*
X243537Y456787D01*
X243575Y456763D01*
X243631Y456740D01*
X243748Y456683D01*
X248207Y454837D01*
X251637Y451407D01*
X253493Y446925D01*
X253493Y445778D01*
X253507Y445615D01*
X253514Y445450D01*
X253527Y445391D01*
X253533Y445330D01*
X253576Y445171D01*
X253612Y445011D01*
X253635Y444954D01*
X253651Y444896D01*
X253722Y444747D01*
X253785Y444595D01*
X253818Y444544D01*
X253845Y444489D01*
X253940Y444355D01*
X254030Y444217D01*
X254081Y444159D01*
X254107Y444123D01*
X254150Y444080D01*
X254236Y443983D01*
X279010Y419209D01*
X279136Y419104D01*
X279257Y418992D01*
X279308Y418960D01*
X279355Y418921D01*
X279498Y418839D01*
X279637Y418751D01*
X279693Y418727D01*
X279746Y418697D01*
X279901Y418642D01*
X280053Y418580D01*
X280113Y418567D01*
X280170Y418546D01*
X280333Y418520D01*
X280493Y418485D01*
X280570Y418480D01*
X280615Y418473D01*
X280676Y418474D01*
X280805Y418466D01*
X283330Y418466D01*
X285897Y417402D01*
X288219Y415080D01*
X288220Y415080D01*
X292588Y410711D01*
X292614Y410689D01*
X292637Y410663D01*
X292787Y410545D01*
X292933Y410423D01*
X292963Y410405D01*
X292990Y410384D01*
X293159Y410294D01*
X293324Y410199D01*
X293357Y410188D01*
X293387Y410171D01*
X293568Y410112D01*
X293748Y410048D01*
X293783Y410043D01*
X293816Y410032D01*
X294005Y410006D01*
X294193Y409975D01*
X294227Y409975D01*
X294262Y409971D01*
X294453Y409978D01*
X294643Y409981D01*
X294677Y409988D01*
X294711Y409989D01*
X294898Y410030D01*
X295085Y410067D01*
X295117Y410079D01*
X295151Y410087D01*
X295327Y410160D01*
X295505Y410229D01*
X295535Y410247D01*
X295567Y410260D01*
X295726Y410363D01*
X295890Y410463D01*
X295916Y410486D01*
X295945Y410505D01*
X296179Y410711D01*
X301012Y415545D01*
X308588Y415545D01*
X313945Y410188D01*
X313945Y402564D01*
X313903Y402514D01*
X313885Y402484D01*
X313864Y402456D01*
X313774Y402288D01*
X313679Y402123D01*
X313668Y402090D01*
X313651Y402059D01*
X313592Y401878D01*
X313528Y401698D01*
X313523Y401664D01*
X313512Y401631D01*
X313486Y401442D01*
X313455Y401254D01*
X313455Y401220D01*
X313451Y401185D01*
X313458Y400994D01*
X313461Y400804D01*
X313468Y400770D01*
X313469Y400735D01*
X313510Y400549D01*
X313547Y400362D01*
X313559Y400329D01*
X313567Y400296D01*
X313640Y400120D01*
X313709Y399942D01*
X313727Y399912D01*
X313740Y399880D01*
X313844Y399720D01*
X313943Y399557D01*
X313966Y399531D01*
X313985Y399502D01*
X314191Y399268D01*
X316159Y397300D01*
X329810Y383649D01*
X329936Y383544D01*
X330057Y383432D01*
X330108Y383400D01*
X330155Y383361D01*
X330298Y383279D01*
X330437Y383191D01*
X330493Y383167D01*
X330546Y383137D01*
X330701Y383082D01*
X330853Y383020D01*
X330913Y383007D01*
X330970Y382986D01*
X331133Y382960D01*
X331293Y382925D01*
X331370Y382920D01*
X331415Y382913D01*
X331476Y382914D01*
X331587Y382907D01*
X334157Y381842D01*
X353902Y362097D01*
X354966Y359530D01*
X354966Y357005D01*
X354980Y356842D01*
X354987Y356677D01*
X355000Y356618D01*
X355006Y356557D01*
X355049Y356398D01*
X355085Y356238D01*
X355108Y356181D01*
X355124Y356123D01*
X355195Y355974D01*
X355258Y355822D01*
X355291Y355771D01*
X355318Y355716D01*
X355413Y355582D01*
X355503Y355444D01*
X355554Y355386D01*
X355580Y355350D01*
X355623Y355307D01*
X355709Y355210D01*
X358131Y352788D01*
X358257Y352683D01*
X358378Y352571D01*
X358429Y352539D01*
X358476Y352500D01*
X358619Y352418D01*
X358758Y352330D01*
X358814Y352306D01*
X358867Y352276D01*
X359022Y352221D01*
X359174Y352159D01*
X359234Y352146D01*
X359291Y352125D01*
X359352Y352115D01*
X359486Y352003D01*
X359516Y351985D01*
X359544Y351964D01*
X359712Y351874D01*
X359877Y351779D01*
X359910Y351768D01*
X359941Y351751D01*
X360122Y351692D01*
X360302Y351628D01*
X360336Y351623D01*
X360369Y351612D01*
X360558Y351586D01*
X360746Y351555D01*
X360780Y351555D01*
X360815Y351551D01*
X361006Y351558D01*
X361196Y351561D01*
X361230Y351568D01*
X361265Y351569D01*
X361451Y351610D01*
X361638Y351647D01*
X361671Y351659D01*
X361704Y351667D01*
X361880Y351740D01*
X362058Y351809D01*
X362088Y351827D01*
X362120Y351840D01*
X362280Y351944D01*
X362443Y352043D01*
X362469Y352066D01*
X362498Y352085D01*
X362732Y352291D01*
X364700Y354259D01*
X371963Y361522D01*
X374535Y362588D01*
X374678Y362600D01*
X374843Y362607D01*
X374902Y362620D01*
X374963Y362626D01*
X375122Y362669D01*
X375282Y362705D01*
X375339Y362728D01*
X375397Y362744D01*
X375546Y362815D01*
X375698Y362878D01*
X375749Y362911D01*
X375804Y362938D01*
X375938Y363033D01*
X376076Y363123D01*
X376134Y363174D01*
X376170Y363200D01*
X376213Y363243D01*
X376310Y363329D01*
X394725Y381744D01*
X394748Y381771D01*
X394773Y381794D01*
X394891Y381943D01*
X395014Y382090D01*
X395031Y382120D01*
X395053Y382147D01*
X395142Y382314D01*
X395237Y382481D01*
X395249Y382513D01*
X395265Y382544D01*
X395324Y382725D01*
X395388Y382905D01*
X395394Y382939D01*
X395405Y382972D01*
X395431Y383161D01*
X395462Y383349D01*
X395461Y383384D01*
X395466Y383418D01*
X395458Y383609D01*
X395456Y383800D01*
X395449Y383834D01*
X395448Y383868D01*
X395406Y384054D01*
X395370Y384242D01*
X395358Y384274D01*
X395350Y384308D01*
X395277Y384484D01*
X395208Y384662D01*
X395190Y384691D01*
X395176Y384723D01*
X395073Y384883D01*
X394974Y385046D01*
X394951Y385072D01*
X394932Y385101D01*
X394725Y385336D01*
X383549Y396512D01*
X383423Y396617D01*
X383302Y396729D01*
X383251Y396761D01*
X383204Y396800D01*
X383061Y396882D01*
X382922Y396970D01*
X382866Y396994D01*
X382813Y397024D01*
X382658Y397079D01*
X382506Y397141D01*
X382446Y397154D01*
X382389Y397175D01*
X382226Y397201D01*
X382066Y397236D01*
X381989Y397241D01*
X381944Y397248D01*
X381883Y397247D01*
X381754Y397255D01*
X377458Y397255D01*
X377328Y397244D01*
X377198Y397242D01*
X377104Y397224D01*
X377009Y397215D01*
X376884Y397181D01*
X376756Y397156D01*
X376667Y397122D01*
X376575Y397097D01*
X376458Y397041D01*
X376336Y396994D01*
X376254Y396944D01*
X376168Y396903D01*
X376063Y396828D01*
X375951Y396760D01*
X375880Y396697D01*
X375802Y396641D01*
X375711Y396548D01*
X375614Y396462D01*
X375555Y396387D01*
X375488Y396319D01*
X375415Y396211D01*
X375334Y396109D01*
X375289Y396025D01*
X375236Y395946D01*
X375183Y395827D01*
X375122Y395712D01*
X375092Y395621D01*
X375054Y395534D01*
X375023Y395407D01*
X374983Y395284D01*
X374970Y395189D01*
X374947Y395096D01*
X374939Y394967D01*
X374921Y394838D01*
X374925Y394742D01*
X374919Y394647D01*
X374934Y394518D01*
X374940Y394388D01*
X374960Y394295D01*
X374971Y394200D01*
X375009Y394075D01*
X375037Y393948D01*
X375074Y393860D01*
X375102Y393769D01*
X375161Y393653D01*
X375211Y393533D01*
X375263Y393453D01*
X375306Y393367D01*
X375385Y393264D01*
X375455Y393155D01*
X375541Y393057D01*
X375578Y393009D01*
X375611Y392978D01*
X375662Y392920D01*
X377445Y391138D01*
X377445Y383562D01*
X372088Y378205D01*
X364512Y378205D01*
X359155Y383562D01*
X359155Y391138D01*
X359544Y391526D01*
X359566Y391553D01*
X359592Y391576D01*
X359710Y391725D01*
X359832Y391871D01*
X359850Y391901D01*
X359871Y391929D01*
X359961Y392097D01*
X360056Y392262D01*
X360067Y392295D01*
X360084Y392326D01*
X360143Y392507D01*
X360207Y392687D01*
X360212Y392721D01*
X360223Y392754D01*
X360249Y392944D01*
X360280Y393131D01*
X360280Y393165D01*
X360284Y393200D01*
X360277Y393390D01*
X360274Y393581D01*
X360267Y393615D01*
X360266Y393650D01*
X360225Y393836D01*
X360188Y394023D01*
X360176Y394055D01*
X360168Y394089D01*
X360095Y394265D01*
X360026Y394443D01*
X360008Y394473D01*
X359995Y394505D01*
X359891Y394665D01*
X359792Y394828D01*
X359769Y394854D01*
X359750Y394883D01*
X359544Y395117D01*
X358149Y396512D01*
X358023Y396617D01*
X357902Y396729D01*
X357850Y396761D01*
X357804Y396800D01*
X357661Y396882D01*
X357522Y396970D01*
X357466Y396994D01*
X357413Y397024D01*
X357258Y397079D01*
X357106Y397141D01*
X357046Y397154D01*
X356989Y397175D01*
X356826Y397201D01*
X356666Y397236D01*
X356589Y397241D01*
X356544Y397248D01*
X356483Y397247D01*
X356354Y397255D01*
X351812Y397255D01*
X346455Y402612D01*
X346455Y410188D01*
X351812Y415545D01*
X359436Y415545D01*
X359486Y415503D01*
X359516Y415485D01*
X359544Y415464D01*
X359712Y415374D01*
X359877Y415279D01*
X359910Y415268D01*
X359941Y415251D01*
X360122Y415192D01*
X360302Y415128D01*
X360336Y415123D01*
X360369Y415112D01*
X360558Y415086D01*
X360746Y415055D01*
X360780Y415055D01*
X360815Y415051D01*
X361006Y415058D01*
X361196Y415061D01*
X361230Y415068D01*
X361265Y415069D01*
X361451Y415110D01*
X361638Y415147D01*
X361671Y415159D01*
X361704Y415167D01*
X361880Y415240D01*
X362058Y415309D01*
X362088Y415327D01*
X362120Y415340D01*
X362280Y415444D01*
X362443Y415543D01*
X362469Y415566D01*
X362498Y415585D01*
X362732Y415791D01*
X364700Y417759D01*
X371963Y425022D01*
X374530Y426086D01*
X387470Y426086D01*
X390037Y425022D01*
X392359Y422700D01*
X415399Y399660D01*
X415499Y399576D01*
X415592Y399486D01*
X415672Y399432D01*
X415745Y399371D01*
X415858Y399306D01*
X415965Y399234D01*
X416053Y399195D01*
X416136Y399148D01*
X416258Y399104D01*
X416377Y399051D01*
X416470Y399029D01*
X416560Y398997D01*
X416689Y398975D01*
X416815Y398945D01*
X416910Y398939D01*
X417004Y398923D01*
X417135Y398925D01*
X417264Y398917D01*
X417359Y398928D01*
X417455Y398929D01*
X417582Y398954D01*
X417711Y398969D01*
X417803Y398997D01*
X417897Y399015D01*
X418018Y399062D01*
X418142Y399099D01*
X418227Y399143D01*
X418317Y399177D01*
X418428Y399245D01*
X418544Y399304D01*
X418620Y399361D01*
X418701Y399411D01*
X418799Y399497D01*
X418902Y399576D01*
X418967Y399646D01*
X419039Y399709D01*
X419119Y399811D01*
X419208Y399907D01*
X419259Y399988D01*
X419318Y400062D01*
X419379Y400177D01*
X419449Y400287D01*
X419486Y400375D01*
X419531Y400459D01*
X419571Y400583D01*
X419620Y400703D01*
X419640Y400797D01*
X419670Y400888D01*
X419688Y401016D01*
X419715Y401143D01*
X419723Y401273D01*
X419731Y401334D01*
X419730Y401378D01*
X419734Y401455D01*
X419734Y471035D01*
X419731Y471067D01*
X419733Y471099D01*
X419719Y471225D01*
X419713Y471363D01*
X419700Y471422D01*
X419694Y471483D01*
X419684Y471520D01*
X419681Y471546D01*
X419648Y471657D01*
X419615Y471802D01*
X419592Y471859D01*
X419576Y471917D01*
X419557Y471957D01*
X419551Y471977D01*
X419503Y472071D01*
X419442Y472218D01*
X419409Y472269D01*
X419382Y472324D01*
X419354Y472364D01*
X419347Y472378D01*
X419294Y472448D01*
X419287Y472458D01*
X419197Y472596D01*
X419146Y472654D01*
X419120Y472690D01*
X419081Y472728D01*
X419075Y472737D01*
X419065Y472746D01*
X418991Y472830D01*
X413178Y478643D01*
X412114Y481210D01*
X412114Y486530D01*
X413178Y489097D01*
X424071Y499990D01*
X424176Y500116D01*
X424288Y500237D01*
X424320Y500288D01*
X424359Y500335D01*
X424441Y500478D01*
X424529Y500617D01*
X424553Y500673D01*
X424583Y500726D01*
X424638Y500881D01*
X424700Y501033D01*
X424713Y501093D01*
X424734Y501150D01*
X424760Y501313D01*
X424795Y501473D01*
X424800Y501550D01*
X424807Y501595D01*
X424806Y501656D01*
X424813Y501767D01*
X425516Y503463D01*
X425565Y503621D01*
X425622Y503775D01*
X425632Y503835D01*
X425651Y503893D01*
X425671Y504056D01*
X425700Y504218D01*
X425700Y504279D01*
X425707Y504340D01*
X425699Y504504D01*
X425698Y504668D01*
X425687Y504729D01*
X425684Y504789D01*
X425647Y504949D01*
X425618Y505111D01*
X425592Y505185D01*
X425582Y505228D01*
X425558Y505284D01*
X425516Y505407D01*
X425195Y506181D01*
X425195Y509819D01*
X426587Y513180D01*
X429160Y515753D01*
X432521Y517145D01*
X436159Y517145D01*
X439520Y515753D01*
X442104Y513169D01*
X442116Y513136D01*
X442191Y513014D01*
X442257Y512887D01*
X442307Y512822D01*
X442350Y512752D01*
X442445Y512645D01*
X442533Y512531D01*
X442594Y512476D01*
X442648Y512414D01*
X442761Y512326D01*
X442867Y512230D01*
X442937Y512186D01*
X443002Y512135D01*
X443128Y512067D01*
X443249Y511992D01*
X443326Y511961D01*
X443398Y511922D01*
X443535Y511878D01*
X443667Y511825D01*
X443748Y511809D01*
X443827Y511783D01*
X443969Y511764D01*
X444109Y511735D01*
X444191Y511733D01*
X444273Y511722D01*
X444416Y511728D01*
X444559Y511724D01*
X444640Y511737D01*
X444723Y511740D01*
X444862Y511771D01*
X445004Y511793D01*
X445082Y511820D01*
X445162Y511838D01*
X445294Y511893D01*
X445430Y511939D01*
X445502Y511980D01*
X445578Y512011D01*
X445698Y512089D01*
X445823Y512159D01*
X445887Y512211D01*
X445956Y512256D01*
X446141Y512419D01*
X446171Y512444D01*
X446178Y512452D01*
X446190Y512463D01*
X450872Y517145D01*
X452121Y517145D01*
X452121Y508000D01*
X452121Y498855D01*
X450872Y498855D01*
X446190Y503537D01*
X446127Y503590D01*
X446070Y503650D01*
X445954Y503735D01*
X445845Y503826D01*
X445773Y503867D01*
X445706Y503916D01*
X445578Y503979D01*
X445454Y504050D01*
X445376Y504077D01*
X445302Y504113D01*
X445164Y504153D01*
X445029Y504201D01*
X444948Y504214D01*
X444869Y504236D01*
X444726Y504251D01*
X444585Y504274D01*
X444503Y504273D01*
X444421Y504281D01*
X444278Y504270D01*
X444135Y504268D01*
X444054Y504252D01*
X443972Y504246D01*
X443834Y504210D01*
X443693Y504182D01*
X443616Y504153D01*
X443536Y504132D01*
X443406Y504072D01*
X443273Y504020D01*
X443202Y503977D01*
X443128Y503943D01*
X443010Y503861D01*
X442888Y503786D01*
X442826Y503732D01*
X442759Y503684D01*
X442658Y503583D01*
X442551Y503488D01*
X442500Y503423D01*
X442441Y503365D01*
X442360Y503247D01*
X442271Y503135D01*
X442232Y503062D01*
X442186Y502994D01*
X442108Y502835D01*
X442053Y502780D01*
X441977Y502690D01*
X441895Y502607D01*
X441833Y502518D01*
X441764Y502435D01*
X441706Y502333D01*
X441639Y502237D01*
X441571Y502098D01*
X441540Y502044D01*
X441528Y502009D01*
X441502Y501956D01*
X440262Y498963D01*
X439529Y498230D01*
X439424Y498104D01*
X439312Y497983D01*
X439280Y497932D01*
X439241Y497885D01*
X439159Y497742D01*
X439071Y497603D01*
X439047Y497547D01*
X439017Y497494D01*
X438962Y497339D01*
X438929Y497257D01*
X438921Y497240D01*
X438920Y497237D01*
X438900Y497187D01*
X438887Y497127D01*
X438866Y497070D01*
X438840Y496907D01*
X438837Y496895D01*
X438814Y496803D01*
X438813Y496785D01*
X438805Y496747D01*
X438800Y496670D01*
X438793Y496625D01*
X438794Y496564D01*
X438787Y496453D01*
X437722Y493883D01*
X429505Y485666D01*
X429483Y485639D01*
X429457Y485616D01*
X429339Y485467D01*
X429216Y485320D01*
X429199Y485290D01*
X429177Y485263D01*
X429087Y485095D01*
X428993Y484929D01*
X428981Y484897D01*
X428965Y484866D01*
X428906Y484685D01*
X428842Y484505D01*
X428836Y484471D01*
X428825Y484438D01*
X428799Y484249D01*
X428768Y484061D01*
X428769Y484026D01*
X428764Y483992D01*
X428772Y483801D01*
X428774Y483610D01*
X428781Y483576D01*
X428782Y483542D01*
X428824Y483356D01*
X428860Y483168D01*
X428872Y483136D01*
X428880Y483102D01*
X428953Y482927D01*
X429022Y482748D01*
X429040Y482719D01*
X429054Y482687D01*
X429157Y482527D01*
X429256Y482364D01*
X429279Y482338D01*
X429298Y482309D01*
X429505Y482074D01*
X432642Y478937D01*
X433706Y476370D01*
X433706Y338970D01*
X432642Y336403D01*
X397657Y301418D01*
X395412Y300488D01*
X395339Y300450D01*
X395262Y300420D01*
X395139Y300345D01*
X395012Y300279D01*
X394947Y300229D01*
X394877Y300186D01*
X394770Y300091D01*
X394656Y300003D01*
X394601Y299942D01*
X394540Y299888D01*
X394451Y299776D01*
X394355Y299669D01*
X394311Y299599D01*
X394260Y299535D01*
X394193Y299409D01*
X394117Y299287D01*
X394086Y299210D01*
X394048Y299138D01*
X394003Y299002D01*
X393950Y298869D01*
X393934Y298788D01*
X393908Y298709D01*
X393889Y298568D01*
X393860Y298427D01*
X393858Y298345D01*
X393847Y298263D01*
X393853Y298120D01*
X393849Y297977D01*
X393862Y297896D01*
X393865Y297814D01*
X393896Y297674D01*
X393918Y297532D01*
X393945Y297454D01*
X393963Y297374D01*
X394018Y297242D01*
X394065Y297106D01*
X394105Y297035D01*
X394136Y296959D01*
X394214Y296838D01*
X394284Y296713D01*
X394336Y296649D01*
X394381Y296580D01*
X394544Y296395D01*
X394569Y296365D01*
X394577Y296358D01*
X394588Y296346D01*
X430004Y260929D01*
X430031Y260907D01*
X430054Y260881D01*
X430203Y260764D01*
X430350Y260641D01*
X430380Y260623D01*
X430407Y260602D01*
X430575Y260512D01*
X430741Y260417D01*
X430773Y260406D01*
X430804Y260389D01*
X430985Y260330D01*
X431165Y260266D01*
X431199Y260261D01*
X431232Y260250D01*
X431421Y260224D01*
X431609Y260193D01*
X431644Y260193D01*
X431678Y260189D01*
X431869Y260196D01*
X432060Y260199D01*
X432094Y260206D01*
X432128Y260207D01*
X432314Y260248D01*
X432502Y260285D01*
X432534Y260297D01*
X432568Y260305D01*
X432744Y260378D01*
X432922Y260447D01*
X432951Y260465D01*
X432983Y260478D01*
X433143Y260582D01*
X433306Y260681D01*
X433332Y260704D01*
X433361Y260722D01*
X433596Y260929D01*
X455186Y282519D01*
X455291Y282646D01*
X455403Y282767D01*
X455435Y282818D01*
X455474Y282865D01*
X455556Y283008D01*
X455644Y283146D01*
X455668Y283203D01*
X455698Y283256D01*
X455753Y283411D01*
X455815Y283563D01*
X455828Y283623D01*
X455849Y283680D01*
X455875Y283842D01*
X455910Y284003D01*
X455915Y284080D01*
X455922Y284124D01*
X455921Y284185D01*
X455929Y284315D01*
X455929Y315125D01*
X455915Y315289D01*
X455908Y315453D01*
X455895Y315513D01*
X455889Y315574D01*
X455846Y315732D01*
X455810Y315893D01*
X455787Y315949D01*
X455771Y316008D01*
X455700Y316156D01*
X455637Y316308D01*
X455604Y316360D01*
X455577Y316415D01*
X455482Y316548D01*
X455392Y316686D01*
X455341Y316744D01*
X455315Y316781D01*
X455272Y316823D01*
X455186Y316921D01*
X443976Y328130D01*
X440689Y336065D01*
X440689Y352275D01*
X443976Y360210D01*
X470591Y386824D01*
X470674Y386924D01*
X470765Y387017D01*
X470818Y387097D01*
X470880Y387170D01*
X470944Y387283D01*
X471017Y387390D01*
X471055Y387478D01*
X471103Y387561D01*
X471146Y387683D01*
X471199Y387802D01*
X471222Y387895D01*
X471254Y387985D01*
X471275Y388114D01*
X471306Y388240D01*
X471312Y388335D01*
X471327Y388429D01*
X471325Y388560D01*
X471333Y388689D01*
X471322Y388784D01*
X471321Y388880D01*
X471296Y389007D01*
X471281Y389136D01*
X471254Y389228D01*
X471235Y389322D01*
X471189Y389443D01*
X471151Y389567D01*
X471108Y389652D01*
X471073Y389742D01*
X471006Y389853D01*
X470947Y389969D01*
X470889Y390045D01*
X470839Y390126D01*
X470753Y390224D01*
X470675Y390327D01*
X470604Y390392D01*
X470541Y390464D01*
X470439Y390544D01*
X470344Y390633D01*
X470263Y390684D01*
X470188Y390743D01*
X470073Y390804D01*
X469964Y390874D01*
X469875Y390911D01*
X469791Y390956D01*
X469667Y390996D01*
X469547Y391045D01*
X469454Y391065D01*
X469363Y391095D01*
X469234Y391113D01*
X469107Y391140D01*
X468977Y391148D01*
X468917Y391156D01*
X468872Y391155D01*
X468795Y391159D01*
X466868Y391159D01*
X461267Y393480D01*
X456980Y397767D01*
X454659Y403368D01*
X454659Y409432D01*
X456980Y415033D01*
X486667Y444720D01*
X492268Y447041D01*
X532295Y447041D01*
X532424Y447052D01*
X532555Y447054D01*
X532648Y447072D01*
X532744Y447081D01*
X532869Y447115D01*
X532997Y447140D01*
X533086Y447174D01*
X533178Y447199D01*
X533295Y447255D01*
X533417Y447302D01*
X533499Y447352D01*
X533585Y447393D01*
X533690Y447468D01*
X533801Y447536D01*
X533873Y447599D01*
X533951Y447655D01*
X534042Y447748D01*
X534139Y447834D01*
X534198Y447909D01*
X534265Y447977D01*
X534338Y448085D01*
X534418Y448187D01*
X534463Y448271D01*
X534517Y448350D01*
X534569Y448469D01*
X534631Y448584D01*
X534660Y448675D01*
X534699Y448762D01*
X534730Y448889D01*
X534770Y449012D01*
X534783Y449107D01*
X534806Y449200D01*
X534814Y449329D01*
X534831Y449458D01*
X534828Y449554D01*
X534833Y449649D01*
X534818Y449778D01*
X534813Y449908D01*
X534792Y450001D01*
X534781Y450096D01*
X534744Y450221D01*
X534715Y450348D01*
X534679Y450436D01*
X534651Y450527D01*
X534592Y450643D01*
X534542Y450763D01*
X534490Y450844D01*
X534447Y450929D01*
X534368Y451032D01*
X534298Y451141D01*
X534211Y451239D01*
X534175Y451287D01*
X534142Y451318D01*
X534091Y451376D01*
X512501Y472966D01*
X512374Y473071D01*
X512253Y473183D01*
X512202Y473215D01*
X512155Y473254D01*
X512012Y473336D01*
X511874Y473424D01*
X511817Y473448D01*
X511764Y473478D01*
X511609Y473533D01*
X511457Y473595D01*
X511397Y473608D01*
X511340Y473629D01*
X511178Y473655D01*
X511017Y473690D01*
X510940Y473695D01*
X510896Y473702D01*
X510835Y473701D01*
X510705Y473709D01*
X503705Y473709D01*
X495770Y476996D01*
X489696Y483070D01*
X486409Y491005D01*
X486409Y499643D01*
X486410Y499647D01*
X486475Y499847D01*
X486477Y499860D01*
X486481Y499872D01*
X486508Y500083D01*
X486537Y500293D01*
X486536Y500306D01*
X486538Y500319D01*
X486527Y500529D01*
X486518Y500743D01*
X486516Y500756D01*
X486515Y500769D01*
X486467Y500974D01*
X486421Y501182D01*
X486416Y501194D01*
X486413Y501207D01*
X486329Y501403D01*
X486247Y501598D01*
X486240Y501609D01*
X486235Y501621D01*
X486118Y501797D01*
X486003Y501976D01*
X485992Y501988D01*
X485987Y501997D01*
X485960Y502025D01*
X485796Y502210D01*
X482076Y505930D01*
X480474Y509799D01*
X480419Y509903D01*
X480374Y510011D01*
X480315Y510102D01*
X480265Y510198D01*
X480193Y510291D01*
X480130Y510389D01*
X480028Y510505D01*
X479989Y510554D01*
X479962Y510579D01*
X479923Y510623D01*
X466699Y523847D01*
X466609Y523922D01*
X466527Y524004D01*
X466437Y524066D01*
X466354Y524136D01*
X466252Y524194D01*
X466156Y524260D01*
X466017Y524328D01*
X465963Y524359D01*
X465929Y524371D01*
X465875Y524397D01*
X457670Y527796D01*
X413496Y571970D01*
X410209Y579905D01*
X410209Y587240D01*
X410198Y587369D01*
X410196Y587499D01*
X410178Y587593D01*
X410169Y587688D01*
X410135Y587814D01*
X410110Y587941D01*
X410076Y588030D01*
X410051Y588123D01*
X409995Y588240D01*
X409948Y588361D01*
X409898Y588443D01*
X409857Y588529D01*
X409782Y588635D01*
X409714Y588746D01*
X409651Y588818D01*
X409595Y588895D01*
X409502Y588986D01*
X409416Y589083D01*
X409341Y589142D01*
X409273Y589209D01*
X409165Y589282D01*
X409063Y589363D01*
X408979Y589408D01*
X408900Y589461D01*
X408781Y589514D01*
X408666Y589575D01*
X408575Y589605D01*
X408488Y589644D01*
X408361Y589674D01*
X408238Y589715D01*
X408143Y589728D01*
X408050Y589750D01*
X407921Y589758D01*
X407792Y589776D01*
X407696Y589772D01*
X407601Y589778D01*
X407472Y589763D01*
X407342Y589758D01*
X407249Y589737D01*
X407154Y589726D01*
X407029Y589688D01*
X406902Y589660D01*
X406814Y589623D01*
X406723Y589596D01*
X406607Y589537D01*
X406487Y589486D01*
X406407Y589435D01*
X406321Y589391D01*
X406218Y589313D01*
X406109Y589242D01*
X406011Y589156D01*
X405963Y589119D01*
X405932Y589086D01*
X405874Y589035D01*
X397439Y580600D01*
X395117Y578278D01*
X392550Y577214D01*
X387999Y577214D01*
X387835Y577200D01*
X387670Y577193D01*
X387611Y577180D01*
X387550Y577174D01*
X387391Y577131D01*
X387231Y577095D01*
X387175Y577072D01*
X387116Y577056D01*
X386967Y576985D01*
X386815Y576922D01*
X386764Y576889D01*
X386709Y576862D01*
X386576Y576767D01*
X386437Y576677D01*
X386380Y576626D01*
X386343Y576600D01*
X386300Y576557D01*
X386203Y576471D01*
X384788Y575055D01*
X377212Y575055D01*
X371855Y580412D01*
X371855Y587988D01*
X377212Y593345D01*
X384788Y593345D01*
X385811Y592321D01*
X385838Y592299D01*
X385861Y592273D01*
X386010Y592155D01*
X386156Y592033D01*
X386187Y592015D01*
X386214Y591994D01*
X386382Y591904D01*
X386547Y591809D01*
X386580Y591798D01*
X386611Y591781D01*
X386792Y591722D01*
X386972Y591658D01*
X387006Y591653D01*
X387039Y591642D01*
X387228Y591616D01*
X387416Y591585D01*
X387450Y591585D01*
X387485Y591581D01*
X387676Y591588D01*
X387866Y591591D01*
X387900Y591598D01*
X387935Y591599D01*
X388121Y591640D01*
X388308Y591677D01*
X388341Y591689D01*
X388374Y591697D01*
X388551Y591770D01*
X388728Y591839D01*
X388758Y591857D01*
X388790Y591870D01*
X388950Y591974D01*
X389113Y592073D01*
X389139Y592096D01*
X389168Y592115D01*
X389402Y592321D01*
X454551Y657470D01*
X454656Y657596D01*
X454768Y657717D01*
X454800Y657768D01*
X454839Y657815D01*
X454921Y657958D01*
X455009Y658097D01*
X455033Y658153D01*
X455063Y658206D01*
X455118Y658361D01*
X455180Y658513D01*
X455193Y658573D01*
X455214Y658630D01*
X455240Y658793D01*
X455275Y658953D01*
X455280Y659030D01*
X455287Y659075D01*
X455286Y659136D01*
X455294Y659265D01*
X455294Y694555D01*
X455280Y694718D01*
X455273Y694883D01*
X455260Y694942D01*
X455254Y695003D01*
X455211Y695162D01*
X455175Y695322D01*
X455152Y695379D01*
X455136Y695437D01*
X455065Y695586D01*
X455002Y695738D01*
X454969Y695789D01*
X454942Y695844D01*
X454847Y695978D01*
X454757Y696116D01*
X454706Y696174D01*
X454680Y696210D01*
X454637Y696253D01*
X454551Y696350D01*
X373770Y777131D01*
X373644Y777236D01*
X373523Y777348D01*
X373472Y777380D01*
X373425Y777419D01*
X373282Y777501D01*
X373143Y777589D01*
X373087Y777613D01*
X373034Y777643D01*
X372879Y777698D01*
X372727Y777760D01*
X372667Y777773D01*
X372610Y777794D01*
X372447Y777820D01*
X372287Y777855D01*
X372210Y777860D01*
X372165Y777867D01*
X372104Y777866D01*
X371975Y777874D01*
X367505Y777874D01*
X367294Y777855D01*
X367083Y777839D01*
X367070Y777836D01*
X367057Y777834D01*
X366851Y777778D01*
X366647Y777725D01*
X366635Y777719D01*
X366622Y777716D01*
X366432Y777625D01*
X366238Y777536D01*
X366227Y777528D01*
X366216Y777522D01*
X366044Y777400D01*
X365870Y777277D01*
X365860Y777268D01*
X365850Y777260D01*
X365701Y777108D01*
X365552Y776958D01*
X365545Y776947D01*
X365536Y776938D01*
X365417Y776762D01*
X365296Y776588D01*
X365289Y776573D01*
X365283Y776565D01*
X365268Y776529D01*
X365159Y776307D01*
X364214Y774024D01*
X361356Y771166D01*
X357621Y769619D01*
X353579Y769619D01*
X349844Y771166D01*
X346986Y774024D01*
X345439Y777759D01*
X345439Y797041D01*
X346986Y800776D01*
X349844Y803634D01*
X353579Y805181D01*
X357621Y805181D01*
X361356Y803634D01*
X364214Y800776D01*
X365761Y797041D01*
X365761Y795790D01*
X365775Y795627D01*
X365782Y795462D01*
X365795Y795403D01*
X365801Y795342D01*
X365844Y795183D01*
X365880Y795023D01*
X365903Y794966D01*
X365919Y794908D01*
X365990Y794759D01*
X366053Y794607D01*
X366086Y794556D01*
X366113Y794501D01*
X366208Y794367D01*
X366298Y794229D01*
X366349Y794171D01*
X366375Y794135D01*
X366418Y794092D01*
X366504Y793995D01*
X367910Y792589D01*
X368036Y792484D01*
X368157Y792372D01*
X368208Y792340D01*
X368255Y792301D01*
X368398Y792219D01*
X368537Y792131D01*
X368593Y792107D01*
X368646Y792077D01*
X368801Y792022D01*
X368953Y791960D01*
X369013Y791947D01*
X369070Y791926D01*
X369233Y791900D01*
X369393Y791865D01*
X369470Y791860D01*
X369515Y791853D01*
X369576Y791854D01*
X369705Y791846D01*
X377310Y791846D01*
X379877Y790782D01*
X468202Y702457D01*
X469266Y699890D01*
X469266Y653930D01*
X468202Y651363D01*
X465880Y649041D01*
X426965Y610126D01*
X426881Y610026D01*
X426791Y609933D01*
X426737Y609853D01*
X426676Y609780D01*
X426611Y609667D01*
X426539Y609560D01*
X426500Y609472D01*
X426453Y609389D01*
X426409Y609267D01*
X426356Y609148D01*
X426334Y609055D01*
X426302Y608965D01*
X426280Y608836D01*
X426250Y608710D01*
X426244Y608615D01*
X426228Y608521D01*
X426230Y608390D01*
X426222Y608261D01*
X426233Y608166D01*
X426234Y608070D01*
X426259Y607943D01*
X426274Y607814D01*
X426302Y607722D01*
X426320Y607628D01*
X426367Y607507D01*
X426404Y607383D01*
X426448Y607298D01*
X426482Y607208D01*
X426550Y607097D01*
X426609Y606981D01*
X426666Y606905D01*
X426716Y606824D01*
X426802Y606726D01*
X426881Y606623D01*
X426951Y606558D01*
X427014Y606486D01*
X427116Y606406D01*
X427212Y606317D01*
X427293Y606266D01*
X427367Y606207D01*
X427482Y606146D01*
X427592Y606076D01*
X427680Y606039D01*
X427764Y605994D01*
X427888Y605954D01*
X428008Y605905D01*
X428102Y605885D01*
X428193Y605855D01*
X428321Y605837D01*
X428448Y605810D01*
X428578Y605802D01*
X428639Y605794D01*
X428683Y605795D01*
X428760Y605791D01*
X436095Y605791D01*
X444030Y602504D01*
X478181Y568353D01*
X478271Y568278D01*
X478353Y568196D01*
X478443Y568134D01*
X478526Y568064D01*
X478628Y568006D01*
X478724Y567940D01*
X478863Y567872D01*
X478917Y567841D01*
X478951Y567829D01*
X479005Y567803D01*
X487210Y564404D01*
X518684Y532930D01*
X520286Y529061D01*
X520341Y528957D01*
X520386Y528849D01*
X520445Y528758D01*
X520495Y528662D01*
X520567Y528569D01*
X520630Y528471D01*
X520732Y528356D01*
X520771Y528306D01*
X520798Y528281D01*
X520837Y528237D01*
X521224Y527850D01*
X521963Y526066D01*
X522005Y525985D01*
X522039Y525900D01*
X522147Y525714D01*
X522171Y525667D01*
X522182Y525653D01*
X522196Y525630D01*
X526008Y519912D01*
X526097Y519801D01*
X526178Y519685D01*
X526237Y519626D01*
X526290Y519561D01*
X526397Y519468D01*
X526498Y519367D01*
X526566Y519320D01*
X526629Y519265D01*
X526751Y519192D01*
X526868Y519111D01*
X526967Y519063D01*
X527016Y519034D01*
X527064Y519016D01*
X527149Y518974D01*
X527850Y518684D01*
X564404Y482130D01*
X567691Y474195D01*
X567691Y465605D01*
X564404Y457670D01*
X558330Y451596D01*
X550395Y448309D01*
X544575Y448309D01*
X544445Y448298D01*
X544315Y448296D01*
X544222Y448278D01*
X544126Y448269D01*
X544001Y448235D01*
X543873Y448210D01*
X543784Y448176D01*
X543692Y448151D01*
X543575Y448095D01*
X543453Y448048D01*
X543371Y447998D01*
X543285Y447957D01*
X543180Y447882D01*
X543068Y447814D01*
X542997Y447751D01*
X542919Y447695D01*
X542828Y447602D01*
X542731Y447516D01*
X542672Y447441D01*
X542605Y447373D01*
X542532Y447265D01*
X542452Y447163D01*
X542406Y447079D01*
X542353Y447000D01*
X542300Y446881D01*
X542239Y446766D01*
X542209Y446675D01*
X542171Y446588D01*
X542140Y446461D01*
X542100Y446338D01*
X542087Y446243D01*
X542064Y446150D01*
X542056Y446021D01*
X542038Y445892D01*
X542042Y445796D01*
X542036Y445701D01*
X542051Y445572D01*
X542057Y445442D01*
X542077Y445349D01*
X542088Y445254D01*
X542126Y445129D01*
X542154Y445002D01*
X542191Y444914D01*
X542219Y444823D01*
X542278Y444707D01*
X542328Y444587D01*
X542380Y444507D01*
X542423Y444421D01*
X542502Y444318D01*
X542572Y444209D01*
X542658Y444111D01*
X542695Y444063D01*
X542728Y444032D01*
X542779Y443974D01*
X546677Y440076D01*
X546678Y440076D01*
X609820Y376933D01*
X612141Y371332D01*
X612141Y365268D01*
X609820Y359667D01*
X605533Y355380D01*
X599932Y353059D01*
X593868Y353059D01*
X588267Y355380D01*
X533393Y410254D01*
X533256Y410368D01*
X533125Y410487D01*
X533084Y410512D01*
X533047Y410543D01*
X532893Y410631D01*
X532742Y410724D01*
X532698Y410742D01*
X532656Y410766D01*
X532489Y410825D01*
X532324Y410891D01*
X532277Y410901D01*
X532232Y410917D01*
X532057Y410946D01*
X531883Y410981D01*
X531835Y410982D01*
X531788Y410990D01*
X531610Y410988D01*
X531433Y410992D01*
X531386Y410985D01*
X531338Y410984D01*
X531163Y410950D01*
X530988Y410923D01*
X530943Y410908D01*
X530896Y410899D01*
X530730Y410834D01*
X530562Y410777D01*
X530520Y410754D01*
X530476Y410736D01*
X530324Y410644D01*
X530169Y410558D01*
X530132Y410527D01*
X530091Y410502D01*
X529958Y410385D01*
X529820Y410272D01*
X529789Y410236D01*
X529753Y410204D01*
X529643Y410065D01*
X529528Y409930D01*
X529504Y409889D01*
X529474Y409851D01*
X529390Y409694D01*
X529301Y409541D01*
X529284Y409496D01*
X529261Y409454D01*
X529207Y409285D01*
X529145Y409119D01*
X529137Y409071D01*
X529122Y409026D01*
X529098Y408850D01*
X529067Y408675D01*
X529067Y408627D01*
X529061Y408580D01*
X529068Y408402D01*
X529069Y408225D01*
X529077Y408178D01*
X529079Y408130D01*
X529118Y407957D01*
X529150Y407782D01*
X529169Y407726D01*
X529177Y407690D01*
X529201Y407632D01*
X529251Y407486D01*
X532131Y400535D01*
X532131Y391945D01*
X528844Y384010D01*
X521279Y376446D01*
X521257Y376419D01*
X521231Y376396D01*
X521113Y376247D01*
X520991Y376100D01*
X520973Y376070D01*
X520952Y376043D01*
X520862Y375875D01*
X520767Y375709D01*
X520756Y375677D01*
X520739Y375646D01*
X520680Y375465D01*
X520616Y375285D01*
X520611Y375251D01*
X520600Y375218D01*
X520574Y375029D01*
X520543Y374841D01*
X520543Y374806D01*
X520539Y374772D01*
X520546Y374581D01*
X520549Y374390D01*
X520556Y374356D01*
X520557Y374322D01*
X520598Y374136D01*
X520635Y373948D01*
X520647Y373916D01*
X520655Y373882D01*
X520728Y373706D01*
X520797Y373528D01*
X520815Y373499D01*
X520828Y373467D01*
X520931Y373307D01*
X521031Y373144D01*
X521054Y373118D01*
X521072Y373089D01*
X521279Y372854D01*
X526304Y367830D01*
X529591Y359895D01*
X529591Y351305D01*
X526304Y343370D01*
X499854Y316921D01*
X499749Y316794D01*
X499637Y316673D01*
X499605Y316622D01*
X499566Y316575D01*
X499484Y316432D01*
X499396Y316294D01*
X499372Y316237D01*
X499342Y316184D01*
X499287Y316029D01*
X499225Y315877D01*
X499212Y315817D01*
X499191Y315760D01*
X499165Y315598D01*
X499130Y315437D01*
X499125Y315360D01*
X499118Y315316D01*
X499119Y315255D01*
X499111Y315125D01*
X499111Y270025D01*
X495824Y262090D01*
X464129Y230396D01*
X464107Y230369D01*
X464081Y230346D01*
X463964Y230197D01*
X463841Y230050D01*
X463823Y230020D01*
X463802Y229993D01*
X463712Y229825D01*
X463617Y229659D01*
X463606Y229627D01*
X463589Y229596D01*
X463530Y229415D01*
X463466Y229235D01*
X463461Y229201D01*
X463450Y229168D01*
X463424Y228979D01*
X463393Y228791D01*
X463393Y228756D01*
X463389Y228722D01*
X463396Y228531D01*
X463399Y228340D01*
X463406Y228306D01*
X463407Y228272D01*
X463448Y228086D01*
X463485Y227898D01*
X463497Y227866D01*
X463505Y227832D01*
X463578Y227656D01*
X463647Y227478D01*
X463665Y227449D01*
X463678Y227417D01*
X463782Y227257D01*
X463881Y227094D01*
X463904Y227068D01*
X463922Y227039D01*
X464129Y226804D01*
X464965Y225969D01*
X465120Y225840D01*
X465271Y225708D01*
X465296Y225692D01*
X465310Y225680D01*
X465357Y225653D01*
X465535Y225540D01*
X466297Y225121D01*
X468145Y222811D01*
X468175Y222779D01*
X468332Y222602D01*
X470424Y220510D01*
X470756Y219707D01*
X470850Y219528D01*
X470940Y219348D01*
X470956Y219325D01*
X470965Y219308D01*
X470998Y219265D01*
X471119Y219093D01*
X471895Y218124D01*
X471950Y218066D01*
X471998Y218003D01*
X472105Y217904D01*
X472206Y217798D01*
X472270Y217752D01*
X472329Y217697D01*
X472452Y217619D01*
X472570Y217533D01*
X472641Y217499D01*
X472709Y217456D01*
X472844Y217400D01*
X472975Y217337D01*
X473052Y217315D01*
X473125Y217285D01*
X473268Y217254D01*
X473408Y217214D01*
X473488Y217207D01*
X473566Y217190D01*
X473823Y217174D01*
X473856Y217171D01*
X473865Y217172D01*
X473877Y217171D01*
X524995Y217171D01*
X532930Y213884D01*
X577104Y169710D01*
X580503Y161505D01*
X580557Y161401D01*
X580602Y161293D01*
X580661Y161202D01*
X580711Y161106D01*
X580783Y161013D01*
X580846Y160915D01*
X580948Y160799D01*
X580987Y160750D01*
X581014Y160725D01*
X581053Y160681D01*
X581433Y160300D01*
X581456Y160282D01*
X581488Y160248D01*
X584362Y157540D01*
X584366Y157529D01*
X584441Y157413D01*
X584471Y157353D01*
X584485Y157335D01*
X584517Y157278D01*
X584568Y157217D01*
X584611Y157150D01*
X584714Y157034D01*
X584714Y157033D01*
X586230Y153374D01*
X586243Y153348D01*
X586260Y153305D01*
X588853Y147535D01*
X589109Y138950D01*
X586060Y130920D01*
X580170Y124668D01*
X572335Y121147D01*
X563750Y120891D01*
X555720Y123940D01*
X549468Y129830D01*
X548543Y131889D01*
X548504Y131958D01*
X548474Y132031D01*
X548394Y132155D01*
X548323Y132282D01*
X548272Y132343D01*
X548229Y132410D01*
X548057Y132605D01*
X548036Y132630D01*
X548030Y132635D01*
X548022Y132644D01*
X540496Y140170D01*
X537097Y148375D01*
X537043Y148479D01*
X536998Y148587D01*
X536939Y148678D01*
X536889Y148774D01*
X536817Y148867D01*
X536754Y148965D01*
X536652Y149081D01*
X536613Y149130D01*
X536586Y149155D01*
X536547Y149199D01*
X512501Y173246D01*
X512374Y173351D01*
X512253Y173463D01*
X512202Y173495D01*
X512155Y173534D01*
X512012Y173616D01*
X511874Y173704D01*
X511817Y173728D01*
X511764Y173758D01*
X511609Y173813D01*
X511457Y173875D01*
X511397Y173888D01*
X511340Y173909D01*
X511178Y173935D01*
X511017Y173970D01*
X510940Y173975D01*
X510896Y173982D01*
X510835Y173981D01*
X510705Y173989D01*
X472275Y173989D01*
X472111Y173975D01*
X471947Y173968D01*
X471887Y173955D01*
X471826Y173949D01*
X471668Y173906D01*
X471507Y173870D01*
X471451Y173847D01*
X471392Y173831D01*
X471244Y173760D01*
X471092Y173697D01*
X471040Y173664D01*
X470985Y173637D01*
X470852Y173542D01*
X470714Y173452D01*
X470656Y173401D01*
X470619Y173375D01*
X470577Y173332D01*
X470568Y173324D01*
X470567Y173323D01*
X470479Y173246D01*
X444030Y146796D01*
X436095Y143509D01*
X427505Y143509D01*
X419570Y146796D01*
X413496Y152870D01*
X410209Y160805D01*
X410209Y169395D01*
X413496Y177330D01*
X431221Y195054D01*
X431243Y195081D01*
X431269Y195104D01*
X431335Y195187D01*
X431335Y195188D01*
X431336Y195189D01*
X431386Y195253D01*
X431509Y195400D01*
X431527Y195430D01*
X431548Y195457D01*
X431638Y195625D01*
X431733Y195791D01*
X431744Y195823D01*
X431761Y195854D01*
X431820Y196035D01*
X431884Y196215D01*
X431889Y196249D01*
X431900Y196282D01*
X431926Y196471D01*
X431957Y196659D01*
X431957Y196694D01*
X431961Y196728D01*
X431954Y196919D01*
X431951Y197110D01*
X431944Y197144D01*
X431943Y197178D01*
X431902Y197364D01*
X431865Y197552D01*
X431853Y197584D01*
X431845Y197618D01*
X431772Y197794D01*
X431703Y197972D01*
X431685Y198001D01*
X431672Y198033D01*
X431568Y198193D01*
X431469Y198356D01*
X431446Y198382D01*
X431428Y198411D01*
X431221Y198646D01*
X419927Y209939D01*
X413139Y216727D01*
X362696Y267170D01*
X359409Y275105D01*
X359409Y282440D01*
X359398Y282569D01*
X359396Y282699D01*
X359378Y282793D01*
X359369Y282888D01*
X359335Y283014D01*
X359310Y283141D01*
X359276Y283230D01*
X359251Y283323D01*
X359195Y283440D01*
X359148Y283561D01*
X359098Y283643D01*
X359057Y283729D01*
X358982Y283835D01*
X358914Y283946D01*
X358851Y284018D01*
X358795Y284095D01*
X358702Y284186D01*
X358616Y284283D01*
X358541Y284343D01*
X358473Y284409D01*
X358365Y284482D01*
X358263Y284563D01*
X358179Y284608D01*
X358100Y284661D01*
X357981Y284714D01*
X357866Y284775D01*
X357775Y284805D01*
X357688Y284844D01*
X357561Y284874D01*
X357438Y284915D01*
X357343Y284928D01*
X357250Y284950D01*
X357121Y284958D01*
X356992Y284976D01*
X356896Y284972D01*
X356801Y284978D01*
X356672Y284963D01*
X356542Y284958D01*
X356449Y284937D01*
X356354Y284926D01*
X356229Y284888D01*
X356102Y284860D01*
X356014Y284823D01*
X355923Y284796D01*
X355807Y284737D01*
X355687Y284686D01*
X355607Y284635D01*
X355521Y284591D01*
X355418Y284513D01*
X355309Y284442D01*
X355211Y284356D01*
X355163Y284319D01*
X355132Y284286D01*
X355074Y284235D01*
X353169Y282330D01*
X353078Y282221D01*
X353047Y282189D01*
X353038Y282176D01*
X352952Y282083D01*
X352920Y282032D01*
X352881Y281985D01*
X352799Y281842D01*
X352711Y281703D01*
X352687Y281647D01*
X352657Y281594D01*
X352602Y281439D01*
X352540Y281287D01*
X352527Y281227D01*
X352506Y281170D01*
X352480Y281007D01*
X352445Y280847D01*
X352440Y280770D01*
X352433Y280725D01*
X352434Y280664D01*
X352426Y280535D01*
X352426Y275470D01*
X351362Y272903D01*
X321457Y242998D01*
X318890Y241934D01*
X274455Y241934D01*
X274326Y241923D01*
X274196Y241921D01*
X274102Y241903D01*
X274007Y241894D01*
X273881Y241860D01*
X273754Y241835D01*
X273665Y241801D01*
X273572Y241776D01*
X273455Y241720D01*
X273334Y241673D01*
X273252Y241623D01*
X273166Y241582D01*
X273060Y241507D01*
X272949Y241439D01*
X272877Y241376D01*
X272800Y241320D01*
X272709Y241227D01*
X272612Y241141D01*
X272553Y241066D01*
X272486Y240998D01*
X272413Y240890D01*
X272332Y240788D01*
X272287Y240704D01*
X272234Y240625D01*
X272181Y240506D01*
X272120Y240391D01*
X272090Y240300D01*
X272051Y240213D01*
X272021Y240086D01*
X271980Y239963D01*
X271967Y239868D01*
X271945Y239775D01*
X271937Y239646D01*
X271919Y239517D01*
X271923Y239421D01*
X271917Y239326D01*
X271932Y239197D01*
X271937Y239067D01*
X271958Y238974D01*
X271969Y238879D01*
X272007Y238754D01*
X272035Y238627D01*
X272072Y238539D01*
X272099Y238448D01*
X272158Y238332D01*
X272209Y238212D01*
X272260Y238131D01*
X272304Y238046D01*
X272382Y237943D01*
X272453Y237834D01*
X272539Y237736D01*
X272576Y237688D01*
X272609Y237657D01*
X272660Y237599D01*
X313262Y196997D01*
X314328Y194425D01*
X314340Y194282D01*
X314347Y194117D01*
X314360Y194058D01*
X314366Y193997D01*
X314409Y193838D01*
X314445Y193678D01*
X314468Y193621D01*
X314484Y193563D01*
X314555Y193414D01*
X314618Y193262D01*
X314651Y193211D01*
X314678Y193156D01*
X314773Y193022D01*
X314863Y192884D01*
X314914Y192826D01*
X314940Y192790D01*
X314983Y192747D01*
X315069Y192650D01*
X320882Y186837D01*
X321016Y186514D01*
X321054Y186441D01*
X321084Y186364D01*
X321158Y186242D01*
X321225Y186115D01*
X321275Y186050D01*
X321318Y185979D01*
X321413Y185872D01*
X321500Y185759D01*
X321561Y185704D01*
X321616Y185642D01*
X321728Y185553D01*
X321835Y185457D01*
X321905Y185414D01*
X321969Y185363D01*
X322095Y185295D01*
X322217Y185219D01*
X322294Y185189D01*
X322366Y185150D01*
X322502Y185106D01*
X322635Y185053D01*
X322716Y185036D01*
X322794Y185011D01*
X322936Y184991D01*
X323076Y184963D01*
X323159Y184961D01*
X323240Y184949D01*
X323384Y184955D01*
X323526Y184952D01*
X323608Y184964D01*
X323690Y184968D01*
X323830Y184999D01*
X323971Y185021D01*
X324049Y185047D01*
X324130Y185065D01*
X324262Y185120D01*
X324397Y185167D01*
X324469Y185207D01*
X324545Y185239D01*
X324666Y185317D01*
X324791Y185386D01*
X324854Y185438D01*
X324923Y185483D01*
X325108Y185647D01*
X325139Y185672D01*
X325146Y185680D01*
X325158Y185690D01*
X326412Y186945D01*
X333988Y186945D01*
X339345Y181588D01*
X339345Y174012D01*
X337929Y172597D01*
X337824Y172471D01*
X337712Y172350D01*
X337680Y172298D01*
X337641Y172252D01*
X337559Y172109D01*
X337471Y171970D01*
X337447Y171914D01*
X337417Y171861D01*
X337362Y171705D01*
X337300Y171553D01*
X337287Y171494D01*
X337266Y171436D01*
X337240Y171274D01*
X337205Y171113D01*
X337200Y171036D01*
X337193Y170992D01*
X337194Y170931D01*
X337186Y170801D01*
X337186Y166250D01*
X336122Y163683D01*
X330309Y157870D01*
X330204Y157744D01*
X330092Y157623D01*
X330060Y157572D01*
X330021Y157525D01*
X329939Y157382D01*
X329851Y157243D01*
X329827Y157187D01*
X329797Y157134D01*
X329742Y156979D01*
X329680Y156827D01*
X329667Y156767D01*
X329646Y156710D01*
X329620Y156547D01*
X329585Y156387D01*
X329580Y156310D01*
X329573Y156265D01*
X329574Y156204D01*
X329566Y156075D01*
X329566Y128150D01*
X328502Y125583D01*
X296057Y93138D01*
X293485Y92072D01*
X293342Y92060D01*
X293177Y92053D01*
X293118Y92040D01*
X293057Y92034D01*
X292898Y91991D01*
X292738Y91955D01*
X292681Y91932D01*
X292623Y91916D01*
X292474Y91845D01*
X292322Y91782D01*
X292271Y91749D01*
X292216Y91722D01*
X292082Y91627D01*
X291944Y91537D01*
X291886Y91486D01*
X291850Y91460D01*
X291807Y91417D01*
X291710Y91331D01*
X283357Y82978D01*
X280790Y81914D01*
X235085Y81914D01*
X234922Y81900D01*
X234757Y81893D01*
X234698Y81880D01*
X234637Y81874D01*
X234478Y81831D01*
X234318Y81795D01*
X234261Y81772D01*
X234203Y81756D01*
X234054Y81685D01*
X233902Y81622D01*
X233851Y81589D01*
X233796Y81562D01*
X233662Y81467D01*
X233524Y81377D01*
X233466Y81326D01*
X233430Y81300D01*
X233387Y81257D01*
X233290Y81171D01*
X222179Y70060D01*
X219857Y67738D01*
X218308Y67096D01*
X218140Y67008D01*
X217990Y66937D01*
X217965Y66919D01*
X217931Y66902D01*
X217921Y66894D01*
X217909Y66888D01*
X217760Y66772D01*
X217624Y66675D01*
X217602Y66652D01*
X217573Y66630D01*
X217564Y66620D01*
X217553Y66612D01*
X217428Y66473D01*
X217310Y66352D01*
X217292Y66326D01*
X217267Y66299D01*
X217260Y66288D01*
X217252Y66278D01*
X217154Y66121D01*
X217058Y65979D01*
X217045Y65949D01*
X217026Y65919D01*
X217021Y65907D01*
X217014Y65895D01*
X216946Y65726D01*
X216876Y65568D01*
X216868Y65535D01*
X216855Y65502D01*
X216852Y65489D01*
X216847Y65477D01*
X216811Y65300D01*
X216769Y65130D01*
X216767Y65096D01*
X216760Y65062D01*
X216759Y65046D01*
X216757Y65036D01*
X216756Y64997D01*
X216741Y64750D01*
X216741Y61556D01*
X213309Y53272D01*
X206968Y46931D01*
X198684Y43499D01*
X189716Y43499D01*
G37*
%LPD*%
%LPC*%
G36*
X188075Y533907D02*
X188075Y533907D01*
X183593Y535763D01*
X180986Y538371D01*
X180860Y538476D01*
X180739Y538588D01*
X180688Y538620D01*
X180641Y538659D01*
X180498Y538741D01*
X180359Y538829D01*
X180303Y538853D01*
X180250Y538883D01*
X180095Y538938D01*
X179943Y539000D01*
X179883Y539013D01*
X179826Y539034D01*
X179663Y539060D01*
X179503Y539095D01*
X179426Y539100D01*
X179382Y539107D01*
X179320Y539106D01*
X179191Y539114D01*
X173870Y539114D01*
X171303Y540178D01*
X162950Y548531D01*
X162824Y548636D01*
X162703Y548748D01*
X162652Y548780D01*
X162605Y548819D01*
X162462Y548901D01*
X162323Y548989D01*
X162267Y549013D01*
X162214Y549043D01*
X162059Y549098D01*
X161907Y549160D01*
X161847Y549173D01*
X161790Y549194D01*
X161627Y549220D01*
X161467Y549255D01*
X161389Y549260D01*
X161345Y549267D01*
X161285Y549266D01*
X161173Y549273D01*
X158603Y550338D01*
X141398Y567543D01*
X140334Y570110D01*
X140334Y684650D01*
X141398Y687217D01*
X152155Y697974D01*
X152239Y698074D01*
X152329Y698167D01*
X152383Y698247D01*
X152444Y698320D01*
X152509Y698433D01*
X152581Y698540D01*
X152620Y698628D01*
X152667Y698711D01*
X152711Y698833D01*
X152764Y698952D01*
X152786Y699045D01*
X152818Y699135D01*
X152839Y699263D01*
X152870Y699390D01*
X152876Y699485D01*
X152892Y699579D01*
X152890Y699709D01*
X152898Y699839D01*
X152887Y699934D01*
X152886Y700030D01*
X152861Y700157D01*
X152846Y700286D01*
X152818Y700378D01*
X152800Y700472D01*
X152753Y700593D01*
X152716Y700717D01*
X152672Y700802D01*
X152638Y700892D01*
X152570Y701003D01*
X152511Y701119D01*
X152454Y701195D01*
X152404Y701276D01*
X152318Y701374D01*
X152239Y701477D01*
X152169Y701542D01*
X152106Y701614D01*
X152004Y701694D01*
X151908Y701783D01*
X151828Y701834D01*
X151753Y701893D01*
X151638Y701954D01*
X151528Y702024D01*
X151440Y702061D01*
X151356Y702106D01*
X151232Y702146D01*
X151112Y702195D01*
X151018Y702215D01*
X150927Y702245D01*
X150799Y702263D01*
X150672Y702290D01*
X150542Y702298D01*
X150481Y702306D01*
X150437Y702305D01*
X150360Y702309D01*
X110005Y702309D01*
X102070Y705596D01*
X95996Y711670D01*
X92709Y719605D01*
X92709Y728195D01*
X95996Y736130D01*
X102070Y742204D01*
X110005Y745491D01*
X142405Y745491D01*
X142569Y745505D01*
X142733Y745512D01*
X142793Y745525D01*
X142854Y745531D01*
X143012Y745574D01*
X143173Y745610D01*
X143229Y745633D01*
X143288Y745649D01*
X143436Y745720D01*
X143588Y745783D01*
X143640Y745816D01*
X143695Y745843D01*
X143828Y745938D01*
X143966Y746028D01*
X144024Y746079D01*
X144061Y746105D01*
X144103Y746148D01*
X144201Y746234D01*
X171866Y773899D01*
X171971Y774026D01*
X172083Y774147D01*
X172115Y774198D01*
X172154Y774245D01*
X172236Y774388D01*
X172324Y774526D01*
X172348Y774583D01*
X172378Y774636D01*
X172433Y774791D01*
X172495Y774943D01*
X172508Y775002D01*
X172529Y775060D01*
X172555Y775222D01*
X172590Y775383D01*
X172595Y775460D01*
X172602Y775504D01*
X172601Y775565D01*
X172609Y775695D01*
X172609Y777578D01*
X172599Y777694D01*
X172599Y777811D01*
X172579Y777918D01*
X172569Y778026D01*
X172539Y778139D01*
X172518Y778254D01*
X172467Y778400D01*
X172451Y778461D01*
X172435Y778493D01*
X172416Y778550D01*
X171659Y780376D01*
X171659Y789344D01*
X175091Y797628D01*
X181432Y803969D01*
X189716Y807401D01*
X198684Y807401D01*
X206968Y803969D01*
X213309Y797628D01*
X216741Y789344D01*
X216741Y780376D01*
X215984Y778550D01*
X215949Y778438D01*
X215905Y778330D01*
X215882Y778224D01*
X215849Y778120D01*
X215835Y778004D01*
X215810Y777890D01*
X215800Y777736D01*
X215793Y777673D01*
X215794Y777637D01*
X215791Y777578D01*
X215791Y761405D01*
X212504Y753470D01*
X171394Y712361D01*
X171311Y712261D01*
X171220Y712168D01*
X171167Y712088D01*
X171105Y712015D01*
X171041Y711902D01*
X170968Y711795D01*
X170930Y711707D01*
X170882Y711624D01*
X170839Y711502D01*
X170786Y711383D01*
X170763Y711290D01*
X170731Y711200D01*
X170710Y711071D01*
X170679Y710945D01*
X170673Y710850D01*
X170658Y710756D01*
X170660Y710625D01*
X170652Y710496D01*
X170663Y710401D01*
X170664Y710305D01*
X170689Y710178D01*
X170704Y710049D01*
X170731Y709957D01*
X170750Y709863D01*
X170796Y709742D01*
X170834Y709618D01*
X170877Y709533D01*
X170912Y709443D01*
X170979Y709332D01*
X171038Y709216D01*
X171096Y709140D01*
X171146Y709059D01*
X171232Y708961D01*
X171310Y708858D01*
X171381Y708793D01*
X171444Y708721D01*
X171546Y708641D01*
X171641Y708552D01*
X171722Y708501D01*
X171797Y708442D01*
X171912Y708381D01*
X172021Y708311D01*
X172110Y708274D01*
X172194Y708229D01*
X172318Y708189D01*
X172438Y708140D01*
X172531Y708120D01*
X172622Y708090D01*
X172751Y708072D01*
X172878Y708045D01*
X173008Y708037D01*
X173068Y708029D01*
X173113Y708030D01*
X173190Y708026D01*
X176395Y708026D01*
X176558Y708040D01*
X176723Y708047D01*
X176782Y708060D01*
X176843Y708066D01*
X177002Y708109D01*
X177162Y708145D01*
X177219Y708168D01*
X177277Y708184D01*
X177426Y708255D01*
X177578Y708318D01*
X177629Y708351D01*
X177684Y708378D01*
X177818Y708473D01*
X177956Y708563D01*
X178014Y708614D01*
X178050Y708640D01*
X178093Y708683D01*
X178190Y708769D01*
X242423Y773002D01*
X244990Y774066D01*
X272915Y774066D01*
X273078Y774080D01*
X273243Y774087D01*
X273302Y774100D01*
X273363Y774106D01*
X273522Y774149D01*
X273682Y774185D01*
X273739Y774208D01*
X273797Y774224D01*
X273946Y774295D01*
X274098Y774358D01*
X274149Y774391D01*
X274204Y774418D01*
X274338Y774513D01*
X274476Y774603D01*
X274534Y774654D01*
X274570Y774680D01*
X274613Y774723D01*
X274710Y774809D01*
X293896Y793995D01*
X294001Y794121D01*
X294113Y794242D01*
X294145Y794293D01*
X294184Y794340D01*
X294266Y794483D01*
X294354Y794622D01*
X294378Y794678D01*
X294408Y794731D01*
X294463Y794886D01*
X294525Y795038D01*
X294538Y795098D01*
X294559Y795155D01*
X294585Y795318D01*
X294620Y795478D01*
X294625Y795555D01*
X294632Y795600D01*
X294631Y795661D01*
X294639Y795790D01*
X294639Y797041D01*
X296186Y800776D01*
X299044Y803634D01*
X302779Y805181D01*
X306821Y805181D01*
X310556Y803634D01*
X313414Y800776D01*
X314961Y797041D01*
X314961Y777759D01*
X313414Y774024D01*
X310556Y771166D01*
X306821Y769619D01*
X302779Y769619D01*
X299044Y771166D01*
X296730Y773480D01*
X296704Y773502D01*
X296681Y773528D01*
X296531Y773647D01*
X296385Y773769D01*
X296355Y773786D01*
X296328Y773808D01*
X296160Y773898D01*
X295994Y773992D01*
X295962Y774004D01*
X295931Y774020D01*
X295750Y774079D01*
X295570Y774143D01*
X295536Y774149D01*
X295503Y774160D01*
X295314Y774186D01*
X295126Y774217D01*
X295091Y774216D01*
X295057Y774221D01*
X294866Y774213D01*
X294675Y774211D01*
X294641Y774204D01*
X294607Y774203D01*
X294421Y774161D01*
X294233Y774125D01*
X294201Y774112D01*
X294167Y774105D01*
X293991Y774031D01*
X293813Y773963D01*
X293784Y773945D01*
X293752Y773931D01*
X293591Y773828D01*
X293429Y773729D01*
X293403Y773706D01*
X293374Y773687D01*
X293139Y773480D01*
X284589Y764930D01*
X284484Y764804D01*
X284372Y764683D01*
X284340Y764632D01*
X284301Y764585D01*
X284219Y764442D01*
X284131Y764303D01*
X284107Y764247D01*
X284077Y764194D01*
X284022Y764039D01*
X283960Y763887D01*
X283947Y763827D01*
X283926Y763770D01*
X283900Y763607D01*
X283865Y763447D01*
X283860Y763370D01*
X283853Y763325D01*
X283854Y763264D01*
X283846Y763135D01*
X283846Y758070D01*
X282782Y755503D01*
X274429Y747150D01*
X274324Y747024D01*
X274212Y746903D01*
X274180Y746852D01*
X274141Y746805D01*
X274059Y746662D01*
X273971Y746523D01*
X273947Y746467D01*
X273917Y746414D01*
X273862Y746259D01*
X273800Y746107D01*
X273787Y746047D01*
X273766Y745990D01*
X273740Y745827D01*
X273705Y745667D01*
X273700Y745590D01*
X273693Y745545D01*
X273694Y745484D01*
X273687Y745373D01*
X272560Y742652D01*
X272510Y742495D01*
X272454Y742340D01*
X272443Y742280D01*
X272425Y742222D01*
X272404Y742059D01*
X272376Y741897D01*
X272376Y741836D01*
X272368Y741775D01*
X272377Y741611D01*
X272377Y741447D01*
X272388Y741387D01*
X272391Y741326D01*
X272428Y741166D01*
X272458Y741004D01*
X272483Y740931D01*
X272493Y740887D01*
X272517Y740831D01*
X272560Y740708D01*
X272846Y740017D01*
X272900Y739913D01*
X272945Y739805D01*
X273004Y739714D01*
X273055Y739618D01*
X273126Y739525D01*
X273190Y739427D01*
X273291Y739312D01*
X273330Y739262D01*
X273357Y739237D01*
X273396Y739193D01*
X275314Y737276D01*
X276861Y733541D01*
X276861Y714259D01*
X275314Y710524D01*
X272456Y707666D01*
X268721Y706119D01*
X264679Y706119D01*
X260944Y707666D01*
X258086Y710524D01*
X256539Y714259D01*
X256539Y733541D01*
X257326Y735441D01*
X257375Y735598D01*
X257432Y735752D01*
X257443Y735812D01*
X257461Y735870D01*
X257482Y736034D01*
X257510Y736195D01*
X257510Y736256D01*
X257518Y736317D01*
X257509Y736481D01*
X257509Y736646D01*
X257498Y736706D01*
X257495Y736767D01*
X257457Y736927D01*
X257428Y737089D01*
X257403Y737162D01*
X257392Y737205D01*
X257368Y737261D01*
X257326Y737384D01*
X257174Y737750D01*
X257174Y745610D01*
X258238Y748177D01*
X258971Y748910D01*
X259076Y749036D01*
X259188Y749157D01*
X259220Y749208D01*
X259259Y749255D01*
X259341Y749398D01*
X259429Y749537D01*
X259453Y749593D01*
X259483Y749646D01*
X259538Y749801D01*
X259600Y749953D01*
X259613Y750013D01*
X259634Y750070D01*
X259660Y750233D01*
X259695Y750393D01*
X259700Y750470D01*
X259707Y750515D01*
X259706Y750576D01*
X259713Y750687D01*
X260778Y753257D01*
X263280Y755759D01*
X263363Y755859D01*
X263454Y755952D01*
X263508Y756032D01*
X263569Y756105D01*
X263634Y756218D01*
X263706Y756325D01*
X263745Y756413D01*
X263792Y756496D01*
X263836Y756618D01*
X263889Y756737D01*
X263911Y756830D01*
X263943Y756920D01*
X263964Y757048D01*
X263995Y757175D01*
X264001Y757270D01*
X264017Y757364D01*
X264015Y757494D01*
X264023Y757624D01*
X264012Y757719D01*
X264011Y757815D01*
X263986Y757942D01*
X263971Y758071D01*
X263943Y758163D01*
X263925Y758257D01*
X263878Y758378D01*
X263841Y758502D01*
X263797Y758588D01*
X263763Y758677D01*
X263695Y758788D01*
X263636Y758904D01*
X263579Y758980D01*
X263529Y759061D01*
X263443Y759159D01*
X263364Y759262D01*
X263294Y759327D01*
X263231Y759399D01*
X263129Y759479D01*
X263033Y759568D01*
X262953Y759619D01*
X262878Y759678D01*
X262763Y759739D01*
X262653Y759809D01*
X262565Y759846D01*
X262481Y759891D01*
X262357Y759931D01*
X262237Y759980D01*
X262143Y760000D01*
X262053Y760030D01*
X261924Y760048D01*
X261797Y760075D01*
X261667Y760083D01*
X261606Y760091D01*
X261562Y760090D01*
X261485Y760094D01*
X250325Y760094D01*
X250162Y760080D01*
X249997Y760073D01*
X249938Y760060D01*
X249877Y760054D01*
X249718Y760011D01*
X249558Y759975D01*
X249501Y759952D01*
X249443Y759936D01*
X249294Y759865D01*
X249142Y759802D01*
X249091Y759769D01*
X249036Y759742D01*
X248902Y759647D01*
X248764Y759557D01*
X248706Y759506D01*
X248670Y759480D01*
X248627Y759437D01*
X248530Y759351D01*
X233934Y744754D01*
X233820Y744618D01*
X233701Y744486D01*
X233675Y744446D01*
X233645Y744409D01*
X233557Y744255D01*
X233463Y744104D01*
X233445Y744060D01*
X233421Y744018D01*
X233362Y743851D01*
X233296Y743686D01*
X233287Y743639D01*
X233271Y743594D01*
X233242Y743418D01*
X233206Y743245D01*
X233205Y743197D01*
X233197Y743150D01*
X233200Y742971D01*
X233195Y742794D01*
X233203Y742747D01*
X233203Y742699D01*
X233237Y742524D01*
X233264Y742349D01*
X233280Y742304D01*
X233289Y742257D01*
X233353Y742091D01*
X233411Y741924D01*
X233434Y741882D01*
X233451Y741837D01*
X233543Y741685D01*
X233630Y741530D01*
X233660Y741493D01*
X233685Y741453D01*
X233803Y741320D01*
X233915Y741182D01*
X233952Y741151D01*
X233983Y741115D01*
X234122Y741005D01*
X234257Y740890D01*
X234299Y740865D01*
X234336Y740836D01*
X234493Y740752D01*
X234646Y740662D01*
X234691Y740646D01*
X234733Y740623D01*
X234902Y740568D01*
X235069Y740507D01*
X235116Y740499D01*
X235161Y740484D01*
X235337Y740460D01*
X235512Y740429D01*
X235560Y740429D01*
X235607Y740423D01*
X235785Y740430D01*
X235962Y740430D01*
X236009Y740439D01*
X236057Y740441D01*
X236231Y740479D01*
X236405Y740511D01*
X236462Y740531D01*
X236497Y740538D01*
X236555Y740563D01*
X236701Y740613D01*
X239279Y741681D01*
X243321Y741681D01*
X247056Y740134D01*
X249914Y737276D01*
X251461Y733541D01*
X251461Y714259D01*
X249914Y710524D01*
X247056Y707666D01*
X243321Y706119D01*
X239279Y706119D01*
X235544Y707666D01*
X232686Y710524D01*
X231139Y714259D01*
X231139Y733541D01*
X232207Y736119D01*
X232260Y736289D01*
X232320Y736456D01*
X232328Y736503D01*
X232342Y736549D01*
X232364Y736725D01*
X232393Y736900D01*
X232393Y736948D01*
X232399Y736995D01*
X232390Y737172D01*
X232387Y737350D01*
X232378Y737397D01*
X232376Y737445D01*
X232335Y737618D01*
X232302Y737792D01*
X232284Y737837D01*
X232273Y737884D01*
X232203Y738047D01*
X232139Y738212D01*
X232114Y738253D01*
X232096Y738297D01*
X231998Y738445D01*
X231905Y738597D01*
X231874Y738633D01*
X231847Y738673D01*
X231725Y738801D01*
X231607Y738934D01*
X231570Y738964D01*
X231537Y738999D01*
X231393Y739104D01*
X231254Y739214D01*
X231212Y739236D01*
X231173Y739265D01*
X231014Y739343D01*
X230857Y739427D01*
X230812Y739441D01*
X230769Y739462D01*
X230598Y739511D01*
X230429Y739566D01*
X230382Y739572D01*
X230336Y739585D01*
X230159Y739603D01*
X229983Y739627D01*
X229935Y739625D01*
X229888Y739630D01*
X229711Y739616D01*
X229533Y739609D01*
X229486Y739598D01*
X229439Y739595D01*
X229267Y739550D01*
X229093Y739511D01*
X229049Y739493D01*
X229003Y739481D01*
X228842Y739406D01*
X228678Y739338D01*
X228638Y739312D01*
X228594Y739292D01*
X228449Y739190D01*
X228300Y739093D01*
X228255Y739054D01*
X228226Y739033D01*
X228181Y738989D01*
X228066Y738886D01*
X184651Y695472D01*
X184629Y695446D01*
X184603Y695423D01*
X184485Y695273D01*
X184363Y695127D01*
X184345Y695097D01*
X184324Y695070D01*
X184234Y694902D01*
X184139Y694736D01*
X184128Y694703D01*
X184111Y694673D01*
X184052Y694491D01*
X183988Y694312D01*
X183983Y694277D01*
X183972Y694244D01*
X183946Y694056D01*
X183915Y693867D01*
X183915Y693833D01*
X183911Y693798D01*
X183918Y693608D01*
X183921Y693417D01*
X183928Y693383D01*
X183929Y693348D01*
X183970Y693162D01*
X184007Y692975D01*
X184019Y692943D01*
X184027Y692909D01*
X184100Y692733D01*
X184169Y692555D01*
X184187Y692525D01*
X184200Y692493D01*
X184303Y692334D01*
X184403Y692170D01*
X184426Y692144D01*
X184445Y692115D01*
X184651Y691881D01*
X186945Y689588D01*
X186945Y682012D01*
X181588Y676655D01*
X174012Y676655D01*
X168655Y682012D01*
X168655Y688586D01*
X168644Y688715D01*
X168642Y688845D01*
X168624Y688939D01*
X168615Y689034D01*
X168581Y689160D01*
X168556Y689287D01*
X168522Y689376D01*
X168497Y689469D01*
X168441Y689586D01*
X168394Y689707D01*
X168344Y689789D01*
X168303Y689875D01*
X168228Y689981D01*
X168160Y690092D01*
X168097Y690164D01*
X168041Y690241D01*
X167948Y690332D01*
X167862Y690429D01*
X167787Y690488D01*
X167719Y690555D01*
X167611Y690628D01*
X167509Y690709D01*
X167425Y690754D01*
X167346Y690807D01*
X167227Y690860D01*
X167112Y690921D01*
X167021Y690951D01*
X166934Y690990D01*
X166807Y691020D01*
X166684Y691061D01*
X166589Y691074D01*
X166496Y691096D01*
X166367Y691104D01*
X166238Y691122D01*
X166142Y691118D01*
X166047Y691124D01*
X165918Y691109D01*
X165788Y691104D01*
X165695Y691083D01*
X165600Y691072D01*
X165475Y691034D01*
X165348Y691006D01*
X165260Y690969D01*
X165169Y690942D01*
X165053Y690883D01*
X164933Y690832D01*
X164852Y690781D01*
X164767Y690737D01*
X164664Y690659D01*
X164555Y690588D01*
X164457Y690502D01*
X164409Y690465D01*
X164378Y690432D01*
X164320Y690381D01*
X155049Y681110D01*
X154944Y680984D01*
X154832Y680863D01*
X154800Y680812D01*
X154761Y680765D01*
X154679Y680622D01*
X154591Y680483D01*
X154567Y680427D01*
X154537Y680374D01*
X154482Y680219D01*
X154420Y680067D01*
X154407Y680007D01*
X154386Y679950D01*
X154360Y679787D01*
X154325Y679627D01*
X154320Y679550D01*
X154313Y679505D01*
X154314Y679444D01*
X154306Y679315D01*
X154306Y672465D01*
X154309Y672430D01*
X154307Y672396D01*
X154329Y672207D01*
X154346Y672016D01*
X154355Y671983D01*
X154359Y671949D01*
X154414Y671766D01*
X154464Y671582D01*
X154479Y671551D01*
X154489Y671518D01*
X154576Y671347D01*
X154658Y671175D01*
X154678Y671147D01*
X154693Y671116D01*
X154809Y670964D01*
X154920Y670809D01*
X154945Y670785D01*
X154965Y670758D01*
X155105Y670629D01*
X155242Y670495D01*
X155271Y670476D01*
X155297Y670452D01*
X155458Y670350D01*
X155615Y670243D01*
X155647Y670229D01*
X155676Y670211D01*
X155853Y670138D01*
X156027Y670061D01*
X156061Y670053D01*
X156093Y670040D01*
X156280Y670000D01*
X156465Y669954D01*
X156499Y669952D01*
X156533Y669945D01*
X156845Y669926D01*
X158870Y669926D01*
X161437Y668862D01*
X167250Y663049D01*
X167376Y662944D01*
X167497Y662832D01*
X167548Y662800D01*
X167595Y662761D01*
X167738Y662679D01*
X167877Y662591D01*
X167933Y662567D01*
X167986Y662537D01*
X168141Y662482D01*
X168293Y662420D01*
X168353Y662407D01*
X168410Y662386D01*
X168573Y662360D01*
X168733Y662325D01*
X168810Y662320D01*
X168855Y662313D01*
X168916Y662314D01*
X169045Y662306D01*
X242435Y662306D01*
X242598Y662320D01*
X242763Y662327D01*
X242822Y662340D01*
X242883Y662346D01*
X243042Y662389D01*
X243202Y662425D01*
X243259Y662448D01*
X243317Y662464D01*
X243466Y662535D01*
X243618Y662598D01*
X243669Y662631D01*
X243724Y662658D01*
X243858Y662753D01*
X243996Y662843D01*
X244054Y662894D01*
X244090Y662920D01*
X244133Y662963D01*
X244230Y663049D01*
X250043Y668862D01*
X252610Y669926D01*
X351655Y669926D01*
X351818Y669940D01*
X351983Y669947D01*
X352042Y669960D01*
X352103Y669966D01*
X352262Y670009D01*
X352422Y670045D01*
X352479Y670068D01*
X352537Y670084D01*
X352686Y670155D01*
X352838Y670218D01*
X352889Y670251D01*
X352944Y670278D01*
X353078Y670373D01*
X353216Y670463D01*
X353274Y670514D01*
X353310Y670540D01*
X353353Y670583D01*
X353450Y670669D01*
X371112Y688331D01*
X371217Y688457D01*
X371329Y688578D01*
X371361Y688629D01*
X371400Y688676D01*
X371482Y688819D01*
X371570Y688958D01*
X371594Y689014D01*
X371624Y689067D01*
X371679Y689222D01*
X371741Y689374D01*
X371754Y689434D01*
X371775Y689491D01*
X371778Y689510D01*
X377212Y694945D01*
X384788Y694945D01*
X390145Y689588D01*
X390145Y682012D01*
X384788Y676655D01*
X380246Y676655D01*
X380083Y676641D01*
X379918Y676634D01*
X379859Y676621D01*
X379798Y676615D01*
X379639Y676572D01*
X379479Y676536D01*
X379422Y676513D01*
X379364Y676497D01*
X379215Y676426D01*
X379063Y676363D01*
X379012Y676330D01*
X378957Y676303D01*
X378823Y676208D01*
X378685Y676118D01*
X378627Y676067D01*
X378591Y676041D01*
X378548Y675998D01*
X378451Y675912D01*
X363465Y660926D01*
X363381Y660826D01*
X363291Y660733D01*
X363237Y660653D01*
X363176Y660580D01*
X363111Y660467D01*
X363039Y660360D01*
X363000Y660272D01*
X362953Y660189D01*
X362909Y660067D01*
X362856Y659948D01*
X362834Y659855D01*
X362802Y659765D01*
X362780Y659636D01*
X362750Y659510D01*
X362744Y659415D01*
X362728Y659321D01*
X362730Y659190D01*
X362722Y659061D01*
X362733Y658966D01*
X362734Y658870D01*
X362759Y658743D01*
X362774Y658614D01*
X362802Y658522D01*
X362820Y658428D01*
X362867Y658307D01*
X362904Y658183D01*
X362948Y658098D01*
X362982Y658008D01*
X363050Y657897D01*
X363109Y657781D01*
X363166Y657705D01*
X363216Y657624D01*
X363302Y657526D01*
X363381Y657423D01*
X363451Y657358D01*
X363514Y657286D01*
X363616Y657206D01*
X363712Y657117D01*
X363793Y657066D01*
X363867Y657007D01*
X363982Y656946D01*
X364092Y656876D01*
X364180Y656839D01*
X364264Y656794D01*
X364388Y656754D01*
X364508Y656705D01*
X364602Y656685D01*
X364693Y656655D01*
X364821Y656637D01*
X364948Y656610D01*
X365078Y656602D01*
X365139Y656594D01*
X365183Y656595D01*
X365260Y656591D01*
X395455Y656591D01*
X403390Y653304D01*
X409464Y647230D01*
X412751Y639295D01*
X412751Y630705D01*
X409464Y622770D01*
X403390Y616696D01*
X395455Y613409D01*
X259865Y613409D01*
X251930Y616696D01*
X245856Y622770D01*
X242569Y630705D01*
X242569Y639295D01*
X244859Y644823D01*
X244884Y644902D01*
X244917Y644977D01*
X244951Y645116D01*
X244994Y645253D01*
X245004Y645335D01*
X245024Y645415D01*
X245033Y645557D01*
X245051Y645700D01*
X245047Y645782D01*
X245052Y645864D01*
X245035Y646006D01*
X245028Y646149D01*
X245009Y646229D01*
X245000Y646311D01*
X244958Y646449D01*
X244926Y646588D01*
X244893Y646663D01*
X244869Y646742D01*
X244804Y646870D01*
X244748Y647001D01*
X244702Y647070D01*
X244665Y647144D01*
X244579Y647257D01*
X244499Y647377D01*
X244443Y647437D01*
X244393Y647502D01*
X244288Y647599D01*
X244189Y647703D01*
X244122Y647752D01*
X244062Y647808D01*
X243941Y647885D01*
X243825Y647969D01*
X243752Y648005D01*
X243682Y648049D01*
X243550Y648104D01*
X243421Y648167D01*
X243342Y648189D01*
X243265Y648220D01*
X243125Y648250D01*
X242988Y648290D01*
X242906Y648298D01*
X242825Y648315D01*
X242579Y648330D01*
X242540Y648334D01*
X242529Y648333D01*
X242513Y648334D01*
X163710Y648334D01*
X161143Y649398D01*
X158821Y651720D01*
X158641Y651900D01*
X158541Y651984D01*
X158448Y652074D01*
X158369Y652128D01*
X158295Y652189D01*
X158182Y652254D01*
X158075Y652326D01*
X157987Y652365D01*
X157904Y652412D01*
X157782Y652456D01*
X157663Y652509D01*
X157570Y652531D01*
X157480Y652563D01*
X157352Y652584D01*
X157225Y652615D01*
X157130Y652621D01*
X157036Y652637D01*
X156906Y652635D01*
X156776Y652643D01*
X156681Y652632D01*
X156586Y652631D01*
X156458Y652606D01*
X156329Y652591D01*
X156237Y652563D01*
X156144Y652545D01*
X156022Y652498D01*
X155898Y652461D01*
X155813Y652417D01*
X155724Y652383D01*
X155612Y652315D01*
X155496Y652256D01*
X155420Y652199D01*
X155339Y652149D01*
X155241Y652063D01*
X155138Y651984D01*
X155073Y651914D01*
X155001Y651851D01*
X154921Y651749D01*
X154832Y651653D01*
X154781Y651572D01*
X154722Y651498D01*
X154661Y651383D01*
X154591Y651273D01*
X154554Y651185D01*
X154509Y651101D01*
X154469Y650977D01*
X154420Y650857D01*
X154400Y650763D01*
X154370Y650673D01*
X154352Y650544D01*
X154325Y650417D01*
X154317Y650287D01*
X154309Y650227D01*
X154310Y650182D01*
X154306Y650105D01*
X154306Y575445D01*
X154320Y575282D01*
X154327Y575117D01*
X154340Y575058D01*
X154346Y574997D01*
X154389Y574838D01*
X154425Y574678D01*
X154448Y574621D01*
X154464Y574563D01*
X154535Y574414D01*
X154598Y574262D01*
X154631Y574211D01*
X154658Y574156D01*
X154753Y574022D01*
X154843Y573884D01*
X154894Y573826D01*
X154920Y573790D01*
X154963Y573747D01*
X155049Y573650D01*
X164710Y563989D01*
X164836Y563884D01*
X164957Y563772D01*
X165008Y563740D01*
X165055Y563701D01*
X165198Y563619D01*
X165337Y563531D01*
X165393Y563507D01*
X165446Y563477D01*
X165601Y563422D01*
X165753Y563360D01*
X165813Y563347D01*
X165870Y563326D01*
X166033Y563300D01*
X166193Y563265D01*
X166270Y563260D01*
X166315Y563253D01*
X166376Y563254D01*
X166487Y563247D01*
X169057Y562182D01*
X171379Y559860D01*
X177403Y553837D01*
X177429Y553814D01*
X177452Y553789D01*
X177601Y553671D01*
X177748Y553548D01*
X177778Y553531D01*
X177805Y553509D01*
X177973Y553419D01*
X178139Y553324D01*
X178171Y553313D01*
X178202Y553297D01*
X178383Y553238D01*
X178563Y553174D01*
X178597Y553168D01*
X178630Y553157D01*
X178819Y553131D01*
X179007Y553100D01*
X179042Y553101D01*
X179076Y553096D01*
X179267Y553104D01*
X179458Y553106D01*
X179492Y553113D01*
X179526Y553114D01*
X179712Y553156D01*
X179900Y553192D01*
X179932Y553204D01*
X179966Y553212D01*
X180142Y553285D01*
X180320Y553354D01*
X180349Y553372D01*
X180381Y553385D01*
X180542Y553489D01*
X180704Y553588D01*
X180730Y553611D01*
X180759Y553630D01*
X180994Y553837D01*
X183593Y556437D01*
X188075Y558293D01*
X192925Y558293D01*
X197407Y556437D01*
X200837Y553007D01*
X202693Y548525D01*
X202693Y543675D01*
X200837Y539193D01*
X197407Y535763D01*
X192925Y533907D01*
X188075Y533907D01*
G37*
%LPD*%
%LPC*%
G36*
X110005Y334009D02*
X110005Y334009D01*
X102070Y337296D01*
X88376Y350990D01*
X85089Y358925D01*
X85089Y428475D01*
X88376Y436410D01*
X113721Y461754D01*
X113743Y461781D01*
X113769Y461804D01*
X113886Y461953D01*
X114009Y462100D01*
X114027Y462130D01*
X114048Y462157D01*
X114138Y462325D01*
X114233Y462491D01*
X114244Y462523D01*
X114261Y462554D01*
X114320Y462735D01*
X114384Y462915D01*
X114389Y462949D01*
X114400Y462982D01*
X114426Y463171D01*
X114457Y463359D01*
X114457Y463394D01*
X114461Y463428D01*
X114454Y463619D01*
X114451Y463809D01*
X114444Y463844D01*
X114443Y463878D01*
X114402Y464064D01*
X114365Y464252D01*
X114353Y464284D01*
X114345Y464318D01*
X114272Y464494D01*
X114203Y464672D01*
X114185Y464701D01*
X114172Y464733D01*
X114068Y464893D01*
X113969Y465056D01*
X113946Y465082D01*
X113928Y465111D01*
X113721Y465346D01*
X95996Y483070D01*
X92709Y491005D01*
X92709Y499595D01*
X95996Y507530D01*
X102070Y513604D01*
X110005Y516891D01*
X118595Y516891D01*
X126530Y513604D01*
X163084Y477050D01*
X166371Y469115D01*
X166371Y457985D01*
X163084Y450050D01*
X129014Y415981D01*
X128909Y415854D01*
X128797Y415733D01*
X128765Y415682D01*
X128726Y415635D01*
X128644Y415492D01*
X128556Y415354D01*
X128532Y415297D01*
X128502Y415244D01*
X128447Y415089D01*
X128385Y414937D01*
X128372Y414877D01*
X128351Y414820D01*
X128325Y414658D01*
X128290Y414497D01*
X128285Y414420D01*
X128278Y414376D01*
X128279Y414315D01*
X128271Y414185D01*
X128271Y373215D01*
X128285Y373051D01*
X128292Y372887D01*
X128305Y372827D01*
X128311Y372766D01*
X128354Y372608D01*
X128390Y372447D01*
X128413Y372391D01*
X128429Y372332D01*
X128500Y372184D01*
X128563Y372032D01*
X128596Y371980D01*
X128623Y371925D01*
X128718Y371792D01*
X128808Y371654D01*
X128859Y371596D01*
X128885Y371559D01*
X128928Y371517D01*
X129014Y371419D01*
X132604Y367830D01*
X135891Y359895D01*
X135891Y351305D01*
X132604Y343370D01*
X126530Y337296D01*
X118595Y334009D01*
X110005Y334009D01*
G37*
%LPD*%
%LPC*%
G36*
X503705Y702309D02*
X503705Y702309D01*
X495770Y705596D01*
X489696Y711670D01*
X486409Y719605D01*
X486409Y728195D01*
X489696Y736130D01*
X495770Y742204D01*
X503705Y745491D01*
X536105Y745491D01*
X536269Y745505D01*
X536433Y745512D01*
X536493Y745525D01*
X536554Y745531D01*
X536712Y745574D01*
X536873Y745610D01*
X536929Y745633D01*
X536988Y745649D01*
X537136Y745720D01*
X537288Y745783D01*
X537340Y745816D01*
X537395Y745843D01*
X537528Y745938D01*
X537666Y746028D01*
X537724Y746079D01*
X537761Y746105D01*
X537803Y746148D01*
X537901Y746234D01*
X552866Y761199D01*
X552971Y761326D01*
X553083Y761447D01*
X553115Y761498D01*
X553154Y761545D01*
X553236Y761688D01*
X553324Y761826D01*
X553348Y761883D01*
X553378Y761936D01*
X553433Y762091D01*
X553495Y762243D01*
X553508Y762303D01*
X553529Y762360D01*
X553555Y762522D01*
X553590Y762683D01*
X553595Y762760D01*
X553602Y762804D01*
X553601Y762865D01*
X553609Y762995D01*
X553609Y777578D01*
X553599Y777694D01*
X553599Y777811D01*
X553579Y777918D01*
X553569Y778026D01*
X553539Y778139D01*
X553518Y778254D01*
X553467Y778400D01*
X553451Y778461D01*
X553435Y778493D01*
X553416Y778550D01*
X552659Y780376D01*
X552659Y789344D01*
X556091Y797628D01*
X562432Y803969D01*
X570716Y807401D01*
X579684Y807401D01*
X587968Y803969D01*
X594309Y797628D01*
X597741Y789344D01*
X597741Y780376D01*
X596984Y778550D01*
X596949Y778438D01*
X596905Y778330D01*
X596882Y778224D01*
X596849Y778120D01*
X596835Y778004D01*
X596810Y777890D01*
X596800Y777736D01*
X596793Y777673D01*
X596794Y777637D01*
X596791Y777578D01*
X596791Y748705D01*
X593504Y740770D01*
X558330Y705596D01*
X550395Y702309D01*
X503705Y702309D01*
G37*
%LPD*%
%LPC*%
G36*
X593111Y476249D02*
X593111Y476249D01*
X586109Y479150D01*
X568050Y497209D01*
X565149Y504211D01*
X565149Y514329D01*
X568050Y521331D01*
X573766Y527047D01*
X573766Y527048D01*
X602506Y555787D01*
X602611Y555914D01*
X602723Y556034D01*
X602755Y556086D01*
X602794Y556133D01*
X602876Y556275D01*
X602964Y556414D01*
X602988Y556471D01*
X603018Y556524D01*
X603073Y556679D01*
X603135Y556831D01*
X603148Y556890D01*
X603169Y556948D01*
X603195Y557110D01*
X603230Y557271D01*
X603235Y557348D01*
X603242Y557392D01*
X603241Y557453D01*
X603249Y557583D01*
X603249Y589287D01*
X603239Y589403D01*
X603239Y589520D01*
X603219Y589627D01*
X603209Y589735D01*
X603179Y589848D01*
X603158Y589963D01*
X603107Y590109D01*
X603091Y590170D01*
X603075Y590202D01*
X603056Y590259D01*
X601979Y592858D01*
X601979Y600942D01*
X605073Y608411D01*
X610789Y614127D01*
X618258Y617221D01*
X626342Y617221D01*
X633811Y614127D01*
X639527Y608411D01*
X642621Y600942D01*
X642621Y592858D01*
X641544Y590259D01*
X641509Y590147D01*
X641465Y590039D01*
X641442Y589933D01*
X641409Y589829D01*
X641395Y589713D01*
X641370Y589599D01*
X641360Y589445D01*
X641353Y589382D01*
X641354Y589346D01*
X641351Y589287D01*
X641351Y553713D01*
X641361Y553597D01*
X641361Y553480D01*
X641381Y553373D01*
X641391Y553265D01*
X641421Y553152D01*
X641442Y553037D01*
X641493Y552891D01*
X641509Y552830D01*
X641525Y552798D01*
X641544Y552741D01*
X642621Y550142D01*
X642621Y542058D01*
X639527Y534589D01*
X633811Y528873D01*
X626875Y526000D01*
X626772Y525946D01*
X626664Y525901D01*
X626572Y525842D01*
X626476Y525792D01*
X626384Y525720D01*
X626286Y525657D01*
X626170Y525554D01*
X626120Y525516D01*
X626096Y525489D01*
X626052Y525450D01*
X611667Y511066D01*
X611645Y511039D01*
X611619Y511016D01*
X611501Y510867D01*
X611378Y510720D01*
X611361Y510690D01*
X611340Y510663D01*
X611250Y510495D01*
X611155Y510329D01*
X611144Y510297D01*
X611127Y510266D01*
X611068Y510085D01*
X611004Y509905D01*
X610999Y509871D01*
X610988Y509838D01*
X610962Y509649D01*
X610931Y509461D01*
X610931Y509426D01*
X610927Y509392D01*
X610934Y509201D01*
X610937Y509010D01*
X610943Y508976D01*
X610945Y508942D01*
X610986Y508756D01*
X611022Y508568D01*
X611035Y508536D01*
X611042Y508502D01*
X611116Y508326D01*
X611185Y508148D01*
X611203Y508119D01*
X611216Y508087D01*
X611320Y507927D01*
X611419Y507764D01*
X611442Y507738D01*
X611460Y507709D01*
X611667Y507474D01*
X613050Y506091D01*
X615951Y499089D01*
X615951Y491511D01*
X613050Y484509D01*
X607691Y479150D01*
X600689Y476249D01*
X593111Y476249D01*
G37*
%LPD*%
%LPC*%
G36*
X461716Y43499D02*
X461716Y43499D01*
X453432Y46931D01*
X447091Y53272D01*
X443659Y61556D01*
X443659Y70524D01*
X444416Y72350D01*
X444451Y72462D01*
X444495Y72570D01*
X444518Y72676D01*
X444551Y72780D01*
X444565Y72896D01*
X444590Y73010D01*
X444600Y73164D01*
X444607Y73227D01*
X444606Y73263D01*
X444609Y73322D01*
X444609Y89495D01*
X447896Y97430D01*
X495770Y145304D01*
X503705Y148591D01*
X512295Y148591D01*
X520230Y145304D01*
X526304Y139230D01*
X529591Y131295D01*
X529591Y122705D01*
X526304Y114770D01*
X488534Y77001D01*
X488429Y76874D01*
X488317Y76753D01*
X488285Y76702D01*
X488246Y76655D01*
X488164Y76512D01*
X488076Y76374D01*
X488052Y76317D01*
X488022Y76264D01*
X487967Y76109D01*
X487905Y75957D01*
X487892Y75897D01*
X487871Y75840D01*
X487845Y75678D01*
X487810Y75517D01*
X487805Y75440D01*
X487798Y75396D01*
X487799Y75335D01*
X487791Y75205D01*
X487791Y73322D01*
X487801Y73206D01*
X487801Y73089D01*
X487821Y72982D01*
X487831Y72874D01*
X487861Y72761D01*
X487882Y72646D01*
X487933Y72500D01*
X487949Y72439D01*
X487965Y72407D01*
X487984Y72350D01*
X488741Y70524D01*
X488741Y61556D01*
X485309Y53272D01*
X478968Y46931D01*
X470684Y43499D01*
X461716Y43499D01*
G37*
%LPD*%
%LPC*%
G36*
X262912Y346455D02*
X262912Y346455D01*
X257468Y351900D01*
X257436Y352041D01*
X257413Y352098D01*
X257397Y352156D01*
X257326Y352305D01*
X257263Y352457D01*
X257230Y352508D01*
X257203Y352563D01*
X257108Y352697D01*
X257018Y352835D01*
X256967Y352893D01*
X256941Y352929D01*
X256898Y352972D01*
X256812Y353069D01*
X241690Y368191D01*
X241564Y368296D01*
X241443Y368408D01*
X241392Y368440D01*
X241345Y368479D01*
X241202Y368561D01*
X241063Y368649D01*
X241007Y368673D01*
X240954Y368703D01*
X240799Y368758D01*
X240647Y368820D01*
X240587Y368833D01*
X240530Y368854D01*
X240367Y368880D01*
X240207Y368915D01*
X240130Y368920D01*
X240085Y368927D01*
X240024Y368926D01*
X239895Y368934D01*
X184030Y368934D01*
X181463Y369998D01*
X165109Y386352D01*
X164983Y386457D01*
X164862Y386569D01*
X164811Y386601D01*
X164764Y386640D01*
X164621Y386722D01*
X164482Y386810D01*
X164426Y386834D01*
X164373Y386864D01*
X164218Y386919D01*
X164066Y386981D01*
X164006Y386994D01*
X163949Y387015D01*
X163786Y387041D01*
X163626Y387076D01*
X163549Y387081D01*
X163504Y387088D01*
X163443Y387087D01*
X163314Y387095D01*
X163281Y387095D01*
X159920Y388487D01*
X157347Y391060D01*
X155955Y394421D01*
X155955Y398059D01*
X157347Y401420D01*
X159931Y404004D01*
X159964Y404016D01*
X160086Y404091D01*
X160213Y404157D01*
X160278Y404207D01*
X160348Y404250D01*
X160455Y404345D01*
X160569Y404433D01*
X160624Y404494D01*
X160686Y404548D01*
X160774Y404661D01*
X160870Y404767D01*
X160914Y404837D01*
X160965Y404902D01*
X161033Y405028D01*
X161108Y405149D01*
X161139Y405226D01*
X161178Y405298D01*
X161222Y405435D01*
X161275Y405567D01*
X161291Y405648D01*
X161317Y405727D01*
X161336Y405869D01*
X161365Y406009D01*
X161367Y406091D01*
X161378Y406173D01*
X161372Y406316D01*
X161376Y406459D01*
X161363Y406540D01*
X161360Y406623D01*
X161329Y406762D01*
X161307Y406904D01*
X161280Y406982D01*
X161262Y407062D01*
X161207Y407194D01*
X161161Y407330D01*
X161120Y407402D01*
X161089Y407478D01*
X161011Y407598D01*
X160941Y407723D01*
X160889Y407787D01*
X160844Y407856D01*
X160681Y408041D01*
X160656Y408071D01*
X160648Y408078D01*
X160637Y408090D01*
X155955Y412772D01*
X155955Y420348D01*
X161312Y425705D01*
X168888Y425705D01*
X174245Y420348D01*
X174245Y412772D01*
X169563Y408090D01*
X169510Y408027D01*
X169450Y407970D01*
X169365Y407854D01*
X169274Y407745D01*
X169233Y407673D01*
X169184Y407606D01*
X169121Y407478D01*
X169050Y407354D01*
X169023Y407276D01*
X168987Y407202D01*
X168947Y407064D01*
X168899Y406929D01*
X168886Y406848D01*
X168864Y406769D01*
X168849Y406626D01*
X168826Y406485D01*
X168827Y406403D01*
X168819Y406321D01*
X168830Y406178D01*
X168832Y406035D01*
X168848Y405954D01*
X168854Y405872D01*
X168890Y405734D01*
X168918Y405593D01*
X168947Y405516D01*
X168968Y405436D01*
X169028Y405306D01*
X169080Y405173D01*
X169123Y405102D01*
X169157Y405028D01*
X169239Y404910D01*
X169314Y404788D01*
X169368Y404726D01*
X169416Y404659D01*
X169517Y404558D01*
X169612Y404451D01*
X169677Y404400D01*
X169735Y404341D01*
X169853Y404260D01*
X169965Y404171D01*
X170038Y404132D01*
X170106Y404086D01*
X170265Y404008D01*
X172853Y401420D01*
X174245Y398059D01*
X174245Y398026D01*
X174259Y397863D01*
X174266Y397698D01*
X174279Y397639D01*
X174285Y397578D01*
X174328Y397419D01*
X174364Y397259D01*
X174387Y397202D01*
X174403Y397144D01*
X174474Y396995D01*
X174537Y396843D01*
X174570Y396792D01*
X174597Y396737D01*
X174692Y396603D01*
X174782Y396465D01*
X174833Y396407D01*
X174859Y396371D01*
X174902Y396328D01*
X174988Y396231D01*
X187570Y383649D01*
X187696Y383544D01*
X187817Y383432D01*
X187868Y383400D01*
X187915Y383361D01*
X188058Y383279D01*
X188197Y383191D01*
X188253Y383167D01*
X188306Y383137D01*
X188461Y383082D01*
X188613Y383020D01*
X188673Y383007D01*
X188730Y382986D01*
X188893Y382960D01*
X189053Y382925D01*
X189130Y382920D01*
X189175Y382913D01*
X189236Y382914D01*
X189365Y382906D01*
X245230Y382906D01*
X247797Y381842D01*
X264151Y365488D01*
X264277Y365383D01*
X264398Y365271D01*
X264449Y365239D01*
X264496Y365200D01*
X264639Y365118D01*
X264778Y365030D01*
X264834Y365006D01*
X264887Y364976D01*
X265042Y364921D01*
X265194Y364859D01*
X265254Y364846D01*
X265311Y364825D01*
X265474Y364799D01*
X265634Y364764D01*
X265711Y364759D01*
X265756Y364752D01*
X265817Y364753D01*
X265946Y364745D01*
X270488Y364745D01*
X275845Y359388D01*
X275845Y351812D01*
X270488Y346455D01*
X262912Y346455D01*
G37*
%LPD*%
%LPC*%
G36*
X80716Y762319D02*
X80716Y762319D01*
X72432Y765751D01*
X66091Y772092D01*
X62659Y780376D01*
X62659Y789344D01*
X66091Y797628D01*
X72432Y803969D01*
X80716Y807401D01*
X89684Y807401D01*
X97968Y803969D01*
X104309Y797628D01*
X107741Y789344D01*
X107741Y780376D01*
X104309Y772092D01*
X97968Y765751D01*
X89684Y762319D01*
X80716Y762319D01*
G37*
%LPD*%
%LPC*%
G36*
X461716Y762319D02*
X461716Y762319D01*
X453432Y765751D01*
X447091Y772092D01*
X443659Y780376D01*
X443659Y789344D01*
X447091Y797628D01*
X453432Y803969D01*
X461716Y807401D01*
X470684Y807401D01*
X478968Y803969D01*
X485309Y797628D01*
X488741Y789344D01*
X488741Y780376D01*
X485309Y772092D01*
X478968Y765751D01*
X470684Y762319D01*
X461716Y762319D01*
G37*
%LPD*%
%LPC*%
G36*
X80716Y43499D02*
X80716Y43499D01*
X72432Y46931D01*
X66091Y53272D01*
X62659Y61556D01*
X62659Y70524D01*
X66091Y78808D01*
X72432Y85149D01*
X80716Y88581D01*
X89684Y88581D01*
X97968Y85149D01*
X104309Y78808D01*
X107741Y70524D01*
X107741Y61556D01*
X104309Y53272D01*
X97968Y46931D01*
X89684Y43499D01*
X80716Y43499D01*
G37*
%LPD*%
%LPC*%
G36*
X570716Y43499D02*
X570716Y43499D01*
X562432Y46931D01*
X556091Y53272D01*
X552659Y61556D01*
X552659Y70524D01*
X556091Y78808D01*
X562432Y85149D01*
X570716Y88581D01*
X579684Y88581D01*
X587968Y85149D01*
X594309Y78808D01*
X597741Y70524D01*
X597741Y61556D01*
X594309Y53272D01*
X587968Y46931D01*
X579684Y43499D01*
X570716Y43499D01*
G37*
%LPD*%
%LPC*%
G36*
X38418Y330707D02*
X38418Y330707D01*
X33844Y332602D01*
X30342Y336104D01*
X28447Y340678D01*
X28447Y345630D01*
X30342Y350204D01*
X33844Y353706D01*
X38418Y355601D01*
X63182Y355601D01*
X67756Y353706D01*
X71258Y350204D01*
X73153Y345630D01*
X73153Y340678D01*
X71258Y336104D01*
X67756Y332602D01*
X63182Y330707D01*
X38418Y330707D01*
G37*
%LPD*%
%LPC*%
G36*
X290079Y706119D02*
X290079Y706119D01*
X286344Y707666D01*
X283486Y710524D01*
X281939Y714259D01*
X281939Y733541D01*
X283486Y737276D01*
X286344Y740134D01*
X290079Y741681D01*
X294121Y741681D01*
X297856Y740134D01*
X300714Y737276D01*
X302261Y733541D01*
X302261Y714259D01*
X300714Y710524D01*
X297856Y707666D01*
X294121Y706119D01*
X290079Y706119D01*
G37*
%LPD*%
%LPC*%
G36*
X302779Y45719D02*
X302779Y45719D01*
X299044Y47266D01*
X296186Y50124D01*
X294639Y53859D01*
X294639Y73141D01*
X296186Y76876D01*
X299044Y79734D01*
X302779Y81281D01*
X306821Y81281D01*
X310556Y79734D01*
X313414Y76876D01*
X314961Y73141D01*
X314961Y53859D01*
X313414Y50124D01*
X310556Y47266D01*
X306821Y45719D01*
X302779Y45719D01*
G37*
%LPD*%
%LPC*%
G36*
X353579Y45719D02*
X353579Y45719D01*
X349844Y47266D01*
X346986Y50124D01*
X345439Y53859D01*
X345439Y73141D01*
X346986Y76876D01*
X349844Y79734D01*
X353579Y81281D01*
X357621Y81281D01*
X361356Y79734D01*
X364214Y76876D01*
X365761Y73141D01*
X365761Y53859D01*
X364214Y50124D01*
X361356Y47266D01*
X357621Y45719D01*
X353579Y45719D01*
G37*
%LPD*%
%LPC*%
G36*
X264679Y109219D02*
X264679Y109219D01*
X260944Y110766D01*
X258086Y113624D01*
X256539Y117359D01*
X256539Y136641D01*
X258086Y140376D01*
X260944Y143234D01*
X264679Y144781D01*
X268721Y144781D01*
X272456Y143234D01*
X275314Y140376D01*
X276861Y136641D01*
X276861Y117359D01*
X275314Y113624D01*
X272456Y110766D01*
X268721Y109219D01*
X264679Y109219D01*
G37*
%LPD*%
%LPC*%
G36*
X239279Y109219D02*
X239279Y109219D01*
X235544Y110766D01*
X232686Y113624D01*
X231139Y117359D01*
X231139Y136641D01*
X232686Y140376D01*
X235544Y143234D01*
X239279Y144781D01*
X243321Y144781D01*
X247056Y143234D01*
X249914Y140376D01*
X251461Y136641D01*
X251461Y117359D01*
X249914Y113624D01*
X247056Y110766D01*
X243321Y109219D01*
X239279Y109219D01*
G37*
%LPD*%
%LPC*%
G36*
X340475Y432307D02*
X340475Y432307D01*
X335993Y434163D01*
X332563Y437593D01*
X330707Y442075D01*
X330707Y446925D01*
X332563Y451407D01*
X335993Y454837D01*
X340475Y456693D01*
X345325Y456693D01*
X349807Y454837D01*
X353237Y451407D01*
X355093Y446925D01*
X355093Y442075D01*
X353237Y437593D01*
X349807Y434163D01*
X345325Y432307D01*
X340475Y432307D01*
G37*
%LPD*%
%LPC*%
G36*
X188075Y432307D02*
X188075Y432307D01*
X183593Y434163D01*
X180163Y437593D01*
X178307Y442075D01*
X178307Y446925D01*
X180163Y451407D01*
X183593Y454837D01*
X188075Y456693D01*
X192925Y456693D01*
X197407Y454837D01*
X200837Y451407D01*
X202693Y446925D01*
X202693Y442075D01*
X200837Y437593D01*
X197407Y434163D01*
X192925Y432307D01*
X188075Y432307D01*
G37*
%LPD*%
%LPC*%
G36*
X289675Y432307D02*
X289675Y432307D01*
X285193Y434163D01*
X281763Y437593D01*
X279907Y442075D01*
X279907Y446925D01*
X281763Y451407D01*
X285193Y454837D01*
X289675Y456693D01*
X294525Y456693D01*
X299007Y454837D01*
X302437Y451407D01*
X304293Y446925D01*
X304293Y442075D01*
X302437Y437593D01*
X299007Y434163D01*
X294525Y432307D01*
X289675Y432307D01*
G37*
%LPD*%
%LPC*%
G36*
X289675Y533907D02*
X289675Y533907D01*
X285193Y535763D01*
X281763Y539193D01*
X279907Y543675D01*
X279907Y548525D01*
X281763Y553007D01*
X285193Y556437D01*
X289675Y558293D01*
X294525Y558293D01*
X299007Y556437D01*
X302437Y553007D01*
X304293Y548525D01*
X304293Y543675D01*
X302437Y539193D01*
X299007Y535763D01*
X294525Y533907D01*
X289675Y533907D01*
G37*
%LPD*%
%LPC*%
G36*
X391275Y533907D02*
X391275Y533907D01*
X386793Y535763D01*
X383363Y539193D01*
X381507Y543675D01*
X381507Y548525D01*
X383363Y553007D01*
X386793Y556437D01*
X391275Y558293D01*
X396125Y558293D01*
X400607Y556437D01*
X404037Y553007D01*
X405893Y548525D01*
X405893Y543675D01*
X404037Y539193D01*
X400607Y535763D01*
X396125Y533907D01*
X391275Y533907D01*
G37*
%LPD*%
%LPC*%
G36*
X110091Y116839D02*
X110091Y116839D01*
X104139Y122791D01*
X104139Y131209D01*
X110091Y137161D01*
X118509Y137161D01*
X124461Y131209D01*
X124461Y122791D01*
X118509Y116839D01*
X110091Y116839D01*
G37*
%LPD*%
%LPC*%
G36*
X174012Y575055D02*
X174012Y575055D01*
X168655Y580412D01*
X168655Y587988D01*
X174012Y593345D01*
X181588Y593345D01*
X186945Y587988D01*
X186945Y580412D01*
X181588Y575055D01*
X174012Y575055D01*
G37*
%LPD*%
%LPC*%
G36*
X326412Y575055D02*
X326412Y575055D01*
X321055Y580412D01*
X321055Y587988D01*
X326412Y593345D01*
X333988Y593345D01*
X339345Y587988D01*
X339345Y580412D01*
X333988Y575055D01*
X326412Y575055D01*
G37*
%LPD*%
%LPC*%
G36*
X275612Y575055D02*
X275612Y575055D01*
X270255Y580412D01*
X270255Y587988D01*
X275612Y593345D01*
X283188Y593345D01*
X288545Y587988D01*
X288545Y580412D01*
X283188Y575055D01*
X275612Y575055D01*
G37*
%LPD*%
%LPC*%
G36*
X377212Y168655D02*
X377212Y168655D01*
X371855Y174012D01*
X371855Y181588D01*
X377212Y186945D01*
X384788Y186945D01*
X390145Y181588D01*
X390145Y174012D01*
X384788Y168655D01*
X377212Y168655D01*
G37*
%LPD*%
%LPC*%
G36*
X542312Y359155D02*
X542312Y359155D01*
X536955Y364512D01*
X536955Y372088D01*
X542312Y377445D01*
X549888Y377445D01*
X555245Y372088D01*
X555245Y364512D01*
X549888Y359155D01*
X542312Y359155D01*
G37*
%LPD*%
%LPC*%
G36*
X428012Y676655D02*
X428012Y676655D01*
X422655Y682012D01*
X422655Y689588D01*
X428012Y694945D01*
X435588Y694945D01*
X440945Y689588D01*
X440945Y682012D01*
X435588Y676655D01*
X428012Y676655D01*
G37*
%LPD*%
%LPC*%
G36*
X326412Y676655D02*
X326412Y676655D01*
X321055Y682012D01*
X321055Y689588D01*
X326412Y694945D01*
X333988Y694945D01*
X339345Y689588D01*
X339345Y682012D01*
X333988Y676655D01*
X326412Y676655D01*
G37*
%LPD*%
%LPC*%
G36*
X428012Y282955D02*
X428012Y282955D01*
X422655Y288312D01*
X422655Y295888D01*
X428012Y301245D01*
X435588Y301245D01*
X440945Y295888D01*
X440945Y288312D01*
X435588Y282955D01*
X428012Y282955D01*
G37*
%LPD*%
%LPC*%
G36*
X275612Y676655D02*
X275612Y676655D01*
X270255Y682012D01*
X270255Y689588D01*
X275612Y694945D01*
X283188Y694945D01*
X288545Y689588D01*
X288545Y682012D01*
X283188Y676655D01*
X275612Y676655D01*
G37*
%LPD*%
%LPC*%
G36*
X224812Y168655D02*
X224812Y168655D01*
X219455Y174012D01*
X219455Y181588D01*
X224812Y186945D01*
X232388Y186945D01*
X237745Y181588D01*
X237745Y174012D01*
X232388Y168655D01*
X224812Y168655D01*
G37*
%LPD*%
%LPC*%
G36*
X622639Y305519D02*
X622639Y305519D01*
X617319Y310839D01*
X617319Y318361D01*
X622639Y323681D01*
X630161Y323681D01*
X635481Y318361D01*
X635481Y310839D01*
X630161Y305519D01*
X622639Y305519D01*
G37*
%LPD*%
%LPC*%
G36*
X627379Y716279D02*
X627379Y716279D01*
X627379Y730877D01*
X628846Y730484D01*
X631307Y729464D01*
X633614Y728132D01*
X635727Y726511D01*
X637611Y724627D01*
X639232Y722514D01*
X640564Y720207D01*
X641584Y717746D01*
X641977Y716279D01*
X627379Y716279D01*
G37*
%LPD*%
%LPC*%
G36*
X627379Y665479D02*
X627379Y665479D01*
X627379Y680077D01*
X628846Y679684D01*
X631307Y678664D01*
X633614Y677332D01*
X635727Y675711D01*
X637611Y673827D01*
X639232Y671714D01*
X640564Y669407D01*
X641584Y666946D01*
X641977Y665479D01*
X627379Y665479D01*
G37*
%LPD*%
%LPC*%
G36*
X43179Y462279D02*
X43179Y462279D01*
X43179Y476877D01*
X44646Y476484D01*
X47107Y475464D01*
X49414Y474132D01*
X51527Y472511D01*
X53411Y470627D01*
X55032Y468514D01*
X56364Y466207D01*
X57384Y463746D01*
X57777Y462279D01*
X43179Y462279D01*
G37*
%LPD*%
%LPC*%
G36*
X43179Y513079D02*
X43179Y513079D01*
X43179Y527677D01*
X44646Y527284D01*
X47107Y526264D01*
X49414Y524932D01*
X51527Y523311D01*
X53411Y521427D01*
X55032Y519314D01*
X56364Y517007D01*
X57384Y514546D01*
X57777Y513079D01*
X43179Y513079D01*
G37*
%LPD*%
%LPC*%
G36*
X602623Y716279D02*
X602623Y716279D01*
X603016Y717746D01*
X604036Y720207D01*
X605368Y722514D01*
X606989Y724627D01*
X608873Y726511D01*
X610986Y728132D01*
X613293Y729464D01*
X615754Y730484D01*
X617221Y730877D01*
X617221Y716279D01*
X602623Y716279D01*
G37*
%LPD*%
%LPC*%
G36*
X627379Y706121D02*
X627379Y706121D01*
X641977Y706121D01*
X641584Y704654D01*
X640564Y702193D01*
X639232Y699886D01*
X637611Y697773D01*
X635727Y695889D01*
X633614Y694268D01*
X631307Y692936D01*
X628846Y691916D01*
X627379Y691523D01*
X627379Y706121D01*
G37*
%LPD*%
%LPC*%
G36*
X602623Y665479D02*
X602623Y665479D01*
X603016Y666946D01*
X604036Y669407D01*
X605368Y671714D01*
X606989Y673827D01*
X608873Y675711D01*
X610986Y677332D01*
X613293Y678664D01*
X615754Y679684D01*
X617221Y680077D01*
X617221Y665479D01*
X602623Y665479D01*
G37*
%LPD*%
%LPC*%
G36*
X627379Y655321D02*
X627379Y655321D01*
X641977Y655321D01*
X641584Y653854D01*
X640564Y651393D01*
X639232Y649086D01*
X637611Y646973D01*
X635727Y645089D01*
X633614Y643468D01*
X631307Y642136D01*
X628846Y641116D01*
X627379Y640723D01*
X627379Y655321D01*
G37*
%LPD*%
%LPC*%
G36*
X18423Y462279D02*
X18423Y462279D01*
X18816Y463746D01*
X19836Y466207D01*
X21168Y468514D01*
X22789Y470627D01*
X24673Y472511D01*
X26786Y474132D01*
X29093Y475464D01*
X31554Y476484D01*
X33021Y476877D01*
X33021Y462279D01*
X18423Y462279D01*
G37*
%LPD*%
%LPC*%
G36*
X18423Y513079D02*
X18423Y513079D01*
X18816Y514546D01*
X19836Y517007D01*
X21168Y519314D01*
X22789Y521427D01*
X24673Y523311D01*
X26786Y524932D01*
X29093Y526264D01*
X31554Y527284D01*
X33021Y527677D01*
X33021Y513079D01*
X18423Y513079D01*
G37*
%LPD*%
%LPC*%
G36*
X43179Y502921D02*
X43179Y502921D01*
X57777Y502921D01*
X57384Y501454D01*
X56364Y498993D01*
X55032Y496686D01*
X53411Y494573D01*
X51527Y492689D01*
X49414Y491068D01*
X47107Y489736D01*
X44646Y488716D01*
X43179Y488323D01*
X43179Y502921D01*
G37*
%LPD*%
%LPC*%
G36*
X43179Y452121D02*
X43179Y452121D01*
X57777Y452121D01*
X57384Y450654D01*
X56364Y448193D01*
X55032Y445886D01*
X53411Y443773D01*
X51527Y441889D01*
X49414Y440268D01*
X47107Y438936D01*
X44646Y437916D01*
X43179Y437523D01*
X43179Y452121D01*
G37*
%LPD*%
%LPC*%
G36*
X615754Y691916D02*
X615754Y691916D01*
X613293Y692936D01*
X610986Y694268D01*
X608873Y695889D01*
X606989Y697773D01*
X605368Y699886D01*
X604036Y702193D01*
X603016Y704654D01*
X602623Y706121D01*
X617221Y706121D01*
X617221Y691523D01*
X615754Y691916D01*
G37*
%LPD*%
%LPC*%
G36*
X615754Y641116D02*
X615754Y641116D01*
X613293Y642136D01*
X610986Y643468D01*
X608873Y645089D01*
X606989Y646973D01*
X605368Y649086D01*
X604036Y651393D01*
X603016Y653854D01*
X602623Y655321D01*
X617221Y655321D01*
X617221Y640723D01*
X615754Y641116D01*
G37*
%LPD*%
%LPC*%
G36*
X31554Y488716D02*
X31554Y488716D01*
X29093Y489736D01*
X26786Y491068D01*
X24673Y492689D01*
X22789Y494573D01*
X21168Y496686D01*
X19836Y498993D01*
X18816Y501454D01*
X18423Y502921D01*
X33021Y502921D01*
X33021Y488323D01*
X31554Y488716D01*
G37*
%LPD*%
%LPC*%
G36*
X31554Y437916D02*
X31554Y437916D01*
X29093Y438936D01*
X26786Y440268D01*
X24673Y441889D01*
X22789Y443773D01*
X21168Y445886D01*
X19836Y448193D01*
X18816Y450654D01*
X18423Y452121D01*
X33021Y452121D01*
X33021Y437523D01*
X31554Y437916D01*
G37*
%LPD*%
%LPC*%
G36*
X54101Y396747D02*
X54101Y396747D01*
X54101Y405893D01*
X61686Y405893D01*
X63621Y405586D01*
X65484Y404981D01*
X67230Y404091D01*
X68814Y402940D01*
X70200Y401554D01*
X71351Y399970D01*
X72241Y398224D01*
X72721Y396747D01*
X54101Y396747D01*
G37*
%LPD*%
%LPC*%
G36*
X28879Y396747D02*
X28879Y396747D01*
X29359Y398224D01*
X30249Y399970D01*
X31400Y401554D01*
X32786Y402940D01*
X34370Y404091D01*
X36116Y404981D01*
X37979Y405586D01*
X39914Y405893D01*
X47499Y405893D01*
X47499Y396747D01*
X28879Y396747D01*
G37*
%LPD*%
%LPC*%
G36*
X54101Y380999D02*
X54101Y380999D01*
X54101Y390145D01*
X72721Y390145D01*
X72241Y388668D01*
X71351Y386922D01*
X70200Y385338D01*
X68814Y383952D01*
X67230Y382801D01*
X65484Y381911D01*
X63621Y381306D01*
X61686Y380999D01*
X54101Y380999D01*
G37*
%LPD*%
%LPC*%
G36*
X39914Y380999D02*
X39914Y380999D01*
X37979Y381306D01*
X36116Y381911D01*
X34370Y382801D01*
X32786Y383952D01*
X31400Y385338D01*
X30249Y386922D01*
X29359Y388668D01*
X28879Y390145D01*
X47499Y390145D01*
X47499Y380999D01*
X39914Y380999D01*
G37*
%LPD*%
%LPC*%
G36*
X457199Y510539D02*
X457199Y510539D01*
X457199Y517145D01*
X458448Y517145D01*
X463805Y511788D01*
X463805Y510539D01*
X457199Y510539D01*
G37*
%LPD*%
%LPC*%
G36*
X167639Y358139D02*
X167639Y358139D01*
X167639Y364745D01*
X168888Y364745D01*
X174245Y359388D01*
X174245Y358139D01*
X167639Y358139D01*
G37*
%LPD*%
%LPC*%
G36*
X472439Y459739D02*
X472439Y459739D01*
X472439Y466345D01*
X473688Y466345D01*
X479045Y460988D01*
X479045Y459739D01*
X472439Y459739D01*
G37*
%LPD*%
%LPC*%
G36*
X231139Y688339D02*
X231139Y688339D01*
X231139Y694945D01*
X232388Y694945D01*
X237745Y689588D01*
X237745Y688339D01*
X231139Y688339D01*
G37*
%LPD*%
%LPC*%
G36*
X155955Y358139D02*
X155955Y358139D01*
X155955Y359388D01*
X161312Y364745D01*
X162561Y364745D01*
X162561Y358139D01*
X155955Y358139D01*
G37*
%LPD*%
%LPC*%
G36*
X472439Y448055D02*
X472439Y448055D01*
X472439Y454661D01*
X479045Y454661D01*
X479045Y453412D01*
X473688Y448055D01*
X472439Y448055D01*
G37*
%LPD*%
%LPC*%
G36*
X167639Y346455D02*
X167639Y346455D01*
X167639Y353061D01*
X174245Y353061D01*
X174245Y351812D01*
X168888Y346455D01*
X167639Y346455D01*
G37*
%LPD*%
%LPC*%
G36*
X457199Y498855D02*
X457199Y498855D01*
X457199Y505461D01*
X463805Y505461D01*
X463805Y504212D01*
X458448Y498855D01*
X457199Y498855D01*
G37*
%LPD*%
%LPC*%
G36*
X460755Y459739D02*
X460755Y459739D01*
X460755Y460988D01*
X466112Y466345D01*
X467361Y466345D01*
X467361Y459739D01*
X460755Y459739D01*
G37*
%LPD*%
%LPC*%
G36*
X219455Y688339D02*
X219455Y688339D01*
X219455Y689588D01*
X224812Y694945D01*
X226061Y694945D01*
X226061Y688339D01*
X219455Y688339D01*
G37*
%LPD*%
%LPC*%
G36*
X231139Y676655D02*
X231139Y676655D01*
X231139Y683261D01*
X237745Y683261D01*
X237745Y682012D01*
X232388Y676655D01*
X231139Y676655D01*
G37*
%LPD*%
%LPC*%
G36*
X466112Y448055D02*
X466112Y448055D01*
X460755Y453412D01*
X460755Y454661D01*
X467361Y454661D01*
X467361Y448055D01*
X466112Y448055D01*
G37*
%LPD*%
%LPC*%
G36*
X161312Y346455D02*
X161312Y346455D01*
X155955Y351812D01*
X155955Y353061D01*
X162561Y353061D01*
X162561Y346455D01*
X161312Y346455D01*
G37*
%LPD*%
%LPC*%
G36*
X224812Y676655D02*
X224812Y676655D01*
X219455Y682012D01*
X219455Y683261D01*
X226061Y683261D01*
X226061Y676655D01*
X224812Y676655D01*
G37*
%LPD*%
%LPC*%
G36*
X38099Y507999D02*
X38099Y507999D01*
X38099Y508001D01*
X38101Y508001D01*
X38101Y507999D01*
X38099Y507999D01*
G37*
%LPD*%
%LPC*%
G36*
X38099Y457199D02*
X38099Y457199D01*
X38099Y457201D01*
X38101Y457201D01*
X38101Y457199D01*
X38099Y457199D01*
G37*
%LPD*%
%LPC*%
G36*
X622299Y660399D02*
X622299Y660399D01*
X622299Y660401D01*
X622301Y660401D01*
X622301Y660399D01*
X622299Y660399D01*
G37*
%LPD*%
%LPC*%
G36*
X622299Y711199D02*
X622299Y711199D01*
X622299Y711201D01*
X622301Y711201D01*
X622301Y711199D01*
X622299Y711199D01*
G37*
%LPD*%
D10*
X165100Y416560D03*
D11*
X165100Y396240D03*
D12*
X454660Y508000D03*
D11*
X434340Y508000D03*
D10*
X304800Y381000D03*
X304800Y406400D03*
X469900Y406400D03*
X469900Y457200D03*
D13*
X241300Y546100D03*
X241300Y444500D03*
X393700Y546100D03*
X393700Y444500D03*
X190500Y546100D03*
X190500Y444500D03*
X292100Y546100D03*
X292100Y444500D03*
X342900Y546100D03*
X342900Y444500D03*
D14*
X38100Y190500D03*
X38100Y139700D03*
X38100Y660400D03*
X38100Y711200D03*
X622300Y660400D03*
X622300Y711200D03*
X622300Y546100D03*
X622300Y596900D03*
D15*
X567400Y142600D03*
X626400Y314600D03*
D16*
X317500Y342900D03*
X304800Y323850D03*
X292100Y342900D03*
X381000Y342900D03*
X368300Y323850D03*
X355600Y342900D03*
X381000Y406400D03*
X368300Y387350D03*
X355600Y406400D03*
D17*
X241300Y716280D02*
X241300Y731520D01*
X266700Y731520D02*
X266700Y716280D01*
X292100Y716280D02*
X292100Y731520D01*
X292100Y134620D02*
X292100Y119380D01*
X266700Y119380D02*
X266700Y134620D01*
X241300Y134620D02*
X241300Y119380D01*
X304800Y779780D02*
X304800Y795020D01*
X330200Y795020D02*
X330200Y779780D01*
X355600Y779780D02*
X355600Y795020D01*
X355600Y71120D02*
X355600Y55880D01*
X330200Y55880D02*
X330200Y71120D01*
X304800Y71120D02*
X304800Y55880D01*
D12*
X165100Y355600D03*
X266700Y355600D03*
D18*
X381000Y685800D03*
X381000Y584200D03*
X330200Y279400D03*
X330200Y177800D03*
X431800Y685800D03*
X431800Y584200D03*
X381000Y279400D03*
X381000Y177800D03*
D19*
X114300Y723900D03*
X114300Y495300D03*
X114300Y355600D03*
X114300Y127000D03*
X508000Y723900D03*
X508000Y495300D03*
D20*
X508000Y127000D03*
X508000Y355600D03*
D10*
X596900Y368300D03*
X596900Y495300D03*
D18*
X431800Y292100D03*
X431800Y165100D03*
X228600Y685800D03*
X228600Y584200D03*
D10*
X177800Y177800D03*
X177800Y279400D03*
D18*
X279400Y685800D03*
X279400Y584200D03*
D10*
X228600Y177800D03*
X228600Y279400D03*
D18*
X177800Y685800D03*
X177800Y584200D03*
D10*
X546100Y368300D03*
X546100Y469900D03*
D18*
X330200Y685800D03*
X330200Y584200D03*
X279400Y279400D03*
X279400Y177800D03*
D21*
X194200Y66040D03*
X139700Y66040D03*
X85200Y66040D03*
X575200Y66040D03*
X520700Y66040D03*
X466200Y66040D03*
X85200Y784860D03*
X139700Y784860D03*
X194200Y784860D03*
X466200Y784860D03*
X520700Y784860D03*
X575200Y784860D03*
D22*
X60706Y343154D02*
X40894Y343154D01*
X40894Y393446D02*
X60706Y393446D01*
D14*
X38100Y457200D03*
X38100Y508000D03*
D23*
X335280Y502920D02*
X393700Y444500D01*
X335280Y502920D02*
X289560Y502920D01*
X251460Y541020D01*
X248920Y541020D01*
X243840Y546100D01*
X241300Y546100D01*
D24*
X38100Y711200D02*
X25400Y723900D01*
X25400Y837300D01*
X330200Y837300D02*
X508000Y837300D01*
X520700Y824600D01*
X520700Y784860D01*
D23*
X330200Y787400D02*
X330200Y837300D01*
D24*
X38100Y711200D02*
X38100Y660400D01*
X25400Y837300D02*
X139700Y837300D01*
X330200Y837300D01*
X139700Y837300D02*
X139700Y784860D01*
D23*
X355600Y345440D02*
X355600Y342900D01*
X355600Y345440D02*
X347980Y353060D01*
X347980Y358140D01*
X330200Y375920D01*
X327660Y375920D01*
X309880Y393700D01*
X299720Y393700D01*
X281940Y411480D01*
X276860Y411480D01*
X243840Y444500D01*
X241300Y444500D01*
X228600Y581660D02*
X228600Y584200D01*
X228600Y581660D02*
X220980Y574040D01*
X220980Y469900D01*
X236220Y454660D01*
X236220Y452120D01*
X238760Y449580D01*
X241300Y449580D01*
X243840Y447040D01*
X241300Y444500D01*
X363220Y322580D02*
X368300Y322580D01*
X363220Y322580D02*
X345440Y304800D01*
X314960Y335280D01*
X314960Y340360D01*
X317500Y342900D01*
X368300Y323850D02*
X368300Y322580D01*
X381000Y406400D02*
X383540Y406400D01*
X403860Y386080D01*
X403860Y381000D01*
X378460Y355600D01*
X375920Y355600D01*
X368300Y347980D01*
X368300Y323850D01*
X185420Y375920D02*
X165100Y396240D01*
X185420Y375920D02*
X243840Y375920D01*
X264160Y355600D01*
X266700Y355600D01*
X177800Y281940D02*
X177800Y279400D01*
X177800Y281940D02*
X208280Y312420D01*
X289560Y312420D01*
X299720Y322580D01*
X304800Y322580D01*
X304800Y323850D01*
X304800Y378460D02*
X304800Y381000D01*
X304800Y378460D02*
X297180Y370840D01*
X297180Y355600D01*
X304800Y347980D01*
X304800Y323850D01*
X292100Y139700D02*
X292100Y127000D01*
X292100Y139700D02*
X309880Y157480D01*
X309880Y167640D01*
X314960Y172720D01*
X314960Y182880D01*
X307340Y190500D01*
X307340Y193040D01*
X261620Y238760D01*
X218440Y238760D01*
X177800Y279400D01*
X228600Y279400D02*
X231140Y279400D01*
X261620Y248920D01*
X317500Y248920D01*
X345440Y276860D01*
X345440Y284480D01*
X353060Y292100D01*
X353060Y294640D01*
X368300Y309880D01*
X391160Y309880D01*
X393700Y307340D01*
X426720Y340360D01*
X426720Y474980D01*
X419100Y482600D01*
X419100Y485140D01*
X431800Y497840D01*
X431800Y500380D01*
X434340Y502920D01*
X434340Y508000D01*
X386080Y419100D02*
X416560Y388620D01*
X386080Y419100D02*
X375920Y419100D01*
X368300Y411480D01*
X368300Y403860D01*
X365760Y401320D01*
X363220Y401320D01*
X358140Y406400D01*
X355600Y406400D01*
D25*
X416560Y388620D03*
D23*
X266700Y723900D02*
X266700Y736600D01*
X264160Y739140D01*
X264160Y744220D01*
X266700Y746760D01*
X266700Y749300D01*
X276860Y759460D01*
X276860Y767080D01*
X299720Y789940D01*
X302260Y789940D01*
X304800Y787400D01*
X190500Y546100D02*
X175260Y546100D01*
X165100Y556260D01*
X162560Y556260D01*
X147320Y571500D01*
X147320Y683260D01*
X165100Y701040D01*
X180340Y701040D01*
X246380Y767080D01*
X276860Y767080D01*
X337820Y535940D02*
X314960Y513080D01*
X337820Y535940D02*
X337820Y538480D01*
X342900Y543560D01*
X342900Y546100D01*
D25*
X314960Y513080D03*
D23*
X165100Y655320D02*
X157480Y662940D01*
X165100Y655320D02*
X246380Y655320D01*
X254000Y662940D01*
X355600Y662940D01*
X378460Y685800D01*
X381000Y685800D01*
D25*
X157480Y662940D03*
D23*
X391160Y584200D02*
X462280Y655320D01*
X391160Y584200D02*
X381000Y584200D01*
X462280Y655320D02*
X462280Y698500D01*
X375920Y784860D01*
X365760Y784860D01*
X360680Y789940D01*
X358140Y789940D01*
X355600Y787400D01*
X330200Y177800D02*
X330200Y167640D01*
X322580Y160020D01*
X322580Y129540D01*
X292100Y99060D01*
X289560Y99060D01*
X279400Y88900D01*
X231140Y88900D01*
X215900Y73660D01*
X213360Y73660D01*
X205740Y66040D01*
X194200Y66040D01*
D24*
X38100Y101600D02*
X38100Y139700D01*
X38100Y101600D02*
X25400Y88900D01*
X25400Y12700D01*
X139700Y12700D01*
X330200Y12700D01*
X508000Y12700D01*
X520700Y25400D01*
X520700Y66040D01*
X139700Y66040D02*
X139700Y12700D01*
X38100Y177800D02*
X38100Y190500D01*
X38100Y177800D02*
X38100Y139700D01*
D23*
X167640Y177800D02*
X177800Y177800D01*
X167640Y177800D02*
X160020Y185420D01*
X157480Y185420D01*
X149860Y177800D01*
X38100Y177800D01*
X276860Y177800D02*
X279400Y177800D01*
X276860Y177800D02*
X246380Y208280D01*
X208280Y208280D01*
X177800Y177800D01*
X330200Y63500D02*
X330200Y12700D01*
D24*
X466200Y66040D02*
X466200Y85200D01*
X508000Y127000D01*
X194200Y765700D02*
X194200Y784860D01*
X194200Y765700D02*
X152400Y723900D01*
X114300Y723900D01*
X558800Y152400D02*
X566420Y144780D01*
X558800Y152400D02*
X558800Y157480D01*
X520700Y195580D01*
X462280Y195580D01*
X431800Y165100D01*
X566420Y144780D02*
X567400Y142600D01*
X452120Y208280D02*
X431800Y228600D01*
X381000Y279400D01*
X452120Y208280D02*
X462280Y195580D01*
X477520Y325120D02*
X508000Y355600D01*
X477520Y325120D02*
X477520Y274320D01*
X431800Y228600D01*
X114300Y355600D02*
X106680Y363220D01*
X106680Y424180D01*
X144780Y462280D01*
X144780Y464820D01*
X114300Y495300D01*
X515620Y500380D02*
X546100Y469900D01*
X515620Y500380D02*
X513080Y500380D01*
X508000Y495300D01*
X469900Y546100D02*
X431800Y584200D01*
X469900Y546100D02*
X474980Y546100D01*
X500380Y520700D01*
X500380Y518160D01*
X502920Y515620D01*
X513080Y500380D01*
X391160Y635000D02*
X264160Y635000D01*
X462280Y347980D02*
X462280Y340360D01*
X462280Y347980D02*
X510540Y396240D01*
X462280Y340360D02*
X477520Y325120D01*
D26*
X264160Y635000D03*
X391160Y635000D03*
X510540Y396240D03*
D24*
X575200Y753000D02*
X575200Y784860D01*
X575200Y753000D02*
X546100Y723900D01*
X508000Y723900D01*
D27*
X533400Y431800D02*
X596900Y368300D01*
X533400Y431800D02*
X495300Y431800D01*
X469900Y406400D01*
D28*
X584200Y508000D02*
X596900Y495300D01*
X584200Y508000D02*
X584200Y510540D01*
X619760Y546100D01*
X622300Y546100D01*
X622300Y596900D01*
M02*
