G04 EAGLE Gerber RS-274X export*
G75*
%MOMM*%
%FSLAX34Y34*%
%LPD*%
%INSilkscreen Bottom*%
%IPPOS*%
%AMOC8*
5,1,8,0,0,1.08239X$1,22.5*%
G01*
%ADD10C,0.203200*%
%ADD11C,0.152400*%
%ADD12R,10.668000X0.762000*%
%ADD13R,1.905000X0.508000*%
%ADD14R,0.762000X0.508000*%
%ADD15C,0.101600*%


D10*
X468884Y143312D02*
X445516Y143312D01*
X445516Y140716D02*
X445516Y145909D01*
X468884Y145909D02*
X468884Y140716D01*
X468884Y154245D02*
X445516Y154245D01*
X445516Y164630D01*
X452007Y172315D02*
X468884Y172315D01*
X452007Y172315D02*
X451848Y172317D01*
X451689Y172323D01*
X451529Y172333D01*
X451371Y172346D01*
X451212Y172364D01*
X451055Y172385D01*
X450897Y172411D01*
X450741Y172440D01*
X450585Y172473D01*
X450430Y172510D01*
X450276Y172550D01*
X450123Y172595D01*
X449971Y172643D01*
X449820Y172694D01*
X449671Y172750D01*
X449523Y172809D01*
X449377Y172872D01*
X449232Y172938D01*
X449089Y173008D01*
X448947Y173081D01*
X448808Y173158D01*
X448670Y173238D01*
X448534Y173322D01*
X448401Y173409D01*
X448269Y173499D01*
X448140Y173592D01*
X448014Y173689D01*
X447889Y173788D01*
X447767Y173891D01*
X447648Y173996D01*
X447531Y174105D01*
X447417Y174216D01*
X447306Y174330D01*
X447197Y174447D01*
X447092Y174566D01*
X446989Y174688D01*
X446890Y174813D01*
X446793Y174939D01*
X446700Y175068D01*
X446610Y175200D01*
X446523Y175333D01*
X446439Y175469D01*
X446359Y175607D01*
X446282Y175746D01*
X446209Y175888D01*
X446139Y176031D01*
X446073Y176176D01*
X446010Y176322D01*
X445951Y176470D01*
X445895Y176619D01*
X445844Y176770D01*
X445796Y176922D01*
X445751Y177075D01*
X445711Y177229D01*
X445674Y177384D01*
X445641Y177540D01*
X445612Y177696D01*
X445586Y177854D01*
X445565Y178011D01*
X445547Y178170D01*
X445534Y178328D01*
X445524Y178488D01*
X445518Y178647D01*
X445516Y178806D01*
X445518Y178965D01*
X445524Y179124D01*
X445534Y179284D01*
X445547Y179442D01*
X445565Y179601D01*
X445586Y179758D01*
X445612Y179916D01*
X445641Y180072D01*
X445674Y180228D01*
X445711Y180383D01*
X445751Y180537D01*
X445796Y180690D01*
X445844Y180842D01*
X445895Y180993D01*
X445951Y181142D01*
X446010Y181290D01*
X446073Y181436D01*
X446139Y181581D01*
X446209Y181724D01*
X446282Y181866D01*
X446359Y182005D01*
X446439Y182143D01*
X446523Y182279D01*
X446610Y182412D01*
X446700Y182544D01*
X446793Y182673D01*
X446890Y182799D01*
X446989Y182924D01*
X447092Y183046D01*
X447197Y183165D01*
X447306Y183282D01*
X447417Y183396D01*
X447531Y183507D01*
X447648Y183616D01*
X447767Y183721D01*
X447889Y183824D01*
X448014Y183923D01*
X448140Y184020D01*
X448269Y184113D01*
X448401Y184203D01*
X448534Y184290D01*
X448670Y184374D01*
X448808Y184454D01*
X448947Y184531D01*
X449089Y184604D01*
X449232Y184674D01*
X449377Y184740D01*
X449523Y184803D01*
X449671Y184862D01*
X449820Y184918D01*
X449971Y184969D01*
X450123Y185017D01*
X450276Y185062D01*
X450430Y185102D01*
X450585Y185139D01*
X450741Y185172D01*
X450897Y185201D01*
X451055Y185227D01*
X451212Y185248D01*
X451371Y185266D01*
X451529Y185279D01*
X451689Y185289D01*
X451848Y185295D01*
X452007Y185297D01*
X468884Y185297D01*
X468884Y194680D02*
X445516Y194680D01*
X455902Y202469D02*
X468884Y194680D01*
X455902Y202469D02*
X468884Y210258D01*
X445516Y210258D01*
X445516Y221260D02*
X468884Y221260D01*
X445516Y218663D02*
X445516Y223856D01*
X468884Y223856D02*
X468884Y218663D01*
X468884Y232168D02*
X445516Y232168D01*
X445516Y245150D02*
X468884Y232168D01*
X468884Y245150D02*
X445516Y245150D01*
X445516Y252444D02*
X468884Y260233D01*
X445516Y268023D01*
X451358Y266075D02*
X451358Y254391D01*
X445516Y281715D02*
X445518Y281858D01*
X445524Y282001D01*
X445534Y282144D01*
X445548Y282286D01*
X445565Y282428D01*
X445587Y282570D01*
X445612Y282711D01*
X445642Y282851D01*
X445675Y282990D01*
X445712Y283128D01*
X445753Y283265D01*
X445797Y283401D01*
X445846Y283536D01*
X445898Y283669D01*
X445953Y283801D01*
X446013Y283931D01*
X446076Y284060D01*
X446142Y284187D01*
X446212Y284312D01*
X446285Y284434D01*
X446362Y284555D01*
X446442Y284674D01*
X446525Y284790D01*
X446611Y284905D01*
X446700Y285016D01*
X446793Y285126D01*
X446888Y285232D01*
X446987Y285336D01*
X447088Y285437D01*
X447192Y285536D01*
X447298Y285631D01*
X447408Y285724D01*
X447519Y285813D01*
X447634Y285899D01*
X447750Y285982D01*
X447869Y286062D01*
X447990Y286139D01*
X448113Y286212D01*
X448237Y286282D01*
X448364Y286348D01*
X448493Y286411D01*
X448623Y286471D01*
X448755Y286526D01*
X448888Y286578D01*
X449023Y286627D01*
X449159Y286671D01*
X449296Y286712D01*
X449434Y286749D01*
X449573Y286782D01*
X449713Y286812D01*
X449854Y286837D01*
X449996Y286859D01*
X450138Y286876D01*
X450280Y286890D01*
X450423Y286900D01*
X450566Y286906D01*
X450709Y286908D01*
X445516Y281715D02*
X445519Y281453D01*
X445529Y281190D01*
X445544Y280928D01*
X445566Y280667D01*
X445594Y280406D01*
X445629Y280146D01*
X445670Y279886D01*
X445716Y279628D01*
X445769Y279371D01*
X445829Y279115D01*
X445894Y278861D01*
X445965Y278608D01*
X446042Y278358D01*
X446126Y278109D01*
X446215Y277862D01*
X446310Y277617D01*
X446411Y277375D01*
X446518Y277135D01*
X446630Y276898D01*
X446748Y276664D01*
X446872Y276432D01*
X447001Y276204D01*
X447136Y275978D01*
X447276Y275756D01*
X447421Y275537D01*
X447571Y275322D01*
X447727Y275111D01*
X447887Y274903D01*
X448053Y274699D01*
X448223Y274500D01*
X448398Y274304D01*
X448577Y274113D01*
X448762Y273926D01*
X463691Y274574D02*
X463834Y274576D01*
X463977Y274582D01*
X464120Y274592D01*
X464262Y274606D01*
X464404Y274623D01*
X464546Y274645D01*
X464687Y274670D01*
X464827Y274700D01*
X464966Y274733D01*
X465104Y274770D01*
X465241Y274811D01*
X465377Y274855D01*
X465512Y274904D01*
X465645Y274956D01*
X465777Y275011D01*
X465907Y275071D01*
X466036Y275134D01*
X466163Y275200D01*
X466288Y275270D01*
X466410Y275343D01*
X466531Y275420D01*
X466650Y275500D01*
X466766Y275583D01*
X466881Y275669D01*
X466992Y275758D01*
X467102Y275851D01*
X467208Y275946D01*
X467312Y276045D01*
X467413Y276146D01*
X467512Y276250D01*
X467607Y276356D01*
X467700Y276466D01*
X467789Y276577D01*
X467875Y276692D01*
X467959Y276808D01*
X468038Y276927D01*
X468115Y277048D01*
X468188Y277171D01*
X468258Y277295D01*
X468324Y277422D01*
X468387Y277551D01*
X468447Y277681D01*
X468502Y277813D01*
X468554Y277946D01*
X468603Y278081D01*
X468647Y278217D01*
X468688Y278354D01*
X468725Y278492D01*
X468758Y278631D01*
X468788Y278771D01*
X468813Y278912D01*
X468835Y279054D01*
X468852Y279196D01*
X468866Y279338D01*
X468876Y279481D01*
X468882Y279624D01*
X468884Y279767D01*
X468881Y279999D01*
X468873Y280231D01*
X468859Y280463D01*
X468840Y280694D01*
X468815Y280925D01*
X468785Y281155D01*
X468749Y281384D01*
X468708Y281612D01*
X468661Y281840D01*
X468609Y282066D01*
X468551Y282291D01*
X468488Y282514D01*
X468420Y282736D01*
X468347Y282956D01*
X468268Y283174D01*
X468185Y283391D01*
X468096Y283605D01*
X468002Y283817D01*
X467903Y284027D01*
X467799Y284235D01*
X467690Y284439D01*
X467576Y284642D01*
X467457Y284841D01*
X467334Y285038D01*
X467206Y285231D01*
X467074Y285422D01*
X466937Y285609D01*
X459147Y277170D02*
X459222Y277047D01*
X459300Y276926D01*
X459382Y276807D01*
X459466Y276691D01*
X459554Y276577D01*
X459645Y276465D01*
X459739Y276355D01*
X459836Y276249D01*
X459936Y276145D01*
X460038Y276044D01*
X460144Y275945D01*
X460252Y275850D01*
X460362Y275757D01*
X460475Y275668D01*
X460591Y275582D01*
X460708Y275498D01*
X460828Y275419D01*
X460950Y275342D01*
X461074Y275269D01*
X461200Y275199D01*
X461328Y275133D01*
X461458Y275070D01*
X461589Y275011D01*
X461722Y274955D01*
X461857Y274903D01*
X461993Y274855D01*
X462130Y274810D01*
X462268Y274770D01*
X462407Y274733D01*
X462547Y274699D01*
X462688Y274670D01*
X462830Y274645D01*
X462973Y274623D01*
X463116Y274605D01*
X463259Y274592D01*
X463403Y274582D01*
X463547Y274576D01*
X463691Y274574D01*
X455253Y284311D02*
X455178Y284434D01*
X455100Y284555D01*
X455018Y284674D01*
X454934Y284790D01*
X454846Y284904D01*
X454755Y285016D01*
X454661Y285125D01*
X454564Y285232D01*
X454464Y285336D01*
X454362Y285437D01*
X454256Y285536D01*
X454148Y285631D01*
X454038Y285724D01*
X453925Y285813D01*
X453810Y285899D01*
X453692Y285982D01*
X453572Y286062D01*
X453450Y286139D01*
X453326Y286212D01*
X453200Y286282D01*
X453072Y286348D01*
X452942Y286411D01*
X452811Y286470D01*
X452678Y286526D01*
X452543Y286578D01*
X452407Y286626D01*
X452270Y286671D01*
X452132Y286711D01*
X451993Y286748D01*
X451853Y286782D01*
X451712Y286811D01*
X451570Y286836D01*
X451427Y286858D01*
X451284Y286876D01*
X451141Y286889D01*
X450997Y286899D01*
X450853Y286905D01*
X450709Y286907D01*
X455253Y284311D02*
X459147Y277171D01*
X462393Y294108D02*
X452007Y294108D01*
X462393Y294108D02*
X462552Y294110D01*
X462711Y294116D01*
X462871Y294126D01*
X463029Y294139D01*
X463188Y294157D01*
X463345Y294178D01*
X463503Y294204D01*
X463659Y294233D01*
X463815Y294266D01*
X463970Y294303D01*
X464124Y294343D01*
X464277Y294388D01*
X464429Y294436D01*
X464580Y294487D01*
X464729Y294543D01*
X464877Y294602D01*
X465023Y294665D01*
X465168Y294731D01*
X465311Y294801D01*
X465453Y294874D01*
X465592Y294951D01*
X465730Y295031D01*
X465866Y295115D01*
X465999Y295202D01*
X466131Y295292D01*
X466260Y295385D01*
X466386Y295482D01*
X466511Y295581D01*
X466633Y295684D01*
X466752Y295789D01*
X466869Y295898D01*
X466983Y296009D01*
X467094Y296123D01*
X467203Y296240D01*
X467308Y296359D01*
X467411Y296481D01*
X467510Y296606D01*
X467607Y296732D01*
X467700Y296861D01*
X467790Y296993D01*
X467877Y297126D01*
X467961Y297262D01*
X468041Y297400D01*
X468118Y297539D01*
X468191Y297681D01*
X468261Y297824D01*
X468327Y297969D01*
X468390Y298115D01*
X468449Y298263D01*
X468505Y298412D01*
X468556Y298563D01*
X468604Y298715D01*
X468649Y298868D01*
X468689Y299022D01*
X468726Y299177D01*
X468759Y299333D01*
X468788Y299489D01*
X468814Y299647D01*
X468835Y299804D01*
X468853Y299963D01*
X468866Y300121D01*
X468876Y300281D01*
X468882Y300440D01*
X468884Y300599D01*
X468882Y300758D01*
X468876Y300917D01*
X468866Y301077D01*
X468853Y301235D01*
X468835Y301394D01*
X468814Y301551D01*
X468788Y301709D01*
X468759Y301865D01*
X468726Y302021D01*
X468689Y302176D01*
X468649Y302330D01*
X468604Y302483D01*
X468556Y302635D01*
X468505Y302786D01*
X468449Y302935D01*
X468390Y303083D01*
X468327Y303229D01*
X468261Y303374D01*
X468191Y303517D01*
X468118Y303659D01*
X468041Y303798D01*
X467961Y303936D01*
X467877Y304072D01*
X467790Y304205D01*
X467700Y304337D01*
X467607Y304466D01*
X467510Y304592D01*
X467411Y304717D01*
X467308Y304839D01*
X467203Y304958D01*
X467094Y305075D01*
X466983Y305189D01*
X466869Y305300D01*
X466752Y305409D01*
X466633Y305514D01*
X466511Y305617D01*
X466386Y305716D01*
X466260Y305813D01*
X466131Y305906D01*
X465999Y305996D01*
X465866Y306083D01*
X465730Y306167D01*
X465592Y306247D01*
X465453Y306324D01*
X465311Y306397D01*
X465168Y306467D01*
X465023Y306533D01*
X464877Y306596D01*
X464729Y306655D01*
X464580Y306711D01*
X464429Y306762D01*
X464277Y306810D01*
X464124Y306855D01*
X463970Y306895D01*
X463815Y306932D01*
X463659Y306965D01*
X463503Y306994D01*
X463345Y307020D01*
X463188Y307041D01*
X463029Y307059D01*
X462871Y307072D01*
X462711Y307082D01*
X462552Y307088D01*
X462393Y307090D01*
X452007Y307090D01*
X451848Y307088D01*
X451689Y307082D01*
X451529Y307072D01*
X451371Y307059D01*
X451212Y307041D01*
X451055Y307020D01*
X450897Y306994D01*
X450741Y306965D01*
X450585Y306932D01*
X450430Y306895D01*
X450276Y306855D01*
X450123Y306810D01*
X449971Y306762D01*
X449820Y306711D01*
X449671Y306655D01*
X449523Y306596D01*
X449377Y306533D01*
X449232Y306467D01*
X449089Y306397D01*
X448947Y306324D01*
X448808Y306247D01*
X448670Y306167D01*
X448534Y306083D01*
X448401Y305996D01*
X448269Y305906D01*
X448140Y305813D01*
X448014Y305716D01*
X447889Y305617D01*
X447767Y305514D01*
X447648Y305409D01*
X447531Y305300D01*
X447417Y305189D01*
X447306Y305075D01*
X447197Y304958D01*
X447092Y304839D01*
X446989Y304717D01*
X446890Y304592D01*
X446793Y304466D01*
X446700Y304337D01*
X446610Y304205D01*
X446523Y304072D01*
X446439Y303936D01*
X446359Y303798D01*
X446282Y303659D01*
X446209Y303517D01*
X446139Y303374D01*
X446073Y303229D01*
X446010Y303083D01*
X445951Y302935D01*
X445895Y302786D01*
X445844Y302635D01*
X445796Y302483D01*
X445751Y302330D01*
X445711Y302176D01*
X445674Y302021D01*
X445641Y301865D01*
X445612Y301709D01*
X445586Y301551D01*
X445565Y301394D01*
X445547Y301235D01*
X445534Y301077D01*
X445524Y300917D01*
X445518Y300758D01*
X445516Y300599D01*
X445518Y300440D01*
X445524Y300281D01*
X445534Y300121D01*
X445547Y299963D01*
X445565Y299804D01*
X445586Y299647D01*
X445612Y299489D01*
X445641Y299333D01*
X445674Y299177D01*
X445711Y299022D01*
X445751Y298868D01*
X445796Y298715D01*
X445844Y298563D01*
X445895Y298412D01*
X445951Y298263D01*
X446010Y298115D01*
X446073Y297969D01*
X446139Y297824D01*
X446209Y297681D01*
X446282Y297539D01*
X446359Y297400D01*
X446439Y297262D01*
X446523Y297126D01*
X446610Y296993D01*
X446700Y296861D01*
X446793Y296732D01*
X446890Y296606D01*
X446989Y296481D01*
X447092Y296359D01*
X447197Y296240D01*
X447306Y296123D01*
X447417Y296009D01*
X447531Y295898D01*
X447648Y295789D01*
X447767Y295684D01*
X447889Y295581D01*
X448014Y295482D01*
X448140Y295385D01*
X448269Y295292D01*
X448401Y295202D01*
X448534Y295115D01*
X448670Y295031D01*
X448808Y294951D01*
X448947Y294874D01*
X449089Y294801D01*
X449232Y294731D01*
X449377Y294665D01*
X449523Y294602D01*
X449671Y294543D01*
X449820Y294487D01*
X449971Y294436D01*
X450123Y294388D01*
X450276Y294343D01*
X450430Y294303D01*
X450585Y294266D01*
X450741Y294233D01*
X450897Y294204D01*
X451055Y294178D01*
X451212Y294157D01*
X451371Y294139D01*
X451529Y294126D01*
X451689Y294116D01*
X451848Y294110D01*
X452007Y294108D01*
X445516Y315776D02*
X468884Y315776D01*
X455902Y323566D01*
X468884Y331355D01*
X445516Y331355D01*
X430784Y195322D02*
X407416Y187533D01*
X407416Y203111D02*
X430784Y195322D01*
X413258Y201164D02*
X413258Y189480D01*
X407416Y210499D02*
X430784Y210499D01*
X417802Y218289D01*
X430784Y226078D01*
X407416Y226078D01*
X407416Y235608D02*
X430784Y235608D01*
X430784Y242099D01*
X430782Y242258D01*
X430776Y242417D01*
X430766Y242577D01*
X430753Y242735D01*
X430735Y242894D01*
X430714Y243051D01*
X430688Y243209D01*
X430659Y243365D01*
X430626Y243521D01*
X430589Y243676D01*
X430549Y243830D01*
X430504Y243983D01*
X430456Y244135D01*
X430405Y244286D01*
X430349Y244435D01*
X430290Y244583D01*
X430227Y244729D01*
X430161Y244874D01*
X430091Y245017D01*
X430018Y245159D01*
X429941Y245298D01*
X429861Y245436D01*
X429777Y245572D01*
X429690Y245705D01*
X429600Y245837D01*
X429507Y245966D01*
X429410Y246092D01*
X429311Y246217D01*
X429208Y246339D01*
X429103Y246458D01*
X428994Y246575D01*
X428883Y246689D01*
X428769Y246800D01*
X428652Y246909D01*
X428533Y247014D01*
X428411Y247117D01*
X428286Y247216D01*
X428160Y247313D01*
X428031Y247406D01*
X427899Y247496D01*
X427766Y247583D01*
X427630Y247667D01*
X427492Y247747D01*
X427353Y247824D01*
X427211Y247897D01*
X427068Y247967D01*
X426923Y248033D01*
X426777Y248096D01*
X426629Y248155D01*
X426480Y248211D01*
X426329Y248262D01*
X426177Y248310D01*
X426024Y248355D01*
X425870Y248395D01*
X425715Y248432D01*
X425559Y248465D01*
X425403Y248494D01*
X425245Y248520D01*
X425088Y248541D01*
X424929Y248559D01*
X424771Y248572D01*
X424611Y248582D01*
X424452Y248588D01*
X424293Y248590D01*
X424134Y248588D01*
X423975Y248582D01*
X423815Y248572D01*
X423657Y248559D01*
X423498Y248541D01*
X423341Y248520D01*
X423183Y248494D01*
X423027Y248465D01*
X422871Y248432D01*
X422716Y248395D01*
X422562Y248355D01*
X422409Y248310D01*
X422257Y248262D01*
X422106Y248211D01*
X421957Y248155D01*
X421809Y248096D01*
X421663Y248033D01*
X421518Y247967D01*
X421375Y247897D01*
X421233Y247824D01*
X421094Y247747D01*
X420956Y247667D01*
X420820Y247583D01*
X420687Y247496D01*
X420555Y247406D01*
X420426Y247313D01*
X420300Y247216D01*
X420175Y247117D01*
X420053Y247014D01*
X419934Y246909D01*
X419817Y246800D01*
X419703Y246689D01*
X419592Y246575D01*
X419483Y246458D01*
X419378Y246339D01*
X419275Y246217D01*
X419176Y246092D01*
X419079Y245966D01*
X418986Y245837D01*
X418896Y245705D01*
X418809Y245572D01*
X418725Y245436D01*
X418645Y245298D01*
X418568Y245159D01*
X418495Y245017D01*
X418425Y244874D01*
X418359Y244729D01*
X418296Y244583D01*
X418237Y244435D01*
X418181Y244286D01*
X418130Y244135D01*
X418082Y243983D01*
X418037Y243830D01*
X417997Y243676D01*
X417960Y243521D01*
X417927Y243365D01*
X417898Y243209D01*
X417872Y243051D01*
X417851Y242894D01*
X417833Y242735D01*
X417820Y242577D01*
X417810Y242417D01*
X417804Y242258D01*
X417802Y242099D01*
X417802Y235608D01*
X419100Y255643D02*
X419560Y255648D01*
X420019Y255665D01*
X420478Y255692D01*
X420936Y255731D01*
X421393Y255780D01*
X421849Y255840D01*
X422303Y255911D01*
X422756Y255993D01*
X423206Y256086D01*
X423654Y256189D01*
X424099Y256303D01*
X424542Y256428D01*
X424981Y256563D01*
X425417Y256709D01*
X425849Y256865D01*
X426278Y257031D01*
X426703Y257207D01*
X427123Y257394D01*
X427538Y257590D01*
X427539Y257591D02*
X427666Y257636D01*
X427792Y257686D01*
X427917Y257738D01*
X428040Y257795D01*
X428162Y257855D01*
X428281Y257918D01*
X428399Y257984D01*
X428515Y258054D01*
X428629Y258127D01*
X428741Y258203D01*
X428851Y258283D01*
X428958Y258365D01*
X429063Y258451D01*
X429166Y258539D01*
X429266Y258630D01*
X429364Y258724D01*
X429458Y258821D01*
X429550Y258920D01*
X429640Y259022D01*
X429726Y259126D01*
X429809Y259233D01*
X429889Y259342D01*
X429967Y259454D01*
X430040Y259567D01*
X430111Y259682D01*
X430179Y259800D01*
X430243Y259919D01*
X430304Y260040D01*
X430361Y260163D01*
X430415Y260287D01*
X430465Y260413D01*
X430512Y260540D01*
X430555Y260668D01*
X430594Y260798D01*
X430630Y260928D01*
X430662Y261060D01*
X430691Y261192D01*
X430715Y261325D01*
X430736Y261459D01*
X430753Y261594D01*
X430767Y261728D01*
X430776Y261863D01*
X430782Y261999D01*
X430784Y262134D01*
X430782Y262269D01*
X430776Y262405D01*
X430767Y262540D01*
X430753Y262675D01*
X430736Y262809D01*
X430715Y262943D01*
X430691Y263076D01*
X430662Y263208D01*
X430630Y263340D01*
X430594Y263470D01*
X430555Y263600D01*
X430512Y263728D01*
X430465Y263855D01*
X430415Y263981D01*
X430361Y264105D01*
X430304Y264228D01*
X430243Y264349D01*
X430179Y264468D01*
X430111Y264586D01*
X430040Y264701D01*
X429966Y264814D01*
X429889Y264926D01*
X429809Y265035D01*
X429726Y265142D01*
X429640Y265246D01*
X429550Y265348D01*
X429458Y265447D01*
X429364Y265544D01*
X429266Y265638D01*
X429166Y265729D01*
X429063Y265817D01*
X428958Y265903D01*
X428851Y265985D01*
X428741Y266065D01*
X428629Y266141D01*
X428515Y266214D01*
X428399Y266284D01*
X428281Y266350D01*
X428162Y266413D01*
X428040Y266473D01*
X427917Y266530D01*
X427792Y266582D01*
X427666Y266632D01*
X427539Y266677D01*
X427539Y266678D02*
X427123Y266874D01*
X426703Y267061D01*
X426278Y267237D01*
X425850Y267403D01*
X425417Y267559D01*
X424981Y267705D01*
X424542Y267840D01*
X424099Y267965D01*
X423654Y268079D01*
X423206Y268182D01*
X422756Y268275D01*
X422303Y268357D01*
X421849Y268428D01*
X421393Y268488D01*
X420936Y268537D01*
X420478Y268576D01*
X420019Y268603D01*
X419560Y268620D01*
X419100Y268625D01*
X419100Y255643D02*
X418640Y255648D01*
X418181Y255665D01*
X417722Y255692D01*
X417264Y255731D01*
X416807Y255780D01*
X416351Y255840D01*
X415897Y255911D01*
X415445Y255993D01*
X414994Y256086D01*
X414546Y256189D01*
X414101Y256303D01*
X413658Y256428D01*
X413219Y256563D01*
X412783Y256709D01*
X412351Y256865D01*
X411922Y257031D01*
X411497Y257207D01*
X411077Y257394D01*
X410662Y257590D01*
X410661Y257591D02*
X410534Y257636D01*
X410408Y257686D01*
X410283Y257738D01*
X410160Y257795D01*
X410038Y257855D01*
X409919Y257918D01*
X409801Y257984D01*
X409685Y258054D01*
X409571Y258127D01*
X409459Y258203D01*
X409349Y258283D01*
X409242Y258365D01*
X409137Y258451D01*
X409034Y258539D01*
X408934Y258630D01*
X408836Y258724D01*
X408742Y258821D01*
X408650Y258920D01*
X408560Y259022D01*
X408474Y259127D01*
X408391Y259233D01*
X408311Y259342D01*
X408233Y259454D01*
X408160Y259567D01*
X408089Y259682D01*
X408021Y259800D01*
X407957Y259919D01*
X407896Y260040D01*
X407839Y260163D01*
X407785Y260287D01*
X407735Y260413D01*
X407688Y260540D01*
X407645Y260668D01*
X407606Y260798D01*
X407570Y260928D01*
X407538Y261060D01*
X407509Y261192D01*
X407485Y261325D01*
X407464Y261459D01*
X407447Y261594D01*
X407433Y261728D01*
X407424Y261863D01*
X407418Y261999D01*
X407416Y262134D01*
X410662Y266678D02*
X411077Y266874D01*
X411497Y267061D01*
X411922Y267237D01*
X412350Y267403D01*
X412783Y267559D01*
X413219Y267705D01*
X413658Y267840D01*
X414101Y267965D01*
X414546Y268079D01*
X414994Y268182D01*
X415444Y268275D01*
X415897Y268357D01*
X416351Y268428D01*
X416807Y268488D01*
X417264Y268537D01*
X417722Y268576D01*
X418181Y268603D01*
X418640Y268620D01*
X419100Y268625D01*
X410661Y266677D02*
X410534Y266632D01*
X410408Y266582D01*
X410283Y266530D01*
X410160Y266473D01*
X410038Y266413D01*
X409919Y266350D01*
X409801Y266284D01*
X409685Y266214D01*
X409571Y266141D01*
X409459Y266065D01*
X409349Y265985D01*
X409242Y265903D01*
X409137Y265817D01*
X409034Y265729D01*
X408934Y265638D01*
X408836Y265544D01*
X408742Y265447D01*
X408650Y265348D01*
X408560Y265246D01*
X408474Y265142D01*
X408391Y265035D01*
X408311Y264926D01*
X408233Y264814D01*
X408160Y264701D01*
X408089Y264586D01*
X408021Y264468D01*
X407957Y264349D01*
X407896Y264228D01*
X407839Y264105D01*
X407785Y263981D01*
X407735Y263855D01*
X407688Y263728D01*
X407645Y263600D01*
X407606Y263470D01*
X407570Y263340D01*
X407538Y263208D01*
X407509Y263076D01*
X407485Y262943D01*
X407464Y262809D01*
X407447Y262674D01*
X407433Y262540D01*
X407424Y262405D01*
X407418Y262269D01*
X407416Y262134D01*
X412609Y256941D02*
X425591Y267327D01*
X425591Y276522D02*
X430784Y283013D01*
X407416Y283013D01*
X407416Y276522D02*
X407416Y289504D01*
D11*
X381000Y773430D02*
X379730Y802640D01*
X377190Y805180D01*
X283210Y805180D01*
X280670Y802640D01*
X279400Y773430D01*
X282702Y799084D02*
X282704Y799184D01*
X282710Y799285D01*
X282720Y799384D01*
X282734Y799484D01*
X282751Y799583D01*
X282773Y799681D01*
X282799Y799778D01*
X282828Y799874D01*
X282861Y799968D01*
X282898Y800062D01*
X282938Y800154D01*
X282982Y800244D01*
X283030Y800332D01*
X283081Y800419D01*
X283135Y800503D01*
X283193Y800585D01*
X283254Y800665D01*
X283318Y800742D01*
X283385Y800817D01*
X283455Y800889D01*
X283528Y800958D01*
X283603Y801024D01*
X283681Y801088D01*
X283761Y801148D01*
X283844Y801205D01*
X283929Y801258D01*
X284016Y801308D01*
X284105Y801355D01*
X284195Y801398D01*
X284287Y801438D01*
X284381Y801474D01*
X284476Y801506D01*
X284572Y801534D01*
X284670Y801559D01*
X284768Y801579D01*
X284867Y801596D01*
X284967Y801609D01*
X285066Y801618D01*
X285167Y801623D01*
X285267Y801624D01*
X285367Y801621D01*
X285468Y801614D01*
X285567Y801603D01*
X285667Y801588D01*
X285765Y801570D01*
X285863Y801547D01*
X285960Y801520D01*
X286055Y801490D01*
X286150Y801456D01*
X286243Y801418D01*
X286334Y801377D01*
X286424Y801332D01*
X286512Y801284D01*
X286598Y801232D01*
X286682Y801177D01*
X286763Y801118D01*
X286842Y801056D01*
X286919Y800992D01*
X286993Y800924D01*
X287064Y800853D01*
X287133Y800780D01*
X287198Y800704D01*
X287261Y800625D01*
X287320Y800544D01*
X287376Y800461D01*
X287429Y800376D01*
X287478Y800288D01*
X287524Y800199D01*
X287566Y800108D01*
X287605Y800015D01*
X287640Y799921D01*
X287671Y799826D01*
X287699Y799729D01*
X287722Y799632D01*
X287742Y799533D01*
X287758Y799434D01*
X287770Y799335D01*
X287778Y799234D01*
X287782Y799134D01*
X287782Y799034D01*
X287778Y798934D01*
X287770Y798833D01*
X287758Y798734D01*
X287742Y798635D01*
X287722Y798536D01*
X287699Y798439D01*
X287671Y798342D01*
X287640Y798247D01*
X287605Y798153D01*
X287566Y798060D01*
X287524Y797969D01*
X287478Y797880D01*
X287429Y797792D01*
X287376Y797707D01*
X287320Y797624D01*
X287261Y797543D01*
X287198Y797464D01*
X287133Y797388D01*
X287064Y797315D01*
X286993Y797244D01*
X286919Y797176D01*
X286842Y797112D01*
X286763Y797050D01*
X286682Y796991D01*
X286598Y796936D01*
X286512Y796884D01*
X286424Y796836D01*
X286334Y796791D01*
X286243Y796750D01*
X286150Y796712D01*
X286055Y796678D01*
X285960Y796648D01*
X285863Y796621D01*
X285765Y796598D01*
X285667Y796580D01*
X285567Y796565D01*
X285468Y796554D01*
X285367Y796547D01*
X285267Y796544D01*
X285167Y796545D01*
X285066Y796550D01*
X284967Y796559D01*
X284867Y796572D01*
X284768Y796589D01*
X284670Y796609D01*
X284572Y796634D01*
X284476Y796662D01*
X284381Y796694D01*
X284287Y796730D01*
X284195Y796770D01*
X284105Y796813D01*
X284016Y796860D01*
X283929Y796910D01*
X283844Y796963D01*
X283761Y797020D01*
X283681Y797080D01*
X283603Y797144D01*
X283528Y797210D01*
X283455Y797279D01*
X283385Y797351D01*
X283318Y797426D01*
X283254Y797503D01*
X283193Y797583D01*
X283135Y797665D01*
X283081Y797749D01*
X283030Y797836D01*
X282982Y797924D01*
X282938Y798014D01*
X282898Y798106D01*
X282861Y798200D01*
X282828Y798294D01*
X282799Y798390D01*
X282773Y798487D01*
X282751Y798585D01*
X282734Y798684D01*
X282720Y798784D01*
X282710Y798883D01*
X282704Y798984D01*
X282702Y799084D01*
D12*
X330200Y765810D03*
D13*
X286385Y772160D03*
D14*
X317500Y772160D03*
X342900Y772160D03*
D13*
X374015Y772160D03*
D11*
X279400Y77470D02*
X280670Y48260D01*
X283210Y45720D01*
X377190Y45720D01*
X379730Y48260D01*
X381000Y77470D01*
X372618Y51816D02*
X372620Y51916D01*
X372626Y52017D01*
X372636Y52116D01*
X372650Y52216D01*
X372667Y52315D01*
X372689Y52413D01*
X372715Y52510D01*
X372744Y52606D01*
X372777Y52700D01*
X372814Y52794D01*
X372854Y52886D01*
X372898Y52976D01*
X372946Y53064D01*
X372997Y53151D01*
X373051Y53235D01*
X373109Y53317D01*
X373170Y53397D01*
X373234Y53474D01*
X373301Y53549D01*
X373371Y53621D01*
X373444Y53690D01*
X373519Y53756D01*
X373597Y53820D01*
X373677Y53880D01*
X373760Y53937D01*
X373845Y53990D01*
X373932Y54040D01*
X374021Y54087D01*
X374111Y54130D01*
X374203Y54170D01*
X374297Y54206D01*
X374392Y54238D01*
X374488Y54266D01*
X374586Y54291D01*
X374684Y54311D01*
X374783Y54328D01*
X374883Y54341D01*
X374982Y54350D01*
X375083Y54355D01*
X375183Y54356D01*
X375283Y54353D01*
X375384Y54346D01*
X375483Y54335D01*
X375583Y54320D01*
X375681Y54302D01*
X375779Y54279D01*
X375876Y54252D01*
X375971Y54222D01*
X376066Y54188D01*
X376159Y54150D01*
X376250Y54109D01*
X376340Y54064D01*
X376428Y54016D01*
X376514Y53964D01*
X376598Y53909D01*
X376679Y53850D01*
X376758Y53788D01*
X376835Y53724D01*
X376909Y53656D01*
X376980Y53585D01*
X377049Y53512D01*
X377114Y53436D01*
X377177Y53357D01*
X377236Y53276D01*
X377292Y53193D01*
X377345Y53108D01*
X377394Y53020D01*
X377440Y52931D01*
X377482Y52840D01*
X377521Y52747D01*
X377556Y52653D01*
X377587Y52558D01*
X377615Y52461D01*
X377638Y52364D01*
X377658Y52265D01*
X377674Y52166D01*
X377686Y52067D01*
X377694Y51966D01*
X377698Y51866D01*
X377698Y51766D01*
X377694Y51666D01*
X377686Y51565D01*
X377674Y51466D01*
X377658Y51367D01*
X377638Y51268D01*
X377615Y51171D01*
X377587Y51074D01*
X377556Y50979D01*
X377521Y50885D01*
X377482Y50792D01*
X377440Y50701D01*
X377394Y50612D01*
X377345Y50524D01*
X377292Y50439D01*
X377236Y50356D01*
X377177Y50275D01*
X377114Y50196D01*
X377049Y50120D01*
X376980Y50047D01*
X376909Y49976D01*
X376835Y49908D01*
X376758Y49844D01*
X376679Y49782D01*
X376598Y49723D01*
X376514Y49668D01*
X376428Y49616D01*
X376340Y49568D01*
X376250Y49523D01*
X376159Y49482D01*
X376066Y49444D01*
X375971Y49410D01*
X375876Y49380D01*
X375779Y49353D01*
X375681Y49330D01*
X375583Y49312D01*
X375483Y49297D01*
X375384Y49286D01*
X375283Y49279D01*
X375183Y49276D01*
X375083Y49277D01*
X374982Y49282D01*
X374883Y49291D01*
X374783Y49304D01*
X374684Y49321D01*
X374586Y49341D01*
X374488Y49366D01*
X374392Y49394D01*
X374297Y49426D01*
X374203Y49462D01*
X374111Y49502D01*
X374021Y49545D01*
X373932Y49592D01*
X373845Y49642D01*
X373760Y49695D01*
X373677Y49752D01*
X373597Y49812D01*
X373519Y49876D01*
X373444Y49942D01*
X373371Y50011D01*
X373301Y50083D01*
X373234Y50158D01*
X373170Y50235D01*
X373109Y50315D01*
X373051Y50397D01*
X372997Y50481D01*
X372946Y50568D01*
X372898Y50656D01*
X372854Y50746D01*
X372814Y50838D01*
X372777Y50932D01*
X372744Y51026D01*
X372715Y51122D01*
X372689Y51219D01*
X372667Y51317D01*
X372650Y51416D01*
X372636Y51516D01*
X372626Y51615D01*
X372620Y51716D01*
X372618Y51816D01*
D12*
X330200Y85090D03*
D13*
X374015Y78740D03*
D14*
X342900Y78740D03*
X317500Y78740D03*
D13*
X286385Y78740D03*
D15*
X241300Y41275D02*
X38100Y41275D01*
X241300Y41275D02*
X241300Y92075D01*
X38100Y92075D01*
X38100Y41275D01*
X419100Y41275D02*
X622300Y41275D01*
X622300Y92075D01*
X419100Y92075D01*
X419100Y41275D01*
X241300Y809625D02*
X38100Y809625D01*
X38100Y758825D01*
X241300Y758825D01*
X241300Y809625D01*
X419100Y809625D02*
X622300Y809625D01*
X419100Y809625D02*
X419100Y758825D01*
X622300Y758825D01*
X622300Y809625D01*
M02*
