%TF.GenerationSoftware,KiCad,Pcbnew,(5.1.9)-1*%
%TF.CreationDate,2021-06-19T11:56:29-03:00*%
%TF.ProjectId,assert,61737365-7274-42e6-9b69-6361645f7063,rev?*%
%TF.SameCoordinates,Original*%
%TF.FileFunction,Soldermask,Top*%
%TF.FilePolarity,Negative*%
%FSLAX46Y46*%
G04 Gerber Fmt 4.6, Leading zero omitted, Abs format (unit mm)*
G04 Created by KiCad (PCBNEW (5.1.9)-1) date 2021-06-19 11:56:29*
%MOMM*%
%LPD*%
G01*
G04 APERTURE LIST*
%ADD10C,2.000000*%
%ADD11O,2.600000X1.800000*%
%ADD12R,2.600000X1.800000*%
%ADD13O,1.600000X1.600000*%
%ADD14R,1.600000X1.600000*%
%ADD15C,10.160000*%
%ADD16O,1.700000X1.700000*%
%ADD17R,1.700000X1.700000*%
%ADD18O,2.000000X1.905000*%
%ADD19R,2.000000X1.905000*%
%ADD20O,3.500000X3.500000*%
%ADD21C,1.440000*%
%ADD22C,1.600000*%
%ADD23C,1.800000*%
%ADD24R,1.800000X1.800000*%
G04 APERTURE END LIST*
D10*
%TO.C,U2*%
X71477000Y-78425000D03*
X71477000Y-3425900D03*
D11*
X71477000Y-47025000D03*
X71477000Y-44485000D03*
X71477000Y-41945000D03*
X71477000Y-39405000D03*
X71477000Y-36865000D03*
X71477000Y-34325000D03*
X71477000Y-31785000D03*
X71477000Y-29245000D03*
X71477000Y-26705000D03*
X71477000Y-24165000D03*
X71477000Y-21625000D03*
X71477000Y-19085000D03*
X71477000Y-16545000D03*
X71477000Y-14005000D03*
X71477000Y-11465000D03*
D12*
X71477000Y-8925000D03*
%TD*%
D13*
%TO.C,A1*%
X54737000Y-30480000D03*
X57277000Y-30480000D03*
X17657000Y-30480000D03*
X57277000Y-78740000D03*
X20197000Y-30480000D03*
X54737000Y-78740000D03*
X22737000Y-30480000D03*
X52197000Y-78740000D03*
X25277000Y-30480000D03*
X49657000Y-78740000D03*
X27817000Y-30480000D03*
X47117000Y-78740000D03*
X30357000Y-30480000D03*
X44577000Y-78740000D03*
X32897000Y-30480000D03*
X39497000Y-78740000D03*
X35437000Y-30480000D03*
X36957000Y-78740000D03*
X39497000Y-30480000D03*
X34417000Y-78740000D03*
X42037000Y-30480000D03*
X31877000Y-78740000D03*
X44577000Y-30480000D03*
X29337000Y-78740000D03*
X47117000Y-30480000D03*
X26797000Y-78740000D03*
X49657000Y-30480000D03*
X24257000Y-78740000D03*
X52197000Y-30480000D03*
D14*
X21717000Y-78740000D03*
D13*
X15117000Y-30480000D03*
X12577000Y-30480000D03*
%TD*%
D15*
%TO.C,J5*%
X93472000Y-90805000D03*
%TD*%
%TO.C,J4*%
X80137000Y-90805000D03*
%TD*%
D16*
%TO.C,J9*%
X26797000Y-24130000D03*
X29337000Y-24130000D03*
X31877000Y-24130000D03*
X34417000Y-24130000D03*
X36957000Y-24130000D03*
X39497000Y-24130000D03*
D17*
X42037000Y-24130000D03*
%TD*%
D18*
%TO.C,U1*%
X26947000Y-90805000D03*
X26947000Y-88265000D03*
D19*
X26947000Y-85725000D03*
D20*
X10287000Y-88265000D03*
%TD*%
D10*
%TO.C,SW4*%
X61032000Y-13335000D03*
X65532000Y-13335000D03*
X61032000Y-6835000D03*
X65532000Y-6835000D03*
%TD*%
%TO.C,SW3*%
X52832000Y-13335000D03*
X57332000Y-13335000D03*
X52832000Y-6835000D03*
X57332000Y-6835000D03*
%TD*%
%TO.C,SW2*%
X52832000Y-24130000D03*
X57332000Y-24130000D03*
X52832000Y-17630000D03*
X57332000Y-17630000D03*
%TD*%
%TO.C,SW1*%
X65587000Y-17630000D03*
X61087000Y-17630000D03*
X65587000Y-24130000D03*
X61087000Y-24130000D03*
%TD*%
D21*
%TO.C,RV1*%
X65532000Y-64135000D03*
X65532000Y-61595000D03*
X65532000Y-59055000D03*
%TD*%
D13*
%TO.C,R6*%
X65532000Y-46355000D03*
D22*
X65532000Y-53975000D03*
%TD*%
D13*
%TO.C,R5*%
X45847000Y-5715000D03*
D22*
X45847000Y-13335000D03*
%TD*%
D13*
%TO.C,R4*%
X45847000Y-25400000D03*
D22*
X45847000Y-17780000D03*
%TD*%
D13*
%TO.C,R3*%
X49657000Y-13335000D03*
D22*
X49657000Y-5715000D03*
%TD*%
D13*
%TO.C,R2*%
X49657000Y-25400000D03*
D22*
X49657000Y-17780000D03*
%TD*%
D13*
%TO.C,R1*%
X16002000Y-95885000D03*
D22*
X23622000Y-95885000D03*
%TD*%
D16*
%TO.C,J8*%
X2413000Y-24130000D03*
X4953000Y-24130000D03*
X7493000Y-24130000D03*
X10033000Y-24130000D03*
X12573000Y-24130000D03*
D17*
X15113000Y-24130000D03*
%TD*%
D15*
%TO.C,J3*%
X66167000Y-90805000D03*
%TD*%
%TO.C,J2*%
X52197000Y-90805000D03*
%TD*%
%TO.C,J1*%
X38227000Y-90805000D03*
%TD*%
D23*
%TO.C,D1*%
X12827000Y-95885000D03*
D24*
X10287000Y-95885000D03*
%TD*%
D22*
%TO.C,C2*%
X29932000Y-95885000D03*
X27432000Y-95885000D03*
%TD*%
%TO.C,C1*%
X30607000Y-86955000D03*
X30607000Y-84455000D03*
%TD*%
M02*
