%TF.GenerationSoftware,KiCad,Pcbnew,(5.1.9)-1*%
%TF.CreationDate,2021-06-15T00:37:41-03:00*%
%TF.ProjectId,assert,61737365-7274-42e6-9b69-6361645f7063,rev?*%
%TF.SameCoordinates,Original*%
%TF.FileFunction,Soldermask,Bot*%
%TF.FilePolarity,Negative*%
%FSLAX46Y46*%
G04 Gerber Fmt 4.6, Leading zero omitted, Abs format (unit mm)*
G04 Created by KiCad (PCBNEW (5.1.9)-1) date 2021-06-15 00:37:41*
%MOMM*%
%LPD*%
G01*
G04 APERTURE LIST*
%ADD10C,2.000000*%
%ADD11O,2.600000X1.800000*%
%ADD12R,2.600000X1.800000*%
%ADD13O,1.600000X1.600000*%
%ADD14R,1.600000X1.600000*%
%ADD15C,10.160000*%
%ADD16O,1.700000X1.700000*%
%ADD17R,1.700000X1.700000*%
%ADD18O,2.000000X1.905000*%
%ADD19R,2.000000X1.905000*%
%ADD20O,3.500000X3.500000*%
%ADD21C,1.440000*%
%ADD22C,1.600000*%
%ADD23C,1.800000*%
%ADD24R,1.800000X1.800000*%
G04 APERTURE END LIST*
D10*
%TO.C,U2*%
X70080000Y-78425000D03*
X70080000Y-3425900D03*
D11*
X70080000Y-47025000D03*
X70080000Y-44485000D03*
X70080000Y-41945000D03*
X70080000Y-39405000D03*
X70080000Y-36865000D03*
X70080000Y-34325000D03*
X70080000Y-31785000D03*
X70080000Y-29245000D03*
X70080000Y-26705000D03*
X70080000Y-24165000D03*
X70080000Y-21625000D03*
X70080000Y-19085000D03*
X70080000Y-16545000D03*
X70080000Y-14005000D03*
X70080000Y-11465000D03*
D12*
X70080000Y-8925000D03*
%TD*%
D13*
%TO.C,A1*%
X53340000Y-30480000D03*
X55880000Y-30480000D03*
X16260000Y-30480000D03*
X55880000Y-78740000D03*
X18800000Y-30480000D03*
X53340000Y-78740000D03*
X21340000Y-30480000D03*
X50800000Y-78740000D03*
X23880000Y-30480000D03*
X48260000Y-78740000D03*
X26420000Y-30480000D03*
X45720000Y-78740000D03*
X28960000Y-30480000D03*
X43180000Y-78740000D03*
X31500000Y-30480000D03*
X38100000Y-78740000D03*
X34040000Y-30480000D03*
X35560000Y-78740000D03*
X38100000Y-30480000D03*
X33020000Y-78740000D03*
X40640000Y-30480000D03*
X30480000Y-78740000D03*
X43180000Y-30480000D03*
X27940000Y-78740000D03*
X45720000Y-30480000D03*
X25400000Y-78740000D03*
X48260000Y-30480000D03*
X22860000Y-78740000D03*
X50800000Y-30480000D03*
D14*
X20320000Y-78740000D03*
D13*
X13720000Y-30480000D03*
X11180000Y-30480000D03*
%TD*%
D15*
%TO.C,J5*%
X92710000Y-90805000D03*
%TD*%
%TO.C,J4*%
X78740000Y-90805000D03*
%TD*%
D16*
%TO.C,J9*%
X25400000Y-24130000D03*
X27940000Y-24130000D03*
X30480000Y-24130000D03*
X33020000Y-24130000D03*
X35560000Y-24130000D03*
X38100000Y-24130000D03*
D17*
X40640000Y-24130000D03*
%TD*%
D18*
%TO.C,U1*%
X25550000Y-90805000D03*
X25550000Y-88265000D03*
D19*
X25550000Y-85725000D03*
D20*
X8890000Y-88265000D03*
%TD*%
D10*
%TO.C,SW4*%
X59635000Y-13335000D03*
X64135000Y-13335000D03*
X59635000Y-6835000D03*
X64135000Y-6835000D03*
%TD*%
%TO.C,SW3*%
X51435000Y-13335000D03*
X55935000Y-13335000D03*
X51435000Y-6835000D03*
X55935000Y-6835000D03*
%TD*%
%TO.C,SW2*%
X51435000Y-24130000D03*
X55935000Y-24130000D03*
X51435000Y-17630000D03*
X55935000Y-17630000D03*
%TD*%
%TO.C,SW1*%
X64190000Y-17630000D03*
X59690000Y-17630000D03*
X64190000Y-24130000D03*
X59690000Y-24130000D03*
%TD*%
D21*
%TO.C,RV1*%
X64135000Y-64135000D03*
X64135000Y-61595000D03*
X64135000Y-59055000D03*
%TD*%
D13*
%TO.C,R6*%
X64135000Y-46355000D03*
D22*
X64135000Y-53975000D03*
%TD*%
D13*
%TO.C,R5*%
X44450000Y-5715000D03*
D22*
X44450000Y-13335000D03*
%TD*%
D13*
%TO.C,R4*%
X44450000Y-25400000D03*
D22*
X44450000Y-17780000D03*
%TD*%
D13*
%TO.C,R3*%
X48260000Y-13335000D03*
D22*
X48260000Y-5715000D03*
%TD*%
D13*
%TO.C,R2*%
X48260000Y-25400000D03*
D22*
X48260000Y-17780000D03*
%TD*%
D13*
%TO.C,R1*%
X14605000Y-95885000D03*
D22*
X22225000Y-95885000D03*
%TD*%
D16*
%TO.C,J8*%
X3175000Y-24130000D03*
X5715000Y-24130000D03*
X8255000Y-24130000D03*
X10795000Y-24130000D03*
X13335000Y-24130000D03*
D17*
X15875000Y-24130000D03*
%TD*%
D15*
%TO.C,J3*%
X64770000Y-90805000D03*
%TD*%
%TO.C,J2*%
X50800000Y-90805000D03*
%TD*%
%TO.C,J1*%
X36830000Y-90805000D03*
%TD*%
D23*
%TO.C,D1*%
X11430000Y-95885000D03*
D24*
X8890000Y-95885000D03*
%TD*%
D22*
%TO.C,C2*%
X28535000Y-95885000D03*
X26035000Y-95885000D03*
%TD*%
%TO.C,C1*%
X29210000Y-86955000D03*
X29210000Y-84455000D03*
%TD*%
M02*
