M48
; DRILL file {KiCad (5.1.9)-1} date 06/15/21 00:37:54
; FORMAT={2:4/ absolute / inch / suppress leading zeros}
; #@! TF.CreationDate,2021-06-15T00:37:54-03:00
; #@! TF.GenerationSoftware,Kicad,Pcbnew,(5.1.9)-1
FMAT,2
INCH,TZ
T1C0.0197
T2C0.0315
T3C0.0354
T4C0.0394
T5C0.0433
T6C0.0472
T7C0.0591
T8C0.1181
T9C0.1181
%
G90
G05
T1
X3750Y-10500
X4750Y-10500
T2
X5750Y-37750
X8750Y-37750
X10250Y-37750
X11234Y-37750
X11500Y-33250
X11500Y-34234
X17500Y-2250
X17500Y-5250
X17500Y-7000
X17500Y-10000
X19000Y-2250
X19000Y-5250
X19000Y-7000
X19000Y-10000
X25250Y-18250
X25250Y-21250
X25250Y-23250
X25250Y-24250
X25250Y-25250
T3
X3500Y-37750
X4500Y-37750
T4
X1250Y-9500
X2250Y-9500
X3250Y-9500
X4250Y-9500
X4402Y-12000
X5250Y-9500
X5402Y-12000
X6250Y-9500
X6402Y-12000
X7402Y-12000
X8000Y-31000
X8402Y-12000
X9000Y-31000
X9402Y-12000
X10000Y-9500
X10000Y-31000
X10402Y-12000
X11000Y-9500
X11000Y-31000
X11402Y-12000
X12000Y-9500
X12000Y-31000
X12402Y-12000
X13000Y-9500
X13000Y-31000
X13402Y-12000
X14000Y-9500
X14000Y-31000
X15000Y-9500
X15000Y-12000
X15000Y-31000
X16000Y-9500
X16000Y-12000
X17000Y-12000
X17000Y-31000
X18000Y-12000
X18000Y-31000
X19000Y-12000
X19000Y-31000
X20000Y-12000
X20000Y-31000
X21000Y-12000
X21000Y-31000
X22000Y-12000
X22000Y-31000
T5
X10059Y-33750
X10059Y-34750
X10059Y-35750
X20250Y-2691
X20250Y-5250
X20250Y-6941
X20250Y-9500
X22022Y-2691
X22022Y-5250
X22022Y-6941
X22022Y-9500
X23478Y-2691
X23478Y-5250
X23500Y-6941
X23500Y-9500
X25250Y-2691
X25250Y-5250
X25272Y-6941
X25272Y-9500
T6
X27591Y-3514
X27591Y-4514
X27591Y-5514
X27591Y-6514
X27591Y-7514
X27591Y-8514
X27591Y-9514
X27591Y-10514
X27591Y-11514
X27591Y-12514
X27591Y-13514
X27591Y-14514
X27591Y-15514
X27591Y-16514
X27591Y-17514
X27591Y-18514
T7
X27591Y-1349
X27591Y-30876
T8
X1250Y-1250
X1250Y-38000
X14500Y-35750
X20000Y-35750
X25500Y-35750
X31000Y-35750
X36500Y-35750
X38000Y-1250
T9
X3500Y-34750
T0
M30
