M48
; DRILL file {KiCad (5.1.9)-1} date 06/19/21 11:56:31
; FORMAT={2:4/ absolute / inch / suppress leading zeros}
; #@! TF.CreationDate,2021-06-19T11:56:31-03:00
; #@! TF.GenerationSoftware,Kicad,Pcbnew,(5.1.9)-1
FMAT,2
INCH,TZ
T1C0.0197
T2C0.0315
T3C0.0354
T4C0.0394
T5C0.0433
T6C0.0472
T7C0.1181
T8C0.1181
%
G90
G05
T1
X9400Y-11060
X10500Y-11050
T2
X6300Y-37750
X9300Y-37750
X10800Y-37750
X11784Y-37750
X12050Y-33250
X12050Y-34234
X18050Y-2250
X18050Y-5250
X18050Y-7000
X18050Y-10000
X19550Y-2250
X19550Y-5250
X19550Y-7000
X19550Y-10000
X25800Y-18250
X25800Y-21250
X25800Y-23250
X25800Y-24250
X25800Y-25250
T3
X4050Y-37750
X5050Y-37750
T4
X950Y-9500
X1950Y-9500
X2950Y-9500
X3950Y-9500
X4950Y-9500
X4952Y-12000
X5950Y-9500
X5952Y-12000
X6952Y-12000
X7952Y-12000
X8550Y-31000
X8952Y-12000
X9550Y-31000
X9952Y-12000
X10550Y-9500
X10550Y-31000
X10952Y-12000
X11550Y-9500
X11550Y-31000
X11952Y-12000
X12550Y-9500
X12550Y-31000
X12952Y-12000
X13550Y-9500
X13550Y-31000
X13952Y-12000
X14550Y-9500
X14550Y-31000
X15550Y-9500
X15550Y-12000
X15550Y-31000
X16550Y-9500
X16550Y-12000
X17550Y-12000
X17550Y-31000
X18550Y-12000
X18550Y-31000
X19550Y-12000
X19550Y-31000
X20550Y-12000
X20550Y-31000
X21550Y-12000
X21550Y-31000
X22550Y-12000
X22550Y-31000
X28141Y-1349
X28141Y-30876
T5
X10609Y-33750
X10609Y-34750
X10609Y-35750
X20800Y-2691
X20800Y-5250
X20800Y-6941
X20800Y-9500
X22572Y-2691
X22572Y-5250
X22572Y-6941
X22572Y-9500
X24028Y-2691
X24028Y-5250
X24050Y-6941
X24050Y-9500
X25800Y-2691
X25800Y-5250
X25822Y-6941
X25822Y-9500
T6
X28141Y-3514
X28141Y-4514
X28141Y-5514
X28141Y-6514
X28141Y-7514
X28141Y-8514
X28141Y-9514
X28141Y-10514
X28141Y-11514
X28141Y-12514
X28141Y-13514
X28141Y-14514
X28141Y-15514
X28141Y-16514
X28141Y-17514
X28141Y-18514
T7
X1000Y-1000
X1000Y-38370
X15050Y-35750
X20550Y-35750
X26050Y-35750
X31550Y-35750
X36800Y-35750
X38370Y-1000
T8
X4050Y-34750
T0
M30
